<?xml version="1.0" encoding="UTF-8"?>
<svg id="_レイヤー_1" data-name="レイヤー_1" xmlns="http://www.w3.org/2000/svg" version="1.1" viewBox="0 0 65 305">
  <!-- Generator: Adobe Illustrator 29.0.1, SVG Export Plug-In . SVG Version: 2.1.0 Build 192)  -->
  <defs>
    <style>
      .st0 {
        fill: #fff;
      }

      .st1 {
        fill: #3c291a;
      }
    </style>
  </defs>
  <g>
    <path class="st0" d="M54.938,18.387c-.215,0-.434-.01-.658-.029-.739-.065-1.549-.24-2.409-.521-.777-.253-1.208-1.083-.969-1.864l.024-.078c-.113-.008-.227-.029-.339-.063l-2.604-.806c-.394-.122-.721-.401-.903-.771-.182-.37-.204-.799-.059-1.186.293-.788.681-2.033.987-3.172.208-.774.987-1.247,1.769-1.077l2.435.531c.278-.523.524-.995.755-1.434.022-.043.045-.086.067-.129-.107-.032-.215-.064-.33-.097-.398-.114-.731-.387-.92-.755s-.219-.798-.08-1.188l.983-2.77c.133-.375.41-.682.77-.853.359-.17.772-.191,1.147-.058l1.368.481c1.265.441,2.574.898,3.635,1.331.375.153.672.451.824.826.152.375.146.796-.017,1.167-.69,1.569-1.125,2.522-1.564,3.403.082.094.161.19.236.289l2.105-.913c.667-.288,1.447-.057,1.849.55.449.68,1.534,2.934,1.874,3.891.271.763-.113,1.603-.866,1.898l-2.526.99c-.66.259-1.395.018-1.783-.546-.316.734-.779,1.356-1.375,1.84-.906.734-2.08,1.114-3.424,1.114ZM57.088,13.956c-.19.429-.486.782-.873,1.033-.354.23-.74.35-1.132.396.477-.017.999-.125,1.39-.442.283-.23.489-.56.615-.986ZM53.303,12.098c.13.009.259.035.385.078.068.023.132.045.193.064-.161-.106-.348-.208-.534-.298-.014.051-.028.104-.043.156ZM55.438,9.663c.022.014.044.028.067.043-.004-.054-.005-.108-.004-.163-.021.04-.042.08-.063.12ZM56.198,5.805c.171.154.306.348.392.567.059.152.093.31.101.469.106-.229.218-.473.338-.739-.271-.099-.549-.198-.831-.298Z"/>
    <path class="st0" d="M53.511,34.704c-.215,0-.435-.01-.658-.029-.738-.064-1.549-.24-2.41-.521-.776-.254-1.207-1.083-.968-1.864l.023-.077c-.113-.008-.227-.029-.339-.063l-2.604-.806c-.395-.122-.721-.401-.903-.771-.182-.37-.204-.799-.06-1.186.296-.793.684-2.039.987-3.172.207-.773.984-1.248,1.768-1.077l2.435.531c.279-.527.528-1,.76-1.442.021-.041.042-.081.063-.121-.107-.032-.216-.064-.331-.097-.398-.114-.73-.388-.92-.756s-.218-.798-.08-1.188l.984-2.77c.133-.375.41-.682.77-.853.359-.17.771-.191,1.147-.058l1.375.484c1.262.44,2.567.896,3.626,1.328.375.153.672.451.824.826s.146.796-.017,1.167c-.679,1.546-1.122,2.514-1.565,3.403.083.095.161.191.236.289l2.105-.913c.668-.289,1.447-.058,1.849.55.448.679,1.534,2.933,1.874,3.891.271.763-.113,1.604-.867,1.898l-2.527.99c-.66.258-1.395.019-1.783-.546-.316.734-.779,1.356-1.375,1.84-.905.734-2.079,1.114-3.423,1.114ZM55.659,30.276c-.19.428-.486.781-.872,1.031-.353.229-.738.349-1.129.395.476-.018.996-.125,1.386-.442.283-.229.488-.559.615-.984ZM51.875,28.416c.13.009.259.035.384.078.064.022.126.042.184.061-.161-.106-.347-.207-.524-.294-.014.051-.029.103-.043.155ZM54.01,25.981c.022.014.045.028.067.042-.004-.054-.005-.108-.004-.163-.021.04-.042.08-.063.12ZM54.769,22.123c.171.154.306.348.392.567.059.152.093.31.101.469.106-.229.218-.473.338-.739-.271-.099-.549-.198-.831-.298Z"/>
    <path class="st0" d="M58.884,42.241c-.132,0-.265-.018-.395-.053-.417-.114-.764-.401-.953-.79-.22-.45-1.812-2.626-2.333-3.189-.272-.294-.416-.685-.398-1.085.018-.4.194-.776.491-1.046l1.963-1.78c.608-.552,1.546-.512,2.106.089.411.441,2.603,2.993,3.092,4.458.215.644-.029,1.352-.596,1.727l-2.149,1.42c-.248.164-.536.249-.827.249Z"/>
    <path class="st0" d="M54.959,58.631c-.606,0-1.242-.03-1.916-.089-2.372-.208-4.659-.811-6.44-1.699-.659-.328-.982-1.085-.763-1.788l.931-2.991c.134-.431.455-.778.874-.946.42-.168.891-.139,1.286.08,1.933,1.072,4.575,1.504,7.644,1.248.413-.034.817.102,1.124.375.307.274.488.663.5,1.075l.092,3.08c.023.772-.544,1.436-1.31,1.533-.64.082-1.31.123-2.021.123ZM49.106,54.656c1.244.454,2.693.766,4.199.898.698.061,1.341.087,1.944.074l-.003-.112c-2.289.039-4.334-.272-6.116-.936l-.023.076ZM56.101,52.352c-.153,0-.308-.023-.461-.073l-2.531-.817c-.39-.126-.712-.406-.89-.776-.145-.3-.185-.637-.117-.959-1.159-.262-2.402-.566-3.669-.899-.767-.202-1.244-.965-1.09-1.743l.582-2.931c.08-.403.322-.756.669-.976.348-.22.77-.286,1.168-.187,2.712.683,4.594,1.061,6.586,1.462l1.49.302c.413.084.77.338.986.7.216.361.27.796.149,1.2l-.205.687c-.417,1.4-.891,2.986-1.252,4.01-.217.615-.795,1.001-1.415,1.001ZM50.562,46.276c1.351.337,2.642.633,3.793.867.406.083.759.329.977.682.039.062.072.127.101.194.065-.215.131-.433.196-.65-1.588-.32-3.12-.63-5.067-1.093h0Z"/>
    <path class="st0" d="M57.762,74.922c-.062,0-.125-.004-.188-.012-1.835-.23-3.247-.977-4.195-2.221-.447-.587-.779-1.273-.994-2.057-.064,1.16-.075,2.051-.027,2.55.041.426-.102.849-.393,1.163-.29.314-.712.502-1.129.48l-2.905-.056c-.4-.007-.781-.175-1.057-.465-.276-.29-.425-.679-.414-1.079.005-.153.009-.306.015-.458-.51.114-1.063-.041-1.438-.451l-1.814-1.984c-.278-.304-.419-.709-.389-1.12.03-.411.227-.792.546-1.053.262-.214.692-.581,1.184-1.007-.217-.039-.425-.125-.607-.256-.33-.236-.551-.597-.61-.999l-.399-2.673c-.061-.404.047-.815.296-1.138.25-.323.621-.531,1.027-.574.774-.083,1.946-.285,3.159-.54l.156-1.227c.105-.808.844-1.387,1.646-1.298l2.901.308c.409.043.783.253,1.033.58s.355.742.291,1.148c-.075.474-.149.973-.22,1.497,1.301-.484,2.599-.768,3.522-.494.407.121.744.408.926.791l.55,1.151c.146.306.185.652.109.982-.84,3.66-.56,4.379-.454,4.513h0s.099.063.411.097c.402.042.77.245,1.021.563.25.317.362.723.31,1.124l-.381,2.912c-.099.755-.743,1.305-1.485,1.305ZM48.122,68.042c.219,0,.44.048.647.147.328.157.58.423.723.742.045-.587.093-1.133.135-1.581.046-.493.333-.931.766-1.171.186-.104.38-.204.585-.302-.14-.043-.274-.107-.399-.192-.293-.199-.5-.492-.596-.821.005.077.004.155-.002.233l-.067.771c-.032.372-.202.719-.477.972-.333.307-.814.739-1.338,1.203h.024ZM53.925,64.931c.28.037.548.153.77.341.13.11.239.24.323.382.067-.375.146-.768.234-1.179-.332.089-.778.234-1.327.456ZM49.203,63.647c.095.052.186.114.269.187.22.191.376.44.455.712-.006-.087-.004-.174.005-.263.049-.455.1-.899.151-1.332-.189.332-.502.584-.881.695Z"/>
    <path class="st0" d="M50.839,91.428c-.21,0-.423-.044-.623-.136-2.335-1.066-3.856-2.95-4.173-5.168-.196-1.373.079-2.761.77-4.039-.84-.076-1.702-.165-2.539-.263-.82-.096-1.408-.837-1.316-1.657l.327-2.917c.044-.396.244-.757.555-1.005.311-.249.708-.364,1.104-.318,3.33.375,6.023.626,8.025.748.047-.786.698-1.409,1.495-1.41l1.626-.002h.002c.17,0,.334.028.487.081.114-.028.232-.043.354-.043l1.591-.005h.005c.81,0,1.473.642,1.499,1.452.015.465.023,1.429.017,2.355-.006.817-.665,1.479-1.482,1.489l-1.646.019c-.167.001-.351-.027-.515-.085-.1.021-.203.032-.309.032h-.376c-.075.34-.268.651-.557.871-3.172,2.412-3.225,3.425-3.204,3.604.031.256.49.738,1.685,1.258.452.197.778.603.873,1.086s-.053.983-.397,1.336l-2.205,2.265c-.289.296-.679.454-1.075.454ZM48.988,85.452c.005.083.013.166.025.248.132.923.675,1.737,1.556,2.356l.047-.048c-.757-.58-1.468-1.409-1.627-2.556ZM50.53,79.5c.306.178.546.462.666.812.054.156.08.316.081.475.375-.362.798-.735,1.27-1.12l-.004-.016c-.613-.04-1.285-.09-2.013-.151Z"/>
    <path class="st0" d="M49.498,107.621c-.221,0-.445-.01-.674-.03-3.276-.307-5.192-2.118-5.547-5.158-.021.001-.04.002-.059.004-.439.028-.859-.131-1.166-.439-.307-.309-.464-.735-.432-1.168l.205-2.747c.025-.334.158-.637.364-.873-.119-.243-.171-.516-.146-.79l.236-2.691c.07-.801.769-1.392,1.563-1.368.151.007.346.018.562.031l.013-.064c.161-.768.885-1.286,1.663-1.18l2.913.381c.417.055.792.282,1.034.626.152.217.242.467.266.726.598.062,1.026.116,1.278.161.764.137,1.297.834,1.229,1.607l-.234,2.673c-.037.424-.252.812-.592,1.068-.091.068-.188.125-.29.171l-.034.727,2.818.421c.791.118,1.349.835,1.271,1.63-.382,3.881-2.802,6.282-6.24,6.282ZM45.495,99.613c.112.067.216.149.309.244.289.298.441.702.421,1.117-.064,1.334.172,2.185.634,2.727-.463-.649-.664-1.594-.598-2.832.033-.604.418-1.105.946-1.314-.131-.081-.251-.182-.354-.302-.221-.258-.347-.583-.36-.918-.001.015-.003.029-.005.044-.071.581-.469,1.05-.995,1.233ZM46.067,95.412c.116.082.222.18.312.293.196.245.308.542.327.849.118-.527.507-.938,1.001-1.098-.126-.088-.239-.196-.334-.32-.168-.22-.271-.48-.299-.75-.161.476-.544.869-1.007,1.026Z"/>
    <path class="st0" d="M41.456,120.999c-.624,0-1.204-.391-1.418-1.012-.83-2.408-1.104-4.572-.89-7.017h0c.096-1.096.288-2.263.605-3.673.088-.39.328-.729.667-.941.34-.213.749-.281,1.138-.189l2.833.664c.783.183,1.282.952,1.132,1.742-.224,1.171-.355,2.435-.382,3.564l.144-.02c.396-.054.799.055,1.116.301.317.245.522.606.571,1.004l.306,2.503c.087.71-.34,1.383-1.021,1.607-.755.248-1.529.494-2.297.738-.691.22-1.377.438-2.038.654-.155.05-.312.075-.466.075ZM42.268,112.119c-.057.388-.101.756-.132,1.112h0c-.135,1.546-.04,2.915.319,4.37.198-.063.396-.126.596-.19.106-.034.213-.068.32-.102-.229-.05-.444-.153-.628-.304-.312-.255-.509-.625-.545-1.027-.101-1.121-.073-2.477.071-3.859ZM40.642,113.101h.01-.01ZM50.724,118.971c-.334,0-.662-.112-.928-.322-.344-.271-.552-.679-.57-1.116-.056-1.348-.351-3.322-.808-5.418-.089-.408-.004-.835.235-1.178.239-.342.609-.57,1.023-.628l2.946-.411c.711-.094,1.395.321,1.627,1,.504,1.474.864,4.325.77,6.102-.037.686-.534,1.259-1.208,1.392l-2.796.55c-.096.019-.193.028-.29.028ZM51.67,113.06c.094.502.177.99.248,1.458-.056-.505-.129-1.009-.215-1.462l-.033.004Z"/>
    <path class="st0" d="M44.885,138.194c-.649,0-1.232-.421-1.43-1.049l-.849-2.695c-.137-.434-.069-.907.184-1.285.158-.236.378-.419.631-.533-.225,0-.464.005-.721.015-.416.019-.838-.149-1.135-.456-.296-.307-.449-.725-.418-1.15.044-.619.116-1.44.21-2.286-.356-.037-.708-.076-1.054-.122-.395-.052-.752-.258-.995-.574-.243-.316-.349-.715-.297-1.109l.373-2.823c.106-.808.842-1.378,1.647-1.295l.493.053c.233.025.454.049.676.072.063-.351.125-.664.18-.918.168-.768.907-1.274,1.678-1.164l2.91.417c.415.06.786.29,1.023.635s.319.774.226,1.183c-.016.072-.033.149-.049.23.566.021,1.068.022,1.492.034h.002c.408,0,.798.166,1.082.46s.434.692.417,1.101l-.11,2.702c-.021.536-.323,1-.765,1.248.221.174.424.363.607.567.808.9,1.179,2.019,1.072,3.234-.253,2.89-3.181,5.204-6.961,5.502-.04.003-.08.005-.119.005ZM48.595,131.388c.169.333.242.702.209,1.076-.045.519-.265.993-.631,1.407.466-.428.758-.925.804-1.446.033-.383-.067-.69-.316-.968-.021-.023-.043-.046-.066-.069ZM44.278,129.648c.056.002.111.005.166.008-.059-.123-.102-.252-.126-.386-.014.127-.027.253-.04.378ZM43.711,126.063c.196.098.37.238.508.413.171.217.278.475.312.744.131-.576.587-1.014,1.151-1.133-.169-.092-.321-.217-.446-.37-.183-.225-.294-.495-.327-.777-.142.585-.62,1.021-1.198,1.123Z"/>
    <path class="st0" d="M46.813,154.588c-.349,0-.697-.121-.979-.363l-1.916-1.65c-.03-.026-.059-.053-.086-.081-.331.02-.695.036-1.083.051-.221.387-.499.798-.85,1.291-.413.581-1.176.792-1.83.502l-2.036-.901c-.324-.144-.584-.396-.738-.708-.099.004-.194.009-.283.015-.416.021-.805-.119-1.104-.393-.299-.275-.474-.66-.484-1.067l-.057-2.246c-.008-.335.094-.647.273-.902l-.529-.617c-.538-.627-.467-1.572.158-2.112l.06-.051c-.088-.209-.128-.438-.115-.669l.146-2.5c.033-.554.362-1.021.828-1.254l.121-2.147c.043-.779.676-1.391,1.449-1.415.089-.263.25-.498.467-.677.31-.256.705-.378,1.108-.335l2.257.233c.617.064,1.109.494,1.28,1.053.374.047.716.234.959.523.079.093.145.195.197.303.344.057.668.221.896.485l.09.105.319-.754c.319-.757,1.188-1.117,1.949-.807l2.374.967c.371.151.666.444.819.813.105.253.138.528.099.795.739.048,1.458.097,2.095.143.404.029.779.221,1.04.531.26.31.385.713.344,1.116l-.273,2.706c-.041.405-.239.757-.529,1,.041.261.012.531-.086.782-.345.876-.721,1.692-1.138,2.466.147.097.302.197.468.302.344.218.585.566.667.965.082.398-.001.814-.231,1.15l-1.471,2.148c-.448.654-1.328.847-2.008.439-.255-.153-.509-.312-.759-.478-.285.294-.573.576-.863.844-.287.265-.652.398-1.018.398ZM40.469,150.166c.022.026.044.053.065.081.073-.111.161-.211.26-.298-.01-.009-.021-.019-.031-.029-.088.095-.187.178-.294.246ZM47.846,149.045c.135.28.179.594.129.898.223-.08.464-.105.698-.077-.13-.288-.166-.613-.101-.926-.11.045-.226.078-.345.096-.127.02-.255.022-.381.009ZM39.293,143.781c.155.156.276.346.351.562.027.077.047.155.061.234.024-.026.05-.051.076-.076l.611-.562c.078-.072.163-.135.253-.188-.073-.023-.145-.053-.215-.088-.185-.093-.344-.22-.472-.371-.173.22-.403.391-.666.489ZM41.928,143.576c.186.013.367.026.543.039-.071-.106-.128-.223-.17-.348l-.202.179c-.054.048-.111.091-.17.13ZM47.034,141.998c-.094.225-.189.453-.283.68.209-.088.439-.131.678-.114-.106-.094-.199-.205-.276-.328-.047-.076-.086-.156-.119-.237ZM39.915,140.149c.052.051.101.105.145.163.046-.051.097-.1.15-.145.032-.027.065-.052.099-.076-.05-.049-.098-.102-.141-.158-.076.081-.161.154-.252.216Z"/>
    <path class="st0" d="M47.084,171.127c-.036,0-.072-.001-.109-.004l-2.443-.178c-.4-.029-.772-.218-1.033-.523-.26-.306-.387-.703-.352-1.104l.125-1.426-.301-.004c-.057.523-.107.971-.141,1.254-.098.808-.824,1.394-1.633,1.313-2.088-.201-4.178-.384-6.27-.548-.826-.065-1.442-.787-1.378-1.613.154-1.962.305-3.688.445-5.289h0c.2-2.287.398-4.337.625-6.531.083-.793.784-1.393,1.567-1.343.223.011.456.027.688.044.406-.572.749-1.047,1.385-1.878.483-.63,1.375-.775,2.032-.329l1.774,1.203c.334.227.563.579.635.977.02.114.027.228.021.342.152-.048.317-.075.483-.068,2.578.059,5.174.179,7.508.346.406.029.782.222,1.043.534.261.312.384.717.341,1.122l-.302,2.83c-.011.104-.033.206-.064.302.02.021.039.042.057.064.258.305.383.7.348,1.098l-.136,1.561c-.099,1.128-.192,2.043-.298,3.086l-.055.538c-.083.815-.807,1.414-1.623,1.342l-1.317-.115c-.054.649-.098,1.202-.127,1.604-.028.397-.213.767-.514,1.028-.273.236-.623.366-.982.366ZM35.488,163.136h.01-.01ZM46.048,162.532c.088.067.169.144.242.23.05.06.095.123.135.189.132-.159.295-.291.478-.386-.095-.07-.183-.151-.26-.243-.045-.054-.087-.111-.125-.17-.129.156-.29.286-.47.378ZM46.274,158.523c.125.078.24.174.339.288.049.056.094.115.133.177.136-.176.31-.32.508-.42-.325-.016-.652-.03-.98-.044Z"/>
    <path class="st0" d="M42.477,187.003c-.21,0-.423-.044-.623-.135-2.335-1.066-3.856-2.95-4.173-5.168-.196-1.373.079-2.762.77-4.04-.84-.076-1.702-.165-2.539-.263-.82-.096-1.408-.837-1.316-1.657l.328-2.917c.044-.396.244-.757.555-1.005.312-.249.71-.364,1.104-.318,3.324.375,6.017.626,8.025.748.047-.786.698-1.409,1.495-1.41l1.626-.002h.002c.17,0,.334.028.487.081.114-.028.232-.043.354-.043l1.591-.005h.005c.81,0,1.473.642,1.499,1.452.015.465.024,1.431.017,2.356-.006.817-.666,1.479-1.483,1.489l-1.646.019c-.199,0-.351-.028-.515-.085-.1.021-.203.032-.309.032h-.376c-.075.34-.268.651-.557.871-3.172,2.412-3.225,3.425-3.204,3.604.031.255.49.738,1.684,1.257.452.196.778.603.874,1.086s-.053.982-.397,1.336l-2.205,2.265c-.289.296-.679.454-1.075.454ZM40.626,181.028c.005.083.013.166.025.248.132.923.675,1.737,1.556,2.356l.046-.048c-.757-.581-1.467-1.409-1.627-2.556ZM42.168,175.076c.306.178.546.462.666.811.054.156.08.316.081.475.375-.362.798-.735,1.27-1.12l-.004-.016c-.614-.04-1.285-.089-2.012-.15Z"/>
    <path class="st0" d="M40.571,203.623c-.261,0-.524-.068-.761-.208l-2.596-1.528c-.417-.246-.69-.678-.733-1.161-.031-.345.06-.686.249-.968-1.433-.416-2.151-1.351-2.442-1.851-.812-1.397-.683-3.187.331-4.557.039-.053.079-.105.12-.156-.17-.021-.343-.042-.52-.064-.801-.099-1.381-.815-1.31-1.62l.244-2.78c.036-.41.238-.787.561-1.043.321-.256.736-.37,1.142-.312.969.136,2.297.286,3.835.435.061-.247.184-.477.36-.666.274-.294.655-.466,1.057-.477l3.008-.08c.415-.015.801.144,1.091.429.29.285.452.676.449,1.083,0,.054,0,.11,0,.167.402.023.842.044,1.334.064.414.017.802.203,1.073.515.271.312.402.722.361,1.134l-.279,2.777c-.076.756-.706,1.336-1.466,1.35-.379.006-.823.002-1.294-.013-.068.387-.149.746-.243,1.082.927,2.615-.098,5.913-2.585,8.078-.28.244-.631.369-.985.369ZM40.554,196.925c.144.077.276.179.391.303.25.27.386.614.398.967.209-.823.178-1.634-.143-2.285-.18-.365-.204-.786-.066-1.168.048-.135.093-.279.135-.431-.122.171-.281.316-.467.425-.093.054-.19.097-.291.129.284.481.37,1.059.235,1.611-.039.16-.104.311-.191.449ZM37.832,195.763c-.057.233-.006.491.137.69.136.189.298.25.365.256.313.032.622-.135.782-.404.039-.065.067-.135.086-.207l-1.37-.335ZM39.289,196.12h.01-.01ZM38.393,194.96c-.111.057-.204.132-.274.221l1.093.876c.044-.222-.004-.463-.143-.674-.2-.303-.511-.417-.675-.422ZM40.647,190.88c.534.195.921.684.977,1.263.136-.513.533-.911,1.031-1.056-.572-.212-.975-.762-.977-1.401,0-.019,0-.038,0-.057h-.009c-.041.346-.201.67-.457.913-.163.155-.356.27-.565.338Z"/>
    <path class="st0" d="M39.425,219.406c-.289,0-.58-.083-.836-.255l-2.287-1.538c-.103-.069-.195-.149-.274-.237-.158.342-.438.613-.789.758-.38.157-.81.151-1.185-.016l-2.418-1.079c-.674-.3-1.029-1.046-.837-1.759.068-.253.229-.696,1.449-3.534-.235-.064-.454-.186-.634-.357-.315-.299-.485-.72-.467-1.153l.123-2.845c.033-.778.656-1.4,1.434-1.434.534-.024,1.221-.013,2.054.03l.104-.234c.276-.625.545-1.235.721-1.617.344-.745,1.222-1.075,1.972-.74l2.522,1.125c.752.335,1.093,1.214.764,1.969l-.107.24c.049.014.098.029.147.044.005-.012.01-.023.015-.035.17-.385.496-.681.895-.814l2.569-.86c.687-.23,1.443.065,1.792.702.539.984,1.564,4.032,1.77,5.259.121.722-.297,1.425-.989,1.665l-2.46.852c-.379.132-.797.105-1.158-.074-.026-.013-.051-.026-.076-.041-.433,1.77-1.329,3.659-2.608,5.376-.294.394-.746.604-1.204.604ZM38.974,209.414c.539.262.958.708,1.194,1.29.243.599.283,1.318.117,2.168.298-1.126.325-2.086.115-2.702-.158-.463-.383-.526-.491-.557-.238-.067-.546-.133-.935-.199ZM35.295,209.024c.187.115.348.271.471.461.104.161.174.337.211.52.01-.023.021-.046.031-.069.276-.616.927-.972,1.599-.868.055.009.11.018.164.026-.203-.132-.374-.314-.495-.532-.084-.151-.14-.314-.167-.481l-.036.081c-.258.577-.852.919-1.479.883-.103-.008-.203-.015-.299-.021Z"/>
    <path class="st0" d="M35.091,236.3c-.654,0-1.24-.427-1.434-1.063l-.842-2.767c-.129-.425-.063-.886.18-1.258.022-.033.045-.065.069-.096-.411.041-.82-.095-1.131-.369-.338-.298-.523-.732-.506-1.183.058-1.486.181-4.149.267-5.542.025-.404.212-.78.518-1.044.307-.264.703-.392,1.11-.357l.786.069c-.052-.367.035-.742.245-1.051l1.473-2.167c.458-.672,1.366-.858,2.05-.419.557.357,1.941,1.058,3.507,1.705.398.165.707.492.846.899.14.408.098.855-.116,1.23l-1.345,2.358c-.19.333-.491.568-.833.681.809.312,1.494.749,2.026,1.302.899.934,1.313,2.128,1.197,3.453-.382,4.371-4.702,5.297-7.918,5.613-.05.005-.099.007-.148.007ZM39.217,228.885c.084.078.162.161.233.25.457.575.564,1.318.287,1.988-.308.747-1.047,1.327-2.237,1.75,2.513-.681,2.61-1.793,2.668-2.455.04-.455-.078-.808-.371-1.112-.153-.159-.349-.3-.581-.422ZM34.532,227.169c-.012.256-.024.511-.035.76.137-.009.276-.017.418-.023-.196-.206-.328-.462-.383-.737ZM37.55,225.401c.126.011.25.023.374.039-.12-.058-.242-.119-.367-.181-.002.047-.004.094-.006.143Z"/>
    <path class="st0" d="M41.208,243.921c-.134,0-.269-.006-.406-.018-2.685-.235-4.479-2.18-4.265-4.625h0c.097-1.104.616-2.185,1.425-2.964.915-.881,2.103-1.308,3.337-1.197,2.537.222,4.355,2.344,4.137,4.831-.204,2.328-1.989,3.974-4.229,3.974ZM40.671,239.727c.051.069.196.188.404.206.07.006.205,0,.256-.062.057-.07.118-.252.054-.468-.027-.098-.211-.286-.433-.305-.083-.008-.11.003-.165.07-.113.139-.158.362-.117.559ZM40.683,239.776s0,.001,0,.002h0s0-.001,0-.002ZM40.658,239.707h0Z"/>
    <path class="st0" d="M29.285,17.032c-.61,0-1.177-.374-1.402-.968l-1.058-2.786c-.153-.403-.125-.852.076-1.233.201-.381.557-.657.976-.758,1.047-.251,1.948-.495,2.756-.751-.175-.09-.332-.215-.461-.369-.256-.305-.38-.699-.345-1.095l.04-.448c-.056.117-.109.23-.158.338-.169.375-.484.664-.872.799-.387.137-.814.106-1.18-.081l-2.508-1.286c-.712-.365-1.012-1.225-.682-1.954.324-.714,1.524-2.903,2.038-3.769.409-.689,1.285-.934,1.993-.561l1.86.986c.061-.706.112-1.322.146-1.756.03-.399.22-.77.525-1.029.306-.259.699-.388,1.102-.351l2.816.247c.819.072,1.428.79,1.365,1.61-.032.418-.079.974-.133,1.601l2.335-.727c.773-.242,1.602.178,1.865.947l.255.735c.538,1.541.959,2.767,1.08,3.358.157.769-.305,1.529-1.06,1.743l-1.456.414.566.791c.237.331.329.744.256,1.144s-.306.753-.644.979c-3.268,2.175-5.541,3.154-9.731,4.188-.12.029-.241.043-.36.043Z"/>
    <path class="st0" d="M32.158,32.724c-.243,0-.49-.011-.741-.033-2.042-.178-3.637-1.141-4.614-2.783-.895-1.504-1.237-3.533-1.019-6.029h0c.156-1.789.587-3.768,1.248-5.723.244-.723.994-1.148,1.737-.986l3.104.669c.424.091.788.362.997.741.21.38.245.832.096,1.239-1.483,4.066-1.166,6.326-.864,6.757.411.024.768-.071,1.261-.58.28-.289.663-.453,1.065-.457.394-.006.788.155,1.072.439l2.161,2.159c.581.58.587,1.518.016,2.106-1.617,1.664-3.43,2.479-5.521,2.479ZM29.481,20.391c-.364,1.3-.605,2.576-.708,3.748h0c-.16,1.832.05,3.296.609,4.235.482.811,1.212,1.232,2.297,1.328,1.01.088,1.881-.102,2.699-.606l-.063-.063c-.769.435-1.603.609-2.533.527-.91-.08-1.692-.566-2.204-1.371-.983-1.545-.957-4.381.035-7.77l-.131-.028ZM27.279,24.009h.01-.01Z"/>
    <path class="st0" d="M30.951,49.09c-.152,0-.306-.007-.46-.021-.183-.016-.29-.023-.657-.109,0,0-.002,0-.003,0-1.116-.264-1.998-.798-2.589-1.527-.093.034-.191.059-.292.074l-2.967.445c-.402.062-.811-.045-1.134-.292-.323-.247-.532-.615-.579-1.019-.261-2.254-.298-4.594-.108-6.765h0c.154-1.763.46-3.503.91-5.172.201-.744.937-1.21,1.69-1.09l2.851.466c.413.068.779.305,1.01.654.165.25.25.541.248.834.002-.002.005-.004.008-.007.312-.25.712-.361,1.108-.319.136.016.277.031.42.045.032-.296.153-.58.35-.811.272-.319.666-.51,1.086-.526l2.901-.108c.764-.013,1.466.559,1.548,1.344.012.117.023.241.034.369.212-.007.399-.017.561-.032.416-.04.826.1,1.136.378s.49.673.498,1.089l.052,2.915c.014.796-.596,1.465-1.391,1.523-.275.02-.563.035-.871.043-.021.354-.043.672-.067.961.658.449,1.354,1.033,1.834,1.557.517.565.525,1.428.02,2.003l-1.726,1.963c-.507.578-1.371.679-1.998.23-.086-.062-.185-.138-.291-.223-.801.703-1.922,1.124-3.134,1.124ZM30.778,45.882c.046.019.091.032.135.04.264.035.51-.183.637-.4.265-.453.167-.956-.035-1.23-.109-.175-.379-.327-.676-.349h0c-.179,0-.325.069-.455.215-.208.234-.295.587-.226.92l1.469-.305-1.437.432c.097.323.324.553.546.659l.037-.424.006.443ZM32.684,43.653c.172.198.3.429.378.686.011.036.02.072.028.108.041-.021.083-.039.125-.056.125-.048.254-.08.384-.094-.302-.298-.469-.716-.445-1.152-.114.201-.274.375-.471.507ZM28.092,40.062c-.049.512-.082,1.021-.097,1.534.06-.045.121-.089.184-.132.274-.186.57-.336.883-.452-.461-.145-.818-.504-.969-.949ZM23.656,40.008h.01-.01ZM32.377,38.378c.54.131.96.552,1.097,1.083.175-.478.586-.839,1.087-.949-.562-.131-1.001-.577-1.124-1.142-.073.233-.203.449-.381.624-.19.188-.426.319-.68.384Z"/>
    <path class="st0" d="M33.475,66.437c-.256,0-.515-.065-.75-.202-1.586-.918-3.229-2.046-4.721-3.989-.813.949-1.837,1.919-3.206,3.056-.619.514-1.532.448-2.071-.148l-1.862-2.061c-.267-.295-.406-.685-.385-1.082.02-.398.198-.771.493-1.038l.075-.068c3.293-2.971,4.402-3.972,4.833-9.825.029-.398.217-.769.521-1.029.304-.261.698-.387,1.097-.356l2.889.234c.398.032.767.222,1.025.527s.383.701.348,1.099c-.17,1.942-.417,3.501-.771,4.841,1.261,2.287,2.485,3.455,4.935,4.789.377.205.648.562.744.98.097.418.01.857-.239,1.207l-1.731,2.433c-.291.409-.752.63-1.223.63ZM27.9,56.8c-.196.577-.419,1.097-.668,1.575.25-.168.544-.267.86-.254.164.003.323.032.473.085-.172-.299-.343-.613-.514-.943-.076-.146-.126-.303-.151-.463Z"/>
    <path class="st0" d="M29.992,82.63c-.587,0-1.154-.023-1.69-.07-5.911-.517-6.573-3.601-6.583-4.903v-.005c-.004-.851.25-2.003,1.274-3.214-.169-.304-.232-.667-.158-1.031l.213-1.054c-.135-.015-.272-.03-.413-.045l-.21-.023c-.402-.044-.769-.249-1.018-.567-.249-.318-.359-.723-.306-1.124l.364-2.715c.106-.794.813-1.367,1.618-1.294l1.075.094s0-.006.001-.01c.138-.808.899-1.354,1.708-1.229l2.942.456c.414.064.782.299,1.016.647.109.162.184.342.223.529.182.005.363.009.545.011.41.006.799.179,1.078.479.279.301.422.702.397,1.111l-.162,2.679c0,.011-.001.022-.002.034.055.118.094.243.116.374l.456,2.643c.071.41-.032.811-.257,1.126.278.665.043,1.446-.577,1.843l-.026.017.023.023c.292.305.443.719.415,1.14l-.181,2.677c-.052.777-.69,1.384-1.469,1.398-.139.003-.277.004-.415.004ZM27.507,74.442c.402,0,.798.162,1.087.466-.003-.191.031-.385.103-.568.025-.064.054-.126.087-.185-.084.033-.168.067-.252.103-.423.174-.901.147-1.301-.073-.093-.052-.186-.103-.292-.16.006.044.01.088.012.133.006.138-.007.275-.037.406.191-.083.393-.123.593-.123ZM25.656,69.765c.151.097.285.22.394.367.133.178.223.381.267.594.171-.526.618-.91,1.152-1.009-.124-.088-.235-.196-.328-.32-.169-.226-.27-.493-.294-.769h-.008c-.135.589-.608,1.028-1.182,1.137Z"/>
    <path class="st0" d="M28.118,99.354c-.651,0-1.369-.028-2.301-.083-.719-.042-1.306-.589-1.4-1.303-.046-.355-.08-.748-.099-1.163-.484.609-1.007,1.129-1.576,1.67-.539.511-1.372.553-1.958.094l-2.131-1.668c-.347-.271-.557-.682-.574-1.123-.017-.44.16-.866.485-1.164.603-.553,1.062-.987,1.433-1.488-.383-.291-.619-.76-.592-1.274.106-2.032.473-6.654.697-9.209.07-.813.785-1.423,1.594-1.366,1.753.117,5.074.371,5.795.435,1.427.125,2.816.265,3.791.368.813.086,1.407.808,1.336,1.623l-.07.807c-.185,2.147-.571,6.616-.792,8.423-.026.216-.098.417-.204.593.174.043.341.117.492.222.348.24.579.616.635,1.036l.35,2.616c.053.398-.056.801-.302,1.119-.247.317-.61.522-1.009.57-1.521.18-2.457.266-3.599.266ZM27.302,96.34c.022,0,.043.001.065.002-.023-.025-.045-.051-.067-.077,0,.025.001.05.002.075ZM28.93,91.129h.003s0-.004,0-.007c-.001.002-.003.004-.004.007ZM22.49,90.565h.009c-.002-.006-.005-.013-.007-.02,0,.006,0,.013-.001.02ZM29.083,89.141c.012.03.023.06.034.09.005-.056.01-.113.016-.169-.016.027-.032.053-.049.079ZM22.638,88.486c-.005.067-.01.133-.015.2.018-.033.037-.065.057-.096-.015-.034-.029-.068-.042-.104ZM29.282,87.036c.01.023.019.047.028.072.004-.046.008-.092.012-.138-.013.022-.026.044-.04.066ZM22.8,86.397c-.005.065-.011.131-.016.197.017-.033.036-.064.056-.096-.015-.033-.028-.067-.04-.101ZM29.453,84.91c.015.033.028.066.04.099.003-.032.005-.063.008-.094-.016-.001-.032-.003-.048-.005ZM22.965,84.375c-.003.032-.005.064-.008.096.019-.032.038-.062.058-.093-.017,0-.033-.002-.05-.003Z"/>
    <path class="st0" d="M24.32,115.428c-.229,0-.462-.01-.699-.031-1.288-.112-2.465-.575-3.316-1.302-.978-.836-1.48-1.989-1.377-3.163h0c.079-.9.419-1.702.959-2.337-.165-.17-.291-.38-.362-.62l-.307-1.039c-.146-.492-.029-1.024.308-1.411.323-.37.603-.695.863-1.004l-.108-.007c-.398-.028-.769-.213-1.03-.515-.261-.301-.392-.695-.362-1.093l.201-2.712c.03-.4.219-.772.524-1.032s.698-.387,1.103-.351l1.382.121c1.881.164,3.657.346,6.128.626.525.06.981.392,1.198.874s.165,1.043-.139,1.477c-.745,1.063-1.292,1.828-1.794,2.517.599.301,1.134.709,1.583,1.213.996,1.118,1.468,2.604,1.33,4.182-.156,1.785-.896,3.265-2.14,4.281-1.07.873-2.423,1.326-3.944,1.326ZM23.33,111.66c.012.109.138.26.225.266.091.014.271-.069.427-.231l-.652-.034ZM26.329,111.691c0,.04-.002.08-.004.121.014-.011.028-.022.042-.034.059-.048.115-.098.169-.151-.067.026-.136.048-.207.064ZM24.827,111.737h.01-.01ZM23.119,105.932c.172.006.339.017.501.032-.073-.153-.119-.314-.137-.477-.121.149-.242.297-.364.445ZM24.324,102.154c.164.146.297.329.385.538.045.106.077.216.096.327.179-.245.361-.494.553-.759-.355-.037-.698-.073-1.033-.106Z"/>
    <path class="st0" d="M27.308,131.795c-.043,0-.088-.002-.132-.006l-9.973-.873c-.807-.07-1.412-.769-1.367-1.578.206-3.682.522-7.952.731-10.778l.129-1.751c.029-.399.215-.77.519-1.03.303-.261.697-.388,1.097-.357,1.156.092,3.086.253,5.02.414,2.119.176,4.243.353,5.35.44.399.031.769.221,1.027.526.258.306.384.702.349,1.1-.181,2.073-.848,8.62-1.26,12.549-.081.77-.73,1.344-1.49,1.344ZM25.229,128.607l.739.064c.029-.278.059-.563.088-.854-.161.363-.46.647-.827.79ZM18.916,128.055l.685.06c-.125-.081-.239-.181-.336-.297-.141-.168-.242-.363-.298-.57-.017.27-.034.539-.05.807ZM26.038,125.353c.103.154.179.328.219.513.032-.31.063-.62.095-.931-.079.156-.185.297-.314.418ZM19.17,124.177c-.024.355-.049.713-.073,1.073.075-.184.186-.354.328-.496-.123-.169-.211-.365-.255-.577ZM26.356,122.443c.091.132.161.279.205.436.027-.273.055-.544.081-.809-.076.14-.172.265-.286.373ZM19.375,121.292c-.026.365-.054.74-.081,1.123.076-.208.195-.396.345-.552-.126-.167-.217-.362-.264-.571ZM26.285,119.091c.134.09.254.202.354.333.097.126.172.266.224.413.024-.242.046-.474.067-.692-.206-.017-.421-.035-.645-.053ZM19.578,118.535l-.019.248c-.016.222-.033.453-.051.691.163-.411.502-.729.919-.869-.295-.024-.579-.048-.85-.07Z"/>
    <path class="st0" d="M21.615,147.667c-.289,0-.58-.083-.836-.255l-2.287-1.538c-.039-.026-.077-.054-.113-.083-.162.27-.406.487-.698.613-.385.165-.822.167-1.204-.004l-2.418-1.079c-.673-.3-1.028-1.044-.838-1.756.069-.259.224-.688,1.449-3.536-.245-.067-.472-.197-.657-.379-.301-.297-.462-.708-.444-1.131l.123-2.845c.034-.78.659-1.403,1.438-1.435.54-.021,1.227-.011,2.047.031.312-.706.628-1.421.827-1.851.345-.745,1.222-1.074,1.972-.74l2.522,1.125c.365.163.651.465.792.84.09.237.117.492.082.739.077-.035.158-.063.241-.085l1.565-.407c.006-.246.068-.489.189-.702.208-.368.554-.654.966-.747l1.383-.312c.146-.033.292-.045.434-.034.061-.021.124-.038.188-.05l1.38-.276c.71-.143,1.424.245,1.69.921.18.455.424,1.312.557,1.949.164.79-.326,1.568-1.109,1.762l-1.405.347c-.198.048-.402.056-.6.024l-.458.128c.276.925.534,1.887.662,2.515.152.744-.276,1.483-.996,1.723l-2.234.744c-.152.05-.31.076-.466.077-.456,1.691-1.325,3.477-2.54,5.107-.293.394-.745.604-1.204.604ZM21.15,137.678c.566.273.977.715,1.209,1.288.244.599.283,1.319.116,2.17.299-1.126.326-2.087.116-2.704-.158-.464-.383-.527-.491-.557-.243-.066-.563-.133-.95-.197ZM17.719,137.306c.193.119.359.282.483.48.092.147.157.308.193.473l.014-.033c.279-.634.957-.993,1.638-.872.034.006.067.013.1.02-.195-.133-.358-.312-.473-.526-.077-.142-.129-.293-.157-.449l-.016.036c-.256.581-.846.937-1.482.892-.102-.007-.203-.015-.301-.021Z"/>
    <path class="st0" d="M23.733,164.169c-.3,0-.6-.089-.858-.27l-2.164-1.509c-.097-.067-.185-.146-.262-.232-1.366.764-2.854,1.134-4.37,1.039-1.26-.06-2.4-.586-3.191-1.482-.792-.897-1.173-2.098-1.073-3.382.16-1.832,1.029-3.407,2.437-4.539-.28-.279-.439-.658-.441-1.054l-.015-2.712c-.004-.825.658-1.499,1.483-1.508.374-.004.799-.004,1.249,0,.061-.382.268-.726.577-.96.318-.24.722-.342,1.114-.288l2.678.379c.417.059.791.291,1.028.639.083.121.146.252.19.389.706.037,1.371.083,1.835.124.807.07,1.412.767,1.368,1.575l-.146,2.699c-.007.126-.03.251-.067.37.366.266.699.565.995.896,1.046,1.167,1.547,2.677,1.41,4.248-.187,2.135-1.175,3.955-2.857,5.264-.27.21-.595.316-.921.316ZM18.658,158.59c-.01.215-.019.435-.026.66-.006.189-.048.371-.119.538.36-.157.711-.357,1.051-.599-.091-.02-.182-.048-.27-.086-.261-.111-.479-.291-.636-.513ZM17.133,159.199h.01-.01ZM22.534,155.422c.058.148.092.302.101.458.168-.072.349-.115.536-.122-.196-.125-.409-.237-.637-.335ZM18.076,155.175s.003.002.005.003c.182.115.333.264.448.437.075-.438.338-.813.7-1.037-.045-.039-.087-.082-.127-.126-.064-.071-.12-.148-.169-.229-.128.427-.441.778-.857.953ZM18.375,151.455c.12.073.229.164.326.27.105.116.19.247.254.386.179-.331.478-.585.835-.708-.133-.08-.254-.182-.358-.302-.098-.112-.176-.237-.236-.371-.172.335-.466.595-.821.724Z"/>
    <path class="st0" d="M18.594,180.878c-.229,0-.462-.01-.699-.031-1.288-.112-2.465-.575-3.316-1.302-.978-.836-1.48-1.989-1.377-3.163h0c.079-.901.419-1.702.959-2.337-.165-.17-.291-.38-.362-.62l-.307-1.039c-.146-.492-.029-1.024.308-1.411.323-.37.603-.695.863-1.004l-.108-.007c-.398-.028-.769-.213-1.03-.515-.261-.301-.392-.695-.362-1.093l.201-2.712c.03-.4.219-.772.524-1.032.306-.26.701-.386,1.103-.351l1.382.121c1.879.164,3.655.346,6.128.626.525.06.981.392,1.198.874s.165,1.043-.139,1.477c-.745,1.063-1.292,1.828-1.794,2.517.599.301,1.134.709,1.583,1.213.996,1.118,1.468,2.604,1.33,4.182-.156,1.785-.896,3.265-2.14,4.281-1.07.873-2.423,1.326-3.944,1.326ZM17.604,177.11c.012.109.138.26.225.266.082.018.271-.069.427-.232l-.652-.034ZM20.603,177.141c0,.04-.002.08-.004.121.014-.011.028-.022.042-.034.059-.048.115-.098.169-.151-.067.026-.136.048-.207.064ZM19.101,177.187h.01-.01ZM17.393,171.382c.172.006.339.017.501.032-.073-.153-.119-.314-.137-.477-.121.149-.242.297-.364.445ZM18.597,167.604c.164.146.297.329.385.538.045.106.077.216.096.327.179-.245.361-.494.553-.759-.355-.037-.698-.073-1.033-.106Z"/>
    <path class="st0" d="M16.217,195.33c-.632,0-1.214-.402-1.422-1.027l-.959-2.885c-.126-.378-.096-.792.083-1.147.179-.356.493-.626.872-.751,2.078-.682,3.048-1.098,3.481-1.35-.471-.229-1.919-.44-6.351.038-.412.045-.826-.083-1.141-.355-.314-.271-.502-.662-.519-1.077l-.118-2.992c-.029-.755.507-1.415,1.252-1.539,2.473-.412,4.557-.537,6.374-.376,6.237.545,6.914,4.421,6.916,6.062.002.24-.008.367-.02.493-.197,2.248-1.758,5.264-8.081,6.86-.123.031-.246.046-.368.046ZM17.154,191.893l.031.094c1.989-.664,4.32-1.856,4.492-3.824.004-.053.009-.106.008-.213,0-.686-.002-2.727-4.177-3.092-1.224-.107-2.67-.056-4.313.154l.002.053c4.506-.407,7.835-.225,8.227,2.846.278,2.107-1.69,3.085-4.27,3.982Z"/>
    <path class="st0" d="M16.906,211.665c-.221,0-.445-.01-.674-.03-3.276-.307-5.192-2.118-5.547-5.157-.02.001-.039.002-.057.004-.432.032-.86-.13-1.167-.438s-.465-.735-.433-1.169l.204-2.748c.025-.334.158-.637.365-.874-.119-.243-.17-.515-.146-.79l.235-2.69c.07-.801.757-1.4,1.562-1.368.152.007.347.018.564.031l.013-.064c.16-.768.887-1.288,1.663-1.18l2.913.381c.417.055.792.282,1.033.625.152.217.242.468.266.727.899.093,1.169.142,1.281.162.763.138,1.295.834,1.227,1.607l-.234,2.672c-.037.424-.252.812-.592,1.067-.091.068-.188.126-.291.171l-.034.727,2.818.421c.791.118,1.349.835,1.271,1.63-.381,3.881-2.801,6.282-6.24,6.283ZM12.894,203.651c.116.068.223.152.318.25.289.298.441.702.421,1.117-.064,1.33.17,2.179.63,2.721-.461-.648-.66-1.591-.594-2.825.032-.604.418-1.105.946-1.315-.131-.081-.25-.182-.353-.301-.222-.259-.348-.583-.36-.919-.079.575-.482,1.076-1.008,1.273ZM13.489,199.464c.112.08.213.175.301.285.195.244.308.541.326.848.118-.527.507-.938,1.001-1.098-.126-.088-.239-.195-.334-.32-.163-.212-.263-.461-.296-.721-.145.488-.526.861-.997,1.006Z"/>
    <path class="st0" d="M15.806,228.541c-.374,0-.747-.139-1.037-.416l-2.102-2.01c-.303-.289-.471-.692-.463-1.11.008-.418.189-.815.502-1.094.466-.415.938-1.248,1.343-2.297-.014.005-.027.009-.041.013l-1.003.314c-.932.295-1.896.6-3.187.947-.411.111-.853.041-1.21-.193-.358-.234-.599-.609-.663-1.032-.268-1.779-.302-5.073-.08-7.833.065-.815.77-1.428,1.589-1.376l2.966.187c.409.026.79.218,1.054.532.264.313.388.721.343,1.129-.048.436-.109,1.414-.15,2.294.538.163.957.622,1.047,1.206l.146.94c.285-1.463.4-2.998.233-4.293-.056-.435.081-.873.375-1.198s.72-.508,1.155-.493l3.047.086c.721.021,1.325.551,1.438,1.263.149.933.168,2.117.053,3.425-.391,4.468-2.104,8.642-4.364,10.634-.284.25-.638.375-.992.375ZM18.16,215.803c-.031,2.772-.796,6.205-2.073,8.519,1.065-1.774,1.851-4.357,2.086-7.051.045-.519.066-1.015.062-1.466l-.076-.002ZM10.729,218.672c.007.286.017.562.029.827.172-.052.34-.104.504-.155-.237-.167-.424-.399-.533-.672Z"/>
    <path class="st0" d="M13.98,244.246c-.21,0-.423-.044-.623-.136-2.336-1.067-3.857-2.951-4.174-5.169-.196-1.373.079-2.761.771-4.039-.841-.076-1.703-.165-2.539-.263-.82-.096-1.408-.836-1.316-1.657l.327-2.917c.044-.396.244-.757.555-1.005.311-.249.706-.365,1.104-.318,3.331.375,6.024.626,8.025.748.022-.364.176-.709.435-.969.281-.282.662-.44,1.06-.441l1.627-.002h.002c.17,0,.335.028.488.081.113-.028.232-.042.354-.043l1.591-.005h.005c.81,0,1.474.643,1.499,1.453.015.465.023,1.429.017,2.355-.006.817-.666,1.479-1.483,1.489l-1.646.019c-.193,0-.355-.028-.521-.087-.098.022-.2.034-.303.034h-.375c-.075.34-.268.651-.557.871-3.172,2.413-3.226,3.426-3.204,3.604.031.255.49.738,1.684,1.257.452.197.778.603.873,1.086.095.483-.053.982-.396,1.335l-2.204,2.266c-.289.297-.679.454-1.076.454ZM12.128,238.266c.005.084.013.168.025.251.132.924.674,1.737,1.556,2.356l.046-.048c-.758-.581-1.469-1.411-1.627-2.56ZM13.669,232.317c.307.178.548.463.668.813.053.155.08.315.081.474.375-.362.799-.735,1.271-1.12l-.004-.016c-.614-.039-1.286-.089-2.015-.151Z"/>
    <path class="st0" d="M12.074,260.865c-.261,0-.524-.068-.761-.208l-2.596-1.528c-.417-.246-.69-.678-.733-1.161-.031-.346.06-.687.249-.968-1.433-.416-2.151-1.351-2.442-1.851-.812-1.397-.682-3.187.331-4.557.039-.053.079-.105.12-.156-.17-.021-.343-.042-.52-.064-.801-.099-1.38-.815-1.31-1.62l.243-2.78c.036-.41.238-.787.561-1.043.322-.256.734-.371,1.143-.311.958.135,2.287.286,3.834.435.061-.247.184-.476.36-.666.274-.294.655-.466,1.057-.477l3.007-.08c.418-.014.8.144,1.091.429.29.285.452.676.449,1.083,0,.054,0,.11,0,.167.402.022.842.044,1.335.063.413.017.801.203,1.073.515.271.312.401.723.36,1.134l-.279,2.777c-.076.757-.707,1.337-1.467,1.35-.381.004-.824,0-1.292-.013-.068.386-.148.746-.243,1.081.926,2.616-.099,5.914-2.585,8.078-.28.244-.631.369-.985.369ZM12.057,254.167c.144.077.276.179.391.303.249.269.386.614.398.967.209-.824.178-1.634-.143-2.285-.179-.364-.203-.785-.066-1.167.049-.135.094-.279.135-.432-.122.171-.281.317-.467.425-.093.054-.19.097-.291.13.284.482.37,1.059.235,1.612-.039.159-.104.311-.192.448ZM9.335,253.004c-.057.233-.006.492.137.691.136.189.298.25.365.256.311.027.622-.135.782-.404.039-.065.067-.135.086-.207l-1.37-.336ZM10.792,253.361h.01-.01ZM9.895,252.202c-.11.056-.203.132-.274.221l1.093.876c.044-.221-.004-.463-.143-.674-.2-.303-.512-.417-.676-.422ZM9.848,252.204h0ZM12.15,248.122c.534.196.92.684.977,1.263.135-.513.533-.911,1.031-1.055-.572-.213-.975-.763-.977-1.402v-.056h-.008c-.041.346-.2.669-.456.913-.163.155-.357.27-.566.338Z"/>
    <path class="st0" d="M15.566,268.528c-.134,0-.269-.006-.406-.018-2.685-.235-4.478-2.18-4.264-4.626h0c.191-2.185,2.076-4.398,4.761-4.162,1.21.105,2.301.647,3.071,1.523.795.905,1.174,2.08,1.066,3.309-.204,2.328-1.989,3.974-4.229,3.974ZM15.03,264.333c.051.069.196.188.405.206.072.006.204,0,.255-.061.057-.07.118-.252.054-.469-.026-.097-.211-.285-.433-.305-.083-.009-.11.004-.164.07-.113.139-.158.362-.117.559ZM15.042,264.382s0,.002,0,.002c0,0,0-.002,0-.002ZM15.016,264.313h0Z"/>
  </g>
  <g>
    <path class="st1" d="M48.427,13.592c.307-.822.708-2.107,1.03-3.308l2.625.573c-.198.814-.681,2.417-1.051,3.541l-2.604-.806ZM52.337,16.411l.861-2.817c1.684.582,2.536.349,2.627-.692.094-1.076-.634-1.845-2.431-2.58.735-1.382,1.258-2.402,1.798-3.404-.982-.339-1.44-.487-2.074-.669l.983-2.77c1.612.575,3.527,1.212,4.94,1.788-.925,2.106-1.391,3.096-2.041,4.322,1.253.959,1.843,2.275,1.711,3.783-.212,2.421-1.807,3.71-4.3,3.492-.627-.055-1.319-.206-2.075-.453ZM59.289,11.109l2.499-1.083c.367.556,1.408,2.708,1.712,3.565l-2.526.99c-.467-1.071-1.144-2.631-1.685-3.473Z"/>
    <path class="st1" d="M46.999,29.91c.307-.823.708-2.107,1.03-3.307l2.625.572c-.198.814-.681,2.417-1.051,3.541l-2.604-.806ZM50.909,32.728l.861-2.816c1.684.581,2.536.349,2.627-.692.094-1.076-.634-1.845-2.431-2.581.735-1.382,1.258-2.402,1.798-3.403-.982-.339-1.44-.487-2.074-.669l.984-2.77c1.612.575,3.526,1.212,4.939,1.788-.925,2.106-1.391,3.095-2.041,4.322,1.253.959,1.843,2.276,1.711,3.783-.212,2.421-1.807,3.71-4.3,3.492-.628-.055-1.319-.206-2.075-.453ZM57.862,27.427l2.499-1.083c.367.556,1.408,2.708,1.712,3.566l-2.527.99c-.467-1.071-1.144-2.63-1.684-3.473Z"/>
    <path class="st1" d="M56.303,37.189l1.963-1.78c.678.728,2.438,2.925,2.767,3.912l-2.149,1.42c-.322-.661-2.053-2.981-2.581-3.552Z"/>
    <path class="st1" d="M47.272,55.501l.931-2.991c2.207,1.224,5.109,1.713,8.496,1.43l.092,3.081c-1.096.14-2.29.144-3.617.027-2.17-.19-4.273-.735-5.902-1.547ZM53.57,50.034c.165-.438.352-.927.485-1.421-1.562-.318-3.386-.749-5.241-1.236l.582-2.931c3.413.859,5.531,1.243,8.141,1.778-.459,1.533-1.026,3.471-1.435,4.628l-2.531-.817Z"/>
    <path class="st1" d="M48.122,69.542c-.765.692-1.492,1.352-1.979,1.761l-1.814-1.984c.798-.653,3.108-2.674,4.091-3.582.022-.251.045-.521.067-.771-1.144.261-2.318.466-3.659.71l-.399-2.673c1.113-.12,2.822-.44,4.354-.794.111-.857.179-1.43.289-2.27l2.901.308c-.162,1.016-.355,2.409-.548,4.199,2.216-1.161,4.13-1.753,4.905-1.523l.55,1.151c-1.082,4.713-.779,6.222,1.262,6.437l-.381,2.912c-3.343-.419-4.629-2.863-4.032-7.004-1.06.341-1.903.683-2.606,1.073-.254,2.707-.352,4.849-.257,5.834l-2.905-.056c.037-1.244.093-2.504.163-3.727Z"/>
    <path class="st1" d="M49.777,80.798c-1.565-.082-3.503-.251-5.328-.466l.327-2.917c3.562.401,6.699.694,8.931.799l.546,2.018c-4.647,3.533-5.006,5.779-1.21,7.431l-2.205,2.265c-4.015-1.833-4.504-6.159-1.062-9.13ZM54.467,76.763l1.626-.002c.031.689.008,1.772-.001,2.295l-1.627.002c.002-.434.003-1.283.002-2.295ZM56.94,76.798l1.591-.005c.015.453.022,1.394.016,2.296l-1.646.019c.022-.667.019-1.661.04-2.31Z"/>
    <path class="st1" d="M44.727,100.902c-.688.012-1.266.016-1.612.04l.205-2.747c.453-.015,1.03,0,1.681.002.062-.5.125-1.02.208-1.554-.916-.062-1.474-.093-1.673-.092l.236-2.691c.432.02,1.223.071,1.868.127.075-.446.152-.909.245-1.352l2.913.381c-.09.408-.162.817-.232,1.209,1.381.121,2.348.224,2.74.294l-.234,2.673c-.338-.066-1.395-.177-2.902-.309-.06.483-.119.948-.176,1.394,1.172.031,1.784.066,2.196.102l-.126,2.682c-.647-.039-1.458-.073-2.304-.111-.086,1.602.24,2.208,1.245,2.296,1.399.123,2.071-.542,2.314-2.491l2.926.437c-.326,3.315-2.332,5.164-5.291,4.905l-.036-.003c-2.922-.273-4.348-1.953-4.191-5.192Z"/>
    <path class="st1" d="M40.642,113.101c.091-1.04.279-2.162.575-3.474l2.833.664c-.366,1.92-.497,4.023-.359,5.554.639-.071,1.134-.154,1.792-.241l.306,2.503c-1.433.471-2.938.936-4.333,1.392-.764-2.218-1.01-4.155-.814-6.397ZM49.884,111.795l2.946-.411c.446,1.304.775,3.954.691,5.537l-2.796.55c-.058-1.396-.351-3.428-.841-5.676Z"/>
    <path class="st1" d="M44.037,133.999c1.876-.161,3.207-.913,3.272-1.666.064-.735-1.512-1.307-4.667-1.186.079-1.113.224-2.565.399-3.742-.861-.075-1.722-.151-2.543-.259l.373-2.823c.931.1,1.594.176,2.58.262.129-.856.273-1.676.394-2.226l2.91.417c-.117.514-.239,1.28-.355,1.993,1.189.05,2.449.106,3.263.105l-.11,2.702c-.691.048-2.028.039-3.56-.022-.081.516-.141,1-.198,1.446,2.959.06,4.858,1.491,4.677,3.554-.188,2.152-2.546,3.898-5.585,4.138l-.849-2.695Z"/>
    <path class="st1" d="M36.869,149.001c.725-.026,1.741-.064,2.792-.099-.038-.184-.094-.37-.166-.576.302-.353.506-.624.732-.93-.522-.028-.918-.044-1.37-.047-.354.33-.708.643-1.079.972l-1.525-1.778c.684-.591,1.348-1.147,1.975-1.707-.611-.035-1.135-.045-1.513-.06l.146-2.5c.505.008,1.17.048,1.925.096.033-.376.066-.753.083-1.149-.396-.017-.792-.034-1.19-.032l.13-2.32c.452.003.866.021,1.262.038.038-.431.086-.788.11-1.057l2.257.233c-.021.233-.049.556-.082.933.43.038.879.077,1.327.116l-.169,1.937c.413-.38.844-.757,1.274-1.135l1.361,1.583c-.509.444-.941.839-1.43,1.267.269.023.376.033.644.074l-.209,2.386c-.592-.052-1.616-.124-2.747-.204-.197.182-.413.379-.61.561.881.059,1.794.157,2.761.26-1.055,1.733-1.25,2.096-1.785,2.844.013.056.01.092.024.128.833-.017,1.576-.042,2.137-.047l-.048,2.201c-.6.038-1.325.065-2.104.087-.194.562-.549,1.109-1.105,1.892l-2.036-.901c.283-.336.524-.623.694-.915-.943.043-1.794.059-2.412.096l-.057-2.246ZM41.104,142.323c.353-.313.686-.608,1.039-.921-.323-.028-.646-.057-.969-.085-.03.341-.042.683-.07,1.006ZM44.376,144.579c.614-1.645,1.726-4.223,2.342-5.687l2.374.967c-.183.437-.413.995-.663,1.587,1.384.085,2.912.183,4.133.271l-.273,2.706c-1.455-.109-3.359-.24-4.957-.361-.231.577-.437,1.064-.577,1.431l-2.378-.913ZM44.898,151.438c.573-.564,1.112-1.149,1.598-1.74-.567-.537-1.133-1.093-1.661-1.682l1.887-1.732c.414.434.846.869,1.28,1.269.49-.843.91-1.728,1.287-2.725l2.481.976c-.488,1.241-1.058,2.384-1.729,3.445.559.429,1.123.803,1.654,1.139l-1.471,2.148c-.602-.36-1.181-.754-1.74-1.183-.522.605-1.08,1.189-1.67,1.734l-1.916-1.65Z"/>
    <path class="st1" d="M35.488,163.136c.199-2.278.396-4.321.623-6.507.486.024,1.024.071,1.491.112.68-.953.991-1.413,1.848-2.531l1.774,1.203c-.413.579-.761,1.054-1.072,1.515.556.049,1.13.099,1.792.175-.101.949-.396,3.689-.557,5.121l-3.192-.279-.105,1.202c1.346.1,2.369.189,3.838.336-.101.949-.458,4.406-.588,5.479-2.097-.202-4.195-.385-6.295-.551.153-1.958.304-3.679.443-5.275ZM39.206,166.696l.176-1.394c-.537-.065-.967-.103-1.47-.129l-.123,1.399,1.417.124ZM39.187,160.314c.082-.517.14-.982.193-1.393-.303-.044-.59-.07-.879-.077-.041.466-.099.931-.14,1.397l.825.072ZM45.141,163.727l-.646-.056c-.056.845-.095,1.709-.148,2.734l-2.167-.027c.08-1.945.229-4.481.292-5.396l2.89.216.123-1.399c-.846-.038-1.676-.057-2.38-.063l.065-2.814c2.526.058,5.118.177,7.435.343l-.302,2.83c-.718-.063-1.542-.135-2.37-.189-.057.446-.1.931-.145,1.451l2.854.232-.136,1.561c-.115,1.31-.222,2.33-.352,3.603l-2.152-.188.229-2.619c-.215-.019-.448-.039-.665-.041-.198,2.26-.402,4.592-.482,5.724l-2.443-.178.5-5.722Z"/>
    <path class="st1" d="M41.415,176.373c-1.565-.082-3.503-.251-5.328-.466l.328-2.917c3.561.402,6.698.694,8.931.799l.546,2.018c-4.647,3.533-5.006,5.779-1.21,7.431l-2.205,2.265c-4.015-1.833-4.504-6.159-1.062-9.13ZM46.105,172.338l1.626-.002c.031.689.008,1.772-.001,2.295l-1.627.002c.002-.434.003-1.283.002-2.295ZM48.578,172.373l1.591-.005c.015.453.023,1.395.016,2.297l-1.646.019c.022-.666.019-1.661.04-2.31Z"/>
    <path class="st1" d="M37.976,200.595c.938-.804,1.548-1.582,1.868-2.349-.26.085-.501.155-.756.169-5.681.678-4.542-6.344.188-5.244.266.059.529.155.772.267.063-.717.08-.915.083-1.149-1.882-.183-3.725-.398-5.728-.646l.244-2.78c1.356.19,3.344.401,5.532.592-.016-.435-.014-.869-.032-1.286l3.008-.08c-.004.451.021.996.023,1.592.755.048,1.617.106,2.752.151l-.279,2.777c-.688.012-1.626-.016-2.578-.081-.096,1.094-.264,1.983-.527,2.719,1.013,2.058.158,5.02-1.975,6.876l-2.596-1.528ZM39.289,196.12c.113-.461-.25-.854-.824-.904-.987-.086-1.146,1.744.535,1.113.112-.044.208-.108.289-.209Z"/>
    <path class="st1" d="M37.138,216.368c1.881-3.125,2.309-5.329.967-5.681-.194-.054-.462-.095-.729-.137-1.391,3.096-2.571,5.83-2.711,6.197l-2.418-1.079c.081-.3.719-1.816,2.259-5.369-.993-.014-1.57-.028-1.861,0l.123-2.845c.688-.03,1.698.004,2.937.095.405-.904.948-2.158,1.238-2.784l2.522,1.125c-.091.208-.425.938-.875,1.947.661.094,1.266.202,1.725.332,2.628.736,2.184,5.613-.888,9.737l-2.287-1.538ZM42.265,207.346l2.569-.86c.468.854,1.428,3.722,1.605,4.786l-2.46.852c-.328-1.005-1.097-3.368-1.715-4.777Z"/>
    <path class="st1" d="M34.249,232.033c6.355-.745,4.983-3.45-1.325-2.411.057-1.477.18-4.124.265-5.508l2.923.256c-.055.627-.082,1.349-.11,2.503,3.594-.174,5.868,1.309,5.661,3.676-.223,2.547-2.196,3.821-6.571,4.251l-.842-2.767ZM35.592,222.481l1.473-2.167c.719.461,2.244,1.208,3.744,1.828l-1.345,2.358c-1.045-.453-2.791-1.364-3.872-2.02Z"/>
    <path class="st1" d="M38.032,239.409c.13-1.489,1.415-2.949,3.137-2.798,1.686.147,2.923,1.502,2.774,3.207-.125,1.435-1.216,2.749-3.01,2.592-1.74-.152-3.048-1.315-2.901-3ZM42.122,239.35c-.182-.612-.538-.878-.915-.912-.699-.061-1.469.685-1.26,1.39.138.5.497.73.874.763.699.061,1.511-.537,1.301-1.242Z"/>
    <path class="st1" d="M25.834,7.06c.292-.643,1.453-2.765,1.962-3.624l2.453,1.299c-.559,1.018-1.413,2.516-1.907,3.611l-2.508-1.286ZM28.228,12.746c3.749-.901,5.843-1.712,8.577-3.623l1.74,2.429c-3.263,2.172-5.472,3.045-9.259,3.979l-1.058-2.786ZM31.999,1.455l2.816.247c-.137,1.777-.529,6.045-.678,7.748l-2.816-.246c.149-1.704.55-6.079.678-7.749ZM36.284,4.956l2.675-.833c.332.969,1.146,3.228,1.285,3.908l-2.724.774c-.334-1.15-.895-2.79-1.236-3.85Z"/>
    <path class="st1" d="M27.279,24.009c.144-1.649.541-3.495,1.175-5.374l3.104.669c-1.712,4.695-1.619,8.588.354,8.761.969.084,1.755-.226,2.53-1.026l2.161,2.159c-1.49,1.533-3.1,2.169-5.055,1.998-3.139-.274-4.652-2.811-4.269-7.188Z"/>
    <path class="st1" d="M23.656,40.008c.147-1.686.436-3.324.864-4.913l2.851.466c-.923,3.733-1.107,6.663-.645,10.462l-2.967.445c-.247-2.136-.286-4.38-.104-6.461ZM30.176,47.5c-1.576-.373-2.392-1.384-2.266-2.819.165-1.884,1.898-2.889,3.94-2.275.084-.752.146-1.668.171-2.57-.719-.044-1.542-.135-2.508-.255l.304-2.847c.662.076,1.416.142,2.188.191-.032-.672-.064-1.127-.106-1.474l2.901-.108c.049.474.087,1.074.104,1.708.902.025,1.607.014,2.118-.032l.052,2.915c-.673.049-1.397.058-2.191.043-.06,1.513-.13,2.519-.23,3.252.66.311,1.727,1.126,2.32,1.775l-1.726,1.963c-.374-.267-.992-.846-1.488-1.178-.283,1.168-1.667,1.915-3.138,1.786-.125-.011-.197-.017-.445-.075ZM30.772,45.438c.431.038.93-.298.854-.667-.056-.185-.246-.292-.458-.329-.519-.063-1.216.255-.86.737.111.173.285.261.465.258Z"/>
    <path class="st1" d="M21.977,62.088c3.415-3.081,4.921-4.395,5.4-10.896l2.889.234c-.181,2.063-.452,3.72-.884,5.146,1.531,2.954,2.978,4.382,5.825,5.932l-1.731,2.433c-2.133-1.235-3.907-2.655-5.409-5.317-.971,1.596-2.338,2.958-4.228,4.528l-1.862-2.061Z"/>
    <path class="st1" d="M23.219,77.645c-.005-1.175.768-2.373,2.233-3.419-.326-.191-.692-.35-1.147-.516.22-1.065.385-1.918.542-2.682-.682-.06-1.416-.142-2.257-.234l.364-2.715c.807.071,1.614.141,2.422.212.096-.48.19-.941.264-1.369l2.942.456c-.085.354-.154.728-.242,1.118.755.048,1.493.076,2.233.087l-.162,2.679c-.778.003-1.697-.022-2.669-.071-.115.496-.21.957-.303,1.401.207.108.362.194.518.28.9-.374,1.737-.643,2.587-.858l.456,2.643c-.295.064-.591.146-.905.228.334.517.555.88.742,1.222l-2.24,1.431c-.344-.608-.713-1.147-1.089-1.595-.928.479-1.48,1.009-1.5,1.441-.036.81,1.544,1.147,4.552,1.067l-.181,2.677c-.688.013-1.336-.008-1.946-.061-3.336-.292-5.198-1.521-5.213-3.42Z"/>
    <path class="st1" d="M19.577,95.721c1.062-.974,1.908-1.767,2.516-3.341l2.437,1.063c-.782,1.919-1.638,2.821-2.821,3.946l-2.131-1.668ZM21.595,82.775c1.743.116,5.046.369,5.764.432,1.417.124,2.796.263,3.764.365-.132,1.507-.605,7.123-.857,9.179l-9.363-.819c.107-2.051.481-6.735.693-9.157ZM27.636,90.371l.058-.664c-1.094-.096-2.583-.226-3.75-.31-.019.215-.021.432-.039.647l3.731.326ZM27.835,88.31l.061-.7c-1.13-.099-2.654-.232-3.786-.314l-.06.683,3.784.331ZM28.016,86.229l.063-.717c-1.218-.125-2.617-.248-3.824-.298-.019.215-.039.448-.042.683l3.802.333ZM25.999,92.975l2.624.176c-.094.661-.134,1.325-.154,2.173.98-.041,1.708-.103,2.723-.34l.35,2.616c-2.283.27-3.137.322-5.636.176-.185-1.408-.121-3.373.094-4.8Z"/>
    <path class="st1" d="M20.422,111.063c.253-2.888,4.379-3.358,5.567-.833.068-.156.104-.37.128-.639.15-1.722-1.771-2.486-5.154-2.042l-.307-1.039c1.085-1.243,1.713-2.019,2.669-3.237-.859-.093-1.953-.189-2.941-.257l.201-2.712c.466.041.933.082,1.381.121,1.65.144,3.334.31,6.091.623-1.384,1.976-2.08,2.909-3.084,4.267,2.452.07,4.148,1.954,3.937,4.375-.245,2.798-2.288,4.463-5.158,4.212-2.027-.177-3.456-1.405-3.33-2.84ZM24.827,111.737c.078-1.511-1.919-1.614-2.06-.831-.065.537.288.838.787.918.463.077.952.066,1.272-.087Z"/>
    <path class="st1" d="M18.193,116.917c2.423.194,8.254.687,10.372.854-.176,2.009-.824,8.387-1.258,12.524l-9.973-.873c.256-4.587.692-10.188.859-12.505ZM20.413,126.854c1.651.144,2.799.245,4.271.355.03-.341.079-.698.107-1.021-1.308-.133-2.617-.247-4.305-.377-.012.342-.044.701-.074,1.042ZM25.015,124.256c.03-.341.076-.662.103-.967-1.343-.135-2.688-.253-4.412-.386-.028.323-.056.646-.066.97l4.376.383ZM25.323,121.355c.053-.393.083-.734.126-1.019-1.522-.169-2.798-.245-4.546-.308-.025.287-.036.612-.064.935,1.918.186,2.853.25,4.484.392Z"/>
    <path class="st1" d="M19.329,144.629c1.882-3.125,2.309-5.329.967-5.681-.142-.031-.318-.083-.514-.118-1.218,2.767-2.548,5.778-2.693,6.199l-2.418-1.079c.08-.3.719-1.816,2.259-5.369-.829-.036-1.48-.021-1.862,0l.123-2.845c.707-.028,1.716.005,2.938.094.406-.922.948-2.158,1.237-2.783l2.522,1.125c-.135.295-.539,1.2-.895,1.964.624.091,1.122.188,1.51.295,2.629.736,2.184,5.613-.888,9.736l-2.287-1.538ZM23.992,135.747l2.238-.581c.359.845,1.115,3.369,1.355,4.547l-2.234.744c-.362-2.056-.806-3.594-1.359-4.709ZM26.665,133.903l1.383-.312c.125.209.461,1.341.501,1.707l-1.427.399c-.096-.352-.369-1.569-.458-1.793ZM28.634,133.514l1.38-.276c.147.375.369,1.153.483,1.705l-1.405.347c-.079-.332-.299-1.327-.458-1.775Z"/>
    <path class="st1" d="M21.57,161.16c1.293-1.351,1.68-2.058,1.778-3.17.023-.269-.012-.489-.117-.734-1.699,2.888-4.271,4.615-7.058,4.444-1.8-.085-3.001-1.438-2.861-3.251.196-2.242,1.736-3.933,4.185-4.658.031-.359.063-.718.093-1.058-.921-.009-1.753-.009-2.278,0l-.015-2.712c.724-.008,1.645,0,2.564.026.039-.448.099-.931.148-1.289l2.678.379c-.029.125-.059.465-.123.984,1.101.024,2.449.105,3.256.176l-.146,2.699c-.717-.062-2.032-.124-3.401-.171-.017.197-.036.413-.055.627,3.608.081,6.043,2.192,5.797,5.008-.151,1.722-.926,3.154-2.284,4.21l-2.164-1.509ZM17.133,159.199c.034-1.009.096-1.925.15-2.752-.78.438-1.211,1.033-1.274,1.75-.056.646.171.937.817.993.197.017.251.022.307.009ZM21.138,155.971c-.318-.082-.677-.114-1.128-.117-.026.305-.06.682-.127,1.868.419-.451.831-1.03,1.256-1.751Z"/>
    <path class="st1" d="M14.696,176.513c.253-2.888,4.378-3.358,5.567-.833.068-.156.104-.37.128-.639.15-1.722-1.771-2.486-5.154-2.041l-.307-1.039c1.085-1.243,1.713-2.019,2.669-3.237-.859-.093-1.953-.189-2.941-.257l.201-2.712c.466.041.933.082,1.381.121,1.65.144,3.334.31,6.091.623-1.384,1.976-2.08,2.909-3.084,4.267,2.452.07,4.148,1.954,3.937,4.375-.245,2.798-2.288,4.463-5.158,4.212-2.027-.177-3.456-1.405-3.33-2.84ZM19.101,177.187c.078-1.511-1.919-1.614-2.06-.831-.065.537.288.838.787.918.463.077.953.066,1.273-.087Z"/>
    <path class="st1" d="M15.259,190.945c3.871-1.27,4.808-1.857,4.677-2.844-.215-1.682-2.263-2.023-8.175-1.384l-.118-2.992c2.348-.391,4.328-.507,5.996-.361,3.605.315,5.544,1.913,5.546,4.57.002.181-.006.271-.014.36-.22,2.511-2.648,4.449-6.954,5.537l-.959-2.885Z"/>
    <path class="st1" d="M12.136,204.945c-.688.012-1.267.016-1.612.04l.204-2.748c.454-.014,1.03,0,1.681.002.062-.5.125-1.02.209-1.554-.917-.062-1.475-.093-1.673-.092l.235-2.69c.432.02,1.223.071,1.868.127.076-.445.152-.909.245-1.352l2.913.381c-.09.408-.162.817-.232,1.208,1.381.121,2.348.224,2.74.294l-.234,2.672c-.337-.066-1.395-.177-2.901-.309-.061.483-.12.948-.177,1.395,1.172.03,1.784.066,2.196.102l-.126,2.682c-.647-.039-1.457-.073-2.304-.111-.085,1.601.241,2.208,1.245,2.296,1.399.122,2.072-.542,2.315-2.491l2.926.438c-.326,3.315-2.332,5.164-5.291,4.905l-.036-.003c-2.922-.273-4.348-1.953-4.191-5.192Z"/>
    <path class="st1" d="M9.36,213.952l2.966.187c-.09.824-.211,3.235-.204,3.977.253.004.729-.062,1.11-.083l.334,2.162c-1.281.394-2.417.783-4.139,1.247-.251-1.667-.28-4.851-.068-7.489ZM13.704,225.032c1.921-1.712,3.329-7.264,2.877-10.774l3.047.086c.129.806.144,1.874.04,3.058-.358,4.09-1.884,7.896-3.862,9.64l-2.102-2.01Z"/>
    <path class="st1" d="M12.917,233.616c-1.566-.083-3.503-.252-5.327-.466l.327-2.917c3.562.401,6.699.694,8.931.799l.547,2.018c-4.647,3.534-5.006,5.78-1.21,7.431l-2.204,2.266c-4.015-1.834-4.504-6.16-1.063-9.13ZM17.608,229.579l1.627-.002c.03.689.008,1.772-.002,2.295l-1.627.002c.001-.433.004-1.283.002-2.295ZM20.081,229.615l1.591-.005c.014.453.022,1.394.016,2.297l-1.646.019c.022-.667.019-1.661.04-2.31Z"/>
    <path class="st1" d="M9.478,257.837c.938-.804,1.548-1.581,1.868-2.349-.26.085-.501.155-.756.169-5.68.678-4.541-6.344.188-5.243.266.06.528.154.772.266.063-.717.08-.915.083-1.149-1.882-.183-3.725-.398-5.727-.646l.243-2.78c1.357.191,3.345.401,5.533.592-.016-.435-.014-.869-.032-1.286l3.007-.08c-.004.451.021.996.023,1.592.755.048,1.618.105,2.752.15l-.279,2.777c-.688.012-1.625-.016-2.578-.081-.096,1.094-.264,1.983-.527,2.719,1.013,2.059.157,5.02-1.975,6.876l-2.596-1.528ZM10.792,253.361c.113-.46-.25-.854-.824-.904-.986-.086-1.146,1.744.535,1.114.113-.044.208-.108.29-.209Z"/>
    <path class="st1" d="M12.39,264.015c.13-1.488,1.415-2.949,3.137-2.798,1.686.147,2.923,1.503,2.773,3.207-.125,1.435-1.216,2.749-3.01,2.592-1.74-.152-3.048-1.314-2.9-3.001ZM16.48,263.957c-.182-.613-.538-.878-.914-.912-.7-.061-1.47.685-1.261,1.39.137.5.497.73.874.763.7.061,1.511-.537,1.302-1.242Z"/>
  </g>
</svg>