<?xml version="1.0" encoding="UTF-8"?>
<svg id="_レイヤー_1" data-name="レイヤー_1" xmlns="http://www.w3.org/2000/svg" version="1.1" viewBox="0 0 65 305">
  <!-- Generator: Adobe Illustrator 29.0.1, SVG Export Plug-In . SVG Version: 2.1.0 Build 192)  -->
  <defs>
    <style>
      .st0 {
        fill: #fff;
      }

      .st1 {
        fill: #3c291a;
      }
    </style>
  </defs>
  <g>
    <path class="st0" d="M61.199,19.302c-.3,0-.6-.089-.858-.27l-2.164-1.509c-.097-.067-.185-.146-.262-.232-1.365.765-2.855,1.137-4.37,1.039-1.26-.06-2.401-.587-3.191-1.483-.791-.897-1.172-2.098-1.073-3.381.16-1.832,1.029-3.407,2.437-4.539-.28-.279-.438-.658-.441-1.053l-.016-2.713c-.005-.825.657-1.499,1.482-1.509.374-.005.8-.004,1.25,0,.061-.382.268-.727.578-.96.318-.239.719-.343,1.113-.288l2.678.379c.417.059.791.292,1.029.64.083.121.146.251.189.387.703.037,1.369.083,1.835.124.807.07,1.412.767,1.368,1.575l-.146,2.699c-.007.126-.03.25-.067.37.366.266.7.565.996.896,1.046,1.168,1.547,2.677,1.409,4.249-.186,2.133-1.174,3.953-2.857,5.263-.271.21-.596.316-.921.316ZM56.124,13.724c-.01.215-.019.435-.027.66-.006.189-.048.371-.119.538.36-.158.711-.358,1.051-.599-.091-.02-.182-.048-.271-.086-.261-.111-.478-.291-.635-.512ZM54.598,14.333h.01-.01ZM60,10.555c.058.148.092.303.101.458.168-.072.35-.115.537-.122-.196-.125-.41-.238-.638-.336ZM55.542,10.308s.004.003.006.004c.181.114.332.263.447.436.071-.443.334-.816.698-1.039-.044-.039-.085-.08-.125-.124-.064-.072-.121-.148-.169-.229-.128.428-.441.779-.857.953ZM55.84,6.588c.12.073.229.164.325.269.105.116.191.248.255.388.179-.332.478-.585.836-.708-.133-.081-.255-.182-.359-.302-.098-.112-.177-.238-.236-.371-.172.335-.466.595-.821.725Z"/>
    <path class="st0" d="M58.924,35.504c-.625,0-1.234-.089-1.817-.27-1.165-.362-2.134-1.067-2.831-2.039-.11.059-.223.12-.34.183-.178.338-.38.698-.612,1.086-.412.69-1.294.934-2,.552l-2.761-1.489c-.359-.194-.625-.526-.733-.919-.109-.394-.053-.814.155-1.166,1.234-2.081,3.392-7.552,4.275-10.84.209-.779.997-1.255,1.784-1.073l3.065.702c.396.09.737.337.948.685.21.347.271.764.168,1.157-.262,1.002-.659,2.289-1.101,3.596.151.031.299.086.437.164.401.228.676.626.745,1.083.291,1.936.577,2.507.702,2.671.151-.013.606-.11,1.688-.726.713-.406,1.621-.163,2.036.544l1.431,2.438c.393.669.21,1.527-.421,1.979-1.544,1.105-3.227,1.683-4.817,1.683ZM51.297,31.594l.143.077c.008-.016.016-.031.023-.047.138-.282.359-.513.635-.662l.151-.082c.781-.422,1.397-.756,2.049-1.048.38-.171.815-.176,1.2-.012.175.074.333.181.466.312-.092-.257-.174-.532-.25-.824-.136.066-.282.137-.438.214-.557.273-1.223.175-1.677-.244-.455-.42-.605-1.076-.378-1.652.585-1.486,1.21-3.292,1.677-4.822l-.145-.033c-.888,2.859-2.312,6.485-3.456,8.824Z"/>
    <path class="st0" d="M59.809,52.262c-.478,0-1.018-.026-1.618-.079-1.464-.128-2.929-.389-3.824-.682-.716-.234-1.148-.963-1.008-1.704l.506-2.685c.065-.348.251-.659.522-.881-.148-.236-.23-.51-.231-.794l-.011-2.479c-.102-.003-.202-.007-.302-.01-.584,2.65-1.225,5.689-1.358,6.522-.064.405-.292.766-.629.998-.337.232-.755.317-1.157.234l-2.858-.594c-.791-.165-1.31-.926-1.173-1.722.124-.722.565-2.949,1.102-5.525-.404-.005-.789-.174-1.068-.467-.284-.3-.433-.703-.41-1.116l.155-2.806c.043-.791.695-1.411,1.487-1.417l.488-.004c.214-.001.415-.003.604-.004.149-.653.235-1.03.293-1.271.19-.79.974-1.284,1.768-1.116l2.928.618c.397.084.744.326.96.669.216.344.284.76.187,1.155-.009.037-.018.074-.027.111.252.019.523.041.817.067.396.034.763.225,1.019.53.256.305.38.699.345,1.095l-.198,2.267c1.362.025,2.835.133,3.897.295.782.12,1.336.826,1.268,1.613l-.238,2.727c-.026.306-.146.593-.338.826.101.053.195.119.283.195.326.285.513.697.513,1.131l-.002,2.712c0,.711-.501,1.325-1.199,1.468-.396.082-.895.122-1.491.122ZM50.318,40.054c.174.093.331.221.459.378.224.276.34.621.335.97.023-.103.045-.205.068-.306.145-.647.697-1.117,1.349-1.167-.165-.094-.313-.219-.434-.371-.244-.306-.356-.692-.32-1.077l-.093.409c-.149.651-.708,1.12-1.364,1.163Z"/>
    <path class="st0" d="M54.247,68.233c-.221,0-.445-.01-.674-.03-3.277-.306-5.193-2.118-5.547-5.158-.021.001-.04.002-.059.004-.433.032-.859-.131-1.166-.439-.307-.309-.464-.735-.432-1.168l.205-2.747c.025-.334.158-.637.364-.873-.119-.243-.17-.516-.146-.79l.235-2.691c.07-.802.755-1.393,1.565-1.368.151.007.345.018.561.032.004-.022.009-.043.013-.065.161-.768.884-1.284,1.663-1.18l2.913.381c.417.055.792.282,1.034.626.152.217.243.468.266.727.896.093,1.167.141,1.278.161.764.137,1.297.834,1.229,1.607l-.234,2.673c-.037.423-.252.811-.591,1.067-.091.068-.189.126-.291.171l-.034.728,2.817.42c.791.118,1.35.834,1.271,1.63-.381,3.881-2.801,6.283-6.24,6.283ZM50.238,60.22c.114.067.22.15.314.248.289.298.442.702.421,1.117-.064,1.337.173,2.188.637,2.73-.465-.649-.667-1.595-.6-2.835.033-.604.418-1.105.946-1.314-.131-.081-.25-.182-.353-.301-.223-.26-.348-.585-.36-.922,0,.003,0,.005,0,.008-.072.583-.475,1.077-1.004,1.27ZM50.829,56.032c.112.08.213.175.3.284.195.245.308.542.326.849.118-.527.508-.939,1.002-1.099-.127-.088-.24-.196-.336-.321-.162-.211-.262-.46-.295-.719-.145.488-.526.861-.998,1.005Z"/>
    <path class="st0" d="M58.133,84.713c-.043,0-.087-.002-.131-.006-1.777-.156-5.764-.429-7.42-.471-.292-.007-.573-.1-.81-.262-.018.017-.037.034-.056.05-.306.259-.704.387-1.101.35l-2.762-.241c-.812-.071-1.418-.776-1.367-1.588l.062-.99c.065-1.055.151-2.429.232-3.659-.018-.015-.036-.031-.053-.047l-1.941-1.778c-.314-.288-.492-.696-.487-1.123.005-.426.191-.831.512-1.112,2.267-1.984,3.282-3.172,4.528-5.297.411-.702,1.308-.949,2.02-.554l2.328,1.288c.353.195.611.523.719.911s.055.803-.146,1.151c-.247.427-.491.823-.736,1.195.272.012.565.027.875.044.061-.616.125-1.229.188-1.835.083-.8.792-1.395,1.583-1.341l2.786.171c.408.025.788.215,1.052.527s.39.718.348,1.124c-.061.585-.117,1.181-.171,1.782l1.536.135c.825.072,1.436.8,1.363,1.625l-.237,2.708c-.035.396-.225.763-.53,1.019-.305.255-.702.38-1.095.345l-.995-.08c-.163-.013-.335-.026-.516-.041-.006.077-.012.153-.017.229l.807.071c.825.072,1.436.799,1.363,1.625l-.237,2.708c-.035.396-.225.763-.53,1.019-.271.227-.613.351-.964.351ZM54.026,81.41c.38.024.763.049,1.138.075-.247-.195-.43-.465-.517-.773-.128.295-.348.539-.621.698ZM50.786,78.504c.018,0,.035,0,.052,0,.312.011.664.025,1.042.042.006-.08.012-.16.018-.24-.524-.03-.987-.054-1.35-.069-.006.095-.012.192-.017.289.083-.015.168-.022.255-.022ZM54.229,75.579c.159.085.303.2.423.34.146.169.25.366.309.576.166-.382.485-.678.875-.816-.346-.19-.605-.513-.717-.894-.174.376-.498.664-.89.794Z"/>
    <path class="st0" d="M50.951,101.937c-.043,0-.087-.002-.13-.006l-2.673-.233c-.825-.072-1.436-.799-1.364-1.624l.007-.097c-.598-.041-1.156-.075-1.66-.099-.399-.019-.774-.197-1.042-.494-.268-.297-.406-.688-.384-1.087l.037-.659c-.016,0-.032,0-.047-.001-.404-.011-.787-.185-1.061-.482-.274-.297-.417-.692-.396-1.096l.08-1.529c.041-.781.673-1.394,1.443-1.421l.065-.741c.019-.21.081-.412.181-.593-.002-.677.043-1.945.093-2.913-.352-.29-.567-.736-.545-1.226l.096-2.125c.018-.4.195-.776.492-1.044.297-.269.684-.404,1.088-.386.808.043,1.896.112,3.114.199.083-.135.188-.257.312-.361.305-.256.695-.379,1.096-.346l2.69.235c.556.048,1.015.395,1.233.869l3.152.238c.4.03.771.219,1.03.524.26.306.386.703.351,1.102l-.185,2.116c-.035.396-.225.763-.53,1.019-.156.13-.335.227-.525.285-.031.257-.065.535-.1.82-.085.69-.175,1.426-.236,2.008.081.217.11.452.084.687l-.035.335c.048.004.096.008.145.013.825.072,1.435.8,1.363,1.625l-.162,1.848c-.07.81-.78,1.421-1.584,1.366l-.255-.017c-.009.083-.019.168-.028.254l-.038.343c-.09.81-.797,1.399-1.622,1.329l-2.041-.178-.013.172c-.035.396-.225.763-.53,1.019-.271.228-.613.352-.965.352ZM49.704,97.843c.031.054.058.109.082.166.042-.07.088-.137.141-.2-.031-.054-.058-.109-.082-.167-.042.071-.089.138-.141.201ZM50.062,93.753c.034.059.064.121.089.184.039-.064.083-.125.13-.182-.034-.06-.063-.121-.089-.184-.039.064-.083.125-.13.183ZM50.329,91.481c.012.026.023.053.034.08.015-.024.031-.049.047-.072-.012-.026-.023-.053-.034-.08-.015.024-.031.048-.047.072ZM50.494,87.022c.101.12.182.254.24.396.089-.149.203-.281.336-.39-.088-.106-.16-.224-.215-.348l-.057-.005c-.083.131-.186.248-.304.346Z"/>
    <path class="st0" d="M49.861,117.49c-.21,0-.423-.044-.623-.136-2.335-1.066-3.856-2.95-4.173-5.168-.196-1.373.079-2.762.77-4.04-.842-.076-1.704-.166-2.539-.264-.82-.097-1.407-.837-1.315-1.657l.328-2.917c.044-.396.244-.757.556-1.005.311-.249.708-.362,1.104-.318,3.327.376,6.02.627,8.025.749.021-.364.176-.709.435-.969.281-.282.662-.44,1.06-.441l1.626-.002h.002c.17,0,.334.028.487.081.114-.028.233-.043.356-.043l1.591-.005h.004c.81,0,1.474.643,1.499,1.453.015.465.023,1.43.017,2.355-.006.817-.666,1.479-1.483,1.489l-1.646.019c-.186-.002-.352-.027-.515-.085-.1.021-.203.032-.309.032h-.375c-.075.34-.268.651-.557.871-3.171,2.412-3.225,3.425-3.203,3.604.031.255.49.738,1.684,1.257.452.197.778.603.874,1.086s-.053.982-.396,1.335l-2.205,2.266c-.289.297-.679.454-1.076.454ZM48.01,111.511c.005.084.013.168.025.251.132.923.674,1.737,1.555,2.356l.047-.048c-.757-.581-1.468-1.411-1.627-2.559ZM49.553,105.563c.306.178.545.462.665.811.054.156.08.316.081.475.375-.363.798-.735,1.27-1.12l-.004-.015c-.614-.039-1.284-.089-2.012-.15Z"/>
    <path class="st0" d="M52.943,133.439c-.885,0-1.758-.035-3.149-.157-1.434-.125-3.347-.58-3.415-3.06,0-.005,0-.01,0-.015-.009-.541.088-2.24.201-3.894l-.595.301c-.167,2.126-.301,4.092-.362,5.234-.021.398-.201.772-.499,1.038-.298.266-.693.399-1.087.379l-2.5-.146c-.398-.023-.771-.205-1.036-.504-.265-.299-.399-.691-.374-1.09.065-1.015.183-2.458.322-4.046l-1.468-.367c-.786-.196-1.273-.981-1.102-1.773.201-.925.341-1.447.604-2.419l.21-.78c.212-.793,1.023-1.271,1.819-1.065l.507.129c.11-1.199.21-2.284.284-3.129.035-.398.227-.767.534-1.022s.707-.379,1.102-.34l2.474.235c.408.039.782.243,1.035.564.254.321.365.732.308,1.138-.061.433-.125.948-.189,1.519.263-.193.593-.296.939-.289l.906.031c.113.004.225.007.335.011-.003-.256-.009-.491-.016-.683-.015-.4.13-.789.403-1.081.273-.292.652-.463,1.052-.475l2.482-.072c.769-.024,1.484.592,1.54,1.396.024.356.045.764.062,1.202l1.342.09c.407.027.786.219,1.048.531.263.312.387.718.344,1.124l-.304,2.866c-.087.821-.833,1.419-1.643,1.334-.878-.088-1.777-.155-2.77-.216-.047.591-.093,1.197-.131,1.759.671.013,1.319-.015,2.196-.065.416-.019.807.121,1.106.399.299.278.472.666.479,1.074l.045,2.788c.013.825-.642,1.506-1.467,1.524-.589.013-1.085.024-1.576.024ZM49.397,130.347h0ZM49.38,130.187c.054.015.126.032.22.048-.082-.07-.156-.149-.22-.234,0,.059-.001.108,0,.146,0,.014,0,.027.001.04ZM48.95,122.929c.149.081.285.187.4.316.105.117.19.248.253.389.162-.294.419-.526.727-.657-.05.001-.099.002-.148,0-.393-.018-.803-.033-1.231-.048ZM50.918,122.856c.026,0,.053,0,.081.002.375.02.735.04,1.084.06-.249-.141-.453-.352-.587-.605-.062.093-.135.179-.217.256-.13.123-.28.22-.441.289.026-.001.053-.002.081-.002Z"/>
    <path class="st0" d="M46.705,149.837c-.244,0-.491-.011-.742-.033-2.042-.178-3.637-1.141-4.613-2.783-.895-1.504-1.237-3.533-1.019-6.03h0c.157-1.791.588-3.77,1.248-5.722.244-.723.995-1.146,1.737-.986l3.104.669c.424.091.788.362.997.741.21.38.245.832.096,1.239-1.483,4.067-1.166,6.327-.864,6.757.418.028.769-.071,1.262-.58.28-.289.664-.453,1.065-.456.423-.019.788.155,1.072.439l2.16,2.159c.58.58.587,1.519.015,2.106-1.617,1.664-3.429,2.479-5.52,2.479ZM43.319,141.253c-.16,1.831.05,3.295.609,4.235.482.811,1.212,1.232,2.297,1.328,1.012.087,1.88-.102,2.699-.605l-.063-.063c-.77.435-1.607.609-2.533.526-.909-.08-1.691-.566-2.203-1.371-.983-1.544-.957-4.38.035-7.769l-.132-.028c-.363,1.298-.605,2.575-.708,3.748h0Z"/>
    <path class="st0" d="M39.035,163.558c-.624,0-1.205-.392-1.418-1.012-.829-2.409-1.104-4.573-.89-7.016h0c.095-1.094.288-2.261.606-3.673.088-.39.328-.729.667-.941.34-.212.749-.281,1.138-.189l2.833.663c.783.183,1.282.952,1.132,1.742-.224,1.171-.355,2.434-.382,3.564l.145-.021c.398-.048.799.057,1.115.301.317.246.522.607.57,1.004l.305,2.503c.087.71-.341,1.383-1.021,1.607-.758.249-1.535.496-2.306.741-.688.219-1.371.437-2.03.652-.154.051-.312.075-.466.075ZM39.849,154.67c-.058.391-.102.761-.133,1.12h0c-.135,1.545-.04,2.915.319,4.369.195-.062.391-.124.586-.187.11-.035.219-.07.329-.104-.228-.05-.443-.153-.627-.304-.312-.255-.509-.625-.545-1.027-.101-1.123-.073-2.482.072-3.867ZM38.221,155.66h.01-.01ZM48.304,161.53c-.334,0-.662-.112-.928-.322-.344-.271-.552-.678-.57-1.115-.057-1.35-.351-3.325-.808-5.419-.089-.408-.004-.835.235-1.178.239-.342.609-.57,1.023-.628l2.946-.411c.713-.092,1.394.32,1.626,1,.505,1.474.864,4.326.77,6.103-.037.686-.535,1.259-1.208,1.392l-2.795.55c-.096.019-.193.028-.29.028ZM49.25,155.619c.094.503.177.992.249,1.461-.056-.506-.13-1.011-.215-1.465l-.033.004Z"/>
    <path class="st0" d="M48.579,180.652c-.478,0-1.019-.026-1.62-.079-1.467-.128-2.933-.389-3.825-.681-.716-.234-1.147-.963-1.008-1.704l.506-2.686c.065-.348.251-.659.522-.881-.149-.236-.23-.51-.232-.794l-.011-2.479c-.101-.003-.202-.007-.302-.01-.584,2.648-1.225,5.687-1.357,6.521-.065.405-.292.766-.629.998-.337.233-.756.318-1.157.234l-2.858-.593c-.791-.164-1.31-.925-1.174-1.721.12-.705.562-2.932,1.101-5.527-.404-.005-.789-.174-1.068-.467-.285-.3-.433-.704-.41-1.116l.156-2.806c.044-.791.695-1.411,1.487-1.417l.488-.004c.214-.001.415-.003.604-.004.148-.653.234-1.029.292-1.269.19-.79.97-1.286,1.768-1.117l2.928.617c.397.084.744.325.96.668.216.344.284.76.188,1.155-.009.038-.018.075-.027.112.252.019.523.041.817.067.396.034.763.225,1.019.53.256.305.38.699.345,1.095l-.198,2.267c.374.007.755.02,1.135.039-.209-.266-.323-.595-.321-.936.002-.432.004-1.277.002-2.285,0-.828.669-1.5,1.497-1.502l1.627-.003c.177-.005.337.028.491.081.113-.028.232-.042.354-.043l1.591-.005h.004c.81,0,1.473.642,1.499,1.452.015.465.024,1.43.017,2.356-.006.817-.666,1.479-1.483,1.489l-1.646.019c-.035,0-.065,0-.096-.002.341.305.537.761.494,1.249l-.239,2.727c-.026.305-.146.593-.339.826.101.054.196.119.284.195.326.285.513.697.513,1.131l-.002,2.711c0,.71-.5,1.323-1.196,1.467-.396.082-.894.123-1.491.123ZM39.085,168.444c.174.093.331.221.458.378.225.277.342.623.335.973.023-.104.046-.207.069-.308.145-.647.696-1.117,1.348-1.167-.165-.093-.312-.218-.433-.37-.244-.305-.357-.692-.321-1.077l-.093.406c-.148.652-.708,1.121-1.364,1.164Z"/>
    <path class="st0" d="M39.79,196.567c-.062,0-.123,0-.186,0-.738-.007-1.361-.549-1.47-1.278l-.411-2.747c-.064-.428.06-.862.34-1.192.099-.116.214-.216.34-.296-.503-.104-.934-.462-1.113-.972l-.42-1.194c-.175-.497-.076-1.05.261-1.456.368-.444.686-.827.97-1.171-.023,0-.046-.002-.069-.003-.412-.018-.799-.205-1.069-.517s-.4-.721-.359-1.132l.282-2.812c.081-.793.784-1.378,1.563-1.349,1.996.095,4.275.246,6.098.406.619.054,1.145.101,1.556.156.513.069.954.396,1.167.868.213.471.169,1.018-.117,1.449-.807,1.215-1.369,2.046-1.918,2.826.663.312,1.241.742,1.705,1.274.87,1,1.282,2.315,1.16,3.704-.178,2.039-1.499,5.439-8.311,5.439ZM41.227,187.18c-.163.2-.333.407-.514.628.244-.014.479-.02.699-.017-.017-.03-.032-.061-.047-.091-.078-.167-.124-.343-.138-.52ZM41.94,183.658c.235.153.427.373.546.638.056.124.094.253.115.384.213-.299.423-.6.647-.925-.422-.033-.861-.065-1.309-.097Z"/>
    <path class="st0" d="M39.381,213.115c-.542,0-1.066-.295-1.333-.81l-1.345-2.594c-.365-.704-.119-1.571.562-1.978,1.431-.855,2.123-1.385,2.453-1.686-.404-.071-1.218-.115-2.796.083-.791.097-1.523-.439-1.663-1.226l-.497-2.791c-.145-.812.395-1.589,1.206-1.738.432-.079.856-.142,1.271-.189-.035-.044-.067-.09-.097-.138-.213-.344-.278-.759-.181-1.152l.642-2.582c.197-.794.997-1.284,1.793-1.1,1.176.271,3.754,1.015,4.682,1.376.747.29,1.134,1.116.878,1.875l-.855,2.547c-.03.09-.068.176-.114.258.301.186.578.393.829.621,1.106,1.007,1.643,2.391,1.511,3.897-.232,2.657-2.519,5.269-6.273,7.164-.217.109-.448.162-.675.162ZM40.878,203.253c.513.162.924.401,1.256.721.418.403.896,1.125.795,2.276-.028.326-.124.64-.302.957.418-.576.668-1.147.714-1.678.051-.584-.121-1.034-.542-1.417-.387-.352-1.028-.671-1.921-.858Z"/>
    <path class="st0" d="M41.701,229.146c-.217,0-.438-.048-.646-.147l-2.724-1.304c-.374-.179-.657-.504-.782-.899-.125-.395-.082-.824.12-1.186.563-1.008,1.028-2.227,1.373-3.585-.276-.008-.553-.014-.83-.016-.495-.004-.933-.247-1.204-.62.019,1.11.103,2.216.25,3.421.097.789-.438,1.516-1.22,1.659l-2.883.525c-.405.074-.818-.021-1.149-.261-.332-.24-.55-.606-.606-1.011-.44-3.221-.526-5.16-.329-7.411h0c.101-1.155.257-2.219.477-3.251.164-.772.9-1.284,1.681-1.173l2.874.414c.814.118,1.382.868,1.273,1.683-.028.21-.055.417-.08.62.264-.202.592-.312.924-.309.403.003.874.013,1.469.03-.004-.335-.018-.67-.041-1.008-.028-.407.112-.809.387-1.111.275-.302.661-.479,1.069-.49l3.007-.081c.807-.021,1.516.629,1.54,1.457.017.589.026,1.104.027,1.569.132.015.266.03.401.046.4.046.801.255,1.049.573.247.318.393.726.339,1.125l-.361,2.68c-.107.794-.82,1.359-1.619,1.294-.121-.011-.246-.021-.375-.03-.462,2.229-1.174,4.281-2.085,5.999-.269.506-.788.797-1.326.797ZM40.987,225.64h.003c.062-.148.124-.3.184-.455-.061.154-.123.306-.187.455ZM34.06,218.572h0c-.103,1.175-.119,2.24-.035,3.514-.058-1.52-.003-3.013.166-4.704-.051.385-.095.781-.131,1.19ZM41.622,219.297c.158.091.3.211.417.356.237.293.354.663.331,1.036.008-.051.017-.102.024-.153.091-.577.501-1.03,1.029-1.197-.482-.268-.797-.793-.771-1.38.006-.137.011-.281.015-.43-.007.147-.015.295-.025.444-.041.625-.46,1.136-1.021,1.324Z"/>
    <path class="st0" d="M39.701,245.637c-.55,0-1.053-.021-1.52-.062-2.11-.185-3.736-.782-4.833-1.774-.836-.757-1.79-2.14-1.589-4.432.085-.983.416-1.923,1.006-2.855-.414-1.704-.671-3.917-.629-5.55.019-.76.604-1.385,1.36-1.456l2.897-.271c.422-.041.836.1,1.148.384.312.283.49.685.491,1.106,0,.373.011.783.029,1.199.484-.264.969-.503,1.434-.705.242-.105.502-.143.761-.115.021-.024.042-.047.065-.069.281-.282.663-.441,1.061-.441l1.627-.002h.002c.17,0,.335.028.488.081.113-.028.231-.042.353-.043l1.591-.006h.005c.81,0,1.474.643,1.5,1.453.014.465.023,1.429.016,2.356-.007.817-.666,1.479-1.483,1.488l-1.646.019c-.195.003-.355-.028-.52-.087-.099.022-.2.034-.304.034h-.488c-.11.456-.431.851-.894,1.039-1.811.735-3.21,1.957-3.572,2.55.375.09,1.211.187,3.068.154.46-.021.837.166,1.128.479s.434.735.394,1.16l-.279,2.977c-.07.744-.677,1.324-1.424,1.358-.44.021-.854.031-1.244.031ZM35.6,235.458c.071.327.149.635.232.913.137.458.046.955-.243,1.335-.512.673-.787,1.303-.841,1.925h0c-.101,1.156.302,1.665.614,1.947.592.536,1.657.886,3.081,1.01.327.028.68.045,1.064.049v-.008c-1.861-.056-3.083-.333-3.84-1.143-.52-.557-.745-1.283-.668-2.158.158-1.818,2.3-3.535,4.227-4.574l-.011-.034c-.546.311-1.088.657-1.572,1.007-.429.309-.988.371-1.472.163-.226-.097-.421-.247-.571-.432ZM33.254,239.501h.01-.01Z"/>
    <path class="st0" d="M41.763,252.819c-.132,0-.265-.018-.396-.053-.417-.114-.764-.401-.953-.79-.22-.45-1.812-2.626-2.333-3.189-.272-.294-.416-.685-.398-1.085.018-.4.194-.776.491-1.046l1.963-1.78c.61-.552,1.548-.51,2.106.09.412.443,2.604,2.998,3.091,4.458.215.644-.029,1.352-.596,1.727l-2.149,1.42c-.248.164-.536.249-.827.249Z"/>
    <path class="st0" d="M39.356,17.586c-.478,0-1.019-.026-1.621-.079-1.467-.128-2.932-.389-3.824-.681-.716-.234-1.147-.963-1.008-1.704l.506-2.685c.065-.348.251-.659.522-.881-.149-.236-.231-.511-.232-.795l-.011-2.479c-.101-.003-.202-.007-.302-.01-.585,2.653-1.226,5.693-1.358,6.523-.064.405-.292.766-.629.998s-.756.318-1.157.234l-2.858-.594c-.79-.164-1.309-.924-1.174-1.72.121-.707.562-2.934,1.101-5.527-.404-.005-.789-.173-1.067-.466-.285-.3-.434-.704-.411-1.117l.156-2.807c.044-.791.695-1.411,1.487-1.417l.431-.003c.235-.002.455-.003.662-.004.149-.654.235-1.032.293-1.271.19-.789.971-1.282,1.768-1.115l2.928.617c.397.084.744.325.96.668.216.344.284.76.188,1.155-.009.038-.018.075-.027.112.252.019.524.042.819.067.825.072,1.435.8,1.363,1.625l-.198,2.266c1.362.025,2.835.133,3.898.297.782.12,1.336.826,1.267,1.613l-.239,2.727c-.026.305-.146.592-.338.825.101.053.196.119.283.195.327.285.514.697.513,1.13l-.002,2.711c0,.711-.5,1.324-1.196,1.468-.396.082-.894.123-1.491.123ZM29.862,5.379c.175.093.332.221.459.379.225.277.341.623.334.974.023-.104.047-.208.07-.31.145-.647.696-1.117,1.348-1.167-.165-.093-.312-.218-.433-.37-.245-.306-.358-.694-.321-1.079l-.093.41c-.148.652-.708,1.121-1.364,1.164Z"/>
    <path class="st0" d="M30.558,33.584c-.215,0-.435-.009-.661-.029-1.222-.107-2.299-.608-3.035-1.412-.772-.844-1.139-1.98-1.032-3.197h0c.119-1.362.713-2.208,1.286-2.716-.081-.187-.124-.39-.123-.598l.005-2.547c0-.536.284-1.007.709-1.272l-.056-2.208c-.01-.399.139-.785.415-1.074s.654-.456,1.053-.464c.387-.008.786-.016,1.204-.021.057-.245.176-.473.348-.664.282-.313.683-.492,1.104-.495l2.894-.019h.01c.73,0,1.355.526,1.479,1.248,0,.005.002.011.003.017.448.029.871.066,1.246.109.398.046.763.25,1.01.566.248.316.358.718.307,1.117l-.335,2.591c-.006.044-.013.087-.022.129.182.28.271.621.233.979l-.279,2.578c-.044.411-.257.786-.587,1.035l-.012.009c.091.04.179.079.264.119.727.338,1.06,1.187.756,1.928l-1.035,2.53c-.156.381-.461.681-.845.83-.382.15-.811.135-1.184-.042l-.408-.194c-.298-.144-.588-.283-.895-.417-.846,1.022-2.178,1.584-3.815,1.584ZM30.995,29.58l-.537.793c.128-.065.266-.176.376-.351.091-.146.142-.298.161-.442ZM30.248,29.143l.739.114c-.016-.081-.042-.154-.074-.213-.122-.222-.365-.378-.621-.4l-.044.5ZM30.231,28.64c-.3,0-.487.205-.521.42l.537.083.044-.5c-.021-.002-.041-.003-.06-.003ZM27.325,29.077h.01-.01ZM32.3,28.277c.197.216.326.485.373.772.102-.096.218-.179.345-.244.109-.056.224-.098.341-.125-.256-.237-.424-.56-.469-.909-.106.155-.242.291-.401.398-.061.041-.124.077-.189.108ZM32.656,24.441c.094.065.181.142.259.229.155.173.267.379.328.599.142-.331.392-.612.698-.786-.285-.203-.495-.503-.584-.849-.127.348-.38.634-.701.807ZM32.709,20.787c.35.199.612.535.713.938.08-.251.225-.479.424-.659.072-.065.15-.123.233-.172-.37-.199-.647-.549-.748-.969-.066.246-.195.473-.375.659-.076.077-.158.145-.247.204Z"/>
    <path class="st0" d="M25.826,48.731c-.684,0-1.3-.47-1.46-1.164-.514-2.227-.66-4.665-.435-7.244h0c.156-1.784.491-3.648.996-5.541.211-.794,1.021-1.268,1.818-1.068l2.935.745c.396.101.735.359.936.715.202.356.249.779.131,1.171-.702,2.334-1.017,5.11-.894,7.336l.251-.818c.122-.398.403-.728.777-.91.375-.183.808-.201,1.196-.051,1.511.582,3.275.888,5.245.91.431.005.839.195,1.12.521s.408.759.349,1.186l-.386,2.769c-.097.698-.667,1.234-1.369,1.289-1.75.139-4.822-.376-6.86-1.142-.037-.014-.072-.029-.107-.045-.214.328-.548.561-.933.646l-2.986.66c-.109.024-.218.036-.325.036ZM26.974,45.092c.014.114.029.227.045.339h.003c-.017-.112-.033-.225-.048-.339ZM36.972,41.695c-1.037,0-3.759-.195-5.346-.367-.402-.043-.769-.248-1.019-.565-.25-.318-.36-.724-.307-1.124l.367-2.752c.108-.811.846-1.388,1.658-1.292,1.325.152,4.043.351,4.862.324.415-.005.804.159,1.091.452.286.293.44.691.426,1.102l-.098,2.774c-.028.787-.66,1.419-1.448,1.446-.054.002-.116.003-.186.003Z"/>
    <path class="st0" d="M30.783,65.9c-.152,0-.306-.007-.46-.021-.182-.016-.289-.023-.654-.108h-.006c-1.115-.265-1.998-.799-2.588-1.529-.093.034-.191.06-.293.075l-2.967.445c-.401.062-.812-.045-1.134-.292-.323-.247-.532-.615-.579-1.019-.26-2.253-.298-4.593-.107-6.765h0c.154-1.766.46-3.506.91-5.172.2-.743.934-1.213,1.69-1.09l2.851.466c.414.068.78.305,1.01.654.165.25.25.541.248.834.003-.002.006-.004.009-.007.313-.25.714-.364,1.109-.319.136.016.276.031.419.045.033-.296.153-.579.35-.81.272-.319.666-.51,1.085-.526l2.901-.108c.788-.021,1.466.558,1.548,1.344.012.118.023.241.034.369.211-.006.4-.017.564-.031.419-.035.826.102,1.135.379.309.278.489.673.497,1.088l.052,2.914c.014.796-.596,1.464-1.389,1.523-.276.02-.564.035-.872.044-.021.354-.043.672-.067.96.658.45,1.354,1.033,1.834,1.558.517.565.525,1.428.02,2.003l-1.726,1.964c-.508.579-1.373.678-2,.229-.086-.062-.184-.137-.289-.222-.802.703-1.922,1.124-3.135,1.124ZM30.609,62.69c.045.019.09.031.133.039.277.033.513-.183.64-.399.264-.453.167-.955-.035-1.229-.11-.175-.38-.329-.676-.35h-.002c-.179,0-.324.069-.454.215-.208.234-.294.586-.226.919l1.469-.304-1.436.433c.097.323.325.553.546.658l.037-.424.005.443ZM32.516,60.463c.173.197.301.428.378.685.011.036.021.073.029.109.041-.021.083-.039.126-.056.125-.048.253-.079.383-.093-.302-.297-.47-.715-.445-1.151-.114.201-.274.375-.471.506ZM30.589,60.748h-.001.001ZM27.924,56.871c-.049.512-.082,1.021-.097,1.534.06-.045.121-.089.183-.132.274-.186.57-.336.883-.453-.461-.146-.818-.504-.969-.95ZM23.488,56.817h.01-.01ZM32.208,55.188c.541.131.962.553,1.098,1.084.175-.479.586-.84,1.088-.95-.562-.13-1.002-.577-1.125-1.142-.073.233-.202.448-.38.623-.191.188-.427.319-.681.384Z"/>
    <path class="st0" d="M31.932,83.072c-.043,0-.087-.002-.131-.006l-2.69-.235c-.816-.071-1.424-.784-1.365-1.601.021-.3.046-.628.074-.98-.273.154-.59.218-.907.184-.105-.012-.207-.035-.305-.067-.015.231-.029.439-.041.617-.027.402-.215.776-.521,1.039-.306.262-.707.391-1.106.354l-2.583-.226c-.812-.071-1.418-.776-1.367-1.589.069-1.091.206-3.179.328-4.913l-1.835-1.74c-.303-.287-.472-.688-.468-1.105.005-.417.183-.814.493-1.094,2.051-1.859,2.79-2.981,4.103-5.284.41-.718,1.326-.969,2.044-.561l2.256,1.282c.717.408.971,1.318.567,2.038-.012.021-.023.042-.036.063.104.006.208.012.315.018.045-.483.089-.941.136-1.366.043-.397.243-.76.555-1.009s.707-.363,1.107-.318l2.685.308c.819.094,1.409.832,1.32,1.652-.041.374-.082.751-.121,1.13.611.05,1.13.096,1.5.128.825.072,1.441.8,1.369,1.625l-.24,2.744c-.042.487-.313.899-.697,1.14.364.277.738.563,1.128.863.327.25.536.624.578,1.034.043.409-.084.818-.352,1.131l-1.711,2.001c-.264.308-.642.497-1.047.522-.404.029-.803-.115-1.103-.388-.115-.104-.227-.205-.336-.302-.037.518-.07,1.019-.099,1.502-.024.404-.211.781-.518,1.045-.273.235-.622.364-.979.364ZM29.836,75.496c.162.027.321.081.471.163.309.169.542.437.67.751.154-.245.375-.446.645-.568.099-.045.202-.08.307-.103-.1-.072-.201-.144-.301-.215-.347-.247-.568-.625-.619-1.038-.069.091-.149.175-.239.25-.303.25-.614.503-.932.761ZM23.634,74.725l.307.3-.307-.3ZM30.576,72.288c.293.174.525.446.646.779.183-.337.491-.594.857-.712-.159-.087-.302-.203-.422-.343-.101-.119-.183-.252-.242-.394-.187.318-.486.558-.839.67Z"/>
    <path class="st0" d="M30.435,100.156c-.5,0-.961-.019-1.39-.057-2.673-.234-4.187-1.225-5.183-2.735-.142.315-.282.643-.438,1.032-.308.766-1.176,1.137-1.943.835l-2.289-.905c-.378-.149-.679-.446-.834-.821-.156-.375-.152-.797.009-1.17.421-.972.727-1.619,1.131-2.443-.461-.275-.757-.788-.73-1.359.031-.651.048-1.211.063-1.712.018-.586.034-1.09.064-1.573-.053-.042-.104-.086-.152-.135-.286-.292-.44-.688-.427-1.097l.062-1.946c.019-.596.383-1.101.896-1.327l-.123-.547c-.09-.404-.01-.828.223-1.17.232-.343.597-.574,1.005-.639,1.513-.241,3.57-.52,5.242-.712.786-.095,1.507.445,1.647,1.224l.152.841c.17-.047.349-.066.531-.048l.714.062c.045-.187.089-.374.136-.577.091-.388.333-.724.671-.934.339-.209.748-.277,1.135-.184l2.054.487c.396.094.736.344.944.694.169.286.238.618.199.944l.623.055c.398.035.767.228,1.022.535.256.308.378.705.34,1.104-.139,1.43-.409,3.919-.622,5.885l-.082.754c.27.225.462.544.522.917.141.883.235,1.63.282,2.22.063.799-.513,1.506-1.308,1.606l-.763.096.121,1.034c.047.404-.072.811-.33,1.125-.258.315-.633.511-1.039.544-.783.063-1.492.095-2.137.095Z"/>
    <path class="st0" d="M26.249,115.163c-.244,0-.491-.011-.742-.033-2.041-.178-3.637-1.141-4.613-2.782-.895-1.504-1.237-3.533-1.019-6.029.156-1.788.587-3.767,1.248-5.723.244-.723.994-1.147,1.737-.986l3.104.669c.424.091.788.362.997.741.21.38.245.832.096,1.239-1.483,4.066-1.166,6.327-.864,6.758.416.024.769-.072,1.261-.58.28-.289.663-.453,1.065-.457.41-.012.789.155,1.072.439l2.161,2.159c.581.58.587,1.519.016,2.106-1.618,1.664-3.43,2.479-5.52,2.479ZM23.571,102.831c-.364,1.3-.605,2.577-.708,3.749h0c-.16,1.832.05,3.295.609,4.234.482.811,1.212,1.232,2.297,1.328,1.008.084,1.879-.101,2.699-.605l-.063-.063c-.769.435-1.606.606-2.532.528-.911-.08-1.693-.567-2.205-1.371-.983-1.545-.957-4.381.035-7.77l-.131-.028ZM21.369,106.449h.01-.01Z"/>
    <path class="st0" d="M18.656,130.679c-.684,0-1.3-.47-1.46-1.164-.514-2.227-.66-4.665-.435-7.244h0c.156-1.784.491-3.648.996-5.541.211-.793,1.022-1.27,1.818-1.068l2.935.745c.396.101.735.359.937.715.201.356.249.779.131,1.171-.702,2.334-1.017,5.11-.894,7.336l.251-.819c.122-.398.403-.728.778-.91.374-.182.807-.201,1.195-.051,1.511.582,3.275.888,5.245.91.431.005.839.195,1.12.521s.408.759.349,1.186l-.386,2.768c-.098.698-.667,1.234-1.369,1.289-1.749.135-4.824-.376-6.86-1.141-.037-.014-.072-.029-.107-.045-.214.328-.548.56-.933.646l-2.985.66c-.109.024-.218.036-.325.036ZM19.808,127.071c.013.103.026.206.041.308h.003c-.016-.102-.031-.204-.044-.308ZM29.802,123.642c-1.037,0-3.759-.195-5.346-.367-.402-.043-.769-.248-1.019-.565-.25-.318-.36-.724-.307-1.124l.367-2.752c.108-.811.846-1.383,1.658-1.292,1.325.152,4.04.352,4.861.324.416-.019.804.158,1.09.452s.441.691.426,1.101l-.098,2.774c-.028.788-.66,1.419-1.448,1.446-.054.002-.116.003-.186.003Z"/>
    <path class="st0" d="M23.664,148.86c-.043,0-.087-.002-.131-.006l-2.744-.24c-.396-.035-.763-.226-1.019-.53-.216-.257-.338-.578-.35-.91-.345.217-.692.438-1.038.661-.343.221-.762.293-1.158.2-.397-.094-.739-.345-.946-.696l-1.354-2.287c-.206-.347-.263-.762-.159-1.152.104-.39.361-.721.713-.919.044-.025.088-.05.132-.075-.216-.288-.321-.646-.295-1.007l.186-2.532c.055-.75.652-1.333,1.384-1.387-.051-.289-.102-.636-.158-1.112-.042-.353.042-.692.217-.972-.006-.079-.005-.159.002-.239l.217-2.476c.071-.815.787-1.429,1.598-1.366l.423.03c.5.035,1.027.072,1.573.108.245-.586.839-.979,1.514-.915l2.745.239c.396.034.763.225,1.019.53.134.16.232.345.291.542.739.055,1.449.11,2.089.167.4.035.77.229,1.025.538s.377.708.336,1.108l-.254,2.489c-.01.103-.031.203-.062.299.089.295.085.614-.014.911-.141.418-.245.724-.347,1,.313.072.598.244.808.493.258.305.384.701.349,1.1l-.22,2.512c-.032.367-.194.692-.437.933.27.226.453.541.515.89.072.409-.028.83-.278,1.162l-1.555,2.068c-.239.318-.595.528-.989.584-.395.053-.794-.048-1.112-.286-.349-.263-.689-.52-1.028-.782-.043.372-.225.716-.51.962-.273.236-.621.364-.979.364ZM21.362,142.874c.188.03.372.096.541.199.29.175.505.44.623.745.162-.315.434-.569.775-.706.153-.062.312-.096.472-.105-.101-.323-.092-.679.042-1.009.084-.208.21-.388.367-.534l-.061-.005c-.604-.048-1.097-.448-1.292-.983-.272.501-.823.827-1.422.783-.067-.005-.135-.009-.202-.014.139.174.24.38.292.607.08.355.027.716-.133,1.023ZM22.764,134.846c.071.057.136.121.196.191.116.137.206.292.267.457.136-.255.342-.465.591-.605-.064-.054-.123-.112-.178-.176-.122-.144-.215-.308-.275-.483-.136.261-.347.475-.601.617Z"/>
    <path class="st0" d="M15.709,161.697c-.624,0-1.205-.392-1.418-1.012-.829-2.409-1.104-4.573-.89-7.017.095-1.093.288-2.261.606-3.672.088-.39.328-.729.667-.941.339-.213.75-.281,1.138-.189l2.834.663c.783.183,1.283.952,1.131,1.742-.223,1.17-.355,2.434-.381,3.565l.145-.021c.396-.051.798.056,1.115.301s.522.607.57,1.004l.306,2.503c.087.71-.34,1.383-1.021,1.607-.756.248-1.533.495-2.302.74-.689.219-1.374.437-2.034.652-.154.051-.312.075-.466.075ZM16.523,152.805c-.058.392-.102.764-.134,1.125h0c-.135,1.545-.04,2.915.319,4.37.196-.062.393-.125.591-.188.108-.035.217-.069.325-.104-.229-.05-.445-.153-.63-.305-.312-.255-.508-.625-.544-1.026-.101-1.125-.072-2.486.072-3.872ZM14.895,153.799h.01-.01ZM24.978,159.67c-.334,0-.661-.111-.928-.321-.344-.271-.552-.678-.571-1.115-.057-1.352-.352-3.328-.808-5.42-.089-.408-.004-.835.235-1.178.239-.342.609-.57,1.023-.628l2.946-.411c.713-.096,1.395.321,1.627,1.001.504,1.474.863,4.326.769,6.102-.037.686-.534,1.259-1.208,1.392l-2.795.551c-.096.019-.193.028-.29.028ZM25.923,153.759c.094.503.177.992.249,1.461-.056-.506-.129-1.01-.215-1.465l-.033.004Z"/>
    <path class="st0" d="M17.354,177.827c-.226,0-.456-.01-.691-.031-2.693-.236-4.562-2.259-4.347-4.706.12-1.375.77-2.567,1.828-3.355.932-.694,2.13-1.052,3.474-1.053.046-1.733.033-3.791-.044-5.108-.023-.408.12-.807.397-1.106s.665-.473,1.073-.48l2.915-.053c.816.032,1.503.635,1.527,1.457l.011.504c.738.005,1.446,0,1.885-.013.399-.005.793.136,1.084.414.291.278.458.661.464,1.063l.041,2.841c.005.398-.147.783-.426,1.069-.278.286-.659.448-1.058.453-.548.005-1.267-.004-1.987-.017-.014.191-.029.38-.046.567.591.278,1.351.663,2.428,1.218.355.183.623.5.744.882.12.381.083.795-.103,1.149l-1.388,2.645c-.188.357-.511.624-.897.739-.386.116-.803.072-1.156-.123-.54-.298-.986-.529-1.401-.723-1.084,1.156-2.573,1.767-4.327,1.767ZM19.438,171.785c.469.335.701.911.605,1.471.403-.473,1.065-.658,1.666-.434.253.094.501.193.752.301-.495-.24-.852-.397-1.139-.5-.634-.228-1.033-.847-.99-1.51-.095.158-.22.298-.37.413-.158.121-.337.208-.525.258ZM13.81,173.221h.01-.01ZM20.641,165.93c.004.582.003,1.184-.004,1.773.076-.226.204-.433.378-.602.145-.141.314-.249.499-.321-.397-.147-.715-.457-.872-.85Z"/>
    <path class="st0" d="M24.05,186.535c-.137,0-.275-.006-.414-.019-2.684-.235-4.477-2.18-4.263-4.625h0c.096-1.104.615-2.184,1.424-2.964.916-.881,2.102-1.308,3.336-1.199,2.538.222,4.355,2.344,4.138,4.832-.097,1.107-.572,2.119-1.339,2.85-.77.733-1.781,1.125-2.882,1.125ZM23.506,182.34c.051.068.196.187.405.206.073.008.206,0,.255-.061.057-.07.118-.252.054-.468-.026-.096-.204-.286-.437-.306-.079-.006-.106.004-.16.071-.113.139-.159.362-.117.559ZM23.519,182.389h0ZM23.493,182.32h0ZM20.867,182.021h.01-.01Z"/>
  </g>
  <g>
    <path class="st1" d="M59.036,16.293c1.293-1.351,1.68-2.059,1.777-3.171.023-.269-.011-.488-.116-.732-1.699,2.888-4.272,4.614-7.059,4.443-1.8-.086-3.001-1.438-2.86-3.251.196-2.242,1.736-3.933,4.185-4.658.032-.358.063-.718.093-1.059-.92-.008-1.752-.009-2.277,0l-.016-2.713c.724-.009,1.645,0,2.564.025.039-.448.1-.931.149-1.288l2.678.379c-.029.124-.059.465-.123.983,1.101.023,2.449.105,3.256.176l-.146,2.699c-.717-.062-2.031-.124-3.4-.171-.017.197-.036.412-.055.627,3.607.081,6.044,2.192,5.797,5.009-.15,1.722-.927,3.153-2.284,4.21l-2.164-1.509ZM54.598,14.333c.034-1.009.096-1.926.15-2.752-.779.438-1.211,1.032-1.273,1.75-.057.646.171.937.817.993.197.018.251.022.306.009ZM58.604,11.104c-.318-.082-.677-.113-1.128-.116-.027.305-.06.682-.128,1.868.419-.451.832-1.029,1.256-1.752Z"/>
    <path class="st1" d="M49.275,32.208c1.314-2.217,3.522-7.825,4.434-11.216l3.065.702c-.435,1.661-1.298,4.297-2.158,6.48,1.096-.537,1.699-.827,2.206-1.036.628,4.176,1.534,4.779,4.616,3.025l1.431,2.438c-3.239,2.318-6.836,1.697-7.956-1.401-.64.287-1.267.63-2.101,1.081-.22.451-.478.917-.775,1.415l-2.761-1.489Z"/>
    <path class="st1" d="M48.144,48.641c.149-.872.79-4.07,1.468-7.264-.615,0-1.229-.017-1.825-.015l.155-2.806c.958-.007,1.664-.018,2.277,0,.324-1.418.471-2.073.556-2.428l2.928.618c-.169.69-.313,1.31-.436,1.877.723.01,1.531.062,2.553.151l-.24,2.744c-1.007-.052-2.035-.087-2.938-.095-.652,2.907-1.481,6.812-1.641,7.81l-2.858-.594ZM54.833,50.076l.506-2.685c1.59.428,4.528.722,5.662.567l-.002,2.712c-.552.113-1.493.122-2.676.019-1.363-.119-2.733-.366-3.489-.613ZM55.642,42.682c1.596-.059,3.772.06,5.146.27l-.238,2.727c-1.505-.149-3.754-.274-4.895-.247l-.013-2.749Z"/>
    <path class="st1" d="M49.476,61.512c-.688.013-1.267.017-1.612.04l.205-2.747c.453-.015,1.03,0,1.68.002.062-.5.126-1.02.208-1.554-.916-.062-1.474-.093-1.673-.092l.235-2.691c.432.021,1.223.071,1.869.128.075-.445.152-.909.245-1.353l2.913.381c-.09.408-.162.818-.232,1.209,1.381.121,2.348.224,2.74.294l-.234,2.673c-.338-.065-1.394-.176-2.901-.308-.061.482-.119.947-.176,1.394,1.172.03,1.784.066,2.196.102l-.126,2.683c-.647-.039-1.458-.073-2.304-.111-.086,1.602.24,2.208,1.245,2.296,1.399.123,2.071-.542,2.314-2.49l2.925.437c-.326,3.315-2.331,5.164-5.291,4.905l-.036-.003c-2.922-.273-4.348-1.953-4.191-5.193Z"/>
    <path class="st1" d="M46.41,76.115l-.669.628-1.941-1.778c2.291-2.005,3.454-3.312,4.834-5.668l2.328,1.288c-1.172,2.03-2.296,3.306-3.662,4.668l1.906.113c-.025.702-.332,5.863-.459,7.515l-2.762-.241c.093-1.475.291-4.765.426-6.524ZM50.787,80.004c.685.023,1.566.064,2.485.108.071-1.024.147-2.102.245-3.214-1.331-.08-2.535-.149-3.202-.172l.167-2.732c.776.014,1.981.083,3.275.16.096-1.095.209-2.187.322-3.261l2.786.171c-.111,1.075-.208,2.188-.306,3.299l3.031.266-.237,2.708c-.61-.054-1.742-.134-3.016-.245-.098,1.111-.173,2.189-.245,3.214l2.278.199-.237,2.708c-1.668-.146-5.764-.432-7.513-.477l.167-2.732Z"/>
    <path class="st1" d="M48.401,98.587c-1.185-.086-2.281-.163-3.199-.207l.094-1.691c.811.035,1.997.103,3.254.194l.042-.483c-1.601-.086-3.648-.229-4.857-.263l.08-1.529c1.027.036,3.129.184,4.909.284l.035-.395c-1.237-.108-2.531-.203-3.589-.296l.149-1.703c.879.077,2.189.173,3.588.296l.06-.682-3.461-.303c-.004-.778.066-2.615.131-3.567,1.401.104,3.015.246,3.661.302l.048-.557c-1.545-.099-3.038-.192-4.294-.284l.096-2.125c1.079.059,2.661.161,4.384.293.046-.32.07-.59.089-.805l2.69.235c-.017.197-.059.465-.085.77l4.488.339-.185,2.116c-1.31-.115-2.889-.235-4.506-.34l-.05.573,3.587.314c-.097.895-.31,2.503-.422,3.578l-3.497-.307-.058.664c1.454.108,2.799.227,3.642.3-.082.734-.134,1.326-.202,1.898.611.035,1.115.062,1.671.11l-.162,1.848c-.647-.039-1.131-.081-1.689-.111-.052.592-.126,1.235-.213,2.023l-3.551-.311c-.06.682-.092,1.257-.128,1.669l-2.673-.233c.034-.395.065-.952.123-1.616ZM49.098,90.624l.062-.718c-.358-.031-.719-.044-1.041-.072l-.026.702,1.004.088ZM52.234,97.133l.053-.609c-.323-.028-.664-.059-1.006-.07l-.053.61c.342.012.683.041,1.006.069ZM52.405,95.395l.052-.592-1.022-.089-.054.609c.341.03.701.043,1.024.071ZM52.74,90.943l.117-.714-1.022-.089-.062.718.968.085Z"/>
    <path class="st1" d="M48.799,106.859c-1.565-.082-3.503-.251-5.328-.466l.328-2.917c3.562.402,6.699.695,8.931.8l.546,2.018c-4.646,3.533-5.006,5.779-1.21,7.431l-2.205,2.266c-4.014-1.833-4.504-6.159-1.062-9.131ZM53.49,102.824l1.626-.002c.031.689.008,1.771-.001,2.295l-1.626.002c.002-.433.003-1.282.002-2.295ZM55.963,102.859l1.591-.005c.014.453.022,1.395.016,2.297l-1.646.019c.022-.666.019-1.661.04-2.311Z"/>
    <path class="st1" d="M39.346,125.657c.242-1.117.395-1.628.797-3.129l1.945.495c-.315,1.129-.446,1.786-.744,3.134l-1.999-.5ZM42.799,118.205l2.474.235c-.143,1.018-.315,2.575-.467,4.314l1.409-.617c.321.678.67,1.432.984,2.182l-1.948.986c-.213-.452-.395-.865-.555-1.295-.261,2.978-.485,6.156-.571,7.758l-2.5-.146c.198-3.091.884-10.099,1.174-13.417ZM47.879,130.181c-.012-.688.189-3.815.356-5.934l-.902-.024.123-2.846c1.027.036,1.947.062,2.793.101.01-.74.006-1.717-.016-2.297l2.482-.072c.048.691.079,1.579.106,2.504l2.695.181-.304,2.866c-1.344-.136-2.729-.221-4.294-.304-.129,1.471-.29,3.518-.342,4.741,1.433.144,2.357.116,3.865.03l.045,2.788c-1.648.036-2.499.053-4.562-.128-1.704-.149-2.021-.664-2.046-1.606Z"/>
    <path class="st1" d="M41.825,141.123c.145-1.649.541-3.495,1.175-5.373l3.104.669c-1.712,4.694-1.619,8.588.354,8.761.968.085,1.754-.226,2.53-1.025l2.16,2.159c-1.489,1.532-3.1,2.169-5.055,1.997-3.139-.274-4.652-2.811-4.269-7.188Z"/>
    <path class="st1" d="M38.221,155.66c.091-1.04.28-2.162.575-3.474l2.833.663c-.366,1.92-.497,4.023-.359,5.554.638-.071,1.134-.154,1.792-.241l.305,2.503c-1.433.471-2.938.937-4.333,1.393-.764-2.218-1.01-4.155-.814-6.397ZM47.463,154.354l2.946-.411c.446,1.304.775,3.953.69,5.537l-2.795.55c-.059-1.396-.351-3.428-.841-5.676Z"/>
    <path class="st1" d="M36.912,177.032c.149-.873.79-4.07,1.467-7.265-.615,0-1.228-.017-1.825-.015l.156-2.806c.958-.007,1.664-.018,2.277,0,.323-1.417.471-2.073.556-2.427l2.928.617c-.168.69-.313,1.31-.436,1.878.723.009,1.531.062,2.553.15l-.24,2.745c-1.007-.053-2.035-.088-2.937-.095-.653,2.907-1.482,6.812-1.641,7.809l-2.858-.593ZM43.6,178.466l.506-2.686c1.589.429,4.528.723,5.662.568l-.002,2.711c-.552.114-1.493.122-2.676.019-1.363-.119-2.734-.365-3.489-.612ZM44.41,171.073c1.596-.06,3.772.059,5.146.269l-.239,2.727c-1.504-.149-3.753-.274-4.895-.247l-.012-2.748ZM48.2,166.379l1.627-.003c.03.69.007,1.772-.002,2.295l-1.627.003c.002-.434.004-1.283.002-2.295ZM50.673,166.415l1.591-.005c.015.453.023,1.394.016,2.297l-1.646.019c.022-.667.019-1.661.04-2.311Z"/>
    <path class="st1" d="M39.207,192.319c3.167-.048,4.491-.51,4.56-1.498.107-1.437-1.697-1.884-5.061-1.238l-.42-1.194c1.313-1.583,1.981-2.393,2.834-3.475-1.079-.059-2.211-.121-3.022-.156l.282-2.812c1.818.086,4.119.233,6.038.401.592.052,1.094.096,1.487.148-1.395,2.101-2.036,3.021-3.183,4.565,2.483.127,4.077,1.749,3.885,3.937-.238,2.727-2.619,4.108-6.989,4.069l-.411-2.747Z"/>
    <path class="st1" d="M38.035,209.021c2.269-1.355,3.344-2.273,3.399-2.901.127-1.453-1.298-1.902-4.697-1.478l-.497-2.791c5.198-.954,8.868.686,8.595,3.808-.183,2.098-2.221,4.323-5.455,5.956l-1.345-2.594ZM38.419,199.258l.642-2.582c1.134.262,3.637.986,4.476,1.312l-.855,2.547c-.999-.358-3.447-1.098-4.262-1.277Z"/>
    <path class="st1" d="M32.565,218.442c.091-1.04.235-2.059.45-3.069l2.874.414c-.472,3.537-.509,6.028-.119,9.207l-2.883.525c-.43-3.146-.508-4.942-.321-7.077ZM38.978,226.341c.857-1.534,1.517-3.501,1.895-5.745-.829-.036-1.746-.08-2.649-.087l-.016-2.713c.686.006,1.569.029,2.939.077.057-.863.061-1.729-.002-2.657l3.007-.081c.031,1.088.039,2.046,0,2.892.576.033,1.184.104,1.828.179l-.361,2.68c-.521-.046-1.114-.08-1.743-.116-.407,2.585-1.157,4.959-2.174,6.876l-2.724-1.304Z"/>
    <path class="st1" d="M33.254,239.501c.078-.897.445-1.787,1.14-2.702-.475-1.596-.803-4.046-.758-5.796l2.897-.271c.003,1.211.099,2.792.23,3.779,1.003-.726,2.222-1.432,3.33-1.913l.972,2.94c-2.342.951-4.472,2.771-4.572,3.92-.12,1.363.914,1.743,4.661,1.673l-.279,2.977c-1.071.05-1.882.033-2.564-.026-3.569-.312-5.295-1.873-5.058-4.581ZM41.384,232.096l1.627-.002c.03.689.008,1.771-.002,2.295l-1.626.002c.001-.434.004-1.283.001-2.295ZM43.857,232.132l1.591-.006c.014.453.022,1.394.015,2.297l-1.646.019c.022-.667.019-1.661.04-2.31Z"/>
    <path class="st1" d="M39.182,247.767l1.963-1.78c.677.729,2.438,2.925,2.767,3.912l-2.149,1.42c-.322-.661-2.053-2.981-2.581-3.552Z"/>
    <path class="st1" d="M27.689,13.966c.148-.873.789-4.069,1.467-7.264-.615,0-1.228-.018-1.825-.015l.156-2.807c.958-.007,1.664-.017,2.277,0,.323-1.418.471-2.074.556-2.428l2.928.617c-.168.69-.313,1.311-.436,1.878.722.009,1.531.062,2.553.151l-.24,2.744c-1.007-.053-2.034-.088-2.937-.095-.652,2.907-1.482,6.812-1.642,7.81l-2.858-.594ZM34.378,15.401l.506-2.685c1.589.429,4.528.722,5.662.567l-.002,2.711c-.552.114-1.493.122-2.677.019-1.363-.119-2.733-.365-3.489-.612ZM35.187,8.007c1.595-.06,3.772.059,5.145.27l-.239,2.727c-1.504-.15-3.752-.274-4.894-.248l-.012-2.748Z"/>
    <path class="st1" d="M27.325,29.077c.173-1.974,1.798-2.789,4.327-2.152.098-.696.127-1.037.146-1.253-1.101-.023-2.147-.043-3.304-.036l.005-2.547c1.088-.032,2.244-.021,3.449.03.028-.522.033-.774.019-1.028-.994.003-1.899.015-2.75.03l-.065-2.554c.833-.018,1.719-.031,2.731-.032-.007-.326-.051-.655-.099-1.147l2.894-.019c.06.349.097.75.111,1.203.902.024,1.764.082,2.444.16l-.335,2.591c-.61-.054-1.311-.097-2.048-.144-.014.361-.027.721-.041,1.081.88.06,1.67.128,2.296.201l-.279,2.578c-.659-.112-1.412-.178-2.202-.247-.065.537-.135,1.127-.247,1.786,1.104.403,2.208.79,2.973,1.146l-1.035,2.53c-.799-.377-1.542-.768-2.614-1.114-.447,1.39-1.791,2.084-3.674,1.92-1.74-.152-2.848-1.334-2.703-2.983ZM30.16,30.137c.448.039.947-.297,1.032-.849-.307-.208-.642-.31-.911-.333-.576-.032-.965.295-.685.808.125.228.331.354.564.374Z"/>
    <path class="st1" d="M25.425,40.455c.149-1.704.466-3.466.951-5.285l2.935.745c-1.096,3.646-1.304,8.091-.498,10.656l-2.986.66c-.485-2.103-.612-4.373-.402-6.776ZM30.704,46.031l.835-2.728c1.696.653,3.637.986,5.767,1.01l-.386,2.769c-1.529.119-4.396-.367-6.216-1.051ZM32.154,37.084c1.361.156,4.146.345,5.05.334l-.098,2.774c-.743.025-3.618-.172-5.319-.356l.367-2.752Z"/>
    <path class="st1" d="M23.488,56.817c.147-1.686.436-3.323.864-4.912l2.851.466c-.923,3.733-1.107,6.662-.644,10.463l-2.967.445c-.247-2.137-.286-4.381-.104-6.462ZM30.008,64.31c-1.576-.373-2.392-1.385-2.266-2.819.165-1.884,1.897-2.889,3.94-2.275.084-.752.146-1.668.17-2.57-.719-.044-1.542-.135-2.508-.255l.304-2.848c.662.076,1.416.142,2.188.191-.032-.671-.064-1.126-.107-1.473l2.901-.108c.049.475.087,1.074.104,1.708.902.025,1.607.014,2.118-.031l.052,2.914c-.673.05-1.397.059-2.19.044-.06,1.513-.13,2.519-.23,3.251.66.311,1.727,1.127,2.32,1.775l-1.726,1.964c-.374-.268-.992-.846-1.487-1.179-.283,1.169-1.667,1.915-3.139,1.786-.125-.011-.197-.018-.445-.075ZM30.604,62.248c.431.037.93-.299.854-.667-.056-.185-.246-.292-.459-.329-.519-.062-1.215.256-.86.738.111.173.285.26.466.258Z"/>
    <path class="st1" d="M22.939,74.044c-.179.183-.358.366-.554.548l-1.87-1.772c2.219-2.011,3.054-3.294,4.398-5.652l2.256,1.282c-1.179,2.102-2.121,3.375-3.437,4.778l1.816.104c-.043.701-.355,5.716-.479,7.549l-2.583-.226c.094-1.492.316-4.853.452-6.611ZM25.59,77.004c1.5-1.242,2.936-2.363,4.222-3.426-1.224-.07-2.338-.132-3.043-.14l.206-2.765c.846.037,1.961.099,3.146.184.089-1.021.173-1.973.263-2.796l2.685.308c-.095.877-.191,1.772-.27,2.669,1.257.092,2.369.189,3.015.246l-.24,2.744c-.771-.067-1.865-.163-3.033-.247-.014.161-.03.341-.045.52,1.361.969,2.683,1.971,4.089,3.051l-1.711,2.001c-.988-.899-1.783-1.529-2.631-2.163-.117,1.544-.229,3.034-.311,4.382l-2.69-.235c.081-1.132.216-2.674.345-4.361-.793.599-1.608,1.232-2.504,1.968l-1.493-1.938Z"/>
    <path class="st1" d="M19.744,96.93c.521-1.201.851-1.877,1.488-3.159l2.273.868c-.64,1.317-.988,1.992-1.473,3.196l-2.289-.905ZM20.447,88.677c.413.036.825.072,1.904.132.002-.235.021-.45.04-.666-1.062-.039-2.035-.087-2.577-.081l.062-1.946c.65.003,1.624.033,2.649.087.019-.215.04-.448.078-.681-.605.092-1.138.19-1.559.262l-.429-1.917c1.613-.257,3.661-.529,5.177-.703l.341,1.891c-.401.037-.877.104-1.371.17-.054.411-.085.77-.115,1.11.972.049,1.853.107,2.391.154l-.15,1.921c-.502-.044-1.384-.084-2.373-.153-.008.307-.037.63-.043.701.448.039,1.254.128,1.969.209l-.453,3.937-5.722-.501c.083-1.764.07-2.867.181-3.925ZM24.087,91.292c.038-.231.076-.463.094-.66-.608-.071-1.094-.096-1.706-.131-.018.196-.036.412-.039.646l1.65.145ZM24.184,94.518l2.575-.715c.695,2.175,1.675,2.749,5.382,2.115l.31,2.647c-1.292.104-2.377.118-3.274.039-3.067-.269-4.145-1.592-4.993-4.087ZM27.82,85.184l1.992.175c.191-.743.305-1.222.45-1.841l2.054.487c-.159.582-.275,1.078-.386,1.521l2.368.207c-.188,1.936-.617,5.819-.818,7.699l-6.134-.536c.105-2.231.333-5.664.476-7.712ZM28.697,93.755l2.138-.265c.106.642.223,1.375.272,2.048l-2.05.291c-.098-.731-.203-1.392-.361-2.074ZM31.321,91.654c.016-.18.049-.357.067-.555l-1.633-.143-.049.556,1.615.142ZM31.553,89.831c.017-.197.036-.413.071-.608l-1.758-.154-.037.63c.574.05,1.076.094,1.723.133ZM31.767,88.005c.021-.233.057-.446.073-.626-.68-.078-1.236-.127-1.848-.162l-.037.63,1.812.158ZM31.987,93.953l2.14-.282c.105.659.216,1.446.268,2.103l-2.029.256c-.115-.751-.203-1.392-.378-2.076Z"/>
    <path class="st1" d="M21.369,106.449c.144-1.65.541-3.495,1.175-5.374l3.104.669c-1.712,4.694-1.619,8.589.354,8.762.969.084,1.755-.227,2.53-1.026l2.161,2.159c-1.49,1.532-3.1,2.169-5.055,1.997-3.139-.274-4.652-2.81-4.269-7.187Z"/>
    <path class="st1" d="M18.256,122.402c.149-1.704.466-3.466.951-5.285l2.935.745c-1.096,3.646-1.304,8.091-.499,10.656l-2.985.66c-.485-2.103-.612-4.373-.402-6.776ZM23.534,127.978l.835-2.728c1.696.653,3.637.986,5.767,1.01l-.386,2.768c-1.529.119-4.396-.366-6.216-1.05ZM24.985,119.032c1.361.156,4.146.345,5.05.334l-.098,2.774c-.743.025-3.618-.172-5.319-.356l.367-2.752Z"/>
    <path class="st1" d="M21.125,144.355c-1.127.695-2.349,1.439-3.556,2.219l-1.354-2.287c1.388-.782,2.659-1.467,3.817-2.106-1.366-.084-2.554-.151-3.22-.173l.186-2.532c.828.036,2.589.154,4.511.286.097-1.312.209-2.603.31-3.751-1.185-.085-2.336-.149-3.378-.223l.217-2.476c1.023.071,2.173.154,3.377.223.036-.412.084-.751.106-1.002l2.745.239c-.022.252-.068.573-.103.968,1.239.091,2.46.18,3.501.271l-.254,2.489c-1.11-.115-2.276-.217-3.48-.305-.101,1.148-.215,2.458-.312,3.769l4.523.359-.22,2.512c-.628-.055-1.866-.163-3.338-.274,1.044.869,2.151,1.652,3.433,2.488l-1.555,2.068c-1.034-.777-2.051-1.553-3.224-2.613-.085,1.186-.157,2.209-.196,2.856l-2.744-.24c.047-.538.116-1.526.206-2.765ZM18.217,136.69l2.268-.308c.168,1.171.269,1.47.476,2.409l-2.259.417c-.236-1.015-.328-1.204-.484-2.519ZM24.867,139.187c.429-.975.54-1.218.898-2.415l2.26.612c-.366,1.09-.459,1.334-.977,2.499l-2.181-.696Z"/>
    <path class="st1" d="M14.895,153.799c.091-1.04.28-2.162.575-3.474l2.834.663c-.367,1.92-.497,4.024-.359,5.554.639-.07,1.134-.153,1.792-.24l.306,2.503c-1.433.471-2.938.936-4.333,1.392-.764-2.218-1.01-4.155-.814-6.397ZM24.136,152.494l2.946-.411c.446,1.305.774,3.954.69,5.537l-2.795.551c-.059-1.396-.351-3.429-.841-5.677Z"/>
    <path class="st1" d="M13.81,173.221c.201-2.296,2.347-3.482,5.241-2.886.119-1.978.122-5.104.021-6.848l2.915-.053c.022.779.024,1.376.047,1.938,1.154.028,2.636.032,3.396.008l.041,2.841c-.922.01-2.347-.024-3.412-.045-.011,1.155-.099,2.16-.229,3.034.666.239,1.549.678,3.365,1.613l-1.388,2.645c-1.051-.58-1.797-.935-2.621-1.241-.891,1.513-2.419,2.246-4.393,2.074-1.847-.162-3.125-1.467-2.983-3.081ZM17.116,174.071c.503.025,1.117-.372,1.449-1.066-1.318-.64-2.576-.099-2.07.723.143.229.368.34.621.344Z"/>
    <path class="st1" d="M20.867,182.021c.13-1.488,1.415-2.949,3.136-2.799,1.686.147,2.923,1.503,2.774,3.207-.125,1.436-1.217,2.75-3.01,2.593-1.74-.152-3.047-1.314-2.9-3.001ZM24.957,181.962c-.182-.612-.538-.878-.914-.911-.7-.061-1.47.685-1.261,1.391.137.499.497.73.874.763.7.062,1.511-.537,1.302-1.242Z"/>
  </g>
</svg>