<?xml version="1.0" encoding="UTF-8"?>
<svg id="_レイヤー_1" data-name="レイヤー_1" xmlns="http://www.w3.org/2000/svg" version="1.1" viewBox="0 0 65 305">
  <!-- Generator: Adobe Illustrator 29.0.1, SVG Export Plug-In . SVG Version: 2.1.0 Build 192)  -->
  <defs>
    <style>
      .st0 {
        fill: #fff;
      }

      .st1 {
        fill: #3c291a;
      }
    </style>
  </defs>
  <g>
    <path class="st0" d="M61.56,18.466c-.043,0-.088-.002-.132-.006l-10.117-.885c-.811-.071-1.417-.775-1.366-1.587.113-1.822.358-5.247.551-7.93.106-1.477.195-2.728.238-3.359.027-.402.214-.777.521-1.039.306-.263.701-.39,1.107-.355l1.923.168c.015-.03.03-.061.044-.092.332-.688.675-1.399.872-1.887.302-.75,1.146-1.125,1.904-.85l2.487.904c.394.143.71.445.871.832.162.387.154.823-.021,1.204-.055.119-.112.242-.17.367.912.086,1.783.173,2.567.251.823.083,1.423.815,1.343,1.638-.177,1.812-.914,9.201-1.132,11.281-.081.77-.73,1.344-1.49,1.344ZM59.806,15.307l.411.036c.041-.394.084-.83.131-1.294-.014.12-.028.236-.045.349-.054.366-.237.683-.498.91ZM53.034,14.715l.36.032c-.146-.186-.261-.402-.319-.63-.014.206-.028.405-.041.598ZM60.256,12.523c.125.243.186.523.161.816-.008.088-.016.179-.024.269.055-.546.113-1.123.171-1.707-.054.235-.162.446-.309.622ZM53.258,11.49c-.019.268-.038.533-.056.796.053-.136.126-.263.214-.376-.072-.13-.126-.271-.158-.42ZM60.543,9.968c.086.162.141.337.164.518.034-.339.067-.674.1-1.002-.058.179-.148.343-.263.484ZM53.437,8.98c-.018.255-.037.516-.056.778.052-.14.124-.269.212-.384-.07-.122-.123-.255-.157-.394ZM60.639,7c.18.215.3.48.338.768.025-.256.05-.5.072-.728-.135-.013-.272-.027-.41-.04ZM53.62,6.427c-.016.223-.033.461-.051.71.096-.269.266-.501.483-.673l-.433-.038ZM56.162,6.2c.239.014.475.028.707.043-.067-.076-.127-.16-.179-.25-.058-.101-.103-.206-.135-.314-.002.004-.004.008-.006.012-.093.2-.227.372-.388.509Z"/>
    <path class="st0" d="M57.731,35.351c-.246,0-.496-.061-.725-.187l-2.448-1.354c-.131-.072-.25-.163-.352-.269-.438.506-1.165.663-1.778.371l-2.325-1.107c-.408-.194-.707-.562-.813-1.001-.106-.439-.009-.902.265-1.262.389-.51.742-1.036,1.055-1.565-.309-.06-.593-.215-.811-.448-.284-.303-.429-.71-.401-1.125l.061-.911c-.073-.05-.144-.106-.209-.17l-1.999-1.947c-.318-.311-.483-.746-.449-1.189s.263-.849.625-1.107c1.246-.888,3.625-3.072,4.465-4.101.266-.326.657-.525,1.077-.548.421-.024.831.13,1.132.424l2.015,1.966c.064.062.123.13.174.203l2.198-1.762c.324-.258.741-.373,1.15-.314.41.059.778.284,1.016.624.884,1.26,2.659,3.297,3.876,4.448.308.292.479.7.469,1.125-.01.424-.199.824-.52,1.102l-2.15,1.854c-.162.14-.347.239-.542.298-.372,2.517-1.371,5.139-2.81,7.29-.288.43-.762.666-1.248.666ZM58.31,26.846c.049.05.095.104.137.161.13.176.219.376.262.587.046-.234.086-.466.119-.697-.169-.017-.342-.034-.519-.051ZM54.03,26.481c.071.071.136.15.192.236.072.109.129.226.17.348.104-.209.252-.387.431-.524-.267-.021-.532-.041-.792-.059ZM54.516,23.509c.894.065,1.826.143,2.722.224-.513-.64-.956-1.231-1.243-1.646-.241.235-.801.78-1.479,1.422Z"/>
    <path class="st0" d="M54.871,50.893c-.289,0-.579-.083-.835-.255l-2.288-1.537c-.103-.069-.195-.149-.274-.237-.158.341-.438.613-.789.757-.38.157-.81.152-1.185-.016l-2.418-1.079c-.673-.3-1.028-1.045-.837-1.758.068-.254.228-.697,1.449-3.535-.234-.064-.452-.185-.632-.355-.316-.299-.487-.72-.469-1.155l.122-2.846c.033-.778.657-1.401,1.435-1.434.536-.023,1.223-.012,2.053.03l.086-.195c.282-.639.559-1.267.739-1.656.344-.744,1.221-1.075,1.971-.74l2.522,1.124c.752.335,1.093,1.213.765,1.968l-.108.241c.049.014.098.029.146.044.005-.012.01-.025.016-.037.171-.385.496-.68.896-.814l2.569-.858c.688-.229,1.442.066,1.791.702.539.983,1.564,4.03,1.77,5.259.121.722-.297,1.425-.989,1.665l-2.46.851c-.38.131-.797.105-1.158-.074-.026-.013-.051-.026-.076-.041-.433,1.77-1.329,3.66-2.608,5.376-.293.394-.745.604-1.204.604ZM54.42,40.902c.541.263.959.709,1.195,1.29.243.599.283,1.319.116,2.169.299-1.127.325-2.087.115-2.703-.158-.463-.383-.526-.491-.557-.235-.067-.543-.132-.936-.199ZM50.74,40.511c.187.116.349.272.472.462.104.161.174.337.21.52.01-.023.021-.046.031-.07.276-.614.928-.969,1.596-.867.056.008.112.017.167.026-.204-.132-.375-.314-.496-.533-.083-.151-.139-.314-.167-.48l-.036.08c-.257.577-.844.926-1.479.884-.103-.008-.203-.015-.3-.021Z"/>
    <path class="st0" d="M50.537,67.787c-.654,0-1.24-.427-1.434-1.063l-.842-2.767c-.129-.425-.063-.886.18-1.258.022-.033.044-.065.069-.097-.409.042-.82-.094-1.131-.369-.338-.298-.523-.732-.506-1.183.058-1.487.181-4.15.267-5.542.025-.404.212-.78.518-1.044.307-.264.705-.396,1.11-.357l.786.069c-.052-.368.035-.743.245-1.052l1.473-2.167c.458-.672,1.367-.857,2.05-.419.559.358,1.943,1.059,3.506,1.704.398.165.707.492.847.9.14.408.098.855-.116,1.23l-1.345,2.358c-.19.333-.491.568-.832.681.81.312,1.495.749,2.027,1.302.898.935,1.312,2.128,1.196,3.453-.382,4.37-4.702,5.296-7.918,5.613-.05.005-.099.007-.148.007ZM54.665,60.373c.083.077.161.16.231.248.457.575.564,1.317.288,1.988-.309.748-1.048,1.329-2.24,1.752,2.516-.681,2.613-1.793,2.671-2.455.04-.455-.078-.808-.371-1.112-.153-.159-.348-.3-.58-.421ZM49.978,58.656c-.012.256-.024.511-.035.76.137-.009.277-.017.418-.023-.196-.206-.328-.462-.383-.737ZM52.996,56.887c.126.011.25.024.373.039-.12-.058-.242-.119-.367-.181-.002.047-.004.094-.006.142Z"/>
    <path class="st0" d="M53.696,84.162c-.349,0-.697-.121-.979-.363l-1.916-1.649c-.219-.188-.376-.434-.458-.705l-.027.448c-.05.825-.773,1.444-1.583,1.406l-2.464-.143c-.818-.047-1.447-.742-1.412-1.561.019-.455.052-1.003.094-1.621l-.798.007c-.428.004-.787-.154-1.071-.436-.284-.283-.444-.668-.442-1.069l.009-2.584c.001-.371.137-.709.36-.971-.685-.28-1.071-1.027-.884-1.759.359-1.406.87-3.289,1.11-4.16.216-.784,1.015-1.252,1.805-1.058l.847.209c.207-.656.846-1.124,1.551-1.065l2.441.195c.407.032.783.229,1.042.545s.377.724.328,1.129c.165-.398.322-.776.466-1.119.317-.75,1.173-1.111,1.932-.814l2.481.977c.375.147.674.439.831.81.111.26.145.544.102.819.871.053,1.724.105,2.458.16.404.03.778.222,1.039.532s.384.712.343,1.115l-.272,2.706c-.04.391-.226.731-.499.973.048.271.021.551-.081.811-.345.876-.721,1.692-1.138,2.466.148.098.304.198.467.301.344.217.585.566.668.965.082.399-.001.814-.231,1.151l-1.471,2.148c-.449.654-1.329.846-2.009.439-.255-.153-.508-.312-.757-.478-.287.295-.575.578-.864.844-.287.265-.652.397-1.017.397ZM50.446,79.766l-.039.644c.076-.172.184-.33.32-.465.079-.078.157-.156.233-.233-.165.019-.337.037-.515.055ZM54.729,78.62c.135.28.179.594.129.897.223-.08.462-.105.698-.077-.13-.288-.166-.613-.101-.925-.11.045-.227.078-.347.096-.126.02-.254.022-.379.008ZM47.356,77.187c.11.068.211.151.301.247.039.041.074.083.107.128.156-.245.382-.441.649-.562-.103-.064-.198-.141-.284-.229-.044-.046-.086-.095-.125-.146-.157.245-.382.441-.649.562ZM47.828,72.23c.083.062.159.131.228.209.056.064.106.132.151.203.125-.149.28-.274.454-.365-.079-.059-.152-.126-.219-.201-.06-.066-.113-.138-.159-.212-.053.062-.11.121-.173.175-.087.075-.181.138-.281.19ZM53.478,71.433c-.115.284-.23.569-.343.851.235-.121.5-.18.781-.162-.105-.093-.197-.203-.273-.325-.071-.115-.126-.237-.164-.364Z"/>
    <path class="st0" d="M55.505,101.487c-.21,0-.424-.044-.626-.138l-1.545-.711c-.428.231-.96.25-1.419.005l-1.05-.559c-.372.106-.782.067-1.142-.134l-1.379-.771c-.397-.222-.671-.612-.747-1.061-.034-.202-.025-.405.021-.599l-.806-.436c-.232-.125-.423-.308-.56-.527-1.266.124-2.651.207-4.14.248-.398.006-.785-.137-1.074-.412s-.457-.653-.467-1.051l-.063-2.591c-.016-.641.374-1.2.938-1.428-.466-.283-.76-.812-.718-1.392l.184-2.514c.06-.816.773-1.444,1.577-1.388.08.004.161.008.242.013.003-.033.006-.064.009-.096.035-.401.23-.772.542-1.028.311-.255.712-.378,1.114-.332l2.56.278c.62.067,1.112.504,1.278,1.069.037-.679.068-1.25.084-1.56.021-.405.205-.784.51-1.051.304-.267.704-.404,1.109-.367,2.588.209,3.754.31,4.59.383l1.467.129c.205.018.415.032.629.046.252.017.51.035.772.058.399.036.768.229,1.023.538.256.309.377.707.337,1.105-.12,1.196-.372,3.648-.541,5.206.571.241.954.822.914,1.474l-.127,2.068c-.019.314-.137.613-.333.854-.308,2.498-.447,3.461-1.864,5.918-.276.478-.779.75-1.3.75ZM45.004,93.294c-.071.141-.163.27-.272.381.194-.014.385-.029.574-.044-.036-.029-.07-.061-.104-.094-.075-.074-.142-.156-.198-.243ZM44.766,88.971c.184.14.333.321.437.528.142-.21.334-.38.559-.496-.184-.14-.334-.321-.438-.528-.141.209-.333.38-.558.496Z"/>
    <path class="st0" d="M53.819,117.041c-.05,0-.1-.002-.15-.008-4.417-.445-8.015-.666-11.664-.717-.408-.006-.796-.178-1.075-.476-.279-.299-.424-.698-.401-1.106l.149-2.735c.044-.806.719-1.409,1.523-1.418.162.003.327.006.496.009l.115-2.318c.007-.137.032-.269.072-.393-.122-.072-.234-.163-.333-.268-.277-.298-.421-.696-.399-1.103l.149-2.734c.044-.815.715-1.443,1.547-1.417.803.026,1.508.05,2.163.074l-.219-.982c-.089-.397-.012-.814.212-1.154.225-.339.578-.573.978-.648l2.517-.466c.781-.15,1.547.349,1.732,1.127l.161.668c.157.646.283,1.169.399,1.763.661.046,1.389.1,2.213.162.399.03.771.219,1.03.525.259.305.386.702.351,1.102l-.242,2.762c-.054.616-.473,1.112-1.024,1.294.009.092.01.186.001.279l-.21,2.398c.03.003.06.005.09.008l.191.017c.396.035.763.225,1.019.53s.38.699.345,1.095l-.242,2.763c-.035.399-.229.769-.538,1.024-.27.224-.609.345-.957.345ZM47.369,113.511c.409.024.822.05,1.24.079-.083-.064-.16-.137-.229-.218-.175-.206-.29-.454-.335-.715-.111.365-.356.667-.675.855ZM47.763,109.67c.03.028.06.058.088.089.188.208.311.462.361.733.103-.355.332-.653.632-.845-.043-.041-.085-.083-.124-.128-.172-.201-.286-.441-.334-.696-.1.354-.326.653-.623.848ZM48.025,105.517c.069.055.133.115.192.182.184.208.305.46.353.729.106-.358.342-.658.65-.848-.41-.023-.803-.044-1.195-.063Z"/>
    <path class="st0" d="M49.737,133.56c-.585,0-1.154-.023-1.697-.07-5.914-.518-6.574-3.602-6.584-4.904v-.004c-.004-.851.249-2.004,1.274-3.215-.169-.305-.232-.668-.158-1.031.078-.375.148-.725.214-1.053-.114-.012-.23-.025-.349-.038l-.274-.03c-.402-.044-.769-.248-1.018-.566-.25-.318-.36-.723-.306-1.124l.364-2.716c.106-.794.826-1.365,1.617-1.295l1.077.094v-.009c.14-.808.896-1.355,1.71-1.229l2.942.456c.414.064.783.299,1.016.647.108.162.183.342.222.528.181.005.362.008.543.011.41.005.8.179,1.079.479.279.301.423.702.398,1.112l-.162,2.679c0,.011-.001.021-.002.032.054.118.094.244.116.375l.456,2.644c.071.41-.032.811-.257,1.126.278.665.043,1.446-.577,1.842l-.026.017c.008.007.015.015.022.023.292.304.443.718.415,1.14l-.18,2.678c-.052.777-.69,1.385-1.469,1.399-.136.003-.272.004-.407.004ZM47.243,125.372c.402,0,.798.162,1.087.466-.003-.192.031-.386.103-.57.025-.063.054-.125.086-.183-.084.033-.168.067-.252.103-.422.174-.9.147-1.301-.073-.099-.055-.19-.106-.292-.16.006.044.01.089.012.134.006.138-.007.275-.038.407.191-.083.394-.123.594-.123ZM45.391,120.694c.151.097.285.221.395.368.132.178.223.381.266.594.171-.526.618-.91,1.151-1.01-.124-.089-.235-.197-.329-.322-.169-.226-.269-.492-.292-.768h-.009c-.135.59-.608,1.028-1.182,1.137Z"/>
    <path class="st0" d="M51.436,149.88c-.038,0-.076-.001-.114-.004l-2.891-.217c-.402-.03-.776-.221-1.036-.53-.26-.309-.384-.71-.345-1.112.162-1.648.669-7.238,1.168-12.932.035-.399.229-.769.537-1.024.31-.255.708-.375,1.106-.337l2.884.289c.817.082,1.417.806,1.345,1.624-.087.997-.329,3.663-.573,6.351-.248,2.727-.498,5.476-.589,6.524-.068.78-.722,1.369-1.493,1.369ZM44.189,149.661c-.107,0-.215-.011-.323-.035l-2.731-.6c-.423-.093-.785-.364-.993-.744s-.243-.83-.094-1.237c.293-.803.501-1.421.658-1.975-.691-.052-1.345-.095-1.972-.13-.397-.022-.77-.201-1.035-.497-.265-.296-.402-.686-.38-1.083.075-1.371.145-2.517.212-3.626l.125-2.096c.005-.086.018-.171.037-.254-.168-.269-.249-.585-.225-.906l.175-2.407c.059-.809.756-1.424,1.563-1.39,1.416.063,3.277.214,4.589.329.422.037.839.079,1.24.119.367.036.722.072,1.055.101.402.035.772.231,1.028.543.256.312.375.713.332,1.114l-.629,5.746s0,.002,0,.003c.195.283.288.626.259.972-.255,3.132-.546,4.519-1.485,7.069-.221.6-.79.982-1.407.982ZM43.769,142.863c.059.086.109.177.149.272.01-.084.021-.171.03-.259-.061-.004-.12-.009-.179-.013Z"/>
    <path class="st0" d="M43.99,166.811c-.095,0-.19-.009-.286-.027-4.052-.784-6.371-3.017-6.892-6.638-.099-.688.288-1.354.934-1.609l.714-.282c-.123-.246-.179-.528-.149-.821l.248-2.418c.027-.262.123-.511.273-.721-.011-.102-.012-.206-.002-.31l.224-2.349c.078-.82.798-1.423,1.625-1.352.389.034.773.063,1.245.097.15-.674.751-1.173,1.464-1.173h.022l2.979.044c.405.006.79.175,1.068.47.22.232.358.527.397.841l.777-.024c.796-.026,1.486.593,1.541,1.397l.159,2.327c.007.101.003.202-.01.301.137.226.212.485.217.754l.038,2.461c.012.803-.61,1.473-1.412,1.521-.174.01-.347.02-.52.028.038.174.077.335.116.482.113.422.036.872-.21,1.232-.246.36-.637.596-1.071.645l-1.428.161c.047.06.091.123.129.189.218.379.26.834.114,1.246l-.89,2.525c-.214.609-.789,1.001-1.414,1.001ZM42.445,159.337c.1.267.234.499.391.702-.052-.218-.102-.449-.151-.688l-.24-.013ZM44.63,156.559c.391.199.686.564.785,1.011.052-.233.16-.452.317-.638.045-.054.094-.104.146-.15-.387-.202-.677-.567-.774-1.01-.058.248-.179.48-.356.672-.037.041-.076.079-.117.115ZM44.391,153.119c.323.224.554.571.625.975.055-.238.167-.461.331-.649.039-.045.081-.087.125-.127-.054-.04-.105-.083-.154-.129-.247-.237-.404-.55-.449-.886-.062.292-.21.562-.43.772-.016.015-.032.03-.048.044Z"/>
    <path class="st0" d="M44.787,182.889c-.197,0-.396-.039-.588-.121-.616-.263-1.182-.522-1.765-.809-.464.246-.952.469-1.474.676-.677.269-1.45.011-1.831-.611l-1.123-1.833c-.226-.368-.282-.815-.154-1.228.033-.107.078-.208.133-.304-.043-.364.049-.733.26-1.035l.08-.115c-.292-.272-.474-.659-.477-1.083l-1.789-.028c-.825-.013-1.484-.689-1.476-1.515l.009-1.019c.011-1.245.021-2.368.043-3.128.025-.827.721-1.487,1.542-1.454l.936.027c-.002-.021-.004-.042-.007-.062-.047-.421.087-.843.368-1.161.065-.074.137-.141.215-.199l-.119-1.034c-.046-.403.073-.809.331-1.123.257-.314.631-.51,1.036-.544l1.529-.128c1.937-.164,3.609-.305,5.445-.405.766-.055,1.444.504,1.564,1.265l.266,1.692,1.975.921c.376.176.663.499.792.894.11.338.097.703-.036,1.029.205.103.386.252.527.439.246.327.348.74.282,1.144-.3,1.839-.536,3.053-.987,4.584-.222.75-.98,1.206-1.75,1.043l-1.7-.36c-.09.25-.194.495-.312.733.3.169.535.438.662.763.153.392.133.831-.053,1.208l-1.01,2.045c-.26.527-.791.836-1.345.836Z"/>
    <path class="st0" d="M43.763,198.718c-.218,0-.438-.048-.647-.147l-2.724-1.305c-.374-.179-.657-.504-.782-.899-.125-.395-.082-.824.12-1.186.563-1.007,1.029-2.226,1.374-3.584-.275-.008-.553-.013-.829-.015-.496-.003-.934-.247-1.205-.619.019,1.11.103,2.215.25,3.42.097.789-.438,1.517-1.22,1.659l-2.884.525c-.404.075-.818-.021-1.15-.261-.331-.24-.55-.606-.605-1.011-.44-3.222-.526-5.161-.329-7.411h0c.101-1.153.256-2.217.477-3.252.165-.772.899-1.285,1.681-1.172l2.874.414c.814.118,1.382.868,1.273,1.684-.028.21-.055.417-.08.621.264-.202.605-.303.924-.309.403.003.874.013,1.469.029-.004-.334-.018-.669-.041-1.009-.028-.408.112-.809.387-1.111s.661-.479,1.069-.49l3.007-.08c.824-.033,1.516.629,1.54,1.457.017.582.025,1.1.026,1.568.15.017.302.035.457.052.4.046.774.252,1.021.57.247.318.365.723.311,1.123l-.361,2.68c-.107.793-.817,1.364-1.618,1.293-.121-.011-.246-.021-.375-.03-.462,2.229-1.174,4.282-2.085,6-.269.506-.788.797-1.326.797ZM43.05,195.212h.003c.064-.152.127-.307.188-.465-.062.158-.125.312-.191.465ZM36.254,186.95c-.052.387-.095.784-.131,1.194h0c-.103,1.178-.12,2.246-.035,3.525-.059-1.525-.004-3.022.166-4.719ZM43.684,188.869c.158.091.3.211.417.356.237.292.354.662.331,1.034.008-.051.017-.102.024-.152.091-.576.501-1.029,1.028-1.197-.481-.268-.795-.792-.769-1.378.006-.14.011-.285.015-.437-.007.149-.015.3-.025.451-.042.624-.46,1.135-1.021,1.323ZM34.629,188.014h.01-.01Z"/>
    <path class="st0" d="M39.758,215.49c-.229,0-.462-.01-.699-.031-2.876-.252-4.894-2.171-4.693-4.465h0c.079-.901.419-1.703.959-2.338-.165-.17-.291-.38-.362-.62l-.307-1.039c-.146-.492-.029-1.025.309-1.411.322-.37.603-.695.863-1.004-.037-.002-.073-.005-.109-.007-.398-.028-.769-.213-1.03-.515s-.392-.695-.362-1.093l.201-2.711c.03-.4.219-.772.524-1.032.306-.26.702-.386,1.103-.351l1.38.12c1.882.165,3.658.347,6.13.628.526.06.981.392,1.198.875.217.482.165,1.043-.139,1.477-.745,1.062-1.292,1.827-1.794,2.516.599.301,1.134.709,1.583,1.213.996,1.118,1.468,2.604,1.33,4.182-.156,1.785-.896,3.265-2.14,4.281-1.07.873-2.423,1.326-3.944,1.326ZM38.768,211.721c.012.11.138.26.226.266.087,0,.272-.07.427-.232l-.652-.034ZM41.767,211.753c0,.04-.002.08-.004.121.014-.011.028-.022.042-.034.059-.048.115-.098.169-.151-.067.026-.136.048-.207.064ZM40.265,211.799h.01-.01ZM38.557,205.994c.171.006.338.017.501.031-.073-.152-.119-.313-.137-.476-.121.149-.241.296-.364.445ZM39.762,202.217c.164.146.296.329.385.538.044.106.076.216.095.327.179-.245.361-.494.552-.758-.354-.038-.697-.073-1.032-.106Z"/>
    <path class="st0" d="M38.504,231.537c-.2,0-.404-.009-.614-.027-2.969-.26-4.367-2.73-4.175-4.922.03-.349.1-.695.208-1.03l-2.21-.494c-.437-.098-.807-.385-1.009-.783-.203-.398-.218-.867-.04-1.277.153-.353.307-.733.459-1.132-.214-.095-.405-.24-.555-.425-.256-.315-.373-.721-.325-1.125l.332-2.754c.097-.803.819-1.377,1.619-1.315.168.015.336.028.504.041.036-.191.07-.388.104-.589.135-.803.889-1.35,1.691-1.236l2.963.422c.411.058.779.284,1.017.624.229.326.317.729.249,1.12.035,0,.071.002.108.003.407.011.791.187,1.066.487.059.064.112.133.158.206.351-.276.824-.394,1.29-.275,1.11.277,2.118.572,4.315,1.261.769.241,1.209,1.047.999,1.824l-.667,2.454c-.109.401-.379.739-.747.933-.367.195-.799.228-1.191.091-.017-.006-.034-.012-.051-.018-.003.128-.008.254-.015.378.666.396,1.269.838,1.681,1.241.553.541.604,1.414.117,2.016l-1.804,2.229c-.259.319-.637.519-1.046.551-.238.02-.467-.018-.68-.104-.917,1.07-2.189,1.626-3.75,1.626ZM40.203,225.328c.173.123.32.282.429.469.145.249.213.531.203.813.161-.14.353-.245.562-.306.161-.047.323-.065.491-.058-.042-.021-.084-.042-.126-.062-.574-.277-.91-.887-.838-1.521,0-.002,0-.005,0-.007-.092.174-.219.33-.374.458-.107.088-.224.159-.348.214ZM37.78,226.455h0ZM38.114,226.218l.791.216c-.029-.039-.061-.075-.095-.107-.099-.093-.217-.152-.325-.161-.137-.011-.264.012-.371.052ZM37.213,222.355c-.019.059-.037.117-.055.174.272-.069.559-.119.861-.145l-.806-.03ZM33.994,219.385c.159.108.297.247.406.412.141.212.223.454.244.701.011-.037.022-.074.033-.11.182-.616.734-1.043,1.367-1.074-.142-.092-.269-.209-.374-.347-.176-.23-.279-.504-.302-.788-.004.019-.009.039-.014.058-.154.647-.712,1.106-1.359,1.148Z"/>
    <path class="st0" d="M39.768,247.618c-.625,0-1.234-.089-1.816-.27-1.165-.362-2.135-1.066-2.832-2.038-.11.059-.223.12-.34.183-.179.341-.381.7-.612,1.086-.412.689-1.292.933-2,.551l-2.761-1.488c-.359-.194-.625-.526-.733-.919-.109-.394-.053-.815.155-1.166,1.233-2.08,3.391-7.55,4.275-10.84.21-.779.996-1.252,1.784-1.073l3.065.702c.396.09.737.337.948.685.21.347.271.764.168,1.157-.262,1.001-.658,2.288-1.102,3.596.152.031.299.086.437.164.401.228.676.626.745,1.083.291,1.935.577,2.506.702,2.671.151-.013.606-.111,1.688-.727.713-.406,1.621-.163,2.036.544l1.431,2.438c.393.669.21,1.527-.42,1.979-1.544,1.105-3.227,1.683-4.817,1.683ZM32.14,243.708l.143.077c.008-.016.016-.032.023-.048.138-.281.359-.512.634-.66l.151-.082c.781-.422,1.397-.756,2.049-1.048.379-.171.815-.176,1.199-.012.176.074.333.181.466.312-.092-.257-.174-.532-.25-.824-.136.066-.282.137-.438.214-.556.272-1.222.175-1.677-.244s-.605-1.076-.379-1.652c.586-1.488,1.211-3.294,1.677-4.822l-.145-.033c-.888,2.86-2.311,6.485-3.455,8.824Z"/>
    <path class="st0" d="M36.805,264.006c-.212,0-.426-.045-.627-.138-2.388-1.101-3.931-3.019-4.235-5.263-.182-1.345.094-2.702.774-3.949-.825-.075-1.666-.162-2.478-.258-.819-.097-1.407-.837-1.315-1.657l.328-2.917c.044-.396.244-.757.555-1.005.311-.249.706-.364,1.104-.318,3.817.43,6.971.712,9.122.817.646.031,1.2.473,1.373,1.097l.55,1.981c.168.605-.059,1.251-.569,1.618-3.447,2.482-3.444,3.517-3.432,3.627.006.054.101.544,1.656,1.224.451.197.777.603.872,1.086s-.054.982-.397,1.334l-2.204,2.266c-.289.297-.679.454-1.076.454ZM35.032,256.853c-.135.451-.177.906-.117,1.351.128.947.693,1.787,1.618,2.43l.049-.051c-.769-.592-1.486-1.443-1.612-2.624-.039-.367-.02-.734.061-1.106ZM36.46,252.075c.308.179.55.467.668.819.074.221.094.45.065.671.445-.424.959-.863,1.545-1.317-.727-.047-1.496-.107-2.278-.174Z"/>
    <path class="st0" d="M39.559,271.165c-.132,0-.265-.018-.395-.053-.417-.114-.764-.402-.953-.79-.221-.452-1.812-2.627-2.333-3.188-.272-.294-.416-.685-.399-1.085s.194-.777.491-1.047l1.963-1.78c.607-.552,1.546-.512,2.106.089.411.442,2.603,2.994,3.092,4.457.215.644-.029,1.352-.595,1.727l-2.149,1.422c-.248.164-.536.249-.828.249Z"/>
    <path class="st0" d="M34.811,16.885c-.444,0-.879-.197-1.172-.563l-1.486-1.857-.138.161c-.264.308-.642.496-1.047.52-.256.02-.516-.036-.747-.148-.028.032-.057.065-.086.098-.533.603-1.446.677-2.07.169l-1.941-1.579c-.324-.264-.523-.65-.55-1.066-.027-.417.121-.826.408-1.129.091-.096.179-.19.264-.282-.32-.326-.623-.641-.913-.945-.354-.371-.493-.897-.37-1.395.117-.473.245-1.005.377-1.568-.11-.068-.212-.15-.303-.245-.285-.301-.437-.706-.413-1.12l.143-2.464c.046-.799.685-1.394,1.513-1.413.093,0,.187.003.281.005l.214-.929c.185-.8.981-1.304,1.779-1.128l2.377.516c.397.086.743.33.957.676.214.346.279.764.179,1.158-.004.017-.008.033-.013.05.097.006.193.012.287.018.004,0,.007,0,.011,0,.119-.144.264-.265.43-.357.369-.204.806-.243,1.205-.109l.758.255c.025-.297.051-.593.077-.887.035-.396.225-.763.53-1.018.305-.256.699-.383,1.095-.345l2.385.209c.399.035.769.229,1.024.537.256.309.377.707.338,1.106-.009.089-.018.179-.027.267l.162-.056c.764-.268,1.601.12,1.893.874.467,1.204.804,2.101,1.225,3.556.215.745-.173,1.531-.895,1.813l-.277.108c.581.493.702,1.346.274,1.982-2.094,3.108-3.738,4.592-7.034,6.352-.223.119-.465.177-.705.177ZM29.701,10.604c.095.255.119.531.069.797.066-.013.134-.021.202-.025.056-.003.113-.003.168,0-.092-.258-.112-.538-.057-.807-.051.011-.103.02-.156.026-.077.009-.152.011-.227.009ZM33.484,10.611c.008.007.017.015.024.022.163.146.286.319.369.507.528-.313.988-.622,1.402-.945-.443-.134-.794-.465-.961-.885-.024,0-.049-.003-.074-.006-.005.009-.01.019-.015.027-.265.464-.51.885-.746,1.279ZM28.24,5.03c.044.045.085.093.123.143.032.042.062.087.089.132.173-.217.403-.383.665-.478-.052-.052-.1-.109-.144-.169-.023-.032-.045-.064-.065-.098-.174.215-.406.378-.668.47Z"/>
    <path class="st0" d="M32.419,32.61c-.2,0-.404-.009-.614-.027-2.969-.26-4.367-2.73-4.175-4.922.03-.349.1-.695.208-1.031l-2.211-.494c-.437-.098-.807-.385-1.01-.784-.203-.399-.217-.868-.039-1.278.153-.353.308-.733.459-1.131-.213-.095-.404-.24-.555-.425-.256-.315-.373-.721-.325-1.125l.331-2.754c.097-.804.806-1.388,1.621-1.315.167.015.334.028.502.041.036-.193.07-.39.104-.588.135-.804.889-1.352,1.691-1.237l2.963.422c.411.059.779.285,1.018.625.228.326.317.729.249,1.119.035,0,.071.002.108.003.407.011.792.187,1.066.487.059.064.112.133.158.206.353-.275.821-.391,1.29-.275,1.107.277,2.116.571,4.316,1.262.769.241,1.209,1.047.998,1.825l-.667,2.454c-.109.401-.379.738-.746.933-.367.194-.797.227-1.191.092-.017-.006-.034-.012-.052-.018-.003.128-.008.254-.015.378.666.396,1.27.838,1.681,1.241.553.541.604,1.415.117,2.016l-1.804,2.229c-.259.32-.638.52-1.049.552-.232.017-.465-.019-.678-.104-.918,1.071-2.19,1.626-3.75,1.626ZM34.117,26.4c.173.123.32.282.429.469.145.249.214.531.203.814.16-.139.351-.244.559-.305.163-.047.335-.068.495-.059-.042-.022-.085-.043-.129-.064-.574-.278-.909-.888-.836-1.521,0-.001,0-.003,0-.005-.092.173-.218.33-.374.457-.107.087-.224.159-.348.214ZM31.695,27.528h0ZM32.026,27.291l.793.216c-.029-.039-.061-.075-.096-.108-.099-.093-.217-.152-.324-.161-.138-.013-.265.012-.374.053ZM31.129,23.426c-.019.06-.037.118-.056.176.275-.07.564-.12.869-.146l-.813-.03ZM27.91,20.458c.158.108.295.246.403.409.141.212.224.455.245.703.011-.037.021-.073.033-.11.182-.616.733-1.043,1.365-1.073-.141-.092-.268-.209-.372-.346-.176-.231-.28-.505-.303-.789-.004.019-.009.038-.013.057-.154.647-.712,1.107-1.358,1.15Z"/>
    <path class="st0" d="M26.984,48.688c-.77,0-1.416-.584-1.492-1.352-.101-1.021-.196-2.82-.259-4.846-.318.024-.638-.07-.907-.25-.342-.229-.576-.587-.646-.993l-.492-2.845c-.129-.747.319-1.473,1.045-1.691.291-.088.587-.167.899-.243.012-1.065.036-1.953.071-2.647.04-.792.689-1.417,1.482-1.425l2.949-.03c.453.004.796.157,1.082.445.23.232.376.531.42.85.008-.029.016-.058.023-.085.219-.781,1.02-1.245,1.806-1.052l2.707.671c.42.104.775.385.974.771.198.385.219.837.059,1.24-.187.47-.389,1.066-.562,1.651,1.491.924,2.363,2.329,2.492,4.059.02.359.014.682-.016,1.018-.264,3.021-2.503,4.968-5.992,5.211-.483.033-.929-.163-1.231-.506.01.143.02.269.03.375.04.418-.097.834-.378,1.146-.281.312-.679.493-1.099.497l-2.949.031h-.017ZM26.75,39.175c.315.013.622.126.874.327.348.278.554.696.562,1.141.023,1.159.06,2.311.103,3.34-.027-1-.053-2.231-.081-3.742-.014-.782.575-1.443,1.354-1.52.039-.004.078-.008.117-.011-.374-.011-.747-.137-1.028-.395-.305-.28-.481-.674-.486-1.088l-.004-.35c-.005-.458-.011-.908-.014-1.33-.013.624-.021,1.333-.023,2.124-.002.703-.492,1.31-1.179,1.46-.067.015-.132.029-.195.043ZM32.06,38.674c1.107.103,1.909.409,2.49.935.57.517.873,1.208.875,2.001.013,1.045-.466,1.676-1.142,2.09.814-.411,1.266-1.089,1.348-2.028.017-.196.02-.38.01-.565-.044-.589-.28-1.478-1.789-2.044-.415-.155-.723-.477-.873-.865-.237.259-.561.432-.919.477Z"/>
    <path class="st0" d="M28.44,63.65c-.632,0-1.214-.402-1.422-1.027l-.959-2.885c-.126-.378-.096-.792.083-1.147.179-.356.493-.626.872-.751,2.079-.682,3.049-1.099,3.482-1.351-.47-.229-1.917-.44-6.351.039-.41.045-.826-.083-1.141-.355-.314-.271-.502-.662-.519-1.077l-.118-2.992c-.029-.755.507-1.415,1.252-1.539,2.473-.412,4.56-.535,6.374-.376,6.237.545,6.914,4.422,6.915,6.063.003.237-.008.364-.019.492-.197,2.25-1.758,5.265-8.082,6.861-.123.031-.247.046-.368.046ZM29.378,60.213l.031.093c1.07-.357,2.24-.867,3.118-1.568-.768.583-1.871,1.033-3.149,1.475ZM28.398,53.224c2.939,0,4.949.661,5.25,3.006.108.823-.111,1.469-.577,2.006.462-.5.771-1.082.831-1.753.004-.051.009-.104.007-.209,0-.69-.002-2.731-4.177-3.097-1.223-.105-2.67-.055-4.313.154l.002.053c1.066-.097,2.066-.16,2.978-.16Z"/>
    <path class="st0" d="M33.265,80.331c-.478,0-1.018-.026-1.618-.079-1.466-.128-2.932-.389-3.824-.681-.716-.234-1.148-.963-1.008-1.704l.506-2.686c.065-.348.251-.659.522-.881-.149-.236-.23-.51-.232-.794l-.011-2.479c-.101-.003-.202-.007-.302-.01-.584,2.647-1.225,5.686-1.359,6.523-.065.405-.292.765-.63.998-.337.233-.755.317-1.156.234l-2.858-.594c-.791-.165-1.309-.925-1.173-1.721.122-.713.563-2.94,1.101-5.527-.404-.005-.789-.174-1.068-.467-.285-.3-.433-.704-.41-1.116l.156-2.806c.044-.791.695-1.411,1.487-1.417l.489-.004c.213-.001.414-.003.604-.004.148-.654.235-1.031.293-1.271.19-.79.976-1.286,1.768-1.116l2.928.618c.397.084.743.325.959.669.216.343.284.76.188,1.154-.009.038-.018.075-.027.112.252.019.523.041.817.067.396.034.763.225,1.019.53.256.305.38.699.345,1.095l-.198,2.267c.374.007.755.02,1.135.039-.208-.265-.323-.594-.321-.935.002-.432.004-1.278.002-2.285,0-.398.157-.78.438-1.062s.662-.441,1.06-.441l1.627-.003c.197.031.337.028.491.081.114-.028.232-.042.354-.043l1.591-.005h.004c.81,0,1.474.643,1.5,1.453.014.465.023,1.429.016,2.356-.007.817-.666,1.479-1.483,1.488l-1.646.019c-.034,0-.064,0-.096-.002.341.305.537.761.494,1.249l-.239,2.727c-.026.305-.146.593-.339.826.101.054.196.119.283.195.327.285.514.697.513,1.13l-.002,2.711c0,.712-.501,1.325-1.199,1.468-.396.082-.895.122-1.491.122ZM23.773,68.123c.174.093.331.221.458.378.226.278.342.624.335.976.023-.104.047-.208.07-.31.145-.647.696-1.117,1.348-1.167-.165-.093-.312-.218-.433-.37-.245-.307-.358-.695-.321-1.081l-.093.41c-.148.652-.708,1.121-1.364,1.164Z"/>
    <path class="st0" d="M28.848,96.451c-.548,0-1.052-.021-1.522-.062-6.238-.546-6.569-4.522-6.421-6.206h0c.083-.95.41-1.857,1.019-2.812-.421-1.705-.683-3.934-.642-5.592.019-.76.603-1.386,1.36-1.457l2.897-.271c.42-.041.833.099,1.145.38.312.281.491.68.495,1.099.004.43.017.882.036,1.324.56-.307,1.124-.585,1.665-.818.387-.167.826-.164,1.209.009.384.172.678.498.81.897l.972,2.94c.248.75-.129,1.564-.861,1.861-1.993.808-3.386,1.97-3.788,2.551.383.089,1.223.185,3.05.149.453-.014.837.166,1.128.479s.434.735.394,1.161l-.279,2.976c-.07.744-.676,1.323-1.422,1.359-.439.021-.853.031-1.243.031ZM23.892,90.445c-.074.848-.228,2.612,3.694,2.956.329.029.682.045,1.064.049v-.008c-1.861-.056-3.083-.333-3.84-1.143-.52-.557-.745-1.283-.668-2.157.105-1.206,1.177-2.427,2.583-3.445-.417.269-.94.315-1.399.118-.215-.092-.402-.231-.55-.403.066.287.137.556.211.802.139.456.052.951-.233,1.333-.538.722-.812,1.325-.863,1.898h0ZM28.589,85.522c-.49.271-.977.568-1.432.876.461-.306.948-.59,1.442-.845l-.01-.032Z"/>
    <path class="st0" d="M27.928,113.286c-.385,0-.744-.015-1.083-.045-2.729-.239-4.219-1.434-5.146-2.931-.123.282-.239.561-.351.84-.308.765-1.173,1.14-1.942.836l-2.184-.86c-.378-.149-.68-.445-.836-.821s-.152-.798.01-1.171c.558-1.286,1.148-2.524,1.653-3.565.135-.278.345-.497.595-.642v-.011c.026-2.483.103-4.874.239-7.523.021-.407.207-.787.514-1.055.307-.267.71-.398,1.115-.362l.826.072c2.971.26,7.074.583,9.834.788.408.031.785.226,1.045.541.26.315.38.723.333,1.129-.12,1.029-.441,3.54-.785,5.908.506.097.946.452,1.13.968.216.603.521,1.496.746,2.325.207.759-.208,1.548-.95,1.809l-1.277.448.154,1.542c.082.821-.515,1.555-1.335,1.641-.875.092-1.629.138-2.303.138Z"/>
    <path class="st0" d="M25.417,124.656c-.575,0-1.115-.333-1.364-.877l-1.092-2.392c-.178-.389-.181-.836-.008-1.228.172-.392.504-.691.912-.822l.134-.043c.337-.109.699-.226,1.048-.343-.692-.014-1.655.021-2.978.166-.399.044-.807-.077-1.12-.336-.312-.259-.506-.634-.538-1.039l-.204-2.621c-.062-.789.501-1.49,1.285-1.602,1.838-.26,3.51-.329,4.966-.2,5.736.502,6.284,3.975,6.315,5.027.01.116.001.301-.017.515-.161,1.833-1.499,4.315-6.96,5.746-.126.033-.254.049-.38.049ZM28.716,116.952s.008.007.011.01c.531.473.826,1.121.831,1.824,0,.199-.019.383-.06.555.157-.241.248-.489.27-.739l.009-.124c-.022-.715-.463-1.199-1.062-1.526Z"/>
    <path class="st0" d="M23.989,142.005c-.212,0-.426-.045-.627-.138-2.387-1.101-3.93-3.018-4.234-5.261-.182-1.346.093-2.703.774-3.95-.823-.075-1.664-.162-2.478-.258-.819-.097-1.407-.837-1.315-1.657l.328-2.917c.044-.396.244-.757.555-1.005s.705-.364,1.104-.318c3.803.429,6.958.711,9.124.817.646.031,1.2.474,1.372,1.098l.549,1.982c.168.605-.059,1.251-.569,1.618-3.447,2.481-3.444,3.516-3.433,3.626.021.195.393.672,1.656,1.224.451.197.777.603.872,1.086s-.054.982-.397,1.334l-2.204,2.266c-.289.297-.679.454-1.076.454ZM22.215,134.861c-.134.448-.174.901-.114,1.342.128.947.693,1.787,1.617,2.43l.049-.051c-.769-.592-1.486-1.443-1.612-2.624-.039-.364-.02-.729.06-1.098ZM23.644,130.074c.308.179.55.466.668.819.074.221.095.451.065.672.445-.424.96-.862,1.546-1.317-.729-.047-1.498-.107-2.28-.173Z"/>
    <path class="st0" d="M26.427,158.513c-.478,0-1.019-.026-1.621-.079-1.466-.128-2.931-.389-3.824-.681-.716-.234-1.148-.963-1.008-1.704l.506-2.685c.065-.348.252-.66.522-.882-.149-.236-.23-.511-.232-.794l-.011-2.479c-.102-.003-.202-.007-.302-.01-.584,2.65-1.225,5.689-1.358,6.523-.065.405-.292.765-.63.998-.336.232-.754.317-1.156.234l-2.858-.594c-.791-.165-1.309-.925-1.173-1.721.122-.713.563-2.94,1.101-5.527-.404-.005-.789-.174-1.068-.467-.284-.3-.433-.703-.41-1.116l.155-2.806c.043-.791.695-1.411,1.487-1.417l.475-.004c.219-.001.424-.003.618-.004.149-.654.235-1.031.293-1.271.191-.789.974-1.281,1.768-1.115l2.928.617c.397.084.744.325.96.669s.284.761.188,1.155c-.009.037-.018.074-.027.111.253.019.524.042.819.067.825.072,1.435.8,1.363,1.625l-.198,2.266c1.362.025,2.835.133,3.897.297.782.12,1.335.826,1.267,1.613l-.238,2.726c-.026.305-.146.593-.339.826.101.054.195.119.283.195.327.285.514.697.513,1.13l-.002,2.711c0,.711-.5,1.324-1.196,1.468-.396.082-.894.123-1.491.123ZM16.935,146.305c.174.093.33.221.458.377.225.277.341.623.334.974.023-.104.046-.207.069-.308.145-.647.696-1.117,1.349-1.167-.165-.093-.312-.218-.433-.37-.245-.306-.358-.694-.321-1.079l-.093.41c-.148.651-.707,1.12-1.363,1.163Z"/>
    <path class="st0" d="M25.225,166.255c-.137,0-.275-.006-.414-.019-2.685-.235-4.478-2.18-4.264-4.625h0c.191-2.185,2.068-4.398,4.761-4.162,2.538.222,4.355,2.344,4.138,4.832-.097,1.106-.572,2.118-1.339,2.849-.77.733-1.781,1.125-2.882,1.125ZM24.68,162.061c.051.069.196.188.405.206.07.007.204,0,.255-.062.057-.069.118-.251.054-.467-.026-.097-.203-.287-.433-.307-.08-.009-.108,0-.164.07-.113.139-.158.362-.117.559ZM24.692,162.109s0,0,0,.002h0s0-.001,0-.002Z"/>
  </g>
  <g>
    <path class="st1" d="M52.23,4.799l2.96.259c.445-.955,1.078-2.201,1.401-3.004l2.487.904c-.335.729-.754,1.597-1.086,2.291,1.668.146,3.316.308,4.696.446-.176,1.811-.913,9.192-1.13,11.271l-10.117-.885c.175-2.823.669-9.503.788-11.282ZM58.82,14.177c.045-.303.075-.644.103-.967-1.235-.126-3.011-.281-4.323-.378-.03.341-.04.666-.068.988,1.524.133,2.888.252,4.288.356ZM59.103,11.564c.045-.304.071-.608.115-.894-1.255-.128-3.084-.288-4.431-.388-.025.287-.052.592-.061.898l4.377.383ZM59.379,9.021c.052-.393.083-.751.11-1.057-1.416-.142-2.78-.243-4.508-.322l-.086.987,4.483.392Z"/>
    <path class="st1" d="M48.298,23.301c1.311-.934,3.805-3.209,4.756-4.373l2.015,1.966c-.91.896-3.495,3.381-4.772,4.354l-1.999-1.947ZM55.283,32.497c1.076-1.551,1.706-3.176,1.957-4.6-.501-.062-1.001-.124-1.504-.168-.81,2.025-1.617,3.4-2.664,4.828l-2.325-1.107c.877-1.152,1.682-2.492,2.222-3.908-.757-.03-1.461-.038-2.076-.038l.18-2.677c2.346.043,6.847.454,9.371.729-.058,2.525-.988,5.716-2.714,8.294l-2.448-1.354ZM57.211,21.207l2.216-1.776c.932,1.329,2.788,3.461,4.073,4.677l-2.15,1.854c-1.135-.876-3.258-3.466-4.139-4.754Z"/>
    <path class="st1" d="M52.584,47.856c1.882-3.125,2.31-5.329.967-5.682-.194-.053-.462-.095-.729-.136-1.392,3.096-2.571,5.83-2.711,6.197l-2.418-1.079c.081-.301.719-1.817,2.259-5.369-.993-.015-1.57-.029-1.861,0l.122-2.846c.689-.029,1.699.004,2.938.095.404-.904.948-2.158,1.238-2.783l2.522,1.124c-.091.209-.425.938-.875,1.947.66.095,1.266.201,1.725.332,2.628.735,2.184,5.613-.888,9.736l-2.288-1.537ZM57.712,38.832l2.569-.858c.468.854,1.428,3.722,1.605,4.785l-2.46.851c-.328-1.004-1.098-3.367-1.715-4.777Z"/>
    <path class="st1" d="M49.695,63.521c6.355-.746,4.983-3.451-1.325-2.411.057-1.478.18-4.124.265-5.508l2.923.256c-.055.627-.082,1.348-.11,2.502,3.594-.173,5.868,1.309,5.661,3.677-.223,2.547-2.196,3.82-6.571,4.251l-.842-2.767ZM51.037,53.968l1.473-2.167c.719.461,2.244,1.209,3.744,1.828l-1.345,2.358c-1.044-.453-2.79-1.364-3.872-2.02Z"/>
    <path class="st1" d="M46.563,78.46l-2.424.022.009-2.584c.706-.01,1.632-.056,2.592-.08.069-.789.122-1.598.191-2.387-.361-.014-.684-.042-.989-.068-.059.266-.136.53-.215.812l-2.149-.641c.357-1.396.864-3.268,1.103-4.133l2.158.532c-.083.336-.182.635-.244.937.179.016.36.014.539.029.061-.898.131-1.706.185-2.315l2.441.195c-.067.555-.138,1.362-.201,2.296.396.017.79.052,1.185.086l-.147,2.518c-.378-.015-.809-.053-1.241-.072-.042.683-.104,1.4-.149,2.119l1.504-.049.104,2.54c-.529.062-1.13.117-1.785.15l-.209,3.434-2.464-.143c.034-.811.114-1.924.208-3.199ZM50.811,74.114c.614-1.646,1.671-4.228,2.287-5.692l2.481.977-.664,1.604c1.492.095,3.183.188,4.494.284l-.273,2.706c-1.544-.117-3.646-.265-5.317-.375-.23.559-.436,1.046-.576,1.414l-2.432-.918ZM51.78,81.013c.573-.564,1.112-1.149,1.598-1.74-.567-.537-1.133-1.093-1.661-1.681l1.887-1.733c.414.434.846.869,1.28,1.27.49-.843.911-1.729,1.287-2.726l2.481.976c-.488,1.241-1.058,2.384-1.729,3.446.559.428,1.123.804,1.653,1.139l-1.471,2.148c-.601-.36-1.181-.754-1.739-1.183-.523.605-1.081,1.189-1.67,1.733l-1.916-1.649Z"/>
    <path class="st1" d="M42.008,92.714c.509-.027,1.071-.051,1.653-.09.063-.717.12-1.58.197-2.459-.7-.062-1.293-.095-1.634-.125l.184-2.514c.54.029,1.115.062,1.671.11.054-.61.119-1.146.155-1.56l2.56.278-.127,1.452c.538.048,1.095.078,1.616.124l-.148,2.518c-.504-.026-1.097-.06-1.688-.111l-.187,2.134c.492-.047.984-.095,1.424-.164l.175,2.546c-1.867.27-3.903.399-5.787.451l-.063-2.591ZM53.473,99.05c.929-1.527,1.129-2.161,1.289-3.159l-.484-.042c-.443,1.353-.812,2.062-1.659,3.47l-1.382-.735c.787-1.143,1.104-1.675,1.48-2.871l-.43-.038c-.419,1.066-.923,1.872-1.832,2.967l-1.379-.771c.882-.989,1.253-1.517,1.614-2.335l-.466-.041c-.252.395-.557.783-.904,1.241l-1.794-.971c.667-.809,1.27-1.715,1.693-2.617l-.682-.06.179-2.045c2.547.223,6.708.587,8.916.762l-.127,2.068-6.08-.532-.267.573c1.973.172,4.375.4,6.04.582-.313,2.54-.392,3.237-1.691,5.491l-2.033-.937ZM49.816,84.451c2.71.219,3.858.319,4.701.393l1.345.118c.449.039.917.062,1.401.104-.148,1.487-.503,4.926-.646,6.144l-7.157-.627c.09-1.239.302-5.106.355-6.132ZM54.279,89.216c.037-.214.057-.447.094-.661-.698-.079-1.453-.127-2.278-.199-.021.233-.039.448-.04.665l2.224.195ZM54.502,87.5c.021-.233.038-.431.073-.627-.824-.09-1.453-.127-2.373-.152l-.05.573,2.35.206Z"/>
    <path class="st1" d="M42.175,112.081c1.534.026,2.977.062,4.434.136l.127-1.453-2.544-.042.118-2.375c1.011.016,1.859.035,2.632.067l.151-1.722c-1.027-.036-2.125-.078-3.443-.103l.149-2.734c3.965.13,5.549.196,10.092.54l-.242,2.762c-1.435-.125-2.583-.226-3.643-.301l-.147,1.687,2.767.188-.21,2.403c-1.041-.091-1.938-.17-2.764-.224l-.13,1.489c1.418.105,2.907.236,4.539.379l-.242,2.763c-4.156-.419-7.857-.67-11.793-.725l.149-2.735ZM47.255,101.121l2.517-.467c.251,1.053.428,1.719.587,2.582l-2.52.503-.584-2.618Z"/>
    <path class="st1" d="M42.956,128.574c-.006-1.175.768-2.373,2.233-3.419-.327-.191-.692-.35-1.147-.517.22-1.064.384-1.918.542-2.682-.682-.06-1.415-.142-2.257-.233l.364-2.716c.808.07,1.615.142,2.421.212.097-.479.192-.94.265-1.368l2.942.456c-.085.354-.153.728-.242,1.118.755.048,1.494.076,2.233.086l-.162,2.68c-.777.004-1.697-.022-2.669-.071-.115.496-.21.958-.303,1.401.208.108.362.194.518.28.9-.373,1.737-.643,2.587-.858l.456,2.644c-.294.063-.591.146-.906.228.334.518.556.88.743,1.222l-2.24,1.431c-.345-.609-.713-1.146-1.089-1.595-.928.479-1.48,1.009-1.5,1.44-.035.811,1.544,1.147,4.552,1.066l-.18,2.678c-.688.013-1.337-.009-1.947-.062-3.336-.292-5.199-1.521-5.213-3.421Z"/>
    <path class="st1" d="M41.457,147.562c.57-1.56.875-2.562,1.078-3.846-1.364-.119-2.585-.209-3.718-.271.123-2.23.23-3.866.337-5.718,1.006.069,3.054.212,3.862.283l.152-1.125c-1.396-.159-2.78-.243-4.204-.296l.175-2.407c1.242.056,2.93.185,4.526.324.808.071,1.595.158,2.294.22l-.629,5.746c-1.812-.158-3.175-.277-4.145-.345-.028.323-.042.684-.072,1.024.771.067,2.424.194,4.472.337-.243,2.979-.496,4.222-1.397,6.673l-2.731-.6ZM49.713,135.216l2.884.289c-.176,2.009-.98,10.794-1.163,12.875l-2.891-.217c.17-1.738.697-7.549,1.169-12.947Z"/>
    <path class="st1" d="M38.296,159.932l2.508-.991c.295,1.996,1.799,3.41,4.074,3.845l-.89,2.525c-3.412-.66-5.266-2.413-5.692-5.379ZM43.951,157.897c-1.389-.031-2.771-.134-4.148-.31l.248-2.418c1.235.145,2.42.23,3.592.261-.041-.365-.083-.713-.104-1.076-1.098-.06-2.157-.134-3.216-.227l.224-2.349c.753.066,1.49.112,2.854.214-.02-.599-.024-.96-.014-1.284l2.979.044c-.017.396-.02.848-.01,1.354.652-.015,1.396-.04,2.319-.067l.159,2.327c-.835.035-1.614.058-2.355.064.043.33.067.676.091,1.021.779-.022,1.596-.059,2.468-.109l.038,2.461c-.745.044-1.47.07-2.196.097.121.897.268,1.687.431,2.298l-2.792.315c-.198-.632-.405-1.571-.567-2.615Z"/>
    <path class="st1" d="M36.136,170.781l1.533.044c.378.015.739.028,1.099.041-.047-.491-.108-1.238-.169-1.786l2.044-.02c.046.51.046,1.125.056,1.849h-1.013c.846.04,1.745.101,2.695.184-.08-.532-.162-1.244-.258-1.794l2.164-.154c.079.549.08,1.362.137,1.945l-1.217.075c1.186.085,2.386.208,3.552.311l-.862-.474c.419-.668.663-1.171,1.139-2.068l2.049.956c-.322.586-.543,1.055-.946,1.725.573.068,1.128.117,1.665.181-.312,1.907-.535,3.009-.945,4.401l-2.484-.525c.161-.601.314-1.111.474-1.693-2.455-.251-5.248-.55-8.186-.645-.018.414-.046.937-.05,1.604l-2.527-.04c.016-1.625.023-3.161.052-4.116ZM39.062,166.681c2.548-.211,4.645-.406,6.933-.531l.348,2.217c-2.443.238-4.383.303-7.014.634l-.267-2.319ZM39.286,179.407c.338-.151.582-.257.942-.442-.258-.149-.497-.314-.753-.481l1.239-1.771c.51.37,1.007.686,1.524.965.314-.28.575-.582.787-.943-1.164-.12-2.294-.219-3.677-.321l.12-2.194c2.21.157,4.272.338,6.332.554-.044,1.551-.536,2.827-1.519,3.934.488.205.975.429,1.517.639l-1.01,2.045c-.854-.364-1.6-.719-2.396-1.132-.592.364-1.235.688-1.983.983l-1.123-1.833Z"/>
    <path class="st1" d="M34.629,188.014c.091-1.041.234-2.059.45-3.07l2.874.414c-.473,3.537-.509,6.028-.119,9.208l-2.884.525c-.43-3.147-.508-4.942-.321-7.077ZM41.041,195.912c.857-1.533,1.517-3.5,1.895-5.744-.828-.037-1.746-.081-2.649-.087l-.016-2.713c.686.006,1.57.028,2.939.077.058-.863.061-1.73-.002-2.658l3.007-.08c.031,1.087.039,2.046,0,2.892.576.033,1.184.104,1.828.178l-.361,2.68c-.521-.046-1.114-.079-1.743-.116-.407,2.586-1.157,4.96-2.174,6.877l-2.724-1.305Z"/>
    <path class="st1" d="M35.86,211.125c.253-2.889,4.379-3.358,5.567-.833.068-.156.104-.37.128-.639.15-1.723-1.771-2.487-5.154-2.042l-.307-1.039c1.084-1.242,1.713-2.019,2.669-3.236-.859-.094-1.953-.189-2.941-.258l.201-2.711c.466.041.933.081,1.381.12,1.65.145,3.334.311,6.09.624-1.384,1.975-2.08,2.909-3.084,4.267,2.452.07,4.149,1.953,3.937,4.375-.245,2.798-2.288,4.463-5.158,4.212-2.027-.178-3.456-1.405-3.33-2.84ZM40.265,211.799c.078-1.511-1.919-1.613-2.06-.83-.065.536.288.838.787.918.463.077.952.065,1.272-.088Z"/>
    <path class="st1" d="M32.04,223.601c.385-.888.763-1.903,1.109-2.976-.52-.046-1.004-.088-1.417-.124l.332-2.754c.61.053,1.221.089,1.831.142.144-.602.273-1.259.387-1.937l2.963.422c-.123.586-.261,1.134-.382,1.684.503.026,1.025.054,1.927.078l-.169,2.77c-.685-.024-1.405-.052-2.504-.093-.411,1.392-.803,2.568-1.15,3.441l-2.925-.653ZM38.973,223.882c.358.031.448.04.626.073.005-.47-.001-1.013-.012-1.52l2.918.111c.016.851-.016,1.625-.091,2.287.867.419,1.738,1.001,2.204,1.457l-1.804,2.229c-.268-.24-.657-.546-.998-.774-.046.104-.092.228-.136.313-.725,1.473-1.919,2.109-3.66,1.957-4.071-.356-3.729-6.543.953-6.134ZM39.336,226.552c-.318-.081-.532-.118-.729-.135-.626-.073-.986.111-1.022.524-.032.358.302.677.769.718.448.039.77-.33.982-1.107ZM40.313,220.962l.667-2.453c1.114.278,2.154.586,4.229,1.237l-.667,2.454c-.842-.291-2.182-.679-4.23-1.238Z"/>
    <path class="st1" d="M30.118,244.322c1.315-2.217,3.522-7.825,4.434-11.216l3.065.702c-.435,1.661-1.298,4.296-2.158,6.48,1.096-.537,1.699-.827,2.206-1.036.628,4.176,1.534,4.779,4.616,3.024l1.431,2.438c-3.239,2.319-6.836,1.697-7.957-1.4-.64.287-1.267.63-2.101,1.081-.22.45-.478.916-.775,1.414l-2.761-1.488Z"/>
    <path class="st1" d="M35.706,253.372c-1.565-.083-3.502-.252-5.291-.463l.328-2.917c3.562.401,6.896.712,9.217.824l.55,1.981c-4.88,3.514-5.33,5.77-1.5,7.442l-2.204,2.266c-4.066-1.875-4.592-6.186-1.099-9.134Z"/>
    <path class="st1" d="M36.978,266.114l1.963-1.78c.677.728,2.438,2.924,2.767,3.91l-2.149,1.422c-.322-.661-2.053-2.982-2.581-3.552Z"/>
    <path class="st1" d="M27.071,12.522c.459-.484.859-.938,1.225-1.394-.7-.676-1.313-1.309-1.876-1.899.224-.902.484-2.019.746-3.152-.486-.024-.863-.057-1.044-.055l.143-2.464c.47.005.956.029,1.478.057l.495-2.144,2.377.516c-.139.548-.281,1.15-.428,1.788.717.062,1.419.105,2.066.145l-.163,2.48c-.395-.035-1.382-.104-2.462-.162-.171.726-.345,1.47-.499,2.198.214.235.412.451.628.669.358-.583.701-1.186,1.065-1.841l2.107,1.323c-.512.896-.937,1.617-1.375,2.283.301.279.618.578.953.879l-1.63,1.899c-.284-.26-.551-.518-.817-.775-.304.37-.646.774-1.047,1.228l-1.941-1.579ZM32.261,7.119c.529-1.292.993-2.679,1.249-3.741l2.107.709c-.308,1.256-.664,2.437-1.211,3.726l-2.144-.693ZM33.115,13.267c3.16-1.621,4.514-2.84,6.129-5.393l2.061,1.645c-2.036,3.021-3.557,4.298-6.496,5.866l-1.695-2.118ZM36.317,1.455l2.385.209c-.288,2.885-.469,4.947-.603,7.304l-2.386-.209c.172-2.172.383-4.793.603-7.304ZM38.755,4.162l2.069-.723c.458,1.18.78,2.038,1.182,3.43l-2.04.797c-.35-1.368-.776-2.489-1.211-3.504Z"/>
    <path class="st1" d="M25.954,24.672c.385-.887.764-1.902,1.11-2.976-.521-.045-1.004-.088-1.417-.124l.331-2.754c.61.054,1.222.089,1.831.143.143-.603.273-1.26.386-1.937l2.963.422c-.124.585-.262,1.134-.382,1.684.503.026,1.025.054,1.927.078l-.17,2.769c-.685-.023-1.405-.051-2.504-.093-.411,1.393-.804,2.569-1.151,3.441l-2.925-.653ZM32.888,24.954c.358.031.449.039.626.072.005-.469-.001-1.012-.012-1.519l2.919.11c.016.851-.016,1.625-.092,2.287.867.42,1.738,1.002,2.205,1.458l-1.804,2.229c-.268-.241-.657-.546-.998-.774-.045.104-.092.227-.136.313-.725,1.473-1.919,2.109-3.659,1.957-4.072-.356-3.729-6.543.952-6.134ZM33.251,27.624c-.318-.081-.532-.118-.729-.136-.626-.073-.986.112-1.022.525-.032.358.302.677.769.718.448.039.77-.33.982-1.107ZM34.228,22.034l.667-2.453c1.115.278,2.154.586,4.23,1.237l-.667,2.454c-.842-.291-2.181-.679-4.229-1.238Z"/>
    <path class="st1" d="M26.687,40.673c-.497.102-1.012.201-1.529.318l-.492-2.845c.557-.168,1.129-.299,1.958-.48.005-1.499.028-2.798.077-3.771l2.949-.03c-.017.812,0,2.06.015,3.345.782-.059,1.523-.065,2.207-.024.314-1.526.575-2.643.732-3.207l2.707.671c-.348.873-.727,2.105-.932,3.009,1.697.637,2.644,1.804,2.76,3.368.014.255.01.507-.014.776-.194,2.225-1.837,3.652-4.602,3.845l-.873-2.625c1.881-.432,2.283-.686,2.274-1.409-.002-1.211-1.39-1.677-4.215-1.399.065,3.603.13,5.958.224,6.942l-2.949.031c-.125-1.258-.243-3.835-.297-6.515Z"/>
    <path class="st1" d="M27.482,59.265c3.871-1.271,4.808-1.857,4.678-2.845-.215-1.682-2.264-2.023-8.175-1.384l-.118-2.992c2.348-.392,4.328-.508,5.996-.361,3.605.315,5.544,1.913,5.546,4.57.002.181-.005.271-.013.36-.22,2.511-2.648,4.449-6.955,5.536l-.959-2.885Z"/>
    <path class="st1" d="M21.6,76.711c.149-.873.79-4.07,1.467-7.265-.615,0-1.228-.017-1.825-.015l.156-2.806c.958-.007,1.664-.018,2.277,0,.323-1.418.471-2.073.556-2.428l2.928.618c-.168.69-.313,1.31-.436,1.878.722.009,1.531.062,2.553.15l-.24,2.745c-1.007-.053-2.035-.088-2.937-.095-.653,2.907-1.482,6.811-1.642,7.81l-2.858-.594ZM28.288,78.146l.506-2.686c1.589.429,4.528.723,5.662.568l-.002,2.711c-.552.113-1.493.122-2.677.019-1.363-.119-2.733-.365-3.489-.612ZM29.098,70.752c1.595-.06,3.772.059,5.145.269l-.239,2.727c-1.504-.149-3.752-.273-4.894-.247l-.012-2.748ZM32.888,66.059l1.627-.003c.03.69.007,1.772-.002,2.296l-1.627.002c.002-.434.004-1.283.002-2.295ZM35.361,66.094l1.591-.005c.014.453.023,1.394.016,2.297l-1.646.019c.022-.667.019-1.661.039-2.311Z"/>
    <path class="st1" d="M22.398,90.314c.077-.879.459-1.731,1.155-2.664-.491-1.616-.816-4.103-.773-5.833l2.897-.271c.013,1.302.103,2.954.238,3.889,1.08-.773,2.374-1.51,3.557-2.021l.972,2.94c-2.53,1.025-4.71,2.805-4.807,3.917-.119,1.363.914,1.743,4.662,1.673l-.279,2.977c-1.07.051-1.882.033-2.564-.026-3.569-.312-5.294-1.873-5.058-4.581Z"/>
    <path class="st1" d="M17.771,109.731c.499-1.149,1.031-2.277,1.627-3.508l2.168.821c-.617,1.267-1.148,2.395-1.611,3.547l-2.184-.86ZM20.38,97.47l.826.072c2.977.261,7.088.584,9.854.79-.146,1.252-.594,4.72-1.011,7.412l-9.905-.812c.022-2.112.082-4.457.237-7.462ZM21.945,107.06l2.66-.653c.803,2.601,1.349,2.975,5.199,2.552l.27,2.698c-1.222.129-2.238.166-3.099.091-3.121-.273-4.171-1.901-5.03-4.688ZM24.188,102.918l.082-.933c-.521-.046-1.024-.071-1.564-.101l-.024.901,1.507.132ZM24.378,100.747l.075-.86c-.574-.051-1.131-.081-1.634-.125-.027.305-.033.575-.058.862.54.029,1.078.076,1.617.123ZM25.924,106.413l2.244-.653c.265.692.519,1.51.729,2.215l-2.163.751c-.254-.799-.51-1.599-.809-2.312ZM27.83,103.219l.131-.874c-.465-.059-.93-.118-1.396-.158-.009.307-.037.629-.046.936.466.041.916.062,1.311.097ZM28.256,100.201c-.393-.052-.913-.098-1.506-.132-.042.268-.068.572-.093.859.502.044.985.104,1.487.148.046-.321.091-.624.113-.876ZM29.22,106.539l2.262-.651c.247.69.519,1.509.71,2.213l-2.145.753c-.273-.802-.511-1.6-.828-2.314Z"/>
    <path class="st1" d="M24.325,120.764c2.287-.738,3.737-1.19,3.733-1.969-.007-1.157-1.827-1.642-6.151-1.17l-.204-2.621c1.812-.257,3.352-.303,4.625-.191,3.354.294,4.891,1.729,4.946,3.578.008.108,0,.217-.012.342-.149,1.704-1.757,3.353-5.845,4.423l-1.092-2.392Z"/>
    <path class="st1" d="M22.891,131.371c-1.565-.082-3.502-.252-5.292-.463l.328-2.917c3.562.401,6.896.711,9.218.824l.549,1.982c-4.88,3.513-5.331,5.769-1.501,7.441l-2.204,2.266c-4.065-1.874-4.591-6.186-1.099-9.134Z"/>
    <path class="st1" d="M14.76,154.893c.149-.873.79-4.07,1.467-7.265-.615,0-1.228-.017-1.825-.015l.155-2.806c.958-.007,1.664-.018,2.277,0,.323-1.418.471-2.074.556-2.428l2.928.617c-.169.69-.313,1.311-.436,1.878.722.009,1.531.062,2.553.151l-.24,2.744c-1.007-.053-2.035-.088-2.938-.095-.652,2.907-1.481,6.811-1.642,7.81l-2.858-.594ZM21.448,156.327l.506-2.685c1.589.428,4.528.722,5.662.567l-.002,2.711c-.552.114-1.493.122-2.677.019-1.363-.119-2.733-.365-3.489-.612ZM22.258,148.934c1.596-.06,3.772.059,5.145.27l-.238,2.726c-1.505-.149-3.753-.273-4.894-.247l-.013-2.748Z"/>
    <path class="st1" d="M22.041,161.742c.13-1.489,1.415-2.949,3.137-2.799,1.686.147,2.923,1.503,2.774,3.207-.125,1.435-1.217,2.749-3.01,2.592-1.74-.152-3.048-1.314-2.9-3ZM26.131,161.684c-.182-.612-.538-.878-.914-.911-.7-.062-1.47.685-1.261,1.391.138.499.497.729.874.763.7.061,1.511-.537,1.302-1.242Z"/>
  </g>
</svg>