<?xml version="1.0" encoding="UTF-8"?>
<svg id="_レイヤー_1" data-name="レイヤー_1" xmlns="http://www.w3.org/2000/svg" version="1.1" viewBox="0 0 65 305">
  <!-- Generator: Adobe Illustrator 29.0.1, SVG Export Plug-In . SVG Version: 2.1.0 Build 192)  -->
  <defs>
    <style>
      .st0 {
        fill: #fff;
      }

      .st1 {
        fill: #3c291a;
      }
    </style>
  </defs>
  <g>
    <path class="st0" d="M55.283,18.171c-.043,0-.087-.002-.132-.006l-3.21-.28c-.415-.036-.796-.243-1.052-.571-.256-.328-.364-.748-.299-1.159.001-.008.002-.016.004-.023-.406.341-.978.455-1.503.253l-2.57-.984c-.392-.15-.704-.458-.858-.849-.155-.391-.139-.828.045-1.206.461-.952.989-2.414,1.254-3.476.048-.193.133-.372.249-.528-.121-.242-.178-.52-.151-.809l.278-2.976c.038-.404.238-.775.554-1.03.317-.255.721-.373,1.125-.319.561.07,1.421.148,2.609.235.022-.294.041-.549.051-.759.021-.4.202-.776.501-1.042.3-.266.698-.396,1.093-.376l3.199.207c.808.052,1.428.736,1.402,1.544-.007.24-.019.498-.033.768.027,0,.054.002.081.003,0-.358-.003-.718-.009-1.015-.007-.402.148-.79.43-1.077s.667-.448,1.069-.449h1.626s0,0,0,0c.17,0,.333.028.486.081.114-.028.233-.043.355-.043l1.591-.005h.004c.803,0,1.463.632,1.499,1.434.032.727.029,1.838.017,2.396-.018.809-.673,1.458-1.482,1.467l-1.646.019c-.163.003-.313-.021-.461-.067l-.136,1.959c-.023.334-.155.636-.358.873.486.911,1.191,1.942,1.724,2.682.483.671.332,1.607-.338,2.092l-2.276,1.646c-.666.482-1.596.337-2.085-.324-.318-.43-.631-.908-.942-1.417-.084.782-.161,1.421-.224,1.85-.108.743-.746,1.284-1.483,1.284ZM53.752,15.031l.217.019c.168-1.517.378-3.742.559-5.956.066-.812.759-1.417,1.581-1.375.851.048,1.632.086,2.264.114l.002-.026c-.596-.021-1.328-.051-2.191-.089-.403-.018-.782-.197-1.051-.498s-.406-.697-.379-1.099c.017-.256.033-.506.048-.75l-.235-.015-.058.791c-.054.786-.705,1.389-1.48,1.397.346.056.663.232.894.5.263.304.393.702.36,1.103-.215,2.64-.389,4.569-.53,5.886Z"/>
    <path class="st0" d="M53.54,34.968c-.271,0-.545-.074-.788-.224l-2.589-1.601c-.375-.231-.628-.615-.694-1.05-.066-.435.062-.877.351-1.209,1.083-1.247,2.04-2.724,2.78-4.279-.155-.017-.306-.031-.451-.044-.319.512-.648,1.004-.997,1.488-.443.615-1.275.802-1.939.437l-2.621-1.44c-.372-.205-.64-.558-.738-.971-.097-.414-.014-.849.228-1.198,1.067-1.538,1.865-3.29,2.589-5.68.235-.774,1.044-1.224,1.822-1.014l3.02.806c.709.189,1.166.857,1.109,1.567,1.582.159,3.09.387,4.57.688.394.081.74.316.958.653.219.338.293.749.206,1.142-1.077,4.844-3.125,8.93-5.77,11.505-.288.28-.666.425-1.047.425ZM53.175,31.478l.107.066c1.601-1.895,2.904-4.539,3.768-7.646-1.414-.232-2.874-.397-4.422-.5-.459-.03-.879-.27-1.139-.65-.251-.367-.326-.826-.206-1.252l-.189-.05c-.493,1.412-1.034,2.627-1.664,3.735l.031.017c.196-.308.388-.623.576-.95.282-.488.819-.781,1.376-.749.96.049,2.119.175,3.542.383.445.065.837.327,1.068.712s.278.854.127,1.277c-.704,1.967-1.737,3.908-2.975,5.607Z"/>
    <path class="st0" d="M57.153,42.02c-.132,0-.266-.018-.396-.053-.417-.114-.764-.402-.953-.791-.219-.449-1.81-2.625-2.333-3.188-.272-.294-.416-.685-.398-1.085.018-.4.194-.776.491-1.046l1.963-1.78c.61-.551,1.548-.51,2.106.09.411.443,2.604,2.998,3.091,4.457.215.644-.029,1.353-.596,1.727l-2.149,1.421c-.248.164-.536.249-.827.249Z"/>
    <path class="st0" d="M54.679,58.936c-.3,0-.6-.089-.858-.27l-2.163-1.509c-.097-.068-.185-.146-.262-.232-1.367.764-2.857,1.133-4.37,1.038-1.259-.059-2.399-.585-3.19-1.481-.792-.897-1.173-2.098-1.074-3.382.16-1.832,1.029-3.408,2.438-4.539-.28-.279-.439-.658-.441-1.054l-.016-2.712c-.005-.825.657-1.499,1.482-1.509.374-.005.8-.004,1.25,0,.061-.382.268-.726.577-.959.319-.24.721-.342,1.114-.288l2.678.379c.417.059.79.29,1.027.637.083.121.147.252.191.39.705.037,1.371.083,1.836.124.807.07,1.412.767,1.368,1.575l-.146,2.698c-.007.127-.03.251-.067.371.366.266.699.565.996.896,1.046,1.168,1.547,2.677,1.409,4.248-.186,2.133-1.174,3.954-2.857,5.264-.271.21-.596.316-.921.316ZM49.604,53.357c-.01.216-.019.436-.027.661-.006.189-.048.371-.119.537.36-.157.712-.357,1.052-.599-.092-.02-.182-.048-.27-.086-.262-.112-.479-.292-.636-.513ZM48.078,53.967h.01-.01ZM53.48,50.189c.058.148.092.303.101.458.168-.072.35-.115.537-.122-.196-.125-.41-.238-.638-.336ZM49.022,49.942s.004.002.006.003c.181.114.332.263.447.435.071-.442.334-.816.697-1.039-.043-.039-.084-.079-.123-.123-.064-.072-.121-.149-.17-.23-.128.428-.441.779-.857.954ZM49.321,46.222c.119.073.229.164.325.27.105.116.191.247.254.387.179-.332.479-.586.837-.708-.134-.081-.256-.183-.361-.304-.097-.112-.175-.236-.235-.369-.172.335-.466.595-.821.725Z"/>
    <path class="st0" d="M49.713,75.376c-.2,0-.404-.009-.614-.027-1.708-.149-3.079-1.075-3.762-2.54-.496-1.064-.555-2.303-.203-3.413l-2.212-.494c-.437-.098-.807-.385-1.01-.784-.203-.398-.217-.867-.039-1.277.155-.357.308-.735.459-1.132-.214-.095-.405-.24-.556-.425-.256-.315-.373-.721-.325-1.125l.332-2.754c.096-.804.806-1.388,1.621-1.315.167.015.334.028.502.041.036-.191.071-.388.105-.591.135-.802.891-1.348,1.69-1.235l2.963.422c.411.058.779.284,1.017.624.229.327.318.73.249,1.121.036,0,.071.002.108.003.407.011.792.187,1.066.487.059.064.111.133.158.205.353-.276.824-.394,1.29-.275,1.112.278,2.121.572,4.315,1.261.769.241,1.209,1.047.999,1.824l-.667,2.454c-.109.401-.379.738-.746.933-.368.194-.797.228-1.19.092-.017-.006-.035-.012-.053-.018-.003.128-.008.254-.015.378.667.396,1.271.839,1.682,1.243.552.542.602,1.414.116,2.014l-1.803,2.229c-.259.32-.637.52-1.047.552-.233.018-.466-.019-.68-.104-.917,1.071-2.189,1.626-3.75,1.626ZM51.412,69.166c.174.123.322.284.431.472.144.248.212.53.201.812.16-.139.35-.244.558-.305.164-.048.331-.066.497-.059-.042-.021-.085-.042-.128-.063-.574-.277-.91-.887-.838-1.521,0-.002,0-.005,0-.007-.093.175-.22.333-.377.461-.106.086-.223.157-.345.211ZM49.323,70.055l.795.218c-.114-.156-.269-.257-.423-.271-.136-.012-.264.012-.372.052ZM48.423,66.192c-.019.061-.038.12-.057.179.282-.073.576-.123.879-.149l-.822-.03ZM45.203,63.223c.158.108.296.247.405.41.141.212.224.455.245.703.011-.037.022-.074.033-.11.182-.616.733-1.042,1.365-1.073-.141-.092-.267-.208-.372-.345-.177-.231-.28-.506-.303-.79-.004.02-.009.039-.014.058-.155.647-.713,1.105-1.359,1.147Z"/>
    <path class="st0" d="M53.289,91.896c-.478,0-1.018-.026-1.618-.079-1.442-.126-2.943-.394-3.825-.682-.716-.234-1.148-.963-1.008-1.704l.506-2.685c.066-.348.251-.659.522-.881-.149-.236-.23-.51-.232-.794l-.011-2.479c-.101-.003-.202-.007-.302-.01-.584,2.649-1.224,5.688-1.358,6.522-.064.405-.292.766-.629.998-.337.233-.755.317-1.157.234l-2.858-.594c-.791-.165-1.31-.926-1.173-1.722.123-.718.564-2.946,1.102-5.525-.404-.005-.789-.173-1.067-.466-.285-.3-.434-.704-.411-1.117l.155-2.807c.043-.792.696-1.412,1.488-1.417l.552-.004c.189-.001.369-.003.54-.003.148-.653.234-1.03.292-1.27.19-.79.969-1.285,1.768-1.117l2.928.617c.397.084.744.325.96.668.216.344.284.76.188,1.155-.009.038-.018.075-.027.112.252.019.524.042.819.067.825.072,1.435.8,1.363,1.625l-.198,2.266c1.365.025,2.839.133,3.898.296.782.12,1.336.826,1.267,1.613l-.239,2.727c-.026.305-.146.592-.338.825.101.053.196.119.283.195.326.285.513.697.513,1.131l-.002,2.712c0,.711-.501,1.325-1.199,1.468-.396.082-.895.122-1.491.122ZM43.796,79.687c.175.093.332.221.46.379.224.276.341.621.335.971.023-.103.045-.205.068-.305.145-.648.697-1.118,1.35-1.167-.166-.094-.313-.219-.435-.371-.244-.305-.357-.692-.321-1.077l-.093.406c-.149.652-.709,1.122-1.366,1.164Z"/>
    <path class="st0" d="M46.85,107.706c-.289,0-.58-.083-.836-.255l-2.288-1.538c-.039-.026-.077-.054-.113-.083-.162.271-.405.487-.698.613-.384.165-.821.167-1.204-.004l-2.418-1.079c-.674-.3-1.029-1.046-.837-1.759.07-.259.225-.687,1.449-3.534-.247-.068-.474-.198-.659-.382-.3-.297-.46-.708-.442-1.129l.123-2.844c.034-.779.658-1.402,1.437-1.434.538-.023,1.225-.013,2.049.03.312-.707.628-1.422.828-1.851.344-.744,1.222-1.075,1.971-.74l2.523,1.124c.365.163.65.464.792.838.09.238.118.493.083.741.077-.035.157-.063.24-.084l1.565-.407c.006-.246.069-.49.189-.703.208-.368.554-.653.966-.746l1.382-.312c.146-.033.293-.044.436-.034.06-.02.122-.037.185-.049l1.38-.277c.712-.145,1.423.244,1.689.917.182.457.427,1.316.559,1.956.162.789-.327,1.564-1.109,1.758l-1.404.348c-.2.049-.405.056-.605.024l-.455.127c.275.923.533,1.884.662,2.514.152.743-.275,1.483-.995,1.723l-2.234.745c-.153.051-.311.077-.468.077-.456,1.69-1.325,3.476-2.539,5.106-.294.394-.746.604-1.204.604ZM46.386,97.716c.564.272.976.714,1.209,1.288.243.598.283,1.316.117,2.165.298-1.125.324-2.083.114-2.699-.158-.464-.383-.527-.491-.557-.245-.067-.565-.134-.949-.197ZM42.954,97.344c.193.119.359.282.483.48.092.147.157.308.193.473l.014-.033c.281-.636.961-.999,1.645-.871.032.006.063.012.094.018-.195-.133-.358-.312-.474-.526-.077-.142-.129-.293-.157-.448l-.015.035c-.256.58-.845.934-1.482.892-.102-.007-.203-.015-.302-.021Z"/>
    <path class="st0" d="M47.518,123.681c-.606,0-1.242-.03-1.916-.089-2.373-.208-4.66-.812-6.44-1.699-.659-.328-.982-1.085-.763-1.788l.931-2.991c.134-.431.455-.778.874-.946.418-.168.891-.139,1.286.081,1.931,1.07,4.575,1.501,7.644,1.247.408-.034.816.102,1.124.376.307.274.488.663.5,1.074l.092,3.081c.023.771-.544,1.435-1.31,1.532-.64.082-1.309.123-2.021.123ZM41.664,119.706c1.243.454,2.692.766,4.2.898.697.061,1.341.085,1.943.074l-.003-.113c-2.293.045-4.335-.272-6.116-.935l-.023.076ZM48.66,117.403c-.153,0-.308-.024-.461-.073l-2.531-.818c-.391-.126-.712-.407-.89-.776-.144-.3-.184-.637-.117-.958-1.16-.262-2.403-.566-3.668-.899-.767-.201-1.244-.965-1.09-1.742l.581-2.932c.08-.403.322-.756.669-.976.348-.219.771-.286,1.168-.187,2.711.683,4.592,1.061,6.583,1.461l1.493.302c.413.084.771.338.986.7s.27.797.149,1.2l-.211.707c-.416,1.393-.887,2.971-1.247,3.991-.217.615-.795,1.001-1.415,1.001ZM43.121,111.326c1.349.337,2.641.632,3.793.867.405.083.759.33.977.682.039.062.072.127.101.193.065-.215.131-.433.196-.65-1.588-.319-3.119-.629-5.067-1.093h0Z"/>
    <path class="st0" d="M48.29,138.783c-.33,0-.66-.108-.934-.326l-2.248-1.787c-.305-.243-.502-.593-.553-.975-1.556,1.554-3.407,2.23-5.217,1.745-2.477-.667-3.929-2.773-3.703-5.366.174-1.993,1.234-3.882,2.907-5.183,1.691-1.315,3.834-1.936,6.037-1.739,2.167.189,4.104,1.05,5.456,2.426,1.453,1.478,2.149,3.468,1.962,5.603-.18,2.054-1.154,3.919-2.744,5.252-.278.234-.621.351-.964.351ZM47.966,129.752c.562.655.906,1.448.997,2.32.104.997-.14,2.028-.684,2.982.411-.637.663-1.366.73-2.137.107-1.229-.253-2.321-1.044-3.166ZM43.943,128.118c.224.107.422.27.572.478.157.219.25.472.276.732.174-.294.446-.522.774-.643.23-.084.473-.11.709-.079-.591-.247-1.251-.406-1.956-.468-.125-.011-.251-.018-.375-.021Z"/>
    <path class="st0" d="M47.799,155.96c-.041,0-.081-.001-.121-.005l-2.926-.237c-.398-.032-.767-.222-1.025-.527s-.383-.701-.348-1.099c.04-.46.104-1.163.182-2.01-.183.058-.378.083-.584.064l-8.233-.72c-.801-.07-1.404-.759-1.368-1.562.101-2.224.32-5.231.48-7.427.057-.777.104-1.437.135-1.895.055-.825.766-1.44,1.593-1.397l2.336.15c.822.054,1.679.11,2.407.175.902.079,1.756.169,2.605.26l1.266.133c.821.083,1.421.815,1.342,1.637l-.036.364c1.825.089,3.644.199,4.998.303.406.031.781.226,1.041.54s.38.719.335,1.123l-.329,2.937c-.091.811-.813,1.396-1.623,1.327l-.084-.007c-.192,1.985-.328,3.705-.46,5.379l-.088,1.116c-.032.397-.22.765-.523,1.023-.272.231-.617.357-.972.357ZM46.143,144.898c.222.085.423.223.583.405.176.198.294.438.346.692.159-.488.557-.857,1.044-.986-.631-.039-1.297-.076-1.974-.111ZM42.877,144.421c-.017.158-.035.323-.055.493.188-.104.398-.169.622-.185-.208-.06-.402-.165-.567-.309Z"/>
    <path class="st0" d="M35.579,170.846c-.684,0-1.3-.47-1.46-1.164-.514-2.227-.66-4.664-.434-7.244h0c.155-1.781.49-3.646.995-5.541.212-.794,1.024-1.27,1.818-1.068l2.935.744c.396.101.735.359.937.715.202.356.249.779.131,1.171-.702,2.336-1.017,5.112-.894,7.337l.251-.819c.122-.398.404-.728.778-.91.374-.182.807-.202,1.196-.05,1.507.582,3.271.888,5.245.91.431.005.839.195,1.12.522.281.327.408.759.348,1.186l-.387,2.768c-.097.697-.667,1.233-1.369,1.288-1.743.133-4.821-.376-6.86-1.142-.037-.014-.072-.029-.107-.045-.214.327-.548.559-.932.644l-2.986.661c-.109.024-.218.036-.326.036ZM36.722,167.167c.015.126.032.253.049.378h.004c-.019-.125-.037-.25-.053-.378ZM35.179,162.569h.01-.01ZM46.725,163.809c-1.038,0-3.759-.195-5.346-.367-.402-.043-.77-.248-1.019-.566-.25-.318-.36-.723-.307-1.124l.368-2.752c.108-.811.843-1.39,1.657-1.292,1.332.152,4.059.352,4.862.324.407,0,.804.158,1.091.452.287.293.44.691.426,1.101l-.099,2.774c-.028.788-.66,1.419-1.448,1.446-.054.002-.116.003-.186.003Z"/>
    <path class="st0" d="M35.813,188.213c-.77,0-1.416-.584-1.492-1.352-.101-1.016-.196-2.816-.259-4.848-.318.023-.637-.07-.906-.25-.342-.229-.576-.587-.646-.992l-.492-2.844c-.129-.746.318-1.472,1.043-1.691.294-.089.588-.167.901-.244.012-1.056.035-1.943.07-2.646.039-.793.689-1.417,1.482-1.426l2.949-.03c.426.01.797.157,1.082.445.229.231.375.53.419.849.008-.029.015-.056.023-.083.217-.783,1.02-1.247,1.806-1.054l2.707.671c.42.104.775.385.973.771.198.385.22.837.06,1.24-.188.471-.389,1.067-.562,1.652,1.491.924,2.363,2.329,2.492,4.059.02.356.015.68-.015,1.018-.265,3.022-2.505,4.97-5.993,5.211-.484.033-.929-.163-1.23-.506.009.142.02.267.03.374.041.418-.097.834-.377,1.147s-.68.493-1.1.498l-2.949.031h-.017ZM35.582,178.699c.315.014.621.127.872.328.347.278.553.696.562,1.14.024,1.156.06,2.304.103,3.33-.027-.998-.053-2.226-.08-3.731-.014-.782.576-1.443,1.354-1.52.039-.004.078-.008.117-.011-.403.009-.748-.137-1.029-.395-.305-.28-.481-.674-.486-1.088l-.004-.394c-.005-.441-.01-.873-.013-1.279-.013.625-.021,1.333-.023,2.118-.002.704-.493,1.312-1.181,1.461-.065.014-.128.028-.191.042ZM40.887,178.199c1.109.103,1.912.409,2.493.936.57.516.873,1.208.874,2,.014,1.047-.467,1.679-1.146,2.093.817-.41,1.27-1.089,1.353-2.031.017-.195.02-.377.01-.562-.044-.591-.28-1.481-1.789-2.047-.415-.155-.724-.478-.873-.866-.237.26-.563.433-.922.478Z"/>
    <path class="st0" d="M39.847,200.165c-.575,0-1.115-.333-1.364-.877l-1.092-2.392c-.178-.389-.181-.836-.008-1.228.172-.392.504-.691.912-.823l.136-.044c.336-.109.698-.226,1.046-.343-.695-.012-1.655.022-2.978.166-.407.043-.808-.078-1.119-.336-.312-.259-.507-.633-.539-1.038l-.205-2.62c-.062-.79.5-1.491,1.284-1.602,1.834-.262,3.504-.33,4.968-.201,5.736.501,6.284,3.974,6.315,5.027.011.114.002.301-.017.521-.16,1.828-1.497,4.311-6.959,5.741-.126.033-.254.049-.38.049ZM43.145,192.46s.008.008.013.011c.531.474.825,1.121.83,1.824,0,.199-.019.383-.059.555.156-.241.248-.488.27-.739l.009-.123c-.022-.716-.463-1.201-1.062-1.528Z"/>
    <path class="st0" d="M38.419,217.513c-.212,0-.426-.045-.627-.138-2.387-1.101-3.931-3.018-4.234-5.262-.182-1.345.093-2.702.773-3.949-.825-.075-1.666-.162-2.478-.258-.819-.097-1.406-.837-1.314-1.657l.327-2.917c.044-.396.244-.757.555-1.006.311-.248.708-.362,1.104-.318,3.741.423,6.981.713,9.123.818.646.031,1.199.474,1.372,1.097l.55,1.981c.168.605-.059,1.251-.569,1.618-3.447,2.481-3.444,3.516-3.432,3.626.021.195.393.672,1.656,1.224.451.197.777.603.872,1.086s-.054.982-.397,1.334l-2.204,2.266c-.289.297-.679.454-1.076.454ZM36.647,210.361c-.135.451-.177.907-.117,1.351.128.947.693,1.787,1.618,2.43l.049-.051c-.769-.592-1.486-1.443-1.612-2.624-.039-.367-.02-.734.061-1.106ZM38.076,205.584c.308.179.548.466.667.818.074.221.095.451.065.672.445-.424.959-.862,1.545-1.317-.728-.047-1.497-.106-2.277-.173Z"/>
    <path class="st0" d="M37.099,233.642c-.348,0-.695-.12-.977-.361-1.385-1.188-5.008-4.739-6.684-6.551-.554-.599-.527-1.531.059-2.097,1.596-1.542,5.333-5.153,7.04-6.756.597-.561,1.535-.539,2.105.05l2.254,2.33c.28.29.432.679.421,1.082s-.182.784-.477,1.059c-.558.52-1.337,1.261-2.133,2.016-.498.473-1.002.952-1.463,1.387.869.804,2.104,1.908,3.327,2.969.325.282.514.689.518,1.12s-.177.841-.497,1.129l-2.491,2.24c-.285.256-.644.385-1.003.385ZM32.654,225.756c1.353,1.392,3.184,3.189,4.448,4.367l.229-.206c-1.451-1.283-2.86-2.573-3.362-3.116-.27-.292-.413-.68-.397-1.078.016-.397.189-.772.481-1.042.643-.593,1.628-1.529,2.59-2.443.356-.338.709-.673,1.041-.987l-.165-.17c-1.456,1.388-3.438,3.298-4.865,4.676Z"/>
    <path class="st0" d="M34.23,250.406c-.223,0-.449-.01-.679-.03-1.288-.113-2.465-.575-3.316-1.302-.978-.836-1.48-1.989-1.377-3.163.079-.9.419-1.702.959-2.337-.165-.169-.291-.38-.362-.62l-.307-1.039c-.146-.493-.029-1.025.309-1.411.322-.369.602-.694.862-1.003l-.107-.007c-.398-.027-.77-.212-1.031-.514-.262-.302-.392-.696-.363-1.094l.201-2.712c.03-.4.219-.772.524-1.032.306-.26.699-.389,1.103-.351l1.383.121c1.38.12,3.08.279,6.126.626.525.06.981.392,1.198.874.217.482.165,1.043-.139,1.477-.745,1.064-1.292,1.828-1.795,2.517.598.301,1.134.709,1.582,1.212.997,1.118,1.469,2.604,1.331,4.183-.296,3.379-2.766,5.605-6.104,5.605ZM33.26,246.639c.012.11.138.26.226.266.081.003.271-.069.427-.232l-.652-.034ZM36.259,246.671c0,.038-.001.077-.003.115.07-.055.137-.114.201-.176-.064.025-.13.045-.198.061ZM34.757,246.717h.01-.01ZM30.352,246.042h.01-.01ZM33.049,240.912c.172.006.338.017.501.031-.073-.152-.119-.313-.137-.476-.121.149-.241.296-.364.445ZM34.254,237.134c.164.146.297.329.385.539.044.106.076.215.095.326.179-.244.36-.493.552-.758-.37-.039-.712-.074-1.033-.106Z"/>
    <path class="st0" d="M37.258,264.879c-.33,0-.66-.108-.934-.326l-2.248-1.787c-.305-.243-.502-.593-.553-.976-1.555,1.554-3.404,2.231-5.216,1.745-2.478-.667-3.931-2.774-3.703-5.367.369-4.217,4.376-7.333,8.943-6.923,4.669.409,7.79,3.785,7.418,8.029-.18,2.052-1.154,3.917-2.744,5.252-.279.234-.622.351-.965.351ZM36.792,255.691c.645.684,1.041,1.535,1.138,2.478.104.995-.139,2.023-.68,2.977.409-.636.66-1.363.728-2.132.125-1.431-.365-2.536-1.186-3.323ZM32.911,254.214c.225.107.423.27.573.478.158.219.25.472.276.732.175-.294.447-.522.774-.643.231-.084.476-.109.712-.078-.613-.254-1.283-.41-1.959-.469-.125-.011-.251-.018-.375-.021Z"/>
    <path class="st0" d="M34.288,282.02c-.59,0-1.157-.023-1.692-.071-5.911-.517-6.572-3.601-6.582-4.903v-.004c-.004-.851.249-2.003,1.274-3.215-.169-.305-.232-.668-.158-1.031.078-.376.148-.726.214-1.054-.114-.012-.23-.025-.349-.038l-.274-.03c-.402-.044-.769-.248-1.018-.566-.25-.318-.36-.723-.306-1.124l.364-2.715c.106-.794.825-1.357,1.617-1.295l1.076.094s.001-.007.002-.01c.138-.808.896-1.351,1.708-1.229l2.942.456c.415.064.783.299,1.017.648.108.162.183.341.222.528.181.004.362.008.542.01.41.005.8.179,1.079.479.279.301.423.702.398,1.112l-.162,2.679c0,.011-.001.022-.002.033.054.118.094.244.116.375l.456,2.643c.071.41-.032.811-.256,1.125.278.665.043,1.447-.577,1.843l-.026.017c.008.007.015.015.022.023.292.304.443.718.415,1.14l-.18,2.678c-.052.777-.69,1.385-1.469,1.399-.139.003-.277.004-.414.004ZM31.802,273.832c.402,0,.798.162,1.087.466-.003-.192.031-.386.103-.569.025-.063.054-.125.086-.184-.084.033-.168.067-.252.103-.422.174-.901.147-1.301-.073-.098-.054-.19-.105-.292-.16.006.044.01.088.012.133.006.139-.007.275-.038.407.191-.083.394-.123.594-.123ZM29.951,269.154c.15.097.284.22.394.367.133.178.223.382.266.595.171-.526.618-.911,1.152-1.01-.125-.089-.236-.197-.33-.322-.169-.226-.269-.492-.292-.768h-.008c-.135.59-.608,1.029-1.181,1.138Z"/>
    <path class="st0" d="M35.554,288.903c-.132,0-.265-.018-.395-.053-.417-.114-.764-.402-.953-.79-.22-.45-1.812-2.626-2.333-3.189-.272-.294-.416-.685-.398-1.085.018-.4.194-.776.491-1.046l1.963-1.78c.61-.552,1.548-.511,2.106.09.411.443,2.604,2.998,3.091,4.457.215.644-.029,1.353-.596,1.727l-2.149,1.421c-.248.164-.536.249-.827.249Z"/>
    <path class="st0" d="M31.66,16.99c-.261,0-.524-.068-.761-.208l-2.596-1.528c-.417-.246-.69-.678-.733-1.161-.031-.346.06-.687.249-.968-1.434-.416-2.152-1.351-2.442-1.851-.812-1.397-.683-3.186.331-4.556.039-.053.079-.105.121-.156-.176-.021-.35-.043-.52-.064-.802-.099-1.381-.815-1.311-1.62l.244-2.78c.036-.41.239-.787.561-1.043.322-.256.736-.37,1.143-.311.95.134,2.278.284,3.834.435.061-.246.183-.476.359-.665.274-.294.655-.467,1.057-.478l3.008-.081c.413-.013.801.144,1.091.429.291.285.453.676.449,1.083,0,.054,0,.11,0,.167.402.022.842.044,1.335.063.413.017.801.203,1.073.515.271.312.401.723.36,1.134l-.279,2.777c-.076.757-.707,1.337-1.467,1.35-.381.005-.823,0-1.292-.013-.068.386-.148.746-.243,1.081.927,2.616-.098,5.915-2.585,8.078-.28.244-.631.369-.985.369ZM31.643,10.292c.144.077.276.178.391.302.25.27.386.615.398.968.21-.823.178-1.635-.143-2.286-.179-.364-.203-.785-.066-1.167.052-.146.1-.301.144-.468-.123.179-.283.332-.473.442-.096.056-.197.101-.301.135.29.485.378,1.067.241,1.625-.039.159-.104.31-.191.448ZM28.921,9.128c-.058.233-.006.492.137.691.136.189.299.251.366.257.304.016.62-.136.781-.405.039-.065.067-.134.086-.207l-1.37-.336ZM30.378,9.486h.01-.01ZM29.481,8.326c-.082.042-.184.109-.274.222l1.093.875c.045-.222-.003-.464-.143-.675-.2-.304-.512-.417-.676-.423ZM29.434,8.328h0ZM31.737,4.247c.534.196.919.684.976,1.262.135-.513.533-.911,1.031-1.055-.572-.213-.975-.763-.977-1.402v-.056h-.009c-.04.346-.2.67-.457.914-.163.154-.356.269-.564.337Z"/>
    <path class="st0" d="M31.658,32.347c-.606,0-1.242-.03-1.916-.089-2.374-.208-4.661-.812-6.44-1.699-.658-.328-.981-1.085-.763-1.788l.93-2.991c.134-.431.455-.779.874-.947.418-.168.891-.139,1.286.08,1.933,1.072,4.577,1.505,7.644,1.248.406-.036.816.101,1.124.375s.488.663.5,1.074l.093,3.08c.023.772-.544,1.436-1.31,1.533-.64.082-1.31.123-2.021.123ZM25.805,28.372c1.243.454,2.692.766,4.199.898.697.061,1.337.087,1.943.074l-.003-.112c-2.284.048-4.334-.272-6.116-.936l-.023.075ZM32.711,26.06c-.153,0-.308-.023-.461-.073l-2.531-.817c-.729-.235-1.158-.979-1.01-1.719-1.023-.245-2.171-.542-3.572-.906-.769-.199-1.249-.964-1.094-1.744l.582-2.932c.08-.403.322-.756.669-.976.347-.22.771-.287,1.168-.187,2.808.707,4.541,1.072,6.541,1.481,0-.149,0-.304,0-.463,0-.828.669-1.5,1.497-1.502l1.627-.003h.003c.17,0,.334.028.488.081.113-.028.231-.042.353-.043l1.591-.006h.005c.81,0,1.473.642,1.499,1.452.015.466.023,1.431.017,2.356-.006.817-.666,1.479-1.483,1.489l-1.646.019c-.195.007-.354-.028-.52-.086-.098.022-.2.035-.305.035h-1.001c-.308,1.237-.66,2.484-.99,3.505-.205.635-.794,1.039-1.427,1.039ZM27.26,19.995c1.435.37,2.578.653,3.615.866.398.082.747.322.965.666.048.077.09.157.124.24.061-.229.122-.461.181-.693-1.546-.317-2.967-.618-4.884-1.081v.002Z"/>
    <path class="st0" d="M29.774,48.879c-.347,0-.695-.12-.976-.361-1.382-1.184-5.005-4.735-6.684-6.55-.554-.599-.528-1.531.059-2.098l1.042,1.079-1.018-1.102c1.874-1.81,5.361-5.178,7.016-6.732.597-.561,1.534-.54,2.105.05l2.254,2.329c.28.289.432.679.421,1.082-.01.402-.182.784-.477,1.059-.556.519-1.333,1.256-2.125,2.009-.5.475-1.007.957-1.47,1.394.868.804,2.103,1.908,3.327,2.968.325.282.514.69.518,1.12s-.177.841-.497,1.129l-2.491,2.24c-.285.256-.644.385-1.003.385ZM25.329,40.993c1.354,1.393,3.186,3.19,4.448,4.366l.229-.206c-1.451-1.283-2.861-2.574-3.362-3.117-.562-.609-.523-1.558.085-2.119.645-.595,1.633-1.534,2.597-2.45.354-.336.704-.668,1.033-.98l-.165-.17c-1.429,1.362-3.366,3.229-4.865,4.676Z"/>
    <path class="st0" d="M31.783,65.985c-.263,0-.528-.069-.77-.213l-.213-.127c-.513-.307-1.013-.607-1.531-.931-.061.333-.234.638-.492.862-.307.266-.708.395-1.114.361l-2.745-.24c-.665-.058-1.192-.542-1.333-1.162-.461.26-.92.521-1.364.779-.712.414-1.626.175-2.045-.535l-1.18-2.001c-.211-.359-.265-.79-.146-1.189s.398-.731.771-.917l.142-.07c-.008-.084-.01-.169-.003-.254l.089-1.235c-.043-.016-.086-.033-.128-.053-.368-.173-.65-.488-.782-.873l-.777-2.273c-.259-.758.124-1.586.869-1.88.449-.177.82-.32,1.166-.446-.226-.113-.461-.235-.742-.39-.703-.389-.975-1.262-.617-1.981l1.052-2.113c.363-.729,1.241-1.034,1.979-.69l.607.284c.343.16.649.303.956.448.289-.264.674-.418,1.103-.39l.687.039c.1.005.199.011.298.017l.155-.341c.304-.672,1.051-1.021,1.761-.829l2.047.559c.439.12.8.433.981.851.026.061.048.122.066.185l.324.036c.396.043.739.237.978.519.371-.138.753-.274,1.186-.43l.356-.127c.767-.276,1.614.112,1.907.875l.839,2.188c.29.754-.07,1.602-.813,1.917-.271.115-.539.224-.814.335-.056.022-.112.045-.168.068.264.114.558.234.932.385.37.149.666.439.821.806s.159.781.009,1.151l-.944,2.32c-.222.545-.729.89-1.28.931l-.099,1.125c.334.199.579.521.68.9.11.411.041.849-.191,1.206l-1.211,1.864c-.287.441-.768.683-1.259.683ZM25.214,60.404c.284,0,.566.08.813.24.261.168.458.41.572.687.148-.289.388-.526.691-.67.462-.219,1.002-.187,1.434.08.006-.025.013-.05.02-.074.05-.17.128-.325.229-.462-.299-.024-.585-.045-.853-.065-.401-.029-.773-.217-1.034-.523-.122-.144-.215-.308-.275-.482-.27.516-.83.85-1.445.801-.249-.019-.496-.038-.741-.056.059.115.103.239.131.37.016.073.025.145.03.217.14-.042.284-.062.428-.062ZM26.94,57.217c.009.022.017.045.025.068.011-.021.023-.042.036-.063l-.061-.005Z"/>
    <path class="st0" d="M26.152,81.385c-.244,0-.491-.011-.742-.033-2.041-.178-3.637-1.141-4.613-2.782-.895-1.504-1.237-3.532-1.019-6.029h0c.156-1.79.587-3.769,1.248-5.724.244-.722.996-1.147,1.737-.986l3.104.669c.424.091.788.362.997.741.21.38.245.832.096,1.239-1.483,4.066-1.166,6.327-.864,6.758.418.025.769-.072,1.261-.58.28-.289.663-.453,1.065-.457.425.006.788.155,1.072.439l2.161,2.159c.581.58.587,1.519.016,2.106-1.618,1.664-3.43,2.479-5.52,2.479ZM23.474,69.052c-.364,1.299-.605,2.576-.708,3.749h0c-.16,1.832.05,3.295.609,4.234.482.811,1.212,1.232,2.297,1.328,1.006.086,1.88-.102,2.699-.605l-.063-.063c-.769.434-1.606.605-2.532.528-.911-.08-1.693-.567-2.205-1.371-.983-1.545-.957-4.381.035-7.77l-.131-.028ZM21.272,72.671h.01-.01Z"/>
    <path class="st0" d="M28.407,97.364c-.11,0-.222-.013-.334-.038l-2.835-.646c-.409-.093-.76-.353-.968-.716s-.255-.798-.129-1.198c.125-.398.256-.851.389-1.347-.898,1.551-2.31,2.824-4.729,2.708-1.17-.062-2.229-.578-2.987-1.451-.795-.916-1.172-2.12-1.061-3.39.149-1.708.977-3.015,2.341-3.817-.011-.012-.022-.025-.033-.038-.265-.309-.393-.712-.354-1.117l.263-2.797c.077-.82.797-1.427,1.624-1.354l.569.049c1.705.149,4.026.413,5.648.641.411.058.778.283,1.017.621.086.123.153.256.199.396.303-.162.654-.215.993-.148l2.861.558c.784.153,1.311.893,1.198,1.683-.107.753-.251,1.633-.419,2.56.042.013.084.027.126.04.774.25,1.208,1.07.979,1.851l-.849,2.891c-.115.393-.387.722-.751.91-.242.125-.515.18-.78.164-.189.742-.372,1.391-.546,1.939-.202.634-.789,1.046-1.429,1.046ZM27.276,90.3c.486.283.778.823.741,1.393.132-.218.32-.402.548-.529.249-.14.537-.204.809-.19-.594-.237-.97-.827-.94-1.461-.118.222-.291.413-.504.553-.198.129-.422.209-.652.235ZM22.073,89.56c.182.108.342.254.466.433.062.088.112.181.153.278.262-.421.719-.687,1.217-.705-.149-.104-.28-.234-.385-.388-.075-.11-.134-.228-.177-.351-.262.441-.741.728-1.274.733ZM23.321,85.559c.084.072.16.155.227.246.064.087.118.18.161.277l.097-.464c-.16-.02-.322-.039-.485-.058Z"/>
    <path class="st0" d="M17.186,112.591c-.684,0-1.301-.47-1.46-1.164-.513-2.23-.659-4.667-.434-7.245h0c.155-1.78.491-3.644.996-5.54.211-.793,1.024-1.27,1.818-1.068l2.935.744c.396.101.735.359.937.715.202.356.249.779.131,1.171-.702,2.335-1.017,5.111-.894,7.337l.25-.819c.122-.398.404-.728.778-.91.374-.182.807-.201,1.196-.051,1.509.583,3.273.889,5.244.91.431.005.839.195,1.12.521s.408.759.349,1.186l-.386,2.768c-.098.698-.667,1.234-1.369,1.289-1.747.133-4.824-.376-6.861-1.141-.037-.014-.072-.029-.107-.045-.213.328-.548.56-.932.645l-2.986.661c-.109.024-.218.036-.326.036ZM18.335,108.958c.014.111.028.222.043.332h.004c-.017-.109-.033-.22-.047-.332ZM16.786,104.313h.01-.01ZM28.331,105.554c-1.041,0-3.762-.195-5.346-.368-.402-.044-.769-.248-1.018-.566-.249-.318-.359-.723-.306-1.124l.367-2.751c.108-.811.854-1.385,1.657-1.292,1.335.152,4.053.341,4.86.323.406.001.805.158,1.092.451.287.293.441.692.427,1.102l-.098,2.775c-.028.787-.66,1.419-1.448,1.446-.054.002-.117.003-.187.003Z"/>
    <path class="st0" d="M21.921,129.711c-.242,0-.488-.011-.738-.033-2.042-.178-3.638-1.141-4.614-2.783-.895-1.504-1.237-3.533-1.019-6.03.156-1.787.587-3.766,1.248-5.723.244-.722.994-1.146,1.737-.986l3.104.669c.424.091.788.362.997.741.21.38.245.832.096,1.239-1.483,4.067-1.166,6.327-.864,6.758.421.025.769-.072,1.26-.58.279-.289.663-.454,1.065-.457.363.021.789.155,1.073.439l2.161,2.159c.581.58.587,1.519.016,2.106-1.618,1.664-3.431,2.479-5.523,2.48ZM19.246,117.378c-.364,1.301-.606,2.577-.708,3.749h0c-.16,1.832.05,3.296.609,4.235.482.811,1.212,1.233,2.297,1.328,1.01.087,1.88-.102,2.699-.606l-.063-.063c-.77.435-1.607.609-2.534.527-.909-.08-1.691-.566-2.203-1.371-.983-1.545-.957-4.381.035-7.77l-.131-.028ZM17.044,120.996h.01-.01Z"/>
    <path class="st0" d="M21.156,146.347c-.212,0-.426-.045-.627-.138-2.387-1.101-3.93-3.019-4.234-5.262-.182-1.346.093-2.702.774-3.95-.823-.075-1.664-.162-2.479-.258-.819-.097-1.407-.837-1.315-1.657l.328-2.917c.044-.396.244-.757.556-1.005.311-.249.708-.363,1.104-.318,3.747.423,6.986.713,9.122.817.647.031,1.2.474,1.373,1.098l.549,1.982c.168.605-.059,1.25-.569,1.618-3.447,2.482-3.444,3.517-3.432,3.627.021.195.393.672,1.656,1.224.451.197.777.603.872,1.086s-.054.982-.397,1.335l-2.204,2.265c-.289.296-.679.454-1.075.454ZM19.382,139.201c-.134.449-.174.902-.115,1.344.128.947.693,1.787,1.618,2.43l.048-.05c-.769-.593-1.486-1.443-1.612-2.623-.039-.365-.02-.731.06-1.101ZM20.813,134.417c.308.179.548.466.667.818.074.221.095.451.065.672.445-.425.959-.863,1.545-1.317-.728-.047-1.497-.106-2.278-.173Z"/>
    <path class="st0" d="M23.592,162.856c-.478,0-1.018-.026-1.618-.079-1.464-.128-2.93-.389-3.824-.682-.716-.234-1.147-.963-1.008-1.704l.506-2.685c.065-.348.251-.659.522-.881-.149-.236-.23-.51-.232-.794l-.011-2.479c-.101-.003-.202-.007-.302-.01-.584,2.646-1.224,5.685-1.359,6.523-.065.404-.292.765-.629.997-.337.232-.755.318-1.156.234l-2.857-.593c-.791-.164-1.309-.924-1.174-1.72.12-.706.561-2.934,1.101-5.528-.404-.005-.789-.173-1.067-.466-.285-.3-.434-.704-.411-1.117l.156-2.807c.044-.791.695-1.411,1.487-1.417l.431-.003c.235-.002.455-.003.662-.004.149-.654.235-1.032.293-1.271.191-.789.974-1.28,1.768-1.115l2.928.617c.397.084.744.325.96.668.216.344.284.76.188,1.155-.009.038-.018.075-.027.112.252.019.524.042.819.067.825.072,1.435.8,1.363,1.625l-.198,2.266c1.362.025,2.835.133,3.898.297.782.12,1.336.826,1.267,1.613l-.239,2.727c-.026.305-.146.592-.338.825.101.053.196.119.283.195.327.285.514.697.513,1.13l-.002,2.712c0,.712-.501,1.325-1.199,1.468-.396.082-.895.122-1.491.122ZM14.1,150.648c.174.093.331.221.459.378.225.278.342.624.334.976.023-.104.047-.208.07-.31.146-.648.697-1.118,1.35-1.167-.166-.094-.313-.219-.435-.371-.245-.306-.358-.694-.321-1.079l-.093.41c-.148.652-.708,1.121-1.364,1.164Z"/>
    <path class="st0" d="M19.852,178.734c-.625,0-1.234-.089-1.816-.27-1.165-.362-2.135-1.066-2.832-2.039-.11.059-.223.12-.34.183-.177.338-.379.696-.61,1.084-.412.691-1.294.935-2,.553l-2.762-1.488c-.36-.194-.625-.525-.734-.919s-.053-.815.155-1.166c1.234-2.082,3.392-7.553,4.275-10.84.21-.779.996-1.253,1.784-1.073l3.065.702c.396.09.738.337.948.685.21.347.271.765.168,1.157-.262,1.001-.659,2.288-1.102,3.595.152.031.3.086.438.164.401.228.675.626.744,1.082.292,1.936.577,2.507.702,2.671.151-.013.606-.111,1.688-.727.713-.408,1.621-.163,2.036.544l1.431,2.438c.393.669.21,1.527-.421,1.979-1.544,1.105-3.227,1.683-4.816,1.683ZM12.225,174.823l.143.077c.008-.016.016-.032.023-.048.138-.281.359-.512.634-.66l.152-.082c.78-.422,1.397-.756,2.048-1.048.38-.171.815-.176,1.2-.012.176.074.333.181.467.312-.092-.257-.175-.532-.25-.825-.136.066-.282.137-.438.214-.557.271-1.223.175-1.677-.244-.455-.419-.605-1.076-.379-1.652.585-1.487,1.21-3.293,1.677-4.822l-.145-.033c-.888,2.859-2.311,6.484-3.455,8.824Z"/>
    <path class="st0" d="M16.53,195.091c-.21,0-.423-.044-.623-.136-2.335-1.066-3.856-2.951-4.173-5.169-.196-1.373.079-2.762.77-4.039-.839-.076-1.7-.165-2.539-.263-.82-.096-1.408-.836-1.316-1.657l.327-2.917c.044-.396.244-.757.555-1.005.311-.249.705-.362,1.104-.318,3.331.375,6.024.626,8.026.748.022-.364.176-.708.435-.968.281-.282.662-.441,1.06-.441l1.627-.003c.183.028.336.028.491.081.113-.028.231-.042.353-.043l1.592-.006h.005c.811,0,1.475.644,1.5,1.455.014.465.022,1.428.016,2.354-.006.818-.666,1.48-1.484,1.489l-1.646.018c-.173.005-.354-.028-.518-.086-.099.022-.201.035-.305.035h-.375c-.075.34-.268.651-.557.871-3.172,2.412-3.226,3.425-3.204,3.604.031.255.49.738,1.684,1.257.452.197.778.603.873,1.086.095.483-.053.982-.396,1.335l-2.204,2.266c-.289.297-.679.454-1.076.454ZM14.679,189.114c.005.083.013.166.025.248.132.924.675,1.737,1.556,2.356l.046-.048c-.757-.58-1.467-1.409-1.627-2.556ZM16.22,183.162c.307.178.547.462.667.812.054.156.08.316.081.476.375-.363.799-.735,1.271-1.121l-.004-.016c-.614-.039-1.286-.089-2.014-.15Z"/>
    <path class="st0" d="M14.624,211.71c-.261,0-.524-.068-.761-.208l-2.595-1.528c-.417-.246-.69-.678-.733-1.161-.031-.346.06-.687.249-.968-1.433-.416-2.152-1.351-2.442-1.851-.812-1.397-.683-3.186.33-4.556.039-.053.08-.105.121-.156-.176-.021-.35-.043-.52-.064-.802-.099-1.381-.815-1.311-1.62l.243-2.78c.036-.41.238-.787.56-1.043s.732-.369,1.143-.312c.961.135,2.29.285,3.835.435.061-.247.184-.476.36-.666.274-.294.655-.466,1.057-.477l3.007-.081c.429-.013.801.145,1.091.429.291.285.453.675.45,1.082,0,.055,0,.111,0,.169.402.022.843.044,1.335.063.413.017.801.203,1.073.515.271.312.401.723.36,1.134l-.28,2.777c-.077.756-.707,1.336-1.467,1.35-.379.005-.823.001-1.292-.013-.068.386-.148.746-.242,1.081.926,2.617-.099,5.915-2.586,8.079-.28.243-.631.368-.985.368ZM14.607,205.01c.144.077.276.178.391.302.25.27.387.615.398.968.209-.824.178-1.635-.143-2.287-.179-.364-.203-.785-.066-1.167.053-.148.102-.307.146-.477-.124.182-.286.337-.478.449-.096.056-.197.101-.301.136.292.485.381,1.07.244,1.629-.039.159-.104.31-.191.447ZM11.886,203.846c-.058.234-.006.493.137.693.136.189.299.251.366.257.304.016.62-.136.78-.405.039-.065.068-.135.086-.208l-1.37-.337ZM13.342,204.205h.01-.01ZM12.447,203.046c-.115.059-.209.137-.28.227l1.098.871c.044-.222-.004-.463-.143-.674-.2-.303-.511-.417-.675-.423ZM14.702,198.967c.534.196.919.685.975,1.264.135-.514.533-.912,1.031-1.057-.572-.213-.976-.764-.977-1.404v-.055h-.008c-.04.346-.2.67-.457.914-.163.155-.356.269-.564.337Z"/>
    <path class="st0" d="M10.001,226.983c-.226,0-.456-.01-.69-.031-2.693-.236-4.562-2.259-4.348-4.706.12-1.375.77-2.567,1.828-3.355.932-.694,2.13-1.051,3.474-1.052.046-1.732.033-3.79-.043-5.109-.023-.407.12-.807.397-1.106s.665-.473,1.073-.48l2.915-.053c.812-.007,1.503.635,1.527,1.457l.011.504c.74.005,1.446,0,1.885-.013.397-.017.793.137,1.084.414.291.278.458.661.464,1.063l.041,2.841c.005.399-.148.783-.426,1.069s-.659.448-1.058.453c-.548.005-1.267-.003-1.987-.017-.013.191-.029.38-.046.567.592.278,1.351.663,2.428,1.218.355.183.623.5.743.882.121.381.084.795-.102,1.148l-1.388,2.645c-.188.357-.511.624-.897.74-.385.116-.802.071-1.156-.123-.54-.298-.986-.529-1.401-.723-1.085,1.156-2.573,1.767-4.327,1.767ZM12.086,220.941c.469.335.7.912.604,1.471.402-.474,1.067-.658,1.667-.434.253.094.501.193.752.301-.495-.24-.852-.397-1.139-.5-.633-.228-1.033-.847-.99-1.508-.096.158-.221.298-.37.413-.158.121-.336.208-.524.258ZM6.457,222.377h.01-.01ZM13.287,215.086c.005.581.003,1.183-.004,1.772.076-.226.204-.433.378-.602.145-.141.314-.249.499-.321-.397-.147-.715-.457-.872-.85Z"/>
    <path class="st0" d="M16.697,235.69c-.137,0-.275-.006-.414-.019-2.684-.235-4.477-2.18-4.263-4.626h0c.191-2.185,2.075-4.399,4.761-4.161,2.538.222,4.355,2.344,4.138,4.832-.097,1.106-.572,2.118-1.339,2.849-.77.733-1.781,1.125-2.882,1.125ZM16.153,231.496c.051.069.196.188.405.206.07.007.204,0,.254-.062.057-.07.119-.252.054-.469-.025-.094-.202-.284-.433-.304-.081-.007-.108,0-.164.07-.113.139-.159.362-.117.559ZM16.165,231.544s0,.001,0,.002h0s0-.001,0-.002ZM16.14,231.476h0Z"/>
  </g>
  <g>
    <path class="st1" d="M47.057,13.999c.529-1.092,1.082-2.652,1.36-3.767l2.618.861c-.34,1.199-.894,2.777-1.407,3.89l-2.57-.984ZM52.787,9.024c-1.528-.098-3.053-.231-4.234-.353l.278-2.976c.93.116,2.492.235,4.181.348.067-.971.136-1.76.164-2.281l3.199.207c-.021.649-.07,1.422-.124,2.249,1.692.075,3.133.129,3.73.127l-.211,3.036c-.505-.008-1.965-.063-3.745-.165-.25,3.068-.561,6.205-.743,7.454l-3.21-.28c.199-1.248.479-4.44.717-7.366ZM56.959,11.956l2.441-1.251c.537,1.096,1.418,2.384,2.014,3.212l-2.276,1.646c-.744-1.006-1.493-2.354-2.179-3.606ZM59.412,3.747h1.626c.03.688.008,1.77-.001,2.294l-1.627.002c.016-.595.014-1.607.002-2.296ZM61.885,3.783l1.591-.005c.03.689.028,1.756.016,2.297l-1.646.019c.022-.667.019-1.662.04-2.311Z"/>
    <path class="st1" d="M50.952,31.867c1.708-1.966,2.997-4.293,3.786-6.501-1.214-.178-2.395-.317-3.402-.369-.426.739-.887,1.459-1.401,2.173l-2.621-1.44c1.324-1.908,2.131-3.917,2.792-6.1l3.02.806c-.116.496-.25.99-.399,1.466,1.708.113,3.838.336,6.165.811-.895,4.024-2.645,8.119-5.352,10.756l-2.589-1.601Z"/>
    <path class="st1" d="M54.572,36.968l1.963-1.78c.677.729,2.438,2.925,2.767,3.911l-2.149,1.421c-.322-.661-2.052-2.981-2.581-3.552Z"/>
    <path class="st1" d="M52.516,55.927c1.292-1.351,1.68-2.059,1.777-3.171.023-.269-.011-.488-.116-.732-1.699,2.888-4.272,4.614-7.059,4.442-1.8-.085-3.001-1.438-2.861-3.25.196-2.242,1.736-3.933,4.185-4.658.031-.359.062-.718.092-1.059-.92-.009-1.752-.009-2.277,0l-.016-2.712c.724-.009,1.645,0,2.564.025.039-.449.1-.931.149-1.288l2.678.379c-.029.124-.059.465-.123.982,1.101.024,2.449.106,3.257.177l-.146,2.698c-.717-.062-2.032-.123-3.401-.17-.017.197-.036.412-.055.627,3.607.081,6.043,2.192,5.797,5.008-.15,1.723-.927,3.154-2.284,4.211l-2.163-1.509ZM48.078,53.967c.034-1.009.096-1.926.15-2.752-.779.438-1.21,1.032-1.273,1.75-.057.646.171.937.817.993.197.018.251.022.306.009ZM52.084,50.738c-.319-.082-.677-.113-1.128-.117-.027.306-.06.683-.128,1.869.419-.451.831-1.03,1.256-1.752Z"/>
    <path class="st1" d="M43.249,67.438c.385-.888.763-1.903,1.109-2.976-.52-.045-1.004-.088-1.417-.124l.332-2.754c.61.054,1.221.089,1.831.142.144-.602.273-1.259.387-1.937l2.963.422c-.123.586-.262,1.134-.382,1.685.503.025,1.026.054,1.927.078l-.169,2.769c-.685-.023-1.405-.052-2.504-.093-.411,1.392-.803,2.568-1.15,3.441l-2.925-.653ZM50.183,67.719c.358.031.448.039.625.073.005-.47-.001-1.013-.012-1.52l2.918.111c.016.851-.016,1.625-.091,2.287.867.419,1.738,1.001,2.204,1.458l-1.803,2.229c-.269-.241-.658-.547-.999-.774-.045.104-.092.227-.136.312-.725,1.474-1.919,2.11-3.66,1.958-4.071-.356-3.729-6.545.953-6.135ZM50.545,70.39c-.318-.082-.532-.119-.729-.136-.626-.073-.986.112-1.022.524-.031.359.302.677.769.718.448.039.77-.33.982-1.106ZM51.522,64.801l.667-2.454c1.114.278,2.154.586,4.229,1.237l-.667,2.454c-.842-.29-2.182-.679-4.23-1.237Z"/>
    <path class="st1" d="M41.624,88.275c.149-.872.79-4.069,1.468-7.264-.615,0-1.228-.018-1.825-.015l.155-2.807c.958-.006,1.664-.017,2.277,0,.323-1.417.471-2.073.556-2.427l2.928.617c-.168.69-.313,1.31-.436,1.878.723.009,1.531.062,2.553.151l-.24,2.744c-1.007-.052-2.035-.088-2.938-.094-.652,2.906-1.481,6.811-1.641,7.809l-2.858-.594ZM48.312,89.71l.506-2.685c1.589.428,4.528.722,5.662.567l-.002,2.712c-.552.113-1.493.122-2.676.019-1.363-.119-2.734-.366-3.49-.613ZM49.122,82.316c1.596-.059,3.772.059,5.146.27l-.239,2.727c-1.504-.15-3.753-.274-4.895-.247l-.012-2.749Z"/>
    <path class="st1" d="M44.564,104.668c1.882-3.125,2.31-5.329.968-5.681-.142-.031-.319-.082-.515-.118-1.218,2.768-2.547,5.778-2.693,6.199l-2.418-1.079c.081-.3.72-1.816,2.259-5.369-.828-.036-1.479-.021-1.861,0l.123-2.844c.707-.029,1.716.005,2.938.094.406-.922.948-2.158,1.237-2.783l2.523,1.124c-.134.296-.539,1.2-.896,1.964.625.091,1.122.188,1.511.295,2.628.736,2.184,5.613-.888,9.737l-2.288-1.538ZM49.227,95.786l2.238-.581c.36.844,1.115,3.368,1.356,4.546l-2.234.745c-.362-2.056-.806-3.596-1.36-4.71ZM51.901,93.941l1.382-.312c.127.209.461,1.342.501,1.706l-1.426.399c-.096-.352-.369-1.568-.458-1.793ZM53.869,93.553l1.38-.277c.148.374.37,1.152.483,1.705l-1.404.348c-.079-.333-.3-1.328-.459-1.775Z"/>
    <path class="st1" d="M39.83,120.552l.931-2.991c2.206,1.224,5.109,1.712,8.496,1.43l.092,3.081c-1.096.14-2.29.144-3.616.027-2.17-.19-4.274-.735-5.902-1.547ZM46.129,115.084c.165-.438.353-.927.486-1.421-1.562-.318-3.387-.749-5.241-1.236l.581-2.932c3.414.859,5.531,1.243,8.141,1.778-.459,1.533-1.027,3.472-1.436,4.629l-2.531-.818Z"/>
    <path class="st1" d="M46.042,135.496c1.914-1.839,1.924-4.224.038-5.401-1.315,4.097-3.951,6.541-6.353,5.896-1.784-.48-2.762-1.903-2.597-3.787.286-3.265,3.498-5.894,7.319-5.559,3.659.319,6.367,2.834,6.055,6.403-.145,1.65-.946,3.171-2.214,4.234l-2.248-1.787ZM43.298,129.472c-2.067.071-3.338,1.587-3.473,2.714-.036.412.022.996.64,1.158.635.183,2.03-1.72,2.833-3.872Z"/>
    <path class="st1" d="M35.489,140.64l2.336.15c.809.053,1.653.108,2.371.172,1.345.117,2.579.262,3.852.391l-.188,1.936c2.376.1,4.84.242,6.528.372l-.329,2.937c-.484-.043-1.004-.088-1.561-.137-.328,3.134-.509,5.612-.7,7.999l-2.926-.237c.12-1.363.443-4.859.73-7.925-.902-.025-1.531-.062-2.054-.071l-.441,4.425-8.233-.72c.137-3.006.499-7.566.614-9.291ZM37.449,147.771c.305.026.556.048.808.07.047-.538.085-.969.121-1.381-.271-.006-.541-.029-.827-.055-.007.289-.026.504-.102,1.365ZM38.523,144.593c.075-.861.096-1.095.104-1.4-.287-.025-.558-.031-.846-.038-.004.253-.022.468-.101,1.364l.843.074ZM40.141,147.988c.305.026.646.057.826.072.058-.446.098-.913.153-1.342-.177-.033-.321-.046-.877-.095-.052.592-.086,1.185-.102,1.364ZM41.321,144.838c.065-.535.107-1.021.16-1.413-.323-.028-.645-.074-.949-.102-.039.448-.082.933-.125,1.435l.915.08Z"/>
    <path class="st1" d="M35.179,162.569c.149-1.704.466-3.466.95-5.285l2.935.744c-1.096,3.646-1.304,8.093-.498,10.656l-2.986.661c-.485-2.103-.611-4.373-.401-6.776ZM40.456,168.145l.835-2.728c1.696.654,3.637.986,5.768,1.011l-.387,2.768c-1.528.119-4.396-.367-6.216-1.051ZM41.908,159.199c1.36.155,4.146.345,5.05.334l-.099,2.774c-.743.025-3.618-.172-5.319-.356l.368-2.752Z"/>
    <path class="st1" d="M35.516,180.198c-.497.101-1.011.2-1.528.317l-.492-2.844c.557-.169,1.129-.299,1.958-.479.004-1.5.028-2.799.077-3.771l2.949-.03c-.017.812,0,2.06.014,3.345.783-.059,1.524-.065,2.207-.024.314-1.526.575-2.643.732-3.207l2.707.671c-.347.873-.726,2.105-.932,3.009,1.697.637,2.643,1.804,2.759,3.368.014.255.01.507-.013.776-.195,2.225-1.838,3.653-4.602,3.845l-.874-2.625c1.881-.432,2.284-.686,2.274-1.409-.002-1.211-1.39-1.676-4.215-1.399.064,3.603.129,5.958.225,6.942l-2.949.031c-.125-1.259-.243-3.835-.298-6.515Z"/>
    <path class="st1" d="M38.755,196.273c2.288-.739,3.737-1.191,3.733-1.969-.007-1.157-1.826-1.642-6.151-1.171l-.205-2.62c1.812-.258,3.353-.303,4.626-.191,3.354.293,4.892,1.729,4.946,3.577.009.109,0,.217-.012.343-.149,1.703-1.757,3.353-5.845,4.423l-1.092-2.392Z"/>
    <path class="st1" d="M37.321,206.88c-1.565-.082-3.502-.251-5.291-.463l.327-2.917c3.562.402,6.896.712,9.218.825l.55,1.981c-4.88,3.513-5.33,5.769-1.5,7.441l-2.204,2.266c-4.066-1.874-4.592-6.186-1.099-9.134Z"/>
    <path class="st1" d="M30.54,225.712c1.835-1.773,5.37-5.188,7.024-6.741l2.254,2.33c-1.24,1.156-3.568,3.393-4.748,4.482.545.59,2.571,2.43,4.52,4.119l-2.491,2.24c-1.362-1.168-4.94-4.681-6.559-6.431Z"/>
    <path class="st1" d="M30.352,246.042c.252-2.888,4.378-3.357,5.567-.832.068-.156.105-.37.128-.64.15-1.722-1.771-2.485-5.153-2.041l-.307-1.039c1.084-1.242,1.712-2.019,2.669-3.236-.859-.094-1.954-.189-2.942-.257l.201-2.712c.466.041.933.081,1.381.121,1.65.144,3.334.309,6.09.622-1.384,1.977-2.08,2.909-3.084,4.268,2.452.069,4.149,1.953,3.938,4.375-.245,2.798-2.289,4.462-5.159,4.211-2.027-.178-3.456-1.404-3.33-2.84ZM34.757,246.717c.078-1.511-1.919-1.613-2.06-.83-.065.536.288.838.787.918.463.076.952.065,1.272-.088Z"/>
    <path class="st1" d="M35.01,261.592c1.914-1.839,1.924-4.224.039-5.401-1.316,4.097-3.951,6.54-6.353,5.896-1.784-.48-2.762-1.904-2.597-3.787.286-3.265,3.498-5.894,7.318-5.56,3.659.32,6.367,2.835,6.055,6.404-.145,1.65-.947,3.17-2.214,4.234l-2.248-1.787ZM32.266,255.568c-2.067.071-3.338,1.587-3.473,2.714-.036.412.021.996.64,1.158.635.183,2.03-1.72,2.833-3.872Z"/>
    <path class="st1" d="M27.514,277.035c-.006-1.176.768-2.373,2.233-3.42-.327-.191-.692-.35-1.147-.516.22-1.065.384-1.919.542-2.683-.682-.06-1.415-.142-2.257-.233l.364-2.715c.808.07,1.615.141,2.421.212.097-.479.192-.941.265-1.369l2.942.456c-.086.354-.154.728-.243,1.118.755.048,1.494.076,2.233.086l-.162,2.68c-.777.004-1.697-.022-2.669-.07-.115.495-.21.957-.303,1.401.208.107.362.193.518.279.9-.373,1.737-.643,2.587-.857l.456,2.643c-.294.063-.591.146-.906.228.334.518.556.88.743,1.222l-2.24,1.431c-.345-.608-.713-1.146-1.089-1.595-.928.479-1.48,1.009-1.5,1.441-.035.81,1.544,1.146,4.552,1.065l-.18,2.678c-.688.013-1.337-.008-1.947-.062-3.336-.292-5.199-1.521-5.213-3.42Z"/>
    <path class="st1" d="M32.973,283.851l1.963-1.78c.677.729,2.438,2.925,2.767,3.911l-2.149,1.421c-.322-.661-2.053-2.981-2.581-3.552Z"/>
    <path class="st1" d="M29.065,13.962c.938-.804,1.548-1.582,1.868-2.349-.26.086-.501.154-.756.169-5.68.677-4.542-6.344.188-5.243.266.059.529.154.772.266.062-.717.08-.915.083-1.149-1.882-.183-3.725-.398-5.728-.646l.244-2.78c1.357.191,3.345.4,5.533.593-.016-.436-.014-.869-.032-1.286l3.008-.081c-.004.452.021.997.023,1.593.755.048,1.618.105,2.752.15l-.279,2.777c-.688.012-1.625-.016-2.578-.081-.096,1.095-.264,1.983-.527,2.72,1.013,2.059.157,5.021-1.975,6.876l-2.596-1.528ZM30.378,9.486c.113-.461-.25-.854-.824-.904-.986-.087-1.146,1.743.535,1.113.112-.045.208-.108.289-.209Z"/>
    <path class="st1" d="M23.971,29.218l.93-2.991c2.207,1.224,5.11,1.713,8.496,1.431l.093,3.08c-1.097.14-2.29.144-3.617.027-2.17-.19-4.274-.735-5.901-1.547ZM30.179,23.742c.132-.477.283-.951.395-1.411-1.385-.284-2.958-.692-5.061-1.238l.582-2.932c3.413.859,5.261,1.221,7.871,1.755-.324,1.437-.785,3.186-1.256,4.644l-2.531-.817ZM34.502,17.722l1.627-.003c.03.689.007,1.772-.002,2.296l-1.626.002c.001-.434.003-1.283.002-2.295ZM36.975,17.758l1.591-.006c.015.454.022,1.395.016,2.297l-1.646.019c.022-.666.019-1.66.039-2.31Z"/>
    <path class="st1" d="M23.215,40.949c1.836-1.773,5.37-5.188,7.024-6.741l2.254,2.329c-1.24,1.156-3.568,3.394-4.748,4.482.545.591,2.571,2.431,4.52,4.119l-2.491,2.24c-1.362-1.167-4.94-4.68-6.559-6.43Z"/>
    <path class="st1" d="M19.581,55.428c1.385-.547,1.981-.748,3.612-1.202l.586,2.383c-1.387.367-1.72.446-3.421,1.093l-.777-2.273ZM20.181,51.885l1.052-2.113c1.094.512,1.737.803,2.742,1.306l-1.096,2.2c-1.362-.752-1.767-.878-2.698-1.393ZM20.288,62.015c1.115-.554,2.075-.994,3.001-1.455-.846-.037-1.547-.081-2.033-.105l.164-2.281c.846.038,2.445.142,4.062.266l.06-.682-1.561-.137c.164-2.697.349-5.645.464-7.37.647.039,1.601.086,2.014.122l.583-1.286,2.047.559c-.173.327-.307.623-.44.901.646.057,1.29.131,2.042.214-.145,1.452-.625,5.693-.772,7.38l-1.632-.143-.057.646c1.203.087,2.781.225,4.234.353l-.198,2.26c-1.13-.1-1.614-.142-2.082-.164.877.511,1.74.983,2.812,1.529l-1.211,1.864c-1.237-.741-2.388-1.42-3.85-2.47-.083,1.349-.112,1.889-.141,2.428l-2.745-.24c.077-1.295.121-1.797.165-2.299-1.197.672-2.527,1.405-3.746,2.112l-1.18-2.001ZM27.773,55.784c.024-.269.064-.519.086-.77l-1.363-.119-.068.771,1.345.117ZM28.056,53.386c.043-.285.065-.536.102-.75-.537-.065-1.003-.106-1.507-.132-.021.232-.026.504-.049.772.484.042.97.066,1.454.109ZM30.3,57.071l1.117-2.234c1.537.822,1.901.999,3.28,1.554l-.944,2.32c-1.802-.682-2.027-.792-3.453-1.64ZM30.89,51.773c1.032-.435,1.777-.694,2.991-1.13l.839,2.188c-.882.375-1.74.679-2.93,1.262l-.9-2.319Z"/>
    <path class="st1" d="M21.272,72.671c.144-1.65.541-3.496,1.175-5.374l3.104.669c-1.712,4.694-1.619,8.589.354,8.762.969.084,1.755-.227,2.53-1.026l2.161,2.159c-1.49,1.532-3.1,2.169-5.055,1.997-3.139-.274-4.652-2.81-4.269-7.187Z"/>
    <path class="st1" d="M25.571,95.218c.3-.951.625-2.188.949-3.623-.918-.243-1.734-.423-2.556-.53-.991,2.643-2.128,3.663-4.089,3.564-1.601-.086-2.781-1.473-2.629-3.213.192-2.188,1.905-3.394,4.812-3.356.092-.426.186-.869.283-1.366-.859-.094-1.883-.165-3.142-.239l.263-2.797c.179.016.376.033.574.05,1.597.14,3.888.396,5.565.632l-.376,1.829c-.121.55-.223,1.101-.46,2.165.766.12,1.546.298,2.344.476.261-1.333.481-2.615.623-3.614l2.861.558c-.142,1-.367,2.335-.661,3.828.459.131.935.263,1.392.41l-.849,2.891c-.421-.146-.807-.287-1.175-.41-.321,1.4-.619,2.53-.893,3.393l-2.835-.646ZM21.308,90.85c-1.174-.012-1.699.213-1.745.733-.035.395.182.612.612.649.431.038.774-.384,1.133-1.383Z"/>
    <path class="st1" d="M16.786,104.313c.149-1.703.466-3.465.951-5.284l2.935.744c-1.096,3.646-1.304,8.092-.499,10.656l-2.986.661c-.484-2.104-.612-4.374-.401-6.777ZM22.064,109.89l.835-2.729c1.696.654,3.637.987,5.767,1.011l-.386,2.768c-1.529.119-4.397-.366-6.216-1.05ZM23.515,100.944c1.36.155,4.146.345,5.05.333l-.098,2.775c-.743.025-3.617-.172-5.319-.357l.367-2.751Z"/>
    <path class="st1" d="M17.044,120.996c.144-1.649.541-3.495,1.175-5.374l3.104.669c-1.712,4.695-1.619,8.589.354,8.762.969.085,1.755-.226,2.53-1.026l2.161,2.159c-1.49,1.532-3.1,2.169-5.055,1.998-3.139-.274-4.652-2.811-4.269-7.188Z"/>
    <path class="st1" d="M20.058,135.714c-1.565-.082-3.502-.252-5.292-.463l.328-2.917c3.562.402,6.896.712,9.218.824l.549,1.982c-4.88,3.514-5.331,5.77-1.5,7.442l-2.204,2.265c-4.065-1.874-4.592-6.186-1.099-9.134Z"/>
    <path class="st1" d="M11.927,159.236c.148-.874.789-4.07,1.467-7.265-.615,0-1.228-.018-1.825-.015l.156-2.807c.958-.007,1.664-.017,2.277,0,.323-1.418.471-2.074.556-2.428l2.928.617c-.168.69-.313,1.311-.436,1.878.722.009,1.531.062,2.553.151l-.24,2.744c-1.007-.052-2.035-.088-2.937-.094-.653,2.907-1.482,6.811-1.642,7.809l-2.857-.593ZM18.616,160.67l.506-2.685c1.589.429,4.528.722,5.662.567l-.002,2.712c-.552.113-1.493.122-2.677.019-1.363-.119-2.733-.366-3.489-.613ZM19.425,153.276c1.595-.06,3.772.059,5.145.27l-.239,2.727c-1.504-.15-3.752-.274-4.894-.247l-.012-2.749Z"/>
    <path class="st1" d="M10.203,175.437c1.314-2.217,3.522-7.825,4.433-11.216l3.065.702c-.435,1.66-1.298,4.296-2.158,6.48,1.096-.537,1.7-.828,2.206-1.036.629,4.176,1.534,4.779,4.616,3.024l1.431,2.438c-3.239,2.319-6.835,1.697-7.956-1.4-.64.287-1.266.63-2.101,1.081-.221.451-.478.916-.774,1.414l-2.762-1.488Z"/>
    <path class="st1" d="M15.468,184.46c-1.565-.082-3.502-.252-5.327-.466l.327-2.917c3.562.401,6.7.694,8.931.799l.547,2.019c-4.647,3.533-5.006,5.779-1.211,7.431l-2.204,2.266c-4.015-1.834-4.503-6.16-1.063-9.131ZM20.159,180.425l1.627-.003c.03.689.008,1.772-.002,2.296l-1.627.002c.001-.434.004-1.283.002-2.295ZM22.631,180.46l1.592-.006c.014.454.022,1.395.016,2.298l-1.646.018c.022-.666.019-1.66.039-2.31Z"/>
    <path class="st1" d="M12.029,208.681c.938-.804,1.548-1.582,1.868-2.35-.261.086-.501.155-.756.169-5.68.678-4.542-6.343.188-5.243.266.06.529.154.772.267.062-.718.08-.915.082-1.149-1.881-.183-3.725-.398-5.727-.646l.243-2.78c1.357.19,3.345.4,5.533.593-.016-.436-.014-.869-.032-1.286l3.007-.081c-.003.452.022.997.023,1.593.756.048,1.618.105,2.753.15l-.28,2.777c-.687.012-1.625-.016-2.577-.081-.096,1.094-.264,1.983-.527,2.719,1.013,2.06.157,5.021-1.976,6.877l-2.595-1.528ZM13.342,204.205c.113-.46-.25-.854-.824-.903-.986-.087-1.146,1.743.535,1.113.112-.045.208-.108.289-.21Z"/>
    <path class="st1" d="M6.457,222.377c.201-2.296,2.347-3.482,5.241-2.885.119-1.979.122-5.105.021-6.849l2.915-.053c.022.779.024,1.377.047,1.938,1.154.028,2.636.032,3.397.008l.041,2.841c-.922.01-2.347-.024-3.412-.045-.011,1.155-.099,2.16-.229,3.034.666.239,1.55.678,3.365,1.613l-1.388,2.645c-1.051-.58-1.797-.935-2.621-1.241-.891,1.513-2.419,2.246-4.393,2.074-1.847-.162-3.125-1.467-2.984-3.081ZM9.763,223.226c.503.025,1.117-.372,1.449-1.066-1.317-.639-2.576-.099-2.069.724.143.229.368.339.621.343Z"/>
    <path class="st1" d="M13.514,231.177c.13-1.488,1.415-2.948,3.136-2.798,1.686.147,2.923,1.503,2.774,3.207-.125,1.435-1.217,2.749-3.01,2.592-1.74-.152-3.047-1.314-2.9-3.001ZM17.603,231.119c-.182-.612-.538-.878-.914-.911-.7-.062-1.47.685-1.261,1.39.137.5.497.73.874.764.7.061,1.511-.537,1.302-1.242Z"/>
  </g>
</svg>