<?xml version="1.0" encoding="UTF-8"?>
<svg id="_レイヤー_1" data-name="レイヤー_1" xmlns="http://www.w3.org/2000/svg" version="1.1" viewBox="0 0 65 305">
  <!-- Generator: Adobe Illustrator 29.0.1, SVG Export Plug-In . SVG Version: 2.1.0 Build 192)  -->
  <defs>
    <style>
      .st0 {
        fill: #fff;
      }

      .st1 {
        fill: #3c291a;
      }
    </style>
  </defs>
  <g>
    <path class="st0" d="M56.123,21.721c-.1,0-.201-.004-.3-.013-1.557-.136-2.707-1.268-2.858-2.816-.027-.292-.028-.582-.004-.869.117-1.327.819-2.373,1.849-2.83-.056-.038-.111-.079-.165-.121-.655-.515-1.066-1.277-1.157-2.145-.028-.301-.029-.591-.005-.878.117-1.326.819-2.373,1.849-2.83-.056-.038-.11-.078-.164-.12-.656-.516-1.067-1.278-1.157-2.146-.029-.297-.03-.592-.004-.884.137-1.577,1.113-2.763,2.485-3.02.234-.059.551-.08.898-.049,1.601.14,2.92,1.322,3.134,2.811.049.256.062.572.033.906-.112,1.29-.923,2.352-2.07,2.808.057.036.113.073.167.112.748.532,1.227,1.295,1.348,2.149.048.254.062.569.032.904-.112,1.29-.923,2.351-2.069,2.809.056.035.111.072.166.111.749.532,1.227,1.295,1.349,2.149.048.255.062.57.032.904-.138,1.582-1.326,2.82-2.896,3.021-.159.024-.326.037-.494.037ZM56.013,17.943c.018,0-.045.117-.064.338-.009.104-.009.215.001.328.007.075.01.101.135.112.021-.003.124-.007.145-.01.179-.021.278-.125.294-.307.006-.078.003-.12-.005-.163-.011-.066-.037-.122-.126-.185-.141-.101-.305-.126-.38-.113h0ZM56.534,11.969c.019,0-.043.118-.063.339-.009.104-.009.215.001.327.005.044.019.075.024.079.019.014.091.045.231.027.008,0,.016-.002.024-.003.179-.021.278-.125.294-.308.006-.077.003-.12-.005-.161-.011-.073-.043-.127-.125-.186-.143-.102-.309-.126-.382-.114h0ZM57.126,5.989c-.047,0-.112.118-.132.344-.009.108-.01.214,0,.321.043.101.117.133.254.113.009,0,.018-.002.027-.003.178-.021.277-.124.293-.307.006-.077.003-.12-.004-.16-.019-.122-.208-.288-.438-.308Z"/>
    <path class="st0" d="M54.678,38.218c-.1,0-.2-.004-.299-.013-1.557-.136-2.707-1.268-2.858-2.816-.027-.292-.028-.582-.004-.869.117-1.326.819-2.373,1.849-2.83-.056-.039-.111-.079-.164-.121-.656-.515-1.067-1.277-1.157-2.145-.028-.306-.029-.598-.003-.886.115-1.319.817-2.366,1.847-2.822-.056-.039-.111-.079-.165-.121-.655-.516-1.066-1.277-1.156-2.146-.029-.297-.03-.592-.004-.884.137-1.577,1.113-2.763,2.485-3.02.236-.058.552-.08.898-.049,1.602.14,2.921,1.322,3.136,2.811.047.262.061.575.032.906-.112,1.29-.923,2.352-2.07,2.809.057.036.113.073.167.112.748.532,1.226,1.295,1.348,2.149.048.254.062.569.032.903-.112,1.29-.923,2.352-2.069,2.809.057.036.112.073.167.112.748.532,1.226,1.295,1.348,2.149.048.254.062.569.032.903-.138,1.583-1.328,2.821-2.898,3.022-.16.024-.327.036-.493.036ZM54.568,34.439c.019,0-.043.118-.063.339-.009.104-.009.215.001.328.007.075.01.101.135.112.02-.003.125-.008.145-.01.179-.021.278-.125.294-.307.006-.077.003-.119-.005-.161-.011-.073-.043-.128-.126-.187-.142-.101-.306-.126-.382-.114h0ZM55.091,28.466c.019,0-.043.117-.062.337-.01.111-.01.219,0,.329.005.044.019.075.025.079.018.014.095.046.23.027.008,0,.016-.002.024-.003.179-.021.278-.125.294-.308.006-.077.003-.119-.005-.161-.011-.073-.043-.127-.125-.186-.143-.102-.311-.127-.382-.114h0ZM55.683,22.486c-.047,0-.112.118-.132.344-.009.108-.01.214,0,.321.042.1.119.132.256.113.008,0,.017-.002.025-.003.178-.021.276-.124.292-.307.006-.068.004-.115-.005-.167-.018-.115-.207-.28-.438-.301Z"/>
    <path class="st0" d="M49.875,52.563c-.64,0-1.224-.41-1.426-1.039l-.967-2.995c-.126-.392-.086-.818.111-1.18s.534-.626.933-.731c.183-.048.362-.098.537-.147-.768-.362-1.694-.835-2.52-1.357-.678-.428-.898-1.314-.501-2.011l1.218-2.135c.096-.167.222-.313.37-.431-.085-.375-.027-.781.192-1.131l1.28-2.039c.213-.339.554-.58.946-.667.392-.086.802-.013,1.139.205,1.199.775,2.132,1.315,3.326,1.926.369.188.644.522.759.92s.06.827-.153,1.183l-1.229,2.061c-.078.13-.172.245-.279.342.021.271-.033.546-.159.793l-.364.715c1.589-.952,2.568-2.121,3.566-3.696.213-.337.552-.575.94-.661.389-.088.796-.016,1.132.199l2.567,1.635c.63.401.869,1.205.561,1.885-1.998,4.403-5.932,7.206-11.692,8.329-.097.019-.193.028-.288.028ZM50.812,49.077l.071.219c3.534-.926,6.095-2.666,7.636-5.186l-.174-.111c-1.651,2.248-3.652,3.839-7.533,5.078Z"/>
    <path class="st0" d="M58.412,64.313c-.037,0-.074-.001-.112-.004-1.336-.099-2.672-.198-4.077-.321-.676-.059-1.369-.124-2.082-.19-.743-.069-1.506-.141-2.294-.21-.404-.035-.776-.232-1.032-.546-.256-.314-.374-.718-.328-1.121l.295-2.541c.081-.695.625-1.225,1.29-1.314-.074-.2-.105-.415-.09-.631l.184-2.515c.06-.822.777-1.456,1.594-1.387.827.054,1.617.123,2.389.19,1.433.125,2.573.248,3.73.4.796.104,1.368.817,1.299,1.617-.052.605-.172,1.755-.319,3.081.762.126,1.311.817,1.248,1.599l-.201,2.513c-.062.785-.719,1.38-1.494,1.38ZM55.566,61.09c.152.012.303.024.454.037-.081-.102-.146-.212-.198-.328-.072.108-.159.206-.255.292ZM56.001,56.918c.014.018.027.036.041.055.002-.017.003-.033.005-.05-.015-.001-.031-.003-.046-.005Z"/>
    <path class="st0" d="M54,81.472c-.06,0-.12-.003-.181-.011-1.753-.21-6.682-1.476-8.335-2.037-.761-.258-1.184-1.07-.958-1.842l.825-2.82c.072-.247.202-.461.372-.632-.112-.276-.14-.581-.077-.877l.581-2.714c.018-.082.041-.16.071-.235-.069-.068-.132-.143-.188-.224-.236-.343-.318-.769-.227-1.175l.625-2.801c.172-.768.906-1.269,1.685-1.157,2.428.361,6.433,1.309,8.086,1.913.712.26,1.118,1.01.946,1.748l-.667,2.87c-.091.393-.336.731-.679.94.008.15-.006.304-.045.457l-.688,2.687c-.013.052-.029.103-.048.153.306.106.572.309.755.582.227.338.307.753.221,1.151l-.61,2.838c-.15.698-.767,1.185-1.465,1.185Z"/>
    <path class="st0" d="M52.39,94.287c-.429,0-.852-.184-1.145-.53l-1.654-1.952c-.286-.338-.408-.785-.334-1.221.074-.437.337-.818.719-1.042.437-.257.821-.562,1.158-.901l-.629.018c-.178.003-.333-.019-.487-.066-.148.054-.305.085-.465.09l-2.394.08c-.792.013-1.443-.544-1.539-1.313-.114-.917-.14-2.496-.057-3.449.071-.808.769-1.408,1.579-1.366l2.302.13c.138.008.271.034.396.076.18-.063.374-.094.568-.083l2.286.11c.526.025.979.32,1.227.748.319-.199.713-.276,1.111-.188l2.589.57c.801.176,1.312.963,1.146,1.767-.771,3.749-2.773,6.707-5.638,8.328-.232.131-.486.194-.738.194Z"/>
    <path class="st0" d="M47.868,110.243c-.043,0-.087-.002-.131-.006l-3.391-.296c-.814-.071-1.421-.781-1.366-1.597.067-.975.23-3.05.432-5.358h0c.192-2.194.472-5.24.712-7.301.046-.397.249-.76.564-1.007.315-.247.715-.356,1.113-.308l3.325.417c.809.102,1.389.831,1.305,1.642-.092.896-.193,2.012-.299,3.21,1.42.723,3.359,1.647,4.185,1.969.381.148.686.447.842.825.156.378.151.804-.015,1.179l-1.284,2.906c-.32.726-1.15,1.078-1.896.799-.75-.279-1.594-.667-2.403-1.071-.091,1.121-.161,2.043-.198,2.595-.026.402-.214.777-.521,1.04-.273.234-.62.361-.976.361ZM46.083,107.082l.4.035c.073-.938.17-2.117.281-3.386.044-.506.342-.956.791-1.194.449-.238.988-.233,1.432.013,1.001.556,1.932,1.035,2.728,1.405l.078-.175c-1.346-.62-3.027-1.456-3.949-1.95-.529-.284-.838-.855-.786-1.454l.012-.136c.082-.934.162-1.84.237-2.658l-.366-.046c-.192,1.842-.391,4.028-.539,5.71h0c-.125,1.442-.237,2.792-.318,3.835Z"/>
    <path class="st0" d="M52.058,127.303c-.477,0-1.016-.026-1.615-.079-1.465-.128-2.931-.389-3.824-.681-.716-.234-1.148-.963-1.008-1.704l.506-2.685c.065-.348.251-.659.522-.881-.148-.236-.23-.51-.231-.794l-.011-2.479c-.101-.003-.202-.007-.302-.01-.584,2.649-1.225,5.688-1.358,6.523-.065.405-.292.765-.63.998-.337.233-.754.317-1.156.234l-2.858-.594c-.791-.165-1.31-.926-1.173-1.722.123-.718.564-2.946,1.102-5.526-.404-.006-.789-.174-1.067-.467-.285-.3-.433-.704-.41-1.116l.155-2.806c.043-.791.694-1.411,1.486-1.417l.44-.003c.232-.002.448-.004.652-.005.149-.655.235-1.032.293-1.273.191-.789.976-1.279,1.768-1.114l2.928.618c.397.084.744.326.96.669s.284.761.187,1.155c-.009.037-.018.074-.027.11.252.019.524.042.818.067.396.035.763.225,1.019.53s.38.699.345,1.095l-.198,2.267c.374.007.755.02,1.135.039-.208-.265-.323-.594-.321-.935.002-.431.004-1.277.002-2.285,0-.398.157-.78.438-1.062.281-.282.662-.44,1.06-.441l1.627-.002h.002c.171,0,.335.029.488.081.113-.028.231-.042.354-.043l1.59-.005h.005c.81,0,1.473.642,1.499,1.452.015.465.024,1.43.018,2.357-.006.818-.666,1.479-1.483,1.489l-1.646.018c-.033.001-.064,0-.096-.002.341.305.538.761.495,1.249l-.238,2.727c-.026.306-.146.593-.338.826.1.053.195.119.283.195.326.285.513.697.513,1.13l-.002,2.71c0,.711-.5,1.324-1.196,1.468-.398.083-.898.124-1.497.124ZM42.569,115.095c.175.093.332.221.46.379.225.277.341.622.335.972.023-.104.046-.206.069-.308.145-.647.697-1.118,1.349-1.167-.166-.093-.313-.219-.435-.371-.244-.306-.357-.693-.32-1.079l-.093.41c-.148.652-.708,1.121-1.365,1.164Z"/>
    <path class="st0" d="M50.854,135.046c-.134,0-.269-.006-.406-.018-2.686-.235-4.479-2.181-4.265-4.626h0c.192-2.185,2.068-4.398,4.762-4.161,1.209.105,2.3.646,3.071,1.523.795.905,1.174,2.08,1.066,3.309-.204,2.328-1.99,3.974-4.229,3.974ZM50.316,130.852c.052.069.196.188.405.206.074.007.205,0,.255-.061.057-.07.119-.252.054-.47-.026-.097-.21-.285-.432-.304-.087-.01-.111.004-.165.07-.113.139-.158.362-.117.559ZM50.33,130.903h.01-.01ZM50.303,130.831h0Z"/>
    <path class="st0" d="M42.069,150.331c-.227,0-.458-.01-.693-.031-2.692-.235-4.561-2.258-4.348-4.705h0c.12-1.375.77-2.567,1.828-3.355.932-.694,2.13-1.051,3.474-1.052.046-1.729.033-3.787-.043-5.11-.023-.407.121-.807.398-1.105.277-.299.665-.473,1.073-.479l2.914-.053c.815-.022,1.504.636,1.526,1.458l.011.501c.734.005,1.441,0,1.888-.013.411-.008.792.137,1.083.416.291.278.458.661.463,1.063l.04,2.841c.005.398-.148.783-.426,1.068-.278.286-.659.448-1.058.453-.55.005-1.267-.004-1.986-.017-.013.191-.029.38-.046.567.591.278,1.351.663,2.428,1.218.355.183.623.5.743.882.121.381.084.795-.102,1.149l-1.388,2.644c-.188.357-.51.623-.896.739-.385.116-.802.072-1.156-.123-.541-.298-.988-.53-1.403-.723-1.085,1.155-2.572,1.766-4.324,1.766ZM44.151,144.29c.469.335.701.911.605,1.471.403-.474,1.069-.658,1.667-.434.25.093.495.191.743.297-.491-.238-.846-.394-1.131-.497-.634-.228-1.033-.847-.99-1.509-.095.157-.22.298-.37.413-.158.121-.336.208-.524.258ZM45.353,138.436c.004.581.003,1.183-.004,1.771.075-.226.204-.433.378-.603.144-.14.313-.248.497-.32-.396-.147-.714-.457-.871-.849Z"/>
    <path class="st0" d="M41.174,167.212c-.061,0-.122,0-.184,0-.738-.006-1.361-.548-1.47-1.278l-.411-2.747c-.064-.428.06-.863.339-1.192.1-.117.215-.217.342-.297-.503-.103-.935-.462-1.114-.972l-.42-1.193c-.175-.498-.076-1.05.26-1.456.369-.444.686-.827.97-1.172-.023,0-.045-.002-.068-.003-.412-.018-.799-.205-1.069-.517-.27-.312-.4-.721-.359-1.131l.281-2.813c.08-.793.786-1.374,1.563-1.349,1.988.094,4.268.246,6.098.406.621.054,1.145.101,1.554.155.513.068.955.396,1.168.867.214.471.17,1.019-.116,1.45-.81,1.218-1.373,2.052-1.918,2.825.664.312,1.242.742,1.705,1.274.87,1,1.282,2.314,1.16,3.703-.178,2.04-1.5,5.44-8.313,5.44ZM43.794,161.604h0ZM42.612,157.824c-.163.2-.332.407-.514.627.243-.014.476-.021.699-.017-.017-.03-.032-.061-.047-.092-.078-.166-.124-.342-.138-.519ZM43.327,154.303c.234.153.425.372.545.637.056.124.094.253.115.384.212-.298.422-.599.646-.925-.422-.033-.86-.065-1.307-.097Z"/>
    <path class="st0" d="M42.604,183.171c-.243,0-.489-.011-.74-.033-2.042-.178-3.637-1.141-4.613-2.783-.895-1.504-1.237-3.533-1.019-6.029h0c.157-1.792.588-3.771,1.248-5.723.244-.722.992-1.147,1.737-.986l3.104.669c.424.091.787.362.997.741.21.38.245.832.096,1.239-1.483,4.067-1.166,6.326-.864,6.757.417.023.768-.071,1.261-.58.28-.289.664-.453,1.065-.456.388-.007.788.155,1.072.439l2.16,2.159c.58.58.587,1.518.015,2.106-1.617,1.664-3.429,2.479-5.521,2.479ZM39.22,174.587c-.16,1.831.05,3.295.609,4.234.482.811,1.212,1.233,2.296,1.328,1.012.089,1.88-.102,2.699-.606l-.063-.063c-.77.435-1.609.609-2.533.526-.908-.079-1.691-.566-2.203-1.37-.983-1.544-.957-4.381.035-7.77l-.132-.028c-.363,1.298-.605,2.575-.708,3.749h0Z"/>
    <path class="st0" d="M41.93,199.798c-.348,0-.695-.12-.977-.361-1.386-1.188-5.01-4.739-6.685-6.55-.554-.599-.527-1.531.06-2.098l.139-.134c1.874-1.81,5.284-5.102,6.9-6.622.598-.56,1.536-.539,2.105.05l2.254,2.33c.28.29.432.679.421,1.081s-.182.784-.476,1.059c-.548.512-1.311,1.236-2.092,1.978-.511.485-1.031.979-1.504,1.426.868.803,2.104,1.908,3.328,2.968.325.282.514.69.518,1.12s-.177.841-.497,1.129l-2.491,2.24c-.285.256-.644.385-1.003.385ZM37.484,191.912c1.353,1.392,3.185,3.189,4.448,4.367l.229-.206c-1.451-1.284-2.861-2.574-3.362-3.117-.27-.292-.413-.68-.397-1.078.016-.397.189-.772.481-1.042.652-.602,1.656-1.556,2.631-2.481.342-.325.681-.646,1-.948l-.165-.171c-1.433,1.365-3.375,3.238-4.865,4.676Z"/>
    <path class="st0" d="M44.368,217.394c-.535,0-1.051-.288-1.321-.788-.17-.315-.354-.633-.539-.946-.081.123-.163.247-.248.379l-.204.312c-.413.63-1.229.857-1.908.526l-2.185-1.059c-.244-.118-.448-.299-.595-.52-.052,0-.111-.002-.167-.008-.152.717-.822,1.227-1.561,1.183l-2.139-.134c-.583-.037-1.067-.401-1.284-.904-.195.034-.395.03-.59-.014-.407-.091-.757-.347-.967-.707l-1.179-2.019c-.201-.345-.257-.756-.154-1.142s.354-.715.7-.914c.069-.04.135-.079.201-.118-.196-.272-.301-.611-.278-.972.114-1.758.169-2.784.215-3.642.038-.697.069-1.286.121-2.061.024-.36.177-.698.428-.953,0-.023.002-.046.005-.07l.208-2.386c.034-.396.225-.763.53-1.019s.7-.381,1.095-.345l1.089.095c.302-.396.791-.639,1.323-.588l2.152.188c.396.035.763.225,1.019.53.07.083.13.173.18.269.273.021.547.042.823.065.286-.425.784-.687,1.33-.66,1.166.066,3.113.201,4.78.316l2.205.15c.403.026.778.214,1.041.52s.391.705.355,1.107l-.223,2.548c-.021.245-.101.472-.224.667.035.151.047.31.033.472l-.715,8.18c-.022.257-.11.5-.251.71.021.032.041.064.062.097l.23.361c.231.365.294.812.173,1.226-.122.415-.416.757-.808.938l-2.129.989c-.204.095-.419.14-.631.14ZM34.344,211.217c.031.013.062.027.092.043.146.074.275.169.386.281.152-.166.342-.299.559-.384.021-.008.042-.016.063-.023-.205-.212-.338-.475-.393-.753-.086.21-.22.403-.396.56-.105.094-.209.186-.312.276ZM34.876,208.924c.063.086.118.18.163.281.045.101.079.206.1.312.004-.011.009-.021.014-.032.078-.175.186-.329.315-.458-.079-.055-.152-.118-.22-.188-.034-.035-.065-.071-.095-.109-.084.075-.177.14-.276.194ZM35.294,205.376c.024.023.048.047.07.072.02.021.038.043.056.065.021-.02.044-.038.067-.056.035-.027.071-.053.108-.078-.045-.042-.088-.086-.128-.134,0,0-.001-.001-.002-.002-.054.048-.111.093-.172.134ZM43.79,202.195c.061.07.116.146.164.228,0,0,0,0,0,.001.058-.075.122-.143.192-.205-.119-.008-.238-.017-.357-.025ZM35.562,202.037c.055.05.105.104.152.162.007-.006.014-.012.021-.018.053-.044.108-.085.167-.121-.044-.042-.086-.086-.126-.133-.009-.011-.018-.021-.026-.032-.059.052-.122.099-.188.142Z"/>
    <path class="st0" d="M39.609,233.007c-.303,0-.624-.016-.965-.046-3.219-.281-4.661-1.534-5.249-2.894-.127-.003-.257-.01-.388-.022-1.216-.106-2.296-.614-3.042-1.431-.778-.85-1.148-1.973-1.044-3.162.113-1.3.753-2.391,1.731-3.125-.189-.281-.304-.616-.273-.95l.271-2.886c.077-.82.792-1.432,1.625-1.354l1.214.106c0-.01.002-.02.003-.03.071-.821.782-1.434,1.616-1.365l2.871.233c.398.032.767.222,1.024.527.237.28.362.637.354,1.001.239.006.473.011.718.014.412.006.803.181,1.082.483.279.303.421.708.394,1.118l-.124,1.812,1.713-.677c.737-.291,1.572.041,1.909.757.832,1.77.999,2.159,1.455,3.594.234.738-.131,1.533-.844,1.835l-2.059.874.701.505c.324.234.542.587.604.982s-.035.798-.271,1.121c-1.598,2.181-2.871,2.976-5.025,2.976ZM35.004,226.994c.139.045.272.111.395.196.079.055.152.117.218.185-.021-.36-.004-.736.029-1.116.019-.214.007-.413-.036-.608-.147.582-.358,1.019-.605,1.343ZM38.604,227.149c.084.014.197.03.346.044.436.045.455.048.971-.626.277-.362.688-.564,1.111-.587-.278-.701-.535-1.251-.861-1.948l-.289-.621c-.409.009-.815.011-1.225.005-.072.43-.146.82-.224,1.188.192.618.26,1.261.202,1.918-.026.295-.032.495-.03.627ZM33.989,225.242l-.991.738c.174.235.413.306.482.312.201.03.5-.099.646-.304.039-.054.157-.22,0-.539-.037-.074-.083-.144-.137-.207ZM33.155,224.872l.469.095c-.125-.058-.26-.093-.397-.098-.024-.004-.048,0-.072.003ZM35.32,224.083c.03.036.058.071.083.105.013.017.025.034.037.052.023-.102.046-.206.068-.312-.059.057-.122.108-.189.154ZM35.126,220.339c.226.088.43.23.592.417.128.148.225.319.286.501.197-.438.595-.757,1.067-.854-.186-.087-.354-.213-.492-.372-.166-.19-.279-.417-.333-.658-.089.248-.242.471-.448.643-.195.164-.427.273-.672.322Z"/>
    <path class="st0" d="M41.614,240.735c-.137,0-.274-.006-.413-.019-2.685-.235-4.478-2.18-4.264-4.625h0c.096-1.104.616-2.184,1.425-2.963.914-.881,2.103-1.31,3.337-1.198,1.209.105,2.3.647,3.07,1.523.795.905,1.174,2.08,1.066,3.308-.096,1.106-.572,2.118-1.338,2.848-.77.733-1.782,1.125-2.883,1.126ZM41.07,236.541c.051.069.196.188.404.206.07.008.205,0,.256-.062.057-.07.119-.253.054-.47-.025-.095-.21-.284-.433-.303-.087-.01-.11.004-.164.07-.113.139-.159.362-.117.56ZM41.083,236.589s0,0,0,.001h0s0-.001,0-.001ZM41.057,236.521h0s0,0,0,0ZM38.431,236.222h.01-.01Z"/>
  </g>
  <g>
    <path class="st1" d="M56.408,20.199c-.146.024-.31.027-.453.015-.771-.067-1.412-.593-1.498-1.468-.019-.201-.019-.399-.002-.597.071-.807.478-1.53,1.268-1.678.956-.188,2.127.475,2.272,1.5.037.203.039.383.023.563-.086.986-.825,1.572-1.61,1.666ZM56.93,14.227c-.969.132-1.843-.415-1.951-1.454-.019-.201-.019-.399-.002-.597.071-.808.478-1.531,1.268-1.679.956-.187,2.127.476,2.272,1.5.037.202.039.383.023.562-.086.986-.825,1.573-1.61,1.667ZM57.453,8.253c-.969.133-1.843-.414-1.95-1.454-.02-.2-.02-.399-.002-.597.07-.807.477-1.531,1.267-1.678.166-.04.33-.044.49-.03.826.072,1.658.67,1.782,1.53.037.202.039.383.023.562-.086.987-.825,1.573-1.61,1.666Z"/>
    <path class="st1" d="M54.964,36.696c-.146.023-.31.027-.453.015-.771-.067-1.412-.593-1.498-1.468-.019-.201-.019-.399-.002-.597.071-.807.478-1.53,1.268-1.679.956-.187,2.127.476,2.272,1.501.037.202.039.383.023.562-.086.986-.825,1.572-1.61,1.666ZM55.487,30.724c-.969.132-1.843-.415-1.951-1.454-.019-.201-.019-.399,0-.597.07-.808.477-1.531,1.267-1.679.956-.187,2.127.476,2.272,1.5.037.202.039.383.023.562-.086.987-.825,1.573-1.61,1.667ZM56.01,24.75c-.97.132-1.844-.414-1.951-1.454-.02-.2-.02-.399-.002-.597.07-.807.477-1.531,1.267-1.678.167-.04.33-.044.49-.03.826.072,1.659.67,1.783,1.53.036.202.038.383.022.562-.086.986-.825,1.573-1.609,1.666Z"/>
    <path class="st1" d="M47.345,43.846l1.218-2.135c1.22.722,2.256,1.264,3.553,1.739l-1.136,2.232c-1.15-.48-2.573-1.165-3.635-1.836ZM48.91,48.068c5.181-1.372,7.124-3.136,9.013-6.116l2.567,1.635c-1.925,4.242-5.813,6.54-10.613,7.476l-.967-2.995ZM49.092,40.204l1.28-2.039c1.197.774,2.178,1.347,3.458,2.001l-1.229,2.061c-1.129-.532-2.506-1.321-3.51-2.023Z"/>
    <path class="st1" d="M50.273,59.552c1.146.118,2.741.276,4.302.413.08-.716.163-1.45.24-2.129-1.162-.138-2.115-.203-3.336-.292l.184-2.515c.826.054,1.616.124,2.387.191,1.22.107,2.385.226,3.635.39-.071.825-.27,2.67-.49,4.584.538.047,1.023.071,1.418.106l-.201,2.513c-1.329-.098-2.658-.197-4.057-.319-1.382-.121-2.833-.266-4.376-.4l.295-2.541Z"/>
    <path class="st1" d="M45.965,78.004l.825-2.82c2.242.612,5.843,1.596,7.818,1.949l-.61,2.838c-1.646-.198-6.453-1.432-8.033-1.968ZM47.113,73.568l.581-2.714c2.222.429,5.742,1.297,6.688,1.651l-.688,2.687c-1.387-.464-4.408-1.253-6.581-1.624ZM47.347,69.233l.625-2.801c2.354.351,6.232,1.269,7.792,1.838l-.667,2.87c-1.875-.67-5.733-1.604-7.75-1.907Z"/>
    <path class="st1" d="M47.056,84.132l2.302.13c-.027.937,0,2.06.143,2.922l-2.394.08c-.096-.768-.128-2.253-.051-3.132ZM50.334,84.256l2.286.11c.017.833.062,1.976.177,2.727l-2.337.067c-.115-.751-.165-2.039-.126-2.903ZM50.735,90.835c2.115-1.243,3.376-3.464,3.973-5.943l2.589.57c-.599,2.912-2.168,5.774-4.907,7.325l-1.654-1.952Z"/>
    <path class="st1" d="M44.907,103.116c.224-2.547.489-5.379.708-7.258l3.325.417c-.118,1.146-.25,2.653-.389,4.232,1.329.712,4.086,2.056,5.222,2.499l-1.284,2.906c-1.208-.45-2.8-1.257-4.23-2.051-.186,2.117-.331,3.984-.391,4.882l-3.391-.296c.066-.97.229-3.035.43-5.331Z"/>
    <path class="st1" d="M40.396,123.683c.149-.873.79-4.07,1.468-7.264-.614,0-1.229-.017-1.824-.015l.155-2.806c.958-.007,1.664-.018,2.276,0,.323-1.417.471-2.073.557-2.427l2.928.618c-.169.689-.313,1.309-.436,1.877.723.009,1.531.062,2.554.151l-.24,2.745c-1.008-.052-2.035-.088-2.938-.095-.652,2.907-1.481,6.811-1.642,7.81l-2.858-.594ZM47.084,125.118l.506-2.685c1.59.428,4.528.722,5.662.568l-.002,2.71c-.553.114-1.493.123-2.677.02-1.363-.119-2.733-.366-3.489-.613ZM47.894,117.724c1.597-.06,3.772.059,5.146.269l-.238,2.727c-1.505-.15-3.754-.274-4.895-.247l-.013-2.749ZM51.685,113.031l1.627-.002c.03.69.007,1.772-.002,2.295l-1.627.002c.002-.433.004-1.283.002-2.295ZM54.159,113.067l1.59-.005c.015.454.023,1.394.017,2.297l-1.646.018c.022-.667.019-1.662.04-2.31Z"/>
    <path class="st1" d="M47.677,130.532c.131-1.488,1.415-2.948,3.137-2.797,1.687.147,2.924,1.502,2.774,3.207-.126,1.435-1.216,2.749-3.01,2.592-1.74-.152-3.049-1.315-2.901-3.001ZM51.767,130.475c-.182-.613-.537-.878-.914-.912-.699-.061-1.47.685-1.261,1.39.138.5.497.73.874.764.699.061,1.511-.537,1.301-1.242Z"/>
    <path class="st1" d="M38.522,145.725c.201-2.296,2.348-3.481,5.241-2.885.119-1.978.121-5.104.021-6.849l2.914-.052c.021.78.023,1.376.047,1.938,1.154.028,2.637.031,3.397.008l.04,2.841c-.922.01-2.347-.025-3.411-.046-.011,1.156-.099,2.16-.229,3.035.666.239,1.55.678,3.365,1.614l-1.388,2.644c-1.053-.58-1.799-.935-2.621-1.242-.892,1.513-2.42,2.247-4.393,2.074-1.848-.162-3.125-1.466-2.984-3.081ZM41.829,146.575c.503.026,1.116-.373,1.448-1.066-1.317-.64-2.576-.099-2.069.723.143.229.367.339.621.344Z"/>
    <path class="st1" d="M40.592,162.964c3.168-.048,4.491-.511,4.561-1.499.107-1.437-1.697-1.883-5.062-1.238l-.42-1.193c1.313-1.584,1.98-2.394,2.834-3.476-1.079-.058-2.212-.121-3.021-.156l.281-2.813c1.818.086,4.119.234,6.038.402.592.052,1.095.096,1.487.148-1.396,2.101-2.035,3.021-3.184,4.565,2.483.127,4.077,1.749,3.886,3.937-.238,2.727-2.619,4.109-6.989,4.07l-.411-2.747Z"/>
    <path class="st1" d="M37.726,174.456c.145-1.65.54-3.495,1.175-5.374l3.104.669c-1.712,4.694-1.619,8.588.354,8.761.968.085,1.754-.226,2.529-1.025l2.16,2.159c-1.489,1.533-3.1,2.168-5.055,1.998-3.139-.274-4.651-2.811-4.269-7.188Z"/>
    <path class="st1" d="M35.371,191.868c1.836-1.773,5.37-5.187,7.024-6.742l2.254,2.33c-1.239,1.157-3.568,3.394-4.748,4.482.545.59,2.571,2.43,4.521,4.119l-2.491,2.24c-1.362-1.168-4.941-4.68-6.56-6.43Z"/>
    <path class="st1" d="M33.756,212.597c-.547.458-1.051.848-1.8,1.361l-1.179-2.019c1.198-.691,1.977-1.31,2.878-2.116-.091.01-.181.002-.271-.005l-1.937-.17c.206-3.181.221-3.975.336-5.7,1.168.084,2.191.156,2.678.18l.086-.986c-.771-.067-1.562-.118-2.333-.186l.208-2.386,2.332.204c.042-.267.062-.5.08-.697l2.152.188-.062.699c.753.066,1.508.114,2.279.182l-.21,2.404c-.735-.064-1.487-.148-2.295-.219l-.083.95c.951.083,1.865.163,2.725.256-.101.95-.405,3.399-.629,5.747l-2.188-.191c.669.619,1.484,1.215,2.339,1.777l-1.506,1.929c-.44-.346-.942-.806-1.428-1.245-.084.968-.141,1.812-.194,2.423l-2.139-.134c.035-.611.103-1.382.16-2.245ZM34.157,207.608l.101-1.148c-.217,0-.45-.021-.649-.021-.012.342-.043.701-.061,1.115l.609.053ZM36.974,207.836l.154-1.143c-.233-.021-.466-.041-.716-.081-.034.395-.069.79-.085,1.186.198,0,.414.018.646.039ZM38.618,214.468c.475-.681.705-1.04,1.38-1.939l2.128,1.09c-.591.762-.886,1.242-1.323,1.909l-2.185-1.059ZM40.177,204.068c.773.049,1.689.112,2.066.145.123-.368.261-.7.416-1.03-1.024-.072-1.94-.134-2.463-.162l.188-2.55c1.763.1,5.318.357,6.972.465l-.223,2.547c-.521-.028-1.222-.089-1.994-.139-.214.379-.389.725-.543,1.037.734.082,1.487.148,2.347.241l-.715,8.18-6.763-.592.712-8.144ZM43.94,210.433l.051-.574-1.812-.159-.051.574,1.812.159ZM44.076,208.891l.052-.592-1.812-.159-.052.592,1.812.159ZM44.211,207.331l.052-.592c-.646-.057-1.184-.104-1.814-.123l-.049.556,1.812.159ZM43.043,213.663l2.216-.746c.521.877.823,1.337,1.236,1.988l-2.129.989c-.42-.778-.896-1.542-1.323-2.23Z"/>
    <path class="st1" d="M34.541,228.421c-.409.127-.866.178-1.403.131-1.74-.152-2.861-1.389-2.723-2.967.15-1.722,1.696-2.871,3.729-2.765.107.009.215.019.322.028.039-.232.055-.411.116-1.111-.611-.035-1.149-.083-2.71-.219l.271-2.886c.915.08,1.812.158,2.69.235.042-.484.104-.985.151-1.523l2.871.233c-.044.502-.104.985-.146,1.469.954.048,1.603.068,2.343.079l-.189,2.786c-.652.015-1.483.014-2.491-.038-.147,1.072-.3,1.98-.5,2.83.225.525.321,1.076.268,1.686-.153,1.758.138,2.145,1.661,2.296,1.021.107,1.494-.14,2.311-1.208l2.312,1.667c-1.519,2.072-2.426,2.517-4.649,2.323-2.763-.242-4.14-1.23-4.233-3.046ZM34.201,225.084c-.13-.174-.321-.263-.59-.286-.983-.123-1.219,1.538-.444,1.569.559.013.843-.341,1.034-1.283ZM41.22,222.734l2.471-.977c.823,1.752.957,2.072,1.383,3.411l-2.365,1.004c-.51-1.4-.896-2.157-1.488-3.438Z"/>
    <path class="st1" d="M38.431,236.222c.13-1.488,1.414-2.949,3.137-2.798,1.686.147,2.923,1.503,2.773,3.207-.125,1.435-1.216,2.749-3.01,2.592-1.74-.152-3.048-1.315-2.9-3.001ZM42.521,236.164c-.182-.613-.538-.878-.915-.912-.699-.061-1.47.685-1.26,1.39.137.5.496.73.873.763.699.061,1.511-.537,1.302-1.242Z"/>
  </g>
</svg>