<?xml version="1.0" encoding="UTF-8"?>
<svg id="_レイヤー_1" data-name="レイヤー_1" xmlns="http://www.w3.org/2000/svg" version="1.1" viewBox="0 0 65 305">
  <!-- Generator: Adobe Illustrator 29.0.1, SVG Export Plug-In . SVG Version: 2.1.0 Build 192)  -->
  <defs>
    <style>
      .st0 {
        fill: #fff;
      }

      .st1 {
        fill: #3c291a;
      }
    </style>
  </defs>
  <g>
    <path class="st0" d="M62.362,18.138c-.042,0-.084-.001-.127-.005-4.157-.346-8.422-.637-13.037-.889-.4-.021-.775-.203-1.041-.503s-.4-.694-.374-1.095c.059-.863.139-1.788.218-2.703l.018-.197h0c.156-1.791.33-3.562.488-4.951.092-.808.798-1.396,1.621-1.324l3.013.264c.157.014.311.052.453.113l.23-2.406c.077-.821.797-1.426,1.624-1.354l3.139.274c.403.035.774.231,1.03.545.257.313.375.717.329,1.119-.078.687-.154,1.381-.229,2.104.119-.022.24-.029.368-.022l3.02.191c.4.025.774.21,1.037.513.264.303.395.698.364,1.098-.124,1.619-.398,4.965-.651,7.858-.068.781-.723,1.37-1.492,1.37ZM59.794,14.928c.401.031.802.062,1.2.094.035-.415.071-.831.105-1.242-.073.311-.244.592-.49.801-.232.197-.517.316-.815.348ZM54.704,14.567c.88.058,1.751.117,2.613.178-.731-.154-1.249-.834-1.183-1.598.242-2.775.449-4.94.662-6.931l-.128-.011-.122,1.28c-.174,1.798-.346,3.59-.533,5.724-.062.716-.62,1.273-1.31,1.358ZM50.892,14.334c.412.023.821.047,1.229.072-.292-.078-.557-.242-.756-.476-.222-.259-.347-.584-.358-.921l-.017.194c-.033.377-.066.756-.098,1.132ZM61.382,10.196c-.028.399-.06.835-.093,1.292.038-.458.073-.892.105-1.292h-.013ZM51.33,9.588c-.049.48-.099.985-.148,1.503.054-.535.105-1.042.155-1.503h-.007Z"/>
    <path class="st0" d="M55.79,35.18c-.211,0-.423-.044-.623-.135-2.335-1.066-3.856-2.95-4.174-5.168-.195-1.373.079-2.762.771-4.039-.839-.076-1.7-.165-2.539-.263-.82-.096-1.408-.837-1.315-1.657l.328-2.917c.044-.396.244-.757.555-1.005.312-.248.709-.362,1.104-.318,3.331.375,6.024.626,8.025.748.021-.364.176-.708.435-.968.28-.282.662-.441,1.06-.441l1.626-.003h.003c.171,0,.335.029.488.082.113-.028.232-.043.354-.043l1.591-.006h.006c.811,0,1.475.644,1.499,1.455.015.464.023,1.429.017,2.354-.006.817-.666,1.479-1.483,1.489l-1.646.019c-.151.009-.35-.027-.515-.085-.1.021-.202.032-.308.032h-.377c-.075.341-.268.652-.557.872-3.172,2.412-3.226,3.425-3.204,3.604.031.255.49.738,1.685,1.258.452.197.778.603.873,1.086s-.053.983-.396,1.336l-2.204,2.265c-.289.296-.679.454-1.075.454ZM53.938,29.206c.005.083.014.165.025.246.132.923.674,1.737,1.555,2.356l.047-.048c-.757-.58-1.467-1.408-1.627-2.554ZM55.48,23.253c.306.178.547.462.666.812.054.156.08.316.081.475.375-.362.798-.735,1.27-1.12l-.004-.016c-.613-.039-1.285-.089-2.013-.15Z"/>
    <path class="st0" d="M56.625,52.49c-.341,0-.682-.115-.959-.347-.333-.276-.62-.539-.886-.819-.283.341-.712.555-1.191.543l-4.257-.102c-.402-.01-.784-.181-1.06-.475s-.42-.687-.403-1.09c.077-1.752.281-4.642.448-6.957-.725.239-1.513-.102-1.833-.799l-1.184-2.579c-.175-.381-.183-.818-.021-1.205s.479-.688.873-.831c2.621-.948,5.093-2.285,6.96-3.765.57-.452,1.385-.429,1.93.056,2.596,2.313,4.355,3.491,6.493,4.347.392.157.699.472.848.867.147.396.122.835-.071,1.21l-1.35,2.629c-.374.731-1.269,1.023-2.005.657-.084-.042-.168-.084-.25-.126-.067.795-.141,1.629-.199,2.273l1.129,1.023c.301.273.479.658.491,1.064.013.406-.14.801-.423,1.092.037.127.058.261.061.396.008.447-.184.874-.522,1.165l-1.642,1.41c-.281.241-.629.362-.978.362ZM50.947,48.803h.007s-.004-.005-.006-.008c0,.002,0,.005,0,.008ZM53.928,37.194c.03.003.061.007.091.012-.016-.014-.032-.027-.049-.041-.014.01-.027.02-.042.029Z"/>
    <path class="st0" d="M57.381,64.915c-.356,0-.714-.126-.999-.381-.814-.728-1.751-1.584-2.719-2.47-.813-.744-1.648-1.508-2.453-2.233-.906.864-1.824,1.768-2.66,2.59l-.36.355c-.565.557-1.468.577-2.057.044l-2.463-2.222c-.309-.278-.487-.671-.495-1.087-.007-.415.157-.814.456-1.104,1.74-1.688,4.326-4.126,6.587-6.211.56-.519,1.421-.531,1.998-.032.989.856,1.955,1.705,2.901,2.553v-.332c0-.828.67-1.5,1.498-1.501l1.626-.002c.141-.029.336.028.49.081.113-.027.231-.042.353-.043l1.59-.006h.006c.808,0,1.472.64,1.499,1.448.017.466.024,1.432.018,2.36-.006.817-.666,1.479-1.483,1.489l-1.646.019c-.036,0-.083,0-.125-.004.589.554,1.173,1.11,1.754,1.67.589.568.614,1.504.057,2.103l-2.273,2.439c-.295.317-.696.478-1.098.478ZM51.186,56.295c.355,0,.711.125.995.377,1.109.983,2.332,2.103,3.508,3.178.55.503,1.089.997,1.602,1.462l.258-.276c-2.025-1.923-4.098-3.81-6.282-5.722-1.505,1.398-3.076,2.877-4.391,4.135l.218.197c.989-.971,2.055-2.009,3.074-2.952.287-.265.653-.398,1.019-.398Z"/>
    <path class="st0" d="M52.088,81.619c-.213,0-.427-.045-.628-.138-2.388-1.101-3.932-3.018-4.235-5.262-.182-1.345.094-2.702.774-3.95-.822-.075-1.663-.162-2.478-.258-.819-.097-1.407-.837-1.314-1.657l.328-2.917c.044-.396.244-.757.555-1.005.312-.248.709-.364,1.104-.318,3.748.422,6.988.712,9.123.817.646.031,1.199.474,1.372,1.097l.55,1.981c.168.605-.059,1.251-.569,1.618-3.447,2.482-3.444,3.517-3.433,3.627.021.195.394.672,1.656,1.224.451.197.776.603.871,1.086.095.483-.054.982-.396,1.334l-2.204,2.266c-.289.297-.679.454-1.075.454ZM50.316,74.464c-.137.452-.178.908-.117,1.353.128.947.693,1.787,1.618,2.43l.05-.051c-.77-.592-1.487-1.443-1.612-2.624-.04-.367-.02-.736.062-1.108ZM51.742,69.688c.309.179.55.467.669.819.074.221.095.451.065.672.445-.425.96-.863,1.546-1.318-.729-.047-1.498-.107-2.28-.174Z"/>
    <path class="st0" d="M54.841,88.777c-.133,0-.266-.018-.396-.053-.416-.114-.764-.401-.953-.79-.219-.45-1.811-2.626-2.333-3.189-.272-.294-.415-.685-.398-1.085.018-.4.194-.776.491-1.046l1.963-1.78c.608-.551,1.546-.512,2.106.09.411.442,2.603,2.995,3.092,4.458.215.644-.029,1.353-.596,1.727l-2.149,1.42c-.248.164-.536.249-.827.249Z"/>
    <path class="st0" d="M52.748,106.919c-.203,0-.409-.042-.605-.128l-.41-.18c-.311-.136-.597-.261-.872-.39-.582.177-1.235.298-2.004.373-.646.067-1.275-.306-1.529-.912l-.101-.239c-.045.05-.094.097-.146.141-.305.259-.705.386-1.102.351l-2.206-.193c-.812-.071-1.419-.778-1.366-1.592.003-.038.005-.076.008-.114-.17.012-.343-.011-.51-.062-.388-.116-.711-.384-.898-.743l-.929-1.78c-.37-.71-.117-1.586.574-1.989.366-.214.695-.398,1.004-.563-.234-.297-.468-.56-.769-.885-.282-.306-.425-.716-.394-1.132.032-.416.235-.799.562-1.059l.15-.12c-.536-.227-.909-.756-.915-1.369-.01-1.18.094-2.584.193-3.942.061-.82.761-1.451,1.594-1.401,1.021.066,2.47.162,3.742.25.04-.133.098-.262.175-.382.235-.369.621-.617,1.055-.678l2.379-.335c.671-.095,1.327.275,1.591.902.146.344.254.634.35.922,1.868.158,3.659.335,5.231.519.4.046.765.252,1.012.571.247.319.355.723.301,1.123-.186,1.353-.359,2.504-.65,4.065-.151.81-.925,1.343-1.736,1.202l-.048-.008c-.023.223-.048.451-.071.679.029.002.058.005.084.007.4.035.77.229,1.025.539s.377.709.336,1.108c-.125,1.218-.206,1.693-.401,2.591-.166.758-.872,1.268-1.65,1.169.105.135.188.288.242.455.146.445.076.933-.189,1.319l-.869,1.262c-.287.417-.755.649-1.236.649ZM48.79,91.791c.04.003.08.005.119.008-.019-.034-.035-.068-.051-.103-.021.032-.044.064-.068.095Z"/>
    <path class="st0" d="M48.543,122.145c-.213,0-.427-.045-.628-.138-2.388-1.101-3.931-3.018-4.234-5.262-.182-1.345.094-2.702.774-3.95-.822-.075-1.663-.162-2.478-.258-.819-.097-1.407-.837-1.314-1.657l.327-2.917c.044-.396.243-.757.555-1.005.311-.249.71-.365,1.104-.318,3.748.422,6.988.712,9.123.817.646.031,1.199.474,1.372,1.097l.55,1.981c.168.605-.059,1.251-.568,1.618-3.447,2.482-3.444,3.517-3.433,3.627.006.054.101.544,1.655,1.224.451.197.776.603.871,1.086s-.054.982-.396,1.334l-2.204,2.266c-.289.297-.679.454-1.075.454ZM46.77,114.993c-.136.451-.177.906-.117,1.35.129.947.693,1.787,1.618,2.43l.05-.051c-.77-.592-1.486-1.443-1.612-2.624-.039-.366-.02-.734.062-1.105ZM48.198,110.214c.308.179.55.466.668.819.074.221.095.45.065.672.445-.425.96-.863,1.545-1.317-.728-.047-1.497-.107-2.278-.173Z"/>
    <path class="st0" d="M51.296,129.303c-.132,0-.265-.018-.396-.053-.416-.114-.764-.401-.953-.79-.219-.45-1.811-2.626-2.333-3.189-.272-.294-.415-.685-.398-1.085.018-.4.194-.776.491-1.046l1.963-1.78c.608-.551,1.547-.513,2.106.09.412.443,2.604,3,3.091,4.459.215.644-.029,1.351-.596,1.726l-2.148,1.42c-.248.164-.536.249-.827.249Z"/>
    <path class="st0" d="M48.411,146.815c-.048,0-.096-.002-.144-.007l-7.547-.66c-.795-.063-1.401-.737-1.38-1.534.029-1.137.179-3.679.298-5.509.002-.028.005-.057.008-.085-.5-.009-.981-.269-1.256-.724l-1.373-2.271c-.219-.361-.274-.797-.155-1.202.12-.404.404-.74.784-.924,2.584-1.253,4.906-2.812,6.901-4.636.299-.273.697-.41,1.101-.39.404.024.782.211,1.047.518l.57.661c1.945,1.942,3.835,3.371,5.774,4.368.365.188.637.516.753.909s.066.816-.138,1.172l-1.344,2.341c-.375.654-1.168.92-1.855.647.038.16.05.329.032.502l-.027.255c-.125,1.191-.424,4.045-.562,5.239-.088.763-.735,1.328-1.488,1.328ZM42.427,142.709l.806.039h0s-.804-.077-.804-.077c0,.013,0,.026-.002.039ZM45.303,132.626c.115,0,.23.013.343.04-.069-.067-.14-.134-.209-.202-.066.055-.134.109-.201.164.022,0,.045-.001.067-.001Z"/>
    <path class="st0" d="M50.134,164.095c-.041,0-.081-.001-.122-.005l-2.514-.202c-.4-.032-.771-.224-1.029-.532-.154-.185-.261-.401-.313-.631-.105.013-.212.014-.319.006l-5.829-.51c-.071-.006-.142-.018-.21-.033-.088.188-.215.359-.375.498-.301.262-.7.388-1.094.364l-2.514-.184c-.399-.029-.771-.217-1.031-.521-.26-.305-.388-.701-.354-1.1l1.236-14.749c.07-.824.81-1.439,1.615-1.37l2.513.202c1.027.065,1.881.148,2.756.232.423.041.85.083,1.31.123.167.015.329.057.48.125.202-.072.419-.102.636-.082l2.439.214c1.862.181,2.84.285,4.159.455.792.102,1.365.807,1.304,1.603-.137,1.781-.596,7.243-.938,11.14l-.313,3.587c-.067.781-.723,1.37-1.492,1.37Z"/>
    <path class="st0" d="M36.728,178.047c-.684,0-1.301-.47-1.461-1.164-.514-2.229-.659-4.667-.433-7.244h0c.155-1.779.489-3.644.995-5.54.212-.793,1.02-1.27,1.818-1.068l2.935.744c.396.101.734.359.937.715.201.356.249.779.131,1.171-.702,2.335-1.017,5.11-.894,7.336l.25-.818c.122-.398.404-.728.778-.91.375-.183.808-.202,1.196-.051,1.507.582,3.271.888,5.245.91.431.005.839.195,1.12.522.28.327.407.759.348,1.186l-.387,2.768c-.098.697-.667,1.233-1.369,1.288-1.742.135-4.819-.376-6.858-1.141-.037-.014-.073-.029-.108-.045-.214.327-.548.559-.932.644l-2.986.661c-.109.024-.218.036-.325.036ZM37.872,174.37c.016.126.031.251.049.375h.004c-.019-.124-.036-.249-.053-.375ZM36.329,169.769h.01-.01ZM47.873,171.01c-1.041,0-3.762-.195-5.346-.368-.401-.044-.769-.248-1.018-.566-.249-.318-.359-.724-.306-1.124l.368-2.751c.108-.81.846-1.384,1.656-1.292,1.336.152,4.102.343,4.859.323.4-.007.805.157,1.092.451.287.293.441.692.427,1.102l-.099,2.775c-.028.788-.66,1.419-1.448,1.446-.054.002-.116.003-.187.003Z"/>
    <path class="st0" d="M42.764,196.443c-.654,0-1.246-.429-1.438-1.074l-.383-1.294c-.249.125-.531.18-.81.156l-1.477-.129c-.069.322-.243.614-.496.829-.306.258-.695.384-1.102.35l-2.583-.226c-.811-.071-1.417-.775-1.366-1.587.062-1.019.188-2.956.307-4.657l-1.898-1.71c-.31-.278-.489-.673-.496-1.089-.007-.416.159-.816.459-1.105,2.119-2.041,3.19-3.667,4.324-5.785.389-.728,1.293-1.003,2.022-.619l2.048,1.081c.038-.111.074-.215.107-.31.25-.715.995-1.127,1.732-.971l2.679.578c.439.095.812.382,1.019.781.003.006.005.011.008.017,1.011.068,2.043.146,2.937.214l.707.053c.398.029.769.217,1.028.52s.388.697.355,1.095l-.187,2.334c-.031.398-.222.768-.526,1.025-.2.169-.438.281-.691.329.042.019.085.038.127.057.385.174.692.507.823.908.132.4.103.844-.104,1.211l-1.091,1.929c-.222.392-.595.648-1.007.731l.347.948c.145.394.113.81-.055,1.162l.401,1.117c.14.388.113.816-.072,1.184-.186.368-.515.643-.909.761-.128.039-3.15.94-4.491,1.166-.084.014-.167.021-.249.021ZM46.723,182.778c.036.061.068.125.095.192.007.016.014.033.02.049.058-.072.116-.145.175-.22-.096-.007-.192-.014-.289-.021ZM42.379,181.566c-.066.203-.135.411-.201.618.126-.091.267-.162.415-.209-.017-.022-.032-.045-.048-.069-.07-.107-.126-.221-.166-.339Z"/>
    <path class="st0" d="M44.169,212.864c-.044,0-.088-.002-.133-.006l-2.78-.243c-.398-.035-.768-.228-1.023-.536s-.378-.706-.339-1.104c.209-2.141.312-3.218.389-4.06-.463-.017-.853-.026-1.107-.021h-.017c-.29,0-.572-.084-.812-.239-.104,1.806-.167,3.159-.19,4.036-.01.402-.181.783-.475,1.057s-.683.417-1.086.403l-2.738-.112c-.815-.033-1.455-.713-1.438-1.53.015-.672.045-1.455.103-2.572-.286-.082-.552-.25-.753-.5l-1.712-2.12c-.253-.313-.369-.715-.323-1.116.047-.4.252-.765.57-1.012.671-.521,1.333-1.034,1.971-1.526l-1.4-1.81c-.243-.315-.352-.714-.302-1.109.051-.395.257-.753.572-.997,1.24-.957,1.99-1.48,3.028-2.204l.711-.497c.655-.458,1.553-.323,2.044.306l1.544,1.979c.025.032.049.066.071.1.145-.664.729-1.165,1.436-1.179,1.635-.031,4.672.173,6.489.296l.392.026c.816.055,1.438.754,1.397,1.572l-.146,2.896c-.013.254-.09.498-.22.709.431.292.696.8.655,1.355l-.217,2.891c-.03.4-.219.771-.524,1.031-.307.26-.703.388-1.103.351l-.625-.055c-.146,1.588-.285,2.986-.419,4.204-.085.766-.733,1.335-1.489,1.335ZM42.554,204.134c.188.088.356.215.494.375.143.164.246.355.306.56.092-.198.227-.375.397-.519.161-.136.349-.235.548-.292-.588-.045-1.18-.087-1.745-.125ZM37.837,199.695l.667.766.002-1.331c-.104.143-.231.269-.381.369-.099.067-.194.132-.288.196Z"/>
    <path class="st0" d="M40.712,228.933c-.59,0-1.157-.023-1.692-.071-5.911-.518-6.571-3.602-6.581-4.903v-.003c-.004-.851.249-2.003,1.273-3.215-.169-.304-.232-.667-.157-1.031l.213-1.054c-.114-.012-.229-.025-.347-.038l-.275-.03c-.401-.044-.769-.248-1.018-.566-.25-.318-.359-.724-.306-1.125l.364-2.715c.106-.794.827-1.368,1.616-1.294l1.075.094s0-.007.002-.01c.139-.808.904-1.352,1.708-1.229l2.942.456c.415.064.784.299,1.018.648.107.162.183.341.222.527.181.005.361.008.542.011.41.005.801.179,1.079.479.279.301.424.702.398,1.112l-.162,2.679c0,.012,0,.023-.002.034.054.118.094.243.116.374l.456,2.643c.07.41-.032.811-.258,1.126.279.665.044,1.446-.576,1.842l-.026.017c.008.008.016.016.023.024.292.305.443.718.415,1.14l-.18,2.677c-.053.777-.69,1.385-1.47,1.399-.139.003-.277.004-.414.004ZM38.225,220.745c.402,0,.798.162,1.087.465-.003-.192.031-.385.103-.569.025-.063.054-.125.087-.183-.084.033-.167.067-.252.102-.418.173-.896.147-1.294-.07l-.095-.052c-.065-.035-.132-.072-.204-.111.006.044.01.088.012.133.007.139-.007.275-.037.407.191-.083.394-.123.594-.123ZM36.375,216.068c.15.097.284.22.394.367.133.178.223.382.267.595.171-.526.618-.911,1.151-1.01-.125-.089-.236-.197-.33-.322-.168-.226-.269-.492-.292-.768h-.009c-.135.59-.607,1.029-1.181,1.138Z"/>
    <path class="st0" d="M36.96,245.246c-.262,0-.524-.068-.761-.208l-2.596-1.528c-.418-.246-.69-.678-.733-1.16-.03-.346.06-.687.249-.969-1.434-.416-2.152-1.352-2.443-1.851-.812-1.397-.682-3.187.331-4.557.039-.053.079-.104.12-.155-.176-.021-.349-.042-.519-.063-.802-.099-1.381-.815-1.311-1.62l.243-2.78c.036-.41.238-.787.561-1.043.321-.256.731-.369,1.144-.311.953.135,2.281.285,3.834.434.061-.247.184-.476.36-.666.274-.293.654-.465,1.057-.476l3.007-.081c.365-.022.799.143,1.09.428.29.284.453.674.45,1.081v.171c.402.022.843.044,1.335.063.413.017.801.203,1.072.515s.402.723.36,1.134l-.278,2.777c-.075.757-.706,1.337-1.467,1.351-.381.005-.823.001-1.293-.013-.068.387-.148.746-.243,1.082.926,2.615-.099,5.913-2.584,8.078-.28.244-.632.369-.985.369ZM36.943,238.547c.144.077.275.178.39.302.249.269.386.613.398.966.209-.823.177-1.633-.143-2.283-.18-.364-.203-.786-.066-1.168.053-.147.102-.305.146-.475-.124.181-.285.335-.476.446-.097.056-.198.102-.303.137.291.484.381,1.067.244,1.625-.039.16-.104.311-.191.449ZM34.22,237.386c-.057.233-.006.491.137.69.135.189.297.25.363.256.305.028.623-.136.783-.404.039-.065.067-.135.086-.207l-1.369-.334ZM35.677,237.742h.01-.01ZM34.78,236.583c-.107.056-.2.131-.271.218l1.09.878c.044-.222-.005-.463-.144-.674-.199-.303-.512-.417-.676-.423ZM34.733,236.585h0ZM37.035,232.503c.534.196.921.685.977,1.265.136-.513.533-.912,1.031-1.056-.571-.213-.975-.762-.977-1.401v-.058h-.009c-.041.346-.201.67-.457.913-.163.155-.356.27-.565.338Z"/>
    <path class="st0" d="M35.035,261.551c-.223,0-.448-.01-.679-.03-1.288-.113-2.466-.575-3.316-1.303-.979-.836-1.48-1.989-1.377-3.163.078-.9.419-1.702.959-2.337-.164-.17-.291-.38-.361-.62l-.307-1.039c-.146-.492-.029-1.024.308-1.411.323-.37.604-.696.863-1.004-.037-.002-.073-.005-.109-.007-.398-.028-.769-.213-1.03-.515-.262-.301-.392-.695-.362-1.093l.201-2.712c.03-.4.219-.772.524-1.032s.714-.385,1.103-.351l1.381.121c1.396.122,3.104.283,6.13.627.525.06.98.392,1.197.874.218.482.165,1.043-.139,1.477-.741,1.059-1.292,1.828-1.794,2.517.6.301,1.135.709,1.584,1.213.995,1.119,1.468,2.604,1.329,4.182-.296,3.379-2.767,5.605-6.104,5.605ZM34.065,257.785c.013.108.138.258.225.264.077-.005.271-.069.426-.231l-.65-.033ZM37.064,257.815c0,.039-.002.077-.004.116.07-.055.138-.114.202-.176-.064.024-.131.045-.198.061ZM35.562,257.861h.01-.01ZM31.157,257.187h.01-.01ZM33.853,252.056c.172.006.339.017.502.031-.073-.152-.119-.313-.138-.477-.121.149-.241.296-.364.445ZM35.059,248.278c.164.146.296.328.384.537.045.106.077.216.097.328.179-.244.36-.493.552-.758-.365-.039-.707-.074-1.032-.107Z"/>
    <path class="st0" d="M34.702,276.632c-.03,0-.062,0-.092-.003l-3.488-.215c-.825-.051-1.453-.758-1.405-1.583.035-.618.072-1.096.11-1.578.035-.457.071-.917.106-1.514.019-.322.141-.628.345-.873-.072-.198-.104-.412-.088-.626.175-2.385.513-5.557.822-7.714.112-.785.809-1.35,1.607-1.282l3.643.3c.424.035.812.248,1.069.585.258.338.36.77.282,1.187-.366,1.944-.86,4.793-1.141,7.323-.029.26-.123.499-.265.699.123.234.187.504.17.788l-.069,1.127c-.04.615-.075,1.158-.108,1.942-.018.402-.196.781-.495,1.05-.276.249-.634.385-1.004.385ZM32.815,273.513l.47.029c.002-.032.004-.065.006-.097l-.468-.029-.006.072c0,.008,0,.017-.002.025ZM33.308,268.91l.352.013c.206-1.558.465-3.146.707-4.525l-.572-.047c-.178,1.421-.353,3.058-.486,4.559Z"/>
    <path class="st0" d="M34.796,17.371c-.275,0-.554-.076-.803-.233-2.756-1.748-3.972-3.861-3.633-6.299-.929-.025-1.908-.043-2.901-.054-.818-.009-1.479-.673-1.483-1.491l-.017-2.911c-.005-.823.655-1.497,1.478-1.509.07,0,.141-.002.212-.003-.252-.68-.477-1.399-.726-2.303-.22-.799.249-1.624,1.048-1.844L30.564.009c.391-.109.811-.053,1.162.155.35.207.601.547.695.943.148.624.307,1.181.472,1.669.555-.76,1.027-1.479,1.271-1.944.377-.721,1.262-1.009,1.992-.649l2.582,1.273c.376.185.656.518.775.919.118.401.064.833-.149,1.193-.282.475-.696,1.093-1.163,1.748.068.007.137.014.205.021.398.043.764.243,1.014.557.25.313.364.713.316,1.112l-.348,2.934c-.097.819-.852,1.404-1.655,1.314-.453-.051-.926-.096-1.412-.136-.058.135-.065.201-.066.215,0-.001.116.225,1.075.736.384.205.66.567.757.992s.003.871-.255,1.222l-1.826,2.479c-.293.397-.747.61-1.209.61ZM33.379,12.177c.139.526.479,1.05,1.098,1.599l.005-.005c-.49-.422-.903-.941-1.103-1.593ZM32.076,7.892c.111.004.221.009.33.013.498.021.954.287,1.216.711.144.232.219.496.224.761.145-.255.3-.487.445-.691.234-.33.589-.547.979-.611-.004,0-.009,0-.014,0-.56-.039-1.051-.386-1.273-.9-.108-.25-.145-.52-.112-.781-.34.401-.67.768-.972,1.074-.224.227-.513.375-.822.426Z"/>
    <path class="st0" d="M37.989,32.774c-.062,0-.125-.004-.188-.012-1.835-.23-3.246-.977-4.194-2.221-.448-.587-.78-1.275-.995-2.059-.063,1.159-.074,2.051-.026,2.551.041.426-.102.849-.393,1.163-.291.313-.712.494-1.13.48l-2.905-.057c-.4-.008-.781-.175-1.058-.465-.275-.29-.425-.679-.412-1.079.004-.152.009-.305.015-.458-.514.113-1.063-.042-1.439-.451l-1.814-1.984c-.277-.304-.418-.709-.389-1.12s.227-.792.546-1.053c.265-.217.694-.583,1.184-1.007-.216-.039-.424-.125-.606-.256-.33-.237-.551-.597-.61-.999l-.398-2.674c-.061-.404.047-.815.297-1.139s.62-.53,1.026-.574c.771-.083,1.942-.284,3.158-.539l.156-1.227c.104-.807.833-1.387,1.646-1.298l2.901.308c.409.043.782.253,1.032.579.25.327.355.741.291,1.147-.075.476-.148.976-.22,1.498,1.303-.484,2.602-.767,3.522-.493.406.121.743.408.926.791l.55,1.15c.146.306.185.652.108.982-.839,3.659-.56,4.379-.453,4.513h0s.099.063.41.096c.402.042.771.245,1.021.562.25.317.362.723.31,1.124l-.382,2.913c-.099.755-.743,1.305-1.485,1.305ZM28.35,25.894c.221,0,.441.048.648.147.327.157.578.422.721.739.045-.586.094-1.131.136-1.578.046-.493.333-.931.766-1.171.187-.104.381-.204.586-.303-.141-.043-.275-.108-.4-.193-.292-.199-.499-.491-.595-.819.005.078.004.155-.003.234l-.068.771c-.033.37-.203.715-.476.968-.33.305-.812.737-1.339,1.204h.024ZM34.153,22.782c.279.037.547.153.77.34.13.11.239.24.323.383.067-.375.146-.768.234-1.179-.332.088-.778.233-1.327.456ZM29.431,21.499c.096.052.187.114.27.187.219.191.374.438.453.709-.006-.086-.004-.173.006-.261.049-.454.1-.898.152-1.331-.189.332-.503.584-.881.695Z"/>
    <path class="st0" d="M35.275,49.681c-.479,0-1.02-.026-1.621-.079-1.466-.128-2.931-.389-3.823-.681-.717-.234-1.147-.963-1.008-1.704l.506-2.685c.065-.348.251-.66.522-.882-.149-.236-.231-.511-.232-.794l-.012-2.479c-.102-.003-.202-.007-.302-.01-.585,2.65-1.225,5.689-1.358,6.523-.065.405-.293.765-.63.998-.338.233-.758.317-1.156.234l-2.857-.594c-.791-.165-1.31-.924-1.174-1.72.12-.708.562-2.936,1.101-5.528-.404-.006-.789-.174-1.067-.467-.284-.3-.433-.703-.41-1.116l.155-2.806c.044-.791.695-1.411,1.487-1.417l.475-.004c.219-.001.425-.003.618-.004.149-.653.235-1.029.293-1.269.188-.79.969-1.284,1.768-1.117l2.929.617c.397.084.744.325.96.669.217.344.284.761.188,1.155-.009.038-.019.074-.027.111.253.019.524.042.818.067.825.072,1.436.8,1.363,1.625l-.198,2.266c.373.007.756.021,1.135.039-.209-.265-.323-.594-.321-.935.002-.431.004-1.277.002-2.285,0-.398.156-.78.438-1.062s.663-.44,1.061-.441l1.627-.002h.002c.171,0,.335.028.488.081.113-.027.231-.042.353-.043l1.591-.006h.006c.811,0,1.475.644,1.499,1.455.015.464.023,1.428.017,2.354-.006.817-.666,1.479-1.483,1.489l-1.646.019c-.029-.001-.065,0-.098-.002.342.306.538.762.495,1.25l-.238,2.726c-.026.305-.146.593-.339.826.101.054.195.119.283.195.326.285.513.697.513,1.13l-.002,2.711c0,.711-.5,1.324-1.196,1.468-.395.082-.894.123-1.49.123ZM25.783,37.473c.174.093.329.221.457.377.225.277.341.623.335.974.022-.104.046-.207.068-.308.146-.647.697-1.118,1.35-1.167-.165-.093-.312-.218-.434-.37-.244-.306-.357-.694-.32-1.079l-.093.41c-.149.651-.708,1.12-1.363,1.163Z"/>
    <path class="st0" d="M31.246,65.611c-.218,0-.438-.048-.647-.147l-2.724-1.305c-.373-.179-.656-.505-.781-.899-.125-.395-.082-.824.12-1.186.563-1.007,1.029-2.226,1.373-3.583-.275-.008-.554-.014-.83-.016-.495-.004-.933-.247-1.203-.62.019,1.11.103,2.216.251,3.421.097.789-.438,1.517-1.221,1.659l-2.884.525c-.4.075-.818-.021-1.149-.261-.331-.241-.55-.606-.605-1.012-.445-3.267-.528-5.137-.328-7.412.101-1.151.256-2.214.477-3.25.164-.773.888-1.291,1.682-1.173l2.874.415c.813.117,1.381.868,1.271,1.683-.027.21-.054.417-.079.619.264-.201.613-.286.924-.308.403.003.874.013,1.469.03-.004-.333-.019-.668-.041-1.008-.028-.408.111-.809.387-1.112.274-.302.661-.479,1.069-.49l3.008-.08c.817-.029,1.515.629,1.539,1.457.017.581.026,1.099.026,1.568.153.018.308.036.465.054.399.047.77.252,1.016.57.247.318.361.722.308,1.121l-.36,2.68c-.106.796-.833,1.362-1.618,1.294-.121-.011-.246-.021-.375-.03-.463,2.23-1.175,4.283-2.085,5.999-.269.506-.788.797-1.326.797ZM30.533,62.105h.003c.059-.139.116-.282.173-.427-.058.145-.116.287-.176.427ZM23.737,53.84c-.052.388-.096.786-.132,1.197h0c-.103,1.173-.12,2.238-.036,3.512-.057-1.521-.002-3.016.168-4.709ZM31.167,55.762c.158.091.3.211.417.356.236.292.353.659.331,1.03.009-.049.017-.098.024-.147.091-.576.501-1.029,1.028-1.197-.481-.268-.796-.792-.769-1.378.006-.143.011-.291.015-.445-.007.153-.016.307-.026.461-.042.624-.46,1.134-1.021,1.321ZM22.111,54.906h.01-.01Z"/>
    <path class="st0" d="M32.42,82.317c-.478,0-1.019-.026-1.62-.079-1.466-.128-2.932-.389-3.824-.681-.717-.234-1.147-.963-1.008-1.704l.506-2.686c.065-.348.251-.659.521-.881-.148-.236-.23-.51-.231-.794l-.012-2.479c-.101-.003-.201-.007-.302-.01-.625,2.83-1.233,5.746-1.357,6.521-.064.405-.292.766-.63.998-.337.233-.754.317-1.156.234l-2.858-.593c-.79-.164-1.31-.924-1.174-1.72.12-.706.561-2.933,1.101-5.528-.404-.006-.789-.174-1.067-.467-.284-.3-.433-.703-.41-1.116l.155-2.806c.044-.791.695-1.411,1.487-1.417l.489-.004c.214-.001.414-.003.604-.004.149-.653.235-1.029.293-1.269.188-.79.971-1.286,1.768-1.117l2.929.617c.397.084.744.325.96.669.217.344.284.761.188,1.155-.009.038-.019.074-.027.111.253.019.524.042.818.067.825.072,1.436.8,1.363,1.625l-.198,2.266c.373.007.755.02,1.135.039-.209-.265-.323-.594-.321-.935.002-.432.004-1.278.002-2.285,0-.398.156-.78.438-1.062.28-.282.662-.441,1.06-.441l1.627-.003c.14-.024.337.029.491.081.113-.028.231-.042.354-.043l1.591-.005h.005c.81,0,1.473.642,1.499,1.452.016.465.024,1.431.017,2.358-.007.816-.666,1.478-1.483,1.487l-1.646.019c-.026,0-.063,0-.096-.002.341.305.537.762.494,1.25l-.239,2.727c-.026.305-.146.592-.339.825.102.053.196.119.284.195.326.285.513.697.513,1.13l-.002,2.711c0,.711-.5,1.324-1.196,1.468-.396.082-.895.123-1.491.123ZM22.925,70.109c.175.093.331.221.459.378.226.278.342.625.335.978.023-.105.047-.209.069-.312.146-.647.697-1.117,1.349-1.167-.165-.093-.312-.218-.434-.37-.244-.307-.357-.694-.32-1.08l-.093.41c-.149.652-.709,1.121-1.365,1.164Z"/>
    <path class="st0" d="M26.886,97.465c-.03,0-.062,0-.092-.003l-3.486-.215c-.825-.051-1.453-.759-1.405-1.583.035-.612.071-1.086.108-1.562.036-.462.072-.926.107-1.529.019-.323.141-.629.345-.875-.072-.198-.104-.412-.088-.626.2-2.747.566-5.924.821-7.713.112-.785.812-1.349,1.608-1.283l3.643.301c.424.035.812.248,1.069.585.258.338.36.769.282,1.186-.367,1.956-.863,4.814-1.141,7.324-.029.26-.123.498-.265.699.123.234.187.503.17.786l-.073,1.187c-.038.592-.072,1.126-.105,1.887-.019.402-.196.78-.496,1.05-.275.249-.634.385-1.003.385ZM25.002,94.346l.469.029.006-.098-.467-.029c-.002.029-.005.058-.007.087,0,.004,0,.008,0,.011ZM25.494,89.743l.353.013c.205-1.552.464-3.142.707-4.525l-.572-.047c-.165,1.317-.345,2.952-.487,4.559Z"/>
  </g>
  <g>
    <path class="st1" d="M49.512,12.875c.155-1.775.327-3.532.484-4.91l3.013.264c-.143,1.018-.322,2.863-.504,4.728l2.014.122c.281-3.211.53-5.647.798-8.497l3.139.274c-.31,2.72-.565,5.427-.827,8.422.699.062,1.383.104,2.011.158.148-1.902.28-3.825.351-4.831l3.02.191c-.123,1.615-.397,4.954-.649,7.842-4.36-.363-8.709-.653-13.08-.892.062-.916.148-1.902.232-2.871Z"/>
    <path class="st1" d="M54.727,24.55c-1.565-.082-3.503-.252-5.328-.466l.328-2.917c3.562.401,6.698.694,8.931.799l.546,2.019c-4.646,3.533-5.006,5.778-1.21,7.431l-2.204,2.265c-4.015-1.833-4.504-6.159-1.062-9.13ZM59.418,20.515l1.626-.003c.031.689.008,1.772,0,2.295l-1.627.003c.002-.434.004-1.283.002-2.295ZM61.891,20.55l1.591-.006c.014.453.022,1.395.016,2.297l-1.647.019c.022-.666.019-1.661.04-2.31Z"/>
    <path class="st1" d="M46.664,39.239c2.575-.932,5.244-2.307,7.381-4,2.767,2.465,4.682,3.718,6.934,4.619l-1.35,2.629c-2.234-1.117-3.896-2.166-5.849-3.801-1.739,1.276-3.534,2.167-5.933,3.132l-1.184-2.579ZM49.984,40.957c1.256.11,2.08.183,2.637.231-.049-.475-.099-.949-.129-1.422l2.07-.108c.015.652.058,1.198.121,1.71.843.074,1.704.149,2.69.235-.119,1.562-.407,4.863-.46,5.255-1.363-.119-2.818-.21-4.692-.283-.039.448-.061.898-.079,1.312.506.008,1.08.058,1.55.063l-.067,2.416-4.257-.102c.107-2.467.482-7.368.616-9.309ZM52.334,44.886c.807.071,1.562.119,2.352.17.015-.162.03-.341.046-.521-.808-.07-1.543-.135-2.37-.171-.016.179-.012.342-.027.521ZM52.434,43.521c.807.07,1.527.099,2.389.174.016-.18.03-.342.044-.503-.804-.106-1.521-.169-2.401-.228.002.181-.016.378-.031.557ZM54.146,47.719l1.671-.92c.188.324.379.63.571.9.315-.299.571-.529.852-.848l1.39,1.26c-.357.367-.656.684-.953.983.185.16.387.323.59.485l-1.642,1.41c-.994-.827-1.496-1.485-2.479-3.271Z"/>
    <path class="st1" d="M51.186,57.795c-1.357,1.255-2.782,2.666-4.048,3.911l-2.463-2.222c1.777-1.724,4.358-4.155,6.56-6.186,3.092,2.674,5.82,5.172,8.42,7.677l-2.273,2.439c-1.794-1.603-4.183-3.836-6.195-5.62ZM56.618,54.384l1.626-.002c.03.689.008,1.771-.002,2.295l-1.627.003c.002-.435.004-1.283.003-2.296ZM59.09,54.42l1.59-.006c.016.453.023,1.394.017,2.297l-1.646.019c.022-.667.019-1.661.04-2.31Z"/>
    <path class="st1" d="M50.989,70.985c-1.565-.082-3.502-.252-5.291-.463l.328-2.917c3.562.401,6.896.711,9.218.824l.55,1.981c-4.881,3.514-5.331,5.77-1.501,7.442l-2.204,2.266c-4.066-1.874-4.593-6.186-1.1-9.134Z"/>
    <path class="st1" d="M52.26,83.726l1.963-1.78c.678.729,2.438,2.925,2.768,3.912l-2.149,1.42c-.322-.661-2.053-2.981-2.581-3.552Z"/>
    <path class="st1" d="M41.408,100.757c1.104-.645,1.823-.997,2.894-1.464.041-.467.08-.914.121-1.381l-1.062.775c-.466-.674-.809-1.083-1.371-1.692l1.594-1.271c.315.316.629.669.955,1.06.087-.986.168-1.92.264-2.797l2.187.209c-.281,2.795-.655,7.281-.879,10.244l-2.206-.193c.053-.809.132-1.705.195-2.64-.547.259-1.06.54-1.763.93l-.929-1.78ZM41.981,90.487c1.6.104,4.259.281,5.624.384-.109-.407-.234-.834-.347-1.205l2.379-.335c.27.639.395,1.065.589,1.751,2.188.174,4.322.378,6.2.597-.198,1.446-.366,2.534-.639,3.993l-1.619-.287c-.119.948-.255,2.291-.376,3.474l-5.292-.463.116-1.327c1.166.102,2.171.189,3.211.28.016-.18.046-.32.059-.464l-2.978-.261.075-.861c1.095.096,1.974.173,3.033.248.032-.16.043-.286.072-.409-1.075-.112-1.938-.17-3.321-.256l.127-1.452c1.868.127,3.054.213,4.523.359.033-.178.064-.338.082-.535-2.522-.293-5.415-.491-9.12-.689-.025.486-.05.972-.073,1.439l-2.517-.147c-.01-1.122.09-2.469.19-3.833ZM46.881,98.724c1.833.124,7.044.472,8.479.598-.119,1.164-.193,1.592-.375,2.425l-1.446-.198c-.243.918-.647,1.624-1.222,2.188.388.124.81.251,1.301.421l-.869,1.262c-.714-.315-1.272-.546-1.789-.825-.639.269-1.375.422-2.25.508l-.599-1.427c.472-.012.872-.05,1.221-.109-.17-.123-.338-.265-.507-.406l.743-.64c-.647-.039-1.223-.07-1.456-.091l.095-1.294-1.513-.06c.054-1.025.132-1.922.188-2.352ZM48.839,100.938c1.364.102,3.034.229,4.091.34.051-.176.085-.354.118-.532-1.343-.135-2.423-.193-4.187-.275-.015.162-.026.305-.022.468ZM50.754,103.021c.174-.129.328-.242.468-.393-.358-.031-.755-.048-1.131-.081.219.182.44.328.663.474Z"/>
    <path class="st1" d="M47.444,111.511c-1.565-.082-3.502-.252-5.291-.463l.327-2.917c3.562.401,6.896.711,9.218.824l.55,1.981c-4.88,3.514-5.33,5.77-1.501,7.442l-2.204,2.266c-4.065-1.874-4.592-6.186-1.099-9.134Z"/>
    <path class="st1" d="M48.715,124.251l1.963-1.78c.677.729,2.438,2.925,2.767,3.912l-2.148,1.42c-.322-.661-2.053-2.981-2.581-3.552Z"/>
    <path class="st1" d="M38.3,135.249c2.528-1.226,5.039-2.85,7.259-4.878l.606.703c1.662,1.664,3.732,3.418,6.188,4.681l-1.344,2.341c-1.987-1.042-3.897-2.348-5.707-3.97-1.589,1.217-3.457,2.318-5.63,3.394l-1.373-2.271ZM41.135,139.202l.556.049c2.482.144,5.317.374,7.305.584-.102.968-.438,4.191-.587,5.479l-2.402-.229c-.986-.086-1.937-.169-2.87-.251l-2.297-.183c.03-1.173.19-3.833.296-5.45ZM42.521,136.179c2.2.047,2.975.079,5.499.354l-.207,2.368c-2.287-.308-3.296-.343-5.479-.389l.187-2.333ZM43.247,142.748c1.076.095,2.099.184,3.085.271.079-.481.118-.93.167-1.287-1.021-.107-2.132-.204-3.175-.277-.037.43-.057.862-.077,1.294Z"/>
    <path class="st1" d="M37.161,146.621l2.513.202c1.546.099,2.654.231,4.054.354-.125,1.218-.363,3.529-.657,6.684l-.144-.012c-.986-.087-1.903-.149-3.874-.34-.27,3.285-.447,5.528-.614,8.044l-2.514-.184,1.236-14.749ZM40.835,151.733c.047-.538.058-.663.09-.823l-1.614-.142c-.032.16-.045.303-.09.823l1.614.142ZM41.049,149.691c.021-.251.042-.484.064-.735-.539-.047-1.096-.078-1.634-.125-.021.233-.043.484-.063.718l1.633.143ZM40.533,154.562l1.722.15c2.442.178,3.18.225,4.362.346-.245,2.383-.573,5.517-.649,6.179l-5.829-.51.395-6.165ZM42.332,159.201c.718.062,1.201.104,1.722.15.046-.52.057-.646.089-.805-.771-.067-1.202-.105-1.759-.136.004.162-.008.288-.052.79ZM42.459,157.333c.825.071,1.237.107,1.794.156.046-.52.056-.627.087-.787-.502-.044-1.058-.093-1.816-.104-.021.233-.042.484-.064.735ZM44.844,147.221l2.439.214c1.827.178,2.794.28,4.099.448-.137,1.778-.596,7.232-.937,11.124-.127,1.453-.24,2.745-.313,3.588l-2.514-.202c.21-2.187.464-5.092.706-8.071-.914-.08-1.92-.15-3.892-.34l-.18-.017.591-6.744ZM48.493,152.402c.046-.521.059-.663.055-.826l-1.614-.142-.072.825,1.632.143ZM48.654,150.356c.023-.269.03-.539.054-.808l-1.597-.14-.071.807,1.614.141Z"/>
    <path class="st1" d="M36.329,169.769c.148-1.703.466-3.466.95-5.284l2.935.744c-1.096,3.646-1.304,8.092-.498,10.656l-2.986.661c-.484-2.104-.611-4.374-.4-6.777ZM41.606,175.346l.835-2.729c1.696.654,3.637.986,5.768,1.011l-.387,2.768c-1.528.119-4.396-.367-6.216-1.05ZM43.058,166.4c1.359.155,4.145.345,5.049.333l-.099,2.775c-.743.025-3.617-.172-5.318-.357l.368-2.751Z"/>
    <path class="st1" d="M35.048,187.075c-.197.199-.397.418-.615.633l-1.91-1.721c2.151-2.072,3.331-3.776,4.605-6.158l2.298,1.213c-1.061,2.004-2.112,3.484-3.377,4.928l1.637.089c-.043.701-.368,6.077-.495,7.729l-2.583-.226c.088-1.421.297-4.637.44-6.486ZM38.631,184.967l2.248.124c-.31,3.136-.443,4.859-.614,7.646l-2.26-.198c.174-2.822.312-4.4.626-7.572ZM40.993,186.493c.601-.256,1.147-.515,1.658-.777-.256-.185-.456-.365-.642-.526l1.504-1.477c.318.281.64.526.964.753.351-.295.666-.592.967-.928-.845-.056-1.671-.11-2.392-.137-.094.245-.17.491-.242.701l-2.598-.679c.279-.915.851-2.691,1.188-3.655l2.679.578c-.091.209-.186.472-.281.733,1.69.095,3.719.254,5.156.361l-.187,2.334c-.18-.016-.377-.033-.574-.051-.61.777-1.172,1.415-1.727,1.964.675.348,1.37.661,2.118.999l-1.091,1.929c-.623-.309-1.693-.89-2.776-1.527-.709.463-1.525.915-2.543,1.387l-1.182-1.982ZM42.166,188.782c1.502-.23,2.687-.542,3.507-.832l.55,1.566c-.894.302-2.539.718-3.515.922l-.542-1.656ZM42.249,193.199c1.558-.243,3.323-.793,4.216-1.076l.61,1.697c-1.077.322-3.319.957-4.31,1.123l-.517-1.744ZM42.286,191.124c1.57-.386,2.863-.707,3.892-1.087l.554,1.513c-.917.354-2.638.817-3.947,1.118l-.498-1.544Z"/>
    <path class="st1" d="M34.159,205.518l-1.225.978-1.712-2.12c2.113-1.641,3.858-2.987,5.229-3.988l1.808,2.074c-1.045.775-1.933,1.421-2.899,2.149l1.601.087c-.173,2.804-.273,4.783-.304,5.955l-2.738-.112c.022-1.083.089-2.451.241-5.022ZM32.059,198.937c1.474-1.137,2.241-1.648,3.685-2.66l1.544,1.979c-1.21.815-1.964,1.383-3.653,2.717l-1.575-2.035ZM41.915,205.491c-1.187-.067-2.214-.103-2.757-.097l.074-2.921c1.338.008,5.31.266,7.817.521l-.217,2.891-2.117-.186c-.192,2.206-.375,4.088-.549,5.664l-2.78-.243c.345-3.531.401-4.177.528-5.63ZM40.007,197.752c1.684-.034,5.007.202,6.75.319l-.146,2.896c-2.043-.196-5.536-.357-6.607-.289l.003-2.927Z"/>
    <path class="st1" d="M33.938,223.948c-.006-1.176.768-2.373,2.232-3.42-.326-.191-.692-.35-1.147-.516.22-1.065.385-1.919.542-2.683-.682-.06-1.415-.142-2.257-.233l.364-2.715c.808.07,1.614.141,2.421.212.097-.479.191-.941.265-1.369l2.942.456c-.086.354-.153.729-.242,1.118.755.048,1.494.076,2.233.086l-.162,2.68c-.777.004-1.697-.022-2.669-.07-.115.495-.21.957-.303,1.401.207.107.362.194.518.279.899-.373,1.736-.643,2.587-.857l.456,2.643c-.295.064-.591.146-.906.228.335.518.557.881.743,1.222l-2.24,1.431c-.345-.608-.713-1.146-1.089-1.595-.928.479-1.48,1.009-1.5,1.441-.035.81,1.544,1.146,4.552,1.066l-.18,2.677c-.688.013-1.338-.008-1.947-.062-3.336-.292-5.199-1.521-5.213-3.42Z"/>
    <path class="st1" d="M34.364,242.218c.938-.804,1.548-1.582,1.868-2.35-.261.086-.501.155-.756.17-5.681.677-4.542-6.345.188-5.244.266.061.529.155.772.267.062-.717.08-.914.082-1.149-1.882-.183-3.725-.398-5.727-.646l.243-2.78c1.356.191,3.345.4,5.532.592-.016-.435-.014-.868-.031-1.285l3.007-.081c-.003.452.021.996.023,1.594.755.048,1.617.104,2.752.149l-.278,2.777c-.688.012-1.626-.016-2.578-.08-.096,1.094-.264,1.982-.527,2.719,1.013,2.059.157,5.02-1.975,6.876l-2.596-1.528ZM35.677,237.742c.112-.46-.251-.854-.824-.904-.987-.086-1.147,1.743.534,1.113.112-.044.209-.108.29-.209Z"/>
    <path class="st1" d="M31.157,257.187c.252-2.888,4.378-3.358,5.567-.833.067-.156.104-.37.128-.639.15-1.722-1.771-2.486-5.153-2.041l-.307-1.039c1.084-1.243,1.713-2.02,2.669-3.237-.859-.093-1.954-.188-2.942-.257l.201-2.712c.467.041.933.082,1.382.121,1.649.145,3.334.31,6.09.623-1.383,1.976-2.079,2.909-3.084,4.267,2.452.07,4.149,1.953,3.938,4.375-.245,2.798-2.288,4.463-5.158,4.212-2.027-.178-3.456-1.405-3.33-2.84ZM35.562,257.861c.077-1.512-1.92-1.614-2.061-.831-.064.537.288.839.787.918.464.077.952.065,1.273-.087Z"/>
    <path class="st1" d="M31.43,271.827l3.451.212c-.071,1.223-.127,1.868-.18,3.093l-3.488-.215c.069-1.205.146-1.867.217-3.09ZM32.497,262.739l3.643.3c-.441,2.348-.896,5.073-1.157,7.436l-3.296-.125c.186-2.532.529-5.647.811-7.61Z"/>
    <path class="st1" d="M32.345,9.403c-1.53-.062-3.208-.101-4.869-.119l-.017-2.911c1.593-.023,3.055-.004,4.37.039,1.23-1.248,3.012-3.641,3.663-4.885l2.582,1.273c-.572.962-1.725,2.561-2.717,3.775.971.066,1.938.151,2.889.253l-.348,2.934c-.752-.084-1.559-.155-2.386-.209-1.257,1.77-.996,2.715,1.11,3.838l-1.826,2.479c-2.876-1.824-3.64-3.843-2.452-6.468ZM28.37,2.169l2.593-.714c.317,1.33.676,2.392,1.076,3.186l-2.454.996c-.499-1.11-.817-2.023-1.215-3.468Z"/>
    <path class="st1" d="M28.35,27.394c-.766.692-1.492,1.352-1.98,1.761l-1.814-1.984c.798-.653,3.108-2.674,4.091-3.582.022-.251.046-.521.068-.771-1.144.262-2.318.466-3.659.71l-.398-2.674c1.112-.119,2.821-.439,4.353-.793.111-.858.18-1.431.289-2.271l2.901.308c-.161,1.017-.355,2.409-.549,4.199,2.217-1.161,4.131-1.753,4.905-1.522l.55,1.15c-1.081,4.713-.779,6.223,1.263,6.437l-.382,2.913c-3.343-.419-4.629-2.863-4.032-7.005-1.06.342-1.902.684-2.606,1.074-.255,2.706-.352,4.849-.257,5.834l-2.905-.057c.037-1.243.093-2.503.164-3.727Z"/>
    <path class="st1" d="M23.608,46.061c.148-.873.789-4.07,1.467-7.265-.614,0-1.228-.017-1.824-.015l.155-2.806c.958-.007,1.664-.018,2.277,0,.323-1.418.471-2.074.556-2.428l2.929.617c-.169.69-.313,1.311-.436,1.878.722.009,1.53.062,2.553.151l-.24,2.744c-1.007-.053-2.034-.088-2.938-.095-.652,2.907-1.481,6.811-1.642,7.81l-2.857-.594ZM30.296,47.495l.506-2.685c1.589.428,4.527.722,5.661.567l-.002,2.711c-.552.114-1.492.122-2.677.019-1.363-.119-2.732-.365-3.488-.612ZM31.106,40.102c1.596-.06,3.772.059,5.145.27l-.238,2.726c-1.505-.149-3.753-.273-4.894-.247l-.013-2.748ZM34.896,35.408l1.627-.002c.03.689.008,1.771-.002,2.296h-1.627c.002-.432.004-1.281.002-2.294ZM37.37,35.444l1.591-.006c.014.453.022,1.394.016,2.297l-1.645.019c.021-.667.018-1.661.039-2.31Z"/>
    <path class="st1" d="M22.111,54.906c.091-1.04.234-2.058.449-3.069l2.874.415c-.473,3.537-.51,6.028-.119,9.207l-2.884.525c-.429-3.146-.508-4.942-.32-7.078ZM28.523,62.806c.857-1.533,1.518-3.5,1.895-5.744-.829-.036-1.746-.08-2.649-.087l-.016-2.713c.687.006,1.57.029,2.938.077.059-.863.062-1.73-.002-2.658l3.008-.08c.031,1.087.038,2.046,0,2.892.575.032,1.184.104,1.827.179l-.36,2.68c-.521-.046-1.114-.08-1.743-.117-.407,2.586-1.156,4.96-2.174,6.877l-2.724-1.305Z"/>
    <path class="st1" d="M20.753,78.696c.148-.873.789-4.069,1.467-7.265-.614,0-1.228-.017-1.824-.015l.155-2.806c.959-.007,1.664-.018,2.277,0,.323-1.417.471-2.073.556-2.427l2.929.617c-.169.69-.313,1.31-.436,1.878.722.009,1.53.062,2.553.151l-.24,2.744c-1.007-.053-2.034-.088-2.937-.095-.653,2.907-1.482,6.812-1.642,7.809l-2.858-.593ZM27.441,80.131l.506-2.686c1.589.429,4.528.723,5.662.568l-.002,2.711c-.553.114-1.493.122-2.677.019-1.363-.119-2.733-.365-3.489-.612ZM28.251,72.737c1.596-.06,3.772.059,5.146.269l-.239,2.727c-1.504-.149-3.752-.273-4.894-.247l-.013-2.748ZM32.041,68.044l1.627-.003c.03.69.008,1.772-.002,2.296l-1.627.002c.002-.434.004-1.283.002-2.295ZM34.514,68.079l1.591-.005c.015.453.023,1.394.016,2.297l-1.646.019c.021-.667.019-1.661.039-2.311Z"/>
    <path class="st1" d="M23.616,92.659l3.451.212c-.07,1.223-.127,1.868-.181,3.094l-3.486-.215c.069-1.205.146-1.867.216-3.091ZM24.682,83.571l3.643.301c-.44,2.348-.896,5.072-1.157,7.436l-3.296-.126c.185-2.532.53-5.646.811-7.61Z"/>
  </g>
</svg>