<?xml version="1.0" encoding="UTF-8"?>
<svg id="_レイヤー_1" data-name="レイヤー_1" xmlns="http://www.w3.org/2000/svg" version="1.1" viewBox="0 0 65 305">
  <!-- Generator: Adobe Illustrator 29.0.1, SVG Export Plug-In . SVG Version: 2.1.0 Build 192)  -->
  <defs>
    <style>
      .st0 {
        fill: #fff;
      }

      .st1 {
        fill: #3c291a;
      }
    </style>
  </defs>
  <g>
    <path class="st0" d="M61.285,18.611c-.313,0-.629-.098-.898-.299l-2.459-1.842c-.042-.031-.081-.064-.119-.1,0,.126,0,.244.003.351.007.417-.159.819-.46,1.108-.301.289-.711.436-1.126.416l-3.003-.172c-.794-.045-1.414-.703-1.414-1.498,0-.222,0-.446.004-.671-.437.032-.875-.116-1.199-.452l-1.989-2.054c-.285-.293-.438-.691-.422-1.1s.196-.793.502-1.065c.312-.277.655-.574,1.013-.877-.172-.063-.333-.158-.473-.281-.309-.271-.492-.656-.509-1.065l-.109-2.685c-.017-.405.132-.8.411-1.094.279-.294.666-.462,1.072-.467.571-.006,1.494-.044,2.48-.116l.097-.855c.091-.812.811-1.396,1.63-1.325l2.958.277c.41.039.786.244,1.041.568.254.324.363.738.303,1.146-.056.376-.096.754-.18,1.685,1.812-.016,3.423.502,4.632,1.549,1.399,1.212,2.075,2.963,1.903,4.931-.159,1.811-1.04,3.699-2.548,5.461-.296.346-.716.525-1.141.525ZM54.826,15.16h.002c.035-1.242.116-2.809.229-4.391.043-.596.435-1.109.999-1.308.14-.049.277-.094.412-.134-.244-.052-.476-.166-.67-.333-.363-.315-.554-.786-.512-1.265.048-.543.087-.995.12-1.374-.096.446-.388.816-.78,1.018.036.027.071.057.105.088.344.314.521.771.481,1.236l-.054.625c-.039.461-.288.878-.676,1.13-.302.197-.693.481-1.135.821.249-.015.504.037.738.153.542.267.87.832.834,1.435-.046.774-.078,1.543-.096,2.299ZM60.985,15.012h0c.017-.024.032-.049.048-.074-.016.025-.032.049-.049.074ZM59.782,9.287c.753.275,1.298.752,1.631,1.283.54.861.719,2.144.043,3.606.299-.623.479-1.232.529-1.813.087-.998-.217-1.828-.879-2.402-.362-.314-.812-.54-1.324-.674ZM57.978,12.06c-.044.709-.081,1.403-.108,2.045,1.021-1.056,1.081-1.816,1.002-1.941-.039-.063-.327-.177-.894-.104Z"/>
    <path class="st0" d="M60.558,35.548c-.479,0-1.019-.026-1.618-.079-1.465-.128-2.931-.389-3.824-.681-.717-.234-1.147-.963-1.008-1.704l.506-2.685c.065-.348.251-.659.521-.881-.148-.236-.23-.51-.231-.794l-.012-2.479c-.102-.003-.202-.007-.302-.01-.585,2.652-1.226,5.692-1.357,6.522-.064.405-.292.766-.63.999-.337.232-.757.317-1.156.234l-2.858-.594c-.791-.164-1.31-.924-1.174-1.72.131-.768.593-3.084,1.101-5.527-.403-.005-.788-.173-1.067-.467-.284-.3-.433-.704-.41-1.116l.155-2.806c.044-.791.695-1.411,1.487-1.417l.495-.004c.211-.001.41-.003.598-.004.148-.652.234-1.029.292-1.269.189-.79.972-1.285,1.769-1.118l2.928.618c.397.084.743.325.96.668.216.344.284.76.188,1.154-.009.038-.018.075-.027.112.253.019.524.041.819.067.396.035.763.225,1.019.53s.38.699.345,1.095l-.198,2.267c1.361.025,2.835.133,3.897.295.782.12,1.337.826,1.268,1.613l-.238,2.727c-.026.306-.146.593-.339.826.101.053.196.119.283.195.326.286.513.698.513,1.131l-.003,2.711c0,.712-.501,1.325-1.198,1.468-.396.082-.896.122-1.49.122ZM51.065,23.34c.175.093.332.221.46.378.225.277.341.622.335.973.022-.104.046-.206.068-.308.146-.648.697-1.118,1.351-1.167-.165-.093-.312-.218-.434-.37-.245-.306-.358-.694-.321-1.08l-.093.41c-.149.652-.709,1.121-1.366,1.164Z"/>
    <path class="st0" d="M54.621,51.177c-.243,0-.489-.011-.74-.033-2.042-.178-3.638-1.141-4.614-2.783-.895-1.504-1.237-3.533-1.019-6.03h0c.156-1.788.588-3.767,1.248-5.722.244-.723.988-1.148,1.737-.987l3.104.669c.424.091.787.362.997.741.209.38.244.832.096,1.239-1.482,4.067-1.166,6.326-.864,6.757.426.025.77-.071,1.262-.579.279-.289.663-.453,1.064-.457h.013c.397,0,.778.158,1.061.439l2.161,2.159c.58.58.587,1.519.015,2.107-1.617,1.664-3.43,2.479-5.521,2.479ZM51.236,42.592h0c-.16,1.831.051,3.296.609,4.235.481.811,1.212,1.233,2.297,1.328,1.007.089,1.88-.102,2.699-.606l-.063-.063c-.771.435-1.611.607-2.533.526-.909-.079-1.691-.566-2.203-1.37-.984-1.544-.958-4.38.034-7.77l-.132-.028c-.363,1.3-.605,2.576-.708,3.748Z"/>
    <path class="st0" d="M58.021,58.833c-.132,0-.265-.018-.395-.053-.417-.114-.765-.402-.954-.79-.22-.45-1.811-2.627-2.333-3.19-.272-.294-.415-.685-.398-1.085.018-.4.194-.777.491-1.046l1.963-1.78c.606-.55,1.546-.512,2.105.089.411.441,2.603,2.992,3.092,4.459.215.644-.029,1.352-.596,1.726l-2.148,1.421c-.247.164-.536.249-.827.249Z"/>
    <path class="st0" d="M54.098,75.223c-.606,0-1.243-.03-1.918-.089-2.371-.208-4.658-.811-6.44-1.698-.658-.328-.982-1.086-.764-1.789l.931-2.991c.135-.431.455-.778.874-.946.418-.168.891-.139,1.286.08,1.934,1.072,4.577,1.504,7.644,1.248.415-.036.817.102,1.124.376.308.274.488.663.5,1.074l.092,3.081c.023.772-.544,1.436-1.31,1.533-.64.081-1.309.122-2.019.122ZM48.242,71.248c1.244.454,2.693.766,4.199.898.697.061,1.346.086,1.943.074l-.004-.112c-2.301.038-4.334-.273-6.115-.936l-.023.076ZM55.238,68.944c-.152,0-.308-.023-.461-.073l-2.531-.817c-.391-.126-.712-.407-.891-.776-.145-.3-.184-.637-.116-.958-1.162-.262-2.404-.567-3.67-.9-.767-.202-1.243-.965-1.09-1.742l.581-2.931c.08-.403.322-.756.67-.976.346-.22.769-.288,1.168-.187,2.719.684,4.604,1.063,6.602,1.465l1.474.299c.413.084.771.338.986.7.217.361.271.796.149,1.2l-.207.695c-.417,1.397-.889,2.98-1.25,4.002-.217.614-.795,1.001-1.414,1.001ZM49.698,62.868c1.349.337,2.64.632,3.793.867.405.082.759.329.977.681.039.063.073.128.102.194.065-.215.131-.433.196-.65-1.587-.319-3.119-.629-5.067-1.093h0Z"/>
    <path class="st0" d="M49.264,92.004c-.542,0-1.065-.295-1.332-.81l-1.346-2.594c-.366-.705-.119-1.572.562-1.979,1.432-.855,2.122-1.385,2.453-1.686-.405-.07-1.219-.115-2.795.083-.794.098-1.522-.439-1.663-1.225l-.497-2.791c-.145-.812.394-1.589,1.205-1.738.432-.08.856-.143,1.271-.19-.034-.044-.066-.09-.096-.138-.214-.344-.279-.759-.182-1.152l.642-2.583c.198-.794.994-1.286,1.794-1.1,1.176.272,3.754,1.016,4.682,1.376.747.291,1.134,1.117.879,1.876l-.855,2.546c-.03.09-.068.176-.114.258.301.186.578.393.828.621,1.107,1.007,1.645,2.391,1.513,3.897-.232,2.658-2.519,5.27-6.273,7.165-.217.109-.447.162-.675.162ZM50.763,82.142c.512.162.922.401,1.253.72.418.403.896,1.125.795,2.276-.029.328-.125.642-.305.96.42-.578.671-1.15.718-1.683.051-.583-.122-1.034-.543-1.417-.387-.352-1.026-.67-1.918-.857Z"/>
    <path class="st0" d="M45.172,107.979c-.771,0-1.416-.583-1.492-1.352-.102-1.014-.196-2.814-.26-4.847-.322.015-.637-.071-.906-.25-.342-.229-.576-.587-.646-.993l-.492-2.844c-.129-.747.32-1.474,1.046-1.692.293-.088.589-.167.899-.243.012-1.065.035-1.953.07-2.647.04-.792.689-1.417,1.482-1.425l2.949-.031c.414-.01.798.157,1.082.445.229.232.376.531.42.85.008-.029.016-.058.023-.086.22-.78,1.017-1.244,1.805-1.051l2.706.67c.421.104.775.385.974.77s.22.837.061,1.24c-.188.471-.389,1.067-.562,1.653,1.491.924,2.363,2.329,2.492,4.059.02.359.014.682-.016,1.018-.264,3.021-2.504,4.969-5.992,5.211-.465.035-.928-.163-1.23-.506.01.142.02.268.03.374.04.418-.097.834-.377,1.147-.281.312-.681.493-1.101.498l-2.949.031h-.016ZM44.939,98.466c.315.014.622.126.873.327.347.278.553.696.562,1.141.023,1.156.06,2.304.103,3.329-.026-.998-.053-2.226-.08-3.73-.014-.782.575-1.443,1.354-1.52.037-.004.074-.007.111-.011-.389.025-.744-.138-1.024-.395-.305-.28-.48-.674-.485-1.089l-.005-.477c-.005-.411-.009-.812-.012-1.192-.014.621-.021,1.328-.023,2.114-.002.703-.493,1.311-1.18,1.46-.066.015-.131.029-.193.042ZM50.248,97.966c1.107.103,1.908.409,2.489.935.57.516.873,1.208.875,2.001.013,1.047-.468,1.678-1.145,2.093.815-.411,1.269-1.089,1.351-2.03.017-.196.02-.38.01-.565-.044-.589-.279-1.478-1.789-2.045-.414-.155-.723-.478-.872-.865-.237.259-.562.432-.919.477Z"/>
    <path class="st0" d="M49.205,119.931c-.576,0-1.115-.333-1.364-.876l-1.093-2.391c-.178-.389-.181-.836-.009-1.228.173-.392.504-.691.911-.823l.147-.047c.333-.108.69-.224,1.036-.339-.696-.016-1.654.021-2.977.166-.41.044-.808-.078-1.12-.336-.312-.259-.507-.634-.538-1.038l-.204-2.621c-.062-.79.5-1.49,1.284-1.602,1.84-.261,3.514-.328,4.968-.201,5.735.502,6.282,3.975,6.313,5.027.012.115.003.306-.018.527-.158,1.821-1.495,4.304-6.958,5.734-.127.033-.254.049-.38.049ZM52.506,112.229s.007.006.01.009c.531.473.826,1.121.83,1.824,0,.199-.02.383-.06.555.156-.241.247-.488.27-.739l.01-.121c-.022-.716-.462-1.201-1.06-1.528Z"/>
    <path class="st0" d="M47.777,137.281c-.213,0-.427-.045-.628-.138-2.388-1.101-3.931-3.019-4.234-5.263-.182-1.345.094-2.702.774-3.949-.825-.075-1.666-.162-2.478-.258-.819-.097-1.407-.837-1.314-1.657l.327-2.917c.044-.396.243-.757.555-1.005.311-.249.711-.363,1.104-.318,3.808.429,6.962.712,9.123.817.646.031,1.199.474,1.372,1.097l.55,1.981c.168.605-.059,1.251-.569,1.618-3.446,2.481-3.443,3.517-3.432,3.626.006.054.101.544,1.655,1.224.451.197.776.603.871,1.086s-.054.982-.396,1.334l-2.204,2.266c-.289.297-.679.454-1.075.454ZM46.005,130.128c-.136.451-.177.906-.117,1.35.129.947.693,1.787,1.618,2.43l.05-.051c-.77-.592-1.486-1.443-1.612-2.624-.039-.367-.02-.734.062-1.106ZM47.433,125.35c.309.179.55.467.668.819.074.221.095.45.065.671.445-.424.959-.862,1.545-1.317-.728-.047-1.497-.107-2.278-.174Z"/>
    <path class="st0" d="M50.317,153.909c-.04,0-.081-.001-.121-.005l-2.925-.238c-.398-.032-.768-.222-1.025-.527-.257-.305-.383-.701-.348-1.098.04-.46.104-1.163.181-2.009-.183.058-.378.083-.583.063l-8.233-.72c-.801-.07-1.404-.759-1.367-1.562.101-2.213.318-5.208.478-7.396.058-.791.106-1.462.137-1.926.055-.826.745-1.457,1.594-1.398l2.337.151c.82.053,1.678.11,2.405.174.898.079,1.749.169,2.594.259l1.279.134c.821.083,1.421.815,1.342,1.637l-.035.364c1.815.089,3.633.199,4.996.303.406.031.782.226,1.041.539.26.314.381.719.335,1.124l-.329,2.936c-.09.809-.823,1.404-1.621,1.327l-.086-.007c-.191,1.974-.326,3.685-.458,5.35l-.091,1.146c-.032.396-.22.765-.523,1.022-.272.231-.617.357-.972.357ZM48.662,142.848c.222.085.421.223.581.404.177.199.295.438.347.693.159-.487.556-.856,1.043-.985-.631-.039-1.296-.076-1.971-.111ZM45.395,142.37l-.055.493c.187-.104.397-.168.621-.184-.208-.06-.401-.166-.566-.309Z"/>
    <path class="st0" d="M48.027,168.507c-.33,0-.66-.108-.934-.326l-2.247-1.787c-.305-.242-.502-.592-.553-.975-1.556,1.554-3.404,2.23-5.217,1.745-2.478-.668-3.931-2.774-3.703-5.367.369-4.216,4.369-7.329,8.943-6.922,4.669.408,7.789,3.785,7.419,8.028-.18,2.053-1.154,3.919-2.745,5.253-.278.234-.621.351-.964.351ZM47.561,159.317c.646.684,1.042,1.535,1.141,2.479.101.968-.126,1.968-.637,2.899.381-.622.62-1.326.684-2.053.125-1.432-.365-2.537-1.188-3.324ZM43.681,157.842c.225.107.422.27.571.477.158.219.251.473.276.734.175-.294.446-.523.774-.643.23-.084.475-.111.714-.078-.613-.254-1.283-.41-1.961-.469-.125-.011-.25-.018-.375-.021Z"/>
    <path class="st0" d="M46.608,184.536c-.11,0-.223-.013-.334-.038l-2.836-.646c-.409-.093-.76-.353-.969-.716-.208-.364-.255-.798-.129-1.198.126-.399.257-.852.39-1.346-.898,1.551-2.307,2.827-4.73,2.707-1.17-.062-2.229-.578-2.987-1.452-.795-.915-1.171-2.119-1.06-3.389.149-1.708.977-3.015,2.341-3.817-.011-.012-.022-.025-.033-.038-.265-.309-.393-.712-.354-1.117l.263-2.796c.076-.821.819-1.426,1.623-1.354l.573.05c1.725.151,4.046.415,5.646.641.41.058.778.283,1.017.622.086.123.152.255.198.395.304-.162.651-.214.992-.148l2.861.558c.783.152,1.31.892,1.198,1.683-.107.758-.252,1.638-.419,2.561.043.014.087.027.13.042.771.251,1.203,1.071.975,1.849l-.85,2.89c-.116.394-.388.723-.752.91-.242.125-.517.18-.779.164-.19.746-.373,1.395-.546,1.938-.201.634-.788,1.047-1.429,1.047ZM45.478,177.473c.486.284.778.824.74,1.395.133-.219.32-.403.548-.531.25-.14.529-.208.811-.19-.595-.237-.972-.828-.942-1.462-.117.223-.29.414-.505.554-.197.129-.421.209-.651.235ZM40.275,176.733c.182.108.342.255.466.433.061.088.111.181.152.277.262-.421.719-.687,1.216-.705-.149-.104-.28-.235-.385-.389-.074-.109-.133-.227-.176-.349-.263.44-.74.727-1.273.732ZM41.523,172.732c.084.072.16.154.227.245.064.087.118.18.161.277l.097-.463c-.159-.02-.321-.039-.484-.058Z"/>
    <path class="st0" d="M41.057,201.051c-.2,0-.405-.009-.614-.027-1.708-.149-3.079-1.075-3.762-2.539-.496-1.064-.556-2.303-.204-3.413l-2.212-.494c-.437-.097-.807-.385-1.01-.784s-.217-.868-.039-1.278c.155-.356.309-.734.46-1.131-.215-.095-.405-.24-.557-.426-.256-.315-.373-.722-.324-1.125l.332-2.754c.098-.805.824-1.385,1.621-1.314.167.015.335.028.502.041.036-.19.07-.387.104-.59.137-.802.889-1.351,1.69-1.235l2.963.421c.411.058.779.284,1.018.624.229.326.317.729.249,1.121.035,0,.07.002.107.003.406.011.791.187,1.065.486.059.064.111.133.158.206.351-.277.821-.395,1.291-.276,1.113.278,2.121.573,4.314,1.262.769.241,1.21,1.047.998,1.825l-.667,2.454c-.108.4-.379.738-.745.932-.367.195-.801.229-1.19.092l-.053-.018c-.004.128-.009.254-.015.378.667.396,1.271.839,1.682,1.242.553.542.603,1.414.116,2.015l-1.804,2.229c-.259.319-.638.519-1.047.551-.239.018-.467-.019-.681-.104-.917,1.071-2.189,1.626-3.749,1.626ZM42.755,194.841c.175.124.322.284.432.472.144.248.212.529.201.811.161-.139.352-.245.562-.306.162-.047.326-.068.492-.058-.043-.021-.085-.042-.128-.063-.574-.278-.91-.888-.837-1.522,0-.002,0-.004,0-.006-.093.174-.219.331-.375.458-.106.088-.224.159-.348.213ZM40.333,195.968h0ZM40.666,195.731l.794.218c-.113-.156-.269-.257-.423-.27-.139-.013-.265.012-.371.052ZM41.434,194.45s0,0,.002,0l.085-.99-.087.99ZM39.766,191.868c-.02.061-.038.121-.057.18.283-.073.579-.123.885-.149l-.828-.03ZM36.547,188.899c.158.108.296.247.404.41.141.212.224.454.244.702.012-.037.022-.074.033-.11.184-.622.744-1.051,1.384-1.074-.144-.092-.271-.209-.376-.346-.178-.234-.289-.513-.314-.801-.006.024-.012.048-.017.072-.155.646-.713,1.104-1.358,1.146Z"/>
    <path class="st0" d="M39.766,217.708c-.054,0-.107-.003-.162-.009-5.216-.564-6.97-3.618-7.523-6.081-.171-.761.271-1.526,1.015-1.76l2.657-.834c.181-.057.369-.077.555-.065-.562-.068-1.109-.151-1.646-.248-.763-.138-1.294-.834-1.227-1.607l.237-2.709c.035-.407.235-.781.554-1.038.317-.256.726-.373,1.131-.319.575.074,1.09.134,1.56.184-.025-.25-.046-.491-.062-.722-.054-.813.552-1.521,1.364-1.593l2.97-.264c.4-.037.805.093,1.11.357.308.264.494.641.52,1.044.023.385.071.841.141,1.364.523-.016.988-.039,1.417-.069.41-.026.793.104,1.094.367s.484.635.51,1.034l.176,2.745c.053.821-.565,1.531-1.386,1.592-.223.016-.448.031-.676.044.122.483.249.944.372,1.354.121.401.069.834-.144,1.195s-.566.616-.977.705l-1.694.365c.01.013.019.026.028.04.246.359.324.808.214,1.229l-.678,2.58c-.175.665-.776,1.119-1.45,1.119ZM36.449,208.977c.157.026.311.078.454.154.354.188.618.509.734.892.173.575.522,1.054,1.015,1.413-.231-.652-.463-1.447-.675-2.317-.523-.036-1.032-.083-1.528-.141ZM39.368,206.192c.636.075,1.159.549,1.292,1.184.021.104.044.209.066.312,0-.334.114-.662.326-.929.109-.137.241-.253.388-.343-.629-.098-1.14-.589-1.247-1.235-.013-.074-.024-.147-.036-.219-.021.331-.15.649-.375.902-.119.134-.26.245-.414.327Z"/>
    <path class="st0" d="M40.893,233.45c-.624,0-1.234-.089-1.816-.27-1.165-.362-2.135-1.066-2.832-2.039-.109.059-.223.12-.341.183-.177.337-.379.695-.61,1.085-.412.691-1.293.934-2.001.553l-2.761-1.488c-.359-.194-.624-.526-.733-.919s-.054-.814.155-1.166c1.233-2.081,3.392-7.552,4.275-10.84.208-.778.995-1.255,1.783-1.073l3.065.702c.396.09.737.337.948.685.21.347.271.765.168,1.157-.262,1.001-.658,2.288-1.102,3.595.151.031.299.086.437.164.401.227.676.626.744,1.082.291,1.936.577,2.507.702,2.671.151-.013.606-.111,1.688-.727.713-.406,1.62-.165,2.036.545l1.431,2.439c.393.669.21,1.527-.421,1.979-1.544,1.105-3.227,1.683-4.816,1.683ZM33.266,229.539l.142.077c.008-.016.016-.031.023-.046.137-.282.359-.513.635-.662l.168-.091c.773-.418,1.385-.749,2.031-1.04.381-.171.815-.176,1.2-.013.176.075.333.181.467.312-.093-.256-.175-.531-.25-.823-.135.066-.28.137-.438.214-.557.272-1.222.175-1.677-.244-.455-.42-.605-1.076-.379-1.652.585-1.487,1.211-3.293,1.677-4.823l-.145-.033c-.889,2.859-2.312,6.485-3.455,8.825Z"/>
    <path class="st0" d="M31.105,248.716c-.684,0-1.301-.47-1.461-1.164-.513-2.228-.659-4.665-.434-7.243h0c.156-1.781.491-3.645.996-5.541.212-.794,1.021-1.268,1.818-1.068l2.935.745c.396.101.734.359.937.715.201.356.249.779.131,1.171-.702,2.335-1.017,5.11-.894,7.336l.25-.818c.122-.398.404-.728.778-.91.375-.183.808-.202,1.196-.051,1.507.582,3.271.888,5.245.91.431.005.839.195,1.12.522.28.327.407.759.348,1.186l-.387,2.768c-.098.697-.667,1.233-1.369,1.288-1.745.138-4.821-.376-6.859-1.142-.037-.014-.072-.029-.107-.045-.214.328-.548.56-.932.645l-2.986.661c-.109.024-.219.036-.325.036ZM32.248,245.04c.015.126.031.251.049.376h.004c-.019-.124-.036-.25-.053-.376ZM42.249,241.68c-1.039,0-3.76-.195-5.345-.368-.402-.044-.769-.248-1.019-.566-.249-.318-.359-.723-.307-1.124l.367-2.751c.108-.81.845-1.385,1.657-1.292,1.331.152,4.065.345,4.862.324.426.016.805.159,1.091.452s.44.691.426,1.101l-.099,2.775c-.028.788-.66,1.419-1.448,1.446-.054.002-.116.003-.187.003Z"/>
    <path class="st0" d="M37.209,16.866c-.3,0-.6-.089-.858-.27l-2.163-1.508c-.097-.068-.185-.146-.262-.232-1.365.765-2.857,1.137-4.369,1.039-1.261-.06-2.401-.587-3.192-1.483-.791-.897-1.172-2.098-1.072-3.38.16-1.832,1.029-3.408,2.438-4.539-.28-.279-.439-.658-.441-1.054l-.016-2.712c-.005-.825.657-1.499,1.481-1.509.375-.005.799-.005,1.25,0,.062-.383.269-.727.578-.961.318-.24.72-.341,1.113-.288l2.678.379c.417.059.791.291,1.028.639.083.121.146.252.19.389.704.036,1.37.083,1.835.123.807.07,1.411.767,1.368,1.575l-.146,2.699c-.007.127-.03.251-.067.371.366.266.699.565.996.896,1.046,1.168,1.546,2.677,1.408,4.249-.187,2.134-1.174,3.954-2.856,5.263-.271.21-.596.316-.921.316ZM32.134,11.287c-.01.215-.019.435-.026.659-.006.189-.048.372-.119.539.36-.158.711-.358,1.051-.599-.092-.02-.183-.049-.271-.086-.261-.111-.478-.291-.634-.512ZM30.608,11.897h.01-.01ZM36.011,8.119c.058.148.092.303.101.458.168-.073.35-.115.537-.122-.196-.125-.409-.238-.638-.336ZM31.551,7.87s.006.003.008.005c.182.114.332.263.447.435.075-.438.338-.812.699-1.036-.045-.04-.088-.083-.129-.128-.067-.076-.126-.157-.177-.243-.138.421-.447.792-.849.967ZM31.851,4.152c.12.073.229.164.326.27.104.116.19.247.254.386.179-.331.478-.585.834-.708-.133-.081-.254-.182-.357-.301-.098-.113-.177-.238-.236-.371-.172.335-.466.594-.82.724Z"/>
    <path class="st0" d="M26.497,30.221c-.623,0-1.204-.391-1.418-1.012-.829-2.407-1.104-4.571-.89-7.017.096-1.095.288-2.262.604-3.672.088-.39.328-.729.667-.942.34-.212.748-.281,1.139-.189l2.834.664c.783.183,1.282.952,1.132,1.742-.224,1.169-.355,2.434-.382,3.564l.146-.021c.396-.049.799.056,1.115.301s.521.607.57,1.004l.306,2.503c.087.71-.341,1.383-1.021,1.607-.755.248-1.529.494-2.298.739-.691.22-1.377.438-2.038.654-.154.051-.312.075-.466.075ZM27.31,21.339c-.057.388-.101.757-.132,1.114h0c-.135,1.546-.04,2.916.318,4.37.198-.063.396-.126.596-.189.106-.034.213-.068.32-.102-.229-.05-.445-.153-.63-.304-.312-.255-.508-.626-.544-1.028-.101-1.122-.072-2.479.071-3.86ZM25.684,22.323h.01-.01ZM35.766,28.194c-.334,0-.661-.112-.929-.322-.344-.271-.552-.678-.57-1.115-.057-1.35-.351-3.326-.808-5.419-.089-.408-.004-.835.235-1.178.238-.342.609-.57,1.023-.628l2.946-.411c.705-.095,1.395.32,1.627,1.001.503,1.476.862,4.327.769,6.102-.036.686-.534,1.259-1.208,1.392l-2.796.55c-.097.019-.193.028-.29.028ZM36.711,22.283c.094.502.177.991.249,1.46-.056-.506-.13-1.01-.216-1.464l-.033.004Z"/>
    <path class="st0" d="M31.172,47.452c-.054,0-.107-.003-.162-.009-5.216-.564-6.97-3.618-7.523-6.08-.171-.761.271-1.526,1.015-1.76l2.657-.834c.181-.056.367-.078.554-.065-.562-.068-1.109-.15-1.645-.248-.763-.139-1.294-.835-1.227-1.607l.237-2.708c.035-.407.235-.781.554-1.038.317-.256.728-.372,1.131-.319.575.074,1.09.134,1.56.184-.025-.25-.046-.491-.062-.722-.054-.813.552-1.521,1.364-1.593l2.97-.264c.4-.037.805.093,1.11.357.308.264.494.641.52,1.044.023.385.071.841.141,1.364.52-.016.984-.039,1.419-.069.398-.026.792.104,1.093.367.301.263.484.635.51,1.034l.175,2.745c.052.82-.566,1.53-1.386,1.591-.223.016-.448.031-.676.044.123.486.25.947.372,1.354.121.401.069.835-.144,1.196s-.566.616-.977.704l-1.694.365c.01.014.019.027.028.041.246.359.324.808.214,1.229l-.678,2.579c-.175.665-.776,1.119-1.45,1.119ZM27.858,38.722c.156.026.309.078.451.153.354.188.619.509.735.892.173.575.522,1.054,1.015,1.413-.231-.652-.463-1.447-.675-2.317-.523-.037-1.031-.083-1.526-.141ZM30.774,35.936c.636.075,1.16.548,1.293,1.184.021.105.044.209.066.312,0-.334.114-.661.326-.927.109-.138.241-.254.389-.344-.63-.098-1.141-.589-1.248-1.236-.013-.074-.024-.146-.036-.219-.021.331-.15.649-.375.902-.119.135-.26.245-.415.328Z"/>
    <path class="st0" d="M28.484,61.835c-.632,0-1.215-.402-1.423-1.027l-.959-2.885c-.125-.378-.096-.792.084-1.147.18-.356.493-.626.872-.751,2.079-.682,3.049-1.098,3.482-1.351-.471-.228-1.921-.441-6.352.039-.412.046-.826-.084-1.142-.355-.314-.271-.502-.662-.519-1.077l-.117-2.992c-.029-.755.507-1.414,1.252-1.538,2.473-.413,4.557-.536,6.373-.376,6.236.545,6.914,4.421,6.916,6.063.003.24-.009.367-.02.493-.196,2.249-1.759,5.264-8.081,6.86-.123.031-.246.046-.368.046ZM29.422,58.398l.031.093c1.064-.355,2.227-.861,3.104-1.557-.768.578-1.864,1.024-3.135,1.464ZM28.441,51.41c2.939,0,4.95.661,5.252,3.005.107.817-.109,1.46-.567,1.995.456-.498.762-1.075.82-1.742.005-.053.009-.106.008-.213,0-.686-.003-2.727-4.178-3.092-1.228-.108-2.672-.055-4.312.154l.002.053c1.065-.097,2.064-.16,2.976-.16Z"/>
    <path class="st0" d="M30.953,78.601c-.597,0-1.17-.023-1.71-.071-5.911-.517-6.573-3.601-6.583-4.903v-.004c-.004-.851.249-2.003,1.273-3.214-.169-.304-.232-.668-.157-1.031l.213-1.054c-.105-.011-.212-.023-.32-.035l-.302-.033c-.401-.044-.769-.248-1.018-.566-.25-.318-.359-.724-.306-1.124l.364-2.715c.106-.795.828-1.37,1.617-1.295l1.074.094s0-.006.002-.009c.138-.809.901-1.35,1.709-1.229l2.942.457c.414.064.782.299,1.016.647.108.162.184.341.222.528.182.005.363.009.545.011.41.006.8.179,1.078.48.278.3.423.702.397,1.111l-.162,2.679c0,.011,0,.022-.002.034.054.118.094.243.116.374l.456,2.643c.07.41-.032.811-.258,1.126.279.665.044,1.446-.576,1.842l-.026.017c.008.008.016.016.023.024.293.305.443.719.415,1.14l-.181,2.677c-.053.777-.692,1.385-1.472,1.399-.132.002-.262.003-.392.003ZM28.447,70.413c.403,0,.799.162,1.088.466-.003-.192.031-.385.103-.569.025-.063.054-.125.087-.184-.084.033-.168.067-.253.103-.422.174-.898.147-1.298-.072-.104-.058-.197-.108-.295-.161.006.043.01.088.012.132.007.139-.006.276-.037.407.191-.083.394-.123.594-.123ZM26.596,65.736c.151.097.285.22.395.367.133.178.223.381.267.594.171-.527.617-.911,1.15-1.01-.123-.089-.234-.196-.327-.321-.17-.226-.27-.493-.294-.769h-.008c-.136.59-.608,1.029-1.183,1.138Z"/>
    <path class="st0" d="M27.182,94.914c-.262,0-.524-.068-.761-.208l-2.596-1.528c-.418-.246-.69-.678-.733-1.161-.03-.346.06-.687.249-.968-1.434-.416-2.152-1.352-2.442-1.852-.812-1.397-.683-3.186.33-4.557.04-.053.08-.104.121-.155-.177-.021-.351-.043-.521-.064-.802-.099-1.381-.815-1.311-1.62l.244-2.781c.036-.41.239-.787.562-1.043.322-.256.737-.368,1.143-.311.955.135,2.283.286,3.834.435.061-.247.184-.477.36-.666.274-.293.654-.465,1.057-.476l3.007-.081c.384-.011.801.144,1.091.429.291.285.453.676.449,1.083,0,.054,0,.11,0,.167.402.022.843.044,1.335.064.414.017.802.203,1.073.515.271.312.401.723.359,1.134l-.279,2.777c-.076.757-.706,1.337-1.467,1.35-.382.005-.822.002-1.292-.013-.068.387-.148.746-.243,1.081.927,2.616-.099,5.914-2.584,8.078-.28.244-.632.369-.985.369ZM27.165,88.215c.143.077.275.179.39.302.249.269.386.613.398.966.209-.823.177-1.633-.143-2.284-.18-.364-.203-.786-.066-1.168.053-.148.102-.306.146-.476-.124.182-.285.336-.477.448-.097.056-.198.102-.303.137.292.484.382,1.067.245,1.625-.039.16-.104.312-.191.45ZM24.442,87.054c-.058.233-.006.492.137.691.136.188.298.25.364.255.305.026.622-.136.782-.405.039-.065.067-.135.086-.207l-1.369-.334ZM25.9,87.41h.01-.01ZM25.003,86.25c-.11.057-.203.132-.273.221l1.092.876c.044-.222-.004-.463-.144-.674-.199-.303-.511-.417-.675-.422ZM27.257,82.171c.534.196.921.685.977,1.264.136-.514.533-.912,1.031-1.057-.571-.213-.975-.762-.977-1.401v-.058h-.009c-.041.346-.201.67-.457.914-.163.155-.356.27-.565.338Z"/>
    <path class="st0" d="M25.256,111.219c-.222,0-.448-.01-.679-.03-1.287-.112-2.465-.575-3.315-1.302-.979-.836-1.48-1.989-1.377-3.163.079-.9.419-1.702.959-2.337-.164-.169-.291-.38-.361-.62l-.307-1.039c-.146-.492-.029-1.024.308-1.411.322-.37.603-.696.863-1.004l-.108-.007c-.398-.028-.769-.213-1.03-.514-.261-.302-.392-.695-.362-1.093l.2-2.712c.029-.4.219-.772.524-1.032s.711-.387,1.103-.352l1.383.121c1.881.164,3.657.346,6.128.626.526.06.981.392,1.198.874.218.482.165,1.043-.139,1.477-.745,1.064-1.292,1.828-1.795,2.517.599.301,1.134.709,1.582,1.213.996,1.118,1.469,2.604,1.331,4.182-.296,3.379-2.767,5.605-6.105,5.605ZM24.286,107.452c.012.109.138.26.226.266.074.016.271-.069.427-.231l-.652-.034ZM27.285,107.484c0,.038-.002.076-.004.115.07-.055.137-.113.201-.175-.064.024-.13.044-.197.06ZM25.783,107.529h.01-.01ZM21.379,106.855h.01-.01ZM24.075,101.724c.172.006.339.017.502.032-.073-.153-.119-.314-.138-.477-.121.149-.241.296-.364.445ZM25.281,97.946c.164.146.296.329.385.538.044.106.076.216.096.327.179-.244.36-.493.552-.758-.37-.039-.713-.075-1.032-.107Z"/>
    <path class="st0" d="M28.284,125.691c-.33,0-.66-.108-.934-.326l-2.248-1.787c-.305-.242-.502-.593-.553-.976-1.557,1.554-3.408,2.231-5.216,1.746-2.479-.669-3.931-2.775-3.703-5.368.369-4.216,4.373-7.327,8.943-6.922,2.167.189,4.104,1.051,5.456,2.426,1.452,1.478,2.149,3.468,1.962,5.603-.18,2.055-1.154,3.92-2.744,5.253-.278.233-.621.351-.964.351ZM27.96,116.66c.562.655.906,1.448.997,2.32.104.997-.139,2.028-.684,2.983.411-.637.663-1.366.73-2.138.107-1.229-.253-2.321-1.044-3.166ZM23.939,115.026c.225.107.422.27.571.478.158.219.251.472.276.732.175-.293.446-.521.773-.642.231-.085.476-.11.713-.078-.592-.248-1.254-.408-1.96-.47-.125-.011-.25-.018-.374-.021Z"/>
    <path class="st0" d="M22.678,142.24c-.288,0-.58-.083-.836-.255l-2.287-1.538c-.039-.026-.077-.054-.113-.083-.161.271-.405.488-.697.613-.385.164-.821.167-1.204-.003l-2.417-1.079c-.673-.3-1.027-1.044-.838-1.755.069-.262.225-.692,1.449-3.538-.245-.067-.472-.197-.656-.379-.302-.297-.463-.708-.445-1.131l.122-2.845c.034-.779.659-1.402,1.438-1.434.54-.024,1.225-.012,2.048.03.312-.707.628-1.421.827-1.851.343-.744,1.222-1.075,1.972-.741l2.523,1.125c.365.163.651.465.793.839.09.238.117.492.082.739.077-.035.157-.063.24-.084l1.565-.407c.006-.245.068-.489.188-.702.209-.368.554-.654.966-.747l1.384-.313c.146-.033.291-.044.436-.034.06-.021.122-.037.186-.05l1.379-.277c.711-.142,1.422.244,1.689.918.199.503.44,1.387.559,1.951.165.79-.325,1.569-1.109,1.763l-1.405.347c-.198.048-.403.057-.601.024l-.458.128c.276.925.534,1.887.662,2.515.151.744-.275,1.483-.996,1.723l-2.234.744c-.152.05-.31.076-.467.077-.455,1.691-1.324,3.477-2.539,5.107-.294.394-.746.604-1.204.604ZM22.214,132.25c.565.273.976.715,1.209,1.288.243.6.283,1.321.115,2.173.3-1.128.326-2.09.116-2.707-.158-.464-.383-.527-.491-.557-.245-.067-.564-.133-.949-.197ZM18.782,131.878c.192.119.358.282.482.48.093.147.157.307.193.472l.014-.032c.279-.634.956-.995,1.638-.872.034.006.068.013.102.02-.194-.133-.357-.312-.473-.525-.077-.143-.13-.295-.157-.451l-.017.038c-.257.581-.857.931-1.482.892-.102-.007-.202-.015-.3-.021Z"/>
    <path class="st0" d="M24.342,159.786c-.257,0-.516-.065-.752-.203l-2.201-1.278c-.364-.211-.623-.566-.713-.978-.09-.411-.002-.842.241-1.186.282-.398.513-.833.69-1.299-.049-.003-.097-.007-.144-.01-.059.214-.165.418-.321.595l-1.727,1.963c-.264.301-.638.483-1.038.507-.233.011-.464-.027-.675-.117l-.057.064c-.531.61-1.45.689-2.078.178l-1.94-1.58c-.322-.262-.521-.647-.55-1.062-.027-.415.118-.823.402-1.126.076-.081.151-.162.224-.243-.29-.295-.606-.624-.965-1.006-.351-.375-.486-.903-.357-1.4.11-.429.227-.926.373-1.557-.11-.067-.212-.149-.302-.244-.285-.301-.438-.706-.414-1.12l.15-2.554c.046-.786.691-1.402,1.479-1.412.105,0,.214,0,.329,0,.022-.096.044-.189.064-.279l.127-.552c.182-.796.96-1.304,1.769-1.135l2.556.531c.396.083.742.322.96.663.214.336.285.745.198,1.134l.283.019c.042.003.083.007.124.013l.006-.746c.004-.406.171-.793.465-1.073.294-.28.688-.422,1.094-.413,1.091.043,2.251.124,4.006.277,1.089.095,2.248.214,3.587.368.47.054.887.325,1.125.733s.271.904.088,1.339c-.698,1.657-1.319,2.708-2.499,4.104.268.019.537.037.808.055.826.056,1.494.772,1.439,1.599l-.17,2.569c-.055.826-.801,1.451-1.594,1.398l-1.089-.071c-.354,1.411-.957,2.739-1.775,3.899-.291.411-.754.635-1.227.635ZM17.118,153.303c.134.286.173.606.115.914.085-.018.173-.028.263-.031.081,0,.158.001.234.012-.131-.29-.166-.615-.101-.926-.058.013-.115.023-.174.03-.113.014-.229.013-.338.001ZM24.175,152.145c.179.093.338.222.468.381.086.105.156.22.21.342.131-.207.31-.377.52-.499-.298-.169-.532-.438-.657-.762-.052.088-.112.171-.183.248-.104.116-.226.213-.357.29ZM21.184,149.195l.388.026c.037-.3.166-.586.374-.817-.139-.004-.28-.009-.426-.013-.096-.003-.189-.015-.279-.034l-.057.838ZM15.591,147.722c.068.062.131.131.188.206.067.089.123.186.169.286.194-.312.498-.543.852-.647-.077-.07-.147-.148-.209-.234-.057-.078-.104-.16-.145-.246-.197.308-.502.535-.854.635ZM26.455,146.246c.035.054.066.109.095.168.019.038.035.076.05.115.056-.084.109-.168.162-.253-.104-.01-.205-.021-.307-.03Z"/>
    <path class="st0" d="M19.574,176.082c-.095,0-.19-.009-.286-.027-4.051-.784-6.37-3.017-6.892-6.637-.1-.688.287-1.354.934-1.609l.714-.282c-.122-.246-.179-.527-.148-.82l.248-2.418c.027-.263.122-.511.273-.721-.012-.102-.013-.206-.003-.31l.224-2.348c.078-.821.812-1.428,1.623-1.352.39.034.774.062,1.247.096.149-.674.75-1.173,1.464-1.173h.022l2.979.044c.404.006.79.175,1.067.47.221.233.358.528.398.841l.776-.024c.015,0,.03,0,.046,0,.786,0,1.442.609,1.496,1.399l.157,2.328c.006.101.003.201-.01.299.137.226.213.486.217.754l.038,2.461c.013.804-.61,1.474-1.413,1.521-.173.01-.346.019-.518.028.037.172.076.333.115.479.113.422.037.872-.208,1.233-.246.361-.638.597-1.071.646l-1.429.161c.047.06.09.123.129.189.218.379.259.834.114,1.247l-.891,2.525c-.215.609-.789,1.001-1.414,1.001ZM18.03,168.609c.101.267.234.499.391.701-.052-.218-.102-.448-.15-.688l-.24-.013ZM20.178,165.813c.41.194.721.57.822,1.032.052-.233.159-.453.316-.64.046-.054.095-.104.146-.151-.406-.211-.706-.604-.787-1.077-.058.257-.176.501-.349.689-.047.051-.097.1-.149.146ZM19.976,162.392c.323.224.555.571.625.975.055-.238.167-.461.33-.649.039-.045.081-.088.125-.128-.053-.039-.104-.082-.152-.127-.247-.237-.405-.55-.45-.886-.062.291-.209.56-.428.77-.017.016-.033.031-.05.046Z"/>
    <path class="st0" d="M18.387,191.677c-.2,0-.404-.009-.613-.027-2.969-.26-4.367-2.73-4.176-4.922.03-.349.101-.694.208-1.029l-2.21-.494c-.437-.098-.807-.385-1.01-.783s-.217-.867-.039-1.277c.152-.353.307-.733.459-1.132-.214-.095-.404-.24-.555-.425-.257-.315-.374-.721-.325-1.125l.331-2.754c.096-.804.803-1.39,1.621-1.315.167.015.335.028.503.041.035-.191.07-.387.104-.587.134-.803.889-1.351,1.69-1.237l2.964.421c.411.058.78.285,1.019.625.228.326.316.729.248,1.119.035,0,.07.002.107.003.406.011.791.187,1.066.486.059.064.111.133.157.206.354-.276.825-.391,1.288-.275,1.108.276,2.117.571,4.317,1.262.769.241,1.21,1.047.998,1.825l-.667,2.454c-.108.4-.379.738-.746.933-.366.194-.798.227-1.19.092-.018-.006-.034-.012-.052-.018-.004.128-.009.254-.015.378.667.396,1.271.839,1.682,1.242.553.542.603,1.414.116,2.015l-1.804,2.228c-.259.32-.638.519-1.048.551-.233.02-.466-.018-.679-.104-.917,1.071-2.19,1.626-3.751,1.626ZM20.086,185.467c.174.123.321.283.431.471.145.248.213.53.202.812.161-.139.352-.244.561-.306.162-.047.323-.068.493-.058-.043-.021-.086-.043-.128-.063-.574-.278-.91-.888-.837-1.521,0-.002,0-.004,0-.006-.092.174-.219.331-.374.458-.107.088-.225.16-.349.214ZM17.664,186.595h0ZM17.998,186.357l.792.217c-.113-.155-.268-.256-.422-.269-.14-.015-.265.012-.37.052ZM17.097,182.494c-.019.059-.037.117-.056.174.272-.069.559-.119.86-.145-.249-.009-.513-.019-.805-.03ZM13.878,179.525c.158.108.296.247.404.41.141.212.224.454.244.702.012-.037.022-.073.033-.11.184-.621.743-1.05,1.382-1.074-.143-.092-.27-.208-.373-.343-.18-.235-.29-.515-.315-.804-.005.024-.011.047-.017.071-.154.647-.712,1.106-1.358,1.149Z"/>
    <path class="st0" d="M19.651,207.758c-.624,0-1.234-.089-1.816-.27-1.165-.362-2.135-1.066-2.832-2.039-.11.059-.223.119-.34.183-.175.332-.374.686-.609,1.083-.41.692-1.296.935-2.001.555l-2.763-1.488c-.36-.194-.625-.526-.734-.919-.109-.394-.054-.815.155-1.167,1.233-2.081,3.392-7.551,4.275-10.84.208-.778.989-1.25,1.783-1.073l3.065.702c.396.091.737.338.948.685.21.347.271.765.168,1.157-.262,1-.658,2.287-1.102,3.595.152.031.3.086.438.164.401.227.676.626.744,1.082.291,1.935.577,2.506.702,2.671.151-.013.606-.111,1.688-.727.712-.406,1.62-.165,2.036.544l1.432,2.438c.393.669.21,1.527-.421,1.979-1.544,1.105-3.227,1.683-4.816,1.683ZM12.024,203.848l.143.077c.008-.016.016-.031.022-.046.138-.282.359-.514.636-.663l.168-.091c.773-.418,1.385-.749,2.03-1.039.381-.171.815-.175,1.2-.013.176.075.335.182.468.313-.092-.257-.175-.532-.25-.825-.136.066-.281.137-.437.214-.559.272-1.223.175-1.678-.244-.455-.42-.605-1.076-.379-1.652.585-1.488,1.21-3.294,1.676-4.822l-.145-.033c-.889,2.859-2.312,6.485-3.455,8.824Z"/>
    <path class="st0" d="M16.33,224.115c-.211,0-.423-.044-.623-.136-2.335-1.066-3.856-2.95-4.174-5.168-.196-1.373.079-2.762.771-4.04-.841-.076-1.703-.165-2.539-.263-.82-.096-1.408-.837-1.315-1.657l.327-2.917c.044-.396.243-.757.555-1.005.311-.249.709-.363,1.104-.318,3.329.375,6.023.626,8.026.748.021-.364.176-.709.435-.969.281-.282.662-.44,1.061-.441l1.626-.002h.002c.17,0,.334.028.487.081.113-.028.232-.043.354-.043l1.592-.005h.005c.811,0,1.475.644,1.499,1.455.015.465.022,1.429.016,2.354-.006.818-.666,1.479-1.483,1.489l-1.646.018c-.168.003-.354-.028-.52-.087-.098.022-.2.035-.304.035h-.375c-.075.34-.268.651-.557.871-3.172,2.412-3.226,3.426-3.204,3.604.031.255.49.738,1.685,1.257.451.197.778.603.873,1.086.096.483-.053.982-.396,1.335l-2.204,2.266c-.289.297-.679.454-1.075.454ZM14.479,218.139c.005.083.013.166.024.248.133.923.675,1.737,1.556,2.356l.047-.048c-.757-.58-1.468-1.409-1.627-2.556ZM16.02,212.186c.306.178.547.462.666.812.054.156.08.316.081.476.376-.362.799-.735,1.271-1.121l-.004-.016c-.614-.04-1.286-.09-2.014-.151Z"/>
    <path class="st0" d="M14.424,240.734c-.262,0-.524-.068-.761-.208l-2.596-1.528c-.418-.246-.69-.678-.733-1.161-.03-.346.06-.687.249-.968-1.434-.416-2.151-1.351-2.442-1.851-.812-1.397-.683-3.186.331-4.557.039-.053.079-.105.12-.156-.176-.021-.35-.043-.52-.064-.802-.099-1.381-.815-1.311-1.62l.243-2.78c.036-.41.238-.787.561-1.043.321-.256.731-.369,1.144-.311.955.135,2.283.285,3.834.435.061-.247.184-.477.36-.667.274-.294.655-.465,1.057-.476l3.007-.081c.402-.018.8.143,1.09.428.29.284.453.674.45,1.081v.17c.402.022.843.044,1.335.064.414.017.802.203,1.073.515.271.312.401.723.359,1.134l-.279,2.777c-.076.756-.705,1.336-1.466,1.35-.379.007-.821.002-1.293-.013-.068.386-.148.746-.242,1.081.926,2.616-.1,5.914-2.586,8.078-.279.244-.631.369-.984.369ZM14.407,234.036c.143.077.274.178.389.301.25.27.388.615.399.968.21-.823.178-1.634-.143-2.285-.179-.364-.202-.784-.066-1.166.053-.147.102-.305.146-.474-.123.181-.285.335-.476.446-.097.056-.197.101-.301.135.291.485.38,1.069.243,1.627-.039.159-.104.31-.191.447ZM11.685,232.871c-.057.233-.006.492.137.692.136.189.298.25.365.256.309.023.621-.135.782-.404.039-.065.067-.135.086-.207l-1.37-.337ZM13.142,233.23h.01-.01ZM12.245,232.071c-.11.057-.204.134-.273.221l1.092.876c.045-.221-.004-.463-.143-.674-.2-.303-.512-.417-.676-.422ZM12.197,232.073h0ZM14.5,227.991c.534.196.92.685.976,1.264.136-.514.533-.912,1.031-1.057-.571-.212-.975-.762-.977-1.401v-.058h-.008c-.041.346-.2.67-.456.913-.163.155-.357.27-.566.339Z"/>
    <path class="st0" d="M17.924,248.397c-.137,0-.274-.006-.414-.019-2.685-.235-4.478-2.18-4.264-4.625h0c.096-1.104.615-2.184,1.425-2.963.915-.88,2.097-1.308,3.337-1.198,1.209.105,2.3.646,3.07,1.523.796.904,1.174,2.08,1.066,3.308-.097,1.106-.572,2.118-1.339,2.849-.77.733-1.781,1.125-2.882,1.125ZM17.417,244.244c.069.067.196.148.367.164.07.007.204,0,.255-.061.042-.052.087-.167.08-.311l-.702.208ZM17.38,244.202c.009.012.021.026.037.042l.702-.208c-.002-.049-.01-.102-.026-.156-.027-.1-.212-.287-.435-.306-.084-.011-.108.004-.162.07-.113.139-.158.362-.116.56ZM17.366,244.182h0ZM14.74,243.883h.01-.01Z"/>
  </g>
  <g>
    <path class="st1" d="M53.425,12.771c-.588.51-1.221,1.141-1.734,1.638l-1.989-2.054c1.333-1.185,2.986-2.522,3.964-3.16.017-.197.036-.412.055-.627-1.229.218-2.557.3-3.485.382l-.109-2.685c.923-.01,2.467-.092,3.816-.227.079-.698.156-1.377.235-2.076l2.958.277c-.09.606-.137,1.145-.354,3.62,3.932-.921,6.999,1.19,6.698,4.634-.131,1.489-.884,3.086-2.193,4.616l-2.459-1.842c2.929-2.907,1.513-5.724-2.273-4.393-.169,2.354-.264,4.677-.242,5.872l-3.003-.172c0-1.247.041-2.545.116-3.804Z"/>
    <path class="st1" d="M48.893,31.928c.148-.873.79-4.07,1.467-7.264-.614,0-1.228-.017-1.824-.015l.155-2.806c.958-.007,1.664-.018,2.277,0,.323-1.417.471-2.073.556-2.427l2.928.618c-.168.689-.313,1.309-.435,1.877.722.009,1.53.062,2.553.151l-.24,2.745c-1.008-.052-2.034-.088-2.938-.095-.652,2.907-1.481,6.811-1.641,7.81l-2.858-.594ZM55.581,33.362l.506-2.685c1.59.428,4.528.722,5.662.568l-.003,2.711c-.552.113-1.492.122-2.676.019-1.363-.119-2.733-.366-3.489-.613ZM56.391,25.969c1.596-.059,3.772.059,5.146.269l-.238,2.727c-1.505-.15-3.754-.274-4.895-.247l-.013-2.749Z"/>
    <path class="st1" d="M49.742,42.461c.145-1.65.541-3.495,1.175-5.373l3.104.669c-1.712,4.694-1.619,8.588.354,8.761.969.085,1.755-.226,2.529-1.025l2.161,2.159c-1.49,1.533-3.1,2.169-5.055,1.998-3.14-.274-4.652-2.811-4.27-7.188Z"/>
    <path class="st1" d="M55.44,53.781l1.963-1.78c.678.728,2.438,2.925,2.767,3.911l-2.148,1.421c-.322-.661-2.053-2.982-2.581-3.552Z"/>
    <path class="st1" d="M46.408,72.093l.931-2.991c2.207,1.224,5.109,1.713,8.496,1.431l.092,3.081c-1.096.139-2.289.143-3.616.027-2.17-.19-4.273-.735-5.902-1.547ZM52.707,66.626c.165-.438.353-.927.485-1.421-1.562-.317-3.387-.748-5.241-1.236l.581-2.931c3.413.859,5.531,1.244,8.141,1.778-.459,1.533-1.026,3.472-1.435,4.628l-2.531-.817Z"/>
    <path class="st1" d="M47.917,87.91c2.27-1.356,3.344-2.274,3.399-2.902.127-1.453-1.298-1.902-4.697-1.477l-.497-2.791c5.199-.955,8.868.686,8.596,3.807-.184,2.099-2.222,4.324-5.455,5.957l-1.346-2.594ZM48.301,78.147l.642-2.583c1.134.262,3.637.987,4.477,1.313l-.855,2.546c-.999-.358-3.446-1.097-4.263-1.277Z"/>
    <path class="st1" d="M44.874,99.965c-.497.101-1.012.2-1.528.318l-.492-2.844c.558-.168,1.129-.299,1.958-.48.005-1.499.028-2.798.077-3.771l2.949-.031c-.018.812,0,2.06.014,3.345.783-.059,1.524-.066,2.207-.024.314-1.527.575-2.643.733-3.207l2.706.67c-.347.873-.726,2.106-.932,3.009,1.697.637,2.644,1.804,2.76,3.369.014.254.01.507-.014.776-.194,2.225-1.838,3.653-4.602,3.845l-.873-2.625c1.881-.432,2.283-.685,2.274-1.409-.003-1.211-1.391-1.676-4.216-1.399.064,3.603.129,5.958.225,6.942l-2.949.031c-.125-1.257-.243-3.834-.298-6.514Z"/>
    <path class="st1" d="M48.112,116.04c2.288-.74,3.737-1.191,3.733-1.969-.007-1.157-1.826-1.642-6.151-1.17l-.204-2.621c1.812-.257,3.353-.303,4.626-.191,3.354.293,4.891,1.729,4.945,3.577.009.109,0,.217-.012.343-.148,1.704-1.757,3.352-5.845,4.422l-1.093-2.391Z"/>
    <path class="st1" d="M46.679,126.647c-1.565-.083-3.502-.252-5.291-.463l.327-2.917c3.562.401,6.896.711,9.218.825l.55,1.981c-4.88,3.513-5.33,5.769-1.501,7.442l-2.204,2.266c-4.065-1.875-4.592-6.186-1.099-9.134Z"/>
    <path class="st1" d="M38.006,138.59l2.337.151c.809.052,1.653.108,2.371.171,1.345.118,2.579.262,3.853.391l-.188,1.936c2.376.1,4.84.243,6.527.372l-.329,2.936c-.484-.042-1.004-.088-1.561-.137-.328,3.134-.509,5.613-.7,8l-2.925-.238c.119-1.363.443-4.859.729-7.925-.901-.024-1.531-.062-2.055-.071l-.44,4.426-8.233-.72c.137-3.006.499-7.566.613-9.291ZM39.967,145.72c.306.026.557.048.808.07.047-.538.085-.968.121-1.381-.271-.005-.54-.029-.827-.054-.007.289-.026.503-.102,1.365ZM41.041,142.543c.075-.861.096-1.095.104-1.4-.286-.025-.557-.032-.846-.039-.004.253-.022.468-.101,1.365l.843.074ZM42.659,145.937c.305.027.646.057.825.072.058-.446.099-.913.153-1.341-.178-.034-.321-.046-.877-.095-.052.592-.086,1.186-.102,1.364ZM43.839,142.787c.064-.536.107-1.021.159-1.414-.322-.028-.644-.075-.948-.102-.04.448-.082.933-.126,1.435l.915.08Z"/>
    <path class="st1" d="M45.78,165.22c1.914-1.839,1.924-4.224.038-5.401-1.315,4.096-3.951,6.54-6.353,5.896-1.784-.481-2.763-1.904-2.598-3.788.286-3.264,3.498-5.894,7.318-5.559,3.659.32,6.367,2.834,6.056,6.404-.145,1.65-.947,3.171-2.215,4.234l-2.247-1.787ZM43.035,159.196c-2.066.072-3.338,1.587-3.472,2.714-.036.413.021.996.64,1.159.635.182,2.029-1.721,2.832-3.873Z"/>
    <path class="st1" d="M43.772,182.39c.3-.95.626-2.187.949-3.622-.918-.243-1.733-.423-2.556-.531-.99,2.643-2.128,3.664-4.089,3.564-1.602-.086-2.781-1.472-2.629-3.212.191-2.188,1.905-3.394,4.812-3.356.092-.426.185-.87.282-1.367-.859-.093-1.883-.165-3.142-.239l.263-2.796c.18.016.376.033.574.05,1.596.14,3.887.394,5.565.631l-.377,1.829c-.12.55-.223,1.101-.461,2.165.768.121,1.547.298,2.345.476.261-1.333.481-2.615.623-3.615l2.861.558c-.142,1-.366,2.336-.66,3.828.459.131.935.262,1.392.411l-.85,2.89c-.421-.146-.806-.288-1.174-.41-.322,1.399-.62,2.53-.894,3.392l-2.836-.646ZM39.509,178.023c-1.174-.012-1.7.213-1.745.732-.034.395.182.613.612.65.43.038.774-.384,1.133-1.383Z"/>
    <path class="st1" d="M34.592,193.114c.386-.888.763-1.903,1.109-2.976-.52-.045-1.004-.088-1.417-.124l.332-2.754c.609.054,1.221.089,1.83.142.145-.602.273-1.259.388-1.936l2.963.421c-.123.586-.262,1.134-.383,1.684.504.026,1.026.054,1.927.079l-.169,2.769c-.685-.023-1.405-.051-2.505-.093-.411,1.392-.803,2.569-1.15,3.441l-2.925-.653ZM41.526,193.395c.358.032.447.04.625.073.006-.469,0-1.012-.012-1.519l2.919.111c.016.851-.016,1.625-.092,2.287.867.419,1.738,1.001,2.204,1.458l-1.804,2.229c-.269-.241-.657-.546-.998-.775-.046.105-.093.227-.137.314-.725,1.473-1.919,2.109-3.659,1.957-4.071-.356-3.729-6.543.953-6.134ZM41.889,196.066c-.318-.082-.532-.119-.729-.136-.626-.073-.985.112-1.021.525-.031.359.302.677.769.718.448.039.77-.33.982-1.107ZM42.865,190.476l.667-2.454c1.114.279,2.154.586,4.229,1.238l-.667,2.454c-.842-.29-2.182-.678-4.229-1.237Z"/>
    <path class="st1" d="M33.544,211.29l2.657-.834c.532,1.764,2.094,2.931,4.241,3.172l-.678,2.58c-3.491-.378-5.57-2.023-6.221-4.918ZM39.192,207.681c-1.495-.059-2.911-.2-4.263-.445l.237-2.709c1.341.172,2.451.287,3.494.342-.156-.899-.262-1.758-.309-2.467l2.97-.264c.045.727.162,1.659.352,2.796,1.121-.011,2.01-.042,2.81-.098l.176,2.745c-.782.058-1.599.095-2.432.113.229,1.104.523,2.287.804,3.215l-2.745.591c-.375-.882-.775-2.291-1.094-3.819Z"/>
    <path class="st1" d="M31.243,230.153c1.314-2.217,3.522-7.826,4.434-11.216l3.065.702c-.435,1.661-1.298,4.296-2.158,6.481,1.096-.537,1.699-.828,2.205-1.037.629,4.176,1.534,4.779,4.616,3.024l1.431,2.439c-3.239,2.319-6.836,1.697-7.956-1.401-.641.288-1.267.631-2.102,1.082-.22.45-.478.916-.774,1.414l-2.761-1.488Z"/>
    <path class="st1" d="M30.704,240.439c.149-1.704.467-3.466.951-5.285l2.935.745c-1.096,3.646-1.304,8.092-.498,10.656l-2.986.661c-.484-2.103-.611-4.373-.401-6.776ZM35.983,246.015l.835-2.728c1.696.654,3.637.986,5.768,1.011l-.387,2.768c-1.528.119-4.396-.367-6.216-1.05ZM37.434,237.069c1.36.155,4.146.344,5.05.333l-.099,2.775c-.743.025-3.617-.172-5.318-.357l.367-2.751Z"/>
    <path class="st1" d="M35.046,13.858c1.293-1.351,1.68-2.058,1.777-3.17.023-.269-.012-.489-.117-.733-1.699,2.887-4.271,4.614-7.058,4.443-1.8-.086-3.002-1.438-2.861-3.251.196-2.242,1.736-3.933,4.186-4.659.031-.358.062-.717.093-1.058-.921-.008-1.753-.009-2.277,0l-.016-2.712c.724-.009,1.645,0,2.564.025.039-.448.099-.931.148-1.289l2.678.379c-.029.125-.059.465-.122.984,1.101.023,2.448.105,3.256.175l-.146,2.699c-.718-.062-2.031-.124-3.4-.171-.018.197-.036.413-.056.627,3.608.081,6.044,2.192,5.797,5.008-.15,1.722-.926,3.154-2.283,4.21l-2.163-1.508ZM30.608,11.897c.033-1.009.096-1.926.15-2.752-.78.438-1.212,1.033-1.274,1.75-.057.646.171.937.817.993.197.017.251.022.307.009ZM34.614,8.668c-.318-.082-.678-.113-1.129-.116-.026.304-.06.681-.128,1.868.42-.451.832-1.029,1.257-1.751Z"/>
    <path class="st1" d="M25.684,22.323c.091-1.04.279-2.162.574-3.474l2.834.664c-.366,1.919-.496,4.023-.359,5.553.64-.071,1.135-.154,1.793-.241l.306,2.503c-1.434.471-2.938.936-4.334,1.392-.764-2.217-1.01-4.155-.813-6.397ZM34.925,21.017l2.946-.411c.445,1.304.774,3.954.69,5.537l-2.796.55c-.059-1.396-.351-3.428-.841-5.676Z"/>
    <path class="st1" d="M24.95,41.035l2.657-.834c.532,1.764,2.094,2.931,4.241,3.173l-.678,2.579c-3.491-.378-5.57-2.023-6.221-4.917ZM30.598,37.426c-1.495-.059-2.911-.201-4.263-.446l.237-2.708c1.34.172,2.451.287,3.494.342-.156-.899-.262-1.758-.309-2.467l2.97-.264c.045.727.162,1.659.352,2.796,1.122-.01,2.01-.041,2.811-.098l.175,2.745c-.782.058-1.599.095-2.432.113.229,1.104.523,2.286.804,3.215l-2.745.591c-.375-.882-.775-2.291-1.094-3.818Z"/>
    <path class="st1" d="M27.526,57.45c3.87-1.27,4.808-1.856,4.678-2.844-.216-1.682-2.264-2.023-8.176-1.384l-.117-2.992c2.348-.392,4.327-.508,5.995-.362,3.605.315,5.544,1.913,5.547,4.57.002.181-.006.271-.014.36-.22,2.511-2.648,4.449-6.954,5.536l-.959-2.885Z"/>
    <path class="st1" d="M24.16,73.616c-.006-1.175.768-2.373,2.232-3.419-.326-.191-.692-.35-1.147-.516.22-1.065.385-1.918.542-2.682-.682-.06-1.416-.142-2.257-.234l.364-2.715c.807.071,1.614.141,2.422.212.096-.479.19-.941.264-1.369l2.942.457c-.085.354-.154.727-.242,1.117.755.048,1.493.076,2.233.087l-.162,2.679c-.777.004-1.696-.022-2.669-.071-.115.496-.21.958-.303,1.401.207.108.362.194.518.28.9-.373,1.737-.643,2.587-.857l.456,2.643c-.295.064-.592.146-.905.228.334.518.555.88.742,1.222l-2.24,1.431c-.344-.608-.713-1.146-1.089-1.595-.928.479-1.48,1.009-1.5,1.441-.035.81,1.544,1.147,4.552,1.067l-.181,2.677c-.688.012-1.336-.009-1.946-.062-3.336-.292-5.198-1.521-5.213-3.42Z"/>
    <path class="st1" d="M24.586,91.886c.938-.804,1.548-1.582,1.868-2.349-.261.086-.501.155-.756.169-5.681.677-4.541-6.344.188-5.243.266.06.528.154.772.267.062-.718.08-.915.082-1.149-1.882-.183-3.725-.399-5.728-.646l.244-2.781c1.356.192,3.345.401,5.532.593-.016-.435-.014-.869-.031-1.286l3.007-.081c-.004.452.021.997.023,1.593.755.048,1.617.105,2.752.15l-.279,2.777c-.688.012-1.625-.016-2.577-.081-.096,1.094-.264,1.983-.527,2.719,1.013,2.059.157,5.021-1.975,6.876l-2.596-1.528ZM25.9,87.41c.112-.46-.251-.854-.825-.904-.986-.086-1.145,1.743.535,1.113.112-.044.209-.108.29-.209Z"/>
    <path class="st1" d="M21.379,106.855c.252-2.888,4.378-3.358,5.566-.832.068-.157.105-.371.129-.64.15-1.722-1.771-2.486-5.153-2.042l-.307-1.039c1.084-1.243,1.712-2.019,2.669-3.237-.859-.093-1.954-.189-2.941-.257l.2-2.712c.467.041.934.082,1.382.121,1.649.144,3.334.31,6.091.623-1.384,1.976-2.08,2.909-3.085,4.267,2.452.07,4.148,1.954,3.938,4.375-.245,2.798-2.289,4.462-5.159,4.211-2.026-.177-3.455-1.405-3.329-2.839ZM25.783,107.529c.078-1.511-1.919-1.614-2.06-.831-.065.537.288.838.787.918.463.077.952.066,1.272-.087Z"/>
    <path class="st1" d="M26.036,122.404c1.915-1.839,1.925-4.224.039-5.401-1.316,4.096-3.951,6.54-6.354,5.896-1.783-.481-2.762-1.905-2.597-3.788.286-3.264,3.498-5.894,7.318-5.559,3.659.32,6.367,2.834,6.055,6.404-.145,1.65-.945,3.171-2.214,4.234l-2.248-1.787ZM23.293,116.38c-2.067.072-3.339,1.587-3.474,2.714-.036.413.021.996.64,1.159.635.182,2.03-1.721,2.834-3.873Z"/>
    <path class="st1" d="M20.392,139.202c1.882-3.125,2.31-5.329.968-5.681-.143-.031-.318-.082-.515-.117-1.218,2.767-2.548,5.777-2.693,6.199l-2.417-1.079c.08-.301.719-1.817,2.259-5.37-.828-.036-1.48-.021-1.861,0l.122-2.845c.707-.029,1.717.005,2.938.094.406-.922.948-2.158,1.237-2.784l2.523,1.125c-.135.295-.539,1.2-.895,1.964.624.091,1.122.188,1.51.294,2.629.736,2.185,5.613-.889,9.737l-2.287-1.538ZM25.055,130.32l2.238-.581c.359.844,1.115,3.369,1.355,4.546l-2.234.744c-.362-2.056-.806-3.595-1.359-4.709ZM27.729,128.475l1.384-.313c.125.21.461,1.342.501,1.707l-1.427.399c-.096-.351-.369-1.568-.458-1.792ZM29.697,128.087l1.379-.277c.148.375.369,1.153.484,1.705l-1.405.347c-.079-.332-.299-1.327-.458-1.775Z"/>
    <path class="st1" d="M14.575,155.281c.438-.468.821-.922,1.184-1.342-.55-.536-1.132-1.111-1.925-1.958.191-.743.399-1.682.745-3.152-.485-.024-.862-.058-1.043-.055l.15-2.554c.362-.004.74.011,1.495.059.181-.816.353-1.542.47-2.056l2.556.531-.401,1.7c.557.049,1.167.084,2.048.144l-.171,2.569c-.61-.053-1.688-.13-2.462-.161-.256,1.062-.38,1.666-.501,2.215.182.197.38.413.562.591.357-.565.697-1.149,1.042-1.789l2.107,1.323c-.45.811-.873,1.515-1.334,2.233.283.277.603.559.919.858l-1.727,1.963c-.268-.24-.518-.479-.75-.716l-1.024,1.175-1.94-1.58ZM22.142,157.008c.722-1.021,1.172-2.229,1.339-3.533-1.4-.104-2.388-.173-2.981-.207l.21-2.602,2.712.183c-.083-.495-.203-.976-.361-1.442,1.101-1.006,1.622-1.593,2.139-2.343-1.095-.078-2.085-.128-3.636-.173l.021-2.511c1.116.044,2.302.129,3.934.272,1.077.094,2.224.212,3.548.364-.8,1.9-1.464,2.891-3.222,4.797.101.298.149.573.27,1.252.844.074,1.706.131,2.586.19l-.17,2.569-2.408-.156c-.218,1.662-.829,3.271-1.778,4.616l-2.201-1.278Z"/>
    <path class="st1" d="M13.881,169.204l2.509-.991c.296,1.995,1.799,3.41,4.074,3.844l-.891,2.525c-3.412-.66-5.265-2.413-5.692-5.378ZM19.535,167.169c-1.389-.031-2.771-.134-4.147-.309l.248-2.418c1.234.145,2.42.23,3.592.261-.041-.365-.082-.713-.104-1.076-1.098-.06-2.157-.134-3.216-.227l.224-2.348c.753.065,1.49.112,2.855.213-.021-.598-.024-.959-.015-1.284l2.979.044c-.017.396-.021.848-.01,1.354.651-.015,1.395-.041,2.319-.068l.157,2.328c-.834.035-1.613.058-2.354.064.043.33.067.675.092,1.021.778-.022,1.595-.06,2.467-.109l.038,2.461c-.745.043-1.471.07-2.195.097.12.896.268,1.687.432,2.297l-2.793.316c-.198-.632-.405-1.571-.567-2.616Z"/>
    <path class="st1" d="M11.923,183.74c.385-.888.763-1.903,1.109-2.976-.521-.045-1.004-.088-1.417-.124l.331-2.754c.61.054,1.222.089,1.831.143.144-.603.273-1.259.387-1.936l2.964.421c-.124.586-.263,1.134-.382,1.684.503.026,1.025.054,1.927.078l-.17,2.769c-.686-.023-1.405-.05-2.505-.093-.411,1.392-.803,2.569-1.15,3.442l-2.925-.654ZM18.857,184.022c.358.031.449.039.626.072.005-.469,0-1.012-.012-1.519l2.919.111c.016.851-.016,1.625-.092,2.287.867.42,1.738,1.002,2.204,1.458l-1.804,2.228c-.268-.241-.657-.546-.998-.775-.046.105-.093.228-.137.314-.725,1.473-1.92,2.109-3.659,1.957-4.072-.356-3.729-6.543.952-6.134ZM19.22,186.692c-.318-.082-.532-.118-.729-.135-.626-.073-.986.112-1.022.525-.031.358.303.677.77.718.448.039.77-.33.982-1.107ZM20.196,181.102l.666-2.453c1.115.278,2.154.585,4.23,1.237l-.667,2.454c-.842-.291-2.182-.679-4.229-1.238Z"/>
    <path class="st1" d="M10.001,204.462c1.314-2.217,3.522-7.826,4.434-11.216l3.065.702c-.435,1.661-1.298,4.296-2.157,6.481,1.095-.537,1.699-.828,2.205-1.037.629,4.176,1.534,4.779,4.615,3.025l1.432,2.438c-3.239,2.319-6.836,1.697-7.957-1.401-.64.288-1.266.63-2.101,1.082-.22.451-.478.916-.773,1.414l-2.763-1.488Z"/>
    <path class="st1" d="M15.267,213.484c-1.565-.082-3.503-.251-5.327-.466l.327-2.917c3.562.401,6.7.694,8.932.799l.546,2.018c-4.646,3.534-5.006,5.779-1.21,7.431l-2.204,2.266c-4.015-1.833-4.504-6.16-1.063-9.131ZM19.958,209.449l1.626-.002c.03.689.008,1.772-.002,2.295l-1.627.002c.002-.434.005-1.283.003-2.295ZM22.431,209.484l1.592-.005c.014.454.021,1.395.015,2.297l-1.646.018c.022-.667.02-1.661.04-2.31Z"/>
    <path class="st1" d="M11.828,237.705c.938-.804,1.548-1.582,1.868-2.349-.261.086-.501.155-.756.169-5.68.677-4.541-6.344.188-5.244.266.06.529.155.772.267.062-.717.08-.915.082-1.149-1.882-.183-3.725-.399-5.727-.646l.243-2.78c1.356.191,3.345.401,5.533.593-.017-.436-.015-.869-.032-1.286l3.007-.081c-.003.452.021.997.023,1.593.755.048,1.618.105,2.752.15l-.279,2.777c-.688.012-1.624-.016-2.577-.081-.096,1.094-.264,1.983-.526,2.719,1.012,2.059.156,5.021-1.976,6.876l-2.596-1.528ZM13.142,233.23c.113-.46-.25-.854-.824-.904-.986-.086-1.146,1.744.534,1.114.113-.045.209-.108.29-.209Z"/>
    <path class="st1" d="M14.74,243.883c.13-1.488,1.415-2.948,3.137-2.798,1.686.147,2.923,1.502,2.773,3.207-.125,1.435-1.217,2.75-3.01,2.592-1.74-.152-3.048-1.315-2.9-3.001ZM18.83,243.825c-.182-.612-.538-.878-.914-.911-.7-.061-1.47.685-1.262,1.39.138.5.497.731.874.764.699.061,1.511-.537,1.302-1.242Z"/>
  </g>
</svg>