<?xml version="1.0" encoding="UTF-8"?>
<svg id="_レイヤー_1" data-name="レイヤー_1" xmlns="http://www.w3.org/2000/svg" version="1.1" viewBox="0 0 65 305">
  <!-- Generator: Adobe Illustrator 29.0.1, SVG Export Plug-In . SVG Version: 2.1.0 Build 192)  -->
  <defs>
    <style>
      .st0 {
        fill: #fff;
      }

      .st1 {
        fill: #3c291a;
      }
    </style>
  </defs>
  <g>
    <path class="st0" d="M56.65,21.481c-.1,0-.199-.004-.298-.013-1.558-.136-2.707-1.268-2.859-2.816-.027-.3-.028-.592-.003-.876.115-1.319.817-2.366,1.848-2.822-.057-.039-.111-.079-.166-.122-.655-.516-1.065-1.277-1.155-2.145-.028-.308-.029-.6-.004-.884.115-1.319.817-2.366,1.848-2.822-.057-.038-.111-.079-.165-.121-.655-.515-1.066-1.278-1.156-2.146-.028-.307-.029-.599-.004-.884.138-1.577,1.113-2.763,2.487-3.019.23-.058.547-.08.892-.05,1.606.141,2.926,1.323,3.14,2.811.049.265.062.578.033.906-.113,1.291-.925,2.352-2.07,2.809.057.036.112.073.167.111.748.532,1.228,1.295,1.349,2.149.048.263.062.576.032.904-.113,1.29-.925,2.351-2.069,2.808.056.035.111.072.165.111.749.532,1.228,1.295,1.35,2.149.048.268.062.583.03.913-.137,1.575-1.326,2.813-2.896,3.014-.16.024-.327.036-.494.036ZM56.543,17.702c.017,0-.045.117-.064.336-.01.11-.009.219.002.329.007.076.01.101.135.112.02-.003.125-.008.145-.01.269-.032.287-.239.293-.307.006-.07.005-.115-.005-.17-.01-.059-.035-.114-.125-.177-.142-.102-.305-.128-.381-.113h0ZM57.064,11.729c.018,0-.044.117-.063.337-.01.111-.009.219.002.329.041.093.118.124.255.105.008,0,.017-.002.024-.003.179-.021.277-.125.294-.31.006-.064.004-.111-.006-.167-.01-.061-.035-.116-.125-.179-.141-.101-.307-.125-.381-.113h0ZM57.656,5.748c-.048.001-.113.119-.133.344-.01.11-.009.219,0,.328.042.094.112.125.255.106.008,0,.017-.002.025-.003.179-.021.277-.125.294-.309.006-.064.004-.112-.006-.167-.018-.114-.207-.28-.437-.3Z"/>
    <path class="st0" d="M55.207,37.978c-.1,0-.199-.004-.298-.013-1.558-.136-2.707-1.268-2.859-2.816-.027-.3-.028-.592-.003-.876.115-1.319.817-2.365,1.848-2.822-.057-.039-.111-.079-.166-.122-.655-.516-1.065-1.277-1.155-2.145-.028-.308-.029-.6-.004-.884.115-1.32.817-2.366,1.848-2.823-.056-.038-.11-.079-.164-.121-.655-.515-1.066-1.276-1.157-2.145-.028-.308-.029-.6-.004-.885.138-1.577,1.113-2.763,2.487-3.019.23-.057.548-.079.892-.05,1.606.141,2.926,1.323,3.14,2.811.049.265.062.578.033.906-.113,1.291-.925,2.352-2.07,2.809.057.036.112.073.167.111.748.532,1.228,1.295,1.349,2.149.048.262.061.575.032.903-.113,1.291-.925,2.352-2.069,2.809.057.036.111.072.166.111.748.532,1.228,1.296,1.349,2.15.048.262.061.575.032.903-.14,1.583-1.329,2.821-2.897,3.022-.16.024-.327.036-.494.036ZM55.098,34.198c.018,0-.044.117-.063.337-.01.11-.009.219.002.329.007.076.01.101.135.112.02-.003.125-.008.145-.01.179-.021.277-.125.294-.309.006-.064.004-.112-.006-.167-.011-.066-.043-.122-.125-.18-.142-.101-.305-.126-.381-.113h0ZM55.621,28.226c.018,0-.044.117-.063.337-.01.111-.009.219.002.329.041.093.117.124.255.105.008,0,.017-.002.024-.003.179-.021.277-.125.294-.31.006-.064.004-.112-.006-.167-.01-.061-.035-.116-.125-.179-.142-.101-.305-.127-.381-.113h0ZM56.213,22.245c-.048.001-.113.119-.133.344-.01.11-.009.219,0,.328.005.046.021.076.024.08.017.014.093.042.231.026.008,0,.017-.002.024-.003.179-.021.277-.125.294-.309.006-.064.004-.112-.006-.167-.018-.114-.207-.28-.437-.3Z"/>
    <path class="st0" d="M50.75,53.148c-.044,0-.087-.002-.131-.006l-2.619-.229c-.806-.07-1.41-.767-1.367-1.574.009-.165.019-.333.028-.505-.109.005-.218-.005-.325-.025-.421-.08-.789-.336-1.009-.704l-1.198-2.003c-.397-.665-.224-1.523.401-1.98.23-.169.445-.33.647-.485-.253-.286-.388-.658-.375-1.041l.082-2.595c.02-.63.426-1.159.986-1.363l-.348-1.772c-.077-.393.006-.8.23-1.131s.572-.559.966-.632c1.797-.335,4.102-.72,6.016-1.005.809-.119,1.577.44,1.703,1.255l.357,2.319c.35-.352.866-.525,1.384-.411l2.661.576c.407.088.759.341.972.699s.268.789.15,1.188c-.315,1.077-.619,2.14-.896,3.139l1.38-.224c.801-.125,1.559.399,1.713,1.195.221,1.143.432,2.402.629,3.578l.206,1.228c.138.807-.396,1.575-1.201,1.727l-2.555.48c-.398.077-.821-.016-1.155-.258-.162-.117-.297-.263-.399-.43-1.443.014-2.874-.01-4.919-.077-.19-.006-.376-.048-.547-.123-.067.318-.237.608-.486.824-.273.237-.622.366-.981.366ZM59.214,49.185c.196.05.379.139.537.259-.038-.228-.076-.458-.115-.688-.031.048-.065.095-.103.14-.093.113-.201.21-.319.29ZM54.831,49.137c.354.008.689.014,1.013.018-.13-.09-.246-.2-.344-.329-.062-.082-.114-.168-.157-.259-.119.234-.297.429-.512.57ZM48.873,46.424c.059.02.116.043.173.071.234.114.429.284.571.487.132-.406.433-.742.831-.915-.088-.093-.175-.187-.259-.282-.144-.162-.247-.35-.309-.549-.069.178-.174.344-.312.488-.232.244-.462.475-.696.699ZM49.412,43.511c.198.156.358.363.458.605.018.042.033.085.047.128.014-.035.028-.068.044-.102.148-.308.393-.549.687-.694-.111-.075-.213-.166-.302-.269-.072-.085-.135-.177-.187-.273-.175.277-.438.49-.747.605ZM49.936,39.58c.024.02.05.041.073.062.083.074.155.155.219.244.04-.137.099-.266.173-.384-.155.026-.311.052-.465.078Z"/>
    <path class="st0" d="M57.904,60.618c-.132,0-.265-.018-.396-.053-.416-.114-.764-.401-.953-.79-.219-.45-1.811-2.626-2.333-3.189-.272-.294-.415-.685-.398-1.085.018-.4.194-.776.491-1.046l1.963-1.78c.607-.551,1.548-.512,2.106.09.412.443,2.604,3,3.091,4.459.215.644-.029,1.351-.596,1.726l-2.148,1.42c-.248.164-.536.249-.827.249Z"/>
    <path class="st0" d="M56.559,78.247c-.256,0-.515-.065-.751-.202-1.586-.918-3.229-2.047-4.721-3.989-.812.949-1.837,1.92-3.206,3.057-.618.513-1.532.447-2.071-.148l-1.862-2.061c-.267-.295-.405-.685-.385-1.082.021-.398.197-.771.493-1.038l.073-.066c3.295-2.972,4.404-3.973,4.835-9.827.029-.398.217-.769.521-1.029.304-.26.695-.386,1.098-.355l2.89.235c.397.033.767.222,1.024.527s.383.701.348,1.099c-.17,1.942-.417,3.5-.771,4.841,1.261,2.287,2.485,3.455,4.936,4.789.377.206.647.562.744.98.096.418.009.857-.24,1.207l-1.731,2.433c-.29.409-.752.63-1.223.63ZM50.984,68.609c-.196.577-.419,1.096-.668,1.574.25-.167.507-.252.859-.253.164.003.323.032.474.085-.173-.299-.343-.612-.515-.942-.075-.146-.126-.303-.15-.463Z"/>
    <path class="st0" d="M52.456,94.157c-.55,0-1.052-.021-1.518-.062-2.107-.184-3.733-.781-4.83-1.773-.836-.757-1.79-2.14-1.589-4.433.082-.95.409-1.857,1.018-2.812-.421-1.706-.684-3.935-.642-5.592.02-.76.604-1.385,1.36-1.456l2.896-.271c.427-.039.833.1,1.145.38.312.281.491.68.495,1.099.004.429.017.881.036,1.324.56-.307,1.123-.585,1.664-.819.388-.167.826-.163,1.21.008.384.173.678.499.811.898l.971,2.941c.247.75-.129,1.563-.861,1.86-1.992.808-3.386,1.97-3.787,2.551.384.089,1.221.184,3.051.149.418-.032.837.166,1.128.479.29.313.434.735.394,1.16l-.279,2.977c-.069.744-.676,1.323-1.422,1.358-.443.021-.858.031-1.25.031ZM48.391,84.116c.065.287.137.557.212.803.139.457.052.952-.233,1.334-.538.721-.812,1.324-.862,1.896h0c-.101,1.157.302,1.666.614,1.948.592.536,1.656.885,3.08,1.009.326.029.68.045,1.064.049v-.008c-1.861-.056-3.084-.333-3.84-1.143-.521-.557-.745-1.283-.669-2.157.165-1.879,2.547-3.585,4.459-4.582l-.013-.038c-.625.346-1.243.733-1.801,1.132-.426.306-.979.365-1.462.16-.216-.092-.402-.231-.55-.404ZM46.013,88.02h.01-.01Z"/>
    <path class="st0" d="M55.359,111.008c-.044,0-.088-.002-.133-.006l-7.157-.626c-.177-.015-.343-.061-.495-.131-.264.158-.574.237-.903.208-1.907-.167-3.77-.295-5.693-.392-.815-.041-1.448-.726-1.424-1.542.036-1.268.094-2.932.216-4.568.052-.694.569-1.246,1.229-1.365l.049-1.03c.007-.161.04-.315.094-.458-.012-.091-.017-.184-.012-.277l.047-.981c-.605-.211-1.03-.797-1.006-1.471l.089-2.468c.015-.397.186-.773.478-1.044.287-.268.66-.417,1.06-.401-.042-.301.007-.611.147-.888.201-.397.568-.685,1.002-.784l1.882-.433c.703-.162,1.424.202,1.712.864.247.569.418.962.65,1.576l.822.062c.133.009.262.036.385.079.215-.213.496-.364.817-.417,1.706-.277,2.789-.412,3.936-.554.623-.077,1.272-.158,2.064-.267.808-.112,1.562.448,1.687,1.258l.38,2.474c.056.362-.023.715-.2,1.005.691.178,1.176.83,1.121,1.564l-.206,2.766c-.029.392-.211.755-.505,1.014,0,.005,0,.01,0,.015-.116,1.116-.574,5.321-.643,5.895-.091.76-.736,1.322-1.487,1.322ZM54.008,107.884h.021c0-.007.002-.017.003-.026-.008.008-.016.017-.024.026ZM54.281,104.97c.02.027.038.056.056.084.003-.026.006-.052.009-.078-.021-.002-.043-.004-.064-.006ZM49.928,104.645l-.005.084c.023-.027.047-.054.071-.08-.022-.001-.044-.003-.066-.004ZM51.826,104.229c.181.014.359.028.54.042-.109-.15-.191-.321-.239-.505-.071.173-.174.33-.301.462ZM51.497,100.866c.179.089.34.214.472.369.15.176.256.383.312.604.092-.218.234-.414.419-.569.152-.128.327-.223.514-.281-.17-.088-.323-.209-.45-.357-.152-.179-.259-.389-.314-.613-.092.214-.232.406-.415.559-.158.134-.342.231-.537.289ZM52.076,97.123c.04.03.078.062.115.097.166.156.293.345.374.552v-.004c.024-.276.123-.532.276-.745-.249.031-.502.064-.766.099Z"/>
    <path class="st0" d="M47.882,127.249c-.262,0-.524-.068-.761-.208l-2.596-1.528c-.418-.246-.69-.678-.733-1.16-.03-.346.06-.687.248-.968-1.433-.416-2.151-1.352-2.441-1.851-.812-1.397-.683-3.186.33-4.557.039-.053.079-.105.121-.156-.177-.021-.351-.043-.521-.064-.801-.1-1.38-.815-1.31-1.62l.243-2.78c.036-.41.238-.787.561-1.043.321-.256.729-.369,1.144-.311.962.136,2.289.286,3.834.435.061-.247.184-.477.36-.667.274-.294.655-.465,1.057-.476l3.007-.08c.418-.012.801.144,1.091.429.291.285.453.676.449,1.083,0,.054,0,.11,0,.167.402.022.843.044,1.335.063.413.017.801.203,1.072.515s.402.723.36,1.134l-.278,2.777c-.075.757-.706,1.337-1.467,1.351-.383.004-.824.001-1.293-.013-.068.386-.148.746-.243,1.081.927,2.616-.099,5.914-2.585,8.078-.279.244-.631.369-.984.369ZM47.865,120.551c.144.078.276.18.392.304.248.269.384.613.396.964.209-.823.178-1.633-.143-2.284-.18-.364-.203-.786-.066-1.168.053-.148.102-.306.146-.476-.124.182-.286.337-.478.448-.097.056-.197.102-.302.136.292.484.382,1.067.245,1.625-.039.16-.104.312-.191.45ZM45.142,119.389c-.058.233-.006.492.137.691.136.189.299.25.366.256.305.03.619-.135.78-.404.039-.065.067-.135.086-.208l-1.369-.334ZM46.599,119.745h.01-.01ZM45.702,118.586c-.107.055-.199.13-.27.217l1.089.879c.044-.222-.005-.463-.144-.673-.2-.304-.512-.417-.676-.423ZM45.654,118.588h0ZM47.957,114.506c.534.196.921.685.977,1.264.136-.514.533-.912,1.031-1.057-.571-.213-.975-.762-.977-1.401v-.058h-.009c-.041.346-.201.67-.457.914-.163.155-.356.27-.565.338Z"/>
    <path class="st0" d="M50.412,141.709c-.33,0-.66-.108-.934-.326l-2.248-1.788c-.305-.242-.502-.592-.553-.975-1.557,1.555-3.409,2.23-5.216,1.746-2.478-.667-3.931-2.774-3.703-5.367.174-1.992,1.233-3.881,2.906-5.183,1.69-1.315,3.838-1.936,6.037-1.74,2.167.189,4.104,1.051,5.456,2.426,1.452,1.478,2.149,3.467,1.962,5.602-.18,2.053-1.154,3.918-2.743,5.253-.278.234-.622.351-.965.351ZM50.087,132.677c.562.655.907,1.449.998,2.321.104.998-.14,2.029-.685,2.984.411-.638.664-1.367.731-2.139.107-1.229-.254-2.321-1.045-3.166ZM46.065,131.044c.225.107.422.27.571.477.158.219.252.473.276.734.175-.294.447-.523.774-.643.23-.084.477-.107.711-.079-.592-.247-1.253-.407-1.958-.469-.125-.011-.25-.018-.375-.021Z"/>
    <path class="st0" d="M44.805,158.258c-.289,0-.58-.083-.836-.255l-2.287-1.538c-.039-.026-.077-.054-.113-.083-.161.27-.405.487-.698.613-.383.164-.82.167-1.203-.004l-2.418-1.079c-.675-.301-1.029-1.048-.837-1.761.07-.26.226-.688,1.448-3.531-.245-.067-.473-.197-.657-.38-.301-.298-.462-.708-.444-1.131l.123-2.845c.034-.779.659-1.403,1.439-1.434.54-.022,1.228-.012,2.046.03.312-.706.628-1.42.826-1.85.345-.745,1.223-1.077,1.973-.741l2.523,1.125c.366.163.651.465.793.84.09.237.117.491.082.738.077-.035.157-.063.24-.084l1.565-.407c.006-.246.068-.49.188-.703.209-.368.554-.654.966-.747l1.383-.312c.146-.033.292-.043.437-.034.06-.02.121-.037.184-.049l1.38-.277c.711-.14,1.424.243,1.69.918.181.456.426,1.314.558,1.954.163.789-.326,1.566-1.108,1.76l-1.404.348c-.199.049-.404.056-.603.024l-.457.128c.275.923.533,1.884.662,2.514.152.744-.275,1.484-.996,1.724l-2.234.744c-.152.051-.31.076-.467.077-.456,1.691-1.325,3.477-2.539,5.106-.294.394-.746.604-1.204.604ZM44.338,148.268c.568.273.979.716,1.213,1.29.243.598.282,1.317.116,2.167.298-1.125.324-2.085.114-2.701-.158-.464-.383-.527-.491-.557-.247-.068-.567-.135-.952-.198ZM40.908,147.896c.193.119.359.282.483.48.093.148.157.308.193.474l.015-.033c.28-.637.967-.996,1.646-.871.031.006.062.012.091.018-.193-.133-.355-.312-.471-.524-.077-.143-.13-.294-.157-.45l-.016.036c-.257.581-.873.934-1.481.891-.103-.007-.203-.015-.303-.021Z"/>
    <path class="st0" d="M46.949,175.736c-.047,0-.095-.002-.143-.007-2.772-.261-5.545-.503-8.321-.728-.803-.065-1.41-.752-1.378-1.556.041-.991.152-3.118.253-4.775-.268-.082-.51-.238-.695-.454-.266-.307-.395-.708-.359-1.111l.225-2.565c.021-.233.093-.449.205-.637-.451-.276-.743-.782-.719-1.348l.108-2.468c.019-.401.195-.778.493-1.047.297-.269.697-.405,1.092-.384l.54.027c.077-.25.219-.478.414-.659.297-.276.691-.419,1.098-.398l2.591.135c.717.037,1.292.573,1.402,1.257.06.004.118.008.178.012.085-.274.248-.52.472-.706.307-.256.697-.376,1.102-.341l2.582.244c.682.064,1.215.577,1.334,1.22.175.015.342.029.498.042l.104.009c.396.034.764.225,1.02.53.256.305.381.699.346,1.095l-.21,2.403c-.051.579-.423,1.052-.927,1.258.163.281.232.609.192.936l-.314,2.558c-.08.65-.565,1.153-1.174,1.284l-.098.907c-.145,1.335-.331,3.058-.419,3.919-.078.772-.729,1.349-1.49,1.349ZM42.945,169.135c.062.005.126.01.19.016-.032-.062-.06-.126-.083-.192-.032.062-.068.121-.107.177ZM42.704,166.307c.083.064.159.136.228.217.124.146.218.312.278.49.15-.283.388-.51.674-.648-.096-.073-.183-.158-.26-.253-.113-.142-.199-.301-.255-.471-.146.289-.38.521-.665.666ZM46.044,161.905c.06.051.115.106.167.167.079.093.146.194.2.301.118-.168.27-.311.444-.417-.052-.045-.1-.094-.145-.147-.087-.101-.159-.211-.215-.329-.12.172-.274.317-.452.425ZM40.392,161.544c.162.129.296.291.394.474.069-.104.152-.199.246-.283.066-.059.137-.111.211-.157-.157-.132-.287-.296-.379-.481-.123.182-.284.335-.472.447Z"/>
    <path class="st0" d="M41.911,191.973c-.124,0-.25-.015-.376-.048l-2.845-.736c-.422-.109-.775-.396-.969-.788-.193-.391-.207-.846-.037-1.248.171-.404.343-.828.504-1.276-.87-.038-1.71-.069-2.506-.097-.404-.014-.786-.191-1.059-.491-.271-.3-.411-.697-.386-1.101l.177-2.84c.047-.758.65-1.353,1.393-1.403l.083-1.822c.037-.816.733-1.443,1.533-1.432l-.176-1.836c-.077-.801.492-1.52,1.289-1.629,1.624-.223,3.956-.458,6.237-.629.802-.06,1.489.506,1.599,1.291l.354,2.562c.031.228.01.457-.061.671.062.004.124.008.185.012.806.055,1.423.737,1.397,1.543l-.062,2.003c.595.215,1.01.792.989,1.457l-.087,2.849c-.012.409-.191.795-.496,1.069-.305.273-.699.411-1.116.38-1.054-.08-2.127-.151-3.191-.219-.258.918-.575,1.827-.985,2.826-.235.574-.791.931-1.388.931ZM40.897,185.162c.179.1.337.237.464.404.175.23.276.503.299.785.003-.012.006-.024.008-.036.129-.581.584-1.017,1.141-1.14-.158-.085-.301-.199-.421-.337-.179-.206-.296-.454-.344-.717-.159.533-.604.935-1.146,1.041ZM41.473,181.629c.122.077.233.171.331.282.169.193.284.425.338.671.076-.247.216-.471.408-.65.091-.085.191-.158.299-.217-.343-.219-.589-.572-.667-.984-.072.254-.212.488-.406.675-.092.088-.194.163-.303.224ZM41.624,177.885c.018.014.035.028.053.043.214.182.37.418.454.68.032-.304.155-.583.344-.806-.289.027-.573.055-.851.083Z"/>
    <path class="st0" d="M40.499,207.874c-.2,0-.405-.009-.614-.027-1.707-.149-3.079-1.074-3.762-2.539-.496-1.064-.556-2.303-.204-3.413l-2.211-.494c-.437-.098-.807-.385-1.01-.783s-.217-.867-.039-1.277c.152-.353.307-.733.459-1.132-.214-.095-.405-.24-.556-.425-.256-.315-.373-.721-.324-1.125l.331-2.755c.096-.804.803-1.391,1.621-1.315.167.015.335.028.502.041.036-.194.071-.391.104-.59.136-.802.882-1.35,1.691-1.235l2.963.422c.41.058.778.284,1.017.624.229.326.317.729.249,1.12.035,0,.07.002.106.003.407.011.792.186,1.066.486.06.064.112.133.159.206.352-.275.822-.394,1.289-.275,1.112.277,2.121.572,4.315,1.261.769.241,1.209,1.046.998,1.824l-.666,2.454c-.108.401-.379.739-.746.933-.366.193-.798.227-1.191.091-.017-.006-.034-.012-.052-.018-.003.128-.008.254-.014.378.666.396,1.27.839,1.682,1.243.552.542.602,1.414.115,2.015l-1.803,2.228c-.259.319-.637.519-1.046.551-.232.02-.467-.018-.681-.104-.917,1.071-2.19,1.626-3.751,1.626ZM42.198,201.665c.173.123.32.283.43.47.145.248.213.531.202.813.159-.138.348-.242.555-.304.164-.048.335-.068.501-.06-.043-.022-.086-.043-.129-.064-.573-.278-.909-.887-.837-1.52,0-.003,0-.005,0-.008-.092.174-.219.33-.374.458-.107.088-.225.16-.349.215ZM40.109,202.554l.793.217c-.113-.156-.269-.256-.422-.27-.139-.012-.265.012-.371.052ZM40.876,201.274s.006,0,.009,0l.079-.99h0l-.087.989ZM39.209,198.69c-.019.061-.038.121-.057.18.283-.073.577-.123.881-.149l-.824-.031ZM35.989,195.722c.158.108.297.247.405.41.141.212.224.454.244.702.012-.037.022-.073.033-.11.185-.627.754-1.059,1.4-1.075-.145-.092-.273-.208-.377-.343-.182-.237-.3-.521-.327-.813-.007.027-.013.054-.02.081-.154.647-.713,1.106-1.359,1.149Z"/>
    <path class="st0" d="M43.334,222.616c-.33,0-.66-.108-.934-.326l-2.248-1.788c-.305-.242-.502-.592-.553-.975-1.557,1.555-3.405,2.23-5.217,1.746-2.477-.667-3.93-2.773-3.703-5.366.369-4.216,4.375-7.324,8.943-6.923,2.167.189,4.104,1.051,5.456,2.426,1.453,1.478,2.15,3.468,1.963,5.603-.18,2.052-1.153,3.917-2.743,5.253-.278.234-.621.352-.965.352ZM43.008,213.583c.562.655.907,1.449.999,2.322.104.997-.14,2.028-.684,2.983.411-.638.663-1.367.73-2.138.107-1.229-.254-2.322-1.046-3.167ZM38.988,211.951c.224.107.421.27.57.477.158.219.251.472.276.733.175-.293.446-.521.773-.642.229-.083.476-.108.711-.079-.592-.247-1.253-.407-1.958-.469-.125-.011-.249-.018-.373-.021Z"/>
    <path class="st0" d="M42.959,231.097c-.135,0-.271-.006-.407-.018-2.685-.235-4.478-2.18-4.264-4.626h0c.192-2.187,2.074-4.399,4.763-4.161,1.209.105,2.3.646,3.07,1.523.796.905,1.174,2.08,1.066,3.309-.204,2.328-1.99,3.973-4.229,3.973ZM42.422,226.903c.051.069.196.188.404.206.071.008.204.001.255-.062.057-.07.118-.252.055-.469-.027-.098-.211-.285-.433-.305-.084-.007-.11.004-.165.07-.113.139-.158.362-.116.559ZM42.434,226.955h.01-.01Z"/>
    <path class="st0" d="M38.607,18.438c-.479,0-1.02-.026-1.621-.079-1.467-.128-2.933-.389-3.824-.681-.716-.234-1.146-.963-1.007-1.704l.506-2.685c.065-.348.251-.659.521-.881-.149-.236-.231-.511-.232-.795l-.011-2.478c-.102-.003-.202-.007-.302-.01-.584,2.648-1.225,5.688-1.358,6.524-.065.404-.293.765-.63.998-.338.232-.757.316-1.156.233l-2.857-.594c-.791-.165-1.31-.924-1.174-1.72.12-.707.561-2.934,1.101-5.527-.404-.005-.789-.173-1.067-.467-.285-.299-.434-.704-.411-1.117l.156-2.807c.044-.791.695-1.411,1.487-1.417l.431-.003c.235-.002.455-.003.661-.004.149-.655.236-1.033.294-1.273.192-.788.971-1.282,1.768-1.113l2.928.617c.396.084.743.325.96.668.216.344.284.76.188,1.154-.009.038-.018.076-.027.113.253.019.524.042.819.067.825.072,1.436.8,1.363,1.625l-.198,2.266c.373.007.755.021,1.134.039-.208-.265-.322-.593-.32-.934.002-.433.004-1.278.002-2.286,0-.398.156-.78.438-1.062s.663-.44,1.061-.441l1.627-.002h.002c.171,0,.335.028.487.081.113-.028.231-.042.353-.043l1.592-.006h.006c.811,0,1.475.644,1.499,1.455.015.464.023,1.428.017,2.354-.006.817-.666,1.479-1.483,1.489l-1.646.019c-.029-.002-.065,0-.097-.002.342.305.538.762.495,1.25l-.238,2.727c-.026.306-.146.593-.338.826.1.053.194.119.282.195.326.285.513.697.513,1.13l-.002,2.711c0,.711-.5,1.324-1.196,1.468-.395.082-.894.123-1.49.123ZM29.113,6.23c.175.094.332.222.46.379.224.277.34.622.334.971.022-.104.046-.206.068-.308.146-.647.697-1.117,1.349-1.167-.165-.093-.313-.218-.434-.37-.244-.306-.357-.693-.32-1.079l-.093.41c-.149.652-.708,1.121-1.364,1.163Z"/>
    <path class="st0" d="M32.758,34.3c-.289,0-.58-.083-.836-.255l-2.287-1.538c-.103-.069-.194-.148-.274-.236-.157.342-.438.613-.788.758-.38.157-.81.152-1.186-.016l-2.417-1.079c-.673-.3-1.027-1.044-.838-1.755.069-.262.225-.692,1.449-3.538-.235-.064-.453-.186-.634-.357-.315-.298-.486-.719-.468-1.153l.122-2.845c.034-.778.657-1.401,1.436-1.434.536-.023,1.224-.012,2.053.03l.085-.193c.282-.64.56-1.27.74-1.659.346-.744,1.226-1.075,1.973-.739l2.521,1.125c.75.334,1.092,1.21.766,1.964-.022.052-.059.134-.108.244.049.014.098.029.146.044.005-.012.01-.023.016-.035.171-.385.495-.681.895-.814l2.569-.86c.691-.23,1.444.065,1.792.702.541.988,1.566,4.036,1.77,5.261.12.721-.298,1.424-.989,1.663l-2.46.852c-.381.132-.798.104-1.157-.074-.026-.013-.052-.026-.076-.041-.434,1.77-1.33,3.659-2.608,5.376-.294.394-.746.604-1.204.604ZM32.307,24.309c.542.264.959.709,1.195,1.29.242.597.282,1.315.117,2.163.298-1.124.323-2.083.113-2.698-.158-.463-.382-.526-.49-.557-.234-.067-.543-.132-.936-.199ZM28.63,23.919c.186.115.348.271.47.46.104.161.175.337.211.52.011-.023.021-.046.031-.07.278-.618.938-.97,1.602-.867.054.009.107.017.161.026-.204-.132-.375-.314-.495-.532-.083-.151-.139-.314-.167-.48l-.035.08c-.258.577-.877.92-1.479.884-.103-.008-.202-.015-.299-.021Z"/>
    <path class="st0" d="M28.425,51.194c-.653,0-1.24-.427-1.434-1.063l-.843-2.768c-.13-.425-.064-.886.18-1.258.021-.033.044-.065.068-.096-.41.038-.82-.095-1.131-.369-.338-.298-.524-.732-.507-1.182.058-1.486.181-4.149.268-5.542.025-.404.212-.78.519-1.044.307-.265.706-.396,1.109-.357l.785.068c-.052-.367.035-.742.245-1.051l1.473-2.167c.456-.673,1.366-.858,2.05-.419.559.358,1.942,1.059,3.507,1.704.398.165.707.492.847.9s.098.855-.116,1.23l-1.345,2.358c-.19.333-.491.568-.833.681.81.312,1.495.749,2.027,1.303.898.935,1.312,2.128,1.196,3.453-.382,4.37-4.701,5.296-7.918,5.613-.049.005-.099.007-.147.007ZM32.552,43.78c.083.077.161.16.23.249.457.575.564,1.318.288,1.987-.31.748-1.049,1.329-2.241,1.752,2.517-.681,2.614-1.793,2.672-2.456.04-.454-.078-.807-.37-1.111-.153-.159-.348-.299-.579-.421ZM27.865,42.063c-.012.256-.023.511-.035.76.138-.009.277-.017.419-.023-.196-.206-.328-.462-.384-.737ZM30.884,40.295c.126.011.25.023.373.039-.119-.058-.242-.119-.366-.181-.003.046-.005.094-.007.142Z"/>
    <path class="st0" d="M34.64,58.041c-.132,0-.266-.018-.396-.053-.417-.114-.765-.402-.954-.791-.218-.449-1.809-2.624-2.332-3.188-.272-.294-.415-.685-.398-1.085.018-.4.194-.776.491-1.046l1.963-1.78c.607-.551,1.548-.512,2.106.09.412.443,2.604,3,3.091,4.458.215.644-.029,1.352-.596,1.726l-2.148,1.421c-.247.164-.535.249-.827.249Z"/>
    <path class="st0" d="M29.212,74.825c-.289,0-.58-.083-.836-.255l-2.287-1.538c-.103-.069-.194-.148-.273-.236-.157.342-.438.613-.788.758-.383.157-.81.151-1.186-.016l-2.418-1.079c-.673-.3-1.027-1.044-.838-1.755.069-.262.225-.692,1.449-3.538-.235-.064-.453-.186-.635-.357-.314-.299-.485-.719-.467-1.153l.122-2.845c.034-.778.657-1.401,1.436-1.434.534-.022,1.224-.012,2.053.03l.113-.256c.272-.618.538-1.219.712-1.596.347-.744,1.221-1.073,1.973-.74l2.522,1.125c.752.336,1.093,1.215.764,1.97l-.107.239c.049.014.098.029.146.044.005-.012.01-.023.016-.035.171-.385.495-.681.895-.814l2.57-.86c.689-.231,1.444.066,1.792.702.539.985,1.564,4.032,1.77,5.259.12.722-.298,1.425-.989,1.665l-2.46.851c-.381.132-.798.104-1.157-.074-.026-.013-.052-.026-.077-.041-.433,1.77-1.329,3.66-2.608,5.377-.294.394-.746.604-1.204.604ZM28.762,64.835c.541.263.959.709,1.195,1.291.241.596.282,1.312.118,2.156.296-1.122.321-2.077.112-2.691-.158-.463-.383-.526-.491-.557-.234-.067-.542-.132-.935-.199ZM25.084,64.444c.186.115.348.271.47.46.104.161.175.337.211.52.011-.023.021-.046.031-.07.277-.617.93-.973,1.601-.867.055.009.109.017.163.026-.203-.132-.374-.313-.495-.532-.084-.152-.14-.315-.167-.482l-.036.083c-.259.577-.87.922-1.479.883-.103-.008-.202-.015-.299-.021Z"/>
    <path class="st0" d="M24.838,91.278c-.216,0-.437-.01-.663-.03-2.569-.225-4.279-2.163-4.066-4.607h0c.099-1.127.541-2.058,1.286-2.716-.081-.187-.123-.39-.123-.598l.006-2.548c0-.536.284-1.007.709-1.271l-.057-2.208c-.01-.399.14-.786.415-1.074s.654-.456,1.054-.464c.387-.008.785-.016,1.203-.021.058-.245.176-.473.347-.664.282-.313.684-.493,1.104-.496l2.894-.019h.01c.729,0,1.354.524,1.478,1.244.002.006.003.013.004.02.446.029.868.065,1.243.108.399.045.764.249,1.012.565s.358.719.307,1.118l-.335,2.592c-.005.044-.013.087-.022.129.182.28.272.621.233.979l-.279,2.578c-.045.411-.257.785-.586,1.035-.004.003-.009.006-.013.009.091.04.179.079.265.119.726.338,1.059,1.187.756,1.928l-1.035,2.53c-.156.381-.462.681-.845.83-.385.149-.811.135-1.184-.042l-.409-.195c-.298-.143-.588-.282-.894-.416-.846,1.022-2.177,1.584-3.813,1.584ZM25.273,87.274l-.535.792c.128-.065.265-.176.375-.351.091-.145.141-.297.16-.441ZM24.526,86.837l.738.113c-.016-.082-.042-.155-.074-.215-.119-.217-.363-.375-.621-.397l-.043.5ZM24.509,86.335c-.3,0-.487.205-.521.419l.537.083.043-.499c-.021-.002-.04-.003-.06-.003ZM26.578,85.971c.197.216.327.485.373.772.103-.096.219-.179.346-.244.109-.056.224-.098.341-.125-.257-.237-.424-.56-.47-.909-.105.155-.241.291-.4.398-.062.041-.124.077-.189.108ZM26.933,82.136c.094.065.182.142.259.229.155.172.266.375.327.594.142-.331.391-.61.697-.783-.284-.203-.493-.501-.582-.846-.127.349-.38.634-.701.807ZM26.987,78.481c.35.199.611.535.713.938.079-.25.225-.477.423-.656.072-.066.151-.125.234-.174-.37-.199-.646-.549-.748-.968-.066.245-.193.471-.374.656-.075.078-.159.146-.248.205Z"/>
    <path class="st0" d="M30.077,107.298c-.313,0-.629-.098-.898-.299l-2.46-1.842c-.041-.031-.081-.064-.119-.1,0,.126,0,.244.003.352.007.417-.159.819-.461,1.108-.3.289-.709.436-1.125.416l-3.003-.173c-.794-.046-1.415-.703-1.414-1.499,0-.222.002-.445.004-.67-.048.004-.098.006-.145.005-.398-.006-.777-.17-1.054-.457l-1.989-2.054c-.285-.293-.437-.69-.422-1.099.016-.408.196-.793.502-1.065.311-.276.653-.574,1.011-.877-.171-.063-.332-.158-.472-.281-.309-.271-.492-.656-.509-1.066l-.108-2.685c-.017-.405.132-.8.412-1.094.279-.294.665-.462,1.071-.467.57-.006,1.494-.044,2.479-.116l.098-.855c.092-.812.813-1.402,1.63-1.325l2.958.276c.41.039.786.244,1.04.568.255.324.364.738.304,1.146-.056.376-.096.753-.18,1.685,1.779-.014,3.423.502,4.632,1.549,1.399,1.212,2.075,2.963,1.903,4.931-.159,1.808-1.039,3.696-2.547,5.46-.296.346-.717.525-1.142.525ZM23.617,103.848h.002c.035-1.244.116-2.811.23-4.392.043-.596.436-1.109.998-1.307.141-.049.279-.094.414-.134-.245-.052-.477-.165-.671-.333-.363-.315-.554-.786-.512-1.265.048-.546.088-1,.121-1.38-.094.449-.387.822-.782,1.025.036.028.071.057.105.088.344.314.521.771.481,1.235l-.055.632c-.041.458-.29.872-.675,1.123-.303.198-.694.482-1.135.821.262-.014.505.038.737.152.542.266.871.832.835,1.434-.045.774-.077,1.544-.096,2.301ZM29.776,103.698h.002c.018-.026.034-.053.052-.081-.018.027-.035.054-.054.081ZM28.57,97.973c.755.275,1.301.752,1.634,1.284.541.863.72,2.151.037,3.62.303-.627.484-1.242.536-1.827.087-.998-.217-1.828-.879-2.402-.363-.315-.814-.542-1.328-.675ZM26.769,100.747c-.045.709-.082,1.403-.109,2.045,1.021-1.056,1.081-1.816,1.002-1.941-.04-.064-.331-.177-.893-.104Z"/>
    <path class="st0" d="M24.345,124.032c-.2,0-.404-.009-.614-.028-2.969-.26-4.367-2.73-4.176-4.922.03-.349.101-.695.208-1.03l-2.21-.494c-.437-.098-.807-.385-1.01-.783s-.217-.867-.039-1.277c.152-.353.307-.733.459-1.132-.214-.095-.404-.24-.555-.425-.257-.315-.374-.721-.325-1.125l.331-2.755c.096-.804.803-1.386,1.621-1.315.167.015.335.028.503.041.036-.194.07-.39.104-.588.135-.803.892-1.352,1.69-1.237l2.964.421c.411.058.78.285,1.018.625.229.326.317.729.249,1.119.035,0,.071.002.108.003.406.011.791.187,1.065.487.059.064.111.133.158.206.352-.275.822-.393,1.289-.275,1.107.276,2.115.571,4.315,1.261.769.241,1.21,1.047.998,1.825l-.667,2.454c-.108.401-.379.738-.746.933-.367.193-.798.227-1.191.091-.017-.005-.033-.011-.051-.018-.004.128-.009.254-.015.378.667.396,1.271.84,1.683,1.243.552.542.602,1.414.115,2.015l-1.804,2.228c-.259.319-.638.519-1.047.551-.239.019-.467-.018-.68-.104-.916,1.07-2.188,1.626-3.75,1.626ZM26.043,117.822c.175.124.323.284.433.473.144.248.212.529.201.811.16-.139.351-.244.56-.305.163-.047.332-.068.495-.059-.043-.022-.086-.043-.129-.064-.574-.278-.91-.888-.837-1.522,0-.002,0-.004,0-.006-.092.174-.219.331-.374.458-.107.088-.225.16-.35.214ZM23.622,118.949h0ZM23.954,118.712l.792.217c-.01-.014-.021-.028-.032-.042-.11-.131-.257-.217-.391-.229-.135-.012-.262.012-.369.053ZM23.054,114.849c-.019.059-.037.116-.056.174.272-.069.559-.118.86-.145-.249-.009-.513-.019-.805-.029ZM19.835,111.88c.159.108.297.247.406.411.14.212.223.454.243.702.012-.037.022-.074.033-.11.182-.617.734-1.044,1.367-1.074-.142-.092-.268-.208-.372-.346-.177-.231-.28-.505-.304-.79-.004.019-.009.037-.013.055-.154.649-.713,1.109-1.361,1.152Z"/>
    <path class="st0" d="M17.172,137.265c-.623,0-1.204-.392-1.418-1.012-.83-2.41-1.104-4.574-.891-7.017h0c.097-1.097.289-2.264.605-3.672.088-.39.328-.729.667-.942.34-.212.749-.28,1.139-.189l2.834.663c.783.183,1.282.952,1.132,1.742-.224,1.17-.355,2.434-.382,3.565l.146-.021c.397-.049.798.057,1.115.302.316.245.521.607.57,1.004l.305,2.502c.086.71-.341,1.382-1.021,1.606-.77.253-1.561.505-2.344.754-.676.215-1.346.428-1.992.639-.154.051-.312.075-.466.075ZM17.851,129.498h0c-.135,1.544-.04,2.914.319,4.369.183-.058.365-.116.549-.175.122-.039.245-.078.367-.117-.229-.05-.445-.153-.63-.305-.312-.255-.508-.625-.544-1.027-.101-1.124-.071-2.483.072-3.866-.058.39-.102.761-.134,1.121ZM26.44,135.238c-.334,0-.661-.112-.928-.322-.344-.271-.553-.678-.571-1.115-.057-1.351-.351-3.326-.808-5.42-.089-.408-.004-.835.235-1.178.238-.342.609-.57,1.023-.628l2.946-.411c.701-.096,1.394.32,1.627,1.001.503,1.476.862,4.327.769,6.101-.036.686-.534,1.259-1.208,1.392l-2.796.551c-.097.019-.193.028-.29.028ZM27.385,129.327c.094.502.177.99.249,1.459-.057-.505-.13-1.009-.216-1.463l-.033.004Z"/>
    <path class="st0" d="M22.508,153.958c-.211,0-.423-.044-.623-.136-2.336-1.067-3.856-2.951-4.174-5.169-.195-1.373.079-2.761.771-4.039-.84-.076-1.702-.165-2.539-.263-.819-.096-1.408-.836-1.315-1.657l.327-2.917c.044-.396.243-.757.555-1.005.311-.249.708-.363,1.104-.318,3.328.375,6.021.626,8.026.748.021-.364.176-.709.435-.969.281-.282.663-.44,1.061-.441l1.626-.002h.002c.17,0,.334.028.486.081.114-.028.233-.043.355-.043l1.591-.005h.005c.81,0,1.473.642,1.499,1.452.016.465.023,1.43.017,2.356-.006.817-.666,1.479-1.483,1.489l-1.646.019c-.134.006-.354-.028-.521-.087-.098.022-.199.034-.303.034h-.375c-.075.34-.268.651-.557.871-3.172,2.413-3.226,3.426-3.204,3.604.031.255.49.737,1.685,1.257.451.197.778.603.873,1.086.096.483-.053.982-.396,1.335l-2.204,2.266c-.289.297-.679.454-1.075.454ZM20.656,147.982c.005.082.013.165.024.246.132.924.675,1.738,1.556,2.357l.047-.048c-.757-.58-1.467-1.409-1.627-2.555ZM22.195,142.03c.308.178.549.462.668.813.054.156.08.315.081.475.376-.363.799-.736,1.271-1.121l-.004-.016c-.614-.039-1.287-.09-2.016-.151Z"/>
    <path class="st0" d="M21.546,170.118c-.348,0-.694-.12-.976-.361-1.379-1.181-5.002-4.731-6.685-6.55-.555-.599-.528-1.531.059-2.098l1.042,1.079-1.018-1.103c1.873-1.81,5.36-5.178,7.015-6.733.597-.561,1.535-.539,2.105.05l2.254,2.33c.28.29.432.679.421,1.082-.01.402-.182.784-.476,1.058-.553.516-1.323,1.248-2.111,1.997-.505.479-1.017.965-1.484,1.407.868.803,2.103,1.907,3.327,2.968.325.282.514.689.518,1.12s-.177.841-.497,1.129l-2.491,2.24c-.285.256-.644.385-1.003.385ZM17.099,162.233c1.355,1.394,3.187,3.19,4.448,4.366l.229-.207c-1.453-1.285-2.863-2.576-3.362-3.117-.562-.609-.523-1.558.085-2.119.647-.598,1.642-1.542,2.61-2.462.349-.332.694-.66,1.02-.967l-.165-.171c-1.433,1.365-3.375,3.238-4.865,4.677Z"/>
    <path class="st0" d="M25.163,186.226c-.062,0-.125-.004-.188-.012-1.836-.23-3.247-.977-4.195-2.221-.448-.586-.779-1.273-.994-2.056-.064,1.16-.075,2.051-.026,2.547.041.426-.102.85-.392,1.164-.291.314-.722.504-1.13.481l-2.906-.056c-.401-.007-.782-.175-1.058-.465-.276-.29-.426-.679-.413-1.079.004-.152.009-.305.014-.458-.51.115-1.062-.041-1.438-.451l-1.815-1.985c-.277-.304-.418-.709-.389-1.121s.228-.792.547-1.053c.262-.214.691-.581,1.184-1.006-.217-.039-.425-.125-.607-.256-.33-.236-.551-.597-.61-.999l-.398-2.673c-.061-.404.047-.815.297-1.139s.621-.531,1.027-.574c.78-.083,1.934-.282,3.157-.539l.156-1.228c.104-.807.835-1.389,1.646-1.298l2.901.308c.409.043.782.253,1.032.579.25.327.355.741.291,1.147-.075.476-.148.976-.22,1.498,1.304-.485,2.604-.767,3.524-.492.405.121.741.408.924.79l.55,1.149c.146.306.185.652.108.983-.839,3.659-.56,4.379-.453,4.513h0s.099.063.41.096c.402.042.771.245,1.021.562.25.317.362.723.31,1.124l-.381,2.913c-.099.755-.743,1.306-1.485,1.306ZM15.523,179.346c.221,0,.441.048.648.147.327.157.579.423.722.741.045-.587.094-1.132.136-1.58.046-.493.332-.93.765-1.17.187-.104.382-.205.586-.303-.14-.043-.275-.108-.4-.193-.292-.199-.499-.491-.595-.819.005.078.004.155-.003.234l-.067.766c-.031.373-.201.72-.477.974-.332.307-.813.739-1.339,1.204h.024ZM21.324,176.234c.28.037.549.153.771.341.131.11.239.24.323.383.067-.375.146-.769.234-1.18-.332.088-.779.234-1.329.456ZM16.604,174.951c.096.052.187.114.27.187.219.191.374.438.453.709-.006-.086-.004-.173.006-.261.049-.454.1-.898.152-1.331-.189.332-.503.584-.881.695Z"/>
    <path class="st0" d="M17.249,203.201c-.223,0-.448-.01-.679-.03-1.288-.113-2.466-.576-3.316-1.303-.979-.836-1.48-1.989-1.377-3.164.079-.9.42-1.702.959-2.337-.164-.169-.291-.38-.361-.62l-.307-1.039c-.146-.492-.029-1.024.309-1.411.322-.37.603-.696.862-1.004l-.108-.007c-.398-.028-.769-.213-1.03-.515s-.392-.695-.362-1.093l.201-2.712c.03-.4.219-.772.524-1.032s.705-.388,1.104-.351l1.379.121c1.871.164,3.646.345,6.13.627.525.06.981.392,1.198.874.218.482.165,1.043-.139,1.477-.745,1.063-1.292,1.827-1.794,2.517.599.302,1.134.709,1.582,1.213.996,1.119,1.469,2.604,1.33,4.183-.296,3.379-2.767,5.605-6.104,5.605ZM16.279,199.433c.012.107.14.26.225.265.062.016.271-.069.427-.231l-.651-.034ZM19.278,199.465c0,.039-.002.077-.004.116.07-.055.138-.114.202-.176-.064.024-.131.045-.198.061ZM17.776,199.511h.01-.01ZM13.371,198.836h.01-.01ZM16.068,193.706c.172.006.339.017.502.031-.073-.152-.119-.313-.138-.477-.121.149-.241.296-.364.445ZM17.273,189.928c.164.146.297.329.385.539.044.106.076.215.096.326.179-.244.36-.493.552-.758-.355-.038-.697-.073-1.032-.107Z"/>
    <path class="st0" d="M17.016,218.164c-.027,0-.054,0-.081-.002l-3.257-.176c-.397-.021-.771-.201-1.037-.498-.266-.297-.402-.688-.38-1.085.066-1.159.09-1.624.136-2.766.008-.182.048-.358.117-.523-.023-.124-.03-.251-.021-.379.091-1.304.306-2.139.85-2.894l-2.038-.956c-.664-.311-1.005-1.056-.808-1.762.65-2.329,2.605-3.878,5.23-4.143.538-.054,1.07-.06,1.583-.015,3.395.297,4.97,2.756,4.771,5.032-.129,1.46-1.054,2.825-2.357,3.479-.734.362-.898.514-.932.552.01.021-.006.319-.019.559l-.023.417c-.013.195-.062.379-.141.545.023.122.032.248.024.374-.045.781-.062,1.253-.083,1.837l-.036.964c-.017.401-.193.778-.49,1.048-.276.251-.637.39-1.009.39ZM17.05,208.643h.01-.01ZM16.314,207.311h0Z"/>
  </g>
  <g>
    <path class="st1" d="M56.937,19.959c-.146.023-.31.027-.453.015-.771-.067-1.412-.594-1.498-1.469-.019-.201-.02-.399-.002-.597.07-.807.477-1.53,1.267-1.678.957-.188,2.128.475,2.273,1.499.036.203.039.384.022.563-.086.986-.824,1.572-1.609,1.666ZM57.46,13.986c-.97.132-1.844-.415-1.951-1.454-.019-.201-.02-.399-.002-.597.07-.808.477-1.531,1.268-1.679.956-.188,2.127.476,2.272,1.5.036.202.039.384.023.562-.087.986-.825,1.573-1.61,1.667ZM57.982,8.013c-.97.133-1.844-.414-1.951-1.454-.019-.2-.02-.399-.002-.597.07-.807.477-1.53,1.268-1.678.166-.04.329-.044.49-.03.825.072,1.658.67,1.782,1.53.036.202.039.383.023.562-.087.986-.825,1.572-1.61,1.666Z"/>
    <path class="st1" d="M55.494,36.456c-.146.023-.31.027-.453.015-.771-.067-1.412-.594-1.498-1.469-.019-.201-.02-.399-.002-.597.07-.807.477-1.53,1.268-1.679.956-.188,2.127.476,2.272,1.501.036.202.039.383.023.562-.087.986-.825,1.572-1.61,1.666ZM56.016,30.483c-.97.132-1.844-.415-1.951-1.454-.019-.201-.02-.399-.002-.597.07-.808.477-1.531,1.268-1.679.956-.188,2.127.476,2.272,1.5.036.202.039.383.023.562-.087.986-.825,1.573-1.61,1.667ZM56.539,24.51c-.97.132-1.843-.414-1.951-1.454-.019-.2-.02-.399-.002-.597.07-.807.477-1.53,1.268-1.678.166-.04.329-.044.49-.03.825.072,1.658.67,1.782,1.53.036.202.039.383.023.562-.087.986-.825,1.572-1.61,1.666Z"/>
    <path class="st1" d="M48.389,47.844c-.512.479-1.02.905-1.775,1.49l-1.198-2.003c1.235-.904,2.113-1.641,3.068-2.642-.865-.021-1.64-.054-2.183-.047l.082-2.595c.687.006,1.572.011,2.508.056l.117-1.345c-.57.113-1.103.211-1.526.301l-.487-2.483c1.911-.356,4.203-.734,5.961-.996l.381,2.473c-.477.066-1.062.143-1.668.252-.07.608-.127,1.254-.184,1.899.916.062,1.763.101,2.372.153l-.206,2.567c-.558-.031-1.402-.087-2.338-.133.658.744,1.5,1.451,2.362,2.123l-1.383,1.759c-.386-.341-.836-.778-1.248-1.23-.117,1.545-.227,2.999-.295,4.204l-2.619-.229c.057-1.062.146-2.283.259-3.574ZM58.844,50.639c-1.811.04-3.382.029-6.031-.058l.166-2.732,1.027.035c.527-2.104,1.176-4.561,1.855-7.158l2.661.576c-.619,2.114-1.328,4.638-1.827,6.618.596.017,1.138.009,1.68.021-.104-.479-.189-.938-.294-1.399l2.604-.423c.299,1.544.578,3.304.829,4.772l-2.555.48c-.032-.237-.064-.493-.116-.732Z"/>
    <path class="st1" d="M55.323,55.566l1.963-1.78c.677.729,2.438,2.925,2.767,3.912l-2.148,1.42c-.322-.661-2.053-2.981-2.581-3.552Z"/>
    <path class="st1" d="M45.061,73.898c3.415-3.081,4.921-4.396,5.399-10.896l2.89.235c-.181,2.062-.452,3.72-.884,5.146,1.531,2.954,2.979,4.382,5.825,5.933l-1.731,2.433c-2.133-1.235-3.906-2.655-5.409-5.317-.971,1.597-2.337,2.959-4.228,4.528l-1.862-2.061Z"/>
    <path class="st1" d="M46.013,88.02c.076-.879.458-1.731,1.154-2.664-.491-1.615-.816-4.102-.772-5.833l2.896-.271c.013,1.302.104,2.954.238,3.888,1.08-.772,2.374-1.509,3.558-2.021l.971,2.941c-2.529,1.025-4.709,2.805-4.807,3.917-.119,1.363.914,1.743,4.662,1.673l-.279,2.977c-1.071.051-1.883.034-2.563-.026-3.569-.312-5.295-1.872-5.058-4.581Z"/>
    <path class="st1" d="M41.265,104.064c2.019.068,4.032.19,6.036.42-.141,1.614-.305,2.866-.5,4.476-1.919-.168-3.824-.299-5.749-.396.045-1.55.104-3.045.213-4.5ZM41.758,95.956c.703.025,1.458.073,2.213.121-.194-.668-.374-1.1-.689-1.831l1.882-.433c.286.658.466,1.071.772,1.911l-1.533.372c1.188.067,2.407.175,3.503.253l-.215,2.457c-1.758-.154-4.166-.311-6.021-.383l.089-2.468ZM42.545,101.628c1.352.046,2.359.098,3.705.216l-.122,1.796c-1.343-.136-2.314-.184-3.668-.212l.085-1.8ZM42.713,99.094c1.352.046,2.359.098,3.704.216l-.121,1.797c-1.344-.136-2.315-.185-3.669-.213l.086-1.8ZM44.787,106.993c.03-.341.074-.645.101-.949-.41-.055-.877-.095-1.454-.109-.028.323-.038.647-.049.972.448.04.898.061,1.402.087ZM48.512,103.035c.521.046,1.526.115,2.228.159l.087-.986c-1.096-.078-2.083-.164-2.784-.208l.191-2.803c.825.072,1.813.141,2.836.23l.097-1.112-1.338.208-.375-2.527c2.604-.423,3.714-.506,5.964-.815l.38,2.474c-.587.094-1.153.17-1.738.245l-.154,1.758c1.06.075,2.047.161,2.8.228l-.206,2.766c-.682-.06-1.705-.132-2.835-.231l-.085.97c.771.085,1.523.15,2.418.247-.115,1.111-.571,5.3-.64,5.872l-7.157-.626.312-5.847ZM52.931,106.856c.05-.356.098-.695.126-1.019-.699-.062-1.292-.113-1.975-.155-.028.323-.04.666-.07,1.006l1.919.168Z"/>
    <path class="st1" d="M45.286,124.221c.938-.804,1.548-1.581,1.868-2.349-.261.085-.501.155-.756.169-5.681.678-4.542-6.344.188-5.243.266.06.529.154.772.267.062-.718.08-.915.082-1.149-1.882-.183-3.725-.398-5.727-.646l.243-2.78c1.356.191,3.344.401,5.532.593-.016-.435-.014-.869-.031-1.286l3.007-.08c-.004.451.021.996.023,1.593.755.048,1.617.105,2.752.15l-.278,2.777c-.688.012-1.626-.016-2.578-.081-.096,1.094-.264,1.983-.527,2.719,1.013,2.059.157,5.021-1.975,6.876l-2.596-1.528ZM46.599,119.745c.112-.46-.251-.854-.824-.903-.987-.087-1.147,1.743.534,1.112.112-.044.208-.107.29-.209Z"/>
    <path class="st1" d="M48.164,138.421c1.914-1.838,1.924-4.224.039-5.4-1.316,4.096-3.951,6.54-6.354,5.896-1.783-.48-2.762-1.904-2.597-3.787.285-3.265,3.497-5.894,7.318-5.56,3.659.32,6.367,2.834,6.055,6.403-.145,1.65-.946,3.171-2.214,4.235l-2.248-1.788ZM45.42,132.398c-2.066.072-3.338,1.588-3.473,2.715-.036.412.021.996.64,1.158.635.182,2.03-1.72,2.833-3.873Z"/>
    <path class="st1" d="M42.519,155.22c1.882-3.125,2.31-5.328.967-5.681-.142-.03-.318-.082-.514-.118-1.219,2.769-2.548,5.778-2.693,6.199l-2.418-1.079c.081-.3.72-1.816,2.259-5.369-.827-.036-1.479-.021-1.861,0l.123-2.845c.707-.028,1.716.005,2.938.094.406-.922.948-2.157,1.237-2.783l2.523,1.125c-.135.295-.539,1.199-.896,1.964.624.09,1.122.188,1.51.295,2.629.735,2.185,5.613-.888,9.736l-2.287-1.538ZM47.182,146.338l2.237-.581c.36.845,1.115,3.369,1.356,4.547l-2.234.744c-.362-2.056-.806-3.595-1.359-4.71ZM49.856,144.493l1.383-.312c.127.21.461,1.342.501,1.707l-1.426.399c-.097-.353-.369-1.569-.458-1.794ZM51.824,144.106l1.38-.277c.148.375.369,1.152.483,1.705l-1.404.348c-.079-.332-.3-1.328-.459-1.775Z"/>
    <path class="st1" d="M39.46,162.719c-.666-.041-1.314-.062-1.944-.098l.108-2.468c.593.034,1.277.059,1.997.104.039-.449.056-.845.062-1.133l2.591.135c-.007.289-.043.702-.066,1.17,1.026.054,2.068.126,3.056.195l.101-1.148,2.582.244-.098,1.112c.79.051,1.49.112,2.046.16l-.21,2.403c-.628-.055-1.31-.114-2.046-.16l-.096,1.094-2.563-.242.091-1.04c-.988-.068-2.014-.123-3.038-.194-.018.414-.049.773-.053,1.026l-2.573-.135c.004-.253.035-.611.054-1.025ZM38.902,168.056l2.819.211c.021-.233.044-.503.067-.771-1.418-.106-2.768-.188-3.989-.259l.225-2.565,4.004.297c.073-.626.115-1.11.125-1.219l2.78.243c-.053.394-.088.788-.14,1.181l4.161.364-.314,2.558c-1.29-.132-2.688-.254-4.105-.378l-.066.754c1.13.099,2.171.189,3.065.286-.103.967-.456,4.188-.587,5.479-2.779-.262-5.559-.505-8.341-.729.048-1.171.19-3.834.296-5.451ZM44.581,171.733c.048-.339.093-.643.118-.93-1.075-.111-2.224-.212-3.32-.272-.009.308-.035.612-.044.918l3.246.284Z"/>
    <path class="st1" d="M39.066,189.736c.456-1.081.834-2.097,1.099-3.266-1.565-.083-3.061-.142-4.43-.189l.177-2.84c.937.028,2.735.131,4.695.248l.069-.789c-1.207-.052-2.396-.101-3.403-.152l.115-2.558c.829.037,2.036.069,3.351.131,0-.397-.019-.815-.035-1.251-.604.074-1.187.132-1.717.212l-.246-2.57c1.849-.254,4.253-.478,6.146-.619l.354,2.562-1.617.111c.02.598.024,1.158.033,1.684,1.097.06,2.158.116,3.093.18l-.08,2.56c-.718-.045-1.815-.104-3.094-.162-.006.271-.031.558-.055.827,1.655.09,3.165.187,4.155.236l-.087,2.849c-1.473-.111-2.982-.207-4.456-.3-.299,1.348-.692,2.542-1.222,3.833l-2.845-.736Z"/>
    <path class="st1" d="M34.035,199.938c.385-.888.763-1.903,1.109-2.976-.521-.045-1.005-.088-1.417-.124l.331-2.755c.61.054,1.222.09,1.831.143.144-.603.272-1.259.387-1.937l2.963.422c-.123.586-.262,1.134-.382,1.684.504.026,1.025.055,1.927.078l-.17,2.769c-.685-.023-1.404-.051-2.504-.093-.411,1.393-.803,2.569-1.15,3.442l-2.925-.653ZM40.968,200.218c.358.032.448.04.626.073.005-.469-.002-1.012-.012-1.519l2.918.11c.017.852-.016,1.626-.091,2.287.867.42,1.737,1.002,2.203,1.459l-1.803,2.228c-.269-.24-.658-.546-.999-.774-.045.105-.092.228-.136.313-.726,1.474-1.92,2.109-3.66,1.957-4.071-.355-3.729-6.544.953-6.135ZM41.331,202.889c-.317-.081-.532-.118-.729-.135-.627-.073-.986.111-1.022.524-.031.358.303.677.769.718.448.039.77-.33.982-1.107ZM42.307,197.3l.667-2.454c1.114.278,2.154.586,4.229,1.237l-.666,2.454c-.842-.291-2.182-.679-4.23-1.237Z"/>
    <path class="st1" d="M41.086,219.328c1.914-1.839,1.924-4.224.038-5.4-1.315,4.096-3.951,6.54-6.353,5.896-1.784-.48-2.762-1.904-2.598-3.787.286-3.265,3.498-5.894,7.318-5.56,3.659.32,6.368,2.834,6.056,6.403-.145,1.65-.947,3.171-2.214,4.235l-2.248-1.788ZM38.342,213.305c-2.067.072-3.338,1.588-3.473,2.715-.036.412.021.996.64,1.158.635.182,2.03-1.72,2.833-3.873Z"/>
    <path class="st1" d="M39.782,226.584c.131-1.488,1.415-2.949,3.137-2.798,1.687.147,2.924,1.503,2.774,3.207-.126,1.435-1.217,2.749-3.011,2.592-1.74-.152-3.048-1.314-2.9-3.001ZM43.872,226.526c-.182-.612-.537-.878-.914-.911-.699-.062-1.47.684-1.261,1.39.138.5.497.73.874.764.699.061,1.511-.537,1.301-1.242Z"/>
    <path class="st1" d="M26.94,14.817c.148-.873.789-4.069,1.467-7.264-.615,0-1.228-.018-1.825-.015l.156-2.807c.958-.007,1.664-.017,2.276,0,.323-1.418.471-2.074.557-2.428l2.928.617c-.168.69-.313,1.311-.436,1.878.723.009,1.531.062,2.554.151l-.24,2.744c-1.008-.053-2.034-.088-2.938-.095-.652,2.907-1.481,6.812-1.642,7.81l-2.857-.594ZM33.629,16.252l.506-2.685c1.589.429,4.527.722,5.661.567l-.002,2.711c-.552.114-1.492.122-2.677.019-1.363-.119-2.733-.365-3.488-.612ZM34.438,8.858c1.595-.06,3.771.059,5.145.27l-.238,2.727c-1.505-.15-3.753-.274-4.895-.248l-.012-2.748ZM38.228,4.165l1.627-.002c.03.689.007,1.771-.002,2.295l-1.627.003c.002-.435.004-1.283.002-2.296ZM40.701,4.201l1.592-.006c.014.453.022,1.394.016,2.297l-1.646.019c.022-.667.019-1.661.039-2.31Z"/>
    <path class="st1" d="M30.471,31.262c1.882-3.124,2.31-5.328.968-5.681-.195-.053-.463-.095-.729-.137-1.392,3.096-2.571,5.83-2.712,6.198l-2.417-1.079c.08-.301.719-1.817,2.259-5.37-.993-.014-1.57-.028-1.861,0l.122-2.845c.689-.029,1.698.004,2.938.095.404-.904.948-2.158,1.238-2.784l2.521,1.125c-.09.208-.425.938-.875,1.947.66.095,1.266.201,1.725.332,2.628.735,2.184,5.613-.889,9.736l-2.287-1.538ZM35.598,22.24l2.569-.86c.468.854,1.429,3.722,1.605,4.786l-2.46.852c-.328-1.006-1.097-3.368-1.715-4.777Z"/>
    <path class="st1" d="M27.583,46.927c6.354-.744,4.983-3.449-1.325-2.411.057-1.477.18-4.123.266-5.507l2.923.256c-.055.627-.082,1.348-.11,2.502,3.594-.173,5.867,1.31,5.66,3.677-.223,2.547-2.195,3.82-6.57,4.251l-.843-2.768ZM28.925,37.375l1.473-2.167c.719.461,2.244,1.209,3.744,1.828l-1.345,2.358c-1.045-.453-2.791-1.364-3.872-2.02Z"/>
    <path class="st1" d="M32.059,52.989l1.963-1.78c.677.729,2.438,2.925,2.767,3.911l-2.148,1.421c-.321-.661-2.053-2.981-2.581-3.552Z"/>
    <path class="st1" d="M26.926,71.787c1.883-3.124,2.311-5.328.968-5.681-.194-.053-.462-.095-.729-.137-1.392,3.096-2.57,5.831-2.711,6.198l-2.418-1.079c.08-.301.719-1.817,2.259-5.37-.993-.014-1.569-.028-1.861,0l.122-2.845c.689-.029,1.699.004,2.938.095.405-.904.948-2.158,1.238-2.784l2.522,1.125c-.091.208-.426.938-.875,1.947.66.095,1.266.201,1.724.332,2.629.735,2.184,5.613-.889,9.736l-2.287-1.538ZM32.052,62.766l2.57-.86c.468.854,1.428,3.722,1.605,4.786l-2.46.851c-.328-1.005-1.098-3.367-1.716-4.776Z"/>
    <path class="st1" d="M21.602,86.771c.173-1.973,1.799-2.789,4.327-2.152.098-.696.128-1.037.146-1.252-1.101-.024-2.147-.044-3.305-.036l.006-2.548c1.088-.032,2.243-.021,3.449.03.028-.521.032-.774.019-1.028-.994.003-1.899.015-2.75.03l-.065-2.554c.832-.018,1.719-.03,2.731-.032-.008-.326-.051-.655-.099-1.147l2.894-.019c.061.35.097.75.111,1.203.902.024,1.765.082,2.444.159l-.335,2.592c-.61-.054-1.311-.097-2.048-.143-.014.36-.027.72-.041,1.08.881.06,1.67.128,2.296.201l-.279,2.578c-.658-.111-1.412-.178-2.201-.246-.065.536-.136,1.126-.247,1.785,1.104.403,2.208.79,2.973,1.146l-1.035,2.53c-.799-.377-1.541-.768-2.613-1.114-.447,1.389-1.791,2.085-3.675,1.92-1.739-.152-2.847-1.334-2.703-2.983ZM24.438,87.832c.448.039.947-.297,1.032-.85-.308-.208-.643-.31-.911-.333-.575-.032-.966.295-.685.808.124.228.33.354.563.375Z"/>
    <path class="st1" d="M22.216,101.458c-.587.51-1.221,1.142-1.733,1.639l-1.989-2.054c1.332-1.186,2.985-2.522,3.963-3.16.018-.196.036-.412.055-.627-1.229.217-2.556.3-3.485.382l-.108-2.685c.923-.01,2.466-.092,3.815-.227.079-.698.157-1.378.236-2.076l2.958.276c-.09.606-.137,1.146-.354,3.62,3.931-.921,6.999,1.19,6.698,4.635-.131,1.489-.886,3.086-2.193,4.616l-2.46-1.842c2.929-2.907,1.513-5.724-2.272-4.393-.17,2.354-.265,4.677-.243,5.872l-3.003-.173c0-1.247.042-2.545.116-3.805Z"/>
    <path class="st1" d="M17.881,116.095c.385-.888.763-1.903,1.109-2.976-.521-.046-1.004-.088-1.417-.124l.331-2.755c.61.054,1.223.09,1.832.143.143-.603.272-1.26.386-1.936l2.964.421c-.124.586-.263,1.134-.382,1.684.503.026,1.025.054,1.927.078l-.17,2.769c-.686-.023-1.405-.05-2.505-.092-.411,1.392-.803,2.568-1.15,3.441l-2.925-.653ZM24.814,116.376c.358.031.449.039.626.072.005-.469,0-1.012-.012-1.519l2.919.11c.016.852-.016,1.626-.092,2.287.867.42,1.738,1.002,2.204,1.459l-1.804,2.228c-.268-.24-.657-.546-.998-.774-.046.105-.093.228-.137.313-.725,1.474-1.92,2.109-3.659,1.957-4.072-.356-3.729-6.543.952-6.134ZM25.177,119.047c-.318-.082-.532-.119-.729-.136-.626-.073-.986.111-1.022.524-.031.358.303.678.77.718.448.04.77-.33.982-1.106ZM26.154,113.456l.667-2.453c1.114.278,2.153.586,4.229,1.237l-.667,2.454c-.842-.291-2.182-.679-4.229-1.238Z"/>
    <path class="st1" d="M16.357,129.367c.092-1.04.28-2.162.575-3.474l2.834.663c-.366,1.92-.496,4.023-.359,5.554.639-.07,1.135-.153,1.793-.24l.305,2.502c-1.433.472-2.938.937-4.333,1.393-.764-2.218-1.011-4.155-.814-6.397ZM25.599,128.062l2.946-.411c.445,1.305.774,3.954.69,5.537l-2.796.551c-.059-1.396-.351-3.429-.841-5.677Z"/>
    <path class="st1" d="M21.444,143.328c-1.565-.083-3.503-.253-5.327-.467l.327-2.917c3.562.401,6.7.694,8.932.8l.546,2.018c-4.646,3.534-5.006,5.779-1.21,7.431l-2.204,2.266c-4.015-1.834-4.504-6.16-1.063-9.13ZM26.135,139.292l1.626-.002c.03.688.008,1.771-.002,2.295l-1.627.002c.002-.434.005-1.282.003-2.295ZM28.608,139.327l1.591-.005c.015.453.022,1.394.016,2.297l-1.646.019c.022-.667.02-1.661.04-2.311Z"/>
    <path class="st1" d="M14.986,162.189c1.836-1.773,5.37-5.188,7.024-6.742l2.254,2.33c-1.239,1.156-3.567,3.394-4.747,4.482.544.59,2.57,2.43,4.52,4.119l-2.491,2.24c-1.362-1.167-4.94-4.68-6.56-6.43Z"/>
    <path class="st1" d="M15.523,180.846c-.766.692-1.492,1.352-1.979,1.762l-1.815-1.985c.799-.653,3.108-2.674,4.092-3.582.021-.251.045-.521.067-.771-1.144.262-2.318.466-3.659.71l-.398-2.673c1.113-.119,2.821-.44,4.353-.794.111-.858.18-1.431.289-2.271l2.901.308c-.161,1.017-.355,2.409-.549,4.199,2.217-1.161,4.131-1.753,4.905-1.521l.55,1.149c-1.081,4.714-.779,6.223,1.263,6.437l-.381,2.913c-3.344-.419-4.63-2.863-4.033-7.004-1.06.341-1.902.683-2.605,1.073-.255,2.706-.353,4.85-.257,5.834l-2.906-.056c.037-1.244.093-2.504.164-3.728Z"/>
    <path class="st1" d="M13.371,198.836c.253-2.888,4.378-3.357,5.567-.832.068-.157.104-.37.128-.64.15-1.722-1.771-2.486-5.153-2.041l-.307-1.039c1.085-1.243,1.713-2.019,2.669-3.236-.859-.094-1.954-.189-2.941-.258l.201-2.712c.466.041.933.082,1.381.121,1.65.145,3.334.311,6.091.623-1.384,1.976-2.08,2.909-3.084,4.267,2.451.07,4.148,1.954,3.937,4.376-.245,2.798-2.288,4.463-5.158,4.212-2.027-.178-3.456-1.405-3.33-2.841ZM17.776,199.511c.078-1.511-1.92-1.614-2.061-.831-.064.537.288.839.787.919.464.076.953.065,1.273-.088Z"/>
    <path class="st1" d="M17.05,208.643c.827-.579.713-1.131.567-1.324-.547-.771-2.641-.394-3.071,1.431l-2.604-1.222c.606-2.171,2.496-2.909,3.937-3.055.475-.048.908-.047,1.303-.013,2.511.22,3.54,1.883,3.407,3.407-.079.896-.647,1.823-1.536,2.27-1.87.921-1.699,1.243-1.798,2.771l-3.265-.069c.139-1.994.461-2.382,3.061-4.196ZM13.896,213.698l3.241.14c-.067,1.168-.073,1.656-.121,2.826l-3.257-.176c.066-1.169.09-1.638.137-2.79Z"/>
  </g>
</svg>