<?xml version="1.0" encoding="UTF-8"?>
<svg id="_レイヤー_1" data-name="レイヤー_1" xmlns="http://www.w3.org/2000/svg" version="1.1" viewBox="0 0 65 305">
  <!-- Generator: Adobe Illustrator 29.0.1, SVG Export Plug-In . SVG Version: 2.1.0 Build 192)  -->
  <defs>
    <style>
      .st0 {
        fill: #fff;
      }

      .st1 {
        fill: #3c291a;
      }
    </style>
  </defs>
  <g>
    <path class="st0" d="M62.043,18.413c-.043,0-.087-.002-.131-.006-1.564-.137-5.672-.427-7.42-.471-.292-.007-.573-.1-.81-.262-.019.017-.037.034-.056.05-.306.259-.697.386-1.102.35l-2.763-.242c-.811-.071-1.417-.776-1.366-1.588l.062-1.012c.065-1.052.15-2.415.231-3.637-.018-.015-.036-.031-.054-.047l-1.941-1.779c-.314-.288-.491-.697-.486-1.123.005-.427.191-.831.512-1.112,2.266-1.982,3.281-3.17,4.528-5.298.411-.702,1.308-.949,2.021-.554l2.328,1.288c.352.195.611.523.719.911.107.388.055.803-.146,1.151-.247.428-.491.824-.736,1.195.271.012.562.027.874.044.062-.615.125-1.228.188-1.834.083-.799.792-1.393,1.584-1.343l2.786.171c.408.025.788.215,1.053.527.264.312.39.718.348,1.125-.061.584-.117,1.18-.172,1.781l1.536.134c.396.035.763.225,1.019.53.256.305.38.699.345,1.095l-.237,2.708c-.034.396-.226.763-.53,1.019-.306.256-.701.379-1.096.345l-.994-.08c-.163-.013-.335-.026-.516-.041-.006.077-.012.153-.018.229l.807.071c.825.072,1.436.799,1.363,1.625l-.236,2.708c-.034.396-.225.763-.53,1.019-.271.228-.612.351-.964.351ZM57.937,15.109c.379.024.762.049,1.137.075-.247-.195-.431-.465-.517-.773-.128.294-.348.538-.62.698ZM54.696,12.204c.018,0,.035,0,.053,0,.311.011.663.025,1.04.042.006-.08.013-.16.019-.24-.524-.029-.987-.054-1.35-.069-.005.096-.011.192-.017.289.083-.015.168-.022.255-.022ZM58.138,9.279c.159.086.303.201.424.34.146.168.25.366.309.576.166-.382.485-.678.874-.817-.346-.191-.604-.514-.716-.895-.174.376-.498.666-.891.795Z"/>
    <path class="st0" d="M54.863,35.637c-.044,0-.088-.002-.133-.006l-2.673-.234c-.825-.072-1.436-.799-1.363-1.624l.007-.096c-.598-.041-1.156-.075-1.66-.1-.399-.019-.774-.197-1.042-.494s-.405-.688-.384-1.087l.037-.659h-.047c-.404-.013-.786-.187-1.061-.483-.274-.297-.417-.692-.396-1.096l.079-1.529c.04-.781.673-1.394,1.443-1.421l.065-.743c.019-.214.082-.414.18-.591,0-.683.043-1.951.093-2.914-.352-.29-.566-.736-.544-1.225l.096-2.124c.018-.4.194-.776.491-1.044.296-.268.677-.402,1.088-.386.811.044,1.904.112,3.129.2.293-.463.824-.767,1.394-.708l2.689.235c.557.048,1.016.395,1.233.869l3.152.238c.4.03.771.219,1.031.524s.386.703.351,1.102l-.186,2.117c-.055.627-.488,1.13-1.056,1.304-.029.24-.061.498-.093.763-.087.708-.181,1.47-.243,2.068.08.216.109.451.083.685l-.035.335c.049.004.097.008.146.013.825.072,1.436.799,1.363,1.625l-.161,1.848c-.07.809-.76,1.411-1.585,1.367l-.255-.017c-.008.075-.017.151-.025.229l-.04.367c-.09.811-.8,1.398-1.622,1.33l-2.04-.178c-.005.061-.01.119-.015.174-.068.781-.724,1.369-1.492,1.369ZM53.613,31.543c.031.054.059.109.082.166.042-.071.089-.138.142-.201-.031-.054-.059-.109-.082-.166-.042.071-.089.138-.142.201ZM53.972,27.453c.034.059.063.121.089.184.039-.063.082-.125.13-.182-.033-.06-.063-.121-.089-.184-.038.064-.082.125-.13.183ZM54.238,25.181c.013.026.023.053.034.08.016-.024.031-.049.048-.073-.012-.026-.023-.053-.034-.08-.016.025-.031.049-.048.073ZM54.404,20.722c.102.12.182.254.24.396.089-.149.203-.282.336-.391-.088-.106-.16-.224-.215-.348l-.056-.005c-.084.131-.188.249-.306.347Z"/>
    <path class="st0" d="M47.305,50.101c-.684,0-1.301-.47-1.461-1.164-.513-2.228-.659-4.665-.434-7.244h0c.156-1.781.491-3.645.996-5.54.212-.794,1.02-1.269,1.818-1.068l2.936.745c.396.101.734.359.937.715.201.356.249.779.131,1.171-.702,2.334-1.018,5.109-.895,7.335l.25-.818c.122-.398.404-.728.778-.91.375-.182.808-.201,1.196-.051,1.509.582,3.273.888,5.244.91.432.005.84.195,1.12.522.281.327.408.759.349,1.186l-.387,2.768c-.098.697-.667,1.233-1.369,1.288-1.745.138-4.821-.376-6.859-1.142-.037-.014-.072-.029-.107-.045-.214.328-.548.56-.932.645l-2.986.661c-.109.024-.219.036-.325.036ZM48.448,46.427c.016.125.031.25.049.374h.004c-.019-.124-.036-.248-.053-.374ZM58.449,43.064c-1.041,0-3.762-.195-5.346-.368-.401-.044-.769-.248-1.018-.566-.249-.318-.359-.724-.306-1.124l.368-2.751c.108-.81.844-1.386,1.656-1.292,1.332.152,4.034.333,4.86.324.405.01.805.159,1.092.452.286.293.44.691.426,1.102l-.099,2.775c-.028.788-.66,1.419-1.448,1.446-.054.002-.116.003-.187.003Z"/>
    <path class="st0" d="M50.657,68.625c-.404,0-.803-.163-1.094-.473l-1.406-1.497c-.313-.333-.458-.792-.392-1.244.012-.079.029-.157.053-.232l-1.418-1.101c-.125-.098-.232-.213-.32-.341l-1.247-.046c-.804-.03-1.44-.688-1.444-1.492-.007-1.279.003-2.185.072-3.582.038-.773.656-1.381,1.413-1.423.025-.665.073-1.529.127-2.472v-.005c-.22-.271-.346-.62-.333-.996l.069-2.037c.014-.404.19-.786.489-1.059.3-.272.697-.413,1.101-.387l.921.05c.028.001.056.003.084.004.294-.367.767-.584,1.259-.561l2.463.143c.402.023.778.208,1.043.511.01-.008.019-.016.028-.024.308-.257.717-.39,1.104-.351l2.475.235c.483.046.891.316,1.13.698.396.032.763.064,1.086.093.825.072,1.436.8,1.363,1.625l-.175,1.991c-.039.446-.27.829-.604,1.076-.063.563-.19,1.681-.298,2.582.114.016.228.033.338.049.812.121,1.376.872,1.266,1.685-.161,1.198-.357,2.038-.565,2.927-.07.301-.144.615-.22.96-.177.805-.975,1.316-1.774,1.145l-2.005-.423c-.965,1.555-2.416,3.02-3.889,3.798-.222.117-.462.174-.7.174ZM54.15,53.345l.058.005c.032-.036.065-.07.1-.103-.031-.042-.06-.084-.086-.128h-.011c-.039.046-.08.092-.125.135.022.03.044.06.064.091ZM49.581,53.02l.114.007c.025-.029.053-.056.081-.083.003-.003.007-.006.01-.009-.034-.043-.065-.088-.096-.134l-.054-.003c-.038.047-.079.093-.123.135.023.028.046.057.067.087Z"/>
    <path class="st0" d="M50.883,84.419c-.043,0-.087-.002-.131-.006l-3.014-.264c-.81-.071-1.416-.774-1.366-1.586.025-.421.081-1.11.15-1.964l.036-.458-2.94-.239c-.798-.065-1.404-.746-1.377-1.546.051-1.493.341-5.865.448-7.423.027-.402.215-.775.521-1.037.306-.261.696-.391,1.105-.354l2.602.228c.161.009.328.019.5.029.046-.502.087-.911.121-1.196.098-.803.812-1.385,1.62-1.312l3.014.264c.405.035.778.233,1.034.549s.373.722.324,1.125c-.032.267-.068.62-.106,1.038,1.224.108,2.353.211,3.241.302.396.041.761.237,1.012.546s.369.706.328,1.102l-.773,7.396c-.085.814-.795,1.414-1.623,1.338l-3.066-.268s-.005,0-.007,0c-.077.977-.13,1.759-.155,2.304-.018.408-.202.792-.51,1.061-.274.241-.626.372-.988.372ZM49.477,81.29h.005c.059-.808.131-1.672.192-2.381.034-.396.225-.763.529-1.019.133-.111.282-.198.441-.257-.481-.274-.791-.806-.755-1.395.009-.146.019-.291.028-.437-.011.137-.022.275-.034.413-.034.396-.225.763-.529,1.019-.128.107-.271.191-.422.25.478.282.78.819.734,1.409l-.154,1.949c-.013.155-.024.305-.036.449ZM53.792,77.782l.609.053.102-.969c-.106.396-.369.722-.711.916ZM45.309,77.03l.546.045c-.268-.236-.448-.566-.495-.933-.019.312-.035.611-.051.888ZM49.294,72.812c.143.083.272.188.383.315.266.307.396.708.361,1.112-.026.311-.05.625-.073.942,0,.014-.002.027-.003.041.027-.339.057-.679.087-1.018.053-.602.455-1.09.989-1.281-.483-.284-.786-.829-.734-1.424.033-.389.065-.754.096-1.09l-.025-.002c-.03.34-.063.718-.099,1.125-.034.396-.225.763-.53,1.019-.135.114-.288.201-.451.261ZM54.238,73.351c.288.239.482.583.531.966l.095-.909c-.203-.019-.412-.038-.626-.057ZM45.579,72.664c-.021.31-.041.63-.062.956.108-.387.367-.708.707-.9l-.645-.056Z"/>
    <path class="st0" d="M42.991,99.412c-.684,0-1.301-.47-1.461-1.163-.514-2.226-.659-4.663-.434-7.244h0c.156-1.785.491-3.648.995-5.541.212-.794,1.02-1.268,1.818-1.068l2.936.745c.396.101.734.359.937.715.201.356.249.779.131,1.171-.702,2.334-1.018,5.109-.895,7.334l.25-.817c.122-.398.404-.728.778-.91.375-.183.809-.202,1.196-.051,1.508.582,3.272.888,5.244.91.432.005.84.195,1.12.522.281.327.408.759.349,1.186l-.387,2.768c-.098.697-.667,1.233-1.369,1.288-1.734.137-4.82-.376-6.859-1.142-.036-.014-.071-.028-.106-.044-.214.327-.548.56-.932.644l-2.986.661c-.109.024-.219.036-.325.036ZM44.135,95.741c.016.124.031.248.049.371h.004c-.019-.122-.036-.246-.053-.371ZM54.139,92.376c-1.037,0-3.762-.195-5.348-.368-.401-.043-.769-.248-1.019-.565-.249-.318-.359-.724-.307-1.124l.367-2.752c.108-.81.847-1.389,1.657-1.292,1.332.152,4.029.333,4.86.324.423.005.805.159,1.091.452.287.293.441.691.427,1.101l-.098,2.775c-.027.788-.661,1.42-1.449,1.446-.053.002-.114.003-.183.003Z"/>
    <path class="st0" d="M47.232,117.018c-.2,0-.405-.009-.614-.028-1.708-.149-3.079-1.075-3.763-2.54-.496-1.063-.555-2.302-.203-3.412l-2.212-.495c-.437-.098-.807-.385-1.01-.783s-.217-.867-.039-1.277c.156-.361.313-.749.468-1.154-.201-.095-.383-.231-.52-.399-.256-.315-.417-.725-.368-1.128l.331-2.755c.096-.804.828-1.393,1.619-1.315.168.015.336.028.504.041.036-.194.071-.391.104-.59.136-.802.882-1.35,1.691-1.235l2.963.422c.41.059.778.285,1.017.625.229.326.317.729.249,1.12.035,0,.07.002.107.003.406.011.791.187,1.066.486.059.064.111.133.158.206.352-.276.821-.394,1.289-.275,1.102.275,2.109.57,4.315,1.262.769.241,1.209,1.046.998,1.824l-.666,2.454c-.108.4-.379.738-.745.933-.368.194-.799.227-1.191.092-.018-.006-.035-.012-.053-.018-.004.128-.009.254-.015.378.668.397,1.271.84,1.682,1.243.552.542.602,1.413.115,2.014l-1.803,2.228c-.259.319-.637.519-1.047.551-.237.021-.466-.018-.678-.103-.915,1.069-2.188,1.626-3.752,1.626ZM48.932,110.808c.174.123.32.283.43.471.145.248.213.53.202.812.161-.139.352-.245.562-.306.162-.047.329-.065.493-.058-.043-.022-.086-.043-.129-.064-.574-.278-.91-.888-.837-1.521,0-.001,0-.002,0-.004-.092.172-.217.327-.371.454-.107.089-.226.161-.351.216ZM46.843,111.698l.79.216c-.01-.013-.02-.026-.03-.039-.11-.132-.256-.218-.39-.229-.141-.016-.265.012-.37.052ZM45.941,107.834c-.019.061-.038.121-.057.18.284-.073.579-.123.885-.149l-.828-.031ZM42.722,104.866c.158.108.297.246.405.41.141.212.224.454.244.701.012-.037.022-.073.033-.11.187-.633.765-1.066,1.418-1.075-.146-.092-.277-.207-.38-.342-.183-.24-.309-.527-.339-.823-.007.029-.014.059-.021.087-.154.649-.713,1.109-1.361,1.152Z"/>
    <path class="st0" d="M52.098,132.948c-.062,0-.125-.004-.188-.012-1.836-.23-3.247-.977-4.195-2.221-.448-.586-.779-1.273-.994-2.057-.063,1.159-.075,2.051-.027,2.55.041.425-.103.848-.393,1.162-.291.313-.687.5-1.129.48l-2.904-.055c-.4-.007-.781-.175-1.058-.465-.276-.29-.425-.678-.413-1.078.004-.153.009-.306.014-.459-.51.114-1.062-.041-1.438-.451l-1.814-1.984c-.277-.304-.418-.709-.389-1.12s.227-.792.545-1.053c.252-.206.684-.575,1.184-1.007-.217-.039-.425-.126-.607-.257-.33-.237-.551-.597-.61-.999l-.398-2.673c-.061-.404.047-.815.297-1.139s.621-.531,1.027-.574c.771-.083,1.942-.284,3.158-.54l.156-1.227c.104-.807.833-1.384,1.646-1.298l2.901.308c.409.043.782.253,1.032.579.25.327.355.741.291,1.147-.075.476-.148.976-.22,1.498,1.301-.485,2.601-.768,3.522-.494.406.121.742.408.925.79l.551,1.15c.146.306.186.653.109.983-.84,3.659-.561,4.379-.454,4.513h0s.099.064.411.097c.402.042.77.245,1.021.562.25.317.362.723.31,1.124l-.381,2.913c-.099.755-.743,1.306-1.485,1.306ZM42.457,126.069c.22,0,.441.048.647.147.328.157.58.423.723.743.045-.587.094-1.133.136-1.581.046-.493.332-.931.766-1.171.187-.104.381-.204.586-.303-.14-.043-.274-.107-.398-.192-.294-.2-.502-.494-.598-.824.006.077.005.155-.002.232l-.068.777c-.033.371-.203.716-.476.968-.329.304-.812.737-1.339,1.204h.023ZM48.26,122.958c.28.037.548.153.771.341.131.11.239.24.324.383.066-.375.146-.769.234-1.181-.333.089-.779.234-1.329.457ZM43.538,121.674c.096.051.186.114.269.186.221.192.378.442.457.716-.007-.087-.005-.176.005-.265.049-.455.1-.9.151-1.334-.189.333-.503.586-.882.697Z"/>
    <path class="st0" d="M44.205,149.924c-.229,0-.463-.01-.7-.031-1.287-.112-2.465-.575-3.315-1.302-.979-.836-1.481-1.989-1.378-3.163.079-.9.42-1.702.96-2.337-.165-.169-.292-.38-.362-.62l-.307-1.039c-.146-.492-.029-1.024.308-1.411.323-.371.604-.697.863-1.004-.036-.002-.073-.005-.109-.007-.398-.028-.769-.213-1.03-.515-.262-.301-.392-.695-.362-1.093l.201-2.711c.03-.4.219-.772.524-1.032.307-.26.712-.389,1.103-.351l1.381.121c1.398.122,3.108.283,6.131.627.525.06.98.392,1.198.875.217.482.164,1.043-.14,1.477-.745,1.063-1.292,1.827-1.795,2.516.599.302,1.135.709,1.583,1.213.996,1.119,1.469,2.604,1.33,4.183-.156,1.785-.896,3.265-2.141,4.28-1.069.873-2.422,1.326-3.942,1.326ZM43.214,146.156c.012.109.138.259.225.265.141.005.273-.071.427-.232l-.651-.033ZM46.213,146.187c0,.04-.002.08-.004.12.014-.011.028-.022.042-.034.059-.047.114-.098.168-.15-.066.026-.136.047-.206.063ZM44.711,146.233h.01-.01ZM40.306,145.559h.01-.01ZM43.003,140.428c.171.006.338.017.5.031-.072-.152-.118-.313-.137-.476-.12.148-.241.296-.363.444ZM44.207,136.65c.164.146.297.329.386.539.044.106.076.215.096.326.179-.244.36-.493.552-.758-.365-.039-.708-.074-1.033-.106Z"/>
    <path class="st0" d="M44.403,161.366c-.576,0-1.116-.333-1.364-.877l-1.092-2.391c-.178-.389-.181-.836-.009-1.228.173-.392.505-.691.911-.823l.147-.047c.333-.107.69-.223,1.035-.339-.697-.014-1.654.022-2.978.166-.402.042-.809-.078-1.119-.336-.312-.259-.507-.634-.538-1.038l-.204-2.621c-.062-.789.5-1.49,1.284-1.602,1.836-.262,3.511-.329,4.968-.201,5.736.502,6.283,3.975,6.314,5.027.011.108.003.292-.016.504-.161,1.845-1.499,4.327-6.961,5.757-.127.033-.254.049-.38.049ZM47.701,153.661s.009.008.013.011c.531.473.826,1.121.831,1.823,0,.199-.02.383-.06.555.156-.241.247-.488.27-.738l.01-.125c-.022-.715-.464-1.199-1.063-1.526Z"/>
    <path class="st0" d="M42.977,178.715c-.213,0-.427-.045-.628-.138-2.388-1.101-3.931-3.019-4.234-5.262-.183-1.346.093-2.703.773-3.95-.822-.074-1.663-.162-2.477-.257-.82-.097-1.408-.837-1.315-1.657l.328-2.917c.044-.396.244-.757.555-1.005.312-.248.711-.363,1.104-.318,3.745.423,6.984.713,9.122.817.646.031,1.199.473,1.372,1.096l.551,1.981c.168.605-.059,1.252-.569,1.619-3.447,2.482-3.444,3.517-3.433,3.627.021.195.393.672,1.655,1.224.451.197.776.603.871,1.086.095.483-.053.981-.396,1.334l-2.203,2.266c-.289.297-.679.454-1.075.454ZM41.202,171.566c-.135.45-.175.904-.115,1.348.128.947.693,1.787,1.618,2.43l.049-.051c-.77-.592-1.486-1.443-1.612-2.624-.039-.365-.02-.732.061-1.103ZM42.631,166.785c.309.179.55.466.668.818.074.221.095.451.065.672.445-.425.96-.863,1.546-1.317-.729-.047-1.498-.107-2.279-.173Z"/>
    <path class="st0" d="M45.729,185.874c-.132,0-.266-.018-.396-.053-.417-.114-.765-.403-.954-.791-.218-.449-1.809-2.624-2.332-3.188-.272-.294-.415-.685-.398-1.085.018-.4.194-.776.491-1.046l1.963-1.78c.608-.55,1.546-.512,2.106.09.411.442,2.603,2.995,3.092,4.457.215.644-.029,1.353-.596,1.727l-2.149,1.421c-.248.164-.536.249-.827.249Z"/>
    <path class="st0" d="M34.554,16.359c-.546,0-1.047-.02-1.513-.061-2.11-.185-3.735-.782-4.832-1.774-.836-.757-1.79-2.14-1.589-4.432h0c.083-.95.41-1.857,1.019-2.812-.421-1.703-.684-3.931-.643-5.592.02-.76.604-1.386,1.36-1.457l2.897-.271c.424-.038.833.099,1.145.38.312.281.491.68.495,1.099.004.43.017.882.035,1.324.56-.306,1.123-.584,1.665-.818.386-.167.825-.163,1.209.008.384.172.678.498.81.898l.972,2.94c.248.75-.128,1.564-.86,1.861-1.993.808-3.387,1.971-3.787,2.551.383.09,1.219.184,3.05.15.412-.023.837.166,1.128.479.29.313.434.735.394,1.16l-.278,2.976c-.069.744-.676,1.323-1.422,1.359-.444.021-.861.031-1.254.031ZM29.608,10.354c-.101,1.154.302,1.664.614,1.946.592.536,1.657.886,3.08,1.01.327.028.681.045,1.064.049v-.008c-1.86-.056-3.082-.333-3.839-1.143-.521-.557-.745-1.283-.669-2.158.163-1.878,2.545-3.584,4.458-4.582l-.012-.038c-.626.346-1.244.733-1.802,1.132-.426.305-.979.365-1.462.16-.215-.092-.401-.231-.549-.402.065.286.137.555.211.8.14.457.053.952-.232,1.334-.538.722-.812,1.326-.863,1.899h0Z"/>
    <path class="st0" d="M32.576,28.068c-.576,0-1.116-.333-1.364-.877l-1.092-2.392c-.178-.39-.181-.836-.009-1.228.173-.392.505-.691.912-.823l.142-.046c.334-.108.694-.224,1.04-.341-.69-.014-1.651.022-2.977.166-.401.042-.807-.078-1.119-.336s-.507-.633-.538-1.038l-.205-2.621c-.062-.79.5-1.491,1.284-1.602,1.837-.261,3.506-.33,4.968-.201,5.736.501,6.283,3.975,6.314,5.027.011.121.002.302-.017.514-.16,1.834-1.498,4.316-6.96,5.747-.127.033-.254.049-.38.049ZM35.871,20.361c.006.005.011.009.016.014.531.474.826,1.122.83,1.825,0,.198-.02.382-.06.554.157-.242.248-.489.271-.74l.009-.125c-.021-.717-.464-1.201-1.065-1.528Z"/>
    <path class="st0" d="M31.148,45.416c-.213,0-.427-.045-.628-.138-2.388-1.101-3.931-3.019-4.233-5.262-.183-1.346.094-2.702.773-3.949-.823-.075-1.664-.162-2.478-.258-.819-.097-1.407-.837-1.314-1.657l.327-2.917c.044-.396.244-.757.555-1.006.312-.248.712-.362,1.104-.318,3.808.43,6.962.713,9.123.817.646.031,1.2.474,1.373,1.098l.549,1.982c.168.605-.06,1.251-.569,1.618-3.446,2.481-3.443,3.517-3.432,3.626.021.195.393.672,1.656,1.224.451.197.776.603.871,1.086.095.483-.054.982-.396,1.335l-2.205,2.265c-.289.296-.68.454-1.075.454ZM29.375,38.268c-.134.45-.175.903-.115,1.346.128.947.692,1.787,1.617,2.43l.05-.051c-.769-.592-1.486-1.443-1.612-2.623-.038-.365-.02-.731.061-1.102ZM30.806,33.487c.308.179.549.466.667.819.074.22.095.449.065.67.445-.424.959-.862,1.544-1.316-.727-.047-1.496-.106-2.276-.173Z"/>
    <path class="st0" d="M29.448,61.578c-.221,0-.444-.01-.674-.03-3.276-.307-5.191-2.118-5.546-5.157-.021,0-.04.002-.059.004-.432.033-.86-.13-1.167-.439-.307-.309-.465-.735-.433-1.169l.205-2.748c.025-.334.158-.636.364-.873-.118-.243-.171-.516-.146-.79l.235-2.691c.071-.801.782-1.398,1.563-1.368.151.007.346.018.562.031.004-.021.009-.043.013-.064.161-.769.897-1.286,1.663-1.18l2.912.381c.417.055.792.282,1.033.626.152.217.243.467.267.726.898.093,1.168.142,1.279.162.764.137,1.296.834,1.229,1.606l-.233,2.673c-.037.424-.252.812-.592,1.068-.091.068-.188.126-.291.171l-.034.727,2.819.421c.79.118,1.35.835,1.271,1.63-.382,3.881-2.803,6.282-6.242,6.282ZM25.446,53.569c.112.067.217.149.311.245.289.298.441.703.421,1.117-.064,1.328.17,2.177.628,2.72-.46-.648-.659-1.592-.593-2.825.032-.604.418-1.105.946-1.314-.131-.081-.25-.182-.352-.301-.224-.26-.35-.587-.361-.925l-.007.053c-.072.579-.469,1.047-.993,1.23ZM26.02,49.37c.116.081.222.179.312.292.195.245.308.542.325.849.118-.527.509-.938,1.002-1.099-.126-.088-.239-.195-.334-.32-.168-.219-.27-.478-.3-.747-.158.478-.541.868-1.006,1.024Z"/>
    <path class="st0" d="M27.894,78.704c-.05,0-.101-.002-.151-.008l-2.651-.269c-.363-.037-.685-.201-.922-.444-.291.101-.615.112-.934.012l-2.006-.627c-.387-.121-.708-.394-.891-.755s-.211-.782-.079-1.166c.113-.33.254-.69.394-1.051.056-.142.11-.284.164-.424-.059-.188-.08-.387-.061-.587l.203-2.115c.032-.336.174-.636.385-.868-.085-.003-.17-.006-.254-.008-.403-.013-.785-.188-1.059-.485-.273-.298-.414-.693-.393-1.097l.124-2.249c.045-.822.764-1.447,1.566-1.416.166.008.336.016.511.025-.205-.263-.323-.596-.315-.956l.047-1.984c.01-.405.184-.789.48-1.064.298-.276.689-.418,1.098-.398l1.821.095c.28-.461.78-.755,1.374-.72l2.733.167c.404.024.781.212,1.046.519.102.118.183.25.243.391.065.005.131.01.196.016.547.043,1.062.083,1.521.114.414.027.798.226,1.062.546.263.321.381.737.326,1.148l-.26,1.947c-.046.344-.205.646-.436.872.169.012.333.024.493.036.402.03.775.22,1.036.529.26.308.385.708.347,1.11l-.214,2.241c-.078.806-.782,1.389-1.581,1.355.094.805.279,2.281.362,2.942l.019.149c.028.225.005.451-.065.662.028.243.062.485.095.727.046.339.091.679.128,1.022.086.817-.502,1.552-1.317,1.647l-2.118.248c-.376.043-.734-.055-1.023-.253-.024.023-.049.045-.074.067-.272.231-.616.356-.971.356ZM26.848,73.134c.005.012.011.024.016.036.004-.007.009-.015.014-.022-.01-.004-.02-.009-.029-.014ZM27.024,67.7l.067.004c-.011-.022-.021-.044-.029-.067-.012.021-.024.042-.038.063ZM27.182,65.781s.004.01.006.015c.02-.034.039-.067.061-.1-.002-.005-.004-.01-.006-.015-.019.034-.039.067-.061.1ZM27.202,63.517c.072.102.131.211.175.326.077-.139.175-.264.29-.371-.055-.079-.102-.162-.14-.249l-.083-.005c-.067.11-.149.21-.242.298Z"/>
    <path class="st0" d="M25.869,95.042c-.044,0-.088-.002-.133-.006l-2.188-.191c-.403-.035-.775-.232-1.031-.546-.145-.177-.245-.383-.297-.601l-.999-.087c-.09.196-.223.371-.391.513-.305.258-.697.386-1.101.35l-2.098-.184c-.805-.07-1.409-.766-1.367-1.573.102-1.942.413-6.518.598-9.121.028-.401.217-.774.522-1.035.158-.136.342-.235.537-.294,0-.016,0-.033.002-.049l.126-2.465c.042-.817.753-1.445,1.551-1.422l.555.017c-.018-.369.103-.734.34-1.023.279-.338.691-.538,1.13-.546l2.209-.042c.788-.04,1.419.551,1.517,1.311.021.171.042.349.061.528.22.013.432.026.633.039l.434.027c.23.014.451.08.647.191.011-.029.021-.057.032-.085.145-.378.436-.683.807-.843.372-.162.793-.166,1.167-.01l2.338.963c.644.265,1.006.927.915,1.589.234.016.462.032.682.047l.543.037c.405.028.782.218,1.045.529.262.311.387.714.346,1.118l-.272,2.706c-.034.347-.186.655-.41.888.067.276.058.574-.044.86-.341.956-.714,1.835-1.129,2.66.173.13.343.252.51.367.661.454.848,1.349.424,2.03l-1.346,2.16c-.215.344-.559.586-.955.672-.396.087-.81.009-1.147-.216-.206-.137-.413-.281-.62-.433-.189.21-.383.418-.579.622-.277.286-.656.451-1.054.458-.436,0-.783-.146-1.068-.422l-.181-.174c-.27.417-.738.687-1.259.687ZM29.43,89.462c.129.263.177.557.141.844.027-.004.054-.008.081-.01.07-.006.144-.007.212-.006-.121-.268-.161-.568-.113-.859-.032.007-.064.012-.098.017-.074.01-.137.012-.223.014ZM28.915,82.454c-.08.202-.161.404-.241.606.194-.077.416-.112.623-.104-.114-.098-.214-.213-.296-.344-.031-.051-.061-.104-.086-.158Z"/>
    <path class="st0" d="M24.265,111.034c-.199,0-.403-.009-.612-.027-2.969-.26-4.367-2.729-4.175-4.922.03-.349.1-.695.208-1.03l-2.211-.494c-.437-.098-.807-.385-1.01-.784-.203-.399-.217-.868-.039-1.278.154-.355.308-.733.46-1.131-.215-.095-.405-.24-.557-.426-.256-.315-.373-.721-.324-1.125l.332-2.754c.098-.804.827-1.38,1.621-1.314.167.015.334.028.502.041.035-.19.07-.386.104-.588.136-.803.888-1.35,1.69-1.237l2.964.421c.411.058.78.285,1.019.625.228.326.316.729.248,1.119.035,0,.071.002.108.003.406.011.791.187,1.065.487.059.064.111.133.158.205.352-.275.821-.393,1.289-.275,1.114.278,2.123.573,4.315,1.262.769.242,1.21,1.047.998,1.825l-.667,2.454c-.108.4-.379.738-.746.933-.366.194-.798.227-1.19.092-.018-.006-.034-.012-.052-.018-.004.128-.009.254-.015.378.667.396,1.271.839,1.682,1.242.553.542.603,1.414.116,2.015l-1.804,2.228c-.259.32-.638.519-1.048.551-.232.02-.466-.018-.679-.104-.917,1.071-2.19,1.626-3.752,1.626ZM25.965,104.824c.174.123.321.283.431.47.145.249.213.531.202.813.161-.14.353-.245.562-.306.16-.047.323-.068.492-.058-.043-.021-.086-.043-.128-.063-.574-.278-.91-.888-.837-1.521,0-.002,0-.004,0-.006-.093.175-.22.331-.376.459-.106.087-.223.159-.347.213ZM23.544,105.951h0ZM23.874,105.715l.797.217c-.114-.156-.27-.256-.424-.27-.141-.016-.267.013-.373.053ZM22.976,101.851c-.019.059-.037.117-.055.174.271-.069.559-.119.86-.145-.249-.009-.514-.019-.806-.03ZM19.757,98.882c.158.108.297.247.405.411.141.211.223.452.244.699l.032-.107c.182-.617.734-1.045,1.368-1.075-.142-.092-.268-.208-.371-.344-.178-.232-.282-.507-.306-.792-.004.02-.009.04-.014.059-.154.647-.713,1.106-1.359,1.148Z"/>
    <path class="st0" d="M24.925,126.704c-.606,0-1.242-.029-1.915-.088-2.37-.208-4.656-.81-6.439-1.698-.658-.328-.982-1.085-.764-1.789l.931-2.992c.135-.431.455-.778.874-.946.417-.167.89-.139,1.286.08,1.934,1.072,4.585,1.505,7.644,1.248.418-.035.818.102,1.124.376.308.274.488.663.5,1.074l.092,3.08c.023.772-.544,1.436-1.311,1.533-.641.081-1.311.122-2.021.122ZM19.073,122.73c1.244.454,2.693.766,4.198.898.697.061,1.34.083,1.944.074l-.004-.112c-2.268.042-4.334-.273-6.115-.936l-.023.076ZM26.068,120.426c-.152,0-.308-.023-.461-.073l-2.531-.817c-.391-.126-.712-.407-.891-.776-.145-.3-.184-.637-.116-.958-1.159-.262-2.402-.566-3.67-.899-.767-.202-1.244-.965-1.09-1.743l.582-2.931c.08-.403.322-.756.67-.976s.769-.288,1.168-.187c2.709.682,4.589,1.06,6.579,1.461l1.497.303c.412.084.77.338.986.7.216.361.27.797.148,1.2l-.201.674c-.419,1.404-.895,2.995-1.257,4.021-.217.615-.795,1.001-1.414,1.001ZM20.529,114.349c1.352.337,2.643.633,3.793.867.406.083.76.33.978.682.038.062.072.126.101.192.065-.215.131-.432.196-.649-1.589-.32-3.12-.63-5.067-1.093h0Z"/>
    <path class="st0" d="M23.444,143.386c-.548,0-1.05-.02-1.517-.061-2.11-.185-3.735-.782-4.832-1.774-.836-.757-1.79-2.14-1.589-4.432h0c.083-.949.41-1.856,1.018-2.811-.42-1.704-.683-3.933-.642-5.593.02-.76.604-1.386,1.36-1.457l2.897-.271c.424-.037.833.1,1.145.38.312.281.491.68.495,1.099.004.43.017.882.035,1.324.561-.307,1.124-.584,1.665-.818.389-.166.826-.163,1.209.009.384.172.678.498.81.897l.972,2.94c.248.75-.128,1.564-.86,1.861-1.993.809-3.386,1.971-3.788,2.551.384.089,1.219.186,3.051.149.43-.026.838.166,1.128.479.29.313.434.735.394,1.16l-.278,2.977c-.069.744-.676,1.324-1.423,1.359-.442.021-.857.031-1.249.031ZM18.495,137.381c-.101,1.154.302,1.664.614,1.946.592.536,1.657.886,3.08,1.01.327.028.68.044,1.064.049v-.008c-1.861-.056-3.083-.333-3.84-1.143-.521-.557-.745-1.283-.669-2.157.165-1.878,2.547-3.585,4.459-4.582l-.013-.038c-.625.346-1.243.733-1.801,1.132-.426.305-.979.366-1.462.16-.215-.092-.402-.231-.55-.403.065.287.137.557.212.802.139.456.052.951-.232,1.333-.539.722-.812,1.326-.863,1.899h0Z"/>
    <path class="st0" d="M25.014,159.904c-.479,0-1.019-.026-1.619-.079-1.466-.128-2.932-.389-3.825-.681-.717-.234-1.148-.963-1.008-1.704l.507-2.685c.065-.348.251-.659.521-.88-.149-.236-.231-.511-.232-.795l-.011-2.478c-.102-.003-.202-.007-.302-.01-.585,2.649-1.225,5.688-1.358,6.523-.065.405-.293.765-.63.998-.338.233-.757.318-1.156.234l-2.857-.594c-.791-.165-1.31-.924-1.174-1.72.12-.709.562-2.937,1.101-5.527-.404-.006-.789-.174-1.067-.467-.284-.3-.433-.703-.41-1.116l.155-2.806c.044-.791.695-1.411,1.487-1.417l.481-.004c.216-.001.419-.003.611-.004l.007-.03c.145-.636.229-1.006.286-1.243.19-.788.969-1.283,1.768-1.114l2.928.618c.397.084.743.325.96.668.216.343.284.76.188,1.154-.009.038-.018.076-.027.113.253.019.524.041.819.067.396.035.763.225,1.019.53s.38.699.345,1.095l-.198,2.266c.374.007.756.02,1.135.039-.208-.265-.323-.594-.321-.935.002-.431.004-1.277.002-2.285,0-.398.156-.78.438-1.062.281-.282.662-.44,1.061-.441l1.627-.002h.002c.171,0,.336.029.489.082.113-.028.23-.042.353-.043l1.591-.005h.005c.81,0,1.473.642,1.499,1.452.016.465.023,1.43.017,2.356-.006.817-.666,1.479-1.483,1.489l-1.646.019c-.027,0-.064,0-.098-.002.342.305.538.761.495,1.25l-.238,2.726c-.026.306-.146.593-.339.826.101.053.195.118.283.195.326.285.513.697.513,1.13l-.002,2.711c0,.711-.5,1.325-1.197,1.468-.396.082-.895.123-1.49.123ZM15.521,147.696c.174.093.33.221.458.378.225.277.341.622.335.973.022-.104.046-.206.068-.308.146-.647.697-1.117,1.349-1.167-.165-.094-.313-.219-.435-.371-.243-.306-.356-.692-.319-1.076l-.094.409c-.148.651-.707,1.119-1.362,1.162Z"/>
    <path class="st0" d="M20.585,176.022c-.546,0-1.047-.02-1.513-.061-2.11-.185-3.735-.782-4.832-1.774-.836-.757-1.79-2.14-1.589-4.432h0c.083-.95.41-1.857,1.019-2.812-.421-1.703-.684-3.931-.643-5.592.02-.76.604-1.386,1.36-1.457l2.897-.271c.427-.039.833.1,1.145.38.312.281.491.68.495,1.099.004.43.017.882.035,1.324.56-.307,1.124-.585,1.665-.818.386-.167.825-.163,1.209.008.384.173.678.499.81.898l.972,2.94c.248.75-.128,1.564-.86,1.861-1.993.808-3.387,1.971-3.787,2.551.383.089,1.228.182,3.051.15.452-.011.837.167,1.127.479.29.313.434.735.394,1.16l-.278,2.976c-.069.744-.676,1.323-1.422,1.359-.444.021-.861.031-1.254.031ZM15.64,170.017c-.101,1.154.302,1.664.614,1.946.592.536,1.657.886,3.08,1.01.327.028.681.045,1.064.049v-.008c-1.861-.056-3.083-.333-3.839-1.143-.521-.557-.745-1.283-.669-2.158.163-1.878,2.545-3.584,4.458-4.582l-.013-.038c-.625.346-1.242.733-1.8,1.132-.426.305-.979.365-1.461.161-.216-.092-.403-.232-.552-.404.066.286.138.556.212.801.14.457.053.952-.232,1.334-.538.722-.812,1.326-.863,1.899h0Z"/>
    <path class="st0" d="M19.675,192.859c-.386,0-.744-.015-1.083-.045-2.729-.239-4.22-1.434-5.146-2.931-.122.281-.238.56-.35.838-.308.767-1.176,1.141-1.942.837l-2.185-.86c-.378-.149-.68-.445-.836-.82-.155-.376-.152-.798.01-1.171.558-1.288,1.148-2.525,1.653-3.566.135-.278.345-.497.595-.642v-.01c.026-2.481.103-4.871.238-7.523.021-.406.206-.787.514-1.054.306-.267.7-.401,1.115-.363l.826.072c2.971.26,7.074.582,9.834.788.408.031.785.226,1.046.542.26.315.38.723.333,1.129-.122,1.037-.444,3.552-.785,5.908.505.097.945.452,1.13.968.175.489.505,1.441.745,2.324.207.759-.208,1.549-.95,1.81l-1.277.448.154,1.543c.083.821-.514,1.555-1.335,1.641-.877.092-1.631.138-2.304.138Z"/>
    <path class="st0" d="M20.015,208.417c-.313,0-.629-.098-.898-.299l-2.46-1.842c-.041-.031-.081-.064-.119-.1,0,.126,0,.243.003.35.008.418-.159.82-.46,1.109-.301.289-.713.436-1.126.417l-3.003-.173c-.794-.046-1.414-.703-1.414-1.498,0-.222,0-.446.004-.671-.047.004-.094.005-.144.005-.398-.006-.777-.17-1.055-.456l-1.99-2.054c-.284-.294-.437-.691-.422-1.1.016-.409.196-.793.502-1.065.312-.276.654-.574,1.012-.876-.172-.063-.332-.158-.472-.281-.308-.271-.492-.656-.509-1.065l-.109-2.685c-.017-.405.132-.8.411-1.094.279-.294.666-.462,1.072-.467.573-.006,1.497-.044,2.48-.116l.09-.793c.094-.812.824-1.465,1.638-1.387l2.957.276c.41.039.786.244,1.04.568.255.324.364.738.304,1.146-.056.376-.096.754-.18,1.685,1.823-.006,3.425.502,4.633,1.549,1.399,1.212,2.075,2.963,1.903,4.931-.159,1.808-1.039,3.695-2.547,5.46-.296.346-.717.525-1.142.525ZM13.555,204.967h.002c.035-1.241.116-2.807.23-4.392.043-.596.436-1.109.998-1.307.141-.049.278-.094.414-.134-.245-.052-.477-.165-.672-.333-.363-.315-.554-.786-.512-1.265.048-.543.087-.994.12-1.373-.096.445-.388.815-.78,1.018.036.028.071.057.105.088.344.314.521.771.481,1.235l-.056.632c-.041.458-.29.872-.675,1.123-.303.197-.693.481-1.135.821.251-.015.506.037.739.153.542.267.87.832.834,1.435-.046.773-.078,1.542-.096,2.299ZM19.715,204.818h0c.015-.023.03-.047.045-.07-.016.023-.03.047-.046.07ZM18.51,199.093c.754.275,1.299.752,1.632,1.284.54.861.72,2.145.042,3.609.3-.624.48-1.235.531-1.816.087-.998-.217-1.828-.879-2.402-.363-.314-.813-.541-1.326-.675ZM16.707,201.866c-.045.709-.082,1.403-.11,2.044,1.022-1.056,1.082-1.816,1.003-1.941-.039-.064-.33-.177-.893-.104Z"/>
    <path class="st0" d="M14.28,225.151c-.199,0-.403-.009-.612-.027-2.969-.26-4.366-2.73-4.175-4.922.03-.349.101-.695.208-1.03l-2.21-.494c-.437-.098-.807-.385-1.01-.783s-.217-.867-.039-1.277c.152-.353.307-.733.459-1.132-.214-.095-.404-.24-.555-.425-.257-.315-.374-.721-.325-1.125l.331-2.754c.097-.805.828-1.381,1.621-1.315.167.015.335.028.503.041.035-.191.07-.387.104-.588.134-.803.89-1.352,1.69-1.237l2.964.421c.411.058.78.285,1.019.625.228.326.316.729.248,1.119.035,0,.07.002.107.003.406.011.791.187,1.066.486.059.064.111.133.157.206.353-.275.824-.391,1.288-.275,1.101.274,2.109.569,4.317,1.262.769.241,1.21,1.047.998,1.825l-.667,2.454c-.108.4-.379.738-.746.933-.366.194-.798.228-1.19.092-.018-.006-.034-.012-.052-.018-.004.128-.009.254-.015.377.667.396,1.271.84,1.682,1.243.552.542.602,1.413.115,2.014l-1.803,2.228c-.259.32-.637.519-1.046.552-.233.021-.468-.018-.683-.104-.919,1.072-2.191,1.627-3.751,1.627ZM15.981,218.941c.174.123.321.283.431.471.145.248.213.53.202.812.161-.139.352-.245.562-.306.162-.047.327-.068.492-.058-.043-.021-.085-.042-.128-.063-.574-.278-.91-.888-.837-1.522,0-.002,0-.004,0-.006-.092.174-.219.331-.374.458-.107.088-.225.16-.349.214ZM13.56,220.068h0ZM13.893,219.831l.791.217c-.029-.039-.061-.075-.096-.108-.099-.093-.218-.152-.325-.161-.139-.016-.264.011-.37.052ZM12.992,215.967c-.019.059-.037.118-.056.176.274-.07.564-.12.869-.146l-.813-.03ZM9.773,212.999c.158.108.296.247.404.41.141.212.224.454.244.702.012-.037.022-.074.033-.11.182-.616.733-1.043,1.366-1.074-.142-.092-.269-.209-.374-.348-.176-.23-.278-.504-.302-.787-.005.019-.009.038-.014.058-.154.647-.712,1.106-1.358,1.148Z"/>
    <path class="st0" d="M7.109,238.384c-.623,0-1.204-.391-1.418-1.012-.83-2.409-1.104-4.573-.891-7.016h0c.096-1.098.288-2.266.606-3.674.088-.39.328-.729.667-.941.339-.211.748-.28,1.138-.189l2.834.664c.783.183,1.282.952,1.132,1.742-.224,1.171-.355,2.435-.382,3.565l.145-.021c.396-.051.798.056,1.115.301.316.245.521.607.57,1.004l.306,2.503c.087.71-.341,1.383-1.021,1.607-.746.245-1.513.489-2.273.731-.699.222-1.393.443-2.061.662-.155.05-.312.075-.467.075ZM7.924,229.485c-.059.394-.103.769-.135,1.132h0c-.135,1.544-.04,2.914.319,4.369.206-.065.412-.131.619-.197.099-.031.197-.063.296-.094-.229-.05-.443-.153-.628-.304-.312-.255-.509-.625-.545-1.027-.102-1.125-.072-2.49.073-3.879ZM6.295,230.487h.01-.01ZM16.378,236.357c-.334,0-.661-.111-.928-.321-.344-.271-.553-.678-.571-1.115-.058-1.356-.352-3.333-.808-5.421-.089-.408-.004-.835.235-1.178.239-.342.609-.57,1.023-.628l2.945-.411c.712-.095,1.394.321,1.626,1,.505,1.475.864,4.326.771,6.102-.036.686-.534,1.259-1.208,1.392l-2.796.551c-.097.019-.193.028-.29.028ZM17.323,230.446c.095.503.178.993.249,1.463-.056-.507-.13-1.012-.216-1.468l-.033.005Z"/>
    <path class="st0" d="M12.648,254.192c-.027,0-.054,0-.081-.002l-3.256-.176c-.398-.022-.771-.201-1.037-.498-.266-.297-.402-.688-.38-1.085.066-1.158.09-1.621.134-2.763.007-.183.048-.361.118-.527-.023-.124-.03-.25-.021-.378.091-1.304.306-2.139.85-2.894l-2.039-.958c-.663-.312-1.004-1.056-.807-1.762.651-2.329,2.606-3.877,5.23-4.142.53-.054,1.063-.059,1.583-.015,1.959.172,3.09,1.031,3.694,1.721.801.916,1.184,2.092,1.076,3.312-.127,1.457-1.052,2.823-2.355,3.479-.735.362-.899.514-.933.552.01.02-.006.318-.018.558l-.023.416c-.013.196-.062.381-.142.548.023.122.032.246.025.372-.045.787-.062,1.259-.084,1.848l-.036.955c-.017.401-.193.779-.49,1.049-.276.251-.637.39-1.009.39ZM12.682,244.67h.01-.01ZM11.947,243.337h0Z"/>
  </g>
  <g>
    <path class="st1" d="M50.32,9.815l-.67.628-1.941-1.779c2.291-2.005,3.453-3.312,4.834-5.668l2.328,1.288c-1.173,2.031-2.296,3.306-3.662,4.668l1.906.113c-.025.703-.332,5.863-.459,7.515l-2.763-.242c.093-1.474.29-4.765.427-6.524ZM54.697,13.704c.684.023,1.566.065,2.484.109.071-1.024.147-2.102.244-3.214-1.33-.08-2.535-.15-3.201-.172l.166-2.733c.777.014,1.981.083,3.275.16.096-1.094.21-2.187.322-3.261l2.786.171c-.111,1.075-.209,2.187-.306,3.299l3.031.265-.237,2.708c-.61-.054-1.741-.134-3.016-.246-.098,1.112-.173,2.19-.245,3.214l2.277.199-.236,2.708c-1.668-.146-5.764-.432-7.513-.476l.167-2.733Z"/>
    <path class="st1" d="M52.312,32.288c-1.185-.086-2.281-.164-3.198-.208l.094-1.69c.811.035,1.996.102,3.254.194l.042-.484c-1.601-.085-3.648-.229-4.856-.262l.079-1.529c1.027.036,3.129.184,4.909.285l.035-.395c-1.238-.108-2.531-.203-3.59-.296l.15-1.704c.879.077,2.189.173,3.588.296l.06-.681-3.462-.303c-.004-.778.066-2.615.132-3.568,1.401.105,3.015.247,3.661.303l.048-.557c-1.546-.099-3.038-.193-4.294-.285l.096-2.124c1.078.058,2.66.16,4.384.293.046-.321.069-.591.089-.806l2.689.235c-.017.197-.058.465-.084.77l4.488.338-.186,2.117c-1.31-.115-2.889-.235-4.506-.34l-.051.574,3.588.314c-.098.895-.311,2.503-.422,3.578l-3.498-.306-.058.664c1.454.109,2.8.227,3.642.3-.082.734-.133,1.326-.201,1.898.611.035,1.115.061,1.671.11l-.161,1.848c-.647-.039-1.132-.082-1.689-.112-.052.592-.126,1.236-.213,2.023l-3.551-.311c-.061.682-.093,1.257-.129,1.669l-2.673-.234c.034-.394.065-.952.123-1.615ZM53.008,24.323l.062-.717c-.357-.031-.719-.045-1.041-.073l-.025.702,1.004.088ZM56.145,30.834l.053-.61c-.322-.028-.664-.058-1.006-.07l-.053.61c.342.012.683.042,1.006.07ZM56.314,29.095l.053-.592-1.023-.089-.053.61c.34.03.701.043,1.023.072ZM56.65,24.642l.116-.713-1.022-.089-.062.717.969.085Z"/>
    <path class="st1" d="M46.904,41.823c.149-1.704.467-3.465.951-5.285l2.936.745c-1.097,3.646-1.305,8.092-.499,10.656l-2.986.661c-.484-2.103-.611-4.373-.401-6.777ZM52.183,47.4l.835-2.729c1.696.654,3.637.987,5.768,1.011l-.387,2.768c-1.528.119-4.396-.367-6.216-1.05ZM53.635,38.454c1.359.155,4.145.345,5.049.333l-.099,2.775c-.743.025-3.617-.172-5.318-.357l.368-2.751Z"/>
    <path class="st1" d="M44.959,58.692c5.311.248,10.135.67,13.365,1.151-.205,1.519-.463,2.4-.764,3.765l-2.484-.524c.098-.498.234-1.028.34-1.615-1.232-.162-2.576-.298-4.065-.428-.084.137-.167.256-.249.375,1.236.108,2.617.247,3.74.417-.385,1.918-2.367,4.33-4.186,5.291l-1.406-1.497c.324-.188.671-.429,1-.69-.254-.185-.508-.387-.813-.613l.853-1.064c.307.208.662.492.965.735.239-.25.463-.52.648-.792-.645-.075-1.271-.129-2.045-.179-.303.371-.605.724-.963,1.091l-1.574-1.222c.555-.548,1.156-1.237,1.694-2.002-.505-.026-1.027-.037-1.567-.065-.021.45-.045.936-.056,1.459l-2.503-.093c-.006-1.175,0-2.079.07-3.5ZM46.236,51.737c.684.042,1.439.072,2.23.123.021-.233.021-.45.037-.629l2.463.143c-.017.197-.018.415-.037.647.719.045,1.42.088,2.119.149.004-.252.022-.467.039-.665l2.475.235-.054.609c.862.058,1.652.127,2.28.182l-.175,1.991c-.718-.063-1.488-.13-2.279-.181l-.054.609-2.457-.215c.016-.179.049-.357.068-.572l-2.086-.128c0,.199-.016.396-.03.558l-2.446-.142c.014-.161.014-.36.031-.557-.736-.047-1.476-.076-2.194-.12l.069-2.037ZM46.512,54.581c4.397.348,9.08.74,10.514.883-.077.68-.314,2.774-.426,3.631-3.029-.283-7.119-.64-10.242-.896-.023-.562.088-2.45.154-3.619ZM49.507,57.12l.065-.753-.86-.076c-.004.253-.028.522-.03.757l.825.072ZM51.893,57.328l.068-.789-.717-.063c-.042.268-.065.537-.088.788l.736.064ZM54.476,57.554c.041-.268.083-.535.103-.769-.305-.026-.627-.055-.949-.101-.041.268-.064.537-.086.788l.933.082Z"/>
    <path class="st1" d="M44.186,71.036l2.602.228c.63.037,1.295.077,1.994.139.102-1.166.184-2.099.247-2.618l3.014.264c-.067.555-.147,1.47-.244,2.582,1.776.155,3.479.304,4.716.431l-.773,7.396-3.066-.268c-.466-.059-.986-.104-1.506-.15-.141,1.615-.246,3.015-.285,3.879l-3.014-.264c.043-.702.17-2.154.303-3.878-.502-.044-1.004-.088-1.471-.128l-2.961-.241c.046-1.351.307-5.359.445-7.371ZM46.848,75.95c.502.043,1.021.089,1.542.135.058-.663.099-1.329.154-1.974-.558-.031-1.097-.06-1.583-.085-.037.629-.077,1.294-.113,1.924ZM51.387,76.329c.574.05,1.13.099,1.668.146.079-.698.178-1.412.227-1.968-.555-.066-1.129-.117-1.738-.17-.059.664-.116,1.328-.156,1.993Z"/>
    <path class="st1" d="M42.591,91.135c.149-1.704.466-3.466.95-5.285l2.936.745c-1.097,3.646-1.305,8.092-.498,10.656l-2.986.661c-.485-2.103-.611-4.373-.401-6.776ZM47.868,96.712l.835-2.728c1.696.654,3.637.986,5.768,1.01l-.387,2.768c-1.528.119-4.396-.367-6.216-1.05ZM49.32,87.765c1.359.155,4.145.345,5.049.333l-.098,2.775c-.744.025-3.618-.172-5.318-.357l.367-2.752Z"/>
    <path class="st1" d="M40.768,109.081c.385-.888.764-1.903,1.109-2.975-.52-.045-1.004-.088-1.416-.124l.331-2.755c.61.053,1.222.089,1.831.143.143-.603.272-1.259.387-1.937l2.963.422c-.123.585-.262,1.134-.383,1.684.504.026,1.025.054,1.928.078l-.17,2.769c-.685-.023-1.405-.051-2.505-.093-.411,1.392-.803,2.569-1.15,3.442l-2.925-.654ZM47.701,109.362c.359.031.448.04.627.073.004-.469-.002-1.012-.012-1.519l2.918.111c.016.851-.016,1.625-.092,2.287.867.42,1.738,1.002,2.203,1.458l-1.803,2.228c-.268-.24-.657-.545-.998-.774-.046.105-.092.227-.137.313-.725,1.473-1.919,2.109-3.659,1.957-4.071-.356-3.729-6.544.952-6.134ZM48.064,112.032c-.318-.082-.532-.118-.729-.135-.627-.073-.986.112-1.022.524-.032.359.302.677.769.718.448.039.77-.33.982-1.107ZM49.041,106.443l.667-2.454c1.114.278,2.153.586,4.229,1.238l-.666,2.454c-.843-.291-2.182-.679-4.23-1.237Z"/>
    <path class="st1" d="M42.457,127.569c-.765.692-1.491,1.352-1.979,1.761l-1.814-1.984c.797-.653,3.107-2.674,4.09-3.582.022-.251.047-.521.068-.771-1.145.261-2.318.466-3.66.71l-.398-2.673c1.113-.119,2.822-.44,4.354-.794.111-.857.18-1.43.289-2.27l2.901.308c-.161,1.016-.355,2.409-.548,4.199,2.216-1.161,4.129-1.753,4.904-1.522l.551,1.15c-1.082,4.713-.78,6.222,1.262,6.437l-.381,2.913c-3.344-.419-4.63-2.863-4.033-7.004-1.06.341-1.902.683-2.606,1.073-.254,2.707-.351,4.849-.257,5.833l-2.904-.055c.036-1.244.092-2.504.162-3.727Z"/>
    <path class="st1" d="M40.306,145.559c.253-2.888,4.378-3.358,5.567-.833.067-.157.104-.37.128-.639.151-1.722-1.771-2.487-5.153-2.042l-.307-1.039c1.084-1.243,1.713-2.019,2.669-3.236-.859-.094-1.954-.189-2.942-.258l.201-2.711c.467.041.934.082,1.382.121,1.649.145,3.335.31,6.091.623-1.385,1.976-2.08,2.909-3.085,4.267,2.452.07,4.149,1.954,3.938,4.375-.245,2.798-2.288,4.463-5.158,4.211-2.026-.177-3.456-1.405-3.33-2.839ZM44.711,146.233c.078-1.511-1.92-1.614-2.061-.831-.064.537.288.838.787.918.464.076.952.065,1.273-.088Z"/>
    <path class="st1" d="M43.312,157.475c2.288-.74,3.737-1.191,3.733-1.969-.008-1.157-1.827-1.642-6.152-1.17l-.204-2.621c1.812-.258,3.353-.303,4.626-.191,3.354.293,4.892,1.729,4.946,3.577.009.109,0,.217-.012.343-.149,1.704-1.758,3.352-5.846,4.422l-1.092-2.391Z"/>
    <path class="st1" d="M41.877,168.081c-1.564-.083-3.502-.252-5.291-.463l.328-2.917c3.561.402,6.896.711,9.217.824l.551,1.981c-4.881,3.514-5.331,5.77-1.502,7.442l-2.203,2.266c-4.066-1.875-4.592-6.186-1.1-9.134Z"/>
    <path class="st1" d="M43.148,180.822l1.963-1.78c.678.729,2.438,2.924,2.768,3.911l-2.149,1.421c-.321-.661-2.053-2.981-2.581-3.552Z"/>
    <path class="st1" d="M28.114,10.222c.077-.879.459-1.731,1.155-2.665-.492-1.615-.816-4.102-.773-5.833l2.897-.271c.013,1.302.103,2.955.237,3.889,1.08-.773,2.375-1.509,3.558-2.021l.972,2.94c-2.53,1.026-4.71,2.805-4.807,3.917-.119,1.364.914,1.744,4.661,1.673l-.278,2.976c-1.07.051-1.883.034-2.564-.025-3.569-.312-5.295-1.873-5.058-4.582Z"/>
    <path class="st1" d="M31.484,24.176c2.287-.739,3.736-1.191,3.732-1.968-.007-1.158-1.826-1.642-6.15-1.171l-.205-2.621c1.812-.257,3.352-.303,4.626-.192,3.354.293,4.892,1.729,4.946,3.578.008.109,0,.216-.012.342-.149,1.704-1.758,3.353-5.846,4.423l-1.092-2.392Z"/>
    <path class="st1" d="M30.051,34.783c-1.566-.083-3.503-.252-5.292-.463l.327-2.917c3.562.402,6.896.712,9.219.825l.549,1.982c-4.88,3.513-5.33,5.769-1.5,7.442l-2.205,2.265c-4.064-1.874-4.592-6.186-1.098-9.133Z"/>
    <path class="st1" d="M24.68,54.859c-.688.012-1.268.016-1.613.04l.205-2.748c.453-.014,1.029,0,1.68.002.062-.5.126-1.02.209-1.554-.916-.062-1.475-.093-1.673-.092l.235-2.691c.432.02,1.223.071,1.868.127.075-.445.152-.908.245-1.352l2.912.381c-.09.408-.161.818-.231,1.208,1.381.121,2.349.224,2.739.294l-.233,2.673c-.338-.066-1.395-.176-2.901-.308-.061.483-.119.948-.176,1.394,1.172.03,1.783.066,2.195.102l-.126,2.682c-.647-.039-1.457-.073-2.304-.111-.086,1.601.24,2.208,1.245,2.296,1.399.122,2.071-.542,2.315-2.491l2.926.437c-.326,3.315-2.332,5.164-5.292,4.905l-.036-.003c-2.922-.274-4.347-1.953-4.189-5.193Z"/>
    <path class="st1" d="M25.242,76.935c.074-1.258.148-2.119.241-3.177-1.274-.094-2.496-.183-3.233-.229l.203-2.115c.664.058,1.582.102,2.533.186l-1.547-1.744.848-.811c-1.115-.062-2.194-.12-3.149-.149l.124-2.249c1.297.06,2.859.16,4.497.249-.004-.163.013-.36.03-.557-.809-.053-1.582-.084-2.25-.107l.049-1.387c.686.023,1.496.058,2.34.114l.051-.574c-1.062-.057-2.088-.111-2.953-.132l.047-1.984,3.096.162c.043-.285.064-.537.086-.788l2.733.167c-.022.251-.065.537-.089.806,1.132.081,2.207.175,3.088.233l-.26,1.947c-.861-.075-1.957-.153-3.035-.229l-.05.574c.897.061,1.759.136,2.494.2l-.103,1.383c-.736-.064-1.615-.141-2.531-.204l-.048.557c1.726.115,3.378.223,4.707.321l-.214,2.241c-1.901-.167-4.11-.323-6.25-.457l-.709.662.481.494c.376-.365.71-.679,1.123-1.059l1.372,1.042c-.574.583-1.068,1.063-1.465,1.462.627.055,1.257.092,1.812.141-.058-.366-.102-.696-.121-.878l2.13-.175c.058.583.346,2.868.431,3.544l-2.111.176c-.01-.109-.047-.293-.08-.531-.36-.013-.846-.056-1.419-.106-.089,1.022-.159,1.812-.248,3.25l-2.651-.269ZM21.678,75.937c.218-.631.537-1.381.754-2.012l2.006.627c-.216.614-.518,1.383-.754,2.013l-2.006-.627ZM29.525,75.069l2.135-.229c.069.656.176,1.298.245,1.955l-2.118.248-.262-1.975Z"/>
    <path class="st1" d="M24.396,86.598c-1.324-.152-2.725-.256-4.057-.318-.154,2.173-.352,5.048-.479,6.7l-2.098-.184c.108-2.069.44-6.902.596-9.093.646.056,1.148.1,1.886.146-.026-.526-.042-.979-.046-1.54l-.776-.014.126-2.465c.702.025,1.496.04,2.307.075-.047-.51-.117-1.148-.201-1.626l2.209-.042c.074.585.127,1.222.152,1.766.882.042,1.708.096,2.373.136l-.23,2.438c-.252-.022-.522-.027-.791-.051-.127.622-.225,1.119-.366,1.703.556.048,1.077.094,1.56.155.594-1.629,1.508-3.809,2-5.103l2.338.963c-.164.438-.375.979-.625,1.573,1.133.062,2.301.146,3.234.21l-.272,2.706c-1.132-.081-2.659-.178-4.007-.278-.229.559-.418,1.066-.559,1.434l-1.923-.747c-.211,2.205-.7,6.752-.88,8.4l-2.188-.191c.222-1.915.549-5.049.717-6.752ZM20.561,88.92c.359.031.664.058.971.067.017-.198.015-.379.028-.54l-.969-.084.11-1.256.95.083c-.004-.163.011-.324.024-.485l1.166.102-.043.484c.271.005.595.034.971.067l-.147,1.271-.915-.08c.003.181-.013.36-.027.521l1.112.098c-.085.769-.31,2.72-.347,3.133l-3.014-.264c.063-1.748.085-2.415.129-3.116ZM22.389,90.96c.018-.215.055-.429.072-.626-.27-.023-.484-.042-.701-.043-.016.18-.016.378-.035.611l.664.058ZM23.136,84.066c.177-.581.3-1.148.397-1.646-.506-.008-1.027-.036-1.514-.06-.024.485,0,1.048.057,1.631.359.013.719.045,1.06.074ZM26.668,91.822c.52-.568.984-1.124,1.414-1.701-.495-.532-.97-1.097-1.426-1.661l1.736-1.673c.344.409.688.801,1.053,1.176.455-.846.86-1.768,1.203-2.786l2.212.952c-.456,1.28-.993,2.462-1.63,3.544.538.463,1.062.871,1.574,1.222l-1.346,2.16c-.564-.375-1.123-.803-1.66-1.266-.449.575-.932,1.129-1.447,1.663l-1.684-1.63Z"/>
    <path class="st1" d="M17.802,103.097c.386-.888.763-1.903,1.11-2.976-.521-.045-1.005-.088-1.418-.124l.332-2.754c.609.054,1.222.089,1.831.142.144-.602.272-1.259.386-1.936l2.964.421c-.124.586-.263,1.134-.382,1.684.504.026,1.025.054,1.927.078l-.17,2.769c-.685-.023-1.405-.05-2.505-.093-.41,1.392-.803,2.569-1.15,3.442l-2.925-.654ZM24.736,103.379c.357.031.448.039.625.072.006-.469,0-1.012-.012-1.519l2.919.111c.016.851-.016,1.625-.092,2.287.867.42,1.738,1.002,2.204,1.458l-1.804,2.228c-.268-.241-.657-.546-.998-.775-.046.105-.093.228-.137.314-.725,1.473-1.919,2.109-3.659,1.957-4.072-.356-3.729-6.543.953-6.134ZM25.099,106.049c-.318-.082-.532-.119-.729-.136-.626-.073-.986.112-1.021.525-.031.358.302.677.769.718.448.039.771-.33.982-1.107ZM26.076,100.459l.666-2.454c1.114.278,2.154.586,4.229,1.238l-.667,2.454c-.842-.291-2.182-.679-4.229-1.238Z"/>
    <path class="st1" d="M17.239,123.575l.931-2.992c2.207,1.223,5.109,1.713,8.496,1.431l.092,3.08c-1.097.139-2.289.144-3.617.027-2.17-.19-4.273-.736-5.901-1.546ZM23.537,118.108c.165-.438.353-.927.486-1.421-1.562-.318-3.387-.749-5.242-1.236l.582-2.931c3.413.859,5.53,1.243,8.141,1.779-.459,1.532-1.027,3.471-1.436,4.627l-2.531-.817Z"/>
    <path class="st1" d="M17.001,137.25c.077-.879.459-1.731,1.154-2.664-.491-1.615-.815-4.102-.772-5.833l2.897-.271c.013,1.302.103,2.955.237,3.889,1.08-.773,2.374-1.509,3.558-2.02l.972,2.94c-2.53,1.026-4.71,2.805-4.808,3.917-.119,1.363.915,1.743,4.662,1.673l-.278,2.977c-1.071.05-1.883.034-2.564-.026-3.569-.312-5.295-1.873-5.058-4.582Z"/>
    <path class="st1" d="M13.348,156.283c.148-.873.789-4.07,1.467-7.264-.615,0-1.228-.017-1.824-.015l.155-2.806c.958-.007,1.663-.018,2.276,0,.324-1.418.471-2.074.557-2.428l2.928.618c-.168.69-.312,1.31-.436,1.877.723.009,1.531.062,2.554.151l-.24,2.744c-1.007-.052-2.034-.087-2.938-.095-.652,2.907-1.481,6.811-1.642,7.81l-2.857-.594ZM20.035,157.718l.507-2.685c1.589.428,4.528.722,5.661.567l-.002,2.711c-.552.114-1.492.122-2.676.019-1.363-.119-2.734-.366-3.49-.613ZM20.846,150.324c1.596-.059,3.771.059,5.145.27l-.238,2.726c-1.505-.149-3.752-.273-4.895-.247l-.012-2.749ZM24.636,145.631l1.627-.002c.03.69.007,1.772-.002,2.296h-1.627c.002-.432.004-1.282.002-2.294ZM27.109,145.667l1.591-.005c.015.453.022,1.394.016,2.297l-1.646.019c.021-.667.018-1.661.039-2.31Z"/>
    <path class="st1" d="M14.146,169.885c.077-.879.459-1.731,1.155-2.665-.492-1.615-.816-4.102-.773-5.833l2.897-.271c.013,1.302.103,2.955.238,3.889,1.079-.773,2.374-1.51,3.557-2.021l.972,2.94c-2.53,1.026-4.71,2.805-4.807,3.917-.119,1.364.914,1.743,4.661,1.674l-.278,2.976c-1.07.051-1.883.034-2.564-.025-3.569-.312-5.295-1.873-5.058-4.582Z"/>
    <path class="st1" d="M9.519,189.303c.498-1.149,1.03-2.277,1.627-3.508l2.169.822c-.617,1.266-1.149,2.394-1.611,3.546l-2.185-.86ZM12.127,177.043l.826.072c2.977.26,7.088.583,9.854.79-.146,1.252-.594,4.719-1.011,7.412l-9.905-.812c.022-2.113.082-4.457.236-7.462ZM13.692,186.632l2.66-.653c.803,2.601,1.349,2.974,5.198,2.552l.271,2.698c-1.222.129-2.237.167-3.099.091-3.121-.273-4.172-1.901-5.03-4.688ZM15.936,182.49l.081-.932c-.521-.045-1.024-.072-1.564-.101l-.024.901,1.508.132ZM16.125,180.32l.075-.861c-.574-.05-1.132-.081-1.634-.125-.027.305-.033.575-.059.862.54.029,1.078.076,1.617.123ZM17.672,185.986l2.243-.653c.265.692.519,1.51.729,2.214l-2.163.751c-.254-.799-.51-1.599-.809-2.312ZM19.577,182.791l.131-.874c-.465-.059-.93-.117-1.396-.158-.009.306-.037.629-.046.935.466.041.916.062,1.311.097ZM20.004,179.774c-.393-.052-.913-.098-1.506-.132-.042.268-.068.573-.094.859.502.044.984.104,1.486.148.047-.321.092-.624.113-.875ZM20.968,186.112l2.262-.652c.247.69.519,1.509.71,2.212l-2.145.753c-.272-.801-.51-1.6-.827-2.313Z"/>
    <path class="st1" d="M12.153,202.578c-.587.509-1.222,1.141-1.733,1.638l-1.99-2.054c1.332-1.185,2.986-2.522,3.963-3.159.018-.197.037-.413.056-.628-1.229.217-2.556.3-3.485.382l-.109-2.685c.923-.01,2.467-.091,3.816-.227.078-.698.156-1.378.236-2.076l2.957.276c-.09.607-.137,1.145-.354,3.62,3.932-.921,7,1.191,6.699,4.635-.131,1.489-.886,3.085-2.193,4.616l-2.46-1.842c2.929-2.906,1.513-5.724-2.272-4.392-.17,2.353-.266,4.676-.243,5.872l-3.003-.173c0-1.247.041-2.544.116-3.804Z"/>
    <path class="st1" d="M7.818,217.214c.385-.888.763-1.903,1.109-2.976-.521-.045-1.004-.088-1.417-.124l.331-2.754c.609.054,1.222.089,1.831.142.144-.602.273-1.259.387-1.936l2.964.421c-.124.585-.263,1.134-.383,1.683.504.027,1.025.055,1.928.079l-.17,2.769c-.686-.024-1.406-.051-2.505-.093-.411,1.392-.804,2.569-1.151,3.441l-2.924-.653ZM14.752,217.496c.358.031.449.039.626.072.005-.47,0-1.013-.012-1.52l2.919.111c.016.851-.016,1.625-.092,2.288.867.419,1.738,1.001,2.203,1.458l-1.803,2.228c-.269-.241-.657-.546-.998-.774-.046.105-.094.227-.137.313-.725,1.473-1.92,2.109-3.66,1.957-4.071-.356-3.729-6.543.953-6.133ZM15.115,220.166c-.318-.082-.533-.119-.73-.136-.625-.073-.985.112-1.021.525-.031.358.303.677.77.718.447.04.77-.33.982-1.107ZM16.092,214.575l.666-2.453c1.115.278,2.154.586,4.23,1.237l-.667,2.454c-.843-.291-2.182-.679-4.229-1.238Z"/>
    <path class="st1" d="M6.295,230.487c.091-1.04.279-2.163.575-3.474l2.834.664c-.366,1.92-.497,4.024-.359,5.554.639-.071,1.134-.154,1.792-.241l.306,2.503c-1.433.471-2.938.936-4.333,1.392-.764-2.218-1.011-4.155-.814-6.397ZM15.537,229.18l2.945-.411c.446,1.304.775,3.954.691,5.537l-2.796.551c-.06-1.396-.351-3.429-.841-5.677Z"/>
    <path class="st1" d="M12.682,244.67c.828-.579.713-1.13.567-1.324-.547-.771-2.64-.394-3.071,1.431l-2.604-1.223c.606-2.169,2.496-2.908,3.937-3.053.475-.049.908-.047,1.303-.013,2.512.22,3.54,1.882,3.406,3.407-.078.897-.646,1.823-1.535,2.27-1.87.921-1.699,1.243-1.797,2.771l-3.266-.068c.139-1.994.461-2.382,3.061-4.197ZM9.527,249.726l3.242.139c-.066,1.169-.073,1.656-.121,2.827l-3.256-.176c.066-1.169.09-1.637.135-2.79Z"/>
  </g>
</svg>