<?xml version="1.0" encoding="UTF-8"?>
<svg id="_レイヤー_1" data-name="レイヤー_1" xmlns="http://www.w3.org/2000/svg" version="1.1" viewBox="0 0 65 305">
  <!-- Generator: Adobe Illustrator 29.0.1, SVG Export Plug-In . SVG Version: 2.1.0 Build 192)  -->
  <defs>
    <style>
      .st0 {
        fill: #fff;
      }

      .st1 {
        fill: #3c291a;
      }
    </style>
  </defs>
  <g>
    <path class="st0" d="M60.995,18.922c-.3,0-.6-.089-.858-.27l-2.163-1.508c-.097-.068-.185-.146-.262-.232-1.365.765-2.858,1.138-4.369,1.039-1.26-.06-2.4-.586-3.191-1.482-.791-.897-1.172-2.098-1.072-3.381.16-1.831,1.028-3.407,2.437-4.539-.28-.279-.439-.658-.441-1.054l-.016-2.712c-.005-.824.656-1.498,1.48-1.509.376-.005.802-.004,1.252,0,.062-.382.269-.727.578-.96.318-.24.718-.343,1.113-.288l2.678.379c.418.059.791.292,1.028.64.083.121.146.251.19.388.706.036,1.372.083,1.836.124.806.07,1.411.768,1.367,1.576l-.146,2.699c-.007.126-.03.25-.067.369.366.266.7.565.996.896,1.047,1.168,1.547,2.677,1.409,4.249-.187,2.134-1.174,3.954-2.857,5.263-.271.21-.596.316-.921.316ZM55.92,13.344c-.01.216-.019.436-.026.66-.006.189-.048.37-.119.537.36-.157.711-.357,1.051-.599-.092-.02-.183-.049-.271-.087-.261-.111-.477-.29-.634-.511ZM54.394,13.953h.01-.01ZM59.796,10.175c.059.148.092.303.102.458.168-.072.35-.115.537-.122-.196-.125-.409-.238-.639-.336ZM55.337,9.926s.006.003.008.005c.182.114.332.263.447.435.071-.442.335-.816.698-1.039-.044-.038-.085-.079-.124-.123-.069-.077-.129-.159-.18-.247-.139.422-.448.792-.85.968ZM55.637,6.208c.119.074.229.165.326.271.104.116.19.247.254.386.179-.332.478-.585.835-.708-.133-.081-.254-.182-.358-.302-.098-.113-.177-.238-.236-.371-.172.335-.466.595-.82.724Z"/>
    <path class="st0" d="M61.351,26.214c-.132,0-.265-.018-.395-.053-.417-.114-.765-.402-.954-.79-.219-.45-1.811-2.626-2.333-3.189-.272-.294-.415-.685-.398-1.085.018-.4.194-.776.491-1.046l1.963-1.78c.607-.551,1.547-.512,2.106.09.412.443,2.604,3,3.091,4.458.215.644-.029,1.352-.596,1.726l-2.148,1.421c-.247.164-.536.249-.827.249Z"/>
    <path class="st0" d="M49.594,40.167c-.623,0-1.204-.391-1.418-1.012-.83-2.408-1.104-4.572-.891-7.017h0c.095-1.09.287-2.257.605-3.673.088-.39.328-.729.667-.942.34-.213.748-.28,1.139-.189l2.834.664c.783.183,1.282.952,1.132,1.742-.224,1.171-.355,2.435-.382,3.565l.146-.021c.396-.052.797.057,1.114.302.316.245.521.606.57,1.004l.306,2.502c.087.71-.341,1.383-1.021,1.606-.755.248-1.528.494-2.296.738-.691.22-1.378.438-2.039.655-.155.05-.312.075-.467.075ZM50.407,31.275c-.058.393-.103.765-.134,1.125h0c-.135,1.546-.04,2.915.319,4.369.198-.063.397-.126.598-.19.105-.034.212-.067.317-.101-.229-.05-.443-.153-.628-.304-.312-.255-.509-.625-.545-1.027-.101-1.124-.072-2.485.072-3.872ZM48.779,32.269h.01-.01ZM58.862,38.14c-.334,0-.661-.111-.928-.322-.344-.271-.553-.678-.571-1.115-.057-1.351-.351-3.326-.808-5.42-.089-.408-.004-.835.235-1.178.238-.342.609-.57,1.023-.627l2.945-.412c.703-.092,1.394.32,1.626,1,.505,1.476.864,4.328.77,6.103-.037.686-.534,1.258-1.208,1.391l-2.795.551c-.097.019-.193.028-.29.028ZM59.807,32.228c.094.5.177.986.248,1.453-.056-.503-.13-1.004-.215-1.457l-.033.004Z"/>
    <path class="st0" d="M55.585,52.453c-.576,0-1.116-.333-1.364-.877l-1.092-2.392c-.178-.39-.181-.836-.009-1.228.173-.392.505-.691.912-.822l.14-.045c.336-.108.695-.225,1.043-.341-.695-.014-1.654.022-2.978.166-.404.044-.807-.078-1.119-.336-.312-.259-.507-.633-.538-1.038l-.205-2.621c-.062-.79.5-1.491,1.284-1.602,1.834-.261,3.504-.33,4.968-.201,5.736.501,6.283,3.975,6.314,5.027.011.108.003.292-.016.504-.161,1.845-1.499,4.327-6.961,5.757-.127.033-.254.049-.38.049ZM58.883,44.748s.009.007.013.011c.531.473.826,1.121.831,1.823,0,.199-.02.383-.06.555.156-.241.247-.488.27-.738l.01-.125c-.022-.715-.464-1.199-1.063-1.526Z"/>
    <path class="st0" d="M55.406,69.785c-.218,0-.438-.048-.646-.147l-2.725-1.304c-.374-.179-.657-.504-.782-.899-.125-.395-.082-.824.12-1.186.563-1.007,1.029-2.227,1.374-3.584-.275-.008-.553-.013-.828-.015-.496-.003-.935-.247-1.205-.62.019,1.11.103,2.215.251,3.42.097.789-.438,1.517-1.221,1.659l-2.884.525c-.399.074-.818-.021-1.149-.261-.331-.24-.55-.606-.605-1.011-.439-3.221-.526-5.161-.329-7.411h0c.102-1.157.258-2.219.478-3.25.163-.773.899-1.287,1.681-1.173l2.873.414c.813.118,1.382.868,1.273,1.683-.028.211-.055.417-.08.621.264-.201.567-.305.925-.309.403.003.873.013,1.468.029-.004-.333-.018-.669-.041-1.009-.027-.407.113-.808.388-1.11.274-.302.661-.479,1.069-.49l3.007-.081c.793-.042,1.515.629,1.539,1.457.017.581.026,1.099.026,1.569.142.016.284.032.429.049.399.046.788.254,1.035.572s.379.724.325,1.123l-.36,2.68c-.107.796-.834,1.359-1.618,1.294-.121-.011-.246-.021-.375-.03-.462,2.228-1.174,4.28-2.085,5.999-.269.506-.787.798-1.326.798ZM54.692,66.279h.003c.069-.165.138-.333.203-.505-.066.171-.136.34-.206.505ZM47.765,59.211h0c-.103,1.18-.119,2.249-.034,3.529-.059-1.523-.004-3.018.165-4.712-.052.383-.095.777-.131,1.184ZM55.326,59.936c.158.091.3.211.417.356.238.294.354.666.331,1.04.009-.052.017-.105.025-.157.091-.576.501-1.029,1.028-1.197-.481-.268-.797-.792-.77-1.379.006-.134.011-.273.015-.417-.007.143-.016.287-.024.431-.042.625-.461,1.136-1.022,1.323Z"/>
    <path class="st0" d="M51.574,86.287c-.2,0-.405-.009-.614-.027-1.708-.149-3.079-1.075-3.762-2.539-.496-1.064-.556-2.303-.204-3.413l-2.212-.494c-.437-.097-.807-.385-1.01-.784s-.217-.868-.039-1.278c.155-.356.309-.734.46-1.131-.215-.095-.405-.24-.557-.426-.256-.315-.373-.722-.324-1.125l.332-2.754c.098-.805.829-1.386,1.621-1.314.167.015.335.028.502.041.036-.19.07-.387.104-.59.137-.802.889-1.35,1.69-1.235l2.963.421c.411.058.779.284,1.018.624.229.326.317.729.249,1.121.035,0,.07.002.107.003.406.011.791.187,1.065.486.059.064.111.133.158.206.351-.276.82-.396,1.291-.276,1.113.278,2.121.573,4.314,1.262.769.241,1.21,1.047.998,1.825l-.667,2.454c-.108.4-.379.738-.745.932-.368.194-.8.228-1.19.092l-.053-.018c-.004.128-.009.254-.015.378.667.396,1.271.839,1.682,1.242.553.542.603,1.414.116,2.015l-1.804,2.229c-.259.319-.638.519-1.047.551-.238.019-.468-.019-.68-.104-.918,1.071-2.189,1.626-3.75,1.626ZM53.272,80.077c.175.124.322.284.432.472.144.248.212.529.201.811.161-.139.352-.245.562-.306.162-.047.329-.066.492-.058-.043-.021-.085-.042-.128-.063-.574-.277-.91-.888-.837-1.521,0-.002,0-.004,0-.006-.093.174-.219.331-.375.458-.106.088-.224.159-.348.213ZM50.85,81.204h0ZM51.183,80.967l.794.218c-.113-.156-.269-.257-.423-.27-.141-.016-.265.012-.371.052ZM51.951,79.686s0,0,.002,0l.085-.99-.087.99ZM50.283,77.104c-.02.061-.038.121-.057.18.283-.073.579-.123.885-.149l-.828-.03ZM47.064,74.135c.158.108.296.247.404.41.141.212.224.454.244.702.012-.037.022-.074.033-.11.184-.622.744-1.051,1.384-1.074-.144-.092-.271-.209-.376-.346-.178-.234-.289-.513-.314-.801-.006.024-.012.048-.017.072-.155.646-.713,1.104-1.358,1.146Z"/>
    <path class="st0" d="M44.4,99.521c-.623,0-1.204-.392-1.418-1.012-.829-2.408-1.104-4.572-.89-7.017.096-1.099.288-2.266.606-3.673.088-.39.328-.729.667-.941.339-.212.751-.28,1.138-.189l2.833.664c.783.184,1.282.952,1.132,1.742-.224,1.17-.355,2.434-.381,3.564l.144-.02c.396-.054.799.056,1.114.301.317.245.522.607.571,1.004l.306,2.503c.087.71-.341,1.383-1.021,1.607-.758.249-1.537.497-2.309.742-.688.219-1.369.436-2.026.65-.154.051-.312.075-.466.075ZM45.214,90.638c-.058.388-.102.757-.133,1.115h0c-.135,1.545-.04,2.915.318,4.37.194-.062.389-.124.583-.186.111-.036.222-.071.333-.106-.229-.05-.443-.153-.628-.304-.312-.255-.509-.625-.545-1.027-.101-1.122-.073-2.48.071-3.862ZM43.587,91.623h.01-.01ZM53.669,97.493c-.334,0-.661-.112-.929-.322-.344-.271-.552-.678-.57-1.115-.057-1.35-.351-3.326-.808-5.419-.089-.408-.004-.835.235-1.178.238-.342.609-.57,1.023-.628l2.946-.411c.703-.095,1.393.32,1.626,1,.504,1.473.863,4.325.77,6.103-.036.686-.534,1.259-1.208,1.392l-2.796.55c-.097.019-.193.028-.29.028ZM54.614,91.582c.095.505.178.996.25,1.467-.056-.508-.13-1.015-.216-1.471l-.034.004Z"/>
    <path class="st0" d="M49.84,115.445c-.03,0-.062,0-.092-.003l-3.488-.214c-.825-.051-1.453-.758-1.405-1.583.035-.618.072-1.096.11-1.578.035-.457.071-.917.106-1.514.019-.322.141-.627.345-.873-.073-.199-.104-.413-.089-.628.176-2.38.514-5.552.821-7.712.112-.785.816-1.349,1.608-1.283l3.644.3c.424.035.812.248,1.07.586.257.338.359.769.281,1.187-.366,1.944-.86,4.792-1.141,7.324-.029.26-.123.498-.265.699.123.234.187.503.17.787l-.069,1.128c-.04.615-.075,1.158-.108,1.941-.018.402-.196.781-.495,1.05-.276.249-.634.385-1.004.385ZM47.953,112.326l.47.029c.002-.033.004-.065.006-.097l-.468-.029-.006.072c0,.008,0,.017-.002.025ZM48.446,107.724l.352.013c.206-1.559.465-3.147.707-4.525l-.572-.047c-.178,1.422-.353,3.059-.486,4.559Z"/>
    <path class="st0" d="M40.639,17.213c-.017,0-.032,0-.049,0-1.631-.052-3.564-.128-5.533-.301-1.368-.12-2.4-.574-3.077-1.343,0,.007,0,.015-.002.021-.03.399-.22.77-.525,1.029-.305.258-.694.387-1.101.35l-2.583-.226c-.811-.071-1.417-.775-1.366-1.587.063-1.03.2-3.014.319-4.74l-1.812-1.539c-.318-.271-.51-.663-.527-1.081-.017-.418.142-.825.437-1.121,2.043-2.049,3.044-3.653,4.178-5.897.372-.737,1.273-1.035,2.01-.665l2.32,1.161c.226.113.411.275.548.467l1.765.154c.084-.145.192-.276.322-.388.307-.262.708-.388,1.106-.354l2.349.206c.825.072,1.436.799,1.363,1.625-.037.423-.08.921-.131,1.469.526.017,1.075.04,1.654.07.408.021.79.208,1.058.518s.397.715.358,1.122c-.249,2.628-.564,4.464-1.055,6.139-.062.213-.168.402-.305.56.003.064.002.128-.003.192l-.225,2.782c-.063.781-.716,1.379-1.494,1.379ZM33.46,7.322c.119.069.229.154.327.255.101.104.185.222.251.348.156-.354.445-.634.802-.781-.118-.074-.226-.165-.319-.271-.095-.107-.174-.227-.233-.354-.158.367-.457.657-.827.803ZM37.204,7.279c.118.075.227.166.32.272.021.024.042.048.062.074.159-.196.366-.35.603-.445-.112-.072-.215-.16-.306-.261-.022-.025-.044-.05-.063-.076-.164.193-.375.345-.615.436ZM40.549,7.45s.01.007.015.011c0-.003,0-.007,0-.011-.005,0-.011,0-.016,0Z"/>
    <path class="st0" d="M36.965,31.925c-.33,0-.66-.108-.934-.326l-2.248-1.787c-.305-.243-.502-.593-.553-.975-1.557,1.555-3.41,2.229-5.217,1.745-2.477-.667-3.93-2.773-3.702-5.367.174-1.992,1.233-3.881,2.907-5.183,1.69-1.315,3.836-1.936,6.036-1.74,2.167.189,4.104,1.051,5.456,2.426,1.452,1.478,2.149,3.468,1.962,5.603-.18,2.054-1.154,3.92-2.744,5.253-.278.233-.621.351-.964.351ZM36.644,22.898c.56.654.902,1.445.993,2.315.104.999-.14,2.031-.686,2.987.412-.638.665-1.368.732-2.142.107-1.227-.252-2.317-1.04-3.161ZM32.618,21.26c.225.107.422.27.571.477.158.219.251.473.276.734.175-.294.446-.523.774-.643.229-.084.47-.109.71-.079-.592-.247-1.252-.407-1.957-.468-.125-.011-.25-.018-.375-.021Z"/>
    <path class="st0" d="M33.375,48.783c-.547,0-1.049-.021-1.518-.062-2.11-.185-3.735-.782-4.832-1.774-.836-.757-1.79-2.14-1.589-4.432h0c.083-.95.41-1.857,1.019-2.812-.421-1.705-.684-3.933-.643-5.592.02-.76.604-1.386,1.36-1.457l2.897-.271c.424-.037.833.1,1.145.38.312.281.491.68.495,1.099.004.429.017.881.036,1.324.559-.307,1.123-.584,1.664-.818.388-.167.825-.163,1.209.009s.678.498.81.897l.972,2.94c.248.75-.128,1.564-.86,1.861-1.993.808-3.386,1.971-3.787,2.551.384.089,1.229.186,3.05.15.01,0,.02,0,.028,0,.417,0,.815.173,1.1.479.29.313.434.735.394,1.16l-.278,2.976c-.069.744-.676,1.323-1.422,1.359-.441.021-.856.031-1.249.031ZM28.425,42.777c-.101,1.154.302,1.664.614,1.946.592.536,1.657.886,3.08,1.01.328.028.681.045,1.064.049v-.008c-1.861-.056-3.084-.333-3.84-1.144-.521-.557-.745-1.283-.668-2.158.163-1.877,2.545-3.583,4.458-4.58l-.013-.038c-.625.346-1.242.733-1.799,1.132-.426.306-.981.366-1.462.161-.216-.092-.403-.231-.551-.403.065.286.137.556.212.802.139.457.052.951-.233,1.333-.538.722-.812,1.325-.863,1.898h0Z"/>
    <path class="st0" d="M32.024,64.449c-.606,0-1.242-.029-1.915-.088-2.37-.208-4.656-.81-6.439-1.698-.658-.328-.982-1.085-.764-1.789l.931-2.992c.135-.431.455-.778.874-.946.418-.168.891-.14,1.286.08,1.934,1.072,4.583,1.503,7.644,1.248.42-.033.816.102,1.124.375.307.274.488.663.5,1.074l.093,3.08c.023.772-.544,1.436-1.311,1.533-.641.081-1.312.122-2.022.122ZM26.173,60.474c1.244.454,2.693.766,4.198.898.698.061,1.348.083,1.944.074l-.003-.112c-2.282.045-4.333-.273-6.116-.936l-.023.076ZM33.168,58.17c-.152,0-.308-.023-.461-.073l-2.53-.817c-.391-.126-.713-.407-.891-.776-.145-.3-.184-.637-.116-.958-1.159-.262-2.402-.566-3.671-.899-.767-.202-1.244-.965-1.09-1.743l.582-2.931c.08-.403.322-.756.67-.976.348-.22.768-.287,1.168-.187,2.707.682,4.585,1.06,6.573,1.459l1.503.305c.412.084.77.338.986.7.216.361.27.797.148,1.2l-.21.704c-.416,1.394-.887,2.973-1.248,3.993-.217.614-.795,1-1.414,1ZM27.629,52.094c1.352.337,2.643.633,3.793.867.406.083.76.33.978.682.038.062.072.126.101.193.065-.215.131-.433.196-.65-1.589-.32-3.12-.629-5.067-1.093h0Z"/>
    <path class="st0" d="M26.181,80.928c-.062,0-.124,0-.187,0-.737-.007-1.361-.549-1.47-1.278l-.41-2.747c-.064-.428.06-.862.34-1.192.099-.117.214-.216.341-.296-.504-.103-.936-.462-1.114-.973l-.419-1.194c-.175-.497-.076-1.049.261-1.454.368-.444.686-.827.97-1.172-.022,0-.046-.002-.068-.003-.412-.018-.799-.204-1.069-.516s-.4-.722-.358-1.132l.282-2.813c.08-.794.783-1.385,1.563-1.349,2.015.097,4.294.248,6.098.406.619.054,1.145.101,1.555.156.513.069.953.396,1.167.868.214.471.169,1.018-.116,1.449-.808,1.216-1.37,2.047-1.918,2.826.663.312,1.241.741,1.705,1.274.869,1,1.282,2.314,1.16,3.704-.179,2.04-1.501,5.439-8.312,5.439ZM27.617,71.541c-.163.2-.332.407-.514.627.244-.014.479-.02.699-.017-.017-.03-.032-.061-.048-.092-.078-.166-.124-.342-.138-.519ZM28.332,68.019c.234.153.427.373.547.638.056.124.094.252.114.382.213-.298.423-.599.646-.924-.423-.033-.861-.065-1.308-.097Z"/>
    <path class="st0" d="M31.377,95.797c-.33,0-.66-.108-.934-.326l-2.248-1.787c-.305-.242-.502-.593-.553-.976-1.557,1.555-3.405,2.232-5.217,1.746-2.478-.668-3.93-2.775-3.702-5.368.174-1.992,1.233-3.881,2.906-5.182,1.691-1.315,3.836-1.939,6.037-1.74,2.167.189,4.104,1.051,5.455,2.426,1.453,1.478,2.15,3.468,1.963,5.603-.18,2.053-1.154,3.918-2.743,5.252-.279.234-.622.351-.965.351ZM31.052,86.766c.562.655.907,1.448.998,2.32.104.997-.14,2.027-.683,2.982.41-.637.662-1.366.729-2.137.107-1.229-.254-2.321-1.045-3.166ZM27.029,85.132c.225.107.423.27.572.478.158.219.252.473.276.734.175-.294.447-.523.774-.643.23-.084.477-.11.712-.078-.592-.248-1.253-.408-1.959-.47-.126-.011-.251-.018-.376-.021Z"/>
    <path class="st0" d="M29.593,112.662c-.268,0-.538-.072-.78-.22l-2.522-1.54c-.268-.163-.474-.403-.596-.685-.974,1.107-2.281,1.658-3.957,1.615-1.326-.026-2.519-.555-3.356-1.488-.839-.934-1.236-2.175-1.121-3.497.142-1.622,1.031-3.045,2.444-4.065-.366-.281-.598-.727-.587-1.223l.061-2.76c.009-.4.178-.781.468-1.056.291-.275.672-.421,1.08-.41l.287.009c.286.009.626.021,1.002.031.05-.302.19-.585.407-.807.282-.289.67-.452,1.073-.452h.008l2.854.015c.766.004,1.395.581,1.481,1.322h.421c.404.002.792.166,1.074.456.281.291.435.682.423,1.087l-.007.272.816-.616c.604-.453,1.45-.39,1.978.151.529.543,1.196,1.28,1.969,2.134l.347.383c.273.302.412.703.384,1.109-.027.407-.22.785-.532,1.047l-1.893,1.587c-.148.125-.318.218-.499.276.756,2.201.179,4.712-1.58,6.792-.294.348-.718.531-1.146.531ZM29.145,109.131l.015.009c.53-1.026.632-2.093.257-2.999-.237-.573-.657-1.042-1.22-1.383.521.423.905.97,1.118,1.61.29.873.222,1.839-.17,2.763ZM24.173,104.163c.076.048.148.103.215.165.122.112.223.243.301.385.11-.225.275-.42.484-.566.117-.082.244-.146.377-.191-.251-.143-.456-.355-.589-.61-.145.364-.428.659-.788.818ZM24.166,100.268c.356.147.644.427.8.779.157-.329.431-.591.768-.734-.16-.074-.308-.176-.435-.303-.161-.161-.281-.355-.355-.566-.073.189-.185.364-.331.512-.129.132-.281.237-.446.312Z"/>
    <path class="st0" d="M27.882,129.751c-.036,0-.073-.001-.11-.004l-2.586-.19c-.545-.04-1.001-.367-1.23-.822l-1.317-.053c-.401-.017-.78-.193-1.05-.491-.083-.091-.153-.191-.211-.298-.294.31-.713.489-1.18.468l-2.554-.152c-.815-.049-1.442-.741-1.41-1.558.016-.377.042-.833.073-1.346-.349-.004-.686-.129-.953-.356-.307-.26-.496-.633-.525-1.034l-.189-2.583c-.058-.793.514-1.494,1.302-1.597.148-.02.302-.038.459-.057h-.004c-.816-.072-1.425-.786-1.365-1.604l.184-2.515c.06-.815.754-1.443,1.579-1.388.109.006.221.012.333.019.038-.408.074-.771.11-1.083.093-.804.806-1.394,1.61-1.324l2.531.204c.406.033.782.229,1.041.545.258.315.377.723.328,1.127-.03.256-.062.565-.093.917.093.007.185.015.275.023.071.006.142.017.209.033l.186-2.108c.072-.82.803-1.42,1.609-1.365l.811.062c1.377.106,2.613.201,3.836.309l1.596.14c.405.035.779.234,1.035.551.257.316.373.724.322,1.128-.098.79-.375,3.417-.612,5.868l.059.006c.823.083,1.425.816,1.344,1.64-.155,1.571-.246,2.209-.488,3.415-.07.35-.257.647-.513.859-.115,1.026-.233,1.799-.41,2.935-.128.818-.886,1.375-1.713,1.251l-1.117-.173c-.063.084-.136.163-.217.233-.274.238-.623.367-.983.367ZM26.68,125.063c.038.055.072.113.104.173.057-.092.123-.177.197-.254-.035-.053-.068-.108-.097-.165-.06.089-.128.171-.204.246ZM18.685,122.371c.091.055.177.121.256.195.062.059.118.123.169.19.141-.358.414-.65.764-.813-.07-.045-.138-.096-.2-.153-.074-.067-.142-.142-.2-.221-.148.359-.432.647-.788.802ZM19.177,117.113c.182.134.332.309.438.509.069-.099.152-.19.245-.271.088-.075.183-.139.283-.192-.183-.137-.332-.313-.437-.516-.138.195-.32.356-.529.469Z"/>
    <path class="st0" d="M26.337,146.184c-.033,0-.066,0-.1-.003l-2.516-.166c-.402-.026-.777-.214-1.04-.52-.007-.008-.015-.017-.021-.025-.234.018-.477-.021-.7-.117l-1.97-.841c-.748-.319-1.105-1.176-.806-1.932.064-.162.125-.315.186-.463-.143.042-.299.056-.44.06-.023.415-.043.794-.06,1.129-.041.812-.735,1.462-1.532,1.425l-2.525-.058c-.407-.009-.793-.184-1.068-.483-.276-.299-.419-.698-.395-1.104.159-2.728.417-6.227.671-9.13h0c.047-.534.097-1.053.146-1.553.044-.457.087-.896.124-1.316l.083-.949c.067-.776.718-1.37,1.494-1.37h.027c2.019.037,4.55.254,6.008.451.575.077,1.034.473,1.216.99.702-.485,1.362-.982,2.046-1.505.566-.434,1.361-.408,1.899.063,1.934,1.694,3.545,2.91,4.926,3.72.36.211.617.564.706.973.09.409.005.836-.234,1.179l-1.509,2.164c-.191.274-.458.465-.753.564l-.039.774c.202.279.303.62.282.966l-.099,1.73c.064.093.119.195.162.306.304.771.495,1.363.76,2.181.252.78-.146,1.688-.923,1.951l-2.03.689c-.364.125-.761.104-1.107-.057-.247.175-.547.277-.868.277ZM25.099,139.976c.057.048.109.101.158.158.068.08.127.166.177.257.117-.154.263-.285.429-.385-.056-.048-.108-.101-.157-.157-.068-.08-.128-.167-.178-.257-.117.154-.263.285-.429.385ZM25.637,137.092c.027.04.052.082.075.124.029-.039.061-.076.093-.111-.018-.001-.036-.002-.054-.004-.038-.003-.076-.005-.114-.008Z"/>
    <path class="st0" d="M22.332,161.819c-.221,0-.445-.01-.674-.03-3.275-.306-5.191-2.117-5.547-5.157-.019,0-.037.002-.056.003-.438.024-.861-.129-1.168-.438-.308-.309-.466-.735-.434-1.17l.204-2.748c.025-.334.158-.637.364-.873-.118-.243-.171-.516-.146-.79l.235-2.69c.07-.8.746-1.41,1.562-1.368.152.007.348.018.564.031.004-.021.009-.041.013-.062.159-.77.898-1.283,1.663-1.183l2.913.381c.417.055.792.282,1.033.625.152.217.243.468.267.727.899.093,1.169.142,1.28.162.763.138,1.295.834,1.228,1.606l-.233,2.672c-.037.424-.252.812-.592,1.068-.091.068-.188.126-.291.171l-.034.728,2.818.42c.79.118,1.35.835,1.271,1.63-.382,3.881-2.802,6.282-6.241,6.282ZM18.329,153.81c.113.067.217.149.311.245.288.298.441.702.421,1.117-.063,1.329.17,2.178.629,2.72-.46-.648-.659-1.592-.593-2.825.032-.603.417-1.104.945-1.314-.132-.081-.25-.182-.353-.301-.222-.259-.348-.584-.36-.92-.002.015-.004.03-.005.044-.072.581-.469,1.05-.995,1.233ZM18.902,149.609c.117.082.223.18.313.293.195.245.308.542.325.849.118-.527.508-.938,1.001-1.098-.126-.088-.239-.196-.335-.321-.167-.219-.27-.478-.299-.747-.16.476-.543.867-1.006,1.024Z"/>
    <path class="st0" d="M23.574,178.16c-.3,0-.6-.089-.858-.27l-2.163-1.509c-.097-.068-.184-.146-.261-.232-1.365.765-2.851,1.138-4.37,1.039-1.261-.06-2.401-.587-3.191-1.483-.791-.897-1.172-2.098-1.072-3.381.16-1.832,1.028-3.407,2.437-4.539-.28-.279-.439-.658-.441-1.054l-.016-2.712c-.005-.825.657-1.499,1.481-1.509.375-.004.801-.004,1.251,0,.062-.382.269-.727.578-.96.318-.24.719-.343,1.113-.288l2.678.379c.418.059.791.292,1.028.64.083.121.146.251.19.388.703.037,1.369.083,1.835.124.807.07,1.412.767,1.368,1.576l-.146,2.698c-.007.126-.03.25-.067.37.366.266.699.565.996.896,1.046,1.168,1.547,2.677,1.409,4.248-.188,2.137-1.176,3.957-2.857,5.264-.271.21-.596.316-.921.316ZM18.5,172.58c-.011.216-.02.436-.027.661-.006.189-.048.371-.119.538.36-.158.712-.358,1.051-.599-.091-.02-.181-.048-.269-.086-.262-.111-.479-.291-.636-.513ZM16.974,173.19h.01-.01ZM22.375,169.413c.059.147.092.302.102.457.168-.073.349-.115.536-.122-.196-.125-.409-.237-.638-.335ZM17.917,169.165s.004.002.006.003c.182.114.333.264.448.436.071-.442.334-.816.697-1.039-.043-.038-.085-.079-.123-.123-.064-.072-.122-.149-.171-.23-.128.427-.441.778-.857.953ZM18.216,165.446c.119.073.229.164.325.269.105.116.19.247.255.387.179-.332.478-.585.835-.708-.133-.081-.255-.182-.358-.302-.098-.112-.177-.237-.235-.37-.173.335-.467.595-.821.724Z"/>
    <path class="st0" d="M20.063,189.993c-.576,0-1.115-.333-1.364-.876l-1.093-2.391c-.178-.39-.181-.836-.009-1.228.173-.392.505-.691.912-.823l.138-.044c.336-.108.696-.225,1.044-.342-.69-.014-1.653.021-2.976.166-.411.044-.809-.078-1.12-.336-.312-.259-.507-.634-.538-1.039l-.204-2.621c-.062-.789.501-1.49,1.284-1.602,1.837-.26,3.508-.33,4.967-.2,5.736.501,6.283,3.975,6.314,5.027.011.11.003.293-.016.505-.161,1.844-1.499,4.326-6.96,5.756-.127.033-.254.049-.38.049ZM23.359,182.288s.01.008.014.012c.531.474.826,1.121.83,1.824,0,.198-.019.382-.059.554.156-.241.247-.488.27-.739l.01-.125c-.022-.716-.464-1.2-1.064-1.527Z"/>
    <path class="st0" d="M22.483,207.712c-.478,0-1.018-.026-1.619-.079-1.465-.128-2.931-.389-3.824-.681-.717-.234-1.148-.963-1.008-1.704l.507-2.685c.065-.348.251-.659.521-.88-.149-.236-.231-.511-.232-.795l-.011-2.478c-.102-.003-.202-.007-.302-.01-.585,2.65-1.226,5.69-1.358,6.523-.065.405-.293.765-.63.998-.339.232-.757.316-1.156.234l-2.858-.593c-.791-.164-1.311-.925-1.174-1.722.123-.717.564-2.945,1.102-5.526-.404-.005-.79-.174-1.068-.467-.284-.3-.433-.704-.41-1.116l.156-2.806c.044-.791.695-1.411,1.487-1.417l.481-.004c.216-.001.419-.003.61-.004.149-.655.236-1.032.294-1.273.191-.788.969-1.281,1.768-1.114l2.928.618c.397.084.743.325.96.668.216.343.284.76.188,1.154-.009.038-.018.076-.027.113.253.019.524.041.819.067.396.035.763.225,1.019.53s.38.699.345,1.095l-.198,2.266c1.361.025,2.835.133,3.897.296.781.12,1.336.826,1.267,1.614l-.238,2.726c-.026.306-.146.593-.339.826.101.053.195.119.283.195.326.285.513.697.513,1.13l-.002,2.711c0,.711-.5,1.325-1.197,1.468-.396.082-.895.123-1.491.123ZM12.992,195.504c.174.093.33.221.458.378.225.277.341.623.335.973.022-.104.046-.207.068-.308.146-.648.696-1.118,1.349-1.167-.165-.093-.312-.218-.434-.37-.244-.306-.357-.693-.32-1.078l-.093.409c-.149.651-.708,1.12-1.363,1.163Z"/>
    <path class="st0" d="M18.743,223.59c-.624,0-1.234-.089-1.816-.27-1.165-.362-2.135-1.066-2.832-2.039-.11.059-.223.12-.34.183-.177.334-.378.692-.609,1.083-.411.692-1.293.936-2.002.555l-2.762-1.488c-.359-.193-.624-.525-.733-.919s-.054-.814.155-1.166c1.233-2.082,3.391-7.553,4.274-10.84.208-.778.995-1.252,1.783-1.073l3.065.702c.396.09.737.337.948.685.21.347.271.765.168,1.157-.262,1.001-.658,2.288-1.102,3.595.152.031.3.086.438.164.401.227.676.626.744,1.082.291,1.935.577,2.506.702,2.67.151-.013.606-.11,1.688-.727.713-.406,1.62-.165,2.036.544l1.431,2.438c.393.669.21,1.527-.421,1.979-1.544,1.105-3.227,1.683-4.816,1.683ZM11.115,219.679l.144.077c.008-.016.016-.032.024-.048.137-.28.358-.511.633-.66l.154-.083c.779-.422,1.395-.754,2.044-1.047.381-.171.815-.176,1.2-.013.176.075.334.181.468.313-.092-.257-.175-.532-.25-.825-.136.066-.281.137-.437.214-.559.271-1.223.176-1.678-.244-.455-.42-.605-1.076-.379-1.652.585-1.487,1.21-3.293,1.676-4.822l-.145-.033c-.888,2.858-2.311,6.484-3.455,8.824Z"/>
    <path class="st0" d="M15.422,239.946c-.211,0-.423-.044-.623-.136-2.336-1.066-3.856-2.95-4.174-5.169-.195-1.373.079-2.761.771-4.039-.841-.076-1.702-.165-2.539-.263-.819-.096-1.408-.836-1.315-1.657l.327-2.917c.044-.396.244-.757.555-1.005s.711-.364,1.104-.318c3.328.375,6.022.626,8.026.748.021-.364.176-.708.435-.968.281-.282.662-.441,1.061-.441l1.627-.002h.002c.171,0,.335.028.487.081.113-.028.231-.042.354-.043l1.592-.005h.005c.811,0,1.475.644,1.499,1.455.015.464.022,1.428.017,2.352-.005.818-.665,1.481-1.483,1.49l-1.646.019c-.156.005-.352-.027-.515-.085-.1.021-.204.032-.31.032h-.374c-.075.34-.268.651-.557.871-3.173,2.413-3.227,3.426-3.205,3.604.031.255.49.738,1.685,1.257.451.197.778.603.873,1.086.096.483-.053.982-.396,1.335l-2.204,2.265c-.289.297-.679.454-1.075.454ZM13.57,233.97c.005.083.013.166.024.248.133.923.675,1.737,1.556,2.356l.047-.048c-.757-.581-1.468-1.41-1.627-2.557ZM15.11,228.018c.307.178.548.463.667.813.054.156.08.316.081.475.376-.362.799-.736,1.271-1.121l-.005-.016c-.614-.039-1.286-.089-2.015-.151Z"/>
    <path class="st0" d="M13.706,255.797c-.243,0-.489-.011-.74-.033-2.042-.178-3.637-1.141-4.613-2.783-.895-1.504-1.237-3.533-1.019-6.03h0c.156-1.789.588-3.767,1.248-5.722.244-.723.99-1.146,1.737-.987l3.104.669c.424.091.787.362.997.741.209.38.244.832.096,1.239-1.482,4.067-1.166,6.327-.864,6.758.418.023.769-.071,1.262-.58.279-.289.663-.453,1.064-.457h.013c.397,0,.778.158,1.061.439l2.161,2.159c.58.58.587,1.518.015,2.106-1.617,1.664-3.43,2.479-5.521,2.479ZM10.322,247.213c-.16,1.831.051,3.295.609,4.235.481.811,1.211,1.233,2.296,1.328,1.014.088,1.881-.102,2.7-.606l-.063-.063c-.771.435-1.609.608-2.533.527-.909-.079-1.691-.566-2.203-1.37-.983-1.544-.957-4.38.034-7.77l-.132-.028c-.363,1.3-.605,2.576-.708,3.749h0Z"/>
    <path class="st0" d="M16.789,272.804c-.479,0-1.019-.026-1.619-.079-1.465-.128-2.931-.389-3.824-.681-.717-.234-1.147-.963-1.008-1.704l.506-2.685c.065-.348.251-.659.521-.881-.148-.236-.23-.51-.231-.794l-.012-2.479c-.101-.003-.201-.007-.302-.01-.625,2.827-1.233,5.744-1.358,6.523-.065.404-.293.765-.63.997-.338.233-.757.318-1.156.234l-2.857-.594c-.791-.165-1.31-.924-1.174-1.72.13-.767.593-3.083,1.101-5.527-.403-.005-.788-.173-1.067-.467-.284-.3-.433-.704-.41-1.116l.155-2.806c.044-.791.695-1.411,1.487-1.417l.489-.004c.214-.001.414-.003.604-.004.148-.653.234-1.029.292-1.269.189-.79.969-1.285,1.769-1.118l2.929.618c.397.084.744.325.96.669.217.344.284.761.188,1.155-.009.037-.019.074-.027.111.252.019.523.041.818.067.396.035.763.225,1.019.53s.38.699.345,1.095l-.198,2.266c1.362.025,2.836.133,3.898.296.781.12,1.336.826,1.267,1.614l-.239,2.726c-.026.305-.146.592-.338.825.101.054.195.119.283.195.326.285.513.697.513,1.13l-.002,2.711c0,.711-.501,1.325-1.197,1.468-.396.082-.896.123-1.491.123ZM7.296,260.596c.175.093.331.221.459.378.226.278.342.625.335.977.023-.105.047-.209.069-.312.146-.647.697-1.117,1.349-1.167-.165-.093-.312-.218-.434-.37-.244-.307-.357-.694-.32-1.08l-.093.41c-.149.652-.709,1.121-1.365,1.164Z"/>
    <path class="st0" d="M11.257,287.952c-.03,0-.062,0-.092-.003l-3.486-.214c-.825-.051-1.453-.758-1.405-1.583.035-.612.071-1.086.108-1.562.036-.462.072-.926.107-1.528.019-.323.141-.629.345-.875-.072-.198-.104-.412-.088-.626.172-2.355.51-5.527.821-7.713.112-.785.812-1.351,1.608-1.283l3.643.3c.424.035.812.248,1.069.585.258.338.36.769.282,1.187-.367,1.954-.862,4.812-1.141,7.324-.029.26-.123.498-.265.699.123.233.187.503.17.786l-.073,1.188c-.038.592-.072,1.125-.105,1.885-.019.402-.196.78-.496,1.049-.275.249-.634.385-1.003.385ZM9.372,284.833l.469.029c.002-.033.004-.065.006-.098l-.467-.029c-.002.029-.005.058-.007.086,0,.004,0,.008,0,.012ZM9.864,280.23l.353.014c.205-1.553.464-3.143.707-4.525l-.572-.047c-.164,1.316-.345,2.951-.487,4.559Z"/>
  </g>
  <g>
    <path class="st1" d="M58.832,15.914c1.293-1.351,1.68-2.059,1.777-3.171.023-.269-.011-.489-.116-.733-1.699,2.888-4.272,4.614-7.059,4.443-1.8-.085-3.001-1.438-2.86-3.25.196-2.242,1.735-3.933,4.185-4.659.031-.358.062-.717.093-1.058-.921-.008-1.753-.009-2.277,0l-.016-2.712c.724-.009,1.645,0,2.564.025.039-.448.1-.931.149-1.288l2.678.379c-.029.124-.06.465-.123.984,1.102.023,2.449.105,3.257.176l-.146,2.699c-.717-.062-2.031-.124-3.4-.171-.017.197-.036.413-.055.627,3.607.081,6.044,2.192,5.797,5.008-.15,1.722-.927,3.154-2.284,4.21l-2.163-1.508ZM54.394,13.953c.034-1.009.096-1.926.15-2.752-.779.438-1.211,1.033-1.273,1.75-.057.646.171.937.816.993.197.018.251.022.307.009ZM58.4,10.724c-.318-.082-.677-.113-1.128-.116-.027.304-.06.681-.129,1.868.42-.451.832-1.029,1.257-1.751Z"/>
    <path class="st1" d="M58.77,21.162l1.963-1.78c.677.729,2.438,2.924,2.767,3.911l-2.148,1.421c-.322-.661-2.053-2.981-2.581-3.552Z"/>
    <path class="st1" d="M48.779,32.269c.091-1.04.28-2.162.575-3.474l2.834.664c-.366,1.92-.497,4.023-.359,5.554.639-.071,1.135-.154,1.792-.241l.306,2.502c-1.434.471-2.938.936-4.333,1.393-.765-2.218-1.011-4.155-.814-6.397ZM58.021,30.963l2.945-.411c.446,1.305.775,3.954.69,5.537l-2.795.551c-.059-1.397-.351-3.429-.841-5.677Z"/>
    <path class="st1" d="M54.493,48.562c2.288-.739,3.737-1.191,3.733-1.969-.008-1.157-1.827-1.642-6.151-1.17l-.205-2.621c1.812-.258,3.353-.303,4.626-.191,3.354.293,4.892,1.729,4.946,3.577.009.109,0,.217-.012.343-.149,1.704-1.758,3.352-5.846,4.423l-1.092-2.392Z"/>
    <path class="st1" d="M46.27,59.081c.092-1.04.235-2.058.45-3.069l2.873.414c-.472,3.537-.509,6.029-.118,9.207l-2.884.525c-.43-3.147-.508-4.942-.321-7.077ZM52.682,66.98c.857-1.534,1.518-3.5,1.895-5.745-.828-.037-1.745-.081-2.648-.087l-.016-2.713c.686.006,1.569.029,2.938.077.058-.863.061-1.729-.002-2.657l3.007-.081c.031,1.088.038,2.046,0,2.892.576.032,1.184.104,1.828.178l-.36,2.68c-.521-.046-1.114-.08-1.743-.117-.407,2.585-1.157,4.959-2.174,6.876l-2.725-1.304Z"/>
    <path class="st1" d="M45.109,78.35c.386-.888.763-1.903,1.109-2.976-.52-.045-1.004-.088-1.417-.124l.332-2.754c.609.054,1.221.089,1.83.142.145-.602.273-1.259.388-1.936l2.963.421c-.123.586-.262,1.134-.383,1.684.504.026,1.026.054,1.927.079l-.169,2.769c-.685-.023-1.405-.051-2.505-.093-.411,1.392-.803,2.568-1.15,3.441l-2.925-.653ZM52.044,78.631c.358.032.447.04.625.073.006-.469,0-1.012-.012-1.519l2.919.111c.016.851-.016,1.625-.092,2.287.867.419,1.738,1.001,2.204,1.458l-1.804,2.229c-.269-.241-.657-.546-.998-.775-.046.105-.093.227-.137.313-.725,1.473-1.919,2.109-3.659,1.957-4.071-.356-3.729-6.543.953-6.134ZM52.406,81.302c-.318-.082-.532-.119-.729-.136-.626-.073-.985.112-1.021.525-.031.359.302.677.769.718.448.039.77-.33.982-1.107ZM53.383,75.712l.667-2.454c1.114.279,2.154.586,4.229,1.238l-.667,2.454c-.842-.29-2.182-.678-4.229-1.237Z"/>
    <path class="st1" d="M43.587,91.623c.091-1.04.279-2.163.575-3.474l2.833.664c-.366,1.919-.496,4.023-.358,5.553.638-.071,1.134-.154,1.791-.241l.306,2.503c-1.433.471-2.938.936-4.333,1.392-.764-2.218-1.01-4.155-.813-6.397ZM52.828,90.317l2.946-.411c.446,1.304.774,3.954.69,5.537l-2.796.55c-.059-1.397-.351-3.428-.841-5.676Z"/>
    <path class="st1" d="M46.568,110.641l3.451.212c-.071,1.223-.127,1.868-.18,3.092l-3.488-.214c.069-1.205.146-1.867.217-3.09ZM47.634,101.552l3.644.3c-.441,2.347-.896,5.073-1.157,7.436l-3.297-.126c.187-2.532.53-5.647.811-7.61Z"/>
    <path class="st1" d="M28.331,8.871l-.48.536-1.969-1.673c2.121-2.128,3.229-3.856,4.454-6.28l2.32,1.161c-.992,2.046-2.027,3.546-3.26,5.029l1.582.102c-.044.701-.369,6.077-.496,7.729l-2.583-.226c.086-1.384.303-4.492.432-6.378ZM32.533,12.491c.033-1.208.086-2.432.176-3.871-.309.009-.616.019-.926.045l-.089-2.7c.363-.022.78-.04,1.214-.039.057-.844.135-1.741.223-2.746l2.762.241c-.093.859-.183,1.683-.25,2.455.324.01.668.004,1.029,0,.107-1.219.206-2.349.266-3.229l2.349.206c-.07.807-.165,1.883-.286,3.066,1.138.008,2.237.05,3.227.101-.228,2.402-.511,4.185-1.001,5.859l-2.294-.634c.26-.899.492-1.692.665-2.635-.289-.007-.559-.031-.847-.038-.077.879-.173,1.774-.265,2.615l-2.332-.204c.089-.805.179-1.629.249-2.436-.324-.011-.668-.005-.992-.015-.12,1.58-.186,2.948-.217,4.138,1.99.174,3.829.227,5.669.261l-.225,2.782c-1.622-.052-3.531-.128-5.45-.296-2.01-.176-2.699-1.176-2.654-2.926Z"/>
    <path class="st1" d="M34.717,28.638c1.914-1.839,1.925-4.224.039-5.401-1.316,4.097-3.952,6.541-6.354,5.896-1.784-.48-2.762-1.904-2.597-3.787.285-3.265,3.498-5.894,7.318-5.559,3.659.32,6.367,2.834,6.055,6.403-.145,1.651-.945,3.171-2.214,4.235l-2.248-1.787ZM31.973,22.614c-2.066.072-3.338,1.588-3.473,2.715-.036.413.021.996.64,1.158.635.182,2.03-1.72,2.833-3.873Z"/>
    <path class="st1" d="M26.931,42.646c.077-.879.459-1.731,1.155-2.664-.491-1.615-.816-4.102-.773-5.833l2.897-.271c.013,1.302.104,2.955.238,3.889,1.079-.773,2.373-1.51,3.557-2.021l.972,2.94c-2.53,1.026-4.71,2.805-4.807,3.917-.12,1.363.914,1.743,4.661,1.673l-.278,2.976c-1.071.051-1.883.034-2.564-.026-3.569-.312-5.295-1.873-5.058-4.582Z"/>
    <path class="st1" d="M24.339,61.32l.931-2.992c2.207,1.223,5.109,1.713,8.496,1.431l.093,3.08c-1.098.139-2.29.144-3.618.027-2.17-.19-4.273-.736-5.901-1.546ZM30.638,55.852c.165-.438.352-.927.485-1.421-1.562-.318-3.387-.749-5.242-1.236l.582-2.931c3.413.859,5.53,1.243,8.141,1.779-.459,1.532-1.026,3.471-1.436,4.627l-2.53-.817Z"/>
    <path class="st1" d="M25.598,76.68c3.167-.048,4.491-.511,4.56-1.499.107-1.437-1.697-1.884-5.062-1.238l-.419-1.194c1.313-1.584,1.98-2.393,2.835-3.475-1.08-.058-2.213-.122-3.023-.156l.282-2.813c1.818.087,4.119.234,6.038.402.592.052,1.094.096,1.486.148-1.395,2.101-2.035,3.021-3.183,4.565,2.483.127,4.077,1.749,3.886,3.937-.239,2.726-2.619,4.108-6.99,4.069l-.41-2.747Z"/>
    <path class="st1" d="M29.129,92.51c1.914-1.839,1.924-4.224.039-5.401-1.316,4.096-3.952,6.54-6.354,5.896-1.784-.481-2.762-1.905-2.597-3.788.285-3.264,3.497-5.894,7.318-5.559,3.658.32,6.367,2.834,6.055,6.404-.145,1.65-.946,3.17-2.214,4.234l-2.248-1.787ZM26.385,86.486c-2.066.072-3.338,1.587-3.473,2.714-.036.413.021.996.64,1.159.635.182,2.03-1.721,2.833-3.873Z"/>
    <path class="st1" d="M27.071,109.622c1.564-1.761,1.093-3.808-1.037-4.248-.501,3.445-1.849,5.008-4.267,4.958-1.876-.038-3.177-1.489-3.014-3.354.181-2.062,2.058-3.688,4.812-4.188.029-.54.038-.846.027-1.136-.704-.007-1.661-.019-2.977-.062l.061-2.76c.648.021,1.712.06,2.867.07-.015-.652-.041-.979-.05-1.288l2.854.015c-.002.433.013.886.011,1.32.796-.003,1.482.003,1.897.003l-.075,2.723c-.797.021-1.394.022-1.863.018-.006.487-.026.72-.029.956,4.79.401,6.308,4.961,3.304,8.512l-2.522-1.54ZM23.371,105.431c-1.122.228-1.978.911-2.037,1.594-.048.556.347,1.006.875.961.562-.023.963-.892,1.162-2.555ZM29.515,101.323l1.955-1.474c.597.613,1.371,1.476,2.277,2.477l-1.893,1.587c-.535-.697-1.111-1.344-2.34-2.59Z"/>
    <path class="st1" d="M17.909,123.655c-.547.061-1.075.105-1.585.151l-.189-2.583c.584-.076,1.259-.144,1.953-.228.077-.879.14-1.795.198-2.675-.771-.067-1.419-.106-1.76-.136l.184-2.515c.558.031,1.169.066,1.779.12.088-1.004.163-1.865.237-2.51l2.531.204c-.07.59-.146,1.451-.217,2.475.609.054,1.203.087,1.759.136l-.147,2.518c-.521-.028-1.151-.065-1.814-.124-.045.72-.109,1.455-.155,2.192.439-.07.861-.141,1.247-.216l.304,2.521c-.553.114-1.141.226-1.727.319l-.221,3.56-2.554-.152c.03-.756.106-1.833.177-3.057ZM22.683,120.114c3.938.236,7.731.46,9.146.602-.155,1.577-.241,2.148-.466,3.267l-2.392-.354.193-.959c-1.379-.156-2.531-.204-4.241-.28-.028.322-.057.646-.065.952l-2.434-.068c.084-1.384.189-2.585.258-3.158ZM25.448,125.905c-.234-.002-.469-.005-.741.007-.043.485-.069.988-.101,1.347l-1.908-.077c.068-1.205.215-2.873.276-3.374,1.275.093,2.174.154,2.659.178.028-.323.074-.644.107-1.021l2.586.19c-.031.358-.077.68-.104.985,1.062.056,2.013.122,2.677.18-.137,1.361-.265,2.2-.471,3.519l-1.872-.291c.07-.391.151-.908.234-1.443-.249-.04-.5-.062-.733-.082-.054.609-.114,1.309-.177,2.225l-2.586-.19c.059-.88.101-1.563.152-2.155ZM24.418,117.23l3.749.328c.018-.197.053-.393.066-.555-1.093-.114-1.757-.172-3.516-.308l.099-1.13c1.185.104,2.439.214,3.571.294.035-.196.049-.357.063-.519-1.236-.126-2.367-.207-3.844-.282l.211-2.404c1.705.132,3.178.242,4.631.37l1.596.14c-.12.965-.461,4.243-.707,6.842-2.761-.259-4.931-.449-6.116-.535l.196-2.242Z"/>
    <path class="st1" d="M15.515,134.086c.09-1.022.192-1.99.27-2.869l.083-.95c1.822.033,4.317.233,5.835.438-.063.935-.163,1.667-.388,2.37,1.841-.996,3.192-1.98,4.761-3.18,1.696,1.486,3.487,2.908,5.155,3.885l-1.509,2.164c-1.25-.796-2.443-1.624-3.811-2.72-1.277.955-2.655,1.828-3.919,2.441l-1.063-1.684c-.155.33-.349.674-.596,1.015,1.238,1.554,1.104,3.91-1.382,5.681l-1.296-1.921c1.509-1.133,1.495-2.219.397-3.725.606-.941.949-1.544,1.269-2.311l-1.111-.097c-.396,3.273-.672,7.261-.838,10.608l-2.525-.058c.147-2.518.399-6.02.668-9.087ZM20.579,143.132c.325-.821.554-1.362.908-2.107l1.969.841c-.231.576-.655,1.497-.907,2.107l-1.97-.841ZM24.118,141.11c-.881-.059-1.652-.126-2.12-.15l.141-2.427c.485.024,1.293.095,2.191.156l.065-.753c-.629-.037-1.185-.085-1.599-.104l.121-2.429c1.42.088,4.401.312,5.857.403l-.122,2.429c-.468-.022-1.078-.076-1.743-.116l-.065.753c.844.056,1.615.123,2.101.148l-.14,2.427c-.504-.026-1.293-.095-2.173-.154l-.297,3.39-2.516-.166.298-3.408ZM27.079,142.381l2.031-.69c.295.749.479,1.325.75,2.163l-2.03.689c-.199-.614-.55-1.566-.751-2.162Z"/>
    <path class="st1" d="M17.562,155.099c-.688.012-1.267.016-1.612.04l.204-2.748c.453-.014,1.03,0,1.681.002.062-.5.126-1.02.209-1.554-.917-.062-1.475-.093-1.674-.092l.235-2.69c.433.02,1.224.071,1.869.127.075-.445.152-.909.244-1.352l2.913.381c-.09.408-.161.817-.232,1.208,1.382.121,2.349.224,2.74.294l-.233,2.672c-.338-.066-1.396-.177-2.901-.309-.061.483-.119.948-.177,1.396,1.172.029,1.784.065,2.196.101l-.126,2.682c-.647-.039-1.458-.073-2.304-.111-.086,1.601.24,2.208,1.245,2.296,1.399.122,2.071-.542,2.314-2.491l2.926.437c-.326,3.315-2.332,5.164-5.291,4.905l-.036-.003c-2.922-.273-4.347-1.952-4.19-5.192Z"/>
    <path class="st1" d="M21.411,175.151c1.293-1.351,1.681-2.058,1.777-3.17.023-.269-.011-.49-.117-.734-1.698,2.888-4.271,4.615-7.058,4.444-1.8-.086-3.001-1.438-2.86-3.251.196-2.242,1.735-3.932,4.185-4.658.032-.358.063-.717.093-1.058-.921-.009-1.753-.009-2.277,0l-.016-2.712c.725-.009,1.645,0,2.564.026.04-.449.1-.931.149-1.289l2.678.379c-.029.124-.06.465-.123.983,1.102.024,2.449.106,3.257.176l-.146,2.698c-.717-.062-2.031-.124-3.4-.17-.018.197-.036.413-.055.627,3.607.081,6.043,2.192,5.797,5.008-.151,1.722-.926,3.154-2.284,4.21l-2.163-1.509ZM16.974,173.19c.034-1.009.097-1.925.15-2.752-.779.438-1.211,1.033-1.273,1.75-.057.646.171.937.816.994.197.017.251.022.307.008ZM20.979,169.962c-.318-.082-.678-.114-1.128-.117-.027.305-.061.682-.128,1.869.419-.451.831-1.03,1.256-1.751Z"/>
    <path class="st1" d="M18.971,186.102c2.287-.739,3.737-1.191,3.732-1.969-.007-1.157-1.826-1.642-6.15-1.17l-.204-2.621c1.811-.257,3.352-.303,4.625-.191,3.354.293,4.892,1.729,4.946,3.577.009.109,0,.217-.012.343-.149,1.704-1.757,3.352-5.845,4.422l-1.093-2.391Z"/>
    <path class="st1" d="M10.817,204.092c.149-.873.79-4.07,1.468-7.265-.615,0-1.228-.017-1.825-.015l.156-2.806c.958-.007,1.664-.018,2.276,0,.323-1.418.471-2.074.557-2.428l2.928.618c-.168.69-.313,1.31-.436,1.877.723.009,1.531.062,2.554.151l-.24,2.744c-1.008-.052-2.035-.087-2.938-.095-.652,2.908-1.481,6.811-1.642,7.81l-2.858-.593ZM17.506,205.526l.507-2.685c1.589.428,4.527.722,5.661.567l-.002,2.711c-.552.114-1.492.122-2.677.019-1.363-.119-2.733-.366-3.489-.613ZM18.316,198.132c1.595-.059,3.771.059,5.145.27l-.238,2.726c-1.505-.149-3.753-.273-4.895-.247l-.012-2.749Z"/>
    <path class="st1" d="M9.094,220.294c1.313-2.217,3.521-7.826,4.433-11.216l3.065.702c-.435,1.661-1.298,4.296-2.157,6.48,1.095-.537,1.699-.828,2.205-1.036.629,4.176,1.534,4.779,4.616,3.024l1.431,2.438c-3.239,2.319-6.836,1.697-7.957-1.401-.64.288-1.266.63-2.1,1.082-.221.451-.479.916-.774,1.414l-2.762-1.488Z"/>
    <path class="st1" d="M14.358,229.317c-1.565-.083-3.502-.252-5.327-.466l.327-2.917c3.562.402,6.7.695,8.932.799l.547,2.018c-4.647,3.534-5.007,5.78-1.211,7.431l-2.204,2.265c-4.015-1.833-4.504-6.16-1.063-9.13ZM19.05,225.28l1.627-.002c.029.689.008,1.772-.003,2.295l-1.626.002c0-.433.004-1.283.002-2.295ZM21.522,225.316l1.592-.005c.014.453.021,1.394.016,2.297l-1.646.019c.022-.667.019-1.661.039-2.31Z"/>
    <path class="st1" d="M8.828,247.082c.145-1.649.541-3.495,1.175-5.374l3.104.669c-1.712,4.695-1.619,8.589.354,8.761.969.085,1.755-.226,2.529-1.026l2.161,2.159c-1.489,1.532-3.1,2.169-5.056,1.998-3.139-.274-4.651-2.811-4.269-7.188Z"/>
    <path class="st1" d="M5.123,269.184c.148-.873.79-4.07,1.467-7.264-.614,0-1.228-.017-1.824-.015l.155-2.806c.959-.007,1.664-.018,2.277,0,.323-1.417.471-2.073.556-2.427l2.929.618c-.169.69-.313,1.31-.436,1.877.722.009,1.53.062,2.553.151l-.24,2.744c-1.007-.052-2.034-.088-2.937-.095-.653,2.907-1.482,6.811-1.643,7.81l-2.857-.594ZM11.811,270.618l.506-2.685c1.589.429,4.528.722,5.662.568l-.002,2.711c-.553.114-1.493.122-2.677.019-1.363-.119-2.733-.366-3.489-.613ZM12.621,263.225c1.596-.059,3.772.059,5.146.27l-.239,2.726c-1.504-.15-3.752-.273-4.894-.247l-.013-2.749Z"/>
    <path class="st1" d="M7.986,283.147l3.451.212c-.07,1.223-.127,1.868-.181,3.093l-3.486-.214c.069-1.205.146-1.867.216-3.09ZM9.053,274.059l3.643.3c-.44,2.347-.896,5.073-1.157,7.436l-3.296-.125c.185-2.532.53-5.647.811-7.61Z"/>
  </g>
</svg>