<?xml version="1.0" encoding="UTF-8"?>
<svg id="_レイヤー_1" data-name="レイヤー_1" xmlns="http://www.w3.org/2000/svg" version="1.1" viewBox="0 0 65 305">
  <!-- Generator: Adobe Illustrator 29.0.1, SVG Export Plug-In . SVG Version: 2.1.0 Build 192)  -->
  <defs>
    <style>
      .st0 {
        fill: #fff;
      }

      .st1 {
        fill: #3c291a;
      }
    </style>
  </defs>
  <g>
    <path class="st0" d="M52.733,18.776c-.043,0-.087-.002-.131-.006l-2.619-.229c-.805-.07-1.41-.767-1.367-1.574.009-.165.019-.333.029-.505-.11.006-.217-.005-.325-.025-.421-.08-.789-.335-1.009-.704l-1.199-2.002c-.398-.665-.224-1.523.401-1.981.231-.169.446-.33.648-.485-.252-.286-.387-.658-.375-1.041l.082-2.595c.02-.63.426-1.159.987-1.363l-.348-1.771c-.077-.393.005-.8.23-1.131.225-.332.572-.559.966-.633,1.793-.335,4.098-.72,6.016-1.006.815-.118,1.578.439,1.703,1.255l.357,2.319c.35-.353.866-.521,1.384-.411l2.66.576c.407.088.759.341.972.699.213.358.268.788.151,1.188-.315,1.077-.618,2.14-.896,3.139l1.379-.224c.806-.129,1.56.4,1.713,1.196.218,1.126.426,2.365.62,3.525l.216,1.278c.138.808-.396,1.577-1.201,1.728l-2.555.481c-.401.078-.819-.017-1.152-.256-.164-.117-.299-.265-.403-.433-1.447.014-2.875-.01-4.92-.077-.19-.006-.375-.048-.546-.123-.067.319-.237.609-.486.825-.274.236-.623.365-.981.365ZM61.197,14.813c.197.05.379.139.537.259-.038-.228-.077-.458-.116-.688-.031.048-.065.095-.102.14-.093.112-.201.209-.319.289ZM56.815,14.766c.353.008.688.014,1.012.018-.129-.089-.246-.2-.343-.328-.062-.082-.115-.169-.158-.26-.12.234-.297.429-.511.57ZM50.857,12.053c.058.02.116.043.172.071.234.114.429.284.572.487.131-.406.432-.742.83-.915-.088-.093-.174-.187-.258-.282-.144-.162-.247-.349-.309-.548-.07.178-.174.343-.311.487-.233.244-.463.475-.697.699ZM51.397,9.14c.198.156.357.362.458.604.017.042.033.085.046.128.013-.034.028-.067.044-.101.148-.308.392-.549.686-.694-.111-.075-.213-.166-.302-.269-.072-.085-.134-.176-.186-.273-.175.277-.438.49-.746.605ZM51.919,5.208c.025.02.05.041.074.062.083.074.156.156.219.244.04-.137.099-.266.173-.384-.156.026-.311.052-.466.078Z"/>
    <path class="st0" d="M58.828,33.819c-.33,0-.66-.108-.934-.326l-2.248-1.788c-.305-.242-.502-.592-.553-.975-1.555,1.556-3.406,2.232-5.216,1.745-2.476-.667-3.929-2.773-3.703-5.366.174-1.993,1.233-3.882,2.907-5.183,1.691-1.315,3.835-1.937,6.037-1.74,2.167.189,4.105,1.051,5.456,2.426,1.452,1.478,2.149,3.468,1.962,5.603-.178,2.052-1.152,3.918-2.743,5.253-.278.234-.622.351-.964.351ZM58.511,24.796c.557.653.899,1.443.99,2.312.104.998-.14,2.029-.685,2.985.412-.638.664-1.367.731-2.139.107-1.226-.25-2.315-1.036-3.158ZM54.481,23.154c.225.107.422.27.572.477.158.219.251.473.276.734.175-.294.447-.523.774-.643.229-.084.472-.111.709-.079-.591-.247-1.252-.407-1.957-.468-.125-.011-.25-.018-.375-.021Z"/>
    <path class="st0" d="M55.318,50.025c-.607,0-1.244-.03-1.917-.089-2.371-.208-4.658-.811-6.44-1.698-.659-.329-.982-1.086-.763-1.789l.932-2.991c.134-.431.455-.778.874-.946.418-.168.891-.138,1.286.081,1.932,1.072,4.575,1.502,7.644,1.248.409-.036.816.101,1.124.376.307.274.488.663.5,1.074l.092,3.081c.023.772-.544,1.436-1.311,1.533-.64.081-1.309.122-2.02.122ZM49.463,46.05c1.244.454,2.693.766,4.199.898.698.061,1.346.089,1.944.074l-.003-.112c-2.293.046-4.335-.273-6.116-.936l-.023.076ZM56.459,43.746c-.153,0-.308-.023-.461-.073l-2.531-.817c-.39-.126-.711-.406-.89-.775-.145-.3-.185-.638-.118-.959-1.161-.262-2.404-.567-3.669-.9-.767-.202-1.244-.965-1.089-1.743l.582-2.931c.08-.403.322-.756.669-.976.349-.22.771-.287,1.168-.187,2.72.684,4.606,1.063,6.604,1.465l1.472.298c.413.085.771.339.987.7.216.362.27.797.149,1.201l-.223.747c-.412,1.378-.878,2.94-1.234,3.95-.217.614-.795,1.001-1.415,1.001ZM50.919,37.67c1.348.337,2.639.632,3.792.867.406.083.76.329.978.682.039.062.072.127.101.193.065-.216.131-.433.196-.65-1.587-.319-3.119-.629-5.066-1.093h0Z"/>
    <path class="st0" d="M53.832,66.707c-.548,0-1.049-.021-1.515-.062-6.236-.545-6.568-4.521-6.421-6.206v-.002c.084-.95.412-1.857,1.019-2.81-.42-1.704-.682-3.932-.641-5.592.019-.76.603-1.386,1.36-1.457l2.896-.271c.421-.041.833.099,1.145.38s.491.68.495,1.099c.004.429.017.882.036,1.324.559-.306,1.123-.584,1.664-.818.386-.168.825-.165,1.209.008.384.172.678.498.811.897l.973,2.941c.248.75-.128,1.564-.861,1.861-1.994.808-3.387,1.971-3.789,2.551.382.089,1.221.183,3.05.15.461-.014.837.166,1.127.479s.434.734.395,1.16l-.277,2.976c-.069.744-.676,1.324-1.423,1.359-.444.021-.86.031-1.252.031ZM48.884,60.704c-.074.849-.224,2.611,3.695,2.954.327.029.68.045,1.064.049v-.008c-1.861-.056-3.083-.333-3.839-1.143-.521-.557-.746-1.283-.669-2.158.163-1.878,2.546-3.584,4.459-4.581l-.013-.039c-.626.346-1.244.734-1.801,1.132-.426.305-.979.366-1.461.16-.216-.092-.403-.231-.55-.403.066.287.137.557.211.802.139.457.052.951-.233,1.333-.538.721-.812,1.325-.863,1.9h0Z"/>
    <path class="st0" d="M51.114,82.584c-.152,0-.306-.007-.46-.021-.183-.016-.29-.023-.657-.109,0,0-.002,0-.003,0-1.116-.264-1.998-.798-2.589-1.527-.093.034-.191.059-.292.074l-2.967.445c-.399.062-.811-.045-1.134-.292-.323-.247-.531-.615-.578-1.019-.261-2.246-.298-4.585-.108-6.765h0c.155-1.77.46-3.51.909-5.173.201-.743.933-1.213,1.69-1.09l2.851.466c.414.068.78.305,1.01.654.165.25.25.541.248.835.002-.002.005-.004.008-.006.312-.25.709-.368,1.108-.32.137.015.277.03.421.045.033-.296.153-.58.35-.811.272-.319.666-.51,1.085-.525l2.901-.108c.79-.01,1.465.557,1.547,1.342.013.118.024.242.035.371.212-.007.399-.017.561-.032.417-.037.826.1,1.137.378.31.278.49.673.498,1.089l.052,2.915c.014.796-.596,1.465-1.39,1.523-.275.02-.563.035-.871.043-.021.354-.043.672-.067.96.658.45,1.354,1.033,1.834,1.557.517.565.526,1.429.02,2.004l-1.727,1.963c-.509.578-1.373.677-2,.229-.086-.062-.183-.137-.288-.221-.802.702-1.922,1.124-3.134,1.124ZM50.941,79.375c.045.018.089.031.132.039.276.04.513-.183.64-.4.265-.453.167-.955-.035-1.229-.11-.175-.38-.328-.677-.35h0c-.179,0-.325.069-.455.215-.208.234-.295.586-.226.919l1.469-.304-1.437.43c.097.324.324.555.546.661l.037-.424.006.443ZM52.847,77.147c.173.198.302.43.379.688.01.035.02.07.027.106.042-.021.084-.04.128-.057.125-.048.253-.079.382-.093-.302-.298-.469-.716-.445-1.151-.114.201-.275.375-.472.506ZM50.917,77.432h-.001.001ZM48.256,73.553c-.05.513-.082,1.023-.097,1.537.059-.045.12-.089.183-.131.274-.186.571-.337.884-.454-.462-.146-.819-.505-.969-.952ZM52.541,71.872c.54.131.96.552,1.097,1.083.175-.478.586-.839,1.088-.949-.562-.131-1.002-.578-1.124-1.144-.073.234-.203.45-.381.626-.191.188-.426.318-.68.383Z"/>
    <path class="st0" d="M55.532,100.205c-.044,0-.088-.002-.132-.006l-2.475-.217c-.631-.055-1.137-.494-1.307-1.066-.267.535-.838.881-1.473.823l-2.476-.217c-.713-.062-1.27-.616-1.357-1.304-.009-.004-.018-.008-.027-.013-.076.113-.167.217-.273.307-.309.263-.715.388-1.116.352l-2.295-.219c-.814-.078-1.416-.793-1.354-1.608.047-.611.098-1.262.149-1.912-.31-.075-.591-.247-.799-.495l-1.391-1.658c-.5-.596-.461-1.474.088-2.024.462-.463.86-.891,1.263-1.369-.019-.018-.036-.036-.054-.055-.285-.306-.429-.716-.398-1.132l.191-2.604c.058-.79.728-1.417,1.512-1.39.118.001.232.003.341.005.017-.17.033-.336.047-.496.036-.401.231-.772.543-1.028.312-.255.717-.373,1.114-.331l2.471.271c.404.044.772.25,1.021.571.072.092.132.192.18.297.182-.439.564-.768,1.023-.882.278-.502.833-.818,1.444-.768l2.421.212c.207.018.4.077.573.169.189-.062.389-.084.593-.067l2.421.212c.556.048,1.015.395,1.232.868.38.049.728.242.971.54.256.313.375.717.328,1.12l-.227,1.969c-.048.419-.265.779-.576,1.018l-.02.224c.101.074.192.161.273.259.256.314.375.718.328,1.12l-.227,1.968c-.037.316-.169.599-.365.821l-.237,2.334c.292.299.458.717.424,1.166l-.141,1.813c-.031.399-.22.769-.526,1.028-.074.063-.153.118-.237.165-.131.714-.755,1.229-1.474,1.229ZM54.459,96.629c.01.018.02.035.029.052.031-.038.063-.075.097-.11-.011-.018-.021-.036-.031-.055-.029.039-.062.077-.095.112ZM49.092,96.099c.028.042.054.085.078.129.012-.016.025-.032.038-.047-.028-.042-.054-.085-.077-.13-.013.016-.025.032-.039.047ZM43.576,90.616c.046.014.091.029.135.047.181.073.341.177.477.306.028-.048.06-.094.093-.139-.136-.252-.2-.544-.174-.843.002-.027.005-.055.007-.082-.187.252-.365.488-.538.71ZM44.083,87.344c.18.127.332.292.44.485.072-.101.158-.194.255-.275.103-.086.215-.157.334-.213-.093-.066-.179-.144-.255-.231-.063-.072-.119-.149-.166-.23-.159.204-.369.365-.609.465ZM54.403,85.703c.029.039.055.079.08.121.036-.043.075-.084.116-.124-.028-.038-.054-.078-.079-.118-.037.042-.076.083-.117.121ZM50.812,85.424c.023.032.046.064.066.098.039-.045.079-.088.123-.129-.023-.032-.045-.064-.065-.098-.039.046-.081.089-.125.129Z"/>
    <path class="st0" d="M51.832,115.42c-.313,0-.629-.098-.898-.299l-2.46-1.842c-.042-.031-.082-.064-.12-.1,0,.126,0,.244.002.351.008.417-.159.819-.46,1.108-.301.289-.705.435-1.125.417l-3.002-.172c-.793-.045-1.414-.703-1.414-1.498,0-.222.001-.446.004-.671-.048.004-.097.004-.146.005-.398-.006-.777-.17-1.054-.456l-1.989-2.053c-.285-.294-.437-.691-.422-1.1s.196-.793.502-1.065c.311-.277.654-.575,1.012-.877-.172-.063-.332-.158-.472-.281-.308-.271-.492-.656-.508-1.065l-.109-2.685c-.017-.405.132-.8.411-1.094.28-.294.667-.462,1.072-.467.57-.006,1.492-.044,2.479-.116l.096-.853c.091-.812.81-1.399,1.63-1.327l2.959.277c.41.039.786.244,1.041.568.254.324.364.738.304,1.146-.056.376-.096.754-.18,1.685,1.791-.021,3.423.502,4.632,1.549,1.399,1.212,2.074,2.964,1.902,4.932-.158,1.81-1.039,3.698-2.547,5.46-.295.346-.716.525-1.141.525ZM45.372,111.969h.002c.035-1.24.116-2.806.23-4.391.042-.596.435-1.109.999-1.308.14-.049.278-.094.413-.134-.245-.052-.476-.165-.67-.333-.363-.315-.554-.786-.512-1.265.047-.543.087-.995.121-1.374-.096.446-.388.816-.782,1.019.035.027.07.055.103.085.344.313.523.768.485,1.231l-.049.568c-.041.458-.296.941-.681,1.193-.303.197-.694.482-1.135.821.245-.019.503.037.737.152.542.266.871.832.835,1.434-.046.776-.078,1.545-.096,2.3ZM51.531,111.82h.002c.025-.038.05-.077.074-.116-.024.039-.05.077-.076.116ZM50.327,106.096c.754.275,1.3.752,1.633,1.284.542.866.72,2.16.029,3.634.307-.632.49-1.251.542-1.84.087-.999-.216-1.83-.878-2.403-.363-.315-.813-.541-1.326-.675ZM48.524,108.869c-.044.709-.081,1.403-.109,2.044,1.021-1.056,1.082-1.815,1.003-1.94-.041-.064-.327-.178-.894-.104Z"/>
    <path class="st0" d="M46.314,132.428c-.261,0-.524-.068-.761-.208l-2.596-1.528c-.417-.246-.69-.678-.733-1.16-.031-.346.06-.687.249-.968-1.433-.416-2.152-1.352-2.442-1.852-.812-1.397-.683-3.186.33-4.556.04-.054.081-.107.123-.158-.143-.018-.287-.036-.434-.054-.8-.1-1.378-.815-1.308-1.619l.243-2.78c.036-.41.238-.787.56-1.043.322-.257.734-.371,1.143-.312.956.134,2.252.281,3.746.426.059-.238.175-.46.342-.646.275-.305.664-.484,1.075-.496l3.008-.08c.426-.017.801.144,1.091.429.29.285.452.676.449,1.083,0,.055,0,.111,0,.169.435.025.906.049,1.424.07.414.017.802.203,1.073.515.271.312.401.723.36,1.134l-.25,2.485.939-.003h.005c.81,0,1.473.642,1.499,1.452.015.465.023,1.43.017,2.356-.006.817-.666,1.479-1.483,1.489l-1.646.019c-.167.011-.351-.027-.515-.085-.1.021-.203.032-.309.032l-1.313.002c-.159,1.981-1.18,4.021-2.9,5.519-.28.244-.631.369-.985.369ZM46.305,125.733c.141.077.271.177.383.298.249.269.386.613.398.966.209-.822.177-1.632-.144-2.283-.18-.364-.204-.786-.066-1.168.027-.076.054-.155.079-.237-.133.143-.295.26-.479.343-.063.029-.128.053-.194.072.259.471.335,1.027.208,1.563-.038.159-.1.309-.186.446ZM43.572,124.596c-.052.219,0,.473.138.664.136.188.299.249.367.255.302.024.62-.135.781-.404.036-.06.063-.124.082-.19l-1.368-.324ZM45.031,124.941h.01-.01ZM44.136,123.765c-.076.039-.138.086-.19.141l1.007.96c.046-.223-.002-.467-.142-.679-.2-.303-.511-.417-.675-.422ZM46.447,119.682c.494.168.864.583.979,1.087.173-.426.533-.75.972-.877-.544-.203-.936-.71-.973-1.311-.064.295-.216.567-.441.777-.156.146-.339.255-.537.323Z"/>
    <path class="st0" d="M49.994,139.325c-.132,0-.265-.018-.395-.053-.417-.114-.764-.402-.953-.79-.219-.449-1.811-2.625-2.333-3.19-.271-.294-.415-.685-.397-1.084s.194-.776.491-1.045l1.963-1.78c.609-.552,1.548-.51,2.106.09.412.443,2.604,2.998,3.091,4.457.215.644-.029,1.352-.596,1.726l-2.149,1.421c-.248.164-.536.249-.827.249Z"/>
    <path class="st0" d="M43.246,156.119c-.699,0-1.32-.489-1.467-1.193-.113-.541-.228-1.441-.32-2.284-1.048-.003-1.947-.014-2.588-.029-.412-.011-.802-.19-1.078-.497-.276-.308-.413-.714-.379-1.125l.249-3.051c.025-.304.139-.58.315-.804-.155-.262-.228-.568-.204-.876l.229-3.034c.03-.399.219-.771.525-1.03.305-.26.703-.387,1.102-.351.292.025.629.045,1.004.06-.012-.313-.021-.606-.026-.873-.008-.4.144-.786.421-1.073.278-.288.659-.452,1.059-.458l3.239-.042c.41,0,.786.15,1.072.431.286.281.447.665.448,1.065,0,.186.009.483.025.858.631-.028,1.173-.055,1.57-.083.413-.028.819.115,1.123.396.304.281.478.675.481,1.089l.023,3.039c.001.192-.034.377-.099.547.283.28.445.663.445,1.065l.005,3.037c0,.753-.556,1.39-1.303,1.489-.329.043-.809.078-1.327.104.08.636.152,1.071.201,1.295.088.404.005.827-.229,1.168s-.598.57-1.007.634l-3.279.509c-.078.012-.155.018-.231.018ZM42.813,149.629c.772,0,1.419.587,1.493,1.358.068.72.138,1.373.204,1.918l.305-.047c-.063-.497-.125-1.061-.182-1.658-.04-.414.095-.825.37-1.137.275-.312.667-.494,1.083-.505.491-.014.942-.03,1.334-.048v-.028c-.469.021-.996.038-1.562.049-.811-.029-1.457-.588-1.522-1.375l-.133-1.584c-.035-.41.101-.815.374-1.123.273-.307.66-.489,1.071-.502.269-.009.836-.028,1.412-.06v-.082c-.472.021-.991.042-1.538.064-.807.027-1.5-.584-1.557-1.393-.026-.365-.047-.7-.063-1.001l-.237.003c.015.271.032.555.053.848.029.415-.116.823-.399,1.127-.29.311-.696.489-1.122.477-.463,0-.903-.006-1.312-.018l-.002.027c.451.012.96.02,1.539.025.777.007,1.421.608,1.481,1.383l.128,1.637c.032.415-.109.824-.39,1.131-.281.307-.676.482-1.092.486-.687.005-1.38.005-2.01-.005l-.003.04c.76.005,1.529.003,2.252-.01h.026Z"/>
    <path class="st0" d="M45.53,172.382c-.06,0-.12-.004-.181-.011-1.752-.211-6.681-1.477-8.334-2.036-.762-.258-1.185-1.071-.958-1.843l.826-2.819c.072-.246.202-.46.371-.631-.112-.276-.141-.582-.077-.879l.581-2.714c.018-.081.041-.159.071-.234-.069-.068-.132-.143-.188-.224-.235-.344-.317-.77-.227-1.176l.625-2.801c.171-.767.909-1.274,1.684-1.156,2.428.36,6.434,1.308,8.087,1.913.711.26,1.117,1.01.945,1.748l-.667,2.87c-.091.393-.336.731-.679.94.008.149-.006.303-.045.455l-.687,2.688c-.013.052-.029.103-.047.152.306.106.572.31.755.582.227.338.307.754.221,1.151l-.611,2.839c-.15.698-.767,1.185-1.465,1.185Z"/>
    <path class="st0" d="M41.862,188.345c-.152,0-.306-.007-.46-.021-.183-.016-.29-.023-.655-.108,0,0-.002,0-.004,0-1.116-.264-1.999-.798-2.59-1.527-.093.034-.19.059-.292.074l-2.968.446c-.399.061-.811-.045-1.135-.292-.323-.248-.531-.615-.578-1.02-.26-2.258-.297-4.598-.106-6.766.155-1.77.46-3.51.909-5.172.2-.743.934-1.214,1.69-1.09l2.851.466c.414.067.78.305,1.01.654.165.25.25.54.248.834.002-.002.005-.004.008-.006.312-.25.71-.365,1.107-.32.137.016.277.03.421.045.033-.296.153-.579.35-.81.272-.319.666-.51,1.085-.525l2.901-.108c.792-.046,1.467.56,1.548,1.346.012.117.023.24.034.367.212-.006.399-.017.561-.031.418-.037.827.1,1.136.378.31.278.49.673.498,1.089l.053,2.915c.015.797-.596,1.466-1.391,1.523-.274.02-.563.034-.869.043-.021.356-.043.674-.067.961.658.449,1.354,1.033,1.833,1.558.517.564.526,1.428.02,2.003l-1.726,1.963c-.507.577-1.371.68-1.998.23-.087-.062-.185-.138-.291-.223-.801.702-1.922,1.124-3.134,1.124ZM41.691,185.136c.044.019.088.031.129.038.283.044.513-.182.639-.398.265-.452.168-.954-.034-1.229-.113-.178-.382-.329-.677-.351-.179,0-.325.069-.454.215-.208.233-.295.586-.227.918l1.469-.303-1.435.438c.098.32.323.549.543.653l.038-.424.007.443ZM43.594,182.907c.172.196.299.426.377.681.012.037.021.075.03.113.041-.021.083-.039.126-.056.125-.049.254-.079.384-.093-.303-.298-.47-.716-.447-1.151-.114.201-.274.375-.471.506ZM41.661,183.192h-.002.002ZM39.003,179.316c-.05.512-.082,1.021-.097,1.534.06-.045.121-.089.183-.132.274-.186.571-.337.884-.453-.462-.145-.819-.504-.97-.949ZM34.567,179.262h.01-.01ZM43.286,177.632c.541.132.962.554,1.098,1.085.175-.479.586-.841,1.089-.95-.562-.131-1.003-.577-1.125-1.143-.073.234-.203.449-.381.625-.191.188-.427.318-.681.383Z"/>
    <path class="st0" d="M41.391,205.628c-.275,0-.554-.075-.802-.233-2.758-1.747-3.974-3.859-3.635-6.299-.912-.024-1.883-.043-2.902-.055-.818-.01-1.478-.673-1.482-1.491l-.017-2.911c-.005-.823.655-1.496,1.478-1.509l.211-.003c-.251-.68-.476-1.399-.725-2.303-.105-.384-.054-.794.142-1.14.197-.346.523-.6.907-.705l2.593-.713c.39-.108.811-.052,1.161.155s.601.547.695.942c.149.624.307,1.182.472,1.67.54-.738,1.012-1.451,1.271-1.945.378-.723,1.262-1.012,1.993-.649l2.581,1.274c.375.185.656.519.774.919.119.401.064.834-.15,1.193-.283.477-.696,1.094-1.161,1.747.068.007.136.014.204.021.398.042.763.242,1.013.556.25.313.364.713.317,1.111l-.346,2.934c-.096.819-.837,1.401-1.656,1.315-.453-.051-.926-.097-1.412-.137-.059.136-.066.201-.067.215h0c.013,0,.184.262,1.075.737.384.205.661.566.757.991s.003.871-.255,1.222l-1.825,2.479c-.293.397-.747.61-1.209.61ZM39.972,200.43c.138.527.479,1.054,1.1,1.604l.004-.006c-.491-.423-.905-.943-1.104-1.598ZM38.675,196.148c.109.005.217.009.324.013.499.021.955.287,1.216.711.144.232.219.496.224.761.145-.254.3-.486.445-.69.235-.33.589-.548.979-.612-.005,0-.01,0-.015,0-.559-.039-1.05-.386-1.272-.9-.108-.251-.145-.521-.112-.781-.34.401-.67.769-.973,1.075-.223.226-.509.374-.817.426Z"/>
    <path class="st0" d="M37.182,221.721c-.649,0-1.231-.421-1.43-1.049l-.85-2.694c-.137-.435-.069-.907.184-1.285.158-.236.378-.42.631-.534-.224,0-.464.006-.721.016-.425.021-.839-.149-1.136-.456-.296-.306-.449-.724-.418-1.149.043-.616.116-1.438.21-2.286-.355-.036-.708-.076-1.053-.121-.395-.052-.753-.258-.996-.574-.242-.315-.349-.715-.297-1.109l.373-2.823c.106-.807.836-1.384,1.647-1.295l.507.055c.228.024.444.048.662.07.062-.346.124-.657.18-.917.167-.769.893-1.285,1.679-1.165l2.909.418c.415.06.786.29,1.023.635.237.346.319.774.226,1.184-.017.071-.033.148-.049.229.565.021,1.07.024,1.492.034h.003c.408,0,.798.166,1.081.46.283.295.435.692.417,1.102l-.11,2.701c-.021.535-.324.999-.765,1.247.222.174.425.363.608.567.808.9,1.179,2.019,1.072,3.234-.251,2.889-3.179,5.203-6.96,5.502-.04.003-.08.005-.119.005ZM40.891,214.913c.169.334.243.703.209,1.078-.045.519-.264.993-.63,1.406.466-.428.758-.925.803-1.445.034-.384-.067-.691-.316-.969-.021-.023-.043-.047-.066-.07ZM36.575,213.175c.056.002.111.005.165.008-.059-.123-.101-.252-.125-.386-.013.125-.027.251-.04.378ZM36.009,209.591c.194.097.367.236.505.41.172.218.279.477.312.747.131-.576.587-1.014,1.15-1.134-.169-.092-.321-.217-.445-.37-.182-.224-.294-.493-.327-.774-.142.584-.619,1.019-1.195,1.121Z"/>
    <path class="st0" d="M34.542,238.059c-.654,0-1.24-.427-1.434-1.062l-.843-2.767c-.129-.426-.063-.887.18-1.259.021-.033.044-.065.069-.097-.409.044-.82-.094-1.131-.368-.338-.298-.524-.732-.507-1.183.057-1.486.181-4.148.267-5.542.024-.404.211-.78.518-1.045s.705-.396,1.11-.357l.786.068c-.051-.367.036-.741.245-1.05l1.474-2.168c.458-.672,1.366-.857,2.05-.42.56.358,1.943,1.06,3.506,1.704.398.165.707.492.847.899.14.408.098.855-.116,1.23l-1.345,2.359c-.19.333-.491.567-.832.681.809.312,1.494.749,2.025,1.302.898.935,1.312,2.128,1.196,3.452-.382,4.371-4.702,5.297-7.917,5.614-.05.005-.099.007-.148.007ZM38.668,230.644c.084.077.162.16.233.249.456.575.564,1.318.287,1.988-.308.746-1.045,1.326-2.234,1.75,2.51-.682,2.607-1.793,2.665-2.455.04-.454-.078-.807-.37-1.111-.153-.158-.349-.3-.581-.421ZM33.982,228.927c-.012.256-.023.512-.035.761.137-.009.277-.017.418-.022-.196-.206-.328-.463-.384-.738ZM37,227.159c.125.011.249.023.372.038-.119-.058-.241-.118-.365-.18-.002.046-.004.093-.006.142Z"/>
    <path class="st0" d="M39.697,252.477c-.33,0-.66-.108-.934-.326l-2.248-1.787c-.305-.242-.502-.592-.553-.975-1.555,1.554-3.405,2.229-5.215,1.746-2.478-.669-3.93-2.776-3.703-5.368.369-4.217,4.382-7.331,8.943-6.923,4.67.408,7.79,3.785,7.419,8.029-.18,2.053-1.154,3.918-2.745,5.253-.278.233-.621.351-.964.351ZM39.223,243.28c.649.686,1.048,1.539,1.146,2.485.101.973-.127,1.977-.643,2.911.386-.624.627-1.334.691-2.065.125-1.437-.368-2.543-1.194-3.331ZM35.349,241.811c.225.107.423.27.572.478.158.22.251.474.276.734.175-.294.447-.523.774-.643.231-.086.477-.11.716-.078-.614-.255-1.285-.411-1.963-.471-.125-.011-.251-.018-.376-.021Z"/>
    <path class="st0" d="M39.048,269.621c-.022,0-.044,0-.066,0-1.139-.05-2.605-.154-4.484-.319-2.409-.21-4.904-.488-6.846-.763-.798-.113-1.365-.838-1.282-1.64.174-1.687.333-3.53.474-5.497-.099-.008-.197-.016-.292-.024-.818-.071-1.427-.787-1.366-1.606l.209-2.783c.061-.814.751-1.42,1.58-1.386l.246.014c.025-.436.05-.867.071-1.295.019-.401.198-.778.497-1.046.299-.268.689-.405,1.094-.38l2.876.179c.185.012.365.058.53.133.298-.28.708-.432,1.149-.402l2.691.219c.287.023.559.129.785.3.187-.055.382-.075.579-.053l2.738.311c.397.045.76.247,1.008.561.248.314.36.714.312,1.11l-.126,1.039h0c.402.008.784.177,1.06.469.276.292.423.683.409,1.085l-.1,2.793c-.029.825-.715,1.502-1.546,1.445l-.56-.018c-.118.891-.196,1.553-.249,2.166-.002.025-.005.052-.009.077.049.046.094.094.137.146.265.322.384.739.329,1.152l-.364,2.715c-.101.748-.739,1.301-1.486,1.301ZM29.497,265.757c.124.016.248.031.375.047-.137-.116-.253-.255-.341-.411-.011.122-.022.243-.034.364ZM37.43,259.079c.181.091.343.219.476.377.077.092.142.19.194.296.207-.344.545-.595.941-.688-.171-.09-.325-.213-.452-.364-.09-.107-.163-.225-.219-.35-.198.359-.538.626-.939.729ZM33.446,258.884c.183.088.348.213.484.37.099.114.179.241.239.377.188-.336.501-.59.873-.703-.181-.089-.343-.214-.477-.369-.094-.109-.171-.231-.23-.361-.195.333-.514.582-.889.687ZM29.064,258.635c.19.086.362.212.503.371.13.147.229.317.292.499.185-.386.529-.677.941-.795-.188-.088-.356-.215-.494-.374-.137-.158-.238-.341-.299-.536-.085.193-.211.369-.371.513-.167.149-.363.259-.573.322Z"/>
    <path class="st0" d="M35.166,286.719c-.041,0-.082-.002-.123-.005l-2.674-.217c-.402-.032-.775-.227-1.033-.537-.012-.014-.022-.027-.033-.041-.214.064-.445.079-.679.042l-2.69-.452c-.417-.07-.784-.312-1.013-.668-.229-.355-.297-.79-.188-1.198.096-.361.178-.685.249-.996-.092.051-.186.102-.28.151-.642.341-1.437.167-1.883-.406l-1.673-2.152c-.274-.354-.377-.812-.279-1.249.098-.438.386-.808.786-1.01.903-.458,1.542-.793,2.052-1.101-.026-1.559.057-4.143.23-7.084.024-.405.21-.782.518-1.048.307-.265.704-.395,1.111-.358l.789.069c2.999.148,5.037.277,6.759.429,1.218.107,2.396.238,3.823.426.812.106,1.388.846,1.294,1.659-.143,1.238-.553,4.305-.94,6.831.445.355.982.728,1.763,1.229.35.226.59.585.664.994s-.025.83-.273,1.164l-1.618,2.172c-.493.662-1.429.8-2.093.311-.304-.224-.579-.429-.833-.622-.064.711-.135,1.406-.244,2.341-.089.762-.735,1.326-1.488,1.326ZM36.177,276.672c.08.045.156.098.227.157.024-.164.049-.329.074-.495-.083.127-.185.241-.3.338ZM28.701,276.281s.003.003.004.004c.066-.05.137-.095.211-.133-.081-.079-.153-.166-.214-.261,0,.135-.001.265-.001.39ZM36.741,274.375c.004.013.008.025.012.039.003-.023.006-.047.01-.07-.007.011-.015.021-.022.031ZM36.97,272.093c.029.058.053.118.074.179.008-.057.015-.112.022-.168-.032-.004-.064-.008-.096-.011Z"/>
    <path class="st0" d="M32.009,302.126c-.21,0-.423-.044-.623-.136-2.335-1.066-3.856-2.95-4.173-5.169-.196-1.372.079-2.761.77-4.038-.84-.076-1.702-.166-2.54-.265-.82-.096-1.408-.837-1.315-1.657l.328-2.916c.093-.822.847-1.418,1.658-1.322,3.333.374,6.026.625,8.026.747.047-.786.698-1.409,1.496-1.41l1.626-.002h.002c.171,0,.335.028.488.081.113-.027.231-.043.353-.043l1.591-.006h.005c.809,0,1.473.643,1.499,1.451.015.465.023,1.43.018,2.355-.005.818-.665,1.48-1.483,1.49l-1.646.019c-.186.006-.352-.027-.515-.085-.1.021-.203.032-.308.032h-.377c-.075.341-.268.651-.557.871-3.172,2.411-3.226,3.425-3.204,3.604.031.256.491.738,1.685,1.259.452.196.778.603.873,1.086.095.483-.053.982-.397,1.336l-2.205,2.265c-.289.296-.679.453-1.075.453ZM30.158,296.152c.005.082.013.164.025.245.132.924.674,1.737,1.555,2.356l.047-.048c-.756-.58-1.466-1.408-1.627-2.554ZM31.698,290.197c.307.178.548.463.668.812.053.156.08.316.081.475.376-.362.798-.735,1.271-1.12l-.004-.016c-.614-.039-1.286-.09-2.016-.151Z"/>
    <path class="st0" d="M31.961,16.616c-.699,0-1.32-.489-1.467-1.193-.113-.541-.228-1.441-.32-2.284-1.05.008-1.94-.013-2.587-.029-.412-.01-.802-.19-1.078-.497-.275-.307-.413-.714-.379-1.125l.249-3.051c.025-.304.139-.58.315-.804-.155-.262-.228-.568-.204-.876l.229-3.035c.03-.399.219-.771.525-1.03.305-.26.697-.387,1.102-.351.292.025.63.046,1.005.061-.013-.315-.021-.608-.026-.876-.008-.399.144-.785.422-1.072C30.024.166,30.405.002,30.804-.003l3.238-.042c.404,0,.786.15,1.072.431.286.281.447.665.448,1.065,0,.185.009.481.025.858.63-.028,1.172-.055,1.569-.083.413-.026.819.114,1.123.396.304.281.478.675.481,1.089l.023,3.039c.001.192-.033.377-.099.547.284.28.445.663.446,1.064l.006,3.037c.001.754-.557,1.392-1.305,1.49-.332.043-.811.078-1.326.104.081.635.152,1.073.201,1.298.087.404.004.826-.23,1.167-.234.34-.598.569-1.006.632l-3.279.508c-.078.012-.155.018-.231.018ZM31.528,10.125c.772,0,1.419.587,1.493,1.358.068.72.138,1.373.204,1.918l.306-.047c-.062-.497-.125-1.061-.181-1.659-.04-.414.095-.825.37-1.136.275-.312.667-.494,1.083-.505.491-.013.942-.029,1.334-.047v-.028c-.468.021-.995.037-1.561.048-.77.035-1.458-.586-1.523-1.374l-.133-1.584c-.035-.41.101-.815.374-1.122.273-.307.66-.489,1.071-.502.423-.014.931-.033,1.412-.06v-.082c-.472.021-.991.042-1.538.064-.81.038-1.501-.584-1.558-1.394-.025-.364-.046-.699-.062-1l-.236.003c.014.272.032.556.052.85.028.415-.117.823-.4,1.126s-.681.476-1.096.476c-.471,0-.919-.006-1.335-.018l-.002.027c.451.012.96.02,1.539.025.778.007,1.421.608,1.481,1.384l.127,1.638c.032.415-.109.824-.391,1.13-.281.307-.677.482-1.093.486-.694.006-1.383.004-2.009-.005l-.003.041c.673.005,1.438.005,2.251-.01h.026Z"/>
    <path class="st0" d="M34.247,32.879c-.06,0-.12-.003-.181-.011-1.756-.211-6.684-1.477-8.336-2.037-.761-.258-1.183-1.07-.958-1.841l.824-2.819c.072-.247.203-.461.372-.632-.111-.276-.14-.581-.076-.877l.581-2.715c.018-.082.041-.16.071-.235-.069-.068-.132-.143-.188-.224-.235-.343-.317-.769-.227-1.175l.625-2.801c.171-.768.905-1.266,1.685-1.157,2.431.362,6.437,1.31,8.087,1.914.711.26,1.117,1.01.945,1.748l-.667,2.87c-.091.393-.336.731-.679.94.008.15-.006.304-.045.457l-.687,2.688c-.013.052-.029.103-.047.153.306.106.571.309.754.581.227.337.306.753.221,1.151l-.609,2.839c-.15.698-.768,1.185-1.465,1.185Z"/>
    <path class="st0" d="M34.249,49.593c-.043,0-.088-.002-.132-.006l-10.117-.885c-.811-.071-1.417-.775-1.366-1.587.115-1.858.368-5.384.562-8.089.101-1.407.186-2.592.227-3.201.027-.402.215-.776.521-1.039.307-.262.703-.39,1.106-.354l1.922.168.038-.079c.334-.692.68-1.408.877-1.9.302-.75,1.146-1.126,1.904-.85l2.487.905c.394.143.71.445.872.832.161.387.154.823-.021,1.204-.055.119-.112.242-.17.367.912.087,1.783.173,2.567.251.823.083,1.424.815,1.343,1.638-.177,1.812-.914,9.201-1.131,11.281-.08.77-.73,1.344-1.49,1.344ZM32.496,46.434l.41.036c.039-.382.081-.804.126-1.252-.012.103-.025.204-.039.302-.053.368-.236.686-.498.914ZM25.723,45.841l.314.027c-.134-.172-.228-.37-.277-.579-.013.189-.025.373-.037.551ZM32.945,43.65c.125.243.186.522.161.813-.006.077-.013.154-.02.232.054-.534.11-1.096.167-1.666-.054.234-.162.445-.308.62ZM25.947,42.617c-.019.268-.038.535-.057.798.053-.137.126-.264.214-.377-.073-.13-.126-.271-.158-.421ZM33.232,41.095c.085.162.14.337.163.518.034-.336.067-.67.099-.996-.058.177-.147.339-.262.479ZM26.126,40.106c-.019.261-.038.527-.057.795.053-.143.126-.276.217-.395-.072-.124-.126-.258-.16-.4ZM33.328,38.127c.179.214.299.477.338.763.025-.254.049-.496.072-.723-.135-.013-.272-.026-.41-.04ZM26.309,37.553c-.016.223-.033.46-.051.709.096-.269.266-.5.484-.672l-.433-.038ZM28.85,37.327c.24.014.476.028.708.043-.068-.077-.128-.161-.18-.251-.057-.101-.102-.206-.134-.314-.002.004-.004.009-.006.013-.093.2-.227.372-.388.509Z"/>
    <path class="st0" d="M31.919,66.717c-.044,0-.088-.002-.132-.006l-2.871-.251c-.411-.036-.788-.239-1.044-.562-.256-.323-.368-.737-.31-1.145.009-.062.018-.126.026-.193-1.427.572-2.586,1.001-3.143,1.205-.714.26-1.508-.054-1.851-.73l-1.248-2.459c-.182-.358-.211-.772-.087-1.149-.306-.284-.493-.693-.48-1.143l.068-2.434c.011-.404.185-.786.482-1.06s.694-.418,1.095-.396c.007,0,.015,0,.022,0,.083-1.358.178-2.735.256-3.871.049-.71.092-1.326.121-1.783.025-.403.212-.779.519-1.043.306-.264.706-.394,1.108-.357.774.067,1.473.12,2.016.156.394-.336.743-.598,1.105-.872.201-.151.415-.313.657-.502.564-.441,1.36-.423,1.904.047l1.815,1.569c.095.082.178.175.249.275.413.042.818.086,1.213.128.812.087,1.406.809,1.334,1.623-.048.553-.211,2.185-.41,4.163.244.121.456.301.596.533l1.357,2.251c.425.705.203,1.62-.498,2.051-.566.349-1.284.725-2.028,1.095-.148,1.517-.276,2.805-.354,3.521-.083.767-.732,1.337-1.49,1.337ZM29.381,60.694c.318,0,.634.102.898.298.223.167.392.389.493.639.028-.291.057-.59.087-.896.051-.519.368-.975.836-1.203.165-.08.333-.163.502-.246-.133-.041-.263-.101-.383-.179-.244-.16-.432-.383-.547-.64-.004.026-.008.052-.013.077-.13.748-.805,1.289-1.555,1.242-.341-.018-.691-.038-1.047-.059.063.124.109.259.136.402.045.24.029.48-.037.702.012-.005.024-.01.036-.015.19-.082.392-.122.593-.122ZM25.03,58.889c.115.001.229.003.342.004-.062-.1-.111-.207-.148-.318-.052.113-.117.219-.194.314ZM31.58,52.967c.01.019.02.039.03.059.001-.019.003-.037.005-.055-.012-.001-.023-.002-.035-.003ZM25.715,52.451c-.003.04-.005.08-.008.121.025-.04.053-.079.082-.116-.024-.002-.049-.003-.074-.005ZM28.195,51.969c.269.022.537.045.806.069-.041-.077-.075-.159-.102-.244-.037-.118-.06-.239-.067-.358-.208.163-.412.331-.638.533Z"/>
    <path class="st0" d="M31.237,80.696c-.33,0-.66-.108-.933-.326l-2.248-1.787c-.305-.242-.502-.593-.554-.976-1.556,1.555-3.407,2.231-5.216,1.746-2.478-.668-3.93-2.775-3.703-5.368.174-1.992,1.233-3.881,2.907-5.182,1.691-1.315,3.835-1.936,6.037-1.74,2.167.189,4.104,1.051,5.456,2.426,1.453,1.478,2.149,3.468,1.962,5.603-.18,2.054-1.154,3.919-2.744,5.253-.278.233-.621.351-.964.351ZM30.917,71.67c.56.654.903,1.445.994,2.315.104.997-.139,2.027-.683,2.982.41-.637.662-1.366.729-2.137.107-1.227-.252-2.317-1.04-3.161ZM26.889,70.031c.225.107.422.27.572.478.158.219.251.473.276.734.175-.294.447-.523.774-.643.23-.084.475-.11.712-.078-.592-.248-1.254-.408-1.959-.47-.125-.011-.251-.018-.376-.021Z"/>
    <path class="st0" d="M31.246,98.369c-.043,0-.087-.002-.131-.006l-2.709-.237c-.556-.048-1.015-.395-1.232-.868l-1.111.35c-.392.123-.814.082-1.173-.116-.359-.197-.622-.533-.727-.929l-.157-.604c-.085-.335-.152-.594-.237-.871-.062.002-.127.001-.193-.005l-6.277-.549c-.804-.07-1.409-.765-1.367-1.571.111-2.167.312-4.939.459-6.964.058-.799.108-1.484.141-1.972.054-.822.765-1.446,1.583-1.397,2.688.154,5.037.376,6.355.514l.04-.634c.051-.825.768-1.451,1.587-1.404.193.011.386.021.58.031.092-.211.232-.4.411-.551.305-.256.695-.38,1.096-.345l2.852.25c.613.053,1.107.468,1.292,1.016l.55.048c.814.071,1.421.781,1.366,1.596l-.167,2.452c.493.274.809.815.769,1.414l-.187,2.749c-.026.38-.195.735-.472.994.074.196.109.41.094.632l-.162,2.479c-.026.403-.213.778-.52,1.041-.207.177-.455.293-.718.339-.048.646-.094,1.249-.137,1.749-.034.396-.225.764-.53,1.02-.271.228-.613.352-.965.352ZM29.692,92.325c.066.053.128.111.184.175.122.138.221.296.29.466.088-.164.206-.311.35-.434.07-.06.146-.113.225-.159-.08-.063-.154-.134-.22-.213-.1-.119-.18-.252-.238-.393-.142.237-.347.431-.59.559ZM28.306,87.82c.466.029.938.06,1.399.09-.114-.078-.218-.171-.309-.279-.165-.196-.274-.43-.322-.677-.131.384-.412.694-.768.867ZM28.379,84.144c.183.086.349.209.485.364.167.189.282.416.338.657.084-.239.228-.455.421-.626.161-.142.348-.246.548-.309-.363-.176-.641-.492-.77-.873l-.082-.007c-.185.386-.529.676-.941.794Z"/>
    <path class="st0" d="M30.488,115.305c-.04,0-.081-.001-.122-.005l-2.513-.202c-.4-.032-.771-.224-1.03-.532-.154-.185-.261-.401-.313-.632-.103.013-.21.016-.319.006l-5.83-.51c-.071-.006-.141-.017-.209-.033-.088.188-.215.359-.375.498-.302.262-.699.392-1.094.364l-2.514-.184c-.4-.029-.771-.217-1.031-.521-.26-.305-.388-.701-.354-1.1l1.236-14.749c.069-.823.797-1.435,1.615-1.37l2.512.202c1.014.064,1.859.146,2.722.23.433.042.871.084,1.343.125.168.015.331.057.482.125.198-.071.413-.102.636-.082l2.438.213c1.864.182,2.841.285,4.161.456.792.103,1.365.808,1.304,1.604-.138,1.78-.598,7.242-.938,11.138l-.314,3.588c-.068.78-.723,1.369-1.493,1.369Z"/>
    <path class="st0" d="M25.38,130.832c-.588,0-1.155-.023-1.69-.07-5.912-.517-6.573-3.601-6.583-4.903v-.005c-.003-.851.25-2.002,1.274-3.213-.169-.305-.233-.669-.158-1.033.078-.375.148-.725.214-1.052-.131-.015-.265-.029-.402-.044l-.222-.024c-.401-.044-.769-.249-1.018-.567-.249-.318-.359-.723-.306-1.124l.364-2.715c.106-.794.818-1.369,1.618-1.294l1.076.094s.001-.009.002-.013c.14-.806.9-1.349,1.708-1.226l2.941.456c.414.064.782.299,1.016.647.109.162.184.342.223.529.182.005.363.008.544.011.41.006.799.179,1.078.479.279.3.423.702.398,1.11l-.161,2.679c0,.012-.001.023-.002.034.055.118.094.244.116.374l.455,2.643c.071.41-.032.811-.257,1.125.278.665.043,1.446-.577,1.843l-.025.016c.008.008.016.016.023.024.292.305.443.719.415,1.14l-.181,2.677c-.052.777-.69,1.384-1.469,1.398-.139.003-.278.004-.415.004ZM22.894,122.644c.403,0,.798.162,1.087.466-.003-.192.031-.385.103-.569.025-.064.054-.125.087-.184-.084.033-.168.067-.252.103-.424.174-.904.147-1.305-.075-.091-.051-.183-.102-.288-.158.006.044.01.088.012.133.006.138-.007.274-.037.406.191-.083.393-.123.593-.123ZM21.043,117.966c.151.097.285.221.395.368.132.178.222.38.266.592.171-.526.618-.909,1.151-1.008-.124-.088-.235-.196-.329-.321-.169-.226-.27-.493-.293-.769h-.008c-.135.59-.608,1.029-1.181,1.138Z"/>
    <path class="st0" d="M25.636,147.387c-.264,0-.529-.069-.768-.211-1.705-1.017-3.142-2.404-4.239-4.078-.975,1.073-2.199,2.1-3.809,3.213-.639.441-1.51.323-2.006-.274l-1.931-2.32c-.276-.332-.396-.768-.329-1.194.067-.427.316-.804.682-1.034,1.147-.723,2.154-1.408,2.989-2.369-.441-.021-.867-.039-1.272-.056-.815-.033-1.454-.712-1.438-1.527l.056-2.904c.007-.404.178-.788.473-1.065.294-.277.675-.428,1.093-.405.945.042,2.121.114,3.393.197.095-.62.167-1.261.216-1.936.03-.398.217-.769.521-1.029.304-.26.703-.389,1.097-.355l2.926.238c.398.032.767.222,1.025.528.257.305.383.701.348,1.099-.058.661-.127,1.284-.208,1.877,1.383.109,2.62.212,3.521.304.398.041.764.239,1.015.551.251.312.367.711.323,1.109l-.322,2.864c-.092.818-.831,1.41-1.646,1.324-.525-.055-1.192-.118-1.958-.185.712,1.033,1.668,1.858,3.138,2.798.383.245.635.65.684,1.102.049.452-.109.902-.431,1.223l-2.08,2.078c-.289.289-.673.438-1.061.438ZM19.556,136.434c.234.125.435.313.576.547.255.422.285.943.082,1.393-.154.34-.317.66-.488.962.308-.345.763-.532,1.232-.497.257.02.5.104.708.24-.069-.172-.137-.348-.203-.528-.175-.479-.095-1.015.214-1.421.185-.243.436-.42.716-.515-.348-.075-.661-.271-.878-.559-.167-.219-.269-.478-.297-.747-.176.701-.823,1.186-1.556,1.132-.035-.002-.07-.005-.105-.007Z"/>
    <path class="st0" d="M25.059,163.489c-.23,0-.46-.053-.67-.158l-2.546-1.271c-.234-.117-.432-.292-.575-.506-.156-.01-.313-.044-.466-.105l-1.125-.452c-.19.138-.416.231-.664.268l-.691.101c-1.47.218-2.631.391-3.79.211-2.684-.396-2.984-2.114-2.907-3.912v-.003c.021-.471.056-1.04.099-1.666-.181-.062-.351-.157-.499-.285-.307-.266-.494-.645-.517-1.05l-.156-2.761c-.022-.397.114-.787.379-1.084s.637-.477,1.034-.499c.073-.004.151-.009.234-.015.032-.344.063-.669.092-.97l.11-1.176c.073-.824.792-1.434,1.625-1.362l2.689.235c.401.035.772.23,1.028.542.256.312.376.712.333,1.114-.036.333-.074.691-.113,1.065.109-.014.213-.027.312-.04l.003-.121c.025-.811.69-1.454,1.499-1.454h.017c2.307.024,5.696.175,8.29.523.802.107,1.374.832,1.292,1.637-.557,5.512-1.092,8.444-2.966,12.345-.174.361-.486.639-.866.769-.158.055-.322.081-.486.081ZM14.652,158.682h.01-.01ZM14.627,158.541c.076.02.189.045.353.068.501.078,1.094.037,1.833-.06-.289.02-.591.031-.933.033h-.007c-.407,0-.796-.165-1.079-.458-.066-.068-.125-.143-.176-.222-.011.328-.003.523.009.638ZM14.008,153.133c.139.07.268.161.381.272.104.103.19.218.26.342.154-.457.522-.815.985-.956-.144-.07-.277-.164-.394-.279-.097-.096-.179-.203-.246-.318-.159.451-.526.803-.987.939ZM22.012,151.191c.207.102.39.25.533.438.061.08.114.166.157.256.182-.292.458-.513.78-.625-.483-.027-.975-.051-1.469-.069ZM25.655,151.414c.173.089.329.213.457.364.028.033.054.067.079.102.016-.136.031-.273.047-.413-.189-.019-.383-.036-.582-.053Z"/>
    <path class="st0" d="M12.768,178.568c-.684,0-1.301-.47-1.46-1.163-.513-2.229-.659-4.666-.434-7.245h0c.156-1.785.492-3.649.996-5.541.212-.793,1.021-1.269,1.818-1.067l2.935.745c.396.101.735.359.936.715.202.356.249.779.131,1.171-.702,2.336-1.017,5.111-.894,7.337l.251-.819c.122-.397.403-.727.777-.909.375-.183.807-.201,1.196-.051,1.51.581,3.275.888,5.245.91.431.005.839.195,1.12.521.281.327.408.759.349,1.186l-.385,2.768c-.097.697-.667,1.233-1.369,1.288-1.746.138-4.825-.376-6.861-1.142-.037-.014-.072-.028-.106-.045-.214.328-.548.561-.932.646l-2.986.661c-.109.023-.218.035-.326.035ZM13.916,174.929c.014.114.029.227.045.34h.003c-.017-.112-.033-.226-.048-.34ZM23.914,171.531c-1.037,0-3.759-.195-5.345-.367-.402-.044-.77-.247-1.019-.565-.25-.318-.36-.724-.307-1.124l.367-2.751c.108-.811.854-1.386,1.657-1.292,1.329.151,4.05.327,4.862.323.407-.002.804.159,1.091.452.287.293.44.691.426,1.102l-.099,2.774c-.028.787-.66,1.419-1.448,1.445-.054.002-.116.003-.186.003Z"/>
    <path class="st0" d="M20.161,196.984c-.957,0-1.83-.036-2.654-.108-3.733-.326-6.134-1.476-9.018-3.351-.676-.439-.884-1.336-.47-2.028l1.377-2.302c.014-.022.028-.045.042-.067-.027-.11-.041-.225-.042-.339-.626-.204-1.062-.807-1.032-1.493l.116-2.574c.02-.434.222-.816.529-1.077-.182-.367-.206-.793-.066-1.178l.858-2.365c.274-.754,1.09-1.163,1.856-.92,1.055.328,2.539.8,3.333,1.126.031-.398.22-.769.525-1.028.307-.259.707-.383,1.105-.35l.162.015c1.189.068,2.532.168,3.82.28,1.283.112,2.528.24,3.575.35.823.087,1.42.824,1.335,1.647-.062.598-.166,1.487-.276,2.431-.038.32-.076.647-.113.972.125.081.238.182.335.299.256.309.377.707.338,1.105-.147,1.479-.542,4.931-.738,6.563-.042.349-.2.655-.432.885l.177,1.745c.041.405-.084.811-.348,1.121-.263.312-.642.501-1.049.527-1.194.076-2.265.114-3.248.114ZM11.573,191.905c.184.106.367.208.548.306-.04-.076-.072-.157-.098-.241-.017-.053-.03-.106-.04-.161-.131.052-.27.084-.41.097Z"/>
    <path class="st0" d="M17.295,211.992c-.605,0-1.241-.029-1.915-.088-2.372-.208-4.659-.812-6.439-1.698-.658-.328-.982-1.085-.764-1.788l.93-2.992c.134-.431.455-.779.875-.947.418-.167.891-.138,1.286.081,1.93,1.071,4.571,1.502,7.644,1.247.408-.03.816.102,1.124.376s.488.663.5,1.074l.092,3.081c.023.772-.544,1.436-1.311,1.533-.639.081-1.309.121-2.021.121ZM11.443,208.018c1.243.454,2.692.767,4.198.898.697.061,1.34.086,1.944.073l-.003-.111c-2.289.036-4.335-.272-6.115-.936l-.023.075ZM18.348,205.705c-.153,0-.308-.023-.461-.072l-2.531-.817c-.729-.236-1.158-.979-1.01-1.72-1.004-.24-2.125-.53-3.419-.866l-.151-.039c-.77-.199-1.25-.965-1.095-1.744l.582-2.932c.08-.403.322-.756.669-.976.347-.22.771-.286,1.168-.188,2.809.708,4.525,1.068,6.541,1.481v-.465c0-.828.67-1.5,1.499-1.501l1.627-.002h.002c.17,0,.334.028.488.081.113-.027.231-.043.353-.043l1.591-.006h.005c.809,0,1.473.642,1.499,1.451.015.466.024,1.432.017,2.358-.007.817-.667,1.478-1.483,1.487l-1.646.019c-.201,0-.356-.029-.521-.087-.098.022-.199.034-.302.034l-1.002.002c-.309,1.236-.66,2.483-.99,3.504-.205.636-.794,1.039-1.427,1.039ZM12.897,199.641c1.439.37,2.578.653,3.615.866.398.082.747.322.965.666.049.077.09.158.124.241.061-.23.122-.462.181-.694-1.557-.32-2.969-.618-4.884-1.08h0Z"/>
    <path class="st0" d="M14.467,228.984c-.261,0-.524-.068-.761-.208l-2.595-1.528c-.417-.245-.69-.678-.733-1.16-.031-.346.06-.687.249-.968-1.435-.416-2.153-1.352-2.443-1.852-.812-1.397-.682-3.186.331-4.557.039-.053.079-.104.12-.155-.176-.021-.35-.043-.52-.064-.802-.099-1.381-.814-1.311-1.619l.243-2.78c.036-.409.238-.787.56-1.043.322-.257.733-.37,1.143-.312.973.137,2.301.287,3.835.435.061-.246.183-.476.359-.665.274-.294.655-.466,1.057-.477l3.007-.081c.424-.03.8.143,1.09.428.291.284.453.675.45,1.081,0,.056,0,.112,0,.171.403.022.843.045,1.336.064.413.017.801.203,1.072.516.271.312.401.723.36,1.134l-.279,2.776c-.076.757-.707,1.337-1.467,1.35-.379.007-.823.002-1.292-.014-.068.388-.148.747-.242,1.081.926,2.617-.1,5.915-2.585,8.079-.28.243-.631.368-.985.368ZM14.45,222.286c.144.077.277.18.392.304.248.269.385.612.397.965.209-.823.178-1.635-.142-2.286-.179-.364-.203-.785-.066-1.167.048-.136.093-.279.135-.433-.122.172-.281.317-.468.427-.093.054-.19.098-.291.13.285.482.371,1.06.234,1.613-.039.158-.104.31-.191.447ZM11.729,221.122c-.058.233-.006.492.136.691.136.189.297.251.364.257.304.022.624-.136.784-.404.039-.065.067-.135.086-.207l-1.37-.337ZM13.185,221.48h.01-.01ZM12.289,220.321c-.081.041-.188.111-.281.23l1.1.867c.045-.222-.004-.464-.143-.675-.2-.304-.512-.418-.676-.423ZM12.241,220.323h0ZM14.543,216.242c.534.195.92.683.977,1.26.136-.512.533-.909,1.031-1.054-.571-.213-.975-.762-.977-1.401,0-.02,0-.038,0-.058h-.008c-.04.347-.2.671-.457.915-.163.154-.357.269-.566.338Z"/>
    <path class="st0" d="M14.74,245.024c-.545,0-1.046-.021-1.511-.062-6.238-.546-6.569-4.522-6.422-6.206h0c.083-.95.41-1.857,1.019-2.812-.421-1.706-.683-3.935-.641-5.593.019-.76.604-1.385,1.36-1.455l2.896-.271c.418-.045.833.099,1.145.379.312.281.491.68.495,1.1.004.43.017.882.036,1.324.56-.308,1.124-.585,1.665-.818.386-.166.825-.163,1.208.009.384.172.678.498.81.897l.973,2.94c.248.75-.128,1.563-.861,1.86-1.994.81-3.387,1.972-3.788,2.552.383.089,1.222.182,3.05.148.446.009.838.167,1.128.479.291.313.434.735.394,1.16l-.278,2.977c-.07.744-.676,1.323-1.423,1.358-.443.021-.86.032-1.253.032ZM9.795,239.018c-.074.849-.227,2.613,3.695,2.957.327.028.68.045,1.063.049v-.009c-1.862-.056-3.084-.332-3.84-1.143-.52-.558-.745-1.283-.667-2.158.105-1.207,1.182-2.431,2.592-3.45-.419.272-.947.319-1.408.124-.215-.092-.403-.231-.55-.403.066.286.137.556.211.802.139.456.052.951-.232,1.333-.539.723-.813,1.326-.864,1.898ZM14.492,234.095c-.513.283-1.021.595-1.494.919.479-.322.988-.62,1.505-.887l-.011-.032Z"/>
    <path class="st0" d="M5.562,258.252c-.624,0-1.205-.391-1.418-1.012-.83-2.406-1.104-4.57-.89-7.016h0c.095-1.089.288-2.256.606-3.673.087-.391.328-.729.667-.942.339-.212.749-.282,1.139-.188l2.834.664c.783.183,1.282.951,1.131,1.742-.223,1.168-.355,2.432-.381,3.563l.146-.021c.397-.053.798.057,1.115.302.316.245.521.606.57,1.004l.305,2.503c.087.711-.34,1.383-1.02,1.606-.786.259-1.592.515-2.391.77-.66.209-1.314.417-1.947.623-.154.051-.311.074-.465.074ZM6.376,249.367c-.058.391-.102.761-.133,1.119h0c-.135,1.546-.04,2.915.319,4.369.167-.054.335-.106.503-.16.138-.044.276-.088.415-.132-.229-.05-.446-.153-.631-.305-.312-.256-.508-.626-.544-1.027-.101-1.125-.072-2.482.072-3.864ZM4.749,250.355h.01-.01ZM14.832,256.226c-.334,0-.662-.111-.928-.321-.344-.271-.552-.679-.57-1.116-.057-1.347-.352-3.322-.809-5.42-.089-.408-.004-.835.235-1.178.239-.342.61-.569,1.024-.627l2.947-.41c.709-.097,1.394.32,1.626,1.001.503,1.473.862,4.324.768,6.101-.037.687-.534,1.26-1.208,1.393l-2.795.55c-.096.019-.193.028-.29.028ZM15.777,250.314c.094.502.177.99.249,1.458-.056-.505-.129-1.009-.215-1.463l-.034.005Z"/>
    <path class="st0" d="M4.355,272.061c-.624,0-1.205-.391-1.418-1.012-.83-2.41-1.104-4.574-.89-7.017h0c.096-1.092.294-2.293.606-3.673.088-.391.329-.729.667-.941.338-.212.749-.28,1.138-.189l2.834.663c.783.184,1.282.952,1.132,1.742-.224,1.171-.356,2.435-.382,3.564l.145-.021c.397-.054.798.057,1.115.302s.522.606.57,1.004l.306,2.503c.087.71-.34,1.383-1.02,1.606-.752.247-1.523.493-2.289.736-.694.221-1.383.439-2.046.657-.155.051-.312.074-.467.074ZM5.035,264.295c-.135,1.543-.04,2.912.319,4.367.201-.063.403-.128.605-.192.103-.032.207-.065.31-.099-.228-.05-.443-.152-.627-.303-.312-.256-.509-.626-.545-1.027-.101-1.119-.072-2.475.071-3.855-.057.388-.101.757-.132,1.109h0ZM13.624,270.033c-.334,0-.661-.111-.928-.321-.344-.271-.552-.678-.571-1.115-.058-1.355-.353-3.331-.808-5.42-.089-.407-.004-.834.234-1.177.239-.343.609-.57,1.023-.628l2.945-.412c.72-.098,1.395.32,1.627,1,.504,1.475.864,4.326.77,6.102-.037.687-.534,1.26-1.208,1.393l-2.796.551c-.096.019-.193.028-.29.028ZM14.57,264.122c.094.505.177.995.249,1.466-.056-.508-.13-1.014-.216-1.471l-.033.005Z"/>
    <path class="st0" d="M14.116,280.579c-.134,0-.27-.006-.407-.018-1.213-.106-2.307-.587-3.082-1.353-.872-.862-1.291-2.025-1.181-3.274.096-1.104.615-2.183,1.424-2.962.915-.882,2.102-1.305,3.336-1.199,2.538.224,4.355,2.346,4.138,4.831-.204,2.329-1.99,3.975-4.229,3.975ZM13.617,276.428c.069.067.196.149.367.164.072.005.204,0,.255-.062.042-.052.087-.167.081-.312l-.703.209ZM13.581,276.386c.009.013.021.026.036.041l.703-.208c-.002-.05-.01-.103-.027-.157-.025-.095-.204-.286-.437-.306-.082-.014-.105.004-.159.07-.114.139-.159.362-.116.56ZM13.568,276.366h0ZM10.941,276.066h.01-.01Z"/>
  </g>
  <g>
    <path class="st1" d="M50.373,13.473c-.512.479-1.02.905-1.775,1.49l-1.199-2.002c1.236-.905,2.115-1.641,3.07-2.642-.866-.021-1.641-.053-2.184-.046l.082-2.595c.688.006,1.572.011,2.508.057l.117-1.346c-.57.113-1.103.211-1.525.301l-.488-2.483c1.911-.357,4.203-.735,5.961-.997l.381,2.473c-.477.067-1.061.142-1.668.251-.07.609-.127,1.254-.184,1.9.916.062,1.763.1,2.373.153l-.207,2.567c-.558-.031-1.402-.086-2.338-.132.658.744,1.5,1.451,2.362,2.123l-1.382,1.759c-.387-.341-.836-.778-1.249-1.23-.117,1.544-.226,2.999-.295,4.204l-2.619-.229c.057-1.062.146-2.283.259-3.574ZM60.828,16.268c-1.811.04-3.383.029-6.031-.058l.166-2.732,1.027.035c.527-2.104,1.176-4.561,1.855-7.158l2.66.576c-.618,2.115-1.326,4.638-1.826,6.619.596.016,1.139.009,1.68.021-.104-.479-.189-.938-.293-1.399l2.604-.423c.299,1.545.578,3.304.83,4.772l-2.555.481c-.033-.238-.066-.494-.117-.733Z"/>
    <path class="st1" d="M56.58,30.531c1.914-1.838,1.924-4.224.039-5.401-1.316,4.097-3.952,6.541-6.354,5.896-1.784-.48-2.762-1.904-2.598-3.787.285-3.265,3.498-5.894,7.318-5.559,3.66.32,6.367,2.834,6.055,6.403-.144,1.651-.945,3.171-2.213,4.235l-2.248-1.788ZM53.836,24.508c-2.067.072-3.338,1.588-3.473,2.714-.036.413.021.996.639,1.158.636.182,2.031-1.72,2.834-3.873Z"/>
    <path class="st1" d="M47.629,46.895l.932-2.991c2.206,1.224,5.109,1.713,8.496,1.431l.092,3.081c-1.097.139-2.291.143-3.617.027-2.17-.19-4.273-.735-5.902-1.547ZM53.927,41.428c.164-.438.352-.927.485-1.421-1.562-.317-3.387-.748-5.241-1.236l.582-2.931c3.412.858,5.53,1.243,8.141,1.778-.46,1.533-1.027,3.472-1.436,4.628l-2.531-.817Z"/>
    <path class="st1" d="M47.39,60.571c.078-.879.459-1.731,1.155-2.665-.491-1.615-.815-4.102-.772-5.833l2.896-.271c.013,1.302.104,2.955.238,3.888,1.08-.773,2.374-1.509,3.557-2.021l.973,2.941c-2.53,1.026-4.711,2.805-4.808,3.917-.119,1.364.914,1.744,4.661,1.673l-.277,2.976c-1.072.051-1.884.034-2.564-.026-3.57-.312-5.295-1.873-5.059-4.581Z"/>
    <path class="st1" d="M43.82,73.501c.147-1.686.435-3.324.863-4.913l2.851.466c-.923,3.733-1.106,6.663-.644,10.463l-2.967.445c-.248-2.136-.285-4.38-.104-6.461ZM50.34,80.994c-1.576-.373-2.392-1.384-2.266-2.819.164-1.884,1.897-2.889,3.94-2.276.084-.751.146-1.668.171-2.57-.719-.045-1.543-.135-2.508-.255l.303-2.847c.662.075,1.415.141,2.188.191-.032-.672-.064-1.127-.106-1.474l2.901-.108c.05.474.087,1.074.104,1.708.9.025,1.606.014,2.117-.032l.052,2.915c-.673.049-1.397.058-2.19.043-.061,1.513-.131,2.519-.23,3.251.66.311,1.727,1.127,2.32,1.775l-1.727,1.963c-.373-.267-.992-.846-1.486-1.179-.283,1.168-1.668,1.915-3.139,1.786-.125-.011-.197-.017-.445-.075ZM50.935,78.932c.432.038.93-.298.854-.667-.056-.186-.245-.292-.459-.33-.519-.063-1.215.255-.859.738.111.173.283.261.465.258Z"/>
    <path class="st1" d="M42.744,97.152c.13-1.688.286-3.68.41-5.097-.486.608-.928,1.112-1.406,1.612l-1.391-1.658c1.029-1.03,1.776-1.923,2.886-3.452-.503-.026-1.043-.055-1.64-.054l.191-2.604c.705.007,1.244.036,1.713.059.061-.699.135-1.343.186-1.917l2.471.271c-.051.357-.075.645-.178,1.81.414.019.827.054,1.438.108l-.227,2.583c-.447-.04-.934-.064-1.454-.11-.04.467-.101.95-.142,1.416l.588-.526c.689.801,1.056,1.158,1.732,1.688l-1.367,1.579c-.42-.362-.686-.638-1.076-1.125-.191,2.188-.346,4.145-.439,5.637l-2.295-.219ZM47.843,96.93l-.916-.08.158-1.794.86.075c.104-1.816.187-2.966.244-3.828.415.018,2.39.173,3.34.256l.044-.502-3.629-.263.211-1.988c.359.031.773.049,1.203.087l.055-.627c-.232-.02-.468-.022-.683-.042l.154-1.36c.216.019.433.02.666.04l.052-.592c-.322-.028-.611-.036-.898-.061l.21-1.988c.269.024.558.031.88.059l.07-.789,2.421.212-.067.771c.234.003.432.02,1.168.084l.065-.753,2.421.212-.065.753,1.237.108-.227,1.969-1.184-.104-.053.609.699.062-.117,1.345-.7-.061c.005.145-.004.252-.038.647l1.398.122-.227,1.968c-.986-.086-2.262-.18-3.553-.293-.013.144-.045.304-.059.464,1.094.096,2.079.2,3.279.323l-.39,3.834.538.047-.141,1.813-.609-.053c-.055.411-.088.788-.133,1.091l-2.475-.217c.059-.681.074-.861.113-1.092l-2.816-.246c-.034.395-.047.755-.077,1.095l-2.476-.217.043-1.098ZM51.193,95.415l.059-.682-.753-.066c.005.145-.004.252-.042.683l.736.064ZM51.347,93.64l.053-.592c-.253-.004-.504-.026-.793-.033-.029.341-.037.431-.03.558l.771.067ZM52.949,89.171l.056-.628-1.13-.099c-.035.394-.044.502-.039.647.271.005.559.031,1.113.079ZM53.142,87.181l.051-.592-1.166-.102-.053.609c.234.003.432.021,1.168.084ZM53.363,95.605c.02-.233.059-.464.078-.68l-.719-.063-.059.682.699.062ZM53.572,93.834c.036-.413.044-.502.072-.626l-.789-.069-.055.628.771.067Z"/>
    <path class="st1" d="M43.97,109.581c-.587.51-1.221,1.141-1.733,1.638l-1.989-2.053c1.332-1.185,2.986-2.523,3.963-3.16.018-.197.037-.413.055-.627-1.229.217-2.557.3-3.484.382l-.109-2.685c.923-.009,2.467-.091,3.816-.226.078-.698.156-1.377.234-2.076l2.959.277c-.09.606-.137,1.145-.354,3.62,3.932-.922,6.999,1.19,6.697,4.634-.13,1.489-.883,3.086-2.192,4.616l-2.46-1.842c2.93-2.907,1.514-5.723-2.272-4.392-.169,2.354-.265,4.676-.243,5.871l-3.002-.172c0-1.248.041-2.545.115-3.804Z"/>
    <path class="st1" d="M43.718,129.4c.938-.804,1.549-1.582,1.869-2.349-.261.086-.502.155-.756.169-5.682.678-4.543-6.344.188-5.243.371.087.652.184.84.309.051-.375.068-.771.104-1.184-1.936-.188-3.796-.405-5.727-.646l.243-2.78c1.374.193,3.327.399,5.479.588-.011-.507-.034-.853-.068-1.29l3.008-.08c-.004.451.021.996.023,1.593.791.051,1.706.113,2.842.158l-.279,2.777c-.707.011-1.68-.021-2.668-.088-.096,1.094-.264,1.983-.527,2.719,1.014,2.058.158,5.02-1.975,6.876l-2.596-1.528ZM45.031,124.941c.113-.478-.25-.871-.823-.921-.987-.086-1.147,1.744.535,1.113.112-.044.208-.108.288-.192ZM49.885,122.746l1.627-.002c.03.689.007,1.771-.002,2.295l-1.627.002c.002-.434.004-1.283.002-2.295ZM52.359,122.781l1.591-.005c.015.454.022,1.394.016,2.297l-1.646.019c.021-.667.018-1.662.039-2.31Z"/>
    <path class="st1" d="M47.414,134.273l1.963-1.78c.677.728,2.438,2.925,2.767,3.911l-2.149,1.421c-.322-.661-2.053-2.981-2.58-3.552Z"/>
    <path class="st1" d="M42.812,151.128c-1.376.024-2.75.013-3.903-.016l.249-3.051c.811.035,2.056.053,3.376.042l-.128-1.638c-1.156-.011-2.256-.035-3.137-.094l.229-3.034c.735.064,1.69.094,2.722.093-.064-.927-.1-1.762-.113-2.431l3.239-.042c0,.398.033,1.269.114,2.415,1.27-.052,2.395-.098,3.086-.146l.023,3.039c-.623.089-1.676.143-2.873.182l.133,1.584c1.357-.026,2.52-.087,3.087-.164l.005,3.037c-.493.065-1.528.119-2.796.153.132,1.385.285,2.519.401,3.053l-3.279.508c-.127-.607-.285-1.904-.436-3.49Z"/>
    <path class="st1" d="M37.496,168.914l.826-2.819c2.242.611,5.842,1.596,7.818,1.949l-.611,2.838c-1.645-.198-6.453-1.432-8.033-1.968ZM38.643,164.477l.581-2.714c2.222.429,5.742,1.297,6.688,1.651l-.687,2.687c-1.388-.464-4.409-1.253-6.582-1.624ZM38.878,160.143l.625-2.801c2.355.351,6.233,1.269,7.792,1.838l-.667,2.87c-1.875-.67-5.733-1.604-7.75-1.907Z"/>
    <path class="st1" d="M34.567,179.262c.147-1.686.435-3.324.863-4.913l2.851.466c-.922,3.733-1.107,6.663-.644,10.463l-2.968.446c-.246-2.137-.285-4.381-.103-6.462ZM41.087,186.755c-1.576-.373-2.392-1.384-2.266-2.819.165-1.883,1.897-2.888,3.94-2.276.084-.751.146-1.668.17-2.569-.719-.045-1.543-.135-2.508-.255l.304-2.848c.662.076,1.415.142,2.188.191-.031-.671-.064-1.126-.106-1.473l2.901-.108c.049.474.087,1.074.104,1.708.902.025,1.607.014,2.117-.031l.053,2.915c-.674.05-1.396.059-2.19.043-.061,1.513-.13,2.519-.23,3.25.659.311,1.727,1.128,2.32,1.776l-1.726,1.963c-.375-.268-.993-.846-1.487-1.179-.283,1.168-1.669,1.915-3.139,1.786-.126-.011-.198-.017-.445-.075ZM41.683,184.692c.43.038.93-.298.854-.667-.057-.186-.246-.292-.459-.33-.52-.063-1.216.256-.861.738.112.173.285.26.467.258Z"/>
    <path class="st1" d="M38.939,197.66c-1.531-.062-3.209-.1-4.869-.119l-.017-2.912c1.593-.023,3.056-.004,4.37.04,1.23-1.249,3.012-3.641,3.663-4.885l2.581,1.274c-.572.962-1.724,2.561-2.715,3.775.969.067,1.938.152,2.887.253l-.346,2.934c-.752-.084-1.561-.155-2.387-.209-1.257,1.77-.996,2.714,1.11,3.839l-1.825,2.479c-2.877-1.823-3.641-3.843-2.453-6.468ZM34.964,190.426l2.593-.713c.317,1.329.676,2.391,1.076,3.185l-2.454.996c-.499-1.11-.817-2.024-1.215-3.468Z"/>
    <path class="st1" d="M36.334,217.526c1.876-.162,3.207-.913,3.272-1.666.064-.735-1.512-1.307-4.667-1.186.079-1.113.225-2.565.398-3.743-.86-.075-1.721-.151-2.543-.258l.373-2.823c.932.1,1.594.176,2.58.262.129-.857.273-1.676.394-2.226l2.909.417c-.117.514-.238,1.28-.355,1.993,1.189.05,2.449.106,3.264.105l-.11,2.701c-.69.048-2.028.04-3.56-.022-.08.517-.141,1-.198,1.447,2.959.06,4.858,1.491,4.677,3.554-.188,2.153-2.545,3.898-5.584,4.139l-.85-2.695Z"/>
    <path class="st1" d="M33.7,233.792c6.354-.745,4.983-3.45-1.325-2.412.057-1.477.18-4.123.265-5.507l2.924.256c-.056.627-.082,1.348-.11,2.502,3.594-.173,5.867,1.309,5.66,3.676-.223,2.547-2.195,3.821-6.57,4.251l-.843-2.767ZM35.042,224.24l1.474-2.167c.719.461,2.243,1.208,3.743,1.828l-1.345,2.359c-1.045-.453-2.791-1.364-3.872-2.02Z"/>
    <path class="st1" d="M37.449,249.189c1.914-1.839,1.924-4.224.039-5.401-1.316,4.096-3.951,6.54-6.354,5.896-1.783-.481-2.762-1.904-2.597-3.788.286-3.264,3.497-5.894,7.318-5.56,3.659.32,6.367,2.835,6.056,6.404-.145,1.65-.947,3.171-2.215,4.234l-2.248-1.787ZM34.705,243.166c-2.066.072-3.338,1.587-3.473,2.714-.035.413.021.997.641,1.159.635.182,2.029-1.72,2.832-3.873Z"/>
    <path class="st1" d="M27.862,267.053c.231-2.239.425-4.644.581-7.052-.629-.037-1.223-.071-1.762-.118l.209-2.783,1.743.098c.048-.954.111-1.888.155-2.806l2.876.179c-.081.933-.146,1.868-.226,2.782l1.602.086.275-3.14,2.691.218c-.094.86-.188,1.936-.305,3.064.45.021.902.024,1.352.046.104-.967.187-1.917.27-2.868l2.738.311-.324,2.665c.558.031,1.117.043,1.658.055l-.1,2.793-1.91-.059c-.245,1.768-.363,2.698-.439,3.577-2.565-.225-4.164-.328-6.387-.559.07-1.205.201-2.91.236-3.305l-1.584-.084c-.131,1.507-.244,2.997-.375,4.503,2.307.275,6.542.627,8.573.75l-.364,2.715c-1.242-.054-2.786-.171-4.418-.314-2.297-.201-4.767-.471-6.767-.754ZM36.757,260.42l-1.278-.057c-.036.413-.07.807-.086,1.185.375.051.771.085,1.2.123l.164-1.25Z"/>
    <path class="st1" d="M24.331,279.318c1.552-.786,2.479-1.283,3.317-1.969l-.431-.038c-.056-1.433.029-4.263.216-7.428l.789.069c2.879.144,4.965.272,6.76.429,1.344.118,2.525.257,3.758.419-.15,1.307-.616,4.772-1.025,7.375l-.286-.025c.782.773,1.546,1.329,2.812,2.144l-1.618,2.172c-1.918-1.415-2.594-1.962-4.078-3.791l.893-.7c-1.863-.181-3.678-.321-5.831-.492l.807.901c-1.216.888-2.703,2.186-4.409,3.084l-1.673-2.152ZM28.183,284.03c.377-1.413.547-2.32.74-4.111l2.691.218c-.141,1.614-.334,2.79-.741,4.345l-2.69-.452ZM31.432,275.205l.064-.735c-.484-.042-.97-.067-1.51-.097-.022.251-.024.486-.025.704l1.471.128ZM31.611,273.16l.064-.735c-.557-.048-1.096-.078-1.598-.122-.021.251-.026.503-.047.737.558.031,1.078.076,1.58.12ZM32.933,280.161l2.689.235c-.179,2.045-.238,2.943-.458,4.823l-2.674-.217c.226-2.167.274-2.922.442-4.841ZM35.218,275.518c.039-.231.074-.445.096-.679-.537-.065-1.039-.109-1.521-.169-.004.253-.025.504-.028.739.521.045,1.005.088,1.454.109ZM35.623,272.751c-.428-.056-1.002-.106-1.65-.144-.038.231-.061.482-.082.733.521.046,1.057.111,1.631.161.041-.268.063-.519.102-.75Z"/>
    <path class="st1" d="M30.947,291.496c-1.564-.082-3.502-.251-5.328-.466l.328-2.917c3.562.401,6.699.694,8.932.799l.546,2.018c-4.647,3.534-5.007,5.779-1.21,7.431l-2.205,2.265c-4.014-1.833-4.504-6.159-1.062-9.13ZM35.638,287.46l1.626-.002c.03.689.008,1.772,0,2.295l-1.627.002c.002-.434.003-1.283.002-2.295ZM38.111,287.496l1.591-.005c.015.453.022,1.394.017,2.297l-1.646.019c.021-.667.018-1.661.039-2.31Z"/>
    <path class="st1" d="M31.527,11.625c-1.375.024-2.748.013-3.902-.016l.249-3.051c.81.036,2.056.053,3.376.042l-.127-1.638c-1.156-.011-2.257-.035-3.138-.093l.229-3.035c.736.064,1.69.094,2.721.094-.063-.927-.099-1.762-.111-2.432l3.238-.042c0,.398.033,1.268.113,2.414,1.27-.052,2.395-.098,3.086-.146l.023,3.039c-.622.09-1.676.143-2.872.183l.133,1.584c1.358-.026,2.521-.086,3.087-.164l.006,3.037c-.494.065-1.529.119-2.797.153.132,1.385.285,2.52.4,3.054l-3.279.508c-.127-.607-.285-1.905-.436-3.49Z"/>
    <path class="st1" d="M26.213,29.411l.824-2.819c2.242.612,5.844,1.596,7.818,1.949l-.609,2.839c-1.646-.198-6.454-1.433-8.033-1.968ZM27.359,24.975l.581-2.715c2.222.429,5.743,1.297,6.688,1.651l-.687,2.688c-1.387-.465-4.409-1.254-6.582-1.624ZM27.593,20.639l.625-2.801c2.355.351,6.233,1.268,7.792,1.838l-.667,2.87c-1.875-.67-5.734-1.604-7.75-1.907Z"/>
    <path class="st1" d="M24.92,35.926l2.959.259c.445-.955,1.078-2.201,1.401-3.004l2.487.905c-.335.729-.754,1.597-1.086,2.291,1.668.146,3.316.309,4.696.447-.177,1.811-.913,9.192-1.13,11.271l-10.117-.885c.175-2.823.669-9.503.789-11.282ZM31.509,45.304c.044-.303.074-.644.102-.967-1.235-.126-3.012-.281-4.322-.378-.03.341-.04.665-.068.988,1.525.133,2.889.253,4.289.357ZM31.792,42.69c.045-.303.071-.608.114-.894-1.254-.128-3.084-.288-4.43-.387-.025.287-.053.592-.062.898l4.377.383ZM32.069,40.148c.052-.393.083-.751.11-1.057-1.416-.142-2.781-.243-4.509-.322l-.086.986,4.484.393Z"/>
    <path class="st1" d="M22.346,57.892c.503.026,1.009.034,1.513.06.139-2.608.369-5.661.461-7.117,1.13.099,2.1.166,2.676.198.786-.727,1.303-1.061,2.156-1.728l1.815,1.569c-.251.177-.462.321-.638.469,1.005.087,1.99.192,2.921.292-.064.735-.333,3.387-.616,6.218.361-.203.686-.41,1.012-.617l1.357,2.251c-.668.412-1.614.889-2.652,1.395-.182,1.864-.342,3.495-.434,4.336l-2.871-.251c.097-.678.201-1.663.334-2.772-1.99.856-4.011,1.638-5.449,2.162l-1.248-2.459c1.459-.36,3.041-.873,4.631-1.493-1.699-.004-3.523-.02-5.036-.079l.068-2.434ZM26.648,58.105c1.079.058,2.139.132,3.128.183.037-.214.058-.447.076-.662-.931-.1-2.062-.198-3.155-.294-.006.271-.027.522-.049.773ZM29.982,56.354c.021-.251.042-.484.061-.7-.931-.1-2.078-.2-3.209-.299-.002.235-.024.486-.045.72l3.193.279ZM26.925,54.099c1.131.099,2.207.193,3.248.266.022-.251.061-.483.08-.698-1.111-.115-2.188-.209-3.283-.287-.02.233-.022.468-.045.719Z"/>
    <path class="st1" d="M28.989,77.41c1.915-1.84,1.925-4.224.039-5.401-1.316,4.096-3.952,6.54-6.354,5.896-1.784-.481-2.762-1.905-2.597-3.788.285-3.264,3.498-5.894,7.318-5.559,3.658.32,6.367,2.834,6.055,6.404-.145,1.65-.945,3.17-2.214,4.234l-2.248-1.787ZM26.245,71.386c-2.067.072-3.338,1.587-3.473,2.714-.036.413.021.996.64,1.159.635.182,2.03-1.721,2.833-3.873Z"/>
    <path class="st1" d="M18.027,84.127c2.392.137,4.76.345,6.586.54l-.907,8.922-6.277-.549c.154-3.005.483-7.188.599-8.913ZM21.582,91.017c.053-.394.085-.77.136-1.145l-1.722-.15c-.016.378-.05.772-.082,1.149l1.668.146ZM21.927,87.885c.057-.43.09-.824.119-1.146-.646-.057-1.185-.104-1.834-.125-.012.343-.046.737-.08,1.132l1.795.14ZM25.084,86.317c.738.028,1.637.089,2.57.152l.086-.968c-.686-.024-1.333-.062-1.91-.077l.175-2.823c.647.039,1.296.06,1.962.1l.084-.968,2.852.25-.078.896,1.92.168-.188,2.767c-.521-.045-1.185-.085-1.938-.151-.012.343-.041.683-.07,1.006l2.799.245-.187,2.749c-1.614-.142-6.036-.419-8.249-.541l.174-2.804ZM25.032,94.138l2.113-.61c.222.778.4,1.21.623,1.97l-2.156.679c-.231-.87-.319-1.311-.58-2.039ZM28.775,93.49c-1.312-.079-2.643-.16-3.598-.188l.149-2.535c1.151.064,2.445.141,3.667.23l.09-1.04,2.673.234-.088,1.004,1.112.097-.162,2.479-1.131-.099c-.084,1.167-.168,2.335-.242,3.196l-2.709-.237c.076-.879.158-2.01.238-3.142Z"/>
    <path class="st1" d="M17.515,97.831l2.512.202c1.547.099,2.654.232,4.055.354-.125,1.218-.363,3.529-.658,6.684l-.143-.012c-.986-.086-1.903-.149-3.875-.339-.27,3.284-.447,5.528-.613,8.044l-2.514-.184,1.236-14.749ZM21.189,102.943c.047-.538.058-.664.09-.823l-1.615-.141c-.031.159-.044.303-.09.823l1.615.141ZM21.403,100.901c.022-.251.042-.484.063-.735-.537-.047-1.095-.078-1.633-.125-.021.233-.043.484-.062.717l1.632.143ZM20.886,105.772l1.723.151c2.441.177,3.18.224,4.361.345-.244,2.383-.573,5.517-.648,6.179l-5.83-.51.395-6.165ZM22.686,110.412c.717.063,1.201.105,1.722.151.045-.52.057-.646.088-.805-.771-.067-1.201-.105-1.759-.136.004.163-.007.289-.051.791ZM22.813,108.543c.825.072,1.237.108,1.794.157.045-.52.055-.627.087-.787-.503-.044-1.059-.093-1.816-.105-.021.233-.042.484-.064.735ZM25.199,98.432l2.438.213c1.828.178,2.795.281,4.1.449-.138,1.777-.597,7.232-.937,11.124-.127,1.453-.24,2.745-.314,3.587l-2.513-.202c.21-2.187.464-5.092.706-8.071-.914-.08-1.92-.15-3.893-.34l-.179-.016.591-6.745ZM28.847,103.613c.046-.521.059-.664.055-.826l-1.615-.141-.072.825,1.633.143ZM29.009,101.566c.023-.269.028-.54.052-.809l-1.597-.14-.07.807,1.615.141Z"/>
    <path class="st1" d="M18.606,125.847c-.005-1.175.769-2.373,2.233-3.419-.326-.191-.692-.35-1.148-.516.221-1.065.385-1.918.543-2.682-.683-.06-1.416-.142-2.258-.234l.364-2.715c.808.071,1.614.141,2.422.212.096-.48.19-.941.265-1.369l2.941.456c-.085.354-.154.728-.242,1.118.756.048,1.494.077,2.233.087l-.161,2.679c-.778.003-1.697-.022-2.67-.071-.115.496-.21.957-.303,1.401.207.108.363.194.518.28.9-.374,1.737-.643,2.588-.858l.455,2.643c-.295.064-.592.147-.905.228.334.517.556.88.742,1.222l-2.239,1.431c-.345-.608-.713-1.146-1.09-1.595-.928.479-1.479,1.009-1.5,1.441-.035.81,1.545,1.147,4.553,1.066l-.181,2.677c-.688.013-1.337-.008-1.946-.061-3.337-.292-5.199-1.521-5.214-3.42Z"/>
    <path class="st1" d="M14.036,142.757c1.913-1.206,3.646-2.428,4.812-5.001-1.366-.083-2.681-.144-3.833-.191l.056-2.904c1.26.056,2.932.166,4.692.284.214-.994.384-2.118.479-3.41l2.926.238c-.11,1.256-.262,2.363-.459,3.376,2.011.158,3.878.303,5.113.429l-.322,2.864c-1.074-.112-2.742-.258-4.628-.405.948,2.595,2.191,4.078,4.845,5.773l-2.08,2.078c-2.096-1.25-3.771-3.167-4.791-5.552-1.158,1.869-2.744,3.266-4.879,4.743l-1.931-2.32Z"/>
    <path class="st1" d="M13.124,157.728c.038-.846.122-2.013.213-3.253l-1.13.1-.156-2.761c.382-.021.91-.065,1.529-.119.123-1.4.25-2.653.316-3.407l2.689.235c-.093.859-.2,1.88-.291,2.921,1.058-.105,2.025-.22,2.629-.312l.284,2.753c-.532.08-1.791.223-3.138.34-.096,1.094-.165,2.082-.196,2.856.977-.005,1.581-.097,2.696-.252l.23,2.948c-1.721.247-2.952.483-4.039.315-1.482-.22-1.707-.745-1.638-2.366ZM22.513,160.719c1.636-2.785,2.079-5.367,2.451-7.974-.307-.009-.646-.039-.988-.068-.615,2.495-1.619,5.082-2.615,7.381l-2.357-.947c1.052-2.312,1.768-4.292,2.347-6.573l-1.659-.037.088-2.866c2.582.027,5.802.2,8.106.51-.543,5.375-1.059,8.167-2.826,11.844l-2.546-1.271Z"/>
    <path class="st1" d="M12.368,170.291c.149-1.704.466-3.465.951-5.285l2.935.745c-1.096,3.646-1.305,8.092-.498,10.656l-2.986.661c-.484-2.103-.611-4.373-.401-6.777ZM17.646,175.868l.835-2.728c1.696.654,3.637.986,5.767,1.01l-.385,2.768c-1.529.119-4.396-.366-6.217-1.05ZM19.097,166.921c1.36.156,4.146.345,5.05.333l-.099,2.775c-.742.025-3.617-.172-5.318-.357l.367-2.751Z"/>
    <path class="st1" d="M9.306,192.268l1.377-2.302.756.445c.189-.308.339-.566.449-.792-.301-.279-.64-.544-.992-.846.199-.417.39-.942.564-1.288l-1.598-.122.116-2.575c1.407.033,2.91.201,4.305.376-.26,1.116-.563,1.903-1.015,3.128.348.356.729.769,1.228,1.264-.459.9-.698,1.367-1.04,1.97,2.564,1.255,4.656,1.528,9.586,1.165l.271,2.68c-2.271.145-4.098.147-5.677.009-3.282-.287-5.44-1.235-8.331-3.114ZM10.354,182.978l.858-2.365c.809.252,2.48.777,3.247,1.098l-.821,2.368c-.861-.274-2.457-.848-3.284-1.101ZM21.785,187.647c-1.38-.139-2.958-.277-4.36-.363-.073,1.457-.172,3.202-.269,4.513l-2.313-.203c.077-1.71.229-4.48.367-6.475l1.005.088c.081-1.547.168-3.365.273-4.784l.162.014c1.223.071,2.551.169,3.824.281s2.51.238,3.549.347c-.113,1.092-.367,3.167-.541,4.742l.824.072c-.143,1.433-.53,4.834-.734,6.533l-2.385-.209c.242-1.732.471-3.519.598-4.557ZM17.978,187.983l.305.026c1.078.076,1.348.082,2.783.208-.072.626-.312,2.738-.357,3.06l-2.906-.254c.049-1.387.145-2.482.176-3.039ZM19.14,185.428c.033-.575.072-1.439.129-2.284.734.064,1.113.079,2.258.216.02-.215.056-.429.073-.626-.985-.104-2.009-.176-2.997-.244l-.18,2.875.717.063ZM19.666,189.974c.036-.213.055-.429.072-.626l-.592-.052c-.018.197-.018.414-.037.629l.557.049ZM21.221,185.61l.144-1.018-.735-.064c-.026.305-.04.665-.054,1.025l.646.057Z"/>
    <path class="st1" d="M9.609,208.863l.93-2.992c2.206,1.224,5.109,1.712,8.496,1.43l.092,3.081c-1.096.139-2.289.143-3.617.027-2.17-.19-4.273-.736-5.9-1.546ZM15.816,203.388c.133-.477.283-.952.395-1.412-1.385-.284-2.957-.692-5.061-1.238l.582-2.931c3.413.859,5.262,1.219,7.871,1.755-.324,1.436-.784,3.185-1.256,4.644l-2.531-.818ZM20.139,197.367l1.627-.002c.029.689.007,1.772-.003,2.295l-1.626.002c0-.434.003-1.283.002-2.296ZM22.612,197.403l1.591-.006c.015.453.023,1.394.016,2.297l-1.646.019c.021-.667.019-1.661.039-2.31Z"/>
    <path class="st1" d="M11.873,225.956c.938-.804,1.547-1.582,1.867-2.349-.26.085-.501.155-.756.169-5.68.677-4.541-6.344.188-5.244.266.06.529.155.772.267.063-.718.08-.915.083-1.149-1.883-.183-3.725-.399-5.728-.646l.243-2.78c1.357.191,3.346.401,5.533.593-.016-.436-.014-.869-.032-1.286l3.007-.081c-.003.452.021.997.023,1.592.756.048,1.618.105,2.752.151l-.279,2.777c-.688.012-1.624-.016-2.577-.081-.096,1.094-.263,1.983-.526,2.719,1.012,2.059.156,5.021-1.976,6.876l-2.595-1.528ZM13.185,221.48c.113-.46-.25-.854-.824-.904-.986-.086-1.146,1.744.535,1.114.112-.045.209-.108.289-.21Z"/>
    <path class="st1" d="M8.3,238.887c.077-.879.459-1.731,1.155-2.665-.491-1.615-.816-4.102-.772-5.833l2.896-.271c.013,1.302.104,2.955.238,3.889,1.08-.773,2.373-1.509,3.557-2.021l.973,2.94c-2.531,1.026-4.711,2.805-4.808,3.917-.12,1.363.914,1.743,4.661,1.673l-.278,2.976c-1.071.051-1.882.034-2.563-.025-3.57-.312-5.295-1.873-5.059-4.582Z"/>
    <path class="st1" d="M4.749,250.355c.091-1.04.28-2.163.575-3.474l2.834.664c-.367,1.92-.496,4.023-.359,5.553.639-.071,1.135-.154,1.793-.241l.305,2.503c-1.434.472-2.938.936-4.334,1.392-.764-2.218-1.01-4.155-.813-6.397ZM13.99,249.049l2.947-.411c.445,1.304.773,3.954.689,5.537l-2.795.55c-.059-1.396-.352-3.428-.842-5.676Z"/>
    <path class="st1" d="M3.541,264.163c.092-1.04.279-2.163.575-3.474l2.834.664c-.366,1.92-.497,4.023-.359,5.553.639-.071,1.134-.154,1.792-.241l.306,2.503c-1.433.472-2.938.936-4.333,1.392-.764-2.218-1.011-4.155-.814-6.397ZM12.783,262.857l2.945-.411c.446,1.304.775,3.954.691,5.537l-2.796.55c-.06-1.396-.351-3.428-.841-5.676Z"/>
    <path class="st1" d="M10.941,276.066c.129-1.488,1.414-2.949,3.136-2.798,1.687.147,2.923,1.503,2.774,3.207-.126,1.435-1.217,2.75-3.011,2.592-1.739-.152-3.048-1.314-2.899-3.001ZM15.031,276.008c-.182-.612-.538-.878-.915-.911-.7-.061-1.47.685-1.261,1.39.137.5.497.73.873.763.7.061,1.512-.537,1.303-1.242Z"/>
  </g>
</svg>