<?xml version="1.0" encoding="UTF-8"?>
<svg id="_レイヤー_1" data-name="レイヤー_1" xmlns="http://www.w3.org/2000/svg" version="1.1" viewBox="0 0 65 305">
  <!-- Generator: Adobe Illustrator 29.0.1, SVG Export Plug-In . SVG Version: 2.1.0 Build 192)  -->
  <defs>
    <style>
      .st0 {
        fill: #fff;
      }

      .st1 {
        fill: #3c291a;
      }
    </style>
  </defs>
  <g>
    <path class="st0" d="M52.733,18.194c-.043,0-.087-.002-.131-.006l-2.619-.229c-.806-.07-1.41-.767-1.367-1.574.009-.165.019-.333.028-.505-.103,0-.217-.005-.323-.025-.422-.08-.789-.335-1.01-.704l-1.199-2.002c-.397-.665-.225-1.523.4-1.98.231-.169.446-.33.648-.485-.253-.286-.388-.658-.375-1.041l.083-2.595c.02-.63.426-1.158.986-1.362l-.348-1.772c-.077-.393.006-.8.23-1.131s.572-.559.966-.632c1.788-.334,4.094-.719,6.016-1.006.807-.121,1.578.44,1.703,1.256l.356,2.318c.349-.352.86-.522,1.384-.411l2.661.576c.407.088.759.342.972.7s.268.789.15,1.188c-.314,1.075-.618,2.139-.896,3.139l1.379-.224c.811-.126,1.56.399,1.714,1.196.218,1.126.426,2.365.62,3.525l.216,1.278c.139.808-.396,1.577-1.201,1.728l-2.555.481c-.401.076-.819-.016-1.152-.256-.163-.117-.3-.265-.402-.433-1.448.014-2.876-.009-4.92-.077-.19-.006-.376-.048-.547-.123-.067.319-.237.609-.486.825-.273.236-.622.365-.981.365ZM61.198,14.231c.196.05.378.139.537.259-.039-.228-.077-.458-.116-.688-.032.049-.066.096-.104.141-.093.112-.2.209-.317.288ZM56.815,14.183c.354.008.688.014,1.013.018-.13-.089-.246-.2-.343-.328-.062-.082-.115-.168-.158-.26-.119.234-.297.429-.512.57ZM50.856,11.471c.059.02.116.043.173.071.234.114.429.284.571.487.132-.406.433-.742.831-.915-.088-.093-.175-.187-.259-.282-.143-.162-.246-.349-.309-.548-.069.178-.174.343-.311.487-.232.244-.462.475-.697.699ZM51.396,8.558c.198.156.358.362.458.604.018.042.033.085.047.128.013-.034.027-.067.043-.101.148-.308.393-.549.687-.694-.111-.075-.213-.166-.302-.269-.072-.085-.135-.176-.187-.273-.175.277-.438.49-.746.605ZM51.921,4.626c.025.02.05.041.074.062.082.074.155.156.218.244.04-.137.099-.266.173-.384-.155.026-.311.052-.465.078Z"/>
    <path class="st0" d="M55.281,34.375c-.151,0-.306-.007-.46-.021-.183-.016-.29-.023-.656-.109,0,0-.002,0-.003,0-1.116-.264-1.999-.798-2.59-1.528-.093.034-.19.059-.292.074l-2.967.446c-.403.061-.812-.045-1.135-.292-.322-.248-.531-.615-.578-1.019-.261-2.256-.298-4.595-.107-6.765.154-1.769.461-3.509.909-5.172.2-.743.922-1.215,1.69-1.09l2.851.466c.413.068.779.305,1.01.654.165.25.25.541.248.834.003-.002.006-.004.008-.006.312-.25.71-.367,1.107-.32.137.015.278.03.422.045.032-.296.153-.579.351-.81.271-.319.665-.51,1.085-.525l2.901-.108c.761-.03,1.467.559,1.548,1.346.012.117.023.24.034.367.211-.006.398-.017.562-.031.414-.035.825.101,1.136.378.31.278.489.672.497,1.088l.053,2.915c.014.796-.596,1.464-1.39,1.523-.275.02-.562.035-.871.043-.021.354-.043.672-.067.96.658.45,1.354,1.033,1.834,1.557.517.565.525,1.428.021,2.003l-1.726,1.963c-.508.578-1.372.678-1.998.231-.087-.062-.185-.138-.291-.223-.802.702-1.922,1.124-3.135,1.124ZM55.108,31.166c.045.018.09.031.132.039.262.033.514-.182.641-.4.264-.453.167-.955-.035-1.229-.11-.176-.381-.328-.677-.35h0c-.179,0-.324.069-.453.214-.209.234-.296.587-.227.92l1.469-.304-1.435.438c.098.319.323.547.543.653l.037-.424.006.443ZM57.014,28.938c.172.196.299.425.377.68.012.038.021.076.03.114.041-.021.083-.039.126-.056.125-.049.254-.08.384-.094-.303-.298-.47-.716-.446-1.151-.114.201-.274.375-.471.506ZM55.084,29.223h-.002.002ZM52.422,25.346c-.05.512-.082,1.021-.098,1.534.061-.045.121-.089.185-.132.273-.186.569-.337.882-.453-.461-.146-.818-.504-.969-.95ZM47.987,25.292h.01-.01ZM56.707,23.663c.54.13.962.552,1.099,1.083.175-.479.586-.84,1.089-.949-.563-.131-1.004-.578-1.126-1.144-.072.234-.202.45-.381.626-.191.188-.427.319-.681.384Z"/>
    <path class="st0" d="M58.46,41.983c-.132,0-.265-.018-.396-.053-.416-.114-.764-.402-.953-.79-.219-.45-1.811-2.626-2.333-3.189-.272-.294-.415-.685-.398-1.085.018-.4.194-.776.491-1.046l1.963-1.78c.607-.551,1.545-.512,2.106.09.411.442,2.602,2.994,3.092,4.457.215.644-.029,1.353-.596,1.728l-2.149,1.421c-.248.164-.536.249-.827.249Z"/>
    <path class="st0" d="M55.986,58.899c-.3,0-.6-.089-.858-.27l-2.163-1.509c-.097-.068-.185-.146-.262-.232-1.365.764-2.85,1.135-4.369,1.039-1.26-.059-2.4-.585-3.19-1.481-.792-.897-1.173-2.098-1.073-3.382.159-1.832,1.027-3.408,2.437-4.539-.28-.279-.439-.658-.441-1.054l-.016-2.712c-.005-.825.657-1.499,1.481-1.509.375-.004.801-.004,1.25,0,.062-.381.268-.725.577-.959.318-.241.72-.342,1.114-.289l2.679.379c.418.059.791.291,1.028.64.083.121.146.251.19.387.707.037,1.372.083,1.836.124.806.07,1.411.768,1.367,1.576l-.146,2.699c-.007.126-.03.25-.067.369.366.266.699.565.995.896,1.047,1.168,1.548,2.677,1.41,4.248-.187,2.135-1.174,3.955-2.857,5.265-.271.21-.596.316-.921.316ZM50.911,53.321c-.01.215-.019.435-.026.659-.006.189-.048.371-.119.537.36-.157.711-.357,1.051-.599-.092-.02-.183-.048-.271-.086-.261-.111-.478-.291-.635-.511ZM49.385,53.929h.01-.01ZM54.788,50.152c.058.148.092.303.101.458.168-.072.35-.115.537-.122-.196-.125-.409-.238-.638-.336ZM50.329,49.905s.004.002.006.003c.182.114.333.264.448.437.075-.438.338-.813.7-1.038-.045-.039-.087-.081-.126-.125-.064-.072-.122-.149-.171-.23-.128.427-.441.779-.857.953ZM50.628,46.185c.12.074.229.165.326.271.105.116.19.246.254.386.179-.332.478-.585.835-.708-.133-.081-.255-.182-.358-.302-.098-.112-.177-.237-.236-.371-.172.335-.466.595-.82.724Z"/>
    <path class="st0" d="M51.019,75.338c-.199,0-.404-.009-.613-.027-1.708-.149-3.079-1.075-3.762-2.539-.496-1.064-.556-2.303-.204-3.413l-2.212-.495c-.437-.098-.808-.385-1.01-.784-.203-.399-.217-.867-.039-1.278.155-.355.309-.732.46-1.13-.215-.095-.405-.24-.557-.426-.256-.315-.373-.721-.324-1.125l.332-2.754c.098-.804.808-1.386,1.62-1.314.167.015.335.028.503.041.036-.194.071-.392.104-.59.136-.802.881-1.35,1.691-1.235l2.963.422c.41.058.778.284,1.017.624.229.326.317.729.249,1.12.035,0,.071.002.108.003.406.011.791.187,1.065.487.059.064.111.133.158.206.352-.275.821-.393,1.289-.275,1.112.277,2.121.572,4.315,1.261.769.241,1.209,1.046.998,1.824l-.666,2.454c-.108.4-.378.738-.745.933-.368.195-.799.227-1.191.092-.017-.006-.035-.012-.053-.018-.004.128-.009.254-.015.378.666.396,1.27.838,1.682,1.241.553.541.603,1.414.116,2.016l-1.804,2.229c-.259.32-.638.519-1.048.551-.232.019-.466-.019-.679-.104-.918,1.071-2.189,1.627-3.751,1.627ZM52.719,69.128c.174.123.32.283.43.471.145.248.213.53.202.812.161-.14.353-.245.562-.306.162-.047.327-.068.492-.058-.043-.021-.086-.043-.129-.063-.574-.278-.91-.888-.837-1.522,0-.001,0-.002,0-.004-.093.173-.219.329-.374.456-.106.088-.224.159-.348.214ZM50.296,70.255h0ZM50.63,70.018l.795.218c-.114-.156-.27-.256-.423-.27-.141-.013-.265.012-.372.052ZM51.397,68.737h.002l.085-.988-.087.988ZM49.729,66.154c-.02.061-.038.12-.057.179.282-.073.577-.123.881-.149l-.824-.03ZM46.509,63.186c.158.108.297.247.405.41.141.212.224.454.244.702.012-.037.022-.074.033-.11.184-.622.744-1.051,1.384-1.074-.143-.092-.271-.208-.374-.344-.18-.234-.29-.514-.315-.802-.006.023-.011.046-.017.07-.154.647-.713,1.106-1.36,1.149Z"/>
    <path class="st0" d="M54.596,91.858c-.479,0-1.019-.026-1.618-.079-1.467-.128-2.933-.389-3.825-.681-.716-.234-1.146-.963-1.007-1.704l.506-2.685c.065-.348.251-.659.521-.881-.149-.236-.231-.511-.232-.795l-.011-2.478c-.102-.003-.202-.007-.302-.01-.585,2.652-1.226,5.692-1.357,6.522-.064.405-.292.766-.63.999-.337.232-.757.317-1.156.234l-2.858-.594c-.791-.164-1.31-.924-1.174-1.72.13-.767.593-3.083,1.101-5.527-.403-.005-.788-.173-1.067-.467-.284-.3-.433-.704-.41-1.116l.155-2.806c.044-.791.694-1.411,1.486-1.417l.441-.003c.231-.002.448-.004.652-.005.148-.652.234-1.029.292-1.269.189-.791.972-1.288,1.769-1.118l2.928.618c.397.084.743.325.96.668.216.344.284.76.188,1.154-.009.038-.018.075-.027.112.253.019.524.041.819.067.396.035.763.225,1.019.53s.38.699.345,1.095l-.198,2.267c1.36.025,2.833.133,3.897.295.782.12,1.337.826,1.268,1.613l-.238,2.727c-.026.306-.146.593-.339.826.101.053.196.119.283.195.326.286.513.698.513,1.131l-.003,2.711c0,.712-.501,1.325-1.198,1.468-.396.082-.896.122-1.49.122ZM45.103,79.65c.175.093.332.221.46.378.225.277.341.622.335.973.022-.104.046-.206.068-.308.146-.647.697-1.118,1.35-1.167-.165-.093-.313-.219-.435-.371-.242-.304-.356-.688-.321-1.072l-.091.402c-.149.652-.709,1.121-1.366,1.164Z"/>
    <path class="st0" d="M52.426,106.397c-.33,0-.66-.108-.934-.326l-2.247-1.788c-.305-.242-.502-.592-.553-.975-1.556,1.556-3.408,2.233-5.217,1.745-2.478-.668-3.931-2.774-3.703-5.367.369-4.216,4.378-7.328,8.943-6.922,4.669.408,7.789,3.784,7.419,8.028-.18,2.053-1.154,3.918-2.744,5.253-.279.234-.622.351-.965.351ZM51.963,97.211c.645.684,1.039,1.534,1.138,2.476.104.995-.139,2.024-.681,2.977.409-.636.66-1.363.728-2.132.125-1.43-.364-2.534-1.185-3.321ZM48.081,95.733c.224.107.421.27.57.477.158.219.251.473.276.734.175-.294.446-.523.774-.643.23-.083.473-.107.712-.079-.613-.253-1.282-.409-1.959-.468-.125-.011-.25-.018-.374-.021Z"/>
    <path class="st0" d="M49.093,123.632c-.349,0-.697-.121-.979-.363l-1.916-1.65c-.219-.188-.376-.433-.458-.704l-.027.449c-.051.825-.779,1.438-1.584,1.406l-2.464-.144c-.818-.048-1.447-.744-1.412-1.562.021-.454.054-1.001.095-1.619l-.797.008h-.015c-.396,0-.776-.157-1.058-.436-.284-.283-.443-.668-.442-1.069l.009-2.584c0-.371.137-.709.36-.971-.685-.28-1.07-1.027-.884-1.759.358-1.406.87-3.29,1.109-4.161.216-.783,1.022-1.25,1.806-1.058l.842.208c.199-.665.844-1.121,1.558-1.064l2.44.196c.406.033.782.229,1.041.545.258.315.377.723.328,1.128v.002c.165-.398.322-.777.467-1.121.316-.752,1.178-1.111,1.932-.814l2.481.977c.375.147.675.439.832.81.11.26.145.544.101.819.871.053,1.723.106,2.457.16.404.03.779.221,1.039.532.261.31.385.712.344,1.115l-.273,2.706c-.039.39-.225.73-.498.972.049.271.021.551-.081.812-.345.876-.721,1.692-1.138,2.466.147.096.302.196.468.301.345.218.585.566.667.965.083.399,0,.814-.231,1.15l-1.471,2.148c-.446.654-1.324.846-2.007.44-.255-.152-.509-.312-.76-.479-.286.295-.574.577-.863.844-.286.265-.652.398-1.018.398ZM45.843,119.234l-.039.643c.076-.172.185-.33.321-.465.079-.078.156-.155.233-.233-.165.019-.337.038-.516.055ZM50.126,118.088c.135.28.18.595.13.898.222-.079.462-.106.697-.077-.129-.289-.166-.613-.1-.926-.11.045-.228.078-.348.096-.13.019-.256.02-.38.008ZM42.754,116.656c.109.068.211.151.301.247.038.041.074.083.107.128.156-.245.382-.441.649-.561-.103-.064-.198-.141-.284-.229-.045-.046-.087-.095-.125-.146-.156.246-.382.441-.648.562ZM43.225,111.699c.082.061.158.131.227.209.057.064.107.132.152.204.125-.149.279-.274.453-.365-.079-.059-.152-.126-.22-.201-.059-.066-.112-.137-.158-.212-.053.063-.111.122-.175.176-.087.074-.18.137-.279.188ZM48.875,110.902c-.115.284-.229.569-.343.851.236-.121.505-.18.78-.163-.104-.094-.197-.203-.273-.325-.071-.115-.126-.237-.164-.363Z"/>
    <path class="st0" d="M50.902,140.956c-.211,0-.424-.044-.627-.138l-1.544-.711c-.43.231-.96.249-1.42.005l-1.049-.559c-.371.107-.782.067-1.143-.134l-1.379-.771c-.396-.222-.672-.612-.747-1.061-.033-.201-.025-.405.021-.598l-.805-.435c-.232-.125-.425-.309-.561-.528-1.262.124-2.646.207-4.139.248-.438.006-.786-.137-1.074-.412-.289-.274-.458-.653-.468-1.051l-.063-2.59c-.016-.641.374-1.2.938-1.428-.466-.284-.76-.812-.718-1.392l.184-2.515c.06-.815.769-1.456,1.577-1.388.08.004.161.008.242.013.003-.032.006-.064.009-.095.035-.402.23-.772.542-1.028.312-.255.708-.378,1.114-.332l2.561.278c.619.067,1.11.503,1.277,1.067.037-.679.067-1.249.084-1.559.021-.404.205-.783.51-1.05.304-.267.691-.401,1.109-.366,2.716.22,3.866.32,4.711.394l1.346.118c.213.019.429.033.648.048.246.017.497.034.752.056.399.035.769.229,1.024.537s.377.707.337,1.106c-.119,1.196-.371,3.649-.541,5.207.571.241.954.822.914,1.474l-.127,2.068c-.02.315-.137.613-.333.854-.308,2.496-.446,3.461-1.863,5.918-.276.478-.779.75-1.301.75ZM40.407,132.75c-.071.146-.165.279-.277.394.199-.015.396-.03.59-.046-.036-.029-.07-.06-.104-.093-.078-.078-.148-.164-.209-.255ZM40.163,128.44c.184.14.334.321.437.529.078-.115.172-.22.28-.311.086-.073.18-.134.278-.185-.089-.067-.17-.145-.243-.231-.077-.092-.142-.191-.194-.297-.077.114-.171.219-.278.31-.087.072-.181.135-.279.186Z"/>
    <path class="st0" d="M43.934,155.94c-.288,0-.579-.083-.836-.255l-2.288-1.538c-.039-.026-.076-.054-.112-.083-.162.27-.405.487-.697.612-.385.165-.821.167-1.204-.003l-2.418-1.079c-.673-.3-1.028-1.044-.838-1.756.068-.257.224-.685,1.449-3.537-.245-.067-.473-.197-.657-.38-.301-.297-.462-.708-.444-1.131l.122-2.845c.034-.779.659-1.403,1.439-1.435.536-.022,1.226-.012,2.047.031.312-.707.628-1.421.827-1.852.346-.745,1.222-1.073,1.973-.74l2.522,1.125c.364.163.649.464.791.838.091.238.118.493.083.74.077-.035.157-.063.24-.084l1.565-.407c.006-.246.069-.49.189-.703.209-.367.554-.652.966-.746l1.382-.313c.146-.033.295-.043.436-.034.061-.021.123-.037.187-.05l1.379-.277c.71-.145,1.423.244,1.689.918.182.458.427,1.316.559,1.953.163.79-.326,1.567-1.108,1.76l-1.404.347c-.2.049-.405.058-.604.024l-.456.128c.275.925.533,1.886.661,2.515.151.744-.275,1.483-.995,1.723l-2.233.744c-.153.051-.311.077-.468.077-.456,1.691-1.325,3.477-2.539,5.106-.294.394-.745.604-1.204.604ZM43.467,145.95c.568.273.979.715,1.212,1.289.242.598.282,1.316.116,2.166.298-1.125.324-2.084.114-2.7-.158-.464-.384-.527-.491-.558-.246-.067-.566-.134-.951-.197ZM40.038,145.579c.193.119.358.282.482.479.093.148.157.309.193.474l.015-.033c.28-.636.96-.995,1.643-.871.032.006.063.012.095.019-.194-.133-.356-.312-.472-.524-.077-.143-.13-.294-.157-.45l-.016.036c-.257.581-.875.927-1.481.891-.103-.007-.203-.015-.302-.021Z"/>
    <path class="st0" d="M36.655,14.275c-.498,0-.981-.249-1.265-.692-1.564-2.445-2.503-5.734-2.45-8.584.014-.732.554-1.347,1.278-1.456l1.933-.29c.005-.558.002-1.257-.008-1.769-.007-.402.147-.791.429-1.078.281-.288.667-.45,1.069-.45l1.628-.002h.002c.17,0,.334.028.487.081.113-.028.231-.043.354-.043l1.591-.005c.76-.023,1.468.63,1.504,1.434.033.763.027,1.874.017,2.396-.018.809-.674,1.458-1.483,1.467l-1.646.019c-.151.011-.354-.027-.52-.087-.098.022-.199.034-.302.035.194,1.989.784,3.669,1.829,5.238.244.366.315.82.194,1.244-.121.423-.421.771-.821.954l-3.2,1.455c-.2.091-.412.135-.62.135ZM35.995,6.311c.154,1.519.616,3.135,1.294,4.528l.438-.199c-.679-1.356-1.127-2.809-1.353-4.386l-.379.057ZM27.528,14.037c-.229,0-.46-.052-.677-.162l-2.891-1.464c-.374-.189-.651-.527-.766-.93-.114-.404-.054-.836.165-1.193.947-1.541,2.248-4.918,2.784-7.229.09-.39.333-.728.674-.938s.752-.275,1.14-.181l3.274.792c.396.096.735.348.94.698.206.351.261.77.152,1.162-1.122,4.036-2.249,6.825-3.547,8.775-.287.431-.762.669-1.25.669ZM26.685,10.429l.267.135c.703-1.336,1.381-3.084,2.05-5.284l-.326-.079c-.495,1.668-1.227,3.646-1.99,5.228Z"/>
    <path class="st0" d="M31.376,32.045c-.391,0-.779-.152-1.072-.451l-2.09-2.135c-.281-.288-.436-.677-.428-1.079s.178-.785.471-1.061c.211-.2.405-.393.582-.587-.013,0-.026-.002-.039-.004l-2.918-.328c-.399-.045-.764-.248-1.012-.563s-.359-.717-.31-1.115c.018-.139.035-.301.053-.482-.171-.018-.342-.037-.513-.056-.817-.095-1.405-.83-1.319-1.647l.315-2.991c.086-.813.829-1.406,1.622-1.337l.325.028c.004-.065.007-.129.01-.19l.022-.453c.043-.814.745-1.45,1.541-1.421l3.082.089c.471.014.885.243,1.149.59.266-.385.706-.64,1.209-.649l3.083-.054c.245-.165.535-.255.836-.256l1.628-.002h.002c.17,0,.334.028.487.081.113-.028.231-.043.354-.043l1.591-.005h.005c.803,0,1.463.632,1.499,1.434.033.762.027,1.875.017,2.396-.018.81-.675,1.459-1.484,1.468l-1.123.012-.166,2.363c-.055.787-.709,1.395-1.496,1.395h-.02c-.348-.004-.715-.015-1.098-.026-.607,3.011-1.796,5.073-3.849,6.745-.277.226-.612.337-.947.337ZM31.367,28.393l.042.042c1.087-1.262,1.694-2.867,2.014-5.211.104-.756.741-1.308,1.521-1.297l.949.027.005-.064c-.264-.01-.541-.021-.829-.036-.824-.041-1.462-.739-1.426-1.564.017-.363.026-.733.032-1.115h-.084c0,.371-.004.725-.01,1.064-.007.405-.177.79-.472,1.067s-.685.427-1.094.406c-.818-.036-1.67-.092-2.522-.148-.397-.026-.8-.212-1.062-.512-.262-.3-.426-.693-.398-1.091.018-.258.034-.508.049-.746l-.084-.002c-.013.235-.027.481-.044.733-.055.823-.783,1.435-1.585,1.399-.147-.009-.295-.019-.441-.029l-.004.042c.156.017.314.034.473.052.794.091,1.378.79,1.326,1.587-.013.189-.025.372-.038.549.022-.187.045-.381.066-.581.087-.799.775-1.393,1.592-1.334.876.059,1.741.117,2.592.155.422.019.815.214,1.085.539.271.324.392.747.334,1.165-.313,2.277-.994,3.703-1.985,4.902Z"/>
    <path class="st0" d="M31.096,46.186c-.05,0-.099-.002-.148-.007l-2.975-.296c-.803-.08-1.398-.78-1.349-1.585.22-3.539.658-9.39.829-11.335.072-.818.787-1.425,1.607-1.365l3.034.229c.41.031.789.229,1.049.547s.378.729.326,1.137c-.101.794-.298,3.498-.488,6.113-.134,1.846-.272,3.745-.391,5.185-.033.401-.226.772-.535,1.029-.271.226-.61.348-.96.348ZM29.712,43.041h.01c.087-1.13.179-2.394.269-3.634.129-1.767.253-3.472.354-4.704l-.024-.002c-.173,2.172-.427,5.607-.608,8.34Z"/>
    <path class="st0" d="M28.264,61.587c-.702,0-1.327-.495-1.469-1.206-.156-.779-.142-2.236-.036-3.872-.412,1.298-.896,2.511-1.398,3.447-.39.728-1.29,1.004-2.021.619l-2.8-1.475c-.365-.192-.635-.526-.745-.924-.111-.397-.054-.823.159-1.176.667-1.11,1.698-5.063,1.839-7.051.03-.432.246-.83.591-1.091s.788-.36,1.21-.272l3.16.656c.319.066.597.231.803.458.059-.32.114-.591.165-.803.19-.786.969-1.284,1.763-1.115l3.159.656c.396.083.742.321.959.661.218.341.289.755.197,1.148-.178.76-.441,2.408-.616,3.758.198-.069.361-.131.46-.18.392-.19.845-.201,1.245-.032.399.17.706.506.84.919l1.01,3.125c.246.764-.152,1.587-.904,1.867-1.634.607-5.264,1.53-7.329,1.863-.08.013-.16.019-.24.019ZM30.371,51.029c-.322,2.062-.65,5.271-.695,7.259,1.26-.274,2.655-.633,3.746-.954l-.074-.23c-.623.19-1.227.35-1.516.413-.429.094-.875-.004-1.225-.269-.35-.264-.565-.667-.593-1.104-.056-.902.281-3.349.574-5.069l-.218-.045ZM23.187,57.103l.149.079c.628-1.572,1.184-3.579,1.459-5.283l-.228-.047c-.291,1.699-.815,3.749-1.381,5.251Z"/>
    <path class="st0" d="M29.126,79.858c-.593,0-1.248-.024-2.101-.072-.774-.043-1.388-.668-1.416-1.443,0-.039-.003-.078-.004-.117-.227.275-.452.53-.669.768-.505.553-1.342.649-1.96.224l-2.012-1.387c-.361-.249-.596-.644-.641-1.081-.045-.435.103-.868.403-1.186-.114-.23-.168-.487-.153-.748l.083-1.463c-.422-.057-.815-.292-1.062-.675l-1.368-2.126c-.217-.337-.29-.749-.202-1.141.087-.387.323-.723.657-.936-.421-.554-.408-1.338.054-1.88l.854-1.001.177-2.199c.063-.798.72-1.43,1.543-1.379,1.425.045,3.502.177,5.422.345l.717.063c.413.036.792.242,1.049.567.05.064.095.132.134.203l.521-.257c.603-.297,1.307-.153,1.747.307.497-.253,1.11-.216,1.581.137l1.662,1.248c.2.15.357.346.46.568.052.034.101.07.148.111l1.649,1.392c.306.257.495.625.528,1.023.032.397-.095.792-.354,1.096-.199.234-.386.45-.56.649.418.528.466,1.298.046,1.854l-1.512,2c-.379.502-1.014.701-1.589.543l-.067.769c.273.241.452.574.498.94l.299,2.376c.05.397-.062.799-.309,1.114-.248.315-.611.518-1.01.563-1.366.156-2.209.23-3.245.23ZM24.479,74.141c.025.039.048.08.068.122.007.013.013.026.019.04.046-.082.1-.159.158-.229-.079.029-.161.052-.245.068ZM28.233,74.109c.049.054.094.112.134.173.07-.079.148-.15.233-.212-.047-.045-.09-.094-.131-.146-.072.069-.151.131-.236.185ZM25.946,72.711l.489.043-.489-.043ZM32.349,69.69c.007.006.014.012.02.019,0-.006,0-.013,0-.019-.005,0-.013,0-.019,0ZM22.567,69.022c-.002.015-.006.029-.009.044.003-.002.007-.004.01-.007.015-.011.029-.021.045-.032-.016-.001-.03-.003-.046-.005ZM25.202,65.248c.062.082.117.17.163.265l.009.019c.032-.086.063-.174.093-.263-.088-.007-.176-.014-.265-.021Z"/>
    <path class="st0" d="M29.67,96.782c-.258,0-.519-.066-.754-.204-.578-.337-1.143-.747-1.683-1.222-.131.091-.277.163-.438.209-.625.183-2.438.384-3.66.407-.428.039-.833-.165-1.124-.476-.29-.311-.435-.73-.397-1.154l.102-1.167c-.105.169-.213.333-.324.491-.461.656-1.353.833-2.028.409l-2.363-1.49c-.344-.217-.585-.563-.668-.961-.084-.397-.002-.812.225-1.148,1.191-1.762,1.938-4.683,2.35-9.191l.157-1.788c.071-.81.767-1.416,1.586-1.366,2.164.133,7.46.525,10.327.776l1.363.12c.401.035.771.23,1.026.54.256.311.377.711.335,1.111-.216,2.051-.453,3.522-.764,5.375-.056.334-.219.625-.449.842,0,.004,0,.008,0,.013l-.123,1.408c.487.283.795.831.742,1.429l-.201,2.296c-.036.414-.238.775-.535,1.023.048.107.084.22.106.337.084.44-.034.896-.32,1.24l-1.332,1.601c-.294.353-.721.541-1.154.541ZM21.697,83.406c-.041.333-.085.657-.131.973.105-.167.241-.31.399-.423-.127-.164-.219-.352-.269-.55ZM30.533,81.879l.006.01s0-.006.002-.01c-.003,0-.006,0-.008,0ZM21.923,81.221l-.025.292c.05-.101.11-.196.181-.282-.053-.004-.104-.007-.155-.011Z"/>
    <path class="st0" d="M28.57,110.598c-.33,0-.66-.108-.934-.326l-2.248-1.787c-.305-.243-.502-.593-.553-.976-1.558,1.556-3.41,2.23-5.217,1.745-2.477-.667-3.93-2.773-3.702-5.367.174-1.992,1.233-3.881,2.907-5.183,1.69-1.315,3.836-1.937,6.036-1.74,2.167.189,4.104,1.051,5.456,2.426,1.452,1.478,2.149,3.468,1.962,5.603-.18,2.054-1.154,3.92-2.744,5.253-.278.233-.621.351-.964.351ZM28.251,101.573c.559.654.902,1.445.992,2.314.104.997-.14,2.028-.684,2.983.411-.637.663-1.366.73-2.138.107-1.226-.252-2.316-1.039-3.16ZM24.223,99.933c.225.107.422.27.571.477.158.219.251.473.276.734.175-.294.446-.523.774-.643.229-.083.47-.109.71-.079-.592-.247-1.252-.407-1.957-.468-.125-.011-.25-.018-.375-.021Z"/>
    <path class="st0" d="M29.447,128.491c-.044,0-.088-.002-.133-.006-2.114-.185-4.33-.52-6.424-1.605-.061.074-.123.147-.186.22-.536.622-1.473.699-2.102.169l-.642-.539-.942.088c-1.284.121-2.498.235-3.919.317-.404.016-.797-.116-1.096-.388-.299-.271-.475-.651-.49-1.054l-.087-2.321c-.015-.402.132-.794.409-1.086.008-.009.017-.018.025-.027l-.049-.745c-.021-.31.056-.605.202-.855l.134-1.732c.036-.472.288-.88.656-1.128l-1.064-1.427c-.416-.559-.393-1.33.056-1.863l.833-.993c1.017-1.214,1.819-2.174,2.936-3.379.302-.327.722-.505,1.181-.479.444.024.856.244,1.123.602,1.182,1.586,1.609,2.15,2.732,3.45.013.016.026.031.039.047.194.011.38.022.571.037.059-.078.125-.15.198-.216.069-.062.144-.117.223-.165l.107-1.234c.069-.803.763-1.409,1.567-1.368.073.003.147.007.221.011.069-.093.149-.178.24-.254.305-.256.701-.378,1.095-.345l1.812.159c.538.047.984.373,1.211.822l1.091.121c.81.089,1.399.809,1.329,1.621-.028.325-.068.729-.117,1.187.037.037.073.077.106.118.256.317.372.725.321,1.129l-.18,1.43c-.056.443-.3.818-.644,1.053-.031.303-.061.6-.086.887-.035.403-.228.755-.511,1.001l-.104.95c.189.287.287.631.25.974l-.193,1.809c-.017.158-.058.309-.119.447.114.242.163.512.138.784l-.229,2.42c-.073.776-.727,1.358-1.491,1.358Z"/>
    <path class="st0" d="M15.859,142.661c-.684,0-1.301-.47-1.461-1.164-.513-2.228-.659-4.665-.434-7.243h0c.156-1.787.491-3.651.996-5.542.212-.793,1.022-1.267,1.818-1.067l2.935.745c.396.101.734.359.937.715.201.356.249.779.131,1.171-.702,2.334-1.018,5.11-.894,7.336l.25-.818c.122-.398.404-.728.778-.91.375-.183.809-.202,1.196-.051,1.51.583,3.274.889,5.244.91.431.005.839.195,1.12.521.281.327.408.759.349,1.186l-.387,2.768c-.098.698-.667,1.233-1.369,1.288-1.747.137-4.824-.376-6.86-1.142-.036-.014-.071-.028-.106-.044-.214.328-.548.56-.932.645l-2.986.661c-.109.024-.219.036-.325.036ZM17.005,138.998c.015.121.03.242.047.362h.004c-.019-.12-.035-.24-.051-.362ZM27.005,135.624c-1.04,0-3.764-.195-5.347-.368-.402-.044-.769-.248-1.019-.566-.249-.318-.359-.723-.307-1.124l.367-2.752c.108-.811.852-1.383,1.658-1.292,1.333.152,4.101.328,4.859.324.416,0,.804.158,1.092.451.287.293.441.692.427,1.102l-.099,2.775c-.028.788-.661,1.419-1.448,1.446-.054.002-.115.003-.185.003Z"/>
    <path class="st0" d="M20.099,160.267c-.199,0-.403-.009-.612-.027-2.969-.26-4.367-2.73-4.176-4.922.03-.349.101-.694.208-1.029l-2.211-.495c-.437-.098-.807-.385-1.01-.784-.203-.398-.217-.867-.039-1.277.153-.352.308-.732.459-1.131-.213-.095-.404-.24-.554-.425-.257-.315-.374-.721-.325-1.125l.331-2.754c.096-.804.796-1.391,1.621-1.315.167.015.335.028.503.041.035-.191.07-.388.104-.588.134-.803.872-1.35,1.691-1.237l2.963.422c.41.058.778.284,1.017.624.229.326.317.729.249,1.12.035,0,.07.002.107.003.406.011.791.187,1.066.486.059.064.111.133.158.206.352-.276.824-.392,1.288-.275,1.101.274,2.109.569,4.317,1.262.769.241,1.21,1.047.998,1.825l-.667,2.454c-.108.4-.379.738-.746.933-.366.193-.798.227-1.19.092-.018-.006-.034-.012-.052-.018-.004.128-.009.254-.015.378.665.396,1.269.838,1.681,1.241.554.541.604,1.415.117,2.017l-1.805,2.228c-.26.319-.638.519-1.048.551-.239.019-.467-.019-.679-.104-.918,1.071-2.19,1.626-3.751,1.626ZM21.798,154.057c.174.123.321.283.431.471.145.249.213.531.202.813.159-.138.348-.243.555-.304.164-.049.332-.072.501-.06-.043-.022-.086-.043-.129-.064-.573-.277-.909-.887-.837-1.52,0-.003,0-.006,0-.009-.092.174-.219.33-.374.458-.107.088-.225.16-.35.215ZM19.378,155.185h0ZM19.708,154.948l.795.217c-.029-.04-.062-.076-.096-.109-.1-.093-.219-.152-.326-.161-.139-.014-.266.012-.373.053ZM20.478,153.666s.003,0,.005,0l.081-.989-.086.989ZM18.81,151.083c-.019.059-.037.117-.056.175.272-.069.56-.119.861-.145l-.806-.03ZM15.59,148.115c.158.108.297.247.405.411.141.212.224.454.244.702.012-.037.022-.074.033-.11.182-.617.734-1.043,1.367-1.074-.142-.092-.268-.208-.372-.345-.177-.231-.281-.506-.305-.791-.004.02-.009.039-.014.059-.154.647-.713,1.106-1.359,1.149Z"/>
    <path class="st0" d="M18.479,176.854c-.223,0-.448-.01-.679-.03-2.876-.251-4.894-2.17-4.693-4.464h0c.079-.901.42-1.703.96-2.338-.165-.17-.292-.38-.362-.62l-.307-1.039c-.146-.492-.029-1.024.309-1.411.322-.37.603-.695.862-1.004l-.108-.007c-.398-.028-.769-.213-1.03-.515-.262-.301-.392-.695-.362-1.093l.201-2.712c.03-.4.219-.772.524-1.032.307-.26.703-.387,1.104-.351l1.381.121c1.882.164,3.657.346,6.128.626.526.06.981.392,1.198.874.218.482.165,1.043-.139,1.477-.745,1.063-1.292,1.828-1.794,2.517.599.301,1.134.709,1.583,1.213.995,1.118,1.468,2.604,1.329,4.182-.296,3.379-2.767,5.605-6.104,5.605ZM17.509,173.086c.012.109.138.26.225.266.143.013.273-.071.428-.232l-.652-.034ZM20.508,173.118c0,.039-.002.077-.004.116.07-.055.138-.114.202-.176-.064.024-.131.045-.198.061ZM19.006,173.164h.01-.01ZM17.298,167.359c.172.006.339.017.502.032-.073-.153-.119-.314-.138-.477-.121.149-.241.297-.364.445ZM18.504,163.581c.164.146.296.329.385.538.044.106.076.216.096.327.179-.244.36-.493.552-.758-.354-.037-.697-.073-1.032-.106Z"/>
    <path class="st0" d="M19.253,192.906c-.547,0-1.049-.02-1.516-.061-2.11-.185-3.735-.782-4.832-1.774-.836-.757-1.789-2.139-1.589-4.431h0c.082-.949.409-1.856,1.018-2.812-.421-1.707-.684-3.936-.642-5.594.02-.76.604-1.385,1.36-1.456l2.897-.271c.425-.042.833.099,1.145.38s.491.68.495,1.1c.004.429.017.881.035,1.324.56-.307,1.124-.585,1.665-.819.389-.167.826-.163,1.209.009.384.172.678.498.81.897l.972,2.94c.248.75-.128,1.564-.86,1.861-1.993.809-3.386,1.971-3.788,2.551.384.09,1.229.187,3.05.15.432-.024.838.166,1.128.479.29.313.434.735.394,1.16l-.278,2.976c-.069.744-.676,1.324-1.423,1.359-.442.021-.857.031-1.249.031ZM15.188,182.867c.065.286.137.556.212.802.139.456.052.951-.232,1.333-.539.723-.813,1.326-.863,1.897h0c-.101,1.156.302,1.666.614,1.948.592.536,1.657.886,3.08,1.01.327.028.68.044,1.063.049v-.008c-1.861-.056-3.083-.333-3.839-1.144-.521-.557-.745-1.283-.669-2.157.165-1.878,2.547-3.585,4.459-4.582l-.013-.038c-.625.346-1.243.733-1.801,1.132-.426.305-.979.366-1.462.16-.215-.092-.402-.231-.55-.403ZM12.81,186.769h.01-.01Z"/>
    <path class="st0" d="M18.339,209.742c-.386,0-.744-.015-1.084-.045-2.729-.239-4.219-1.434-5.146-2.931-.123.282-.239.561-.352.839-.307.766-1.176,1.14-1.941.836l-2.184-.86c-.378-.149-.68-.445-.836-.821-.155-.375-.152-.798.01-1.171.554-1.277,1.146-2.519,1.651-3.565.135-.278.346-.498.596-.643v-.01c.026-2.464.103-4.855.239-7.523.021-.406.206-.787.514-1.054.306-.267.701-.401,1.115-.363l.826.072c2.971.26,7.072.583,9.834.788.407.03.785.226,1.046.541.26.315.38.723.333,1.129-.121,1.028-.442,3.539-.786,5.908.506.097.946.452,1.131.968.176.491.506,1.445.745,2.325.207.759-.208,1.548-.95,1.809l-1.277.448.154,1.543c.083.821-.515,1.555-1.336,1.641-.877.092-1.631.138-2.303.138Z"/>
    <path class="st0" d="M15.829,221.112c-.576,0-1.116-.333-1.364-.877l-1.092-2.392c-.178-.39-.181-.836-.009-1.228.173-.392.505-.691.912-.823l.142-.046c.334-.108.693-.224,1.04-.34-.704-.016-1.655.021-2.977.166-.409.042-.808-.078-1.12-.336-.312-.259-.507-.634-.538-1.039l-.204-2.621c-.062-.789.5-1.49,1.284-1.601,1.833-.262,3.504-.329,4.967-.201,5.736.501,6.283,3.975,6.314,5.027.012.115.003.305-.018.526-.158,1.821-1.495,4.304-6.958,5.735-.127.033-.254.049-.38.049ZM19.13,213.41s.007.006.01.009c.531.474.826,1.121.83,1.824,0,.199-.02.383-.06.555.156-.241.247-.488.27-.739l.01-.121c-.022-.716-.462-1.2-1.06-1.528Z"/>
    <path class="st0" d="M14.401,238.461c-.213,0-.427-.045-.628-.138-2.388-1.101-3.931-3.02-4.234-5.263-.182-1.345.094-2.701.774-3.948-.824-.075-1.664-.162-2.478-.258-.819-.097-1.407-.837-1.314-1.657l.327-2.917c.044-.396.244-.757.555-1.005.311-.249.711-.362,1.104-.318,3.747.423,6.986.713,9.123.817.646.031,1.199.474,1.372,1.097l.55,1.982c.168.605-.059,1.251-.568,1.618-3.447,2.482-3.444,3.517-3.433,3.627.006.054.101.544,1.655,1.224.451.197.776.603.871,1.086s-.054.982-.396,1.334l-2.204,2.265c-.289.297-.679.454-1.075.454ZM12.629,231.309c-.135.451-.177.905-.116,1.349.128.948.692,1.788,1.617,2.431l.05-.05c-.77-.593-1.486-1.443-1.612-2.624-.039-.367-.02-.734.062-1.106ZM14.056,226.531c.309.179.55.466.668.819.074.221.095.45.065.672.445-.425.959-.863,1.546-1.317-.729-.047-1.498-.107-2.279-.173Z"/>
    <path class="st0" d="M6.087,251.682c-.623,0-1.204-.392-1.418-1.012-.829-2.408-1.104-4.572-.89-7.017.096-1.099.288-2.266.606-3.673.088-.39.328-.729.667-.941.339-.211.747-.28,1.138-.189l2.834.664c.783.184,1.282.952,1.132,1.742-.224,1.169-.356,2.433-.382,3.564l.145-.021c.397-.049.798.057,1.115.301.316.245.521.607.57,1.004l.306,2.503c.087.71-.341,1.383-1.021,1.606-.761.25-1.542.499-2.315.745-.686.218-1.365.434-2.021.648-.154.051-.312.075-.466.075ZM6.901,242.792c-.059.391-.103.762-.134,1.122h0c-.135,1.546-.04,2.915.318,4.37.192-.061.386-.123.579-.184.112-.036.225-.072.338-.107-.229-.05-.444-.153-.629-.304-.312-.255-.509-.625-.545-1.027-.101-1.125-.072-2.484.072-3.869ZM5.273,243.784h.01-.01ZM15.356,249.654c-.334,0-.661-.111-.928-.321-.344-.271-.553-.678-.571-1.115-.058-1.353-.353-3.329-.809-5.42-.089-.408-.004-.835.235-1.178.238-.342.609-.57,1.023-.628l2.946-.411c.706-.093,1.393.32,1.626,1,.504,1.473.863,4.325.77,6.103-.036.686-.534,1.259-1.208,1.392l-2.795.55c-.097.019-.193.028-.29.028ZM16.301,243.743c.094.504.177.994.249,1.464-.057-.507-.13-1.013-.216-1.469l-.033.004Z"/>
    <path class="st0" d="M8.261,268.456c-.216,0-.437-.01-.662-.03-1.222-.107-2.299-.608-3.034-1.412-.772-.844-1.139-1.979-1.032-3.197h0c.119-1.361.713-2.207,1.286-2.715-.081-.187-.123-.391-.123-.598l.006-2.548c0-.536.283-1.006.708-1.271l-.056-2.208c-.011-.399.139-.785.414-1.074.274-.289.653-.456,1.053-.464.388-.009.787-.016,1.205-.021.058-.245.176-.475.348-.665.283-.312.684-.492,1.104-.494l2.894-.018h.009c.73,0,1.355.526,1.479,1.248l.003.016c.447.029.869.065,1.244.108.399.045.764.249,1.011.565.248.316.358.719.307,1.117l-.335,2.591c-.005.044-.013.087-.022.13.182.28.272.621.233.979l-.279,2.578c-.045.411-.257.786-.587,1.035-.004.003-.008.005-.011.008.091.04.179.08.264.119.727.338,1.059,1.187.756,1.928l-1.035,2.531c-.156.381-.462.681-.846.83-.384.15-.812.133-1.184-.042l-.402-.192c-.3-.144-.592-.284-.899-.419-.847,1.022-2.178,1.584-3.814,1.584ZM8.697,264.45l-.539.796c.129-.064.268-.176.379-.353.092-.146.142-.298.16-.443ZM7.949,264.017l.74.112c-.017-.082-.042-.155-.075-.215-.12-.22-.364-.376-.621-.398l-.044.501ZM7.932,263.512c-.3,0-.488.206-.521.422l.538.082.043-.501c-.02-.002-.04-.003-.06-.003ZM10.002,263.149c.197.216.327.485.373.772.103-.097.219-.179.347-.245.109-.056.224-.097.341-.125-.257-.237-.424-.56-.47-.909-.105.155-.241.291-.4.398-.062.041-.125.077-.19.108ZM10.359,259.313c.094.066.182.143.26.23.148.167.257.361.319.571.136-.331.383-.603.69-.77-.277-.203-.481-.498-.569-.837-.127.348-.38.634-.7.806ZM10.412,255.658c.35.2.611.536.712.938.08-.251.226-.479.424-.658.073-.066.151-.124.234-.173-.37-.199-.646-.549-.748-.968-.066.245-.194.472-.374.657-.076.077-.159.146-.248.205Z"/>
    <path class="st0" d="M9.501,285.174c-.262,0-.524-.068-.761-.208l-2.596-1.528c-.418-.246-.69-.678-.733-1.161-.03-.346.06-.687.249-.968-1.433-.416-2.151-1.351-2.442-1.851-.812-1.397-.682-3.186.331-4.556.039-.053.079-.105.12-.156-.176-.021-.35-.043-.52-.064-.802-.099-1.381-.815-1.311-1.62l.243-2.78c.036-.41.238-.787.561-1.043.321-.256.736-.368,1.143-.311.958.135,2.287.285,3.835.435.061-.246.184-.476.359-.665.274-.294.655-.467,1.058-.478l3.008-.081c.388-.016.801.144,1.091.429.291.285.453.676.449,1.083,0,.054,0,.11,0,.167.402.022.843.044,1.335.064.414.017.802.203,1.073.515.271.312.401.723.359,1.134l-.279,2.777c-.076.757-.706,1.337-1.467,1.35-.381.004-.823,0-1.293-.013-.068.386-.148.746-.242,1.081.927,2.616-.099,5.915-2.586,8.079-.279.244-.631.369-.984.369ZM9.484,278.475c.143.077.274.178.389.301.25.27.388.616.399.971.21-.824.179-1.636-.142-2.287-.18-.364-.203-.785-.067-1.167.049-.135.094-.28.135-.433-.122.172-.281.318-.469.427-.093.054-.189.097-.288.129.284.482.37,1.06.233,1.613-.039.159-.104.31-.19.447ZM6.762,277.311c-.058.234-.007.493.136.693.136.189.298.25.365.256.308.024.62-.135.782-.404.039-.065.067-.135.086-.208l-1.369-.337ZM8.218,277.669h.01-.01ZM7.324,276.511c-.114.058-.208.136-.278.223l1.095.874c.045-.222-.003-.463-.143-.674-.199-.302-.511-.417-.674-.422ZM7.275,276.513h0ZM9.577,272.431c.534.195.92.684.977,1.261.136-.512.532-.909,1.03-1.054-.572-.213-.976-.764-.977-1.404v-.055h-.008c-.041.346-.201.67-.457.914-.163.155-.356.27-.565.338Z"/>
    <path class="st0" d="M12.994,292.836c-.135,0-.271-.006-.407-.018-2.685-.235-4.478-2.18-4.264-4.625h0c.192-2.185,2.069-4.395,4.762-4.161,2.537.222,4.354,2.344,4.138,4.831-.204,2.329-1.99,3.974-4.229,3.974ZM12.457,288.642c.051.069.196.188.404.206.07.008.205,0,.255-.062.058-.07.118-.252.055-.469-.025-.094-.203-.285-.436-.305-.072-.006-.104,0-.162.07-.113.139-.158.362-.116.559ZM12.469,288.693h.01-.01ZM12.443,288.622h0Z"/>
  </g>
  <g>
    <path class="st1" d="M50.373,12.891c-.512.479-1.019.905-1.774,1.49l-1.199-2.002c1.235-.905,2.114-1.641,3.069-2.642-.866-.021-1.641-.053-2.184-.046l.083-2.595c.687.006,1.571.011,2.507.057l.118-1.346c-.57.113-1.104.211-1.526.301l-.487-2.483c1.91-.357,4.203-.735,5.961-.997l.38,2.473c-.477.067-1.061.142-1.667.251-.071.609-.128,1.254-.185,1.9.917.062,1.763.1,2.373.153l-.207,2.567c-.558-.031-1.401-.086-2.338-.132.658.744,1.5,1.451,2.362,2.123l-1.382,1.759c-.387-.341-.836-.778-1.249-1.23-.117,1.544-.226,2.999-.295,4.204l-2.619-.229c.057-1.062.146-2.283.259-3.574ZM60.828,15.685c-1.811.04-3.382.029-6.031-.058l.167-2.732,1.027.035c.526-2.104,1.176-4.561,1.854-7.158l2.661.576c-.619,2.115-1.327,4.638-1.826,6.619.595.016,1.138.009,1.679.021-.103-.479-.189-.938-.293-1.399l2.604-.423c.299,1.545.578,3.304.83,4.772l-2.555.481c-.033-.238-.065-.494-.117-.733Z"/>
    <path class="st1" d="M47.987,25.292c.147-1.686.435-3.324.863-4.913l2.851.466c-.923,3.733-1.106,6.663-.644,10.462l-2.967.446c-.247-2.136-.286-4.381-.104-6.461ZM54.506,32.785c-1.576-.373-2.392-1.384-2.266-2.819.165-1.883,1.897-2.888,3.94-2.275.084-.751.146-1.668.171-2.57-.719-.045-1.543-.135-2.509-.255l.304-2.847c.662.075,1.415.141,2.188.191-.032-.672-.064-1.126-.106-1.473l2.901-.108c.049.475.087,1.074.104,1.708.9.025,1.606.014,2.116-.031l.053,2.915c-.673.05-1.396.058-2.19.043-.061,1.513-.131,2.519-.23,3.251.659.311,1.727,1.127,2.32,1.776l-1.726,1.963c-.375-.268-.993-.846-1.487-1.178-.283,1.167-1.668,1.915-3.139,1.786-.125-.011-.197-.017-.445-.075ZM55.102,30.723c.431.038.931-.298.854-.667-.057-.186-.246-.292-.46-.33-.519-.063-1.215.255-.859.738.111.172.284.26.465.258Z"/>
    <path class="st1" d="M55.879,36.931l1.963-1.78c.678.729,2.438,2.925,2.768,3.911l-2.149,1.421c-.322-.661-2.053-2.981-2.581-3.552Z"/>
    <path class="st1" d="M53.823,55.89c1.292-1.352,1.68-2.059,1.776-3.17.024-.269-.011-.489-.115-.733-1.699,2.888-4.272,4.614-7.059,4.443-1.801-.085-3.001-1.438-2.86-3.25.195-2.243,1.735-3.933,4.185-4.659.031-.359.062-.718.093-1.058-.921-.009-1.753-.009-2.277,0l-.016-2.712c.724-.009,1.645,0,2.564.025.039-.448.1-.931.148-1.288l2.679.379c-.029.124-.06.465-.123.983,1.102.024,2.449.105,3.257.176l-.146,2.699c-.717-.062-2.031-.124-3.4-.171-.018.197-.036.413-.055.627,3.607.081,6.043,2.192,5.797,5.007-.15,1.723-.927,3.155-2.284,4.211l-2.163-1.509ZM49.385,53.929c.034-1.009.096-1.926.149-2.752-.779.438-1.21,1.033-1.273,1.75-.056.646.172.937.817.993.197.017.251.021.307.009ZM53.391,50.701c-.318-.082-.677-.113-1.129-.116-.026.305-.06.682-.128,1.868.42-.451.831-1.03,1.257-1.752Z"/>
    <path class="st1" d="M44.555,67.4c.386-.887.763-1.903,1.109-2.975-.52-.045-1.004-.088-1.417-.124l.332-2.754c.609.053,1.222.089,1.831.142.144-.602.272-1.259.387-1.937l2.963.422c-.123.585-.262,1.134-.382,1.684.503.026,1.025.053,1.927.078l-.17,2.769c-.685-.023-1.405-.051-2.505-.093-.411,1.392-.803,2.568-1.15,3.442l-2.925-.654ZM51.49,67.682c.358.032.447.04.626.073.005-.47-.002-1.012-.012-1.519l2.918.111c.016.851-.016,1.625-.092,2.287.867.419,1.738,1.001,2.204,1.458l-1.804,2.229c-.268-.241-.657-.546-.998-.774-.046.104-.093.227-.137.313-.725,1.473-1.919,2.11-3.659,1.958-4.071-.356-3.729-6.544.953-6.135ZM51.852,70.352c-.318-.082-.532-.119-.729-.136-.627-.073-.986.112-1.022.524-.031.359.303.677.769.718.448.039.77-.33.982-1.107ZM52.829,64.763l.667-2.454c1.114.278,2.154.586,4.229,1.237l-.666,2.454c-.843-.291-2.183-.679-4.23-1.237Z"/>
    <path class="st1" d="M42.931,88.238c.148-.873.79-4.07,1.467-7.264-.614,0-1.228-.017-1.824-.015l.155-2.806c.958-.007,1.664-.018,2.277,0,.323-1.417.471-2.073.556-2.427l2.928.618c-.168.689-.313,1.309-.436,1.877.723.009,1.531.062,2.554.151l-.24,2.745c-1.008-.052-2.034-.088-2.938-.095-.652,2.907-1.481,6.811-1.641,7.81l-2.858-.594ZM49.62,89.673l.506-2.685c1.589.428,4.528.722,5.662.568l-.003,2.711c-.552.113-1.492.122-2.676.019-1.363-.119-2.734-.366-3.489-.613ZM50.429,82.279c1.596-.06,3.772.059,5.146.269l-.238,2.727c-1.505-.15-3.754-.274-4.896-.247l-.012-2.749Z"/>
    <path class="st1" d="M50.179,103.11c1.914-1.838,1.924-4.224.038-5.401-1.315,4.096-3.951,6.541-6.353,5.896-1.784-.481-2.763-1.904-2.598-3.787.286-3.265,3.498-5.894,7.318-5.559,3.659.32,6.367,2.834,6.056,6.403-.145,1.65-.947,3.171-2.215,4.235l-2.247-1.788ZM47.434,97.086c-2.066.072-3.338,1.587-3.472,2.714-.036.412.021.996.64,1.158.635.182,2.029-1.72,2.832-3.873Z"/>
    <path class="st1" d="M41.961,117.929l-2.424.023.009-2.584c.706-.011,1.632-.056,2.592-.081.069-.789.122-1.598.19-2.387-.36-.014-.683-.042-.988-.068-.06.266-.137.53-.215.812l-2.149-.64c.356-1.396.864-3.268,1.103-4.133l2.158.533c-.083.335-.182.634-.244.936.179.016.36.013.539.029.062-.898.132-1.706.186-2.315l2.44.196c-.066.554-.137,1.361-.201,2.296.396.017.791.051,1.186.085l-.147,2.517c-.378-.015-.809-.052-1.241-.072-.042.683-.104,1.4-.149,2.119l1.504-.048.104,2.539c-.529.062-1.13.118-1.784.151l-.21,3.434-2.464-.144c.035-.81.114-1.924.208-3.199ZM46.209,113.583c.613-1.645,1.671-4.227,2.287-5.692l2.481.977-.665,1.604c1.492.094,3.183.188,4.494.285l-.273,2.706c-1.544-.118-3.646-.265-5.316-.375-.23.558-.436,1.046-.576,1.414l-2.432-.918ZM47.177,120.482c.573-.564,1.112-1.149,1.598-1.74-.567-.537-1.133-1.093-1.66-1.681l1.887-1.733c.414.434.847.869,1.28,1.269.49-.843.911-1.728,1.287-2.725l2.481.976c-.488,1.241-1.058,2.383-1.729,3.446.559.429,1.123.803,1.653,1.139l-1.471,2.148c-.602-.359-1.182-.754-1.74-1.183-.523.605-1.08,1.189-1.67,1.734l-1.916-1.65Z"/>
    <path class="st1" d="M37.405,132.184c.509-.028,1.071-.051,1.653-.09.063-.717.12-1.58.197-2.458-.699-.062-1.293-.095-1.634-.125l.184-2.515c.54.029,1.115.062,1.672.11.053-.61.118-1.146.154-1.559l2.561.278-.128,1.453c.538.047,1.096.077,1.616.123l-.148,2.518c-.504-.026-1.097-.06-1.688-.111l-.187,2.134c.491-.047.983-.094,1.424-.164l.175,2.545c-1.867.271-3.903.399-5.787.452l-.063-2.59ZM48.871,138.519c.929-1.527,1.129-2.161,1.288-3.159l-.484-.042c-.442,1.353-.812,2.061-1.658,3.47l-1.382-.736c.786-1.142,1.104-1.674,1.479-2.871l-.43-.038c-.419,1.065-.923,1.872-1.832,2.966l-1.379-.771c.882-.989,1.253-1.517,1.614-2.334l-.466-.041c-.252.393-.557.782-.904,1.24l-1.795-.97c.667-.81,1.271-1.715,1.693-2.618l-.682-.06.179-2.045c2.547.223,6.708.587,8.916.762l-.127,2.068-6.08-.532-.267.574c1.973.172,4.374.4,6.039.582-.312,2.54-.392,3.238-1.691,5.491l-2.032-.937ZM45.213,123.92c2.71.219,3.858.319,4.701.393l1.346.118c.448.04.916.062,1.4.104-.148,1.488-.503,4.927-.646,6.144l-7.156-.626c.09-1.239.302-5.106.355-6.132ZM49.677,128.685c.036-.213.057-.447.093-.661-.697-.079-1.452-.127-2.277-.199-.021.233-.039.449-.04.665l2.225.195ZM49.899,126.969c.021-.233.038-.431.073-.626-.824-.09-1.453-.127-2.373-.153l-.05.574,2.35.206Z"/>
    <path class="st1" d="M41.647,152.902c1.883-3.125,2.311-5.329.968-5.681-.142-.03-.318-.082-.514-.118-1.219,2.768-2.548,5.778-2.693,6.199l-2.418-1.079c.08-.3.72-1.817,2.259-5.37-.828-.036-1.479-.021-1.861,0l.122-2.845c.707-.028,1.717.005,2.938.094.406-.922.947-2.158,1.237-2.784l2.522,1.125c-.134.295-.539,1.199-.895,1.964.624.09,1.122.188,1.51.294,2.629.736,2.185,5.613-.888,9.737l-2.288-1.538ZM46.31,144.02l2.238-.581c.36.845,1.115,3.368,1.355,4.546l-2.233.744c-.362-2.056-.807-3.594-1.36-4.709ZM48.985,142.176l1.382-.313c.127.21.462,1.342.502,1.706l-1.427.399c-.096-.352-.369-1.568-.457-1.792ZM50.953,141.787l1.379-.277c.148.375.37,1.153.484,1.705l-1.404.347c-.079-.332-.3-1.327-.459-1.775Z"/>
    <path class="st1" d="M24.638,11.073c1.075-1.75,2.416-5.301,2.967-7.675l3.274.792c-.922,3.317-1.998,6.314-3.351,8.346l-2.891-1.464ZM34.44,5.027l3.278-.491c.111,2.432.729,4.673,2.136,6.784l-3.2,1.455c-1.494-2.336-2.258-5.385-2.214-7.748ZM37.643,1.457l1.628-.002c.029.689.007,1.772-.003,2.295l-1.626.002c.016-.595.014-1.608,0-2.295ZM40.117,1.492l1.591-.005c.03.69.027,1.756.016,2.297l-1.646.019c.021-.667.019-1.661.039-2.31Z"/>
    <path class="st1" d="M29.286,28.411c1.438-1.356,2.233-2.606,2.58-5.125-.864-.039-1.744-.098-2.625-.157-.09.824-.19,1.556-.274,2.109l-2.918-.328c.059-.465.122-1.183.176-2.009-.661-.076-1.308-.132-1.951-.207l.315-2.991c.61.053,1.238.108,1.867.145.057-.863.091-1.655.118-2.176l3.082.089c-.011.542-.064,1.368-.128,2.302.862.057,1.725.115,2.553.151.013-.758.013-1.589.003-2.512l3.096-.055c.005.977,0,1.862-.038,2.708.936.046,1.747.063,2.361.08l-.214,3.054c-.722-.009-1.532-.044-2.38-.063-.453,3.322-1.489,5.454-3.533,7.119l-2.09-2.135ZM35.978,17.393l1.628-.002c.029.689.008,1.772-.003,2.295l-1.627.002c.017-.595.015-1.607.002-2.295ZM38.452,17.428l1.591-.005c.03.69.027,1.756.016,2.298l-1.646.018c.021-.666.018-1.661.039-2.31Z"/>
    <path class="st1" d="M28.122,44.391c.221-3.56.661-9.414.826-11.297l3.034.229c-.177,1.395-.592,7.792-.886,11.363l-2.975-.296Z"/>
    <path class="st1" d="M21.239,57.772c.826-1.374,1.896-5.545,2.05-7.718l3.16.656c-.188,2.55-1.244,6.362-2.41,8.537l-2.8-1.475ZM29.179,49.249l3.159.656c-.289,1.24-.887,5.182-.827,6.145.59-.129,2.222-.601,2.789-.877l1.01,3.125c-1.495.556-5.008,1.46-7.044,1.788-.364-1.821.433-8.855.913-10.837Z"/>
    <path class="st1" d="M27.115,75.109c-.412-.036-.826-.054-1.24-.073-.515,1.13-1.207,2.027-2.047,2.948l-2.012-1.387c.557-.584,1.019-1.104,1.41-1.666-.378-.015-.773-.032-1.154-.029l.129-2.284c.686.006,1.353.028,2.001.049.08-.283.142-.584.188-.906-.343-.012-.685-.023-1.047-.019l.11-1.473c-.772.565-1.631,1.086-2.598,1.599l-1.368-2.126c.611-.38,1.146-.695,1.605-.999-.417-.397-.769-.718-1.217-1.173l1.349-1.581c.583.575,1.049,1.032,1.546,1.546.508-.426.888-.845,1.241-1.374-.969-.085-1.975-.155-2.948-.186l.197-2.459c1.298.041,3.347.166,5.339.34l.717.063c-.385,2.533-1.4,4.233-3.008,5.666,2.023.014,3.857.12,6.188.342-1.119-1.254-2.039-2.727-2.891-4.554l2.209-1.09c.278.548.544,1.023.796,1.443.304-.371.588-.726.968-1.144l1.662,1.248c-.544.639-.983,1.125-1.484,1.677.179.232.375.467.572.683.547-.657.912-1.113,1.454-1.734l1.649,1.392c-.645.757-1.146,1.309-1.565,1.779.303.261.624.506.997.792l-1.512,2c-.989-.683-1.848-1.409-2.608-2.216l-.171,1.956-.843-.074-.08.914,1.865.164-.201,2.296c-.628-.055-1.235-.126-1.827-.178-.027.305-.033.576-.052.791.907-.047,1.545-.1,2.467-.309l.299,2.376c-2.063.235-2.845.276-5.093.151-.037-1.016-.034-2.082.007-3.18ZM27.44,72.842c.028-.323.055-.628.102-.949-.324-.01-.647-.039-.954-.047-.046.321-.091.625-.153.926.342.012.665.041,1.006.07Z"/>
    <path class="st1" d="M17.799,91.315c1.35-1.997,2.163-5.106,2.601-9.894l.157-1.793c2.085.128,7.347.516,10.288.773l1.363.12c-.213,2.023-.449,3.485-.751,5.284l-1.436-.125c-1.327-.116-5.168-.417-7.186-.502-.537,3.242-1.434,5.856-2.674,7.628l-2.363-1.49ZM26.365,92.155l.896-.518c-.521-.046-1.043-.074-1.545-.118l-.122,1.399c.168-.058.331-.062.517-.117l.264,1.325c-.427.125-2.071.325-3.266.347l.271-3.104-1.189-.049.201-2.296c.415.018,1.08.058,1.853.107l.075-.861c-.378-.015-.736-.046-1.043-.055l.169-1.937c.289.007.648.021,1.044.055l.062-.7,2.116.185-.057.646c.414.018.845.056,1.257.092l.055-.627,2.1.184-.052.592c.376.033.718.045,1.023.072l-.168,1.919c-.287-.025-.629-.037-1.025-.053l-.073.843c.754.048,1.42.087,1.886.128l-.201,2.296c-.307-.009-.755-.048-1.276-.075l.725.804c-.253.212-.433.396-.628.578.238.166.496.315.771.465l-1.332,1.601c-1.204-.702-2.355-1.797-3.306-3.127ZM29.097,83.447c.06-.267.101-.534.158-.781-1.507-.132-3.93-.326-6.012-.49-.025.287-.068.573-.094.86,1.584.084,4.226.261,5.947.412ZM27.624,89.337l.073-.844c-.412-.036-.826-.054-1.257-.092l-.075.861c.414.018.847.038,1.259.074ZM29.722,91.798c-.379-.015-.809-.053-1.239-.09.178.232.395.45.628.669.216-.198.411-.362.611-.579Z"/>
    <path class="st1" d="M26.322,107.311c1.915-1.839,1.925-4.224.039-5.401-1.316,4.096-3.952,6.541-6.354,5.896-1.784-.48-2.762-1.904-2.597-3.787.285-3.265,3.498-5.894,7.318-5.559,3.659.32,6.367,2.834,6.055,6.403-.145,1.65-.945,3.171-2.214,4.235l-2.248-1.787ZM23.578,101.287c-2.066.072-3.338,1.588-3.473,2.715-.036.412.021.996.64,1.158.635.182,2.03-1.72,2.833-3.873Z"/>
    <path class="st1" d="M14.926,123.316l.508-.01-.124-1.891,1.041-.126c.029.708.083,1.327.102,1.943l.254-.014c.056-.844.107-1.635.173-2.388l-1.372-.012.137-1.777c.524-.008.977-.005,1.393-.005.028-.323.074-.644.103-.967-.234-.002-.506-.008-.795.003l.083-1.367-.302.354-1.182-1.585c1.433-1.701,2.345-2.832,3.722-4.32,1.182,1.586,1.635,2.186,2.8,3.535l-1.53,1.583c-.54-.643-.947-1.148-1.517-1.868-.604.707-1.168,1.362-1.771,2.051,1.391.013,2.22.031,3.205.136l-.14,1.596c-.341-.03-.647-.039-.97-.067l-.087.986c.433.02.898.061,1.419.106l-.155,1.776c-.54-.029-.989-.051-1.42-.089-.062.7-.106,1.419-.154,2.174.091-.009.181-.001.271-.012.085-.553.167-1.07.236-1.661l.972.248-.17,1.322.274-.03-.056,2.291c-1.713.157-3.118.305-4.861.406l-.087-2.321ZM22.506,124.901c-.27.392-.576.799-.938,1.219l-1.465-1.23c.396-.399.718-.769.985-1.143-.384-.358-.746-.77-1.122-1.219l1.759-1.508c.113.154.228.291.342.427.057-.231.095-.462.135-.711-.506-.008-1.028-.018-1.681-.002l.06-2.127c.378.015.723.009,1.028.018.187-.472.309-.841.414-1.211-.325-.01-.581.021-.889.031l.07-2.253c1.332.062,1.837.07,3,.208-.236,1.046-.53,2.141-.884,3.285l.79.069c-.123,1.815-.305,3.064-.609,4.067,1.796,1.369,3.799,1.616,6.173,1.751l-.229,2.42c-2.853-.25-4.996-.745-6.938-2.089ZM25.741,123.052c-.54-.029-1.098-.06-1.621-.069l.088-1.836,1.673.093.051-.574c-.45-.021-.884-.023-1.28-.04l.081-1.747,1.332.063.055-.628-1.386-.067.072-1.44,1.438.072.056-.628c-.719-.045-1.402-.086-1.961-.1l.072-1.457,2.014.122c.018-.197.035-.395.07-.59-.503-.044-.972-.05-1.422-.071l.161-1.847c.469.023.954.047,1.438.089l.06-.682,1.812.159c-.019.216-.057.447-.077.68l2.345.26c-.05.573-.14,1.397-.24,2.328l.557.049-.18,1.43-.538-.047c-.062.7-.141,1.397-.197,2.042l-.717-.062c-.377-.033-.933-.082-1.562-.119,0,.199-.018.415-.037.629.684.042,1.312.097,1.85.144l-.185,1.701c-.484-.042-1.112-.097-1.796-.139l-.05.574c.772.049,1.508.114,2.136.168l-.193,1.809c-.574-.05-1.292-.113-2.083-.164,0,.217-.018.415-.034.593l-1.829-.16c.016-.179.031-.358.029-.539ZM28.615,117.049c.019-.215.038-.43.073-.626-.233-.021-.485-.024-.72-.045l-.053.609.699.062ZM28.832,114.99c.018-.197.051-.375.066-.554l-.735-.064c-.016.179-.051.375-.068.572.253.004.504.025.737.046Z"/>
    <path class="st1" d="M15.459,134.384c.149-1.704.466-3.466.951-5.285l2.935.745c-1.097,3.646-1.304,8.092-.498,10.656l-2.986.661c-.484-2.103-.611-4.373-.401-6.776ZM20.737,139.96l.835-2.728c1.696.654,3.637.987,5.768,1.011l-.387,2.768c-1.529.119-4.396-.366-6.216-1.05ZM22.188,131.014c1.36.156,4.146.345,5.05.333l-.099,2.775c-.742.025-3.617-.172-5.318-.357l.367-2.752Z"/>
    <path class="st1" d="M13.635,152.33c.386-.888.764-1.903,1.11-2.975-.521-.045-1.004-.088-1.417-.124l.331-2.754c.61.054,1.222.089,1.831.142.144-.603.273-1.259.387-1.937l2.963.422c-.123.585-.262,1.134-.382,1.684.504.026,1.025.054,1.927.078l-.17,2.769c-.685-.024-1.405-.051-2.504-.093-.411,1.392-.804,2.569-1.15,3.442l-2.926-.654ZM20.57,152.611c.358.032.448.04.626.073.005-.469-.002-1.012-.012-1.519l2.919.111c.016.851-.017,1.625-.092,2.288.866.419,1.737,1.001,2.204,1.458l-1.805,2.228c-.268-.241-.656-.546-.998-.774-.045.104-.092.227-.136.313-.726,1.473-1.92,2.109-3.659,1.958-4.072-.356-3.729-6.544.952-6.135ZM20.932,155.282c-.317-.082-.531-.119-.729-.136-.627-.073-.986.112-1.022.524-.031.359.303.678.77.718.448.04.77-.33.981-1.107ZM21.91,149.692l.666-2.454c1.115.278,2.154.586,4.23,1.237l-.667,2.454c-.843-.291-2.182-.679-4.229-1.238Z"/>
    <path class="st1" d="M14.601,172.49c.253-2.888,4.379-3.358,5.567-.833.068-.156.104-.37.128-.639.15-1.722-1.771-2.486-5.153-2.042l-.307-1.039c1.085-1.243,1.713-2.019,2.669-3.237-.859-.093-1.953-.189-2.941-.257l.201-2.712c.466.041.933.082,1.381.121,1.65.144,3.335.31,6.091.623-1.384,1.976-2.08,2.909-3.084,4.267,2.452.07,4.148,1.954,3.937,4.375-.245,2.798-2.288,4.463-5.158,4.212-2.027-.177-3.455-1.405-3.33-2.84ZM19.006,173.164c.078-1.511-1.92-1.614-2.06-.831-.065.537.287.838.787.918.463.077.952.066,1.272-.087Z"/>
    <path class="st1" d="M12.81,186.769c.076-.879.459-1.731,1.154-2.664-.491-1.616-.816-4.102-.772-5.833l2.897-.271c.012,1.302.103,2.955.237,3.889,1.08-.773,2.374-1.509,3.558-2.02l.972,2.94c-2.53,1.026-4.71,2.805-4.808,3.917-.119,1.363.914,1.743,4.661,1.673l-.278,2.976c-1.07.05-1.882.034-2.563-.026-3.569-.312-5.295-1.873-5.058-4.582Z"/>
    <path class="st1" d="M8.183,206.186c.498-1.148,1.03-2.277,1.626-3.508l2.169.822c-.616,1.266-1.148,2.394-1.611,3.546l-2.184-.86ZM10.792,193.926l.826.072c2.977.26,7.087.584,9.854.79-.146,1.252-.595,4.72-1.011,7.413l-9.906-.812c.022-2.113.083-4.457.237-7.462ZM12.357,203.516l2.659-.653c.803,2.601,1.349,2.974,5.199,2.551l.271,2.699c-1.223.128-2.238.166-3.099.09-3.121-.273-4.172-1.901-5.03-4.688ZM14.599,199.374l.081-.933c-.521-.045-1.023-.071-1.563-.101l-.024.901,1.507.132ZM14.789,197.204l.075-.861c-.574-.05-1.131-.081-1.634-.125-.026.305-.032.576-.058.862.54.029,1.078.077,1.616.124ZM16.336,202.87l2.244-.653c.265.692.519,1.51.728,2.214l-2.162.751c-.255-.799-.511-1.599-.81-2.312ZM18.241,199.675l.132-.875c-.465-.058-.931-.117-1.396-.158-.008.306-.036.629-.046.936.467.041.916.062,1.311.097ZM18.668,196.658c-.393-.052-.912-.098-1.506-.132-.042.268-.068.572-.094.859.502.044.985.104,1.487.148.046-.321.091-.625.112-.875ZM19.632,202.996l2.262-.652c.247.69.519,1.509.71,2.213l-2.145.752c-.273-.801-.511-1.599-.827-2.313Z"/>
    <path class="st1" d="M14.737,217.22c2.287-.739,3.736-1.191,3.732-1.969-.007-1.157-1.826-1.642-6.151-1.17l-.204-2.621c1.812-.258,3.352-.303,4.625-.191,3.354.293,4.892,1.729,4.946,3.577.009.109,0,.217-.012.343-.148,1.704-1.757,3.352-5.845,4.423l-1.092-2.392Z"/>
    <path class="st1" d="M13.302,227.827c-1.565-.083-3.502-.252-5.291-.463l.327-2.917c3.562.402,6.896.711,9.218.824l.55,1.982c-4.88,3.514-5.33,5.77-1.501,7.442l-2.204,2.265c-4.064-1.875-4.592-6.186-1.099-9.134Z"/>
    <path class="st1" d="M5.273,243.784c.091-1.04.279-2.163.575-3.474l2.834.664c-.367,1.919-.497,4.023-.359,5.553.639-.071,1.134-.154,1.792-.241l.306,2.503c-1.434.471-2.938.936-4.334,1.392-.764-2.218-1.01-4.155-.813-6.397ZM14.514,242.478l2.946-.411c.446,1.304.774,3.954.69,5.537l-2.795.55c-.06-1.396-.352-3.428-.842-5.676Z"/>
    <path class="st1" d="M5.027,263.948c.173-1.973,1.799-2.789,4.327-2.152.098-.696.127-1.037.146-1.252-1.101-.023-2.147-.043-3.305-.036l.006-2.548c1.088-.031,2.243-.02,3.449.031.027-.521.032-.774.018-1.029-.994.003-1.898.015-2.75.031l-.065-2.554c.833-.018,1.72-.031,2.732-.032-.008-.327-.052-.655-.099-1.148l2.894-.018c.06.349.097.75.111,1.203.902.024,1.765.082,2.444.16l-.335,2.591c-.61-.053-1.311-.096-2.048-.143-.014.361-.027.721-.041,1.081.881.059,1.67.128,2.296.201l-.279,2.578c-.659-.112-1.412-.178-2.202-.247-.064.537-.135,1.126-.246,1.786,1.104.404,2.208.79,2.973,1.146l-1.035,2.531c-.799-.377-1.541-.768-2.613-1.115-.447,1.389-1.791,2.084-3.675,1.92-1.74-.152-2.848-1.333-2.703-2.983ZM7.862,265.009c.448.039.948-.297,1.032-.849-.307-.208-.642-.31-.91-.333-.576-.032-.966.295-.686.807.125.228.33.354.563.375Z"/>
    <path class="st1" d="M6.905,282.145c.938-.804,1.549-1.582,1.868-2.349-.26.086-.501.155-.756.169-5.68.677-4.541-6.344.188-5.243.266.06.528.154.771.267.063-.718.08-.915.083-1.149-1.882-.183-3.725-.399-5.728-.646l.243-2.78c1.357.191,3.346.401,5.533.592-.016-.435-.014-.869-.032-1.286l3.008-.081c-.004.452.021.997.022,1.593.756.048,1.618.105,2.753.15l-.279,2.777c-.688.012-1.625-.016-2.578-.081-.096,1.094-.264,1.983-.526,2.719,1.013,2.059.157,5.021-1.976,6.876l-2.596-1.528ZM8.218,277.669c.113-.46-.25-.854-.824-.904-.986-.086-1.146,1.743.535,1.114.112-.045.208-.108.289-.21Z"/>
    <path class="st1" d="M9.817,288.323c.131-1.489,1.415-2.949,3.137-2.798,1.687.147,2.923,1.502,2.774,3.207-.126,1.435-1.217,2.749-3.011,2.592-1.739-.152-3.048-1.314-2.9-3ZM13.907,288.265c-.182-.612-.537-.878-.914-.912-.7-.061-1.47.685-1.261,1.39.137.5.497.73.873.763.7.061,1.512-.537,1.302-1.242Z"/>
  </g>
</svg>