<?xml version="1.0" encoding="UTF-8"?>
<svg id="_レイヤー_1" data-name="レイヤー_1" xmlns="http://www.w3.org/2000/svg" version="1.1" viewBox="0 0 50 50">
  <!-- Generator: Adobe Illustrator 29.0.1, SVG Export Plug-In . SVG Version: 2.1.0 Build 192)  -->
  <defs>
    <style>
      .st0 {
        fill: #fff;
      }

      .st1 {
        fill: #4e3b31;
      }
    </style>
  </defs>
  <circle class="st1" cx="25" cy="25" r="25"/>
  <path class="st0" d="M27.644,34.519c-.026.267-.16.4-.426.4h-3.895c-.267,0-.374-.133-.374-.373l.907-14.3c0-.08-.026-.133-.08-.186-.08-.054-.16-.054-.213,0l-1.814,1.012c-.187.161-.374.107-.48-.133l-.934-1.893c-.133-.213-.08-.374.133-.48l3.548-1.948c.24-.106.48-.16.72-.16h3.548c.267,0,.374.106.374.347l-1.014,17.713Z"/>
</svg>