<?xml version="1.0" encoding="UTF-8"?>
<svg id="_レイヤー_1" data-name="レイヤー_1" xmlns="http://www.w3.org/2000/svg" version="1.1" viewBox="0 0 50 50">
  <!-- Generator: Adobe Illustrator 29.0.1, SVG Export Plug-In . SVG Version: 2.1.0 Build 192)  -->
  <defs>
    <style>
      .st0 {
        fill: #fff;
      }

      .st1 {
        fill: #4e3b31;
      }
    </style>
  </defs>
  <circle class="st1" cx="25" cy="25" r="25"/>
  <path class="st0" d="M30.966,24.649c-.4.773-1.147,1.841-2.241,3.201-.026.052-1.2,1.307-3.494,3.841-.052.054-.08.106-.026.187.026.052.08.08.16.08h4.403c.239,0,.373.106.347.373l-.133,2.188c0,.267-.133.4-.4.4h-10.324c-.267,0-.374-.133-.374-.4l.133-1.253c.028-.241.107-.48.267-.667,1.868-2.134,3.628-4.188,5.229-6.108,1.841-2.215,2.801-3.843,2.907-4.883.054-.827-.106-1.466-.48-1.974-.4-.506-.96-.773-1.68-.773-1.655.026-2.562,1.068-2.695,3.174-.026.241-.133.374-.4.374h-3.682c-.239,0-.373-.107-.347-.347.187-2.108.988-3.708,2.375-4.749,1.201-.96,2.829-1.44,4.829-1.44,2.454-.026,4.242.588,5.361,1.815.908,1.04,1.309,2.401,1.201,4.108-.08.934-.374,1.895-.934,2.855Z"/>
</svg>