<?xml version="1.0" encoding="UTF-8"?>
<svg id="_レイヤー_1" data-name="レイヤー_1" xmlns="http://www.w3.org/2000/svg" version="1.1" viewBox="0 0 50 50">
  <!-- Generator: Adobe Illustrator 29.0.1, SVG Export Plug-In . SVG Version: 2.1.0 Build 192)  -->
  <defs>
    <style>
      .st0 {
        fill: #fff;
      }

      .st1 {
        fill: #4e3b31;
      }
    </style>
  </defs>
  <circle class="st1" cx="25" cy="25" r="25"/>
  <path class="st0" d="M29.219,25.663c-.054.052-.081.106-.081.16,0,.08.027.133.081.16,1.414.508,2.08,1.815,1.973,3.843-.08,1.546-.667,2.801-1.76,3.761-1.2,1.094-2.855,1.626-4.882,1.6-3.788-.08-5.683-1.681-5.683-4.801,0-.267.133-.4.374-.4h3.281c.267,0,.374.133.4.373.16,1.361.747,2.002,1.788,1.948,1.174-.08,1.787-.907,1.867-2.48.081-1.789-.507-2.668-1.814-2.695.16,0-.4,0-1.601,0-.107,0-.186-.026-.267-.106-.08-.081-.107-.161-.107-.267l.107-1.681c.027-.267.16-.4.427-.4.881.028,1.44,0,1.707-.026.854-.107,1.467-.426,1.814-.988.24-.426.426-1.146.507-2.108.133-1.787-.453-2.694-1.814-2.747-1.227-.026-1.947.775-2.135,2.375-.027.241-.16.373-.426.373h-3.521c-.267,0-.374-.132-.321-.399.24-1.602.934-2.829,2.054-3.682,1.094-.881,2.615-1.307,4.535-1.255,1.788.028,3.201.48,4.268,1.361,1.121.934,1.654,2.241,1.574,3.923-.107,1.921-.881,3.307-2.347,4.162Z"/>
</svg>