<?xml version="1.0" encoding="UTF-8"?>
<svg id="_レイヤー_1" data-name="レイヤー_1" xmlns="http://www.w3.org/2000/svg" version="1.1" viewBox="0 0 50 50">
  <!-- Generator: Adobe Illustrator 29.0.1, SVG Export Plug-In . SVG Version: 2.1.0 Build 192)  -->
  <defs>
    <style>
      .st0 {
        fill: #fff;
      }

      .st1 {
        fill: #4e3b31;
      }
    </style>
  </defs>
  <circle class="st1" cx="25" cy="25" r="25"/>
  <path class="st0" d="M32.473,31.345c0,.267-.106.4-.373.4h-2.002c-.265,0-.373.106-.399.347l-.187,2.588c-.026.267-.16.4-.426.4h-4.028c-.267,0-.374-.133-.374-.374l.187-2.614c.026-.241-.08-.347-.321-.347l-6.696-.028c-.267,0-.4-.133-.373-.373l.133-2.241c0-.241.106-.454.267-.667l8.003-11.818c.16-.187.373-.293.614-.293h3.682c.267,0,.373.106.347.347l-.641,11.818c0,.107.028.187.107.241.054.08.16.106.239.106h2.028c.107,0,.187.054.241.107.08.08.106.16.106.267l-.133,2.134ZM25.376,21.953l-4.295,6.59c-.052.054-.052.133,0,.187.028.08.081.106.187.106h3.442c.239,0,.373-.106.399-.347l.454-6.483c-.054-.054-.133-.08-.187-.054Z"/>
</svg>