<?xml version="1.0" encoding="UTF-8"?>
<svg id="_レイヤー_1" data-name="レイヤー_1" xmlns="http://www.w3.org/2000/svg" version="1.1" viewBox="0 0 50 50">
  <!-- Generator: Adobe Illustrator 29.0.1, SVG Export Plug-In . SVG Version: 2.1.0 Build 192)  -->
  <defs>
    <style>
      .st0 {
        fill: #fff;
      }

      .st1 {
        fill: #4e3b31;
      }
    </style>
  </defs>
  <circle class="st1" cx="25" cy="25" r="25"/>
  <path class="st0" d="M29.299,33.905c-1.147.988-2.721,1.468-4.775,1.44-3.548-.052-5.469-1.546-5.763-4.508-.026-.265.107-.373.374-.373h3.308c.24,0,.374.107.4.373.186,1.121.827,1.681,1.894,1.681,1.361.026,2.108-.934,2.241-2.855.107-1.947-.507-2.935-1.841-2.961-.827,0-1.494.267-2,.881-.187.186-.374.267-.588.267l-2.881.026c-.107,0-.187-.026-.267-.107-.053-.08-.08-.16-.08-.239l.96-10.698c0-.239.133-.347.4-.347h9.95c.24,0,.374.107.347.347l-.16,1.761c-.026.241-.133.374-.4.374l-5.629-.028c-.267,0-.427.133-.453.4l-.534,4.855c0,.08.054.133.107.187.054.054.133.054.213,0,.48-.187,1.041-.321,1.654-.347,2.027-.107,3.521.48,4.455,1.733.72.988,1.041,2.267.934,3.869-.107,1.841-.72,3.281-1.868,4.268Z"/>
</svg>