<?xml version="1.0" encoding="UTF-8"?>
<svg id="_レイヤー_1" data-name="レイヤー_1" xmlns="http://www.w3.org/2000/svg" version="1.1" viewBox="0 0 50 50">
  <!-- Generator: Adobe Illustrator 29.0.1, SVG Export Plug-In . SVG Version: 2.1.0 Build 192)  -->
  <defs>
    <style>
      .st0 {
        fill: #fff;
      }

      .st1 {
        fill: #4e3b31;
      }
    </style>
  </defs>
  <circle class="st1" cx="25" cy="25" r="25"/>
  <path class="st0" d="M31.592,21.448h-3.12c-.267,0-.4-.133-.4-.374-.026-.745-.187-1.253-.426-1.574-.321-.426-.881-.64-1.655-.64-.907,0-1.574.4-1.973,1.147-.454.827-.721,2.214-.775,4.188,0,.08.028.133.08.187.081.054.161.054.241,0,.827-.4,1.681-.64,2.508-.667,1.921-.026,3.333.426,4.295,1.414.907.933,1.333,2.267,1.253,3.975-.08,2.08-.641,3.602-1.681,4.588-1.094,1.068-2.773,1.574-5.042,1.574-2.054-.026-3.574-.614-4.561-1.761-1.121-1.279-1.655-3.415-1.655-6.375,0-.719.028-1.52.081-2.347.239-3.068.933-5.283,2.106-6.644,1.094-1.279,2.775-1.947,5.042-2,4.028-.106,6.056,1.548,6.082,4.935,0,.241-.133.374-.4.374ZM25.564,26.436c-.586,0-1.147.16-1.628.506-.532.374-.853.854-.907,1.44-.026.161-.054.374-.054.667-.052,2.188.667,3.281,2.161,3.281.934.028,1.6-.293,1.974-.96.267-.48.4-1.227.452-2.267.054-1.787-.612-2.668-2-2.668Z"/>
</svg>