<?xml version="1.0" encoding="UTF-8"?>
<svg id="_レイヤー_1" data-name="レイヤー_1" xmlns="http://www.w3.org/2000/svg" version="1.1" viewBox="0 0 50 50">
  <!-- Generator: Adobe Illustrator 29.0.1, SVG Export Plug-In . SVG Version: 2.1.0 Build 192)  -->
  <defs>
    <style>
      .st0 {
        fill: #fff;
      }

      .st1 {
        fill: #4e3b31;
      }
    </style>
  </defs>
  <circle class="st1" cx="25" cy="25" r="25"/>
  <path class="st0" d="M32.62,18.3c-.026.239-.08.48-.16.719l-5.869,15.633c-.08.241-.267.374-.534.374l-4.055-.028c-.266,0-.347-.133-.24-.373l5.869-15.366c.081-.241,0-.374-.266-.374h-4.669c-.24,0-.374.133-.374.4l-.267,3.468c-.027.267-.16.4-.426.4l-3.362-.026c-.24,0-.347-.133-.32-.374l.374-5.975c.026-.241.16-.348.4-.348l13.846-.026c.24,0,.347.107.293.374l-.24,1.52Z"/>
</svg>