<?xml version="1.0" encoding="UTF-8"?>
<svg id="_レイヤー_1" data-name="レイヤー_1" xmlns="http://www.w3.org/2000/svg" version="1.1" viewBox="0 0 50 50">
  <!-- Generator: Adobe Illustrator 29.0.1, SVG Export Plug-In . SVG Version: 2.1.0 Build 192)  -->
  <defs>
    <style>
      .st0 {
        fill: #fff;
      }

      .st1 {
        fill: #4e3b31;
      }
    </style>
  </defs>
  <circle class="st1" cx="25" cy="25" r="25"/>
  <path class="st0" d="M29.766,34.546c-1.042.719-2.721,1.094-5.042,1.094-2.108.026-3.682-.428-4.722-1.335-1.094-.96-1.628-2.454-1.522-4.481.054-1.494.775-2.829,2.161-4.028.16-.161.187-.321.026-.48-.853-.908-1.279-2.108-1.279-3.656,0-1.974.614-3.468,1.841-4.482,1.12-.907,2.64-1.361,4.588-1.361,4.215,0,6.188,1.895,5.923,5.684-.133,1.654-.775,2.987-1.922,3.947-.16.161-.133.321.054.428,1.44.907,2.108,2.241,2.002,4.028-.161,2.241-.854,3.787-2.108,4.642ZM25.204,26.996c-1.654,0-2.48,1.04-2.534,3.122-.028,1.947.747,2.935,2.321,2.935,1.466,0,2.267-.988,2.427-2.988.133-2.054-.614-3.068-2.214-3.068ZM27.712,20.834c0-1.574-.667-2.347-2.002-2.321-1.546,0-2.321,1.014-2.321,3.068,0,1.867.667,2.773,1.974,2.773.827,0,1.414-.265,1.787-.799.267-.426.454-1.094.534-2.002.028-.265.028-.532.028-.719Z"/>
</svg>