<?xml version="1.0" encoding="UTF-8"?>
<svg id="_レイヤー_1" data-name="レイヤー_1" xmlns="http://www.w3.org/2000/svg" version="1.1" viewBox="0 0 50 50">
  <!-- Generator: Adobe Illustrator 29.0.1, SVG Export Plug-In . SVG Version: 2.1.0 Build 192)  -->
  <defs>
    <style>
      .st0 {
        fill: #fff;
      }

      .st1 {
        fill: #4e3b31;
      }
    </style>
  </defs>
  <circle class="st1" cx="25" cy="25" r="25"/>
  <path class="st0" d="M29.539,33.159c-1.121,1.255-2.855,1.895-5.229,1.922-3.629.026-5.549-1.548-5.816-4.696-.026-.267.107-.4.347-.4h3.361c.24,0,.4.133.453.4.214,1.253.828,1.867,1.868,1.841,1.361-.028,2.108-1.174,2.267-3.415.027-.08,0-.133-.08-.187-.054-.054-.133-.054-.213,0-.454.187-1.094.293-1.895.293-1.894.054-3.334-.452-4.348-1.44-1.174-1.147-1.707-2.961-1.547-5.415.08-1.867.8-3.361,2.134-4.455,1.2-.988,2.721-1.494,4.589-1.494,2.454,0,4.188.693,5.202,2.08.827,1.121,1.254,2.829,1.254,5.15,0,.773-.054,1.68-.133,2.72-.267,3.363-1.014,5.71-2.214,7.096ZM27.245,21.582c0-1.921-.64-2.909-1.921-2.935-.907-.028-1.547.293-1.947.986-.293.562-.453,1.468-.506,2.749-.107,2.534.533,3.787,1.921,3.841.827,0,1.414-.241,1.76-.801.347-.534.561-1.548.667-3.068.027-.267.027-.534.027-.773Z"/>
</svg>