<?xml version="1.0" encoding="UTF-8"?>
<svg id="_レイヤー_1" data-name="レイヤー_1" xmlns="http://www.w3.org/2000/svg" version="1.1" viewBox="0 0 50 50">
  <!-- Generator: Adobe Illustrator 29.0.1, SVG Export Plug-In . SVG Version: 2.1.0 Build 192)  -->
  <defs>
    <style>
      .st0 {
        fill: #fff;
      }

      .st1 {
        fill: #4e3b31;
      }
    </style>
  </defs>
  <circle class="st1" cx="25" cy="25" r="25"/>
  <path class="st0" d="M18.964,34.519c-.026.267-.16.4-.426.4h-3.895c-.267,0-.374-.133-.374-.373l.907-14.3c0-.08-.026-.133-.08-.186-.08-.054-.16-.054-.213,0l-1.813,1.012c-.187.161-.374.107-.48-.133l-.934-1.893c-.133-.213-.08-.374.133-.48l3.548-1.948c.239-.106.48-.16.719-.16h3.548c.267,0,.374.106.374.347l-1.014,17.713Z"/>
  <path class="st0" d="M35.819,32.812c-1.227,1.655-3.228,2.482-6.055,2.428-2.454-.054-4.162-.588-5.15-1.681-1.227-1.361-1.787-3.921-1.68-7.682.106-3.576.853-6.136,2.214-7.71,1.253-1.414,3.148-2.134,5.682-2.134,2.508,0,4.269.614,5.309,1.813,1.014,1.227,1.52,3.255,1.52,6.082,0,.588,0,1.227-.054,1.921-.186,3.229-.773,5.55-1.787,6.963ZM32.833,22.542c0-1.335-.161-2.295-.454-2.909-.293-.586-.827-.907-1.628-.907-1.281,0-2.08.506-2.427,1.468-.295.745-.508,2.64-.667,5.654-.054,1.042-.107,1.895-.107,2.562,0,1.494.187,2.534.508,3.094.319.588.907.907,1.733.907,1.174.028,1.948-.426,2.295-1.387.267-.693.48-2.427.64-5.202.054-1.52.107-2.614.107-3.281Z"/>
</svg>