<?xml version="1.0" encoding="UTF-8"?>
<svg id="_レイヤー_1" data-name="レイヤー_1" xmlns="http://www.w3.org/2000/svg" version="1.1" viewBox="0 0 523.623 4">
  <!-- Generator: Adobe Illustrator 29.0.1, SVG Export Plug-In . SVG Version: 2.1.0 Build 192)  -->
  <defs>
    <style>
      .st0 {
        fill: #de8490;
      }
    </style>
  </defs>
  <path class="st0" d="M7.536,4h-2.499c-1.104,0-2-.895-2-2S3.932,0,5.036,0h2.499c1.104,0,2,.895,2,2s-.895,2-2,2Z"/>
  <path class="st0" d="M516.087,3.999h0c-1.1,0-2-.9-2-2s.9-2,2-2,2,.9,2,2-.9,2-2,2ZM506.019,3.999h-5.039c-1.099,0-2-.9-2-2s.9-2,2-2h5.039c1.1,0,2,.9,2,2s-.9,2-2,2ZM490.913,3.999h-5.039c-1.1,0-2-.9-2-2s.9-2,2-2h5.039c1.1,0,2,.9,2,2s-.9,2-2,2ZM475.807,3.999h-5.039c-1.1,0-2-.9-2-2s.9-2,2-2h5.039c1.1,0,2,.9,2,2s-.9,2-2,2ZM460.7,3.999h-5.038c-1.1,0-2-.9-2-2s.9-2,2-2h5.038c1.1,0,2,.9,2,2s-.9,2-2,2ZM445.594,3.999h-5.039c-1.1,0-2-.9-2-2s.9-2,2-2h5.039c1.1,0,2,.9,2,2s-.9,2-2,2ZM430.488,3.999h-5.029c-1.11,0-2.009-.9-2.009-2s.9-2,2.009-2h5.029c1.1,0,2,.9,2,2s-.9,2-2,2ZM415.381,3.999h-5.029c-1.11,0-2-.9-2-2s.89-2,2-2h5.029c1.099,0,2,.9,2,2s-.9,2-2,2ZM400.275,3.999h-5.029c-1.11,0-2-.9-2-2s.89-2,2-2h5.029c1.11,0,2,.9,2,2s-.889,2-2,2ZM385.169,3.999h-5.029c-1.11,0-2-.9-2-2s.889-2,2-2h5.029c1.11,0,2,.9,2,2s-.89,2-2,2ZM370.062,3.999h-5.029c-1.099,0-2-.9-2-2s.9-2,2-2h5.029c1.11,0,2,.9,2,2s-.89,2-2,2ZM354.956,3.999h-5.029c-1.1,0-2-.9-2-2s.9-2,2-2h5.029c1.11,0,2,.9,2,2s-.889,2-2,2ZM339.86,3.999h-5.039c-1.1,0-2-.9-2-2s.9-2,2-2h5.039c1.099,0,2,.9,2,2s-.9,2-2,2ZM324.753,3.999h-5.039c-1.099,0-2-.9-2-2s.9-2,2-2h5.039c1.1,0,2,.9,2,2s-.9,2-2,2ZM309.647,3.999h-5.039c-1.1,0-2-.9-2-2s.9-2,2-2h5.039c1.1,0,2,.9,2,2s-.9,2-2,2ZM294.541,3.999h-5.039c-1.1,0-2-.9-2-2s.9-2,2-2h5.039c1.1,0,2,.9,2,2s-.9,2-2,2ZM279.435,3.999h-5.039c-1.1,0-2-.9-2-2s.9-2,2-2h5.039c1.099,0,2,.9,2,2s-.9,2-2,2ZM264.328,3.999h-5.039c-1.099,0-2-.9-2-2s.9-2,2-2h5.039c1.1,0,2,.9,2,2s-.9,2-2,2ZM249.222,3.999h-5.039c-1.1,0-2-.9-2-2s.9-2,2-2h5.039c1.1,0,2,.9,2,2s-.9,2-2,2ZM234.116,3.999h-5.039c-1.1,0-2-.9-2-2s.9-2,2-2h5.039c1.1,0,2,.9,2,2s-.9,2-2,2ZM219.009,3.999h-5.029c-1.11,0-2-.9-2-2s.89-2,2-2h5.029c1.11,0,2,.9,2,2s-.889,2-2,2ZM203.903,3.999h-5.029c-1.11,0-2-.9-2-2s.889-2,2-2h5.029c1.11,0,2,.9,2,2s-.89,2-2,2ZM188.806,3.999h-5.039c-1.099,0-2-.9-2-2s.9-2,2-2h5.039c1.1,0,1.99.9,1.99,2s-.89,2-1.99,2ZM173.7,3.999h-5.039c-1.1,0-2-.9-2-2s.9-2,2-2h5.039c1.1,0,2,.9,2,2s-.9,2-2,2ZM158.594,3.999h-5.039c-1.1,0-2-.9-2-2s.9-2,2-2h5.039c1.1,0,2,.9,2,2s-.9,2-2,2ZM143.488,3.999h-5.039c-1.1,0-2-.9-2-2s.9-2,2-2h5.039c1.099,0,2,.9,2,2s-.9,2-2,2ZM128.381,3.999h-5.039c-1.099,0-2-.9-2-2s.9-2,2-2h5.039c1.1,0,2,.9,2,2s-.9,2-2,2ZM113.275,3.999h-5.039c-1.1,0-2-.9-2-2s.9-2,2-2h5.039c1.1,0,2,.9,2,2s-.9,2-2,2ZM98.169,3.999h-5.039c-1.1,0-2-.9-2-2s.9-2,2-2h5.039c1.099,0,2,.9,2,2s-.9,2-2,2ZM83.062,3.999h-5.039c-1.099,0-2-.9-2-2s.9-2,2-2h5.039c1.1,0,2,.9,2,2s-.9,2-2,2ZM67.956,3.999h-5.029c-1.11,0-2-.9-2-2s.889-2,2-2h5.029c1.1,0,2,.9,2,2s-.9,2-2,2ZM52.85,3.999h-5.029c-1.11,0-2-.9-2-2s.89-2,2-2h5.029c1.1,0,2,.9,2,2s-.9,2-2,2ZM37.744,3.999h-5.029c-1.11,0-2-.9-2-2s.89-2,2-2h5.029c1.11,0,2,.9,2,2s-.89,2-2,2ZM22.637,3.999h-5.029c-1.11,0-2-.9-2-2s.89-2,2-2h5.029c1.11,0,2,.9,2,2s-.889,2-2,2Z"/>
  <path class="st0" d="M518.586,4h-2.499c-1.104,0-2-.895-2-2S514.983,0,516.087,0h2.499c1.104,0,2,.895,2,2s-.895,2-2,2Z"/>
</svg>