<?xml version="1.0" encoding="UTF-8"?>
<svg id="_レイヤー_1" xmlns="http://www.w3.org/2000/svg" version="1.1" viewBox="0 0 523.623 4">
  <!-- Generator: Adobe Illustrator 29.0.1, SVG Export Plug-In . SVG Version: 2.1.0 Build 192)  -->
  <defs>
    <style>
      .st0 {
        fill: #e6b582;
      }
    </style>
  </defs>
  <path class="st0" d="M7.536,4h-2.499c-1.104,0-2-.895-2-2s.895-2,1.999-2h2.499c1.104,0,2,.895,2,2s-.895,2-2,2h0Z"/>
  <path class="st0" d="M516.087,3.999h0c-1.1,0-2-.9-2-2S514.987,0,516.087,0s2,.9,2,2-.9,2-2,2ZM506.019,3.999h-5.039c-1.099,0-2-.9-2-2S499.88,0,500.98,0h5.039c1.1,0,2,.9,2,2s-.9,2-2,2ZM490.913,3.999h-5.039c-1.1,0-2-.9-2-2S484.774,0,485.874,0h5.039c1.1,0,2,.9,2,2s-.9,2-2,2ZM475.807,3.999h-5.039c-1.1,0-2-.9-2-2S469.668,0,470.768,0h5.039c1.1,0,2,.9,2,2s-.9,2-2,2ZM460.7,3.999h-5.038c-1.1,0-2-.9-2-2S454.562,0,455.662,0h5.038c1.1,0,2,.9,2,2s-.9,2-2,2ZM445.594,3.999h-5.039c-1.1,0-2-.9-2-2S439.455,0,440.555,0h5.039c1.1,0,2,.9,2,2s-.9,2-2,2ZM430.488,3.999h-5.029c-1.11,0-2.009-.9-2.009-2S424.35,0,425.459,0h5.029c1.1,0,2,.9,2,2s-.9,2-2,2ZM415.381,3.999h-5.029c-1.11,0-2-.9-2-2S409.242,0,410.352,0h5.029c1.099,0,2,.9,2,2s-.9,2-2,2ZM400.275,3.999h-5.029c-1.11,0-2-.9-2-2S394.136,0,395.246,0h5.029c1.11,0,2,.9,2,2s-.889,2-2,2ZM385.169,3.999h-5.029c-1.11,0-2-.9-2-2S379.029,0,380.14,0h5.029c1.11,0,2,.9,2,2s-.89,2-2,2ZM370.062,3.999h-5.029c-1.099,0-2-.9-2-2S363.933,0,365.033,0h5.029c1.11,0,2,.9,2,2s-.89,2-2,2ZM354.956,3.999h-5.029c-1.1,0-2-.9-2-2S348.827,0,349.927,0h5.029c1.11,0,2,.9,2,2s-.889,2-2,2ZM339.86,3.999h-5.039c-1.1,0-2-.9-2-2S333.721,0,334.821,0h5.039c1.099,0,2,.9,2,2s-.9,2-2,2ZM324.753,3.999h-5.039c-1.099,0-2-.9-2-2S318.614,0,319.714,0h5.039c1.1,0,2,.9,2,2s-.9,2-2,2ZM309.647,3.999h-5.039c-1.1,0-2-.9-2-2S303.508,0,304.608,0h5.039c1.1,0,2,.9,2,2s-.9,2-2,2ZM294.541,3.999h-5.039c-1.1,0-2-.9-2-2S288.402,0,289.502,0h5.039c1.1,0,2,.9,2,2s-.9,2-2,2ZM279.435,3.999h-5.039c-1.1,0-2-.9-2-2S273.296,0,274.396,0h5.039c1.099,0,2,.9,2,2s-.9,2-2,2ZM264.328,3.999h-5.039c-1.099,0-2-.9-2-2S258.189,0,259.289,0h5.039c1.1,0,2,.9,2,2s-.9,2-2,2ZM249.222,3.999h-5.039c-1.1,0-2-.9-2-2S243.083,0,244.183,0h5.039c1.1,0,2,.9,2,2s-.9,2-2,2ZM234.116,3.999h-5.039c-1.1,0-2-.9-2-2S227.977,0,229.077,0h5.039c1.1,0,2,.9,2,2s-.9,2-2,2ZM219.009,3.999h-5.029c-1.11,0-2-.9-2-2S212.87,0,213.98,0h5.029c1.11,0,2,.9,2,2s-.889,2-2,2ZM203.903,3.999h-5.029c-1.11,0-2-.9-2-2S197.763,0,198.874,0h5.029c1.11,0,2,.9,2,2s-.89,2-2,2ZM188.806,3.999h-5.039c-1.099,0-2-.9-2-2S182.667,0,183.767,0h5.039c1.1,0,1.99.9,1.99,2s-.89,2-1.99,2ZM173.7,3.999h-5.039c-1.1,0-2-.9-2-2S167.561,0,168.661,0h5.039c1.1,0,2,.9,2,2s-.9,2-2,2ZM158.594,3.999h-5.039c-1.1,0-2-.9-2-2S152.455,0,153.555,0h5.039c1.1,0,2,.9,2,2s-.9,2-2,2ZM143.488,3.999h-5.039c-1.1,0-2-.9-2-2S137.349,0,138.449,0h5.039c1.099,0,2,.9,2,2s-.9,2-2,2ZM128.381,3.999h-5.039c-1.099,0-2-.9-2-2S122.242,0,123.342,0h5.039c1.1,0,2,.9,2,2s-.9,2-2,2ZM113.275,3.999h-5.039c-1.1,0-2-.9-2-2S107.136,0,108.236,0h5.039c1.1,0,2,.9,2,2s-.9,2-2,2ZM98.169,3.999h-5.039c-1.1,0-2-.9-2-2S92.03,0,93.13,0h5.039c1.099,0,2,.9,2,2s-.9,2-2,2ZM83.062,3.999h-5.039c-1.099,0-2-.9-2-2S76.923,0,78.023,0h5.039c1.1,0,2,.9,2,2s-.9,2-2,2ZM67.956,3.999h-5.029c-1.11,0-2-.9-2-2S61.816,0,62.927,0h5.029c1.1,0,2,.9,2,2s-.9,2-2,2ZM52.85,3.999h-5.029c-1.11,0-2-.9-2-2S46.711,0,47.821,0h5.029c1.1,0,2,.9,2,2s-.9,2-2,2ZM37.744,3.999h-5.029c-1.11,0-2-.9-2-2S31.605,0,32.715,0h5.029c1.11,0,2,.9,2,2s-.89,2-2,2ZM22.637,3.999h-5.029c-1.11,0-2-.9-2-2S16.498,0,17.608,0h5.029c1.11,0,2,.9,2,2s-.889,2-2,2Z"/>
  <path class="st0" d="M518.586,4h-2.499c-1.104,0-2-.895-2-2s.896-2,2-2h2.499c1.104,0,2,.895,2,2s-.895,2-2,2Z"/>
</svg>