<?xml version="1.0" encoding="UTF-8"?>
<svg id="_レイヤー_1" data-name="レイヤー_1" xmlns="http://www.w3.org/2000/svg" version="1.1" viewBox="0 0 200 180">
  <!-- Generator: Adobe Illustrator 29.0.1, SVG Export Plug-In . SVG Version: 2.1.0 Build 192)  -->
  <defs>
    <style>
      .st0 {
        fill: #fafae5;
      }

      .st1 {
        fill: #3c291a;
      }
    </style>
  </defs>
  <path class="st0" d="M100,0h100v180H0v-80C0,44.808,44.808,0,100,0Z"/>
  <g>
    <path class="st1" d="M62.866,96.961c-.008,9.986,3.832,20.035,11.45,27.651,7.615,7.621,17.667,11.459,27.648,11.45,6.965.009,13.948-1.905,20.13-5.624l18.936,18.936c3.683,3.685,9.658,3.685,13.34,0,3.685-3.685,3.685-9.658,0-13.343l-18.933-18.933c3.717-6.185,5.633-13.165,5.624-20.136.012-9.977-3.829-20.029-11.45-27.645-7.615-7.621-17.665-11.459-27.648-11.453-9.98-.006-20.032,3.832-27.648,11.453-7.618,7.615-11.462,17.667-11.45,27.645ZM70.058,96.96c.015-8.194,3.097-16.301,9.345-22.556,6.256-6.248,14.362-9.33,22.56-9.345,8.198.015,16.301,3.097,22.56,9.345,6.248,6.256,9.33,14.362,9.345,22.556-.015,8.202-3.097,16.304-9.345,22.564-6.26,6.248-14.362,9.33-22.56,9.345-8.198-.015-16.304-3.097-22.556-9.345-6.252-6.259-9.334-14.362-9.349-22.564Z"/>
    <rect class="st1" x="98.422" y="74.255" width="7.083" height="45.417" rx="3.542" ry="3.542"/>
    <rect class="st1" x="79.255" y="93.422" width="45.417" height="7.083" rx="3.542" ry="3.542"/>
  </g>
</svg>