<?xml version="1.0" encoding="UTF-8"?>
<svg id="_レイヤー_1" data-name="レイヤー_1" xmlns="http://www.w3.org/2000/svg" version="1.1" viewBox="0 0 50 40">
  <!-- Generator: Adobe Illustrator 29.0.1, SVG Export Plug-In . SVG Version: 2.1.0 Build 192)  -->
  <defs>
    <style>
      .st0 {
        fill: #7f615a;
      }

      .st1 {
        fill: #fafae5;
      }
    </style>
  </defs>
  <path class="st1" d="M19.774,0h30.226v39.547h-30.226C8.86,39.547,0,30.687,0,19.774h0C0,8.86,8.86,0,19.774,0Z"/>
  <g>
    <rect class="st0" x="14.796" y="11.385" width="19.747" height="2.373" rx="1.186" ry="1.186"/>
    <rect class="st0" x="14.796" y="16.664" width="19.747" height="2.373" rx="1.186" ry="1.186"/>
    <g>
      <path class="st0" d="M17.231,28.163c-.09,0-.167-.033-.233-.099-.066-.066-.099-.144-.099-.233v-3.594c0-.089.033-.167.099-.233.066-.066.144-.099.233-.099h.146c.101,0,.195.027.28.082.085.055.148.126.186.216l1.021,2.205s.002.006.006.006.005-.002.005-.006l1.021-2.205c.039-.089.101-.161.187-.216.085-.054.179-.082.28-.082h.169c.089,0,.167.033.233.099.066.066.099.144.099.233v3.594c0,.089-.033.167-.099.233-.066.066-.144.099-.233.099h-.129c-.09,0-.167-.033-.233-.099-.066-.066-.099-.144-.099-.233v-2.538s-.002-.006-.006-.006-.006.002-.006.006l-.7,1.499c-.042.089-.108.162-.195.219-.087.056-.18.085-.277.085h-.035c-.097,0-.19-.028-.277-.085-.087-.056-.153-.129-.195-.219l-.7-1.499s-.002-.006-.006-.006-.005.002-.005.006v2.538c0,.089-.033.167-.1.233-.066.066-.144.099-.233.099h-.105Z"/>
      <path class="st0" d="M22.12,28.163c-.09,0-.167-.033-.233-.099-.066-.066-.099-.144-.099-.233v-3.594c0-.089.033-.167.099-.233.066-.066.144-.099.233-.099h1.984c.09,0,.167.033.233.099.066.066.1.144.1.233s-.033.166-.1.231c-.066.064-.144.096-.233.096h-1.447c-.035,0-.053.018-.053.053v.939c0,.035.017.053.053.053h1.348c.089,0,.164.031.224.093s.09.136.09.222-.03.159-.09.219c-.06.06-.135.09-.224.09h-1.348c-.035,0-.053.018-.053.053v1.167c0,.035.017.053.053.053h1.447c.09,0,.167.032.233.096.066.064.1.141.1.231s-.033.167-.1.233c-.066.066-.144.099-.233.099h-1.984Z"/>
      <path class="st0" d="M25.627,28.163c-.09,0-.166-.033-.231-.099-.064-.066-.096-.144-.096-.233v-3.594c0-.089.032-.167.096-.233.064-.066.141-.099.231-.099h.128c.222,0,.385.097.49.292l1.441,2.602s.002.006.005.006.006-.002.006-.006v-2.561c0-.089.033-.167.099-.233.066-.066.144-.099.234-.099h.128c.089,0,.166.033.231.099.064.066.096.144.096.233v3.594c0,.089-.032.167-.096.233-.064.066-.141.099-.231.099h-.128c-.222,0-.385-.097-.49-.292l-1.441-2.602s-.002-.006-.005-.006-.006.002-.006.006v2.561c0,.089-.033.167-.099.233-.066.066-.144.099-.234.099h-.128Z"/>
      <path class="st0" d="M30.924,28.221c-1.05,0-1.575-.525-1.575-1.575v-2.41c0-.089.033-.167.099-.233.066-.066.144-.099.233-.099h.163c.089,0,.167.033.233.099.066.066.099.144.099.233v2.456c0,.303.061.522.184.656.122.134.314.201.575.201s.452-.067.575-.201c.122-.134.184-.353.184-.656v-2.456c0-.089.033-.167.099-.233.066-.066.144-.099.234-.099h.14c.089,0,.167.033.233.099.066.066.099.144.099.233v2.41c0,1.05-.525,1.575-1.575,1.575Z"/>
    </g>
  </g>
</svg>