<?xml version="1.0" encoding="UTF-8"?>
<svg id="_レイヤー_1" data-name="レイヤー_1" xmlns="http://www.w3.org/2000/svg" version="1.1" viewBox="0 0 50 50">
  <!-- Generator: Adobe Illustrator 29.0.1, SVG Export Plug-In . SVG Version: 2.1.0 Build 192)  -->
  <defs>
    <style>
      .st0 {
        fill: #7f615a;
      }
    </style>
  </defs>
  <path class="st0" d="M49.204,45.34l-20.367-20.342L49.18,4.63c1.059-1.06,1.057-2.778-.003-3.837-1.061-1.059-2.778-1.058-3.837.002l-20.342,20.368L4.63.821c-1.061-1.059-2.778-1.058-3.837.002-1.059,1.06-1.058,2.778.002,3.837l20.367,20.343L.821,45.37c-1.059,1.061-1.058,2.778.002,3.837.53.529,1.224.793,1.917.793s1.39-.265,1.919-.796l20.342-20.367,20.368,20.343c.53.529,1.223.793,1.917.793s1.39-.265,1.92-.796c1.059-1.061,1.057-2.778-.003-3.837Z"/>
</svg>