<?xml version="1.0" encoding="UTF-8"?>
<svg id="_レイヤー_1" data-name="レイヤー_1" xmlns="http://www.w3.org/2000/svg" version="1.1" viewBox="0 0 50 40">
  <!-- Generator: Adobe Illustrator 29.0.1, SVG Export Plug-In . SVG Version: 2.1.0 Build 192)  -->
  <defs>
    <style>
      .st0 {
        fill: #7f615a;
      }

      .st1 {
        fill: #fafae5;
      }
    </style>
  </defs>
  <path class="st1" d="M19.774,0h30.226v39.547h-30.226C8.86,39.547,0,30.687,0,19.774H0C0,8.86,8.86,0,19.774,0Z"/>
  <g>
    <path class="st0" d="M17.677,28.221c-.614,0-1.101-.19-1.461-.569s-.54-.919-.54-1.619c0-.692.174-1.23.522-1.613.348-.383.836-.575,1.462-.575.288,0,.529.018.723.053.093.016.171.062.233.14.063.078.093.165.093.263v.047c0,.082-.034.146-.102.193-.068.047-.141.06-.219.041-.19-.05-.404-.076-.641-.076-.385,0-.687.132-.908.397-.219.265-.329.642-.329,1.132,0,.486.114.863.341,1.129.228.266.532.4.913.4.257,0,.476-.023.659-.07.078-.019.151-.006.219.041s.102.111.102.193v.041c0,.097-.03.184-.09.26s-.139.122-.236.137c-.222.039-.468.058-.741.058Z"/>
    <path class="st0" d="M19.964,28.163c-.09,0-.166-.033-.231-.099-.064-.066-.096-.144-.096-.233v-3.594c0-.089.032-.167.096-.233.064-.066.141-.099.231-.099h.187c.089,0,.167.033.233.099.066.066.099.144.099.233v3.197c0,.035.015.053.047.053h1.5c.089,0,.166.032.23.096.064.064.097.141.097.23v.018c0,.089-.032.167-.097.233-.064.066-.141.099-.23.099h-2.065Z"/>
    <path class="st0" d="M26.233,27.643c-.348.385-.822.578-1.42.578s-1.073-.193-1.421-.578-.522-.922-.522-1.61.174-1.225.522-1.61.821-.578,1.421-.578,1.072.193,1.42.578.522.922.522,1.61-.174,1.225-.522,1.61ZM25.921,26.033c0-1.011-.37-1.517-1.108-1.517s-1.108.506-1.108,1.517.369,1.517,1.108,1.517,1.108-.506,1.108-1.517Z"/>
    <path class="st0" d="M28.593,26.365c-.467-.155-.804-.344-1.012-.566-.209-.222-.312-.49-.312-.805,0-.354.118-.634.356-.84.237-.206.57-.309.998-.309.361,0,.677.041.945.123.093.027.168.083.224.166.056.084.085.176.085.277v.053c0,.074-.033.131-.099.172-.066.041-.134.048-.204.02-.292-.113-.589-.169-.893-.169-.194,0-.343.045-.443.134-.101.089-.152.214-.152.373,0,.28.183.48.548.601.525.167.89.358,1.094.572.205.214.307.49.307.828,0,.817-.504,1.225-1.511,1.225-.315,0-.601-.049-.858-.146-.093-.035-.166-.095-.219-.181s-.079-.181-.079-.286v-.07c0-.074.031-.127.093-.16.062-.033.126-.034.192-.003.257.128.527.193.811.193.494,0,.741-.187.741-.56,0-.152-.046-.277-.14-.376s-.251-.188-.473-.266Z"/>
    <path class="st0" d="M31.143,28.163c-.09,0-.167-.033-.233-.099-.066-.066-.099-.144-.099-.233v-3.594c0-.089.033-.167.099-.233.066-.066.144-.099.233-.099h1.984c.09,0,.167.033.233.099.066.066.1.144.1.233s-.033.166-.1.231c-.066.064-.144.096-.233.096h-1.447c-.035,0-.053.018-.053.053v.939c0,.035.017.053.053.053h1.348c.089,0,.164.031.224.093s.09.136.09.222-.03.159-.09.219c-.06.06-.135.09-.224.09h-1.348c-.035,0-.053.018-.053.053v1.167c0,.035.017.053.053.053h1.447c.09,0,.167.032.233.096.066.064.1.141.1.231s-.033.167-.1.233c-.066.066-.144.099-.233.099h-1.984Z"/>
  </g>
  <rect class="st0" x="14.796" y="14.024" width="19.747" height="2.373" rx="1.186" ry="1.186" transform="translate(10.911 -10.297) rotate(30)"/>
  <rect class="st0" x="14.796" y="14.024" width="19.747" height="2.373" rx="1.186" ry="1.186" transform="translate(53.639 16.049) rotate(150)"/>
</svg>