<?xml version="1.0" encoding="UTF-8"?>
<svg id="_レイヤー_1" data-name="レイヤー_1" xmlns="http://www.w3.org/2000/svg" version="1.1" viewBox="0 0 186 80">
  <!-- Generator: Adobe Illustrator 29.0.1, SVG Export Plug-In . SVG Version: 2.1.0 Build 192)  -->
  <defs>
    <style>
      .st0 {
        fill: #ffef00;
      }

      .st1 {
        fill: #fff;
      }

      .st2 {
        fill: #df5a84;
      }
    </style>
  </defs>
  <path class="st0" d="M59.194,40.228l4.757,26.099c.233,1.277,1.751,1.837,2.757,1.016l20.556-16.77c1.023-.835.751-2.466-.488-2.923l-25.313-9.33c-1.239-.457-2.505.607-2.268,1.907Z"/>
  <path class="st2" d="M30.429,23.218l-.282,26.528c-.014,1.298,1.37,2.136,2.514,1.521l23.365-12.564c1.163-.625,1.205-2.279.075-2.962l-23.083-13.964c-1.13-.684-2.575.121-2.589,1.442Z"/>
  <path class="st1" d="M5.167,1.388L.195,27.447c-.243,1.275.971,2.344,2.205,1.941l25.219-8.232c1.256-.41,1.589-2.029.598-2.902L7.97.427c-.991-.873-2.556-.337-2.803.961Z"/>
  <path class="st1" d="M120.187,56.3l-17.001,20.366c-.832.997-2.428.736-2.899-.474l-9.623-24.722c-.479-1.231.562-2.516,1.865-2.302l26.624,4.356c1.303.213,1.881,1.763,1.034,2.777Z"/>
  <path class="st2" d="M153.574,56.086l-13.129,23.053c-.643,1.128-2.26,1.154-2.938.046l-13.846-22.63c-.689-1.127.108-2.575,1.428-2.596l26.975-.423c1.321-.021,2.163,1.402,1.509,2.55Z"/>
  <path class="st0" d="M186.098,47.921l-7.185,25.538c-.352,1.25-1.915,1.664-2.84.753l-18.892-18.625c-.941-.927-.516-2.526.761-2.864l26.077-6.913c1.277-.338,2.437.84,2.079,2.111Z"/>
</svg>